<?xml version="1.0" encoding="utf-8" standalone="no"?>
<!DOCTYPE svg PUBLIC "-//W3C//DTD SVG 1.1//EN"
  "http://www.w3.org/Graphics/SVG/1.1/DTD/svg11.dtd">
<svg xmlns:xlink="http://www.w3.org/1999/xlink" width="576pt" height="302.4pt" viewBox="0 0 576 302.4" xmlns="http://www.w3.org/2000/svg" version="1.1">
 <metadata>
  <rdf:RDF xmlns:dc="http://purl.org/dc/elements/1.1/" xmlns:cc="http://creativecommons.org/ns#" xmlns:rdf="http://www.w3.org/1999/02/22-rdf-syntax-ns#">
   <cc:Work>
    <dc:type rdf:resource="http://purl.org/dc/dcmitype/StillImage"/>
    <dc:date>2025-09-11T16:34:18.877391</dc:date>
    <dc:format>image/svg+xml</dc:format>
    <dc:creator>
     <cc:Agent>
      <dc:title>Matplotlib v3.9.4, https://matplotlib.org/</dc:title>
     </cc:Agent>
    </dc:creator>
   </cc:Work>
  </rdf:RDF>
 </metadata>
 <defs>
  <style type="text/css">*{stroke-linejoin: round; stroke-linecap: butt}</style>
 </defs>
 <g id="figure_1">
  <g id="patch_1">
   <path d="M 0 302.4 
L 576 302.4 
L 576 0 
L 0 0 
z
" style="fill: #ffffff"/>
  </g>
  <g id="axes_1">
   <g id="patch_2">
    <path d="M 54.2 260.44 
L 565.2 260.44 
L 565.2 25.44 
L 54.2 25.44 
z
" style="fill: #ffffff"/>
   </g>
   <g id="matplotlib.axis_1">
    <g id="xtick_1">
     <g id="line2d_1">
      <path d="M 77.384521 260.44 
L 77.384521 25.44 
" clip-path="url(#p7d35df896e)" style="fill: none; stroke-dasharray: 2.96,1.28; stroke-dashoffset: 0; stroke: #b0b0b0; stroke-opacity: 0.3; stroke-width: 0.8"/>
     </g>
     <g id="line2d_2">
      <defs>
       <path id="m5e218e6a21" d="M 0 0 
L 0 3.5 
" style="stroke: #000000; stroke-width: 0.8"/>
      </defs>
      <g>
       <use xlink:href="#m5e218e6a21" x="77.384521" y="260.44" style="stroke: #000000; stroke-width: 0.8"/>
      </g>
     </g>
     <g id="text_1">
      <!-- 0 -->
      <g transform="translate(74.203271 275.038438) scale(0.1 -0.1)">
       <defs>
        <path id="DejaVuSans-30" d="M 2034 4250 
Q 1547 4250 1301 3770 
Q 1056 3291 1056 2328 
Q 1056 1369 1301 889 
Q 1547 409 2034 409 
Q 2525 409 2770 889 
Q 3016 1369 3016 2328 
Q 3016 3291 2770 3770 
Q 2525 4250 2034 4250 
z
M 2034 4750 
Q 2819 4750 3233 4129 
Q 3647 3509 3647 2328 
Q 3647 1150 3233 529 
Q 2819 -91 2034 -91 
Q 1250 -91 836 529 
Q 422 1150 422 2328 
Q 422 3509 836 4129 
Q 1250 4750 2034 4750 
z
" transform="scale(0.015625)"/>
       </defs>
       <use xlink:href="#DejaVuSans-30"/>
      </g>
     </g>
    </g>
    <g id="xtick_2">
     <g id="line2d_3">
      <path d="M 162.88893 260.44 
L 162.88893 25.44 
" clip-path="url(#p7d35df896e)" style="fill: none; stroke-dasharray: 2.96,1.28; stroke-dashoffset: 0; stroke: #b0b0b0; stroke-opacity: 0.3; stroke-width: 0.8"/>
     </g>
     <g id="line2d_4">
      <g>
       <use xlink:href="#m5e218e6a21" x="162.88893" y="260.44" style="stroke: #000000; stroke-width: 0.8"/>
      </g>
     </g>
     <g id="text_2">
      <!-- 2000 -->
      <g transform="translate(150.16393 275.038438) scale(0.1 -0.1)">
       <defs>
        <path id="DejaVuSans-32" d="M 1228 531 
L 3431 531 
L 3431 0 
L 469 0 
L 469 531 
Q 828 903 1448 1529 
Q 2069 2156 2228 2338 
Q 2531 2678 2651 2914 
Q 2772 3150 2772 3378 
Q 2772 3750 2511 3984 
Q 2250 4219 1831 4219 
Q 1534 4219 1204 4116 
Q 875 4013 500 3803 
L 500 4441 
Q 881 4594 1212 4672 
Q 1544 4750 1819 4750 
Q 2544 4750 2975 4387 
Q 3406 4025 3406 3419 
Q 3406 3131 3298 2873 
Q 3191 2616 2906 2266 
Q 2828 2175 2409 1742 
Q 1991 1309 1228 531 
z
" transform="scale(0.015625)"/>
       </defs>
       <use xlink:href="#DejaVuSans-32"/>
       <use xlink:href="#DejaVuSans-30" x="63.623047"/>
       <use xlink:href="#DejaVuSans-30" x="127.246094"/>
       <use xlink:href="#DejaVuSans-30" x="190.869141"/>
      </g>
     </g>
    </g>
    <g id="xtick_3">
     <g id="line2d_5">
      <path d="M 248.393339 260.44 
L 248.393339 25.44 
" clip-path="url(#p7d35df896e)" style="fill: none; stroke-dasharray: 2.96,1.28; stroke-dashoffset: 0; stroke: #b0b0b0; stroke-opacity: 0.3; stroke-width: 0.8"/>
     </g>
     <g id="line2d_6">
      <g>
       <use xlink:href="#m5e218e6a21" x="248.393339" y="260.44" style="stroke: #000000; stroke-width: 0.8"/>
      </g>
     </g>
     <g id="text_3">
      <!-- 4000 -->
      <g transform="translate(235.668339 275.038438) scale(0.1 -0.1)">
       <defs>
        <path id="DejaVuSans-34" d="M 2419 4116 
L 825 1625 
L 2419 1625 
L 2419 4116 
z
M 2253 4666 
L 3047 4666 
L 3047 1625 
L 3713 1625 
L 3713 1100 
L 3047 1100 
L 3047 0 
L 2419 0 
L 2419 1100 
L 313 1100 
L 313 1709 
L 2253 4666 
z
" transform="scale(0.015625)"/>
       </defs>
       <use xlink:href="#DejaVuSans-34"/>
       <use xlink:href="#DejaVuSans-30" x="63.623047"/>
       <use xlink:href="#DejaVuSans-30" x="127.246094"/>
       <use xlink:href="#DejaVuSans-30" x="190.869141"/>
      </g>
     </g>
    </g>
    <g id="xtick_4">
     <g id="line2d_7">
      <path d="M 333.897748 260.44 
L 333.897748 25.44 
" clip-path="url(#p7d35df896e)" style="fill: none; stroke-dasharray: 2.96,1.28; stroke-dashoffset: 0; stroke: #b0b0b0; stroke-opacity: 0.3; stroke-width: 0.8"/>
     </g>
     <g id="line2d_8">
      <g>
       <use xlink:href="#m5e218e6a21" x="333.897748" y="260.44" style="stroke: #000000; stroke-width: 0.8"/>
      </g>
     </g>
     <g id="text_4">
      <!-- 6000 -->
      <g transform="translate(321.172748 275.038438) scale(0.1 -0.1)">
       <defs>
        <path id="DejaVuSans-36" d="M 2113 2584 
Q 1688 2584 1439 2293 
Q 1191 2003 1191 1497 
Q 1191 994 1439 701 
Q 1688 409 2113 409 
Q 2538 409 2786 701 
Q 3034 994 3034 1497 
Q 3034 2003 2786 2293 
Q 2538 2584 2113 2584 
z
M 3366 4563 
L 3366 3988 
Q 3128 4100 2886 4159 
Q 2644 4219 2406 4219 
Q 1781 4219 1451 3797 
Q 1122 3375 1075 2522 
Q 1259 2794 1537 2939 
Q 1816 3084 2150 3084 
Q 2853 3084 3261 2657 
Q 3669 2231 3669 1497 
Q 3669 778 3244 343 
Q 2819 -91 2113 -91 
Q 1303 -91 875 529 
Q 447 1150 447 2328 
Q 447 3434 972 4092 
Q 1497 4750 2381 4750 
Q 2619 4750 2861 4703 
Q 3103 4656 3366 4563 
z
" transform="scale(0.015625)"/>
       </defs>
       <use xlink:href="#DejaVuSans-36"/>
       <use xlink:href="#DejaVuSans-30" x="63.623047"/>
       <use xlink:href="#DejaVuSans-30" x="127.246094"/>
       <use xlink:href="#DejaVuSans-30" x="190.869141"/>
      </g>
     </g>
    </g>
    <g id="xtick_5">
     <g id="line2d_9">
      <path d="M 419.402157 260.44 
L 419.402157 25.44 
" clip-path="url(#p7d35df896e)" style="fill: none; stroke-dasharray: 2.96,1.28; stroke-dashoffset: 0; stroke: #b0b0b0; stroke-opacity: 0.3; stroke-width: 0.8"/>
     </g>
     <g id="line2d_10">
      <g>
       <use xlink:href="#m5e218e6a21" x="419.402157" y="260.44" style="stroke: #000000; stroke-width: 0.8"/>
      </g>
     </g>
     <g id="text_5">
      <!-- 8000 -->
      <g transform="translate(406.677157 275.038438) scale(0.1 -0.1)">
       <defs>
        <path id="DejaVuSans-38" d="M 2034 2216 
Q 1584 2216 1326 1975 
Q 1069 1734 1069 1313 
Q 1069 891 1326 650 
Q 1584 409 2034 409 
Q 2484 409 2743 651 
Q 3003 894 3003 1313 
Q 3003 1734 2745 1975 
Q 2488 2216 2034 2216 
z
M 1403 2484 
Q 997 2584 770 2862 
Q 544 3141 544 3541 
Q 544 4100 942 4425 
Q 1341 4750 2034 4750 
Q 2731 4750 3128 4425 
Q 3525 4100 3525 3541 
Q 3525 3141 3298 2862 
Q 3072 2584 2669 2484 
Q 3125 2378 3379 2068 
Q 3634 1759 3634 1313 
Q 3634 634 3220 271 
Q 2806 -91 2034 -91 
Q 1263 -91 848 271 
Q 434 634 434 1313 
Q 434 1759 690 2068 
Q 947 2378 1403 2484 
z
M 1172 3481 
Q 1172 3119 1398 2916 
Q 1625 2713 2034 2713 
Q 2441 2713 2670 2916 
Q 2900 3119 2900 3481 
Q 2900 3844 2670 4047 
Q 2441 4250 2034 4250 
Q 1625 4250 1398 4047 
Q 1172 3844 1172 3481 
z
" transform="scale(0.015625)"/>
       </defs>
       <use xlink:href="#DejaVuSans-38"/>
       <use xlink:href="#DejaVuSans-30" x="63.623047"/>
       <use xlink:href="#DejaVuSans-30" x="127.246094"/>
       <use xlink:href="#DejaVuSans-30" x="190.869141"/>
      </g>
     </g>
    </g>
    <g id="xtick_6">
     <g id="line2d_11">
      <path d="M 504.906566 260.44 
L 504.906566 25.44 
" clip-path="url(#p7d35df896e)" style="fill: none; stroke-dasharray: 2.96,1.28; stroke-dashoffset: 0; stroke: #b0b0b0; stroke-opacity: 0.3; stroke-width: 0.8"/>
     </g>
     <g id="line2d_12">
      <g>
       <use xlink:href="#m5e218e6a21" x="504.906566" y="260.44" style="stroke: #000000; stroke-width: 0.8"/>
      </g>
     </g>
     <g id="text_6">
      <!-- 10000 -->
      <g transform="translate(489.000316 275.038438) scale(0.1 -0.1)">
       <defs>
        <path id="DejaVuSans-31" d="M 794 531 
L 1825 531 
L 1825 4091 
L 703 3866 
L 703 4441 
L 1819 4666 
L 2450 4666 
L 2450 531 
L 3481 531 
L 3481 0 
L 794 0 
L 794 531 
z
" transform="scale(0.015625)"/>
       </defs>
       <use xlink:href="#DejaVuSans-31"/>
       <use xlink:href="#DejaVuSans-30" x="63.623047"/>
       <use xlink:href="#DejaVuSans-30" x="127.246094"/>
       <use xlink:href="#DejaVuSans-30" x="190.869141"/>
       <use xlink:href="#DejaVuSans-30" x="254.492188"/>
      </g>
     </g>
    </g>
    <g id="text_7">
     <!-- round -->
     <g transform="translate(295.185937 288.716563) scale(0.1 -0.1)">
      <defs>
       <path id="DejaVuSans-72" d="M 2631 2963 
Q 2534 3019 2420 3045 
Q 2306 3072 2169 3072 
Q 1681 3072 1420 2755 
Q 1159 2438 1159 1844 
L 1159 0 
L 581 0 
L 581 3500 
L 1159 3500 
L 1159 2956 
Q 1341 3275 1631 3429 
Q 1922 3584 2338 3584 
Q 2397 3584 2469 3576 
Q 2541 3569 2628 3553 
L 2631 2963 
z
" transform="scale(0.015625)"/>
       <path id="DejaVuSans-6f" d="M 1959 3097 
Q 1497 3097 1228 2736 
Q 959 2375 959 1747 
Q 959 1119 1226 758 
Q 1494 397 1959 397 
Q 2419 397 2687 759 
Q 2956 1122 2956 1747 
Q 2956 2369 2687 2733 
Q 2419 3097 1959 3097 
z
M 1959 3584 
Q 2709 3584 3137 3096 
Q 3566 2609 3566 1747 
Q 3566 888 3137 398 
Q 2709 -91 1959 -91 
Q 1206 -91 779 398 
Q 353 888 353 1747 
Q 353 2609 779 3096 
Q 1206 3584 1959 3584 
z
" transform="scale(0.015625)"/>
       <path id="DejaVuSans-75" d="M 544 1381 
L 544 3500 
L 1119 3500 
L 1119 1403 
Q 1119 906 1312 657 
Q 1506 409 1894 409 
Q 2359 409 2629 706 
Q 2900 1003 2900 1516 
L 2900 3500 
L 3475 3500 
L 3475 0 
L 2900 0 
L 2900 538 
Q 2691 219 2414 64 
Q 2138 -91 1772 -91 
Q 1169 -91 856 284 
Q 544 659 544 1381 
z
M 1991 3584 
L 1991 3584 
z
" transform="scale(0.015625)"/>
       <path id="DejaVuSans-6e" d="M 3513 2113 
L 3513 0 
L 2938 0 
L 2938 2094 
Q 2938 2591 2744 2837 
Q 2550 3084 2163 3084 
Q 1697 3084 1428 2787 
Q 1159 2491 1159 1978 
L 1159 0 
L 581 0 
L 581 3500 
L 1159 3500 
L 1159 2956 
Q 1366 3272 1645 3428 
Q 1925 3584 2291 3584 
Q 2894 3584 3203 3211 
Q 3513 2838 3513 2113 
z
" transform="scale(0.015625)"/>
       <path id="DejaVuSans-64" d="M 2906 2969 
L 2906 4863 
L 3481 4863 
L 3481 0 
L 2906 0 
L 2906 525 
Q 2725 213 2448 61 
Q 2172 -91 1784 -91 
Q 1150 -91 751 415 
Q 353 922 353 1747 
Q 353 2572 751 3078 
Q 1150 3584 1784 3584 
Q 2172 3584 2448 3432 
Q 2725 3281 2906 2969 
z
M 947 1747 
Q 947 1113 1208 752 
Q 1469 391 1925 391 
Q 2381 391 2643 752 
Q 2906 1113 2906 1747 
Q 2906 2381 2643 2742 
Q 2381 3103 1925 3103 
Q 1469 3103 1208 2742 
Q 947 2381 947 1747 
z
" transform="scale(0.015625)"/>
      </defs>
      <use xlink:href="#DejaVuSans-72"/>
      <use xlink:href="#DejaVuSans-6f" x="38.863281"/>
      <use xlink:href="#DejaVuSans-75" x="100.044922"/>
      <use xlink:href="#DejaVuSans-6e" x="163.423828"/>
      <use xlink:href="#DejaVuSans-64" x="226.802734"/>
     </g>
    </g>
   </g>
   <g id="matplotlib.axis_2">
    <g id="ytick_1">
     <g id="line2d_13">
      <path d="M 54.2 243.726096 
L 565.2 243.726096 
" clip-path="url(#p7d35df896e)" style="fill: none; stroke-dasharray: 2.96,1.28; stroke-dashoffset: 0; stroke: #b0b0b0; stroke-opacity: 0.3; stroke-width: 0.8"/>
     </g>
     <g id="line2d_14">
      <defs>
       <path id="mcd6b30068b" d="M 0 0 
L -3.5 0 
" style="stroke: #000000; stroke-width: 0.8"/>
      </defs>
      <g>
       <use xlink:href="#mcd6b30068b" x="54.2" y="243.726096" style="stroke: #000000; stroke-width: 0.8"/>
      </g>
     </g>
     <g id="text_8">
      <!-- 0.86 -->
      <g transform="translate(24.934375 247.525315) scale(0.1 -0.1)">
       <defs>
        <path id="DejaVuSans-2e" d="M 684 794 
L 1344 794 
L 1344 0 
L 684 0 
L 684 794 
z
" transform="scale(0.015625)"/>
       </defs>
       <use xlink:href="#DejaVuSans-30"/>
       <use xlink:href="#DejaVuSans-2e" x="63.623047"/>
       <use xlink:href="#DejaVuSans-38" x="95.410156"/>
       <use xlink:href="#DejaVuSans-36" x="159.033203"/>
      </g>
     </g>
    </g>
    <g id="ytick_2">
     <g id="line2d_15">
      <path d="M 54.2 214.068342 
L 565.2 214.068342 
" clip-path="url(#p7d35df896e)" style="fill: none; stroke-dasharray: 2.96,1.28; stroke-dashoffset: 0; stroke: #b0b0b0; stroke-opacity: 0.3; stroke-width: 0.8"/>
     </g>
     <g id="line2d_16">
      <g>
       <use xlink:href="#mcd6b30068b" x="54.2" y="214.068342" style="stroke: #000000; stroke-width: 0.8"/>
      </g>
     </g>
     <g id="text_9">
      <!-- 0.88 -->
      <g transform="translate(24.934375 217.867561) scale(0.1 -0.1)">
       <use xlink:href="#DejaVuSans-30"/>
       <use xlink:href="#DejaVuSans-2e" x="63.623047"/>
       <use xlink:href="#DejaVuSans-38" x="95.410156"/>
       <use xlink:href="#DejaVuSans-38" x="159.033203"/>
      </g>
     </g>
    </g>
    <g id="ytick_3">
     <g id="line2d_17">
      <path d="M 54.2 184.410588 
L 565.2 184.410588 
" clip-path="url(#p7d35df896e)" style="fill: none; stroke-dasharray: 2.96,1.28; stroke-dashoffset: 0; stroke: #b0b0b0; stroke-opacity: 0.3; stroke-width: 0.8"/>
     </g>
     <g id="line2d_18">
      <g>
       <use xlink:href="#mcd6b30068b" x="54.2" y="184.410588" style="stroke: #000000; stroke-width: 0.8"/>
      </g>
     </g>
     <g id="text_10">
      <!-- 0.90 -->
      <g transform="translate(24.934375 188.209807) scale(0.1 -0.1)">
       <defs>
        <path id="DejaVuSans-39" d="M 703 97 
L 703 672 
Q 941 559 1184 500 
Q 1428 441 1663 441 
Q 2288 441 2617 861 
Q 2947 1281 2994 2138 
Q 2813 1869 2534 1725 
Q 2256 1581 1919 1581 
Q 1219 1581 811 2004 
Q 403 2428 403 3163 
Q 403 3881 828 4315 
Q 1253 4750 1959 4750 
Q 2769 4750 3195 4129 
Q 3622 3509 3622 2328 
Q 3622 1225 3098 567 
Q 2575 -91 1691 -91 
Q 1453 -91 1209 -44 
Q 966 3 703 97 
z
M 1959 2075 
Q 2384 2075 2632 2365 
Q 2881 2656 2881 3163 
Q 2881 3666 2632 3958 
Q 2384 4250 1959 4250 
Q 1534 4250 1286 3958 
Q 1038 3666 1038 3163 
Q 1038 2656 1286 2365 
Q 1534 2075 1959 2075 
z
" transform="scale(0.015625)"/>
       </defs>
       <use xlink:href="#DejaVuSans-30"/>
       <use xlink:href="#DejaVuSans-2e" x="63.623047"/>
       <use xlink:href="#DejaVuSans-39" x="95.410156"/>
       <use xlink:href="#DejaVuSans-30" x="159.033203"/>
      </g>
     </g>
    </g>
    <g id="ytick_4">
     <g id="line2d_19">
      <path d="M 54.2 154.752834 
L 565.2 154.752834 
" clip-path="url(#p7d35df896e)" style="fill: none; stroke-dasharray: 2.96,1.28; stroke-dashoffset: 0; stroke: #b0b0b0; stroke-opacity: 0.3; stroke-width: 0.8"/>
     </g>
     <g id="line2d_20">
      <g>
       <use xlink:href="#mcd6b30068b" x="54.2" y="154.752834" style="stroke: #000000; stroke-width: 0.8"/>
      </g>
     </g>
     <g id="text_11">
      <!-- 0.92 -->
      <g transform="translate(24.934375 158.552053) scale(0.1 -0.1)">
       <use xlink:href="#DejaVuSans-30"/>
       <use xlink:href="#DejaVuSans-2e" x="63.623047"/>
       <use xlink:href="#DejaVuSans-39" x="95.410156"/>
       <use xlink:href="#DejaVuSans-32" x="159.033203"/>
      </g>
     </g>
    </g>
    <g id="ytick_5">
     <g id="line2d_21">
      <path d="M 54.2 125.09508 
L 565.2 125.09508 
" clip-path="url(#p7d35df896e)" style="fill: none; stroke-dasharray: 2.96,1.28; stroke-dashoffset: 0; stroke: #b0b0b0; stroke-opacity: 0.3; stroke-width: 0.8"/>
     </g>
     <g id="line2d_22">
      <g>
       <use xlink:href="#mcd6b30068b" x="54.2" y="125.09508" style="stroke: #000000; stroke-width: 0.8"/>
      </g>
     </g>
     <g id="text_12">
      <!-- 0.94 -->
      <g transform="translate(24.934375 128.894299) scale(0.1 -0.1)">
       <use xlink:href="#DejaVuSans-30"/>
       <use xlink:href="#DejaVuSans-2e" x="63.623047"/>
       <use xlink:href="#DejaVuSans-39" x="95.410156"/>
       <use xlink:href="#DejaVuSans-34" x="159.033203"/>
      </g>
     </g>
    </g>
    <g id="ytick_6">
     <g id="line2d_23">
      <path d="M 54.2 95.437326 
L 565.2 95.437326 
" clip-path="url(#p7d35df896e)" style="fill: none; stroke-dasharray: 2.96,1.28; stroke-dashoffset: 0; stroke: #b0b0b0; stroke-opacity: 0.3; stroke-width: 0.8"/>
     </g>
     <g id="line2d_24">
      <g>
       <use xlink:href="#mcd6b30068b" x="54.2" y="95.437326" style="stroke: #000000; stroke-width: 0.8"/>
      </g>
     </g>
     <g id="text_13">
      <!-- 0.96 -->
      <g transform="translate(24.934375 99.236545) scale(0.1 -0.1)">
       <use xlink:href="#DejaVuSans-30"/>
       <use xlink:href="#DejaVuSans-2e" x="63.623047"/>
       <use xlink:href="#DejaVuSans-39" x="95.410156"/>
       <use xlink:href="#DejaVuSans-36" x="159.033203"/>
      </g>
     </g>
    </g>
    <g id="ytick_7">
     <g id="line2d_25">
      <path d="M 54.2 65.779572 
L 565.2 65.779572 
" clip-path="url(#p7d35df896e)" style="fill: none; stroke-dasharray: 2.96,1.28; stroke-dashoffset: 0; stroke: #b0b0b0; stroke-opacity: 0.3; stroke-width: 0.8"/>
     </g>
     <g id="line2d_26">
      <g>
       <use xlink:href="#mcd6b30068b" x="54.2" y="65.779572" style="stroke: #000000; stroke-width: 0.8"/>
      </g>
     </g>
     <g id="text_14">
      <!-- 0.98 -->
      <g transform="translate(24.934375 69.578791) scale(0.1 -0.1)">
       <use xlink:href="#DejaVuSans-30"/>
       <use xlink:href="#DejaVuSans-2e" x="63.623047"/>
       <use xlink:href="#DejaVuSans-39" x="95.410156"/>
       <use xlink:href="#DejaVuSans-38" x="159.033203"/>
      </g>
     </g>
    </g>
    <g id="ytick_8">
     <g id="line2d_27">
      <path d="M 54.2 36.121818 
L 565.2 36.121818 
" clip-path="url(#p7d35df896e)" style="fill: none; stroke-dasharray: 2.96,1.28; stroke-dashoffset: 0; stroke: #b0b0b0; stroke-opacity: 0.3; stroke-width: 0.8"/>
     </g>
     <g id="line2d_28">
      <g>
       <use xlink:href="#mcd6b30068b" x="54.2" y="36.121818" style="stroke: #000000; stroke-width: 0.8"/>
      </g>
     </g>
     <g id="text_15">
      <!-- 1.00 -->
      <g transform="translate(24.934375 39.921037) scale(0.1 -0.1)">
       <use xlink:href="#DejaVuSans-31"/>
       <use xlink:href="#DejaVuSans-2e" x="63.623047"/>
       <use xlink:href="#DejaVuSans-30" x="95.410156"/>
       <use xlink:href="#DejaVuSans-30" x="159.033203"/>
      </g>
     </g>
    </g>
    <g id="text_16">
     <!-- cumulative timely transfer rate -->
     <g transform="translate(18.854688 221.048594) rotate(-90) scale(0.1 -0.1)">
      <defs>
       <path id="DejaVuSans-63" d="M 3122 3366 
L 3122 2828 
Q 2878 2963 2633 3030 
Q 2388 3097 2138 3097 
Q 1578 3097 1268 2742 
Q 959 2388 959 1747 
Q 959 1106 1268 751 
Q 1578 397 2138 397 
Q 2388 397 2633 464 
Q 2878 531 3122 666 
L 3122 134 
Q 2881 22 2623 -34 
Q 2366 -91 2075 -91 
Q 1284 -91 818 406 
Q 353 903 353 1747 
Q 353 2603 823 3093 
Q 1294 3584 2113 3584 
Q 2378 3584 2631 3529 
Q 2884 3475 3122 3366 
z
" transform="scale(0.015625)"/>
       <path id="DejaVuSans-6d" d="M 3328 2828 
Q 3544 3216 3844 3400 
Q 4144 3584 4550 3584 
Q 5097 3584 5394 3201 
Q 5691 2819 5691 2113 
L 5691 0 
L 5113 0 
L 5113 2094 
Q 5113 2597 4934 2840 
Q 4756 3084 4391 3084 
Q 3944 3084 3684 2787 
Q 3425 2491 3425 1978 
L 3425 0 
L 2847 0 
L 2847 2094 
Q 2847 2600 2669 2842 
Q 2491 3084 2119 3084 
Q 1678 3084 1418 2786 
Q 1159 2488 1159 1978 
L 1159 0 
L 581 0 
L 581 3500 
L 1159 3500 
L 1159 2956 
Q 1356 3278 1631 3431 
Q 1906 3584 2284 3584 
Q 2666 3584 2933 3390 
Q 3200 3197 3328 2828 
z
" transform="scale(0.015625)"/>
       <path id="DejaVuSans-6c" d="M 603 4863 
L 1178 4863 
L 1178 0 
L 603 0 
L 603 4863 
z
" transform="scale(0.015625)"/>
       <path id="DejaVuSans-61" d="M 2194 1759 
Q 1497 1759 1228 1600 
Q 959 1441 959 1056 
Q 959 750 1161 570 
Q 1363 391 1709 391 
Q 2188 391 2477 730 
Q 2766 1069 2766 1631 
L 2766 1759 
L 2194 1759 
z
M 3341 1997 
L 3341 0 
L 2766 0 
L 2766 531 
Q 2569 213 2275 61 
Q 1981 -91 1556 -91 
Q 1019 -91 701 211 
Q 384 513 384 1019 
Q 384 1609 779 1909 
Q 1175 2209 1959 2209 
L 2766 2209 
L 2766 2266 
Q 2766 2663 2505 2880 
Q 2244 3097 1772 3097 
Q 1472 3097 1187 3025 
Q 903 2953 641 2809 
L 641 3341 
Q 956 3463 1253 3523 
Q 1550 3584 1831 3584 
Q 2591 3584 2966 3190 
Q 3341 2797 3341 1997 
z
" transform="scale(0.015625)"/>
       <path id="DejaVuSans-74" d="M 1172 4494 
L 1172 3500 
L 2356 3500 
L 2356 3053 
L 1172 3053 
L 1172 1153 
Q 1172 725 1289 603 
Q 1406 481 1766 481 
L 2356 481 
L 2356 0 
L 1766 0 
Q 1100 0 847 248 
Q 594 497 594 1153 
L 594 3053 
L 172 3053 
L 172 3500 
L 594 3500 
L 594 4494 
L 1172 4494 
z
" transform="scale(0.015625)"/>
       <path id="DejaVuSans-69" d="M 603 3500 
L 1178 3500 
L 1178 0 
L 603 0 
L 603 3500 
z
M 603 4863 
L 1178 4863 
L 1178 4134 
L 603 4134 
L 603 4863 
z
" transform="scale(0.015625)"/>
       <path id="DejaVuSans-76" d="M 191 3500 
L 800 3500 
L 1894 563 
L 2988 3500 
L 3597 3500 
L 2284 0 
L 1503 0 
L 191 3500 
z
" transform="scale(0.015625)"/>
       <path id="DejaVuSans-65" d="M 3597 1894 
L 3597 1613 
L 953 1613 
Q 991 1019 1311 708 
Q 1631 397 2203 397 
Q 2534 397 2845 478 
Q 3156 559 3463 722 
L 3463 178 
Q 3153 47 2828 -22 
Q 2503 -91 2169 -91 
Q 1331 -91 842 396 
Q 353 884 353 1716 
Q 353 2575 817 3079 
Q 1281 3584 2069 3584 
Q 2775 3584 3186 3129 
Q 3597 2675 3597 1894 
z
M 3022 2063 
Q 3016 2534 2758 2815 
Q 2500 3097 2075 3097 
Q 1594 3097 1305 2825 
Q 1016 2553 972 2059 
L 3022 2063 
z
" transform="scale(0.015625)"/>
       <path id="DejaVuSans-20" transform="scale(0.015625)"/>
       <path id="DejaVuSans-79" d="M 2059 -325 
Q 1816 -950 1584 -1140 
Q 1353 -1331 966 -1331 
L 506 -1331 
L 506 -850 
L 844 -850 
Q 1081 -850 1212 -737 
Q 1344 -625 1503 -206 
L 1606 56 
L 191 3500 
L 800 3500 
L 1894 763 
L 2988 3500 
L 3597 3500 
L 2059 -325 
z
" transform="scale(0.015625)"/>
       <path id="DejaVuSans-73" d="M 2834 3397 
L 2834 2853 
Q 2591 2978 2328 3040 
Q 2066 3103 1784 3103 
Q 1356 3103 1142 2972 
Q 928 2841 928 2578 
Q 928 2378 1081 2264 
Q 1234 2150 1697 2047 
L 1894 2003 
Q 2506 1872 2764 1633 
Q 3022 1394 3022 966 
Q 3022 478 2636 193 
Q 2250 -91 1575 -91 
Q 1294 -91 989 -36 
Q 684 19 347 128 
L 347 722 
Q 666 556 975 473 
Q 1284 391 1588 391 
Q 1994 391 2212 530 
Q 2431 669 2431 922 
Q 2431 1156 2273 1281 
Q 2116 1406 1581 1522 
L 1381 1569 
Q 847 1681 609 1914 
Q 372 2147 372 2553 
Q 372 3047 722 3315 
Q 1072 3584 1716 3584 
Q 2034 3584 2315 3537 
Q 2597 3491 2834 3397 
z
" transform="scale(0.015625)"/>
       <path id="DejaVuSans-66" d="M 2375 4863 
L 2375 4384 
L 1825 4384 
Q 1516 4384 1395 4259 
Q 1275 4134 1275 3809 
L 1275 3500 
L 2222 3500 
L 2222 3053 
L 1275 3053 
L 1275 0 
L 697 0 
L 697 3053 
L 147 3053 
L 147 3500 
L 697 3500 
L 697 3744 
Q 697 4328 969 4595 
Q 1241 4863 1831 4863 
L 2375 4863 
z
" transform="scale(0.015625)"/>
      </defs>
      <use xlink:href="#DejaVuSans-63"/>
      <use xlink:href="#DejaVuSans-75" x="54.980469"/>
      <use xlink:href="#DejaVuSans-6d" x="118.359375"/>
      <use xlink:href="#DejaVuSans-75" x="215.771484"/>
      <use xlink:href="#DejaVuSans-6c" x="279.150391"/>
      <use xlink:href="#DejaVuSans-61" x="306.933594"/>
      <use xlink:href="#DejaVuSans-74" x="368.212891"/>
      <use xlink:href="#DejaVuSans-69" x="407.421875"/>
      <use xlink:href="#DejaVuSans-76" x="435.205078"/>
      <use xlink:href="#DejaVuSans-65" x="494.384766"/>
      <use xlink:href="#DejaVuSans-20" x="555.908203"/>
      <use xlink:href="#DejaVuSans-74" x="587.695312"/>
      <use xlink:href="#DejaVuSans-69" x="626.904297"/>
      <use xlink:href="#DejaVuSans-6d" x="654.6875"/>
      <use xlink:href="#DejaVuSans-65" x="752.099609"/>
      <use xlink:href="#DejaVuSans-6c" x="813.623047"/>
      <use xlink:href="#DejaVuSans-79" x="841.40625"/>
      <use xlink:href="#DejaVuSans-20" x="900.585938"/>
      <use xlink:href="#DejaVuSans-74" x="932.373047"/>
      <use xlink:href="#DejaVuSans-72" x="971.582031"/>
      <use xlink:href="#DejaVuSans-61" x="1012.695312"/>
      <use xlink:href="#DejaVuSans-6e" x="1073.974609"/>
      <use xlink:href="#DejaVuSans-73" x="1137.353516"/>
      <use xlink:href="#DejaVuSans-66" x="1189.453125"/>
      <use xlink:href="#DejaVuSans-65" x="1224.658203"/>
      <use xlink:href="#DejaVuSans-72" x="1286.181641"/>
      <use xlink:href="#DejaVuSans-20" x="1327.294922"/>
      <use xlink:href="#DejaVuSans-72" x="1359.082031"/>
      <use xlink:href="#DejaVuSans-61" x="1400.195312"/>
      <use xlink:href="#DejaVuSans-74" x="1461.474609"/>
      <use xlink:href="#DejaVuSans-65" x="1500.683594"/>
     </g>
    </g>
   </g>
   <g id="line2d_29">
    <path d="M 77.427273 36.121818 
L 77.470025 36.121818 
L 77.512777 200.887118 
L 77.598282 162.325027 
L 77.641034 249.758182 
L 77.726538 205.310348 
L 77.812043 171.654565 
L 77.854795 200.094977 
L 77.897547 183.768646 
L 77.940299 170.929791 
L 78.111308 245.47067 
L 78.15406 236.061733 
L 78.282317 208.050827 
L 78.367821 232.339063 
L 78.410573 225.757352 
L 78.53883 207.440284 
L 78.624334 227.295494 
L 78.667087 221.170199 
L 79.222865 167.068942 
L 79.735892 139.44921 
L 80.248918 121.252687 
L 81.146715 99.551697 
L 81.360476 97.471554 
L 82.258272 84.038257 
L 82.899555 77.433939 
L 83.284325 74.312081 
L 83.455334 79.005196 
L 83.58359 78.148909 
L 83.797351 86.179037 
L 83.840103 85.886215 
L 84.011112 91.979471 
L 84.053864 91.647479 
L 84.182121 90.595244 
L 84.224873 91.9502 
L 84.310378 91.200504 
L 84.35313 91.277494 
L 87.26028 72.095575 
L 87.345784 74.803493 
L 87.431289 74.302038 
L 87.559545 73.507739 
L 87.64505 75.280771 
L 87.730554 74.79036 
L 87.773306 74.526816 
L 87.816058 74.775289 
L 87.858811 75.289612 
L 87.901563 75.060331 
L 88.072572 74.163218 
L 88.115324 75.588482 
L 88.200828 75.132659 
L 88.286333 74.668907 
L 88.329085 76.042126 
L 88.414589 75.539477 
L 88.500094 75.061283 
L 88.542846 76.059603 
L 88.585598 75.734122 
L 88.62835 75.390388 
L 88.671103 76.354353 
L 88.713855 76.040684 
L 88.927616 74.488628 
L 88.970368 75.490518 
L 89.055872 74.939793 
L 89.739908 70.829654 
L 90.680456 65.95637 
L 91.278987 63.639322 
L 91.706509 62.154218 
L 91.749261 62.03689 
L 91.792013 63.537461 
L 91.877518 63.333239 
L 92.048527 62.953 
L 92.134031 66.744244 
L 92.176783 66.622598 
L 92.219535 66.504586 
L 92.262288 66.885507 
L 92.30504 68.529725 
L 92.390544 68.211206 
L 92.561553 67.573974 
L 92.647058 68.471675 
L 92.68981 68.326319 
L 92.732562 68.150425 
L 92.775314 68.480616 
L 92.860819 68.321665 
L 93.07458 67.584539 
L 93.160084 68.457838 
L 93.245588 68.264833 
L 93.331093 67.987047 
L 93.416597 68.730421 
L 93.459349 68.582132 
L 93.587606 68.45189 
L 93.630358 68.596281 
L 93.67311 68.446346 
L 93.715863 69.671314 
L 93.801367 69.375392 
L 93.929624 69.975701 
L 93.972376 69.8511 
L 94.399898 68.102018 
L 95.041181 65.773815 
L 95.21219 65.223901 
L 95.254942 65.644611 
L 95.340446 65.405852 
L 95.383199 65.290647 
L 95.425951 65.523346 
L 95.468703 65.408667 
L 95.511455 65.298477 
L 95.682464 67.822078 
L 95.767968 67.615511 
L 95.981729 67.064759 
L 96.024482 67.985521 
L 96.109986 67.755829 
L 97.007782 65.517915 
L 97.178791 66.887454 
L 98.033835 64.654526 
L 98.333101 64.017654 
L 98.418605 64.703798 
L 98.461357 64.625117 
L 98.632366 64.277018 
L 98.803375 66.11312 
L 98.846127 66.055126 
L 98.974384 65.862959 
L 99.017136 67.031194 
L 99.10264 66.906026 
L 99.401906 66.26346 
L 99.444658 66.673878 
L 99.530162 66.501166 
L 99.829428 65.767792 
L 100.000437 66.367686 
L 100.171446 66.009477 
L 100.299702 66.679212 
L 100.342454 66.568798 
L 100.385207 67.907855 
L 100.470711 67.744423 
L 100.513463 67.638165 
L 100.556215 67.872242 
L 100.598968 67.760884 
L 100.855481 67.228371 
L 100.898233 67.636446 
L 100.983737 67.479791 
L 101.283003 66.920118 
L 101.325755 67.428343 
L 101.411259 67.245751 
L 103.078595 64.398352 
L 103.249604 65.316484 
L 103.292356 65.260263 
L 103.335109 65.823888 
L 103.420613 65.687148 
L 103.54887 65.502982 
L 103.719879 65.979312 
L 103.762631 66.114081 
L 103.848135 66.027672 
L 103.890887 65.95415 
L 104.275657 68.153317 
L 104.361162 68.008652 
L 104.489418 67.793027 
L 104.53217 68.214238 
L 104.617675 68.095705 
L 105.130701 67.431037 
L 105.173453 67.9331 
L 105.258958 67.824901 
L 105.344462 67.726619 
L 105.387214 68.22971 
L 105.472719 68.101938 
L 105.814737 67.635702 
L 105.857489 68.15489 
L 105.942993 68.010874 
L 106.028498 67.890021 
L 106.07125 68.392778 
L 106.156754 68.276153 
L 106.199506 68.210173 
L 106.242259 68.701632 
L 106.327763 68.619945 
L 106.541524 68.373362 
L 106.584276 68.575895 
L 106.712533 70.003487 
L 106.755285 69.96225 
L 106.798037 70.388718 
L 106.883542 70.261208 
L 107.140055 69.88229 
L 107.182807 69.804699 
L 107.353816 72.009115 
L 107.482073 71.79986 
L 107.738586 72.791252 
L 107.995099 72.489363 
L 108.037851 73.117026 
L 108.123356 73.016999 
L 108.337117 72.747307 
L 108.636382 76.576735 
L 108.679134 76.503972 
L 109.36317 75.400122 
L 109.405922 75.455065 
L 109.448674 75.389699 
L 110.047205 74.504569 
L 110.089957 74.6088 
L 110.132709 74.543676 
L 110.517479 73.925984 
L 110.688488 74.458151 
L 110.773992 75.112015 
L 110.859497 74.964969 
L 111.671789 73.769594 
L 112.313072 72.992766 
L 112.48408 73.398425 
L 112.655089 73.145249 
L 112.783346 73.420061 
L 112.911602 73.269643 
L 112.954355 73.434682 
L 113.039859 73.328895 
L 113.125364 73.229826 
L 113.210868 73.495297 
L 113.25362 73.439199 
L 113.552886 73.10628 
L 113.63839 73.914192 
L 113.766647 73.740194 
L 114.963708 72.173315 
L 115.049213 72.32322 
L 115.091965 72.421622 
L 115.134717 72.365922 
L 115.39123 72.103605 
L 115.562239 73.490204 
L 115.776 73.247297 
L 115.818752 73.393396 
L 115.861505 73.332002 
L 116.631044 72.374236 
L 116.673796 72.757286 
L 116.759301 72.665255 
L 116.844805 72.563119 
L 116.887558 72.891177 
L 116.973062 72.78654 
L 117.486088 72.291278 
L 117.699849 72.12339 
L 117.742602 72.608314 
L 117.828106 72.497627 
L 118.041867 72.237867 
L 118.084619 72.393551 
L 118.170124 72.302746 
L 118.426637 72.174279 
L 118.469389 72.831152 
L 118.554893 72.741005 
L 118.725902 72.548502 
L 118.768655 72.642724 
L 118.811407 72.612815 
L 118.854159 72.874018 
L 118.939663 72.790425 
L 119.324433 72.365562 
L 119.409938 72.771404 
L 119.538194 72.684622 
L 120.008468 72.302067 
L 120.136725 72.52331 
L 120.179477 72.483049 
L 120.264982 72.385155 
L 120.307734 72.675475 
L 120.393238 72.586949 
L 120.478743 72.576784 
L 120.991769 72.066494 
L 121.034521 72.347391 
L 121.120026 72.23439 
L 121.376539 71.993583 
L 121.419291 72.170006 
L 121.504796 72.098373 
L 121.846813 71.795849 
L 121.889565 72.277527 
L 121.97507 72.176343 
L 122.35984 71.842386 
L 122.445344 72.43445 
L 122.530849 72.348292 
L 122.830114 72.072334 
L 122.872866 72.375463 
L 122.958371 72.314314 
L 123.556901 71.85222 
L 123.599654 72.014464 
L 123.685158 71.937433 
L 123.813415 71.961396 
L 124.326441 71.5038 
L 124.49745 71.768157 
L 125.138733 71.262838 
L 125.181485 71.374796 
L 125.26699 71.303223 
L 125.737264 71.010751 
L 125.780016 71.180306 
L 125.86552 71.111276 
L 126.378547 70.763202 
L 127.4046 70.015998 
L 127.447352 70.144863 
L 127.532856 70.065609 
L 127.575609 70.036642 
L 127.618361 70.333814 
L 127.703865 70.263409 
L 127.746617 70.408239 
L 127.832122 70.333684 
L 127.874874 70.29258 
L 127.960378 70.518522 
L 128.003131 70.489994 
L 128.986431 69.820268 
L 129.029184 70.057976 
L 129.114688 69.994944 
L 129.371201 69.810256 
L 129.413953 69.872474 
L 129.499458 69.805286 
L 129.713219 69.636996 
L 129.755971 69.755135 
L 129.841475 69.701584 
L 130.653767 69.176475 
L 130.824776 69.044948 
L 130.867528 69.187851 
L 130.953033 69.123675 
L 131.252298 68.916226 
L 131.765325 68.641653 
L 131.936334 68.721695 
L 132.06459 68.613841 
L 132.107342 69.037037 
L 132.192847 68.979059 
L 132.492112 68.761863 
L 132.534864 68.915777 
L 132.620369 68.85311 
L 132.748625 68.755052 
L 132.791378 68.967619 
L 132.876882 68.899357 
L 133.603669 68.472517 
L 133.646422 68.540917 
L 133.689174 68.847173 
L 133.774678 68.797685 
L 134.501466 68.494691 
L 135.399262 68.4882 
L 135.570271 68.525242 
L 138.434669 68.583396 
L 138.605677 68.641546 
L 139.204208 68.699691 
L 139.375217 68.757831 
L 186.872916 68.835344 
L 187.043925 68.874098 
L 220.775415 68.969656 
L 220.946423 69.027772 
L 333.769491 69.124181 
L 334.068757 69.14355 
L 370.963909 69.239498 
L 371.263175 69.258863 
L 416.879777 69.353903 
L 417.179042 69.373263 
L 447.661364 69.429562 
L 447.832373 69.487633 
L 451.167045 69.487633 
L 451.167045 69.487633 
" clip-path="url(#p7d35df896e)" style="fill: none; stroke: #1f77b4; stroke-width: 1.8; stroke-linecap: square"/>
   </g>
   <g id="line2d_30">
    <path d="M 77.427273 127.658096 
L 77.470025 82.174231 
L 77.512777 107.874449 
L 77.598282 132.13613 
L 77.641034 117.006602 
L 77.76929 89.222571 
L 77.812043 108.414798 
L 77.897547 106.665534 
L 78.15406 87.015003 
L 78.325069 77.789737 
L 78.367821 86.124354 
L 78.453326 82.326693 
L 78.709839 73.383229 
L 78.752591 81.091877 
L 78.838095 78.550651 
L 78.9236 76.172803 
L 78.966352 78.462228 
L 79.009104 77.260603 
L 79.094609 75.074484 
L 79.137361 76.754864 
L 79.30837 74.493036 
L 79.351122 80.655327 
L 79.436626 78.724943 
L 79.650387 75.403612 
L 79.778644 77.073194 
L 80.29167 70.113513 
L 80.590936 66.950083 
L 80.633688 70.082891 
L 80.719192 69.291369 
L 80.804697 68.407589 
L 80.975706 70.637493 
L 81.018458 70.203891 
L 81.189467 76.657712 
L 81.274971 75.789163 
L 81.317723 77.481138 
L 81.403228 76.712159 
L 81.702493 73.984301 
L 81.745245 74.470839 
L 81.787998 74.108671 
L 82.087263 71.812438 
L 82.130015 72.770515 
L 82.172767 72.419657 
L 82.386528 70.891486 
L 82.429281 71.640086 
L 82.514785 71.192142 
L 82.685794 70.135683 
L 82.985059 74.927131 
L 83.070564 74.332863 
L 83.156068 73.763322 
L 83.284325 76.3099 
L 83.327077 75.992096 
L 83.369829 77.507137 
L 83.455334 76.927052 
L 83.669095 75.475282 
L 83.711847 76.163571 
L 83.754599 76.003291 
L 83.797351 75.71202 
L 83.882856 76.957022 
L 83.925608 76.687494 
L 84.053864 75.933991 
L 84.182121 78.45113 
L 84.267625 77.904347 
L 84.310378 79.562531 
L 84.395882 79.03709 
L 84.566891 77.974923 
L 84.609643 78.807129 
L 84.652395 78.553686 
L 84.866156 77.901999 
L 84.994413 78.700984 
L 85.12267 77.984336 
L 85.208174 80.092021 
L 85.293678 79.621674 
L 85.379183 79.158489 
L 85.550192 85.290806 
L 85.678448 84.510102 
L 85.934961 83.206176 
L 85.977714 83.977103 
L 86.063218 83.759818 
L 86.576244 81.123713 
L 86.618997 81.489158 
L 86.661749 81.263627 
L 86.704501 81.050315 
L 86.747253 81.903125 
L 86.832758 81.461617 
L 86.961014 80.899746 
L 87.003767 81.467376 
L 87.046519 81.253183 
L 87.64505 78.640014 
L 87.730554 79.996435 
L 87.816058 79.67537 
L 87.901563 79.314144 
L 88.029819 80.140078 
L 88.329085 79.099999 
L 88.371837 79.697076 
L 88.457341 79.342358 
L 88.713855 78.385373 
L 88.756607 79.71231 
L 88.842111 79.404584 
L 89.055872 78.91325 
L 89.098625 79.543247 
L 89.184129 79.22107 
L 89.269633 78.905503 
L 89.355138 78.933838 
L 89.39789 80.116072 
L 89.483394 79.795908 
L 89.526147 79.64685 
L 89.697155 80.755566 
L 89.739908 80.59851 
L 89.910916 80.010194 
L 90.081925 81.330703 
L 90.210182 80.95804 
L 90.295686 81.897296 
L 90.338438 81.760074 
L 91.022474 79.807268 
L 91.065226 80.347802 
L 91.15073 80.090191 
L 91.407244 79.347828 
L 91.578252 79.975014 
L 91.621005 79.840936 
L 91.749261 80.706278 
L 91.834766 80.448999 
L 91.963022 80.269178 
L 92.091279 80.723871 
L 92.134031 80.586061 
L 92.390544 80.047855 
L 92.561553 81.404699 
L 92.647058 81.144797 
L 92.818066 80.65328 
L 92.860819 80.874182 
L 92.903571 80.744149 
L 93.031827 80.409866 
L 93.160084 80.914541 
L 93.202836 80.794138 
L 93.331093 80.465623 
L 93.416597 80.513906 
L 93.459349 80.674968 
L 93.502102 80.551659 
L 93.587606 80.336795 
L 93.67311 80.754391 
L 93.715863 80.638127 
L 93.758615 80.529502 
L 93.801367 80.589238 
L 93.844119 80.793022 
L 93.886871 80.670892 
L 93.972376 80.45218 
L 94.05788 81.428303 
L 94.100632 81.303193 
L 94.271641 80.865887 
L 94.399898 82.99029 
L 94.485402 82.75577 
L 94.699163 82.19548 
L 94.741916 82.737622 
L 94.82742 82.502013 
L 95.083933 81.889689 
L 95.21219 82.505246 
L 95.297694 82.27673 
L 95.425951 83.432591 
L 95.468703 83.315828 
L 95.511455 83.706324 
L 95.59696 83.496127 
L 95.810721 83.047851 
L 95.938977 83.970281 
L 96.024482 83.761149 
L 96.109986 83.544637 
L 96.195491 83.603343 
L 96.280995 83.904388 
L 96.323747 84.369582 
L 96.409252 84.359944 
L 96.751269 83.53893 
L 96.922278 84.948944 
L 96.96503 84.838985 
L 97.392552 83.820411 
L 97.435304 84.022526 
L 97.478057 83.917372 
L 97.820074 83.38427 
L 98.247596 82.662906 
L 98.290349 82.754666 
L 98.333101 82.660954 
L 98.461357 82.375219 
L 98.50411 82.532752 
L 98.717871 82.087145 
L 98.888879 83.653947 
L 99.444658 82.562599 
L 99.48741 82.748897 
L 99.530162 82.664551 
L 99.572915 82.583778 
L 99.615667 82.946928 
L 99.701171 82.765685 
L 99.743923 82.985086 
L 99.829428 82.937911 
L 99.914932 82.77893 
L 99.957685 83.029386 
L 100.000437 82.947336 
L 100.085941 82.770186 
L 100.128693 83.23102 
L 100.214198 83.215327 
L 100.427959 82.786585 
L 100.470711 83.060705 
L 100.513463 82.980415 
L 100.684472 82.640147 
L 100.727224 82.687363 
L 100.769976 82.827203 
L 100.812729 82.735896 
L 100.855481 82.650104 
L 100.898233 82.804712 
L 101.02649 82.907923 
L 101.154746 83.6459 
L 101.240251 83.469697 
L 101.283003 83.588174 
L 101.325755 83.627338 
L 101.368507 83.535624 
L 101.62502 83.264819 
L 101.710525 83.754353 
L 101.753277 83.664879 
L 101.881534 83.421555 
L 101.924286 83.501536 
L 101.967038 83.985254 
L 102.052543 83.818683 
L 102.223551 83.483043 
L 102.309056 84.223505 
L 102.39456 84.062392 
L 102.736578 83.604419 
L 102.77933 83.801043 
L 102.822082 83.739567 
L 102.907587 83.581242 
L 102.993091 83.639833 
L 103.078595 83.714599 
L 103.1641 83.553144 
L 103.249604 83.431817 
L 103.377861 83.645317 
L 103.54887 83.367867 
L 103.591622 83.642896 
L 103.677126 83.494946 
L 103.805383 83.260319 
L 103.93364 84.210438 
L 103.976392 84.132215 
L 104.703179 82.977865 
L 104.745931 82.903731 
L 104.788684 83.256755 
L 104.874188 83.103842 
L 105.002445 82.88471 
L 105.087949 83.568866 
L 105.130701 83.4913 
L 105.216206 83.552663 
L 105.258958 83.474581 
L 105.344462 83.937279 
L 105.387214 83.861602 
L 105.600976 83.529696 
L 105.771984 83.950751 
L 106.028498 83.529059 
L 106.07125 83.667212 
L 106.156754 84.419269 
L 106.242259 84.277795 
L 106.285011 84.20216 
L 106.327763 84.337117 
L 106.370515 84.265097 
L 106.45602 84.830488 
L 106.541524 84.684998 
L 106.883542 84.336851 
L 106.926294 84.55515 
L 107.011798 84.417798 
L 107.140055 84.200996 
L 107.182807 84.340531 
L 107.268311 84.204976 
L 107.353816 84.584057 
L 107.396568 84.513282 
L 107.653081 84.295916 
L 107.781338 84.404607 
L 107.952347 84.308135 
L 107.995099 84.414466 
L 108.037851 84.34704 
L 108.508125 83.771492 
L 108.550878 84.017841 
L 108.636382 83.886542 
L 108.850143 83.582697 
L 108.892895 83.890254 
L 108.9784 83.769329 
L 109.063904 83.639604 
L 109.106656 83.764502 
L 109.149408 83.717427 
L 109.192161 83.919932 
L 109.277665 83.787455 
L 109.405922 83.592825 
L 109.448674 83.838262 
L 109.534178 83.713234 
L 109.619683 83.581156 
L 109.662435 83.658435 
L 109.747939 83.677634 
L 110.132709 83.112986 
L 110.218214 83.498573 
L 110.303718 83.383292 
L 110.773992 82.727325 
L 110.816744 83.112448 
L 110.902249 82.994972 
L 110.945001 83.188068 
L 111.030505 83.066465 
L 111.244267 82.778898 
L 111.287019 82.925254 
L 111.329771 82.863152 
L 111.50078 82.639231 
L 111.543532 82.828017 
L 111.629036 82.723684 
L 111.714541 82.657277 
L 111.757293 82.81181 
L 111.842797 82.713065 
L 111.971054 82.556221 
L 112.056558 83.095781 
L 112.142063 82.98448 
L 112.270319 82.849082 
L 112.355824 83.096151 
L 112.441328 83.01023 
L 112.526833 82.917619 
L 112.697841 83.695192 
L 112.783346 83.597521 
L 112.826098 83.810397 
L 112.911602 83.736771 
L 113.937655 82.96146 
L 113.980408 83.097467 
L 114.065912 83.03799 
L 114.151416 82.971174 
L 114.194169 83.223942 
L 114.279673 83.158359 
L 114.40793 83.060326 
L 114.621691 83.664946 
L 114.835452 83.536327 
L 115.006461 83.940422 
L 115.049213 83.910233 
L 115.134717 84.368272 
L 115.220222 84.326817 
L 115.604991 84.141149 
L 115.647744 84.397555 
L 115.733248 84.36316 
L 115.861505 84.299314 
L 115.904257 84.422975 
L 115.989761 84.387276 
L 116.16077 84.303045 
L 116.203522 84.642822 
L 116.289027 84.605002 
L 116.887558 84.354137 
L 116.973062 84.653068 
L 117.058566 84.609349 
L 117.272327 84.521466 
L 117.31508 84.794008 
L 117.400584 84.750297 
L 117.614345 84.652235 
L 117.657097 84.814582 
L 117.742602 84.772364 
L 118.255628 84.646604 
L 118.383885 84.745147 
L 118.469389 84.709308 
L 118.512141 84.942524 
L 118.597646 84.920135 
L 118.725902 84.87948 
L 118.768655 85.112278 
L 118.854159 85.080337 
L 119.238929 84.976646 
L 119.409938 85.379761 
L 120.136725 85.287933 
L 120.264982 85.431324 
L 121.162778 85.333507 
L 121.291035 85.445884 
L 121.761309 85.413975 
L 121.889565 85.602419 
L 122.445344 85.629539 
L 122.573601 85.723949 
L 122.787362 85.806042 
L 124.49745 85.795985 
L 124.625707 85.893517 
L 126.079281 85.864755 
L 130.226245 85.957068 
L 130.440006 86.034103 
L 131.081289 86.110443 
L 131.29505 86.188137 
L 131.850829 86.284725 
L 132.06459 86.343493 
L 270.966503 86.418404 
L 270.966503 86.418404 
" clip-path="url(#p7d35df896e)" style="fill: none; stroke: #ff7f0e; stroke-width: 1.8; stroke-linecap: square"/>
   </g>
   <g id="line2d_31">
    <path d="M 77.427273 36.121818 
L 77.512777 117.153933 
L 77.555529 93.821729 
L 77.76929 60.273084 
L 77.812043 57.706792 
L 77.854795 81.902244 
L 77.940299 73.601397 
L 78.025804 68.822122 
L 78.196812 99.972959 
L 78.282317 93.421943 
L 78.325069 96.609271 
L 78.367821 93.849807 
L 78.410573 93.885467 
L 78.453326 105.540701 
L 78.53883 100.866521 
L 78.709839 92.892888 
L 78.795343 98.680146 
L 78.838095 96.723567 
L 79.222865 84.659893 
L 79.393874 80.441121 
L 79.436626 87.255877 
L 79.522131 85.114975 
L 79.607635 83.587319 
L 79.69314 93.171093 
L 79.778644 91.141961 
L 79.864148 93.887167 
L 79.906901 93.14208 
L 80.334423 84.710839 
L 80.377175 88.498211 
L 80.462679 87.022527 
L 80.761945 84.025969 
L 80.932953 81.784453 
L 80.975706 83.053435 
L 81.018458 82.665374 
L 81.232219 80.323278 
L 81.274971 81.300244 
L 81.317723 80.796922 
L 81.787998 77.295814 
L 81.83075 77.58821 
L 81.873502 77.199606 
L 82.001759 76.205254 
L 82.044511 77.999025 
L 82.130015 77.189381 
L 82.172767 76.833058 
L 82.21552 77.746069 
L 82.258272 77.302696 
L 82.472033 76.457804 
L 82.514785 76.170871 
L 82.557537 76.697907 
L 82.600289 76.370874 
L 82.643042 75.997497 
L 82.81405 77.85538 
L 83.070564 75.974023 
L 83.113316 76.799138 
L 83.156068 76.47358 
L 83.284325 75.811689 
L 83.327077 76.465199 
L 83.412581 76.138645 
L 83.540838 75.363404 
L 83.711847 80.826203 
L 83.797351 80.21728 
L 83.840103 81.344735 
L 83.925608 80.694809 
L 84.053864 82.508958 
L 84.096617 82.144805 
L 84.224873 81.262996 
L 84.267625 82.602359 
L 84.35313 82.098782 
L 84.395882 81.7611 
L 84.438634 83.627927 
L 84.524139 83.003491 
L 84.951661 80.550656 
L 84.994413 80.807318 
L 85.037165 80.54176 
L 85.165422 82.582746 
L 85.250926 82.006964 
L 85.293678 82.673986 
L 85.336431 82.404919 
L 85.849457 79.821217 
L 85.934961 80.170089 
L 86.063218 79.401824 
L 86.10597 80.435139 
L 86.191475 79.980864 
L 86.533492 78.407984 
L 86.704501 79.441258 
L 86.87551 78.744543 
L 86.918262 79.072326 
L 86.961014 78.869172 
L 87.516793 76.575626 
L 87.64505 76.106414 
L 87.687802 76.557789 
L 87.730554 76.409074 
L 88.115324 75.118408 
L 88.158076 75.400815 
L 88.200828 75.233717 
L 88.457341 74.287689 
L 88.500094 75.685108 
L 88.585598 75.420819 
L 89.055872 74.068813 
L 89.098625 74.44033 
L 89.141377 74.277001 
L 89.697155 72.575404 
L 89.739908 72.683759 
L 89.78266 72.568273 
L 89.868164 72.312853 
L 89.996421 73.519442 
L 90.039173 73.371304 
L 90.210182 72.811241 
L 90.252934 73.412124 
L 90.338438 73.201007 
L 91.492748 70.369539 
L 91.5355 70.828383 
L 91.621005 70.604614 
L 91.963022 70.074421 
L 92.005774 70.288306 
L 92.048527 70.165657 
L 92.262288 69.870885 
L 92.30504 69.782385 
L 92.390544 70.29725 
L 92.433297 70.191818 
L 92.604305 69.783262 
L 92.68981 70.402773 
L 92.732562 70.323706 
L 92.903571 69.967044 
L 92.946323 70.343647 
L 93.031827 70.157963 
L 94.228889 67.949442 
L 94.271641 68.245421 
L 94.357146 68.084745 
L 94.44265 68.147221 
L 94.485402 68.063709 
L 94.570907 67.977849 
L 94.784668 67.586168 
L 95.297694 66.742815 
L 95.340446 67.114323 
L 95.425951 66.957673 
L 95.59696 66.677809 
L 95.639712 66.797796 
L 95.682464 66.72597 
L 96.58026 65.440983 
L 96.708517 65.281968 
L 97.050535 64.798998 
L 97.093287 64.960103 
L 97.136039 64.916201 
L 97.649065 64.165172 
L 97.73457 65.739367 
L 97.777322 65.677931 
L 97.948331 65.408519 
L 97.991083 65.608558 
L 98.076588 65.478545 
L 98.546862 64.924077 
L 100.000437 63.022275 
L 100.64172 62.3028 
L 100.769976 62.848553 
L 100.855481 62.758667 
L 101.667773 61.971524 
L 101.710525 62.143961 
L 101.796029 62.066007 
L 103.506117 60.422855 
L 103.54887 60.692933 
L 103.634374 60.61051 
L 103.890887 60.374413 
L 103.93364 60.754047 
L 104.019144 60.681117 
L 104.061896 60.813212 
L 104.147401 60.73647 
L 105.002445 60.043108 
L 105.045197 60.237045 
L 105.130701 60.172039 
L 109.747939 57.181126 
L 110.474727 56.838025 
L 110.517479 57.241364 
L 110.602983 57.197732 
L 111.073258 56.971594 
L 111.11601 57.429287 
L 111.201514 57.398715 
L 112.526833 56.845108 
L 112.569585 57.177129 
L 112.655089 57.141993 
L 114.493434 56.382568 
L 114.536186 56.730938 
L 114.621691 56.698598 
L 116.16077 56.139187 
L 119.281681 55.200643 
L 127.319095 54.081416 
L 134.415961 53.779517 
L 149.849507 53.60074 
L 159.169488 53.666054 
L 159.340497 53.731887 
L 163.017186 53.819654 
L 163.188195 53.885473 
L 173.234963 53.951286 
L 173.405972 54.017093 
L 198.116746 54.126758 
L 198.287755 54.192549 
L 207.949753 54.301643 
L 208.120762 54.367417 
L 213.037266 54.43154 
L 213.208274 54.497295 
L 220.219636 54.604939 
L 220.433397 54.692582 
L 222.143485 54.758307 
L 222.314494 54.824027 
L 226.546962 54.932702 
L 226.717971 54.976503 
L 231.078696 55.040785 
L 231.249705 55.106471 
L 236.123456 55.215935 
L 236.379969 55.237826 
L 241.339225 55.325382 
L 241.510234 55.391043 
L 255.746718 55.499595 
L 256.088736 55.565237 
L 262.629823 55.651875 
L 262.800832 55.7175 
L 264.981194 55.826862 
L 265.152203 55.892472 
L 268.486875 56.001808 
L 268.657884 56.067402 
L 276.139519 56.176113 
L 276.310528 56.219831 
L 280.885014 56.328512 
L 281.141527 56.350366 
L 282.808863 56.437776 
L 283.022624 56.525176 
L 284.390695 56.634411 
L 284.561704 56.678101 
L 289.307198 56.764855 
L 289.478207 56.808536 
L 292.684623 56.917725 
L 292.855631 57.005065 
L 300.764789 57.068999 
L 300.935798 57.134173 
L 305.339275 57.221479 
L 305.510284 57.286952 
L 306.921107 57.37424 
L 307.134868 57.439699 
L 310.726053 57.505152 
L 310.897062 57.570599 
L 321.542361 57.679343 
L 321.798874 57.701154 
L 340.011313 57.809875 
L 340.182322 57.853488 
L 343.64525 57.961205 
L 343.901764 57.983005 
L 355.444859 58.092 
L 355.701372 58.113797 
L 360.361362 58.221123 
L 360.617876 58.242915 
L 363.311264 58.351862 
L 363.567778 58.37365 
L 368.014007 58.458794 
L 368.185016 58.524139 
L 371.220422 58.631692 
L 371.476936 58.653468 
L 376.564448 58.76065 
L 376.820961 58.78242 
L 378.531049 58.847389 
L 378.702058 58.912689 
L 382.122234 59.019804 
L 382.293243 59.063325 
L 384.259845 59.150358 
L 384.473606 59.237382 
L 391.741481 59.301951 
L 391.912489 59.367204 
L 400.249169 59.454199 
L 400.420178 59.497693 
L 419.017387 59.606065 
L 419.188396 59.649549 
L 424.275908 59.755783 
L 424.532421 59.777518 
L 433.638641 59.886186 
L 433.80965 59.951379 
L 440.478994 60.037581 
L 440.650003 60.081033 
L 442.659356 60.124483 
L 442.659356 60.124483 
" clip-path="url(#p7d35df896e)" style="fill: none; stroke: #2ca02c; stroke-width: 1.8; stroke-linecap: square"/>
   </g>
   <g id="line2d_32">
    <path d="M 77.427273 36.121818 
L 77.470025 126.679846 
L 77.555529 91.556872 
L 77.598282 81.228668 
L 77.641034 112.411861 
L 77.683786 98.559195 
L 77.726538 92.478595 
L 77.76929 117.334735 
L 77.812043 111.099286 
L 77.854795 102.082227 
L 77.897547 206.21776 
L 77.983051 179.984058 
L 78.282317 132.34914 
L 78.325069 146.26594 
L 78.367821 141.17352 
L 78.667087 115.131539 
L 79.009104 97.854654 
L 79.522131 82.294985 
L 80.120662 71.226311 
L 80.590936 66.088704 
L 80.633688 71.042639 
L 80.719192 70.099605 
L 81.702493 62.305552 
L 81.745245 65.389339 
L 81.83075 64.867026 
L 82.301024 62.018402 
L 82.81405 59.521173 
L 82.856803 63.572466 
L 82.942307 63.149374 
L 83.498086 60.66912 
L 84.35313 57.564973 
L 85.464687 54.71876 
L 85.507439 57.117799 
L 85.592944 56.938167 
L 86.191475 55.500725 
L 87.003767 53.915628 
L 87.046519 55.071456 
L 87.132023 54.900428 
L 87.944315 53.463853 
L 87.987067 54.710344 
L 88.072572 54.573934 
L 89.312386 52.64448 
L 91.236235 50.315265 
L 92.134031 49.455909 
L 92.176783 49.695005 
L 92.262288 49.619881 
L 93.07458 48.929746 
L 94.912924 47.543216 
L 96.58026 46.556196 
L 97.820074 45.909369 
L 97.862826 46.912163 
L 97.948331 46.87163 
L 98.546862 46.570041 
L 98.589614 47.067912 
L 98.675118 47.021241 
L 99.701171 46.533583 
L 99.743923 47.054516 
L 99.829428 47.014527 
L 101.753277 46.159751 
L 104.232905 45.235395 
L 104.874188 45.031684 
L 104.91694 45.492819 
L 105.002445 45.463303 
L 105.643728 45.267727 
L 105.68648 45.610359 
L 105.771984 45.586453 
L 105.942993 45.530914 
L 105.985745 46.113657 
L 106.07125 46.086373 
L 107.695834 45.627939 
L 108.892895 45.333716 
L 108.935647 45.747158 
L 109.021152 45.727358 
L 109.36317 45.641734 
L 109.534178 46.367399 
L 110.047205 46.234643 
L 110.089957 46.701016 
L 110.175461 46.682574 
L 110.218214 46.667777 
L 110.260966 47.001128 
L 110.34647 46.982705 
L 111.629036 46.677916 
L 111.671789 46.884172 
L 111.757293 46.860107 
L 111.800045 46.849983 
L 111.928302 46.973251 
L 112.142063 46.928189 
L 112.184815 47.311716 
L 112.270319 47.29785 
L 113.467381 47.057699 
L 113.510133 47.548355 
L 113.595638 47.532945 
L 117.101319 46.976856 
L 117.229575 47.15417 
L 117.357832 47.137778 
L 117.486088 47.265066 
L 118.597646 47.113296 
L 118.725902 47.287026 
L 118.982416 47.254486 
L 119.110672 47.454705 
L 119.238929 47.436785 
L 119.367185 47.553352 
L 121.761309 47.242682 
L 122.616353 47.147981 
L 122.74461 47.314116 
L 127.575609 46.819634 
L 127.703865 47.155656 
L 129.114688 47.028859 
L 129.242945 47.191648 
L 129.627714 47.160012 
L 129.755971 47.493241 
L 130.739272 47.410237 
L 130.867528 47.520761 
L 131.594316 47.558345 
L 131.893581 47.53256 
L 132.021838 47.694206 
L 133.817431 47.644127 
L 134.031192 47.914261 
L 134.415961 47.883588 
L 134.58697 48.20082 
L 134.97174 48.266137 
L 135.099997 48.395496 
L 135.399262 48.373179 
L 135.527519 48.480791 
L 138.349164 48.265216 
L 138.520173 48.622819 
L 138.691182 48.607782 
L 138.819438 48.759671 
L 139.204208 48.725048 
L 139.332465 48.857201 
L 140.572279 48.7587 
L 140.700535 49.022859 
L 143.009154 48.839435 
L 143.137411 48.985346 
L 143.650438 48.941332 
L 143.778694 49.064477 
L 145.317774 48.937308 
L 145.44603 49.150632 
L 149.592994 48.873497 
L 149.721251 49.018571 
L 150.10602 48.997833 
L 150.234277 49.207141 
L 150.533542 49.191674 
L 150.661799 49.356481 
L 151.345834 49.321063 
L 151.474091 49.423096 
L 152.671153 49.366487 
L 152.799409 49.467636 
L 152.842162 49.465705 
L 152.970418 49.589748 
L 154.210232 49.529251 
L 154.338489 49.672454 
L 156.005825 49.60416 
L 156.176833 49.870924 
L 156.68986 49.847945 
L 156.818117 50.054394 
L 157.502152 50.02858 
L 157.630408 50.15039 
L 157.801417 50.142201 
L 157.929674 50.28577 
L 162.760673 50.185822 
L 163.017186 50.674016 
L 164.085991 50.717537 
L 164.214248 50.797914 
L 165.283053 50.822119 
L 165.41131 50.920684 
L 166.095345 51.002779 
L 166.223602 51.080655 
L 167.591672 51.110478 
L 167.719929 51.251432 
L 169.857539 51.278263 
L 169.985796 51.398948 
L 171.225609 51.43595 
L 171.396618 51.494265 
L 171.482123 51.49299 
L 171.653132 51.71477 
L 173.149459 51.746447 
L 173.277715 51.825652 
L 173.534229 51.882432 
L 173.662485 51.981361 
L 174.645786 52.065969 
L 174.816795 52.125452 
L 177.339175 52.196979 
L 177.510184 52.255884 
L 179.77605 52.310016 
L 179.947059 52.368798 
L 182.469439 52.460781 
L 182.640448 52.498909 
L 185.034572 52.572012 
L 186.274385 52.65975 
L 186.488147 52.738904 
L 188.155482 52.807111 
L 188.369244 52.88618 
L 190.592358 52.95261 
L 190.763367 52.991411 
L 193.285747 53.07418 
L 193.627765 53.112693 
L 194.140791 53.209869 
L 194.3118 53.248354 
L 196.919684 53.35064 
L 197.090693 53.389768 
L 197.731976 53.44692 
L 197.902985 53.505703 
L 198.501516 53.563765 
L 198.672525 53.622999 
L 199.484817 53.717721 
L 199.655826 53.776202 
L 200.339861 53.872757 
L 200.51087 53.931926 
L 213.721301 53.818569 
L 216.41469 53.877121 
L 216.585699 53.936385 
L 218.466796 54.033939 
L 218.637804 54.073437 
L 219.877618 54.152428 
L 220.048627 54.19192 
L 222.870273 54.250665 
L 223.041281 54.309893 
L 224.195591 54.388855 
L 224.3666 54.448072 
L 233.643828 54.52702 
L 233.814837 54.56649 
L 236.20896 54.664658 
L 236.379969 54.70412 
L 284.219686 54.783039 
L 284.390695 54.842222 
L 286.870323 54.919858 
L 287.041332 54.959304 
L 287.639862 55.018469 
L 287.810871 55.077629 
L 288.965181 55.176218 
L 289.13619 55.21565 
L 291.530313 55.314221 
L 291.701322 55.353645 
L 295.207003 55.452197 
L 295.378011 55.511322 
L 332.102155 55.569395 
L 332.273164 55.628507 
L 334.624535 55.726489 
L 334.795544 55.765888 
L 341.251127 55.843883 
L 341.422136 55.902969 
L 343.217728 55.96205 
L 343.388737 56.021127 
L 347.193683 56.119039 
L 347.364692 56.158414 
L 352.494957 56.256843 
L 352.665966 56.315894 
L 357.41146 56.413756 
L 357.582469 56.453114 
L 364.38007 56.530177 
L 364.551078 56.569526 
L 369.42483 56.667889 
L 369.595839 56.70723 
L 372.802254 56.785351 
L 372.973263 56.844351 
L 378.317288 56.941834 
L 378.488297 56.981158 
L 397.470276 57.059519 
L 397.641285 57.098836 
L 406.576495 57.177181 
L 406.747504 57.216491 
L 409.740159 57.295105 
L 409.911167 57.334409 
L 413.972627 57.431514 
L 414.271892 57.451161 
L 418.418856 57.549391 
L 418.589865 57.588679 
L 425.943244 57.685441 
L 426.114253 57.724719 
L 430.731491 57.821447 
L 430.9025 57.860716 
L 438.170375 57.957997 
L 438.46964 57.977626 
L 440.821011 58.036513 
L 440.821011 58.036513 
" clip-path="url(#p7d35df896e)" style="fill: none; stroke: #d62728; stroke-width: 1.8; stroke-linecap: square"/>
   </g>
   <g id="line2d_33">
    <path d="M 77.427273 98.779045 
L 77.598282 48.377088 
L 77.641034 46.34863 
L 77.683786 79.736162 
L 77.76929 69.22199 
L 77.854795 82.74223 
L 77.940299 75.544191 
L 78.15406 68.33436 
L 78.239565 71.734865 
L 78.282317 70.037928 
L 78.53883 62.367618 
L 78.581582 64.3136 
L 78.624334 63.243678 
L 79.009104 57.29855 
L 79.436626 52.921596 
L 79.992405 49.287343 
L 80.590936 46.799443 
L 82.172767 43.3016 
L 83.070564 42.128378 
L 84.182121 41.149387 
L 85.7212 40.235098 
L 87.217528 39.610765 
L 90.124677 38.813442 
L 94.699163 38.097396 
L 100.299702 37.620977 
L 107.524825 37.264538 
L 115.262974 37.037898 
L 122.231583 37.014499 
L 122.402592 37.05598 
L 123.471397 37.159644 
L 123.813415 37.221868 
L 155.792064 37.325511 
L 156.048577 37.346248 
L 165.197549 37.44992 
L 165.454062 37.470653 
L 170.199557 37.553537 
L 170.370565 37.615723 
L 170.541574 37.657178 
L 172.251662 37.719355 
L 172.422671 37.781527 
L 180.673847 37.885086 
L 180.93036 37.905806 
L 187.685208 38.009394 
L 187.856217 38.050825 
L 194.525561 38.133596 
L 194.69657 38.175019 
L 201.365914 38.237089 
L 201.536923 38.299211 
L 201.836188 38.340623 
L 213.336531 38.444144 
L 213.593044 38.464846 
L 225.221644 38.547344 
L 225.392653 38.588703 
L 233.601076 38.692066 
L 233.857589 38.712757 
L 236.636482 38.795518 
L 236.807491 38.836895 
L 242.40803 38.940208 
L 242.664543 38.960892 
L 246.597746 39.043581 
L 246.768755 39.084941 
L 249.889666 39.146978 
L 250.060675 39.209009 
L 254.977178 39.291621 
L 255.148187 39.353639 
L 261.432761 39.456943 
L 261.60377 39.539612 
L 269.256415 39.622028 
L 269.427423 39.663352 
L 272.676591 39.745992 
L 272.8476 39.828623 
L 275.75475 39.911245 
L 275.925758 39.973206 
L 281.355288 40.055647 
L 281.526297 40.117592 
L 286.314544 40.220538 
L 286.485553 40.282465 
L 287.426101 40.364968 
L 287.639862 40.426883 
L 292.64187 40.530001 
L 292.898384 40.550634 
L 296.361312 40.612345 
L 296.532321 40.674235 
L 299.439471 40.756748 
L 299.61048 40.798 
L 308.973213 40.900989 
L 309.229726 40.921611 
L 313.419442 41.004094 
L 313.590451 41.045331 
L 316.369344 41.148206 
L 316.540353 41.189222 
L 320.046033 41.292277 
L 320.217042 41.354104 
L 321.798874 41.457137 
L 322.140892 41.51895 
L 326.37336 41.580681 
L 326.544369 41.642483 
L 327.955191 41.704279 
L 328.1262 41.76607 
L 329.579775 41.848451 
L 329.750784 41.91023 
L 337.531685 42.013184 
L 337.830951 42.054361 
L 344.970569 42.157295 
L 345.227082 42.17788 
L 350.656612 42.280796 
L 350.913125 42.301292 
L 352.452205 42.40419 
L 352.708718 42.424768 
L 356.128894 42.506806 
L 356.299903 42.547954 
L 361.900442 42.629971 
L 362.071451 42.67111 
L 374.255829 42.773762 
L 374.512342 42.794327 
L 380.711412 42.896862 
L 380.882421 42.937983 
L 384.858376 43.020027 
L 385.029384 43.06114 
L 390.929189 43.163914 
L 391.185702 43.184467 
L 396.615232 43.266673 
L 396.786241 43.328321 
L 399.308621 43.431057 
L 399.607886 43.451603 
L 405.293929 43.533366 
L 405.464938 43.574449 
L 412.219786 43.656187 
L 412.390795 43.697261 
L 420.556466 43.799613 
L 420.727475 43.840677 
L 425.85774 43.943217 
L 426.114253 43.963527 
L 428.636633 44.04552 
L 428.807642 44.086567 
L 432.826349 44.188952 
L 432.997358 44.250509 
L 439.410189 44.332462 
L 439.581197 44.394006 
L 441.975321 44.496568 
L 442.14633 44.537589 
L 448.986682 44.639776 
L 449.285948 44.660281 
L 454.245204 44.741939 
L 454.416212 44.782943 
L 461.000052 44.884833 
L 461.171061 44.966817 
L 470.320032 45.028174 
L 470.491041 45.08965 
L 479.041482 45.19172 
L 479.212491 45.232693 
L 487.634675 45.314123 
L 487.805684 45.355087 
L 496.740895 45.415754 
L 496.911904 45.477187 
L 499.434284 45.579168 
L 499.605293 45.640584 
L 507.856468 45.722064 
L 508.027477 45.783465 
L 515.637369 45.88579 
L 515.808378 45.926715 
L 520.29736 46.02902 
L 520.596625 46.049479 
L 523.674784 46.151627 
L 523.974049 46.172083 
L 525.34212 46.253899 
L 525.513129 46.294804 
L 532.52449 46.396913 
L 532.823756 46.417362 
L 537.056224 46.519595 
L 537.483746 46.601372 
L 541.972727 46.64211 
L 541.972727 46.64211 
" clip-path="url(#p7d35df896e)" style="fill: none; stroke: #9467bd; stroke-width: 1.8; stroke-linecap: square"/>
   </g>
   <g id="patch_3">
    <path d="M 54.2 260.44 
L 54.2 25.44 
" style="fill: none; stroke: #000000; stroke-width: 0.8; stroke-linejoin: miter; stroke-linecap: square"/>
   </g>
   <g id="patch_4">
    <path d="M 565.2 260.44 
L 565.2 25.44 
" style="fill: none; stroke: #000000; stroke-width: 0.8; stroke-linejoin: miter; stroke-linecap: square"/>
   </g>
   <g id="patch_5">
    <path d="M 54.2 260.44 
L 565.2 260.44 
" style="fill: none; stroke: #000000; stroke-width: 0.8; stroke-linejoin: miter; stroke-linecap: square"/>
   </g>
   <g id="patch_6">
    <path d="M 54.2 25.44 
L 565.2 25.44 
" style="fill: none; stroke: #000000; stroke-width: 0.8; stroke-linejoin: miter; stroke-linecap: square"/>
   </g>
   <g id="text_17">
    <!-- Timely Transfer Rate (Cumulative) -->
    <g transform="translate(207.277187 19.44) scale(0.12 -0.12)">
     <defs>
      <path id="DejaVuSans-54" d="M -19 4666 
L 3928 4666 
L 3928 4134 
L 2272 4134 
L 2272 0 
L 1638 0 
L 1638 4134 
L -19 4134 
L -19 4666 
z
" transform="scale(0.015625)"/>
      <path id="DejaVuSans-52" d="M 2841 2188 
Q 3044 2119 3236 1894 
Q 3428 1669 3622 1275 
L 4263 0 
L 3584 0 
L 2988 1197 
Q 2756 1666 2539 1819 
Q 2322 1972 1947 1972 
L 1259 1972 
L 1259 0 
L 628 0 
L 628 4666 
L 2053 4666 
Q 2853 4666 3247 4331 
Q 3641 3997 3641 3322 
Q 3641 2881 3436 2590 
Q 3231 2300 2841 2188 
z
M 1259 4147 
L 1259 2491 
L 2053 2491 
Q 2509 2491 2742 2702 
Q 2975 2913 2975 3322 
Q 2975 3731 2742 3939 
Q 2509 4147 2053 4147 
L 1259 4147 
z
" transform="scale(0.015625)"/>
      <path id="DejaVuSans-28" d="M 1984 4856 
Q 1566 4138 1362 3434 
Q 1159 2731 1159 2009 
Q 1159 1288 1364 580 
Q 1569 -128 1984 -844 
L 1484 -844 
Q 1016 -109 783 600 
Q 550 1309 550 2009 
Q 550 2706 781 3412 
Q 1013 4119 1484 4856 
L 1984 4856 
z
" transform="scale(0.015625)"/>
      <path id="DejaVuSans-43" d="M 4122 4306 
L 4122 3641 
Q 3803 3938 3442 4084 
Q 3081 4231 2675 4231 
Q 1875 4231 1450 3742 
Q 1025 3253 1025 2328 
Q 1025 1406 1450 917 
Q 1875 428 2675 428 
Q 3081 428 3442 575 
Q 3803 722 4122 1019 
L 4122 359 
Q 3791 134 3420 21 
Q 3050 -91 2638 -91 
Q 1578 -91 968 557 
Q 359 1206 359 2328 
Q 359 3453 968 4101 
Q 1578 4750 2638 4750 
Q 3056 4750 3426 4639 
Q 3797 4528 4122 4306 
z
" transform="scale(0.015625)"/>
      <path id="DejaVuSans-29" d="M 513 4856 
L 1013 4856 
Q 1481 4119 1714 3412 
Q 1947 2706 1947 2009 
Q 1947 1309 1714 600 
Q 1481 -109 1013 -844 
L 513 -844 
Q 928 -128 1133 580 
Q 1338 1288 1338 2009 
Q 1338 2731 1133 3434 
Q 928 4138 513 4856 
z
" transform="scale(0.015625)"/>
     </defs>
     <use xlink:href="#DejaVuSans-54"/>
     <use xlink:href="#DejaVuSans-69" x="57.958984"/>
     <use xlink:href="#DejaVuSans-6d" x="85.742188"/>
     <use xlink:href="#DejaVuSans-65" x="183.154297"/>
     <use xlink:href="#DejaVuSans-6c" x="244.677734"/>
     <use xlink:href="#DejaVuSans-79" x="272.460938"/>
     <use xlink:href="#DejaVuSans-20" x="331.640625"/>
     <use xlink:href="#DejaVuSans-54" x="363.427734"/>
     <use xlink:href="#DejaVuSans-72" x="409.761719"/>
     <use xlink:href="#DejaVuSans-61" x="450.875"/>
     <use xlink:href="#DejaVuSans-6e" x="512.154297"/>
     <use xlink:href="#DejaVuSans-73" x="575.533203"/>
     <use xlink:href="#DejaVuSans-66" x="627.632812"/>
     <use xlink:href="#DejaVuSans-65" x="662.837891"/>
     <use xlink:href="#DejaVuSans-72" x="724.361328"/>
     <use xlink:href="#DejaVuSans-20" x="765.474609"/>
     <use xlink:href="#DejaVuSans-52" x="797.261719"/>
     <use xlink:href="#DejaVuSans-61" x="864.494141"/>
     <use xlink:href="#DejaVuSans-74" x="925.773438"/>
     <use xlink:href="#DejaVuSans-65" x="964.982422"/>
     <use xlink:href="#DejaVuSans-20" x="1026.505859"/>
     <use xlink:href="#DejaVuSans-28" x="1058.292969"/>
     <use xlink:href="#DejaVuSans-43" x="1097.306641"/>
     <use xlink:href="#DejaVuSans-75" x="1167.130859"/>
     <use xlink:href="#DejaVuSans-6d" x="1230.509766"/>
     <use xlink:href="#DejaVuSans-75" x="1327.921875"/>
     <use xlink:href="#DejaVuSans-6c" x="1391.300781"/>
     <use xlink:href="#DejaVuSans-61" x="1419.083984"/>
     <use xlink:href="#DejaVuSans-74" x="1480.363281"/>
     <use xlink:href="#DejaVuSans-69" x="1519.572266"/>
     <use xlink:href="#DejaVuSans-76" x="1547.355469"/>
     <use xlink:href="#DejaVuSans-65" x="1606.535156"/>
     <use xlink:href="#DejaVuSans-29" x="1668.058594"/>
    </g>
   </g>
   <g id="legend_1">
    <g id="patch_7">
     <path d="M 473.826562 255.44 
L 558.2 255.44 
Q 560.2 255.44 560.2 253.44 
L 560.2 180.493125 
Q 560.2 178.493125 558.2 178.493125 
L 473.826562 178.493125 
Q 471.826562 178.493125 471.826562 180.493125 
L 471.826562 253.44 
Q 471.826562 255.44 473.826562 255.44 
z
" style="fill: #ffffff; opacity: 0.8; stroke: #cccccc; stroke-linejoin: miter"/>
    </g>
    <g id="line2d_34">
     <path d="M 475.826562 186.591563 
L 485.826562 186.591563 
L 495.826562 186.591563 
" style="fill: none; stroke: #1f77b4; stroke-width: 1.8; stroke-linecap: square"/>
    </g>
    <g id="text_18">
     <!-- SHEER -->
     <g transform="translate(503.826562 190.091563) scale(0.1 -0.1)">
      <defs>
       <path id="DejaVuSans-53" d="M 3425 4513 
L 3425 3897 
Q 3066 4069 2747 4153 
Q 2428 4238 2131 4238 
Q 1616 4238 1336 4038 
Q 1056 3838 1056 3469 
Q 1056 3159 1242 3001 
Q 1428 2844 1947 2747 
L 2328 2669 
Q 3034 2534 3370 2195 
Q 3706 1856 3706 1288 
Q 3706 609 3251 259 
Q 2797 -91 1919 -91 
Q 1588 -91 1214 -16 
Q 841 59 441 206 
L 441 856 
Q 825 641 1194 531 
Q 1563 422 1919 422 
Q 2459 422 2753 634 
Q 3047 847 3047 1241 
Q 3047 1584 2836 1778 
Q 2625 1972 2144 2069 
L 1759 2144 
Q 1053 2284 737 2584 
Q 422 2884 422 3419 
Q 422 4038 858 4394 
Q 1294 4750 2059 4750 
Q 2388 4750 2728 4690 
Q 3069 4631 3425 4513 
z
" transform="scale(0.015625)"/>
       <path id="DejaVuSans-48" d="M 628 4666 
L 1259 4666 
L 1259 2753 
L 3553 2753 
L 3553 4666 
L 4184 4666 
L 4184 0 
L 3553 0 
L 3553 2222 
L 1259 2222 
L 1259 0 
L 628 0 
L 628 4666 
z
" transform="scale(0.015625)"/>
       <path id="DejaVuSans-45" d="M 628 4666 
L 3578 4666 
L 3578 4134 
L 1259 4134 
L 1259 2753 
L 3481 2753 
L 3481 2222 
L 1259 2222 
L 1259 531 
L 3634 531 
L 3634 0 
L 628 0 
L 628 4666 
z
" transform="scale(0.015625)"/>
      </defs>
      <use xlink:href="#DejaVuSans-53"/>
      <use xlink:href="#DejaVuSans-48" x="63.476562"/>
      <use xlink:href="#DejaVuSans-45" x="138.671875"/>
      <use xlink:href="#DejaVuSans-45" x="201.855469"/>
      <use xlink:href="#DejaVuSans-52" x="265.039062"/>
     </g>
    </g>
    <g id="line2d_35">
     <path d="M 475.826562 201.269688 
L 485.826562 201.269688 
L 495.826562 201.269688 
" style="fill: none; stroke: #ff7f0e; stroke-width: 1.8; stroke-linecap: square"/>
    </g>
    <g id="text_19">
     <!-- ACTAR -->
     <g transform="translate(503.826562 204.769688) scale(0.1 -0.1)">
      <defs>
       <path id="DejaVuSans-41" d="M 2188 4044 
L 1331 1722 
L 3047 1722 
L 2188 4044 
z
M 1831 4666 
L 2547 4666 
L 4325 0 
L 3669 0 
L 3244 1197 
L 1141 1197 
L 716 0 
L 50 0 
L 1831 4666 
z
" transform="scale(0.015625)"/>
      </defs>
      <use xlink:href="#DejaVuSans-41"/>
      <use xlink:href="#DejaVuSans-43" x="66.658203"/>
      <use xlink:href="#DejaVuSans-54" x="136.482422"/>
      <use xlink:href="#DejaVuSans-41" x="189.816406"/>
      <use xlink:href="#DejaVuSans-52" x="258.224609"/>
     </g>
    </g>
    <g id="line2d_36">
     <path d="M 475.826562 215.947813 
L 485.826562 215.947813 
L 495.826562 215.947813 
" style="fill: none; stroke: #2ca02c; stroke-width: 1.8; stroke-linecap: square"/>
    </g>
    <g id="text_20">
     <!-- TFSM_DPC -->
     <g transform="translate(503.826562 219.447813) scale(0.1 -0.1)">
      <defs>
       <path id="DejaVuSans-46" d="M 628 4666 
L 3309 4666 
L 3309 4134 
L 1259 4134 
L 1259 2759 
L 3109 2759 
L 3109 2228 
L 1259 2228 
L 1259 0 
L 628 0 
L 628 4666 
z
" transform="scale(0.015625)"/>
       <path id="DejaVuSans-4d" d="M 628 4666 
L 1569 4666 
L 2759 1491 
L 3956 4666 
L 4897 4666 
L 4897 0 
L 4281 0 
L 4281 4097 
L 3078 897 
L 2444 897 
L 1241 4097 
L 1241 0 
L 628 0 
L 628 4666 
z
" transform="scale(0.015625)"/>
       <path id="DejaVuSans-5f" d="M 3263 -1063 
L 3263 -1509 
L -63 -1509 
L -63 -1063 
L 3263 -1063 
z
" transform="scale(0.015625)"/>
       <path id="DejaVuSans-44" d="M 1259 4147 
L 1259 519 
L 2022 519 
Q 2988 519 3436 956 
Q 3884 1394 3884 2338 
Q 3884 3275 3436 3711 
Q 2988 4147 2022 4147 
L 1259 4147 
z
M 628 4666 
L 1925 4666 
Q 3281 4666 3915 4102 
Q 4550 3538 4550 2338 
Q 4550 1131 3912 565 
Q 3275 0 1925 0 
L 628 0 
L 628 4666 
z
" transform="scale(0.015625)"/>
       <path id="DejaVuSans-50" d="M 1259 4147 
L 1259 2394 
L 2053 2394 
Q 2494 2394 2734 2622 
Q 2975 2850 2975 3272 
Q 2975 3691 2734 3919 
Q 2494 4147 2053 4147 
L 1259 4147 
z
M 628 4666 
L 2053 4666 
Q 2838 4666 3239 4311 
Q 3641 3956 3641 3272 
Q 3641 2581 3239 2228 
Q 2838 1875 2053 1875 
L 1259 1875 
L 1259 0 
L 628 0 
L 628 4666 
z
" transform="scale(0.015625)"/>
      </defs>
      <use xlink:href="#DejaVuSans-54"/>
      <use xlink:href="#DejaVuSans-46" x="61.083984"/>
      <use xlink:href="#DejaVuSans-53" x="116.853516"/>
      <use xlink:href="#DejaVuSans-4d" x="180.330078"/>
      <use xlink:href="#DejaVuSans-5f" x="266.609375"/>
      <use xlink:href="#DejaVuSans-44" x="316.609375"/>
      <use xlink:href="#DejaVuSans-50" x="393.611328"/>
      <use xlink:href="#DejaVuSans-43" x="453.914062"/>
     </g>
    </g>
    <g id="line2d_37">
     <path d="M 475.826562 230.904063 
L 485.826562 230.904063 
L 495.826562 230.904063 
" style="fill: none; stroke: #d62728; stroke-width: 1.8; stroke-linecap: square"/>
    </g>
    <g id="text_21">
     <!-- DST_WOA -->
     <g transform="translate(503.826562 234.404063) scale(0.1 -0.1)">
      <defs>
       <path id="DejaVuSans-57" d="M 213 4666 
L 850 4666 
L 1831 722 
L 2809 4666 
L 3519 4666 
L 4500 722 
L 5478 4666 
L 6119 4666 
L 4947 0 
L 4153 0 
L 3169 4050 
L 2175 0 
L 1381 0 
L 213 4666 
z
" transform="scale(0.015625)"/>
       <path id="DejaVuSans-4f" d="M 2522 4238 
Q 1834 4238 1429 3725 
Q 1025 3213 1025 2328 
Q 1025 1447 1429 934 
Q 1834 422 2522 422 
Q 3209 422 3611 934 
Q 4013 1447 4013 2328 
Q 4013 3213 3611 3725 
Q 3209 4238 2522 4238 
z
M 2522 4750 
Q 3503 4750 4090 4092 
Q 4678 3434 4678 2328 
Q 4678 1225 4090 567 
Q 3503 -91 2522 -91 
Q 1538 -91 948 565 
Q 359 1222 359 2328 
Q 359 3434 948 4092 
Q 1538 4750 2522 4750 
z
" transform="scale(0.015625)"/>
      </defs>
      <use xlink:href="#DejaVuSans-44"/>
      <use xlink:href="#DejaVuSans-53" x="77.001953"/>
      <use xlink:href="#DejaVuSans-54" x="140.478516"/>
      <use xlink:href="#DejaVuSans-5f" x="201.5625"/>
      <use xlink:href="#DejaVuSans-57" x="251.5625"/>
      <use xlink:href="#DejaVuSans-4f" x="350.439453"/>
      <use xlink:href="#DejaVuSans-41" x="427.400391"/>
     </g>
    </g>
    <g id="line2d_38">
     <path d="M 475.826562 245.860313 
L 485.826562 245.860313 
L 495.826562 245.860313 
" style="fill: none; stroke: #9467bd; stroke-width: 1.8; stroke-linecap: square"/>
    </g>
    <g id="text_22">
     <!-- TRAIL -->
     <g transform="translate(503.826562 249.360313) scale(0.1 -0.1)">
      <defs>
       <path id="DejaVuSans-49" d="M 628 4666 
L 1259 4666 
L 1259 0 
L 628 0 
L 628 4666 
z
" transform="scale(0.015625)"/>
       <path id="DejaVuSans-4c" d="M 628 4666 
L 1259 4666 
L 1259 531 
L 3531 531 
L 3531 0 
L 628 0 
L 628 4666 
z
" transform="scale(0.015625)"/>
      </defs>
      <use xlink:href="#DejaVuSans-54"/>
      <use xlink:href="#DejaVuSans-52" x="61.083984"/>
      <use xlink:href="#DejaVuSans-41" x="126.566406"/>
      <use xlink:href="#DejaVuSans-49" x="194.974609"/>
      <use xlink:href="#DejaVuSans-4c" x="224.466797"/>
     </g>
    </g>
   </g>
  </g>
 </g>
 <defs>
  <clipPath id="p7d35df896e">
   <rect x="54.2" y="25.44" width="511" height="235"/>
  </clipPath>
 </defs>
</svg>
