<?xml version="1.0" encoding="utf-8" standalone="no"?>
<!DOCTYPE svg PUBLIC "-//W3C//DTD SVG 1.1//EN"
  "http://www.w3.org/Graphics/SVG/1.1/DTD/svg11.dtd">
<svg xmlns:xlink="http://www.w3.org/1999/xlink" width="576pt" height="302.4pt" viewBox="0 0 576 302.4" xmlns="http://www.w3.org/2000/svg" version="1.1">
 <metadata>
  <rdf:RDF xmlns:dc="http://purl.org/dc/elements/1.1/" xmlns:cc="http://creativecommons.org/ns#" xmlns:rdf="http://www.w3.org/1999/02/22-rdf-syntax-ns#">
   <cc:Work>
    <dc:type rdf:resource="http://purl.org/dc/dcmitype/StillImage"/>
    <dc:date>2025-09-11T17:35:19.101781</dc:date>
    <dc:format>image/svg+xml</dc:format>
    <dc:creator>
     <cc:Agent>
      <dc:title>Matplotlib v3.9.4, https://matplotlib.org/</dc:title>
     </cc:Agent>
    </dc:creator>
   </cc:Work>
  </rdf:RDF>
 </metadata>
 <defs>
  <style type="text/css">*{stroke-linejoin: round; stroke-linecap: butt}</style>
 </defs>
 <g id="figure_1">
  <g id="patch_1">
   <path d="M 0 302.4 
L 576 302.4 
L 576 0 
L 0 0 
z
" style="fill: #ffffff"/>
  </g>
  <g id="axes_1">
   <g id="patch_2">
    <path d="M 47.81 260.44 
L 565.2 260.44 
L 565.2 25.44 
L 47.81 25.44 
z
" style="fill: #ffffff"/>
   </g>
   <g id="matplotlib.axis_1">
    <g id="xtick_1">
     <g id="line2d_1">
      <path d="M 71.281065 260.44 
L 71.281065 25.44 
" clip-path="url(#p5535fa7d71)" style="fill: none; stroke-dasharray: 2.96,1.28; stroke-dashoffset: 0; stroke: #b0b0b0; stroke-opacity: 0.3; stroke-width: 0.8"/>
     </g>
     <g id="line2d_2">
      <defs>
       <path id="m81b03651f8" d="M 0 0 
L 0 3.5 
" style="stroke: #000000; stroke-width: 0.8"/>
      </defs>
      <g>
       <use xlink:href="#m81b03651f8" x="71.281065" y="260.44" style="stroke: #000000; stroke-width: 0.8"/>
      </g>
     </g>
     <g id="text_1">
      <!-- 0 -->
      <g transform="translate(68.099815 275.038438) scale(0.1 -0.1)">
       <defs>
        <path id="DejaVuSans-30" d="M 2034 4250 
Q 1547 4250 1301 3770 
Q 1056 3291 1056 2328 
Q 1056 1369 1301 889 
Q 1547 409 2034 409 
Q 2525 409 2770 889 
Q 3016 1369 3016 2328 
Q 3016 3291 2770 3770 
Q 2525 4250 2034 4250 
z
M 2034 4750 
Q 2819 4750 3233 4129 
Q 3647 3509 3647 2328 
Q 3647 1150 3233 529 
Q 2819 -91 2034 -91 
Q 1250 -91 836 529 
Q 422 1150 422 2328 
Q 422 3509 836 4129 
Q 1250 4750 2034 4750 
z
" transform="scale(0.015625)"/>
       </defs>
       <use xlink:href="#DejaVuSans-30"/>
      </g>
     </g>
    </g>
    <g id="xtick_2">
     <g id="line2d_3">
      <path d="M 164.60538 260.44 
L 164.60538 25.44 
" clip-path="url(#p5535fa7d71)" style="fill: none; stroke-dasharray: 2.96,1.28; stroke-dashoffset: 0; stroke: #b0b0b0; stroke-opacity: 0.3; stroke-width: 0.8"/>
     </g>
     <g id="line2d_4">
      <g>
       <use xlink:href="#m81b03651f8" x="164.60538" y="260.44" style="stroke: #000000; stroke-width: 0.8"/>
      </g>
     </g>
     <g id="text_2">
      <!-- 2000 -->
      <g transform="translate(151.88038 275.038438) scale(0.1 -0.1)">
       <defs>
        <path id="DejaVuSans-32" d="M 1228 531 
L 3431 531 
L 3431 0 
L 469 0 
L 469 531 
Q 828 903 1448 1529 
Q 2069 2156 2228 2338 
Q 2531 2678 2651 2914 
Q 2772 3150 2772 3378 
Q 2772 3750 2511 3984 
Q 2250 4219 1831 4219 
Q 1534 4219 1204 4116 
Q 875 4013 500 3803 
L 500 4441 
Q 881 4594 1212 4672 
Q 1544 4750 1819 4750 
Q 2544 4750 2975 4387 
Q 3406 4025 3406 3419 
Q 3406 3131 3298 2873 
Q 3191 2616 2906 2266 
Q 2828 2175 2409 1742 
Q 1991 1309 1228 531 
z
" transform="scale(0.015625)"/>
       </defs>
       <use xlink:href="#DejaVuSans-32"/>
       <use xlink:href="#DejaVuSans-30" x="63.623047"/>
       <use xlink:href="#DejaVuSans-30" x="127.246094"/>
       <use xlink:href="#DejaVuSans-30" x="190.869141"/>
      </g>
     </g>
    </g>
    <g id="xtick_3">
     <g id="line2d_5">
      <path d="M 257.929694 260.44 
L 257.929694 25.44 
" clip-path="url(#p5535fa7d71)" style="fill: none; stroke-dasharray: 2.96,1.28; stroke-dashoffset: 0; stroke: #b0b0b0; stroke-opacity: 0.3; stroke-width: 0.8"/>
     </g>
     <g id="line2d_6">
      <g>
       <use xlink:href="#m81b03651f8" x="257.929694" y="260.44" style="stroke: #000000; stroke-width: 0.8"/>
      </g>
     </g>
     <g id="text_3">
      <!-- 4000 -->
      <g transform="translate(245.204694 275.038438) scale(0.1 -0.1)">
       <defs>
        <path id="DejaVuSans-34" d="M 2419 4116 
L 825 1625 
L 2419 1625 
L 2419 4116 
z
M 2253 4666 
L 3047 4666 
L 3047 1625 
L 3713 1625 
L 3713 1100 
L 3047 1100 
L 3047 0 
L 2419 0 
L 2419 1100 
L 313 1100 
L 313 1709 
L 2253 4666 
z
" transform="scale(0.015625)"/>
       </defs>
       <use xlink:href="#DejaVuSans-34"/>
       <use xlink:href="#DejaVuSans-30" x="63.623047"/>
       <use xlink:href="#DejaVuSans-30" x="127.246094"/>
       <use xlink:href="#DejaVuSans-30" x="190.869141"/>
      </g>
     </g>
    </g>
    <g id="xtick_4">
     <g id="line2d_7">
      <path d="M 351.254009 260.44 
L 351.254009 25.44 
" clip-path="url(#p5535fa7d71)" style="fill: none; stroke-dasharray: 2.96,1.28; stroke-dashoffset: 0; stroke: #b0b0b0; stroke-opacity: 0.3; stroke-width: 0.8"/>
     </g>
     <g id="line2d_8">
      <g>
       <use xlink:href="#m81b03651f8" x="351.254009" y="260.44" style="stroke: #000000; stroke-width: 0.8"/>
      </g>
     </g>
     <g id="text_4">
      <!-- 6000 -->
      <g transform="translate(338.529009 275.038438) scale(0.1 -0.1)">
       <defs>
        <path id="DejaVuSans-36" d="M 2113 2584 
Q 1688 2584 1439 2293 
Q 1191 2003 1191 1497 
Q 1191 994 1439 701 
Q 1688 409 2113 409 
Q 2538 409 2786 701 
Q 3034 994 3034 1497 
Q 3034 2003 2786 2293 
Q 2538 2584 2113 2584 
z
M 3366 4563 
L 3366 3988 
Q 3128 4100 2886 4159 
Q 2644 4219 2406 4219 
Q 1781 4219 1451 3797 
Q 1122 3375 1075 2522 
Q 1259 2794 1537 2939 
Q 1816 3084 2150 3084 
Q 2853 3084 3261 2657 
Q 3669 2231 3669 1497 
Q 3669 778 3244 343 
Q 2819 -91 2113 -91 
Q 1303 -91 875 529 
Q 447 1150 447 2328 
Q 447 3434 972 4092 
Q 1497 4750 2381 4750 
Q 2619 4750 2861 4703 
Q 3103 4656 3366 4563 
z
" transform="scale(0.015625)"/>
       </defs>
       <use xlink:href="#DejaVuSans-36"/>
       <use xlink:href="#DejaVuSans-30" x="63.623047"/>
       <use xlink:href="#DejaVuSans-30" x="127.246094"/>
       <use xlink:href="#DejaVuSans-30" x="190.869141"/>
      </g>
     </g>
    </g>
    <g id="xtick_5">
     <g id="line2d_9">
      <path d="M 444.578323 260.44 
L 444.578323 25.44 
" clip-path="url(#p5535fa7d71)" style="fill: none; stroke-dasharray: 2.96,1.28; stroke-dashoffset: 0; stroke: #b0b0b0; stroke-opacity: 0.3; stroke-width: 0.8"/>
     </g>
     <g id="line2d_10">
      <g>
       <use xlink:href="#m81b03651f8" x="444.578323" y="260.44" style="stroke: #000000; stroke-width: 0.8"/>
      </g>
     </g>
     <g id="text_5">
      <!-- 8000 -->
      <g transform="translate(431.853323 275.038438) scale(0.1 -0.1)">
       <defs>
        <path id="DejaVuSans-38" d="M 2034 2216 
Q 1584 2216 1326 1975 
Q 1069 1734 1069 1313 
Q 1069 891 1326 650 
Q 1584 409 2034 409 
Q 2484 409 2743 651 
Q 3003 894 3003 1313 
Q 3003 1734 2745 1975 
Q 2488 2216 2034 2216 
z
M 1403 2484 
Q 997 2584 770 2862 
Q 544 3141 544 3541 
Q 544 4100 942 4425 
Q 1341 4750 2034 4750 
Q 2731 4750 3128 4425 
Q 3525 4100 3525 3541 
Q 3525 3141 3298 2862 
Q 3072 2584 2669 2484 
Q 3125 2378 3379 2068 
Q 3634 1759 3634 1313 
Q 3634 634 3220 271 
Q 2806 -91 2034 -91 
Q 1263 -91 848 271 
Q 434 634 434 1313 
Q 434 1759 690 2068 
Q 947 2378 1403 2484 
z
M 1172 3481 
Q 1172 3119 1398 2916 
Q 1625 2713 2034 2713 
Q 2441 2713 2670 2916 
Q 2900 3119 2900 3481 
Q 2900 3844 2670 4047 
Q 2441 4250 2034 4250 
Q 1625 4250 1398 4047 
Q 1172 3844 1172 3481 
z
" transform="scale(0.015625)"/>
       </defs>
       <use xlink:href="#DejaVuSans-38"/>
       <use xlink:href="#DejaVuSans-30" x="63.623047"/>
       <use xlink:href="#DejaVuSans-30" x="127.246094"/>
       <use xlink:href="#DejaVuSans-30" x="190.869141"/>
      </g>
     </g>
    </g>
    <g id="xtick_6">
     <g id="line2d_11">
      <path d="M 537.902638 260.44 
L 537.902638 25.44 
" clip-path="url(#p5535fa7d71)" style="fill: none; stroke-dasharray: 2.96,1.28; stroke-dashoffset: 0; stroke: #b0b0b0; stroke-opacity: 0.3; stroke-width: 0.8"/>
     </g>
     <g id="line2d_12">
      <g>
       <use xlink:href="#m81b03651f8" x="537.902638" y="260.44" style="stroke: #000000; stroke-width: 0.8"/>
      </g>
     </g>
     <g id="text_6">
      <!-- 10000 -->
      <g transform="translate(521.996388 275.038438) scale(0.1 -0.1)">
       <defs>
        <path id="DejaVuSans-31" d="M 794 531 
L 1825 531 
L 1825 4091 
L 703 3866 
L 703 4441 
L 1819 4666 
L 2450 4666 
L 2450 531 
L 3481 531 
L 3481 0 
L 794 0 
L 794 531 
z
" transform="scale(0.015625)"/>
       </defs>
       <use xlink:href="#DejaVuSans-31"/>
       <use xlink:href="#DejaVuSans-30" x="63.623047"/>
       <use xlink:href="#DejaVuSans-30" x="127.246094"/>
       <use xlink:href="#DejaVuSans-30" x="190.869141"/>
       <use xlink:href="#DejaVuSans-30" x="254.492188"/>
      </g>
     </g>
    </g>
    <g id="text_7">
     <!-- round -->
     <g transform="translate(291.990937 288.716563) scale(0.1 -0.1)">
      <defs>
       <path id="DejaVuSans-72" d="M 2631 2963 
Q 2534 3019 2420 3045 
Q 2306 3072 2169 3072 
Q 1681 3072 1420 2755 
Q 1159 2438 1159 1844 
L 1159 0 
L 581 0 
L 581 3500 
L 1159 3500 
L 1159 2956 
Q 1341 3275 1631 3429 
Q 1922 3584 2338 3584 
Q 2397 3584 2469 3576 
Q 2541 3569 2628 3553 
L 2631 2963 
z
" transform="scale(0.015625)"/>
       <path id="DejaVuSans-6f" d="M 1959 3097 
Q 1497 3097 1228 2736 
Q 959 2375 959 1747 
Q 959 1119 1226 758 
Q 1494 397 1959 397 
Q 2419 397 2687 759 
Q 2956 1122 2956 1747 
Q 2956 2369 2687 2733 
Q 2419 3097 1959 3097 
z
M 1959 3584 
Q 2709 3584 3137 3096 
Q 3566 2609 3566 1747 
Q 3566 888 3137 398 
Q 2709 -91 1959 -91 
Q 1206 -91 779 398 
Q 353 888 353 1747 
Q 353 2609 779 3096 
Q 1206 3584 1959 3584 
z
" transform="scale(0.015625)"/>
       <path id="DejaVuSans-75" d="M 544 1381 
L 544 3500 
L 1119 3500 
L 1119 1403 
Q 1119 906 1312 657 
Q 1506 409 1894 409 
Q 2359 409 2629 706 
Q 2900 1003 2900 1516 
L 2900 3500 
L 3475 3500 
L 3475 0 
L 2900 0 
L 2900 538 
Q 2691 219 2414 64 
Q 2138 -91 1772 -91 
Q 1169 -91 856 284 
Q 544 659 544 1381 
z
M 1991 3584 
L 1991 3584 
z
" transform="scale(0.015625)"/>
       <path id="DejaVuSans-6e" d="M 3513 2113 
L 3513 0 
L 2938 0 
L 2938 2094 
Q 2938 2591 2744 2837 
Q 2550 3084 2163 3084 
Q 1697 3084 1428 2787 
Q 1159 2491 1159 1978 
L 1159 0 
L 581 0 
L 581 3500 
L 1159 3500 
L 1159 2956 
Q 1366 3272 1645 3428 
Q 1925 3584 2291 3584 
Q 2894 3584 3203 3211 
Q 3513 2838 3513 2113 
z
" transform="scale(0.015625)"/>
       <path id="DejaVuSans-64" d="M 2906 2969 
L 2906 4863 
L 3481 4863 
L 3481 0 
L 2906 0 
L 2906 525 
Q 2725 213 2448 61 
Q 2172 -91 1784 -91 
Q 1150 -91 751 415 
Q 353 922 353 1747 
Q 353 2572 751 3078 
Q 1150 3584 1784 3584 
Q 2172 3584 2448 3432 
Q 2725 3281 2906 2969 
z
M 947 1747 
Q 947 1113 1208 752 
Q 1469 391 1925 391 
Q 2381 391 2643 752 
Q 2906 1113 2906 1747 
Q 2906 2381 2643 2742 
Q 2381 3103 1925 3103 
Q 1469 3103 1208 2742 
Q 947 2381 947 1747 
z
" transform="scale(0.015625)"/>
      </defs>
      <use xlink:href="#DejaVuSans-72"/>
      <use xlink:href="#DejaVuSans-6f" x="38.863281"/>
      <use xlink:href="#DejaVuSans-75" x="100.044922"/>
      <use xlink:href="#DejaVuSans-6e" x="163.423828"/>
      <use xlink:href="#DejaVuSans-64" x="226.802734"/>
     </g>
    </g>
   </g>
   <g id="matplotlib.axis_2">
    <g id="ytick_1">
     <g id="line2d_13">
      <path d="M 47.81 236.731574 
L 565.2 236.731574 
" clip-path="url(#p5535fa7d71)" style="fill: none; stroke-dasharray: 2.96,1.28; stroke-dashoffset: 0; stroke: #b0b0b0; stroke-opacity: 0.3; stroke-width: 0.8"/>
     </g>
     <g id="line2d_14">
      <defs>
       <path id="md62c737fc1" d="M 0 0 
L -3.5 0 
" style="stroke: #000000; stroke-width: 0.8"/>
      </defs>
      <g>
       <use xlink:href="#md62c737fc1" x="47.81" y="236.731574" style="stroke: #000000; stroke-width: 0.8"/>
      </g>
     </g>
     <g id="text_8">
      <!-- 0.3 -->
      <g transform="translate(24.906875 240.530793) scale(0.1 -0.1)">
       <defs>
        <path id="DejaVuSans-2e" d="M 684 794 
L 1344 794 
L 1344 0 
L 684 0 
L 684 794 
z
" transform="scale(0.015625)"/>
        <path id="DejaVuSans-33" d="M 2597 2516 
Q 3050 2419 3304 2112 
Q 3559 1806 3559 1356 
Q 3559 666 3084 287 
Q 2609 -91 1734 -91 
Q 1441 -91 1130 -33 
Q 819 25 488 141 
L 488 750 
Q 750 597 1062 519 
Q 1375 441 1716 441 
Q 2309 441 2620 675 
Q 2931 909 2931 1356 
Q 2931 1769 2642 2001 
Q 2353 2234 1838 2234 
L 1294 2234 
L 1294 2753 
L 1863 2753 
Q 2328 2753 2575 2939 
Q 2822 3125 2822 3475 
Q 2822 3834 2567 4026 
Q 2313 4219 1838 4219 
Q 1578 4219 1281 4162 
Q 984 4106 628 3988 
L 628 4550 
Q 988 4650 1302 4700 
Q 1616 4750 1894 4750 
Q 2613 4750 3031 4423 
Q 3450 4097 3450 3541 
Q 3450 3153 3228 2886 
Q 3006 2619 2597 2516 
z
" transform="scale(0.015625)"/>
       </defs>
       <use xlink:href="#DejaVuSans-30"/>
       <use xlink:href="#DejaVuSans-2e" x="63.623047"/>
       <use xlink:href="#DejaVuSans-33" x="95.410156"/>
      </g>
     </g>
    </g>
    <g id="ytick_2">
     <g id="line2d_15">
      <path d="M 47.81 208.073038 
L 565.2 208.073038 
" clip-path="url(#p5535fa7d71)" style="fill: none; stroke-dasharray: 2.96,1.28; stroke-dashoffset: 0; stroke: #b0b0b0; stroke-opacity: 0.3; stroke-width: 0.8"/>
     </g>
     <g id="line2d_16">
      <g>
       <use xlink:href="#md62c737fc1" x="47.81" y="208.073038" style="stroke: #000000; stroke-width: 0.8"/>
      </g>
     </g>
     <g id="text_9">
      <!-- 0.4 -->
      <g transform="translate(24.906875 211.872256) scale(0.1 -0.1)">
       <use xlink:href="#DejaVuSans-30"/>
       <use xlink:href="#DejaVuSans-2e" x="63.623047"/>
       <use xlink:href="#DejaVuSans-34" x="95.410156"/>
      </g>
     </g>
    </g>
    <g id="ytick_3">
     <g id="line2d_17">
      <path d="M 47.81 179.414501 
L 565.2 179.414501 
" clip-path="url(#p5535fa7d71)" style="fill: none; stroke-dasharray: 2.96,1.28; stroke-dashoffset: 0; stroke: #b0b0b0; stroke-opacity: 0.3; stroke-width: 0.8"/>
     </g>
     <g id="line2d_18">
      <g>
       <use xlink:href="#md62c737fc1" x="47.81" y="179.414501" style="stroke: #000000; stroke-width: 0.8"/>
      </g>
     </g>
     <g id="text_10">
      <!-- 0.5 -->
      <g transform="translate(24.906875 183.21372) scale(0.1 -0.1)">
       <defs>
        <path id="DejaVuSans-35" d="M 691 4666 
L 3169 4666 
L 3169 4134 
L 1269 4134 
L 1269 2991 
Q 1406 3038 1543 3061 
Q 1681 3084 1819 3084 
Q 2600 3084 3056 2656 
Q 3513 2228 3513 1497 
Q 3513 744 3044 326 
Q 2575 -91 1722 -91 
Q 1428 -91 1123 -41 
Q 819 9 494 109 
L 494 744 
Q 775 591 1075 516 
Q 1375 441 1709 441 
Q 2250 441 2565 725 
Q 2881 1009 2881 1497 
Q 2881 1984 2565 2268 
Q 2250 2553 1709 2553 
Q 1456 2553 1204 2497 
Q 953 2441 691 2322 
L 691 4666 
z
" transform="scale(0.015625)"/>
       </defs>
       <use xlink:href="#DejaVuSans-30"/>
       <use xlink:href="#DejaVuSans-2e" x="63.623047"/>
       <use xlink:href="#DejaVuSans-35" x="95.410156"/>
      </g>
     </g>
    </g>
    <g id="ytick_4">
     <g id="line2d_19">
      <path d="M 47.81 150.755965 
L 565.2 150.755965 
" clip-path="url(#p5535fa7d71)" style="fill: none; stroke-dasharray: 2.96,1.28; stroke-dashoffset: 0; stroke: #b0b0b0; stroke-opacity: 0.3; stroke-width: 0.8"/>
     </g>
     <g id="line2d_20">
      <g>
       <use xlink:href="#md62c737fc1" x="47.81" y="150.755965" style="stroke: #000000; stroke-width: 0.8"/>
      </g>
     </g>
     <g id="text_11">
      <!-- 0.6 -->
      <g transform="translate(24.906875 154.555183) scale(0.1 -0.1)">
       <use xlink:href="#DejaVuSans-30"/>
       <use xlink:href="#DejaVuSans-2e" x="63.623047"/>
       <use xlink:href="#DejaVuSans-36" x="95.410156"/>
      </g>
     </g>
    </g>
    <g id="ytick_5">
     <g id="line2d_21">
      <path d="M 47.81 122.097428 
L 565.2 122.097428 
" clip-path="url(#p5535fa7d71)" style="fill: none; stroke-dasharray: 2.96,1.28; stroke-dashoffset: 0; stroke: #b0b0b0; stroke-opacity: 0.3; stroke-width: 0.8"/>
     </g>
     <g id="line2d_22">
      <g>
       <use xlink:href="#md62c737fc1" x="47.81" y="122.097428" style="stroke: #000000; stroke-width: 0.8"/>
      </g>
     </g>
     <g id="text_12">
      <!-- 0.7 -->
      <g transform="translate(24.906875 125.896647) scale(0.1 -0.1)">
       <defs>
        <path id="DejaVuSans-37" d="M 525 4666 
L 3525 4666 
L 3525 4397 
L 1831 0 
L 1172 0 
L 2766 4134 
L 525 4134 
L 525 4666 
z
" transform="scale(0.015625)"/>
       </defs>
       <use xlink:href="#DejaVuSans-30"/>
       <use xlink:href="#DejaVuSans-2e" x="63.623047"/>
       <use xlink:href="#DejaVuSans-37" x="95.410156"/>
      </g>
     </g>
    </g>
    <g id="ytick_6">
     <g id="line2d_23">
      <path d="M 47.81 93.438891 
L 565.2 93.438891 
" clip-path="url(#p5535fa7d71)" style="fill: none; stroke-dasharray: 2.96,1.28; stroke-dashoffset: 0; stroke: #b0b0b0; stroke-opacity: 0.3; stroke-width: 0.8"/>
     </g>
     <g id="line2d_24">
      <g>
       <use xlink:href="#md62c737fc1" x="47.81" y="93.438891" style="stroke: #000000; stroke-width: 0.8"/>
      </g>
     </g>
     <g id="text_13">
      <!-- 0.8 -->
      <g transform="translate(24.906875 97.23811) scale(0.1 -0.1)">
       <use xlink:href="#DejaVuSans-30"/>
       <use xlink:href="#DejaVuSans-2e" x="63.623047"/>
       <use xlink:href="#DejaVuSans-38" x="95.410156"/>
      </g>
     </g>
    </g>
    <g id="ytick_7">
     <g id="line2d_25">
      <path d="M 47.81 64.780355 
L 565.2 64.780355 
" clip-path="url(#p5535fa7d71)" style="fill: none; stroke-dasharray: 2.96,1.28; stroke-dashoffset: 0; stroke: #b0b0b0; stroke-opacity: 0.3; stroke-width: 0.8"/>
     </g>
     <g id="line2d_26">
      <g>
       <use xlink:href="#md62c737fc1" x="47.81" y="64.780355" style="stroke: #000000; stroke-width: 0.8"/>
      </g>
     </g>
     <g id="text_14">
      <!-- 0.9 -->
      <g transform="translate(24.906875 68.579574) scale(0.1 -0.1)">
       <defs>
        <path id="DejaVuSans-39" d="M 703 97 
L 703 672 
Q 941 559 1184 500 
Q 1428 441 1663 441 
Q 2288 441 2617 861 
Q 2947 1281 2994 2138 
Q 2813 1869 2534 1725 
Q 2256 1581 1919 1581 
Q 1219 1581 811 2004 
Q 403 2428 403 3163 
Q 403 3881 828 4315 
Q 1253 4750 1959 4750 
Q 2769 4750 3195 4129 
Q 3622 3509 3622 2328 
Q 3622 1225 3098 567 
Q 2575 -91 1691 -91 
Q 1453 -91 1209 -44 
Q 966 3 703 97 
z
M 1959 2075 
Q 2384 2075 2632 2365 
Q 2881 2656 2881 3163 
Q 2881 3666 2632 3958 
Q 2384 4250 1959 4250 
Q 1534 4250 1286 3958 
Q 1038 3666 1038 3163 
Q 1038 2656 1286 2365 
Q 1534 2075 1959 2075 
z
" transform="scale(0.015625)"/>
       </defs>
       <use xlink:href="#DejaVuSans-30"/>
       <use xlink:href="#DejaVuSans-2e" x="63.623047"/>
       <use xlink:href="#DejaVuSans-39" x="95.410156"/>
      </g>
     </g>
    </g>
    <g id="ytick_8">
     <g id="line2d_27">
      <path d="M 47.81 36.121818 
L 565.2 36.121818 
" clip-path="url(#p5535fa7d71)" style="fill: none; stroke-dasharray: 2.96,1.28; stroke-dashoffset: 0; stroke: #b0b0b0; stroke-opacity: 0.3; stroke-width: 0.8"/>
     </g>
     <g id="line2d_28">
      <g>
       <use xlink:href="#md62c737fc1" x="47.81" y="36.121818" style="stroke: #000000; stroke-width: 0.8"/>
      </g>
     </g>
     <g id="text_15">
      <!-- 1.0 -->
      <g transform="translate(24.906875 39.921037) scale(0.1 -0.1)">
       <use xlink:href="#DejaVuSans-31"/>
       <use xlink:href="#DejaVuSans-2e" x="63.623047"/>
       <use xlink:href="#DejaVuSans-30" x="95.410156"/>
      </g>
     </g>
    </g>
    <g id="text_16">
     <!-- cumulative timely transfer rate -->
     <g transform="translate(18.827188 221.048594) rotate(-90) scale(0.1 -0.1)">
      <defs>
       <path id="DejaVuSans-63" d="M 3122 3366 
L 3122 2828 
Q 2878 2963 2633 3030 
Q 2388 3097 2138 3097 
Q 1578 3097 1268 2742 
Q 959 2388 959 1747 
Q 959 1106 1268 751 
Q 1578 397 2138 397 
Q 2388 397 2633 464 
Q 2878 531 3122 666 
L 3122 134 
Q 2881 22 2623 -34 
Q 2366 -91 2075 -91 
Q 1284 -91 818 406 
Q 353 903 353 1747 
Q 353 2603 823 3093 
Q 1294 3584 2113 3584 
Q 2378 3584 2631 3529 
Q 2884 3475 3122 3366 
z
" transform="scale(0.015625)"/>
       <path id="DejaVuSans-6d" d="M 3328 2828 
Q 3544 3216 3844 3400 
Q 4144 3584 4550 3584 
Q 5097 3584 5394 3201 
Q 5691 2819 5691 2113 
L 5691 0 
L 5113 0 
L 5113 2094 
Q 5113 2597 4934 2840 
Q 4756 3084 4391 3084 
Q 3944 3084 3684 2787 
Q 3425 2491 3425 1978 
L 3425 0 
L 2847 0 
L 2847 2094 
Q 2847 2600 2669 2842 
Q 2491 3084 2119 3084 
Q 1678 3084 1418 2786 
Q 1159 2488 1159 1978 
L 1159 0 
L 581 0 
L 581 3500 
L 1159 3500 
L 1159 2956 
Q 1356 3278 1631 3431 
Q 1906 3584 2284 3584 
Q 2666 3584 2933 3390 
Q 3200 3197 3328 2828 
z
" transform="scale(0.015625)"/>
       <path id="DejaVuSans-6c" d="M 603 4863 
L 1178 4863 
L 1178 0 
L 603 0 
L 603 4863 
z
" transform="scale(0.015625)"/>
       <path id="DejaVuSans-61" d="M 2194 1759 
Q 1497 1759 1228 1600 
Q 959 1441 959 1056 
Q 959 750 1161 570 
Q 1363 391 1709 391 
Q 2188 391 2477 730 
Q 2766 1069 2766 1631 
L 2766 1759 
L 2194 1759 
z
M 3341 1997 
L 3341 0 
L 2766 0 
L 2766 531 
Q 2569 213 2275 61 
Q 1981 -91 1556 -91 
Q 1019 -91 701 211 
Q 384 513 384 1019 
Q 384 1609 779 1909 
Q 1175 2209 1959 2209 
L 2766 2209 
L 2766 2266 
Q 2766 2663 2505 2880 
Q 2244 3097 1772 3097 
Q 1472 3097 1187 3025 
Q 903 2953 641 2809 
L 641 3341 
Q 956 3463 1253 3523 
Q 1550 3584 1831 3584 
Q 2591 3584 2966 3190 
Q 3341 2797 3341 1997 
z
" transform="scale(0.015625)"/>
       <path id="DejaVuSans-74" d="M 1172 4494 
L 1172 3500 
L 2356 3500 
L 2356 3053 
L 1172 3053 
L 1172 1153 
Q 1172 725 1289 603 
Q 1406 481 1766 481 
L 2356 481 
L 2356 0 
L 1766 0 
Q 1100 0 847 248 
Q 594 497 594 1153 
L 594 3053 
L 172 3053 
L 172 3500 
L 594 3500 
L 594 4494 
L 1172 4494 
z
" transform="scale(0.015625)"/>
       <path id="DejaVuSans-69" d="M 603 3500 
L 1178 3500 
L 1178 0 
L 603 0 
L 603 3500 
z
M 603 4863 
L 1178 4863 
L 1178 4134 
L 603 4134 
L 603 4863 
z
" transform="scale(0.015625)"/>
       <path id="DejaVuSans-76" d="M 191 3500 
L 800 3500 
L 1894 563 
L 2988 3500 
L 3597 3500 
L 2284 0 
L 1503 0 
L 191 3500 
z
" transform="scale(0.015625)"/>
       <path id="DejaVuSans-65" d="M 3597 1894 
L 3597 1613 
L 953 1613 
Q 991 1019 1311 708 
Q 1631 397 2203 397 
Q 2534 397 2845 478 
Q 3156 559 3463 722 
L 3463 178 
Q 3153 47 2828 -22 
Q 2503 -91 2169 -91 
Q 1331 -91 842 396 
Q 353 884 353 1716 
Q 353 2575 817 3079 
Q 1281 3584 2069 3584 
Q 2775 3584 3186 3129 
Q 3597 2675 3597 1894 
z
M 3022 2063 
Q 3016 2534 2758 2815 
Q 2500 3097 2075 3097 
Q 1594 3097 1305 2825 
Q 1016 2553 972 2059 
L 3022 2063 
z
" transform="scale(0.015625)"/>
       <path id="DejaVuSans-20" transform="scale(0.015625)"/>
       <path id="DejaVuSans-79" d="M 2059 -325 
Q 1816 -950 1584 -1140 
Q 1353 -1331 966 -1331 
L 506 -1331 
L 506 -850 
L 844 -850 
Q 1081 -850 1212 -737 
Q 1344 -625 1503 -206 
L 1606 56 
L 191 3500 
L 800 3500 
L 1894 763 
L 2988 3500 
L 3597 3500 
L 2059 -325 
z
" transform="scale(0.015625)"/>
       <path id="DejaVuSans-73" d="M 2834 3397 
L 2834 2853 
Q 2591 2978 2328 3040 
Q 2066 3103 1784 3103 
Q 1356 3103 1142 2972 
Q 928 2841 928 2578 
Q 928 2378 1081 2264 
Q 1234 2150 1697 2047 
L 1894 2003 
Q 2506 1872 2764 1633 
Q 3022 1394 3022 966 
Q 3022 478 2636 193 
Q 2250 -91 1575 -91 
Q 1294 -91 989 -36 
Q 684 19 347 128 
L 347 722 
Q 666 556 975 473 
Q 1284 391 1588 391 
Q 1994 391 2212 530 
Q 2431 669 2431 922 
Q 2431 1156 2273 1281 
Q 2116 1406 1581 1522 
L 1381 1569 
Q 847 1681 609 1914 
Q 372 2147 372 2553 
Q 372 3047 722 3315 
Q 1072 3584 1716 3584 
Q 2034 3584 2315 3537 
Q 2597 3491 2834 3397 
z
" transform="scale(0.015625)"/>
       <path id="DejaVuSans-66" d="M 2375 4863 
L 2375 4384 
L 1825 4384 
Q 1516 4384 1395 4259 
Q 1275 4134 1275 3809 
L 1275 3500 
L 2222 3500 
L 2222 3053 
L 1275 3053 
L 1275 0 
L 697 0 
L 697 3053 
L 147 3053 
L 147 3500 
L 697 3500 
L 697 3744 
Q 697 4328 969 4595 
Q 1241 4863 1831 4863 
L 2375 4863 
z
" transform="scale(0.015625)"/>
      </defs>
      <use xlink:href="#DejaVuSans-63"/>
      <use xlink:href="#DejaVuSans-75" x="54.980469"/>
      <use xlink:href="#DejaVuSans-6d" x="118.359375"/>
      <use xlink:href="#DejaVuSans-75" x="215.771484"/>
      <use xlink:href="#DejaVuSans-6c" x="279.150391"/>
      <use xlink:href="#DejaVuSans-61" x="306.933594"/>
      <use xlink:href="#DejaVuSans-74" x="368.212891"/>
      <use xlink:href="#DejaVuSans-69" x="407.421875"/>
      <use xlink:href="#DejaVuSans-76" x="435.205078"/>
      <use xlink:href="#DejaVuSans-65" x="494.384766"/>
      <use xlink:href="#DejaVuSans-20" x="555.908203"/>
      <use xlink:href="#DejaVuSans-74" x="587.695312"/>
      <use xlink:href="#DejaVuSans-69" x="626.904297"/>
      <use xlink:href="#DejaVuSans-6d" x="654.6875"/>
      <use xlink:href="#DejaVuSans-65" x="752.099609"/>
      <use xlink:href="#DejaVuSans-6c" x="813.623047"/>
      <use xlink:href="#DejaVuSans-79" x="841.40625"/>
      <use xlink:href="#DejaVuSans-20" x="900.585938"/>
      <use xlink:href="#DejaVuSans-74" x="932.373047"/>
      <use xlink:href="#DejaVuSans-72" x="971.582031"/>
      <use xlink:href="#DejaVuSans-61" x="1012.695312"/>
      <use xlink:href="#DejaVuSans-6e" x="1073.974609"/>
      <use xlink:href="#DejaVuSans-73" x="1137.353516"/>
      <use xlink:href="#DejaVuSans-66" x="1189.453125"/>
      <use xlink:href="#DejaVuSans-65" x="1224.658203"/>
      <use xlink:href="#DejaVuSans-72" x="1286.181641"/>
      <use xlink:href="#DejaVuSans-20" x="1327.294922"/>
      <use xlink:href="#DejaVuSans-72" x="1359.082031"/>
      <use xlink:href="#DejaVuSans-61" x="1400.195312"/>
      <use xlink:href="#DejaVuSans-74" x="1461.474609"/>
      <use xlink:href="#DejaVuSans-65" x="1500.683594"/>
     </g>
    </g>
   </g>
   <g id="line2d_29">
    <path d="M 71.327727 36.121818 
L 71.374389 93.438891 
L 71.467714 82.180181 
L 71.654362 60.750248 
L 71.841011 52.205691 
L 71.887673 62.414054 
L 71.980997 59.048647 
L 72.120984 69.466656 
L 72.167646 69.287484 
L 72.494281 59.751478 
L 72.587606 60.733157 
L 72.820916 57.482218 
L 73.100889 54.492675 
L 73.147551 54.990171 
L 73.194214 54.466051 
L 73.567511 51.295669 
L 73.754159 50.2419 
L 73.800822 50.680968 
L 73.847484 50.438528 
L 73.940808 49.941925 
L 74.174119 51.263005 
L 74.547416 50.044994 
L 74.687403 51.672962 
L 74.874051 50.963477 
L 74.967376 51.552004 
L 75.014038 51.39493 
L 75.107362 51.072637 
L 75.200686 52.253562 
L 75.294011 51.998226 
L 75.340673 51.811967 
L 75.387335 52.271933 
L 75.433997 52.086705 
L 75.527321 51.83779 
L 75.667308 52.540771 
L 75.853957 51.987138 
L 75.900619 52.40021 
L 75.947281 52.255513 
L 75.993943 52.105542 
L 76.180592 53.130653 
L 76.507227 52.254948 
L 76.553889 52.595132 
L 76.600551 52.45893 
L 76.647213 52.310987 
L 76.7872 52.979781 
L 76.973848 52.491443 
L 77.160497 54.753254 
L 77.207159 54.651044 
L 77.393808 54.183921 
L 77.44047 54.576179 
L 77.487132 54.403061 
L 77.673781 53.863811 
L 77.767105 53.982081 
L 77.813767 54.236944 
L 77.860429 54.121887 
L 77.953754 53.914701 
L 78.000416 54.064382 
L 78.09374 53.874026 
L 78.187064 53.966728 
L 78.327051 54.217936 
L 78.420375 53.945458 
L 78.513699 55.227509 
L 78.560362 55.016563 
L 78.607024 54.90988 
L 78.74701 56.398672 
L 78.793672 56.245246 
L 79.073645 59.88019 
L 79.120308 59.990262 
L 79.306956 63.102936 
L 79.353618 62.895958 
L 79.540267 63.672184 
L 79.726916 65.515189 
L 79.82024 65.060887 
L 80.053551 64.052048 
L 81.360091 75.430714 
L 81.826713 73.803436 
L 81.873375 73.871923 
L 81.920037 73.952703 
L 82.106686 72.965697 
L 82.246672 74.445681 
L 82.433321 73.813104 
L 82.479983 74.429631 
L 82.526645 74.175608 
L 83.086591 71.542005 
L 83.179915 71.751802 
L 83.226577 71.861969 
L 83.27324 71.671451 
L 83.553212 73.028108 
L 83.646537 73.069751 
L 83.693199 72.845267 
L 83.973172 74.588355 
L 84.066496 74.289726 
L 84.439793 76.161636 
L 84.533118 75.81629 
L 84.766429 77.092729 
L 84.859753 76.66486 
L 84.906415 76.75138 
L 84.953077 76.777591 
L 85.419699 75.195716 
L 85.466361 75.437363 
L 85.513023 75.448201 
L 85.932983 73.895602 
L 85.979645 74.210334 
L 86.026307 74.027509 
L 86.072969 74.049553 
L 86.30628 75.911351 
L 86.352942 75.698594 
L 87.379509 71.413297 
L 87.426172 71.2427 
L 87.61282 72.152568 
L 87.659482 72.017055 
L 87.706144 72.154116 
L 87.752807 72.041447 
L 87.799469 71.861398 
L 87.892793 73.248598 
L 87.986117 73.090329 
L 88.126104 72.774706 
L 88.499401 74.966927 
L 88.68605 74.479104 
L 88.732712 74.519538 
L 88.872698 74.25343 
L 88.966023 74.177991 
L 89.012685 74.071275 
L 89.106009 74.12062 
L 89.152671 74.162561 
L 89.199334 74.013771 
L 89.245996 74.231109 
L 89.292658 74.52478 
L 89.33932 74.318765 
L 89.432644 74.043698 
L 89.479306 74.069231 
L 89.572631 74.327534 
L 89.619293 74.651816 
L 89.665955 74.572373 
L 89.805942 74.243928 
L 89.852604 74.646066 
L 89.945928 74.608152 
L 90.039252 74.814545 
L 90.085915 74.714822 
L 90.179239 74.459566 
L 90.41255 75.506709 
L 90.459212 75.371858 
L 90.552536 75.191674 
L 90.739185 75.92916 
L 90.879171 75.70403 
L 91.019158 76.49331 
L 91.06582 76.419868 
L 91.252468 77.100794 
L 91.299131 77.155112 
L 91.392455 76.85726 
L 91.439117 76.925209 
L 91.579104 77.110559 
L 91.812414 76.401449 
L 91.999063 76.228955 
L 92.232374 75.699663 
L 92.325698 75.970731 
L 92.37236 75.918526 
L 92.605671 75.37395 
L 92.652333 75.438886 
L 92.698995 75.514056 
L 92.745657 75.385223 
L 93.305603 74.187154 
L 93.398928 73.978279 
L 93.44559 74.064474 
L 93.632238 74.358949 
L 93.678901 74.336408 
L 93.725563 74.312934 
L 93.772225 74.464039 
L 93.818887 74.313069 
L 93.958874 74.272344 
L 94.145522 74.092119 
L 94.238847 73.973593 
L 94.285509 74.074514 
L 94.425495 74.772177 
L 94.472157 74.718556 
L 94.518819 74.702087 
L 94.705468 75.467462 
L 94.938779 76.568059 
L 94.985441 76.473109 
L 95.125427 76.829207 
L 95.17209 76.916466 
L 95.312076 77.917657 
L 95.358738 77.80244 
L 95.498725 77.691963 
L 95.545387 77.811968 
L 95.592049 77.715225 
L 95.638711 77.623107 
L 95.685373 77.875692 
L 95.778698 77.820218 
L 96.105333 77.255247 
L 96.151995 77.354904 
L 96.198657 77.246301 
L 96.245319 77.289624 
L 96.291981 77.195716 
L 96.571954 76.714997 
L 96.945252 77.743899 
L 96.991914 77.64966 
L 97.038576 77.72292 
L 97.1319 78.09969 
L 97.225225 78.066986 
L 97.411873 78.296287 
L 97.458535 78.353646 
L 97.505198 78.252789 
L 97.645184 78.182431 
L 97.691846 78.561031 
L 97.78517 78.532301 
L 98.298454 77.9369 
L 98.531765 78.714734 
L 98.578427 78.608966 
L 98.671751 79.053625 
L 98.718414 79.022704 
L 98.905062 78.69388 
L 98.998387 78.991666 
L 99.045049 78.898132 
L 99.278359 78.524445 
L 99.371684 78.827898 
L 99.418346 78.752357 
L 99.51167 78.627047 
L 99.744981 79.270492 
L 99.791643 79.222105 
L 100.071616 79.728017 
L 100.118278 79.741849 
L 100.211603 80.016658 
L 100.258265 79.991478 
L 100.398251 79.952934 
L 100.444913 79.890456 
L 100.491576 80.108743 
L 100.5849 80.073277 
L 100.678224 79.97866 
L 100.724886 79.874428 
L 100.771549 80.015139 
L 100.911535 80.397068 
L 101.051521 80.269821 
L 101.331494 80.532387 
L 101.471481 80.297411 
L 101.65813 80.80808 
L 101.704792 80.872951 
L 101.751454 80.820863 
L 101.798116 80.777548 
L 101.938102 81.233194 
L 101.984765 81.144692 
L 102.171413 80.818016 
L 102.218075 80.947885 
L 102.3114 81.106463 
L 102.358062 81.01784 
L 102.638035 80.653503 
L 102.731359 80.495359 
L 102.824683 80.598961 
L 102.96467 80.579305 
L 103.104656 80.71164 
L 103.244643 80.423753 
L 103.337967 80.59846 
L 103.384629 80.520601 
L 103.61794 80.238947 
L 103.711264 80.473824 
L 103.757927 80.403667 
L 103.991237 80.292135 
L 104.131224 80.377191 
L 104.457859 79.880684 
L 104.504521 79.964802 
L 104.551183 79.904997 
L 104.784494 79.581711 
L 105.157791 78.931574 
L 105.204453 78.986901 
L 105.251116 78.917088 
L 105.34444 78.872175 
L 105.437764 79.189772 
L 105.484426 79.139041 
L 105.624413 79.203341 
L 106.137697 78.56911 
L 106.184359 78.597072 
L 106.231021 78.511982 
L 106.884291 77.81566 
L 107.024278 77.967909 
L 107.210926 77.864785 
L 107.350913 77.877654 
L 107.584223 77.747539 
L 107.72421 77.703601 
L 108.004183 77.324328 
L 108.050845 77.381843 
L 108.097507 77.30568 
L 108.190832 77.157968 
L 108.237494 77.263005 
L 108.424142 77.627104 
L 108.564129 77.488056 
L 108.610791 77.644376 
L 108.657453 77.600482 
L 109.310723 77.02384 
L 109.357385 77.127821 
L 109.404048 77.078271 
L 109.497372 76.961517 
L 109.544034 77.068588 
L 109.684021 77.257393 
L 109.730683 77.217804 
L 109.870669 77.180251 
L 110.057318 77.036576 
L 110.243966 77.626944 
L 110.290629 77.562678 
L 110.570602 77.412516 
L 110.710588 77.481131 
L 110.850574 77.896623 
L 110.897237 77.849463 
L 110.990561 77.803005 
L 111.083885 77.718768 
L 111.130547 77.757002 
L 111.503845 78.149457 
L 112.530412 77.270641 
L 112.857047 76.93317 
L 112.903709 77.010441 
L 112.950372 76.963841 
L 113.090358 76.809771 
L 113.183682 77.073363 
L 113.277007 76.963694 
L 113.510317 76.910929 
L 113.696966 76.93279 
L 113.883615 76.899504 
L 114.350236 77.178573 
L 114.490223 77.122011 
L 114.536885 77.250066 
L 114.583547 77.190512 
L 114.723534 77.125794 
L 114.910182 77.354319 
L 115.190155 77.144462 
L 115.330142 77.103383 
L 115.796763 77.049487 
L 115.93675 76.987276 
L 116.076736 77.00554 
L 116.17006 76.894909 
L 116.216723 76.939939 
L 116.310047 77.160046 
L 116.403371 77.074494 
L 116.636682 76.929375 
L 116.730006 77.042885 
L 116.776668 77.00256 
L 117.149966 76.786373 
L 117.336614 77.181003 
L 117.383277 77.162516 
L 117.663249 77.097302 
L 117.709912 77.259054 
L 117.756574 77.202039 
L 118.083209 76.996696 
L 118.176533 76.955054 
L 118.363182 76.773636 
L 118.503168 76.933276 
L 118.923128 76.568151 
L 119.016452 76.54658 
L 119.156438 76.517241 
L 119.296425 76.50829 
L 120.369655 75.678386 
L 120.416317 75.780358 
L 120.649628 75.576301 
L 120.742952 75.500104 
L 120.789614 75.644769 
L 120.836276 75.600639 
L 120.976263 75.446525 
L 121.022925 75.550553 
L 121.069587 75.61021 
L 121.116249 75.5596 
L 121.536209 75.27424 
L 121.582871 75.455615 
L 121.676195 75.40242 
L 122.282803 74.886461 
L 122.469452 74.802719 
L 122.516114 74.922274 
L 122.609438 74.866825 
L 124.149289 73.98757 
L 124.195951 74.119931 
L 124.289276 74.069007 
L 124.942546 73.572434 
L 125.175857 73.438127 
L 125.689141 73.129763 
L 125.875789 73.110755 
L 126.622384 72.811047 
L 126.76237 72.823411 
L 126.902357 72.710468 
L 126.949019 72.791531 
L 127.089005 72.756624 
L 127.462302 72.517336 
L 127.508965 72.628536 
L 127.555627 72.593843 
L 127.928924 72.399131 
L 128.068911 72.368341 
L 128.535532 72.165419 
L 128.675519 72.158892 
L 129.002154 72.005935 
L 129.14214 72.024255 
L 129.748748 71.766062 
L 129.888735 71.725526 
L 130.122045 71.613263 
L 130.262032 71.579255 
L 130.542005 71.541845 
L 130.681991 71.536995 
L 131.055289 71.285354 
L 131.101951 71.367586 
L 131.148613 71.331256 
L 131.615234 71.160992 
L 131.755221 71.170267 
L 131.801883 71.139457 
L 131.848545 71.212671 
L 131.988532 71.132807 
L 132.221843 71.083315 
L 132.875113 70.850266 
L 134.32164 70.951261 
L 134.741599 70.999175 
L 137.401342 71.108002 
L 137.821301 71.147157 
L 142.720828 71.247163 
L 142.954139 71.273239 
L 146.080503 71.376956 
L 146.780436 71.39432 
L 149.020219 71.489777 
L 149.300192 71.511462 
L 154.759665 71.611822 
L 155.0863 71.629151 
L 161.852312 71.730005 
L 162.132285 71.751644 
L 172.257973 71.856098 
L 172.584609 71.890674 
L 183.316905 71.998649 
L 183.64354 72.015914 
L 194.562485 72.110186 
L 194.842458 72.131744 
L 198.762079 72.235172 
L 199.088714 72.248053 
L 200.348592 72.342764 
L 200.675227 72.359977 
L 203.614943 72.453215 
L 203.941578 72.483299 
L 210.47428 72.578081 
L 210.800915 72.595247 
L 218.220198 72.698508 
L 218.453509 72.724221 
L 223.073063 72.826777 
L 223.586347 72.856735 
L 227.225995 72.966406 
L 227.459306 72.996322 
L 229.51244 73.098678 
L 229.885738 73.128558 
L 238.891534 73.225633 
L 239.218169 73.268238 
L 242.811155 73.342349 
L 243.044466 73.397676 
L 247.710682 73.499755 
L 248.083979 73.555012 
L 257.369748 73.66539 
L 257.649721 73.703582 
L 264.089099 73.811923 
L 264.415734 73.828878 
L 267.728747 73.930931 
L 268.195369 73.943633 
L 272.068328 74.053668 
L 272.394963 74.070588 
L 275.474665 74.161018 
L 275.754638 74.182148 
L 288.166772 74.275421 
L 288.400083 74.300744 
L 291.339799 74.410413 
L 291.946407 74.414944 
L 298.339122 74.505698 
L 298.619095 74.526757 
L 302.81869 74.627792 
L 303.098663 74.648831 
L 306.458338 74.750041 
L 306.691649 74.775259 
L 309.631365 74.803363 
L 315.650783 74.909778 
L 316.02408 74.926563 
L 321.576877 75.001652 
L 321.810188 75.064528 
L 327.083011 75.165063 
L 327.409646 75.200099 
L 330.162714 75.29588 
L 330.536011 75.312607 
L 335.762173 75.415105 
L 336.182132 75.448522 
L 342.528185 75.5394 
L 342.808158 75.564432 
L 347.894334 75.672164 
L 348.220969 75.686158 
L 349.900806 75.786075 
L 350.41409 75.852642 
L 357.040116 75.952016 
L 357.413414 76.001865 
L 358.673292 76.108455 
L 359.046589 76.154091 
L 361.846319 76.251767 
L 362.219616 76.26834 
L 367.07248 76.367298 
L 367.352453 76.387986 
L 371.692034 76.488934 
L 372.298642 76.543374 
L 374.585087 76.646566 
L 375.238358 76.70844 
L 378.784682 76.789623 
L 378.97133 76.826694 
L 382.564316 76.935789 
L 382.797627 76.957055 
L 387.277194 77.061215 
L 387.883802 77.107761 
L 394.97645 77.211659 
L 396.003018 77.285446 
L 398.149477 77.389193 
L 398.522774 77.405568 
L 399.269369 77.430128 
L 403.982247 77.5281 
L 404.355544 77.55671 
L 411.308205 77.656621 
L 411.728165 77.693355 
L 415.74111 77.784239 
L 416.021083 77.808697 
L 418.820813 77.913134 
L 419.19411 77.92942 
L 423.347042 78.0379 
L 425.353515 78.102962 
L 428.106582 78.207082 
L 428.386555 78.222492 
L 432.586149 78.323953 
L 432.959446 78.340179 
L 433.47273 78.364513 
L 436.972392 78.465694 
L 437.252365 78.490001 
L 439.398824 78.600553 
L 439.678797 78.620785 
L 441.405297 78.723116 
L 441.591945 78.759492 
L 443.831729 78.86048 
L 444.29835 78.912961 
L 448.40462 79.009113 
L 448.731255 79.029269 
L 454.517363 79.132829 
L 455.217295 79.140879 
L 457.970363 79.233834 
L 458.296998 79.253933 
L 464.036443 79.361876 
L 464.549727 79.387122 
L 468.982632 79.492304 
L 469.215942 79.520367 
L 475.422009 79.619655 
L 475.981955 79.651681 
L 476.681888 79.659687 
L 478.315063 79.747711 
L 478.595036 79.787701 
L 482.14136 79.888477 
L 482.607982 79.900457 
L 484.614454 79.998077 
L 485.081076 80.041955 
L 487.134211 80.141617 
L 487.507508 80.157555 
L 493.153629 80.263623 
L 493.38694 80.291479 
L 495.393413 80.394887 
L 495.76671 80.434636 
L 500.759561 80.5313 
L 501.039534 80.555114 
L 505.565763 80.647952 
L 505.892398 80.673507 
L 508.552141 80.779296 
L 509.065425 80.807004 
L 514.291586 80.896684 
L 514.524897 80.932241 
L 517.6046 81.042064 
L 517.977897 81.057849 
L 520.824288 81.150917 
L 521.150924 81.17062 
L 526.283761 81.278233 
L 526.610396 81.297905 
L 530.996639 81.394987 
L 531.369936 81.410708 
L 534.962922 81.50938 
L 535.289557 81.529008 
L 535.942827 81.583949 
L 541.682273 81.690266 
L 541.682273 81.690266 
" clip-path="url(#p5535fa7d71)" style="fill: none; stroke: #1f77b4; stroke-width: 1.8; stroke-linecap: square"/>
   </g>
   <g id="line2d_30">
    <path d="M 71.327727 47.585233 
L 71.374389 43.730279 
L 71.467714 66.11331 
L 71.514376 64.252897 
L 71.561038 62.762148 
L 71.701025 80.412284 
L 71.747687 76.789191 
L 71.934335 67.63971 
L 71.980997 68.978739 
L 72.074322 68.676208 
L 72.120984 68.682688 
L 72.354295 74.638281 
L 72.400957 74.612914 
L 72.447619 72.926147 
L 72.494281 76.000442 
L 72.540943 74.791999 
L 72.587606 73.303867 
L 72.68093 73.483407 
L 72.867578 71.375851 
L 72.960903 72.841341 
L 73.007565 72.334697 
L 73.054227 71.433438 
L 73.194214 75.476092 
L 73.380862 74.148349 
L 73.614173 76.858391 
L 73.660835 76.061588 
L 73.707497 75.330617 
L 73.754159 76.833326 
L 73.800822 76.033447 
L 73.894146 74.96598 
L 73.98747 73.459184 
L 74.034132 73.616862 
L 74.220781 75.025129 
L 74.267443 74.542387 
L 74.40743 73.913295 
L 74.64074 77.622565 
L 74.687403 77.106475 
L 74.827389 79.198258 
L 74.874051 78.855672 
L 75.014038 77.649405 
L 75.0607 77.872664 
L 75.200686 79.289713 
L 75.247348 79.269429 
L 75.433997 78.612875 
L 75.480659 78.562088 
L 75.667308 79.643935 
L 75.71397 79.603736 
L 75.993943 82.044863 
L 76.133929 81.05201 
L 76.413902 82.947037 
L 76.460565 83.004075 
L 76.600551 84.275574 
L 76.647213 83.998995 
L 76.740538 84.457718 
L 76.7872 84.316707 
L 76.833862 83.860192 
L 76.880524 84.218452 
L 76.973848 84.762975 
L 77.02051 84.462878 
L 77.207159 83.589674 
L 77.300483 85.071957 
L 77.347146 84.738344 
L 77.393808 84.702177 
L 77.627119 83.772592 
L 77.767105 83.076858 
L 77.813767 83.611033 
L 77.860429 83.285169 
L 77.953754 83.324876 
L 78.000416 83.280622 
L 78.140402 83.624238 
L 78.187064 83.272751 
L 78.280389 84.551856 
L 78.327051 84.273048 
L 78.373713 84.133581 
L 78.420375 84.568105 
L 78.467037 84.254766 
L 78.560362 83.826785 
L 78.607024 84.145981 
L 78.700348 84.7079 
L 78.74701 84.514965 
L 78.886997 83.895469 
L 79.026983 84.340766 
L 79.16697 84.127809 
L 79.260294 84.672623 
L 79.306956 84.425755 
L 79.353618 84.319657 
L 79.40028 84.55653 
L 79.446943 84.292324 
L 79.680253 83.22714 
L 79.726916 83.646025 
L 79.773578 83.370436 
L 79.866902 83.405113 
L 79.913564 83.151728 
L 79.960226 83.435676 
L 80.053551 84.11719 
L 80.100213 83.82451 
L 80.146875 83.824762 
L 80.193537 83.625662 
L 80.286861 83.713002 
L 80.333524 83.69754 
L 80.380186 84.332664 
L 80.47351 84.236934 
L 80.520172 84.172482 
L 80.706821 83.508676 
L 80.753483 83.613634 
L 80.89347 83.218094 
L 80.940132 83.378036 
L 80.986794 83.192616 
L 81.080118 82.83338 
L 81.12678 83.134349 
L 81.173442 82.869786 
L 81.220105 82.891951 
L 81.313429 82.401467 
L 81.360091 82.549428 
L 81.54674 82.944756 
L 81.593402 82.823201 
L 81.780051 82.384944 
L 82.013361 82.745804 
L 82.060023 82.767684 
L 82.153348 82.308893 
L 82.20001 82.319403 
L 82.246672 82.597281 
L 82.293334 82.514539 
L 82.339996 82.306327 
L 82.433321 82.342733 
L 82.479983 82.46195 
L 82.526645 82.417425 
L 82.573307 82.361518 
L 82.806618 82.768624 
L 83.039929 82.555903 
L 83.086591 82.384726 
L 83.133253 82.414388 
L 83.179915 82.55688 
L 83.226577 82.355297 
L 83.50655 81.904573 
L 83.553212 82.224449 
L 83.599875 82.052947 
L 83.739861 81.853899 
L 83.833185 82.239604 
L 83.92651 82.117428 
L 84.066496 81.688908 
L 84.113158 81.856066 
L 84.159821 81.802941 
L 84.206483 81.67338 
L 84.253145 81.810807 
L 84.299807 81.827388 
L 84.57978 81.225293 
L 84.673104 81.599606 
L 84.719766 81.524393 
L 84.859753 81.018794 
L 84.953077 81.063797 
L 85.139726 80.586491 
L 85.23305 80.666399 
L 85.326374 80.856255 
L 85.513023 80.57091 
L 85.606347 80.87919 
L 85.65301 80.843348 
L 85.746334 81.012533 
L 85.792996 80.903153 
L 85.932983 80.560641 
L 85.979645 80.601521 
L 86.212955 80.219845 
L 86.30628 80.257111 
L 86.446266 80.055106 
L 86.679577 80.014176 
L 86.866226 79.548579 
L 87.006212 79.576262 
L 87.052874 79.463432 
L 87.099536 79.518391 
L 87.239523 80.101985 
L 87.286185 80.090625 
L 87.379509 79.95818 
L 87.426172 79.902079 
L 87.61282 80.241095 
L 87.939455 79.820154 
L 88.172766 80.43603 
L 88.359415 80.197922 
L 88.452739 80.266373 
L 88.546063 80.651376 
L 88.592725 80.51841 
L 88.68605 80.456939 
L 88.826036 80.602386 
L 88.966023 80.581629 
L 89.012685 80.569863 
L 89.059347 80.69184 
L 89.106009 80.543786 
L 89.199334 80.545561 
L 89.245996 80.682422 
L 89.292658 80.556975 
L 89.525969 80.329648 
L 89.619293 80.407486 
L 89.665955 80.315 
L 89.805942 80.187226 
L 89.899266 80.299989 
L 89.99259 80.021411 
L 90.039252 80.139908 
L 90.085915 80.330377 
L 90.132577 80.213665 
L 90.225901 80.113813 
L 90.272563 80.137188 
L 90.552536 79.861397 
L 90.692523 80.100615 
L 90.832509 80.055631 
L 90.972495 80.213588 
L 91.019158 80.114406 
L 91.06582 80.224664 
L 91.112482 80.486555 
L 91.159144 80.382404 
L 91.485779 79.750098 
L 91.532441 79.855866 
L 91.579104 79.75191 
L 91.71909 79.464095 
L 91.812414 79.878083 
L 91.859076 79.74468 
L 91.952401 79.685087 
L 92.79232 79.090208 
L 92.932306 79.335541 
L 93.118955 79.241695 
L 93.352266 79.035342 
L 93.44559 78.964562 
L 93.492252 79.266685 
L 93.538914 79.187763 
L 93.725563 78.881708 
L 93.772225 79.062693 
L 93.818887 78.961848 
L 94.052198 78.737998 
L 94.145522 78.845664 
L 94.192184 78.784111 
L 94.425495 79.05827 
L 94.612144 78.964578 
L 94.658806 78.935709 
L 94.705468 79.0654 
L 94.75213 79.014827 
L 94.845455 78.849703 
L 94.985441 79.054807 
L 95.078765 79.046172 
L 95.265414 78.858474 
L 95.358738 78.941872 
L 95.4054 78.906387 
L 95.685373 78.441044 
L 95.732036 78.62866 
L 95.872022 78.656582 
L 96.105333 78.421519 
L 96.758603 78.039217 
L 96.851927 77.862982 
L 96.898589 77.909787 
L 96.991914 78.002036 
L 97.038576 77.935822 
L 97.411873 77.628158 
L 97.598522 78.207371 
L 97.645184 78.106779 
L 97.925157 77.756636 
L 97.971819 77.840254 
L 98.018481 77.758768 
L 98.298454 77.454284 
L 98.391778 77.419117 
L 98.671751 77.126894 
L 98.811738 77.269339 
L 98.8584 77.209726 
L 98.951724 77.073953 
L 98.998387 77.117063 
L 99.045049 77.155488 
L 99.091711 77.098789 
L 99.371684 76.738486 
L 99.791643 76.882584 
L 99.978292 76.722372 
L 100.024954 76.77886 
L 100.258265 76.577263 
L 100.304927 76.770019 
L 100.351589 76.749878 
L 100.631562 76.532319 
L 100.771549 76.497414 
L 100.911535 76.406751 
L 101.051521 76.715191 
L 101.144846 76.586823 
L 101.284832 76.413829 
L 101.331494 76.474713 
L 101.518143 76.77893 
L 101.704792 76.551148 
L 101.751454 76.692225 
L 101.89144 76.65528 
L 102.031427 76.57748 
L 102.078089 76.615869 
L 102.124751 76.5494 
L 102.218075 76.443101 
L 102.264738 76.544617 
L 102.498048 76.412092 
L 102.778021 76.233844 
L 102.824683 76.317029 
L 102.871346 76.24767 
L 102.96467 76.20461 
L 103.057994 76.071046 
L 103.104656 76.099226 
L 103.524616 76.550204 
L 103.61794 76.573253 
L 103.804589 76.457406 
L 103.897913 76.631417 
L 103.991237 76.558802 
L 104.737832 76.043406 
L 104.784494 76.124045 
L 104.831156 76.059171 
L 105.204453 75.757825 
L 105.34444 75.76503 
L 105.577751 75.611272 
L 105.951048 75.299278 
L 106.044372 75.365815 
L 106.091034 75.315728 
L 106.137697 75.372498 
L 106.231021 75.332024 
L 106.884291 74.779695 
L 106.977615 75.059013 
L 107.024278 75.03355 
L 107.537561 74.662838 
L 107.584223 74.718259 
L 107.630886 74.669551 
L 107.864196 74.518379 
L 108.190832 74.498337 
L 108.424142 74.324955 
L 108.517467 74.386092 
L 108.750777 74.167842 
L 108.844102 74.180159 
L 109.217399 73.905318 
L 109.45071 73.879595 
L 109.544034 73.855387 
L 109.684021 73.766892 
L 109.730683 73.887603 
L 109.824007 73.821752 
L 109.963994 73.745379 
L 110.523939 73.538063 
L 110.850574 73.627546 
L 111.083885 73.701616 
L 111.550507 73.616714 
L 111.737155 73.557168 
L 111.83048 73.611421 
L 111.970466 73.59175 
L 112.203777 73.574639 
L 113.463655 73.242592 
L 113.603642 73.451459 
L 114.070263 73.260231 
L 114.676871 73.224974 
L 114.816858 73.231554 
L 115.330142 73.232014 
L 115.470128 73.296511 
L 115.703439 73.317417 
L 115.983412 73.301051 
L 116.17006 73.281098 
L 117.429939 73.163954 
L 117.663249 73.253988 
L 118.129871 73.155214 
L 118.409844 73.145223 
L 118.54983 73.235684 
L 118.829803 73.16776 
L 118.96979 73.243801 
L 119.249763 73.273183 
L 119.436411 73.265951 
L 120.602965 73.082182 
L 122.749425 72.980718 
L 135.021572 72.918837 
L 135.721504 72.936203 
L 140.994328 73.046302 
L 141.507612 73.080988 
L 146.967084 73.183186 
L 147.433706 73.248113 
L 152.099922 73.356954 
L 154.66634 73.484603 
L 157.326083 73.58386 
L 157.746043 73.596801 
L 159.985826 73.698328 
L 160.405786 73.745725 
L 163.205515 73.855071 
L 163.952109 73.880891 
L 168.338352 73.984491 
L 168.851636 74.017567 
L 173.937811 74.1079 
L 174.217784 74.129359 
L 179.770581 74.230023 
L 180.377189 74.285743 
L 184.903418 74.360541 
L 185.090067 74.399071 
L 188.076445 74.504051 
L 188.40308 74.538259 
L 193.115958 74.641781 
L 193.582579 74.663136 
L 197.875498 74.761322 
L 198.202133 74.773734 
L 202.495051 74.85956 
L 202.821687 74.919218 
L 205.761402 75.023673 
L 206.088038 75.040697 
L 211.407523 75.134521 
L 211.640834 75.164282 
L 217.520266 75.2553 
L 217.846901 75.293518 
L 224.566252 75.398269 
L 224.846225 75.419477 
L 230.912305 75.509746 
L 231.23894 75.556342 
L 236.138467 75.646265 
L 236.371778 75.680109 
L 239.358156 75.766871 
L 239.591466 75.792229 
L 243.324439 75.900693 
L 243.55775 75.934464 
L 247.477371 76.032435 
L 247.710682 76.091453 
L 250.463749 76.17161 
L 250.69706 76.209506 
L 254.243384 76.305794 
L 254.616681 76.331025 
L 258.582964 76.428537 
L 259.096248 76.497172 
L 263.762464 76.578458 
L 263.995775 76.612004 
L 266.515531 76.697945 
L 266.748842 76.731456 
L 270.995098 76.833402 
L 271.555044 76.871048 
L 274.214787 76.970003 
L 274.728071 76.995069 
L 281.260773 77.098758 
L 281.63407 77.127968 
L 286.580259 77.225967 
L 286.766907 77.259312 
L 288.073448 77.270392 
L 290.733191 77.370347 
L 291.246475 77.399486 
L 293.859555 77.504846 
L 294.232853 77.529793 
L 298.619095 77.628624 
L 299.085717 77.641081 
L 304.171892 77.744596 
L 305.058473 77.790205 
L 308.278162 77.893602 
L 308.744784 77.914306 
L 310.004662 77.929349 
L 311.637837 78.03692 
L 312.151121 78.061731 
L 314.857526 78.160923 
L 315.324148 78.210489 
L 322.090161 78.31538 
L 322.323471 78.346237 
L 327.316322 78.451812 
L 327.736282 78.517704 
L 329.509444 78.564061 
L 332.822457 78.664738 
L 333.10243 78.701015 
L 335.248889 78.799407 
L 335.622186 78.81583 
L 338.888537 78.914105 
L 339.261834 78.959215 
L 343.27478 79.063607 
L 343.741402 79.075896 
L 346.634455 79.180175 
L 347.38105 79.200635 
L 349.574171 79.300443 
L 350.040793 79.309804 
L 353.400468 79.411932 
L 353.680441 79.432348 
L 355.17363 79.537434 
L 355.8269 79.594522 
L 358.673292 79.695359 
L 359.139913 79.707576 
L 362.592913 79.8087 
L 363.106197 79.837172 
L 368.565669 79.941859 
L 369.078953 79.968089 
L 374.771736 80.075542 
L 375.658317 80.124197 
L 380.04456 80.230282 
L 380.511181 80.246479 
L 382.284343 80.246479 
L 382.284343 80.246479 
" clip-path="url(#p5535fa7d71)" style="fill: none; stroke: #ff7f0e; stroke-width: 1.8; stroke-linecap: square"/>
   </g>
   <g id="line2d_31">
    <path d="M 71.327727 93.438891 
L 71.374389 99.52566 
L 71.561038 66.288699 
L 71.654362 87.6804 
L 71.701025 83.112536 
L 71.747687 82.226959 
L 71.794349 78.365557 
L 71.841011 82.607318 
L 71.887673 95.672024 
L 71.934335 90.999867 
L 71.980997 86.326554 
L 72.02766 87.930157 
L 72.074322 89.468878 
L 72.120984 89.453655 
L 72.26097 83.928884 
L 72.307633 84.28946 
L 72.354295 84.273742 
L 72.400957 88.476571 
L 72.447619 86.285162 
L 72.867578 77.821599 
L 73.054227 74.560767 
L 73.100889 75.188536 
L 73.287538 79.686993 
L 73.380862 78.522149 
L 73.520849 82.118471 
L 73.614173 79.932492 
L 73.660835 80.733903 
L 73.707497 81.853525 
L 73.754159 81.749511 
L 73.800822 80.884129 
L 73.847484 82.80446 
L 73.894146 81.640719 
L 73.98747 80.302502 
L 74.034132 82.094487 
L 74.080795 81.21853 
L 74.267443 79.600079 
L 74.360767 79.015069 
L 74.547416 77.177587 
L 74.594078 77.336971 
L 74.64074 77.412217 
L 74.687403 77.329662 
L 74.734065 77.248928 
L 74.780727 77.438188 
L 75.0607 75.607533 
L 75.107362 75.596197 
L 75.200686 74.936538 
L 75.433997 79.226378 
L 75.527321 79.446455 
L 75.620646 81.324557 
L 75.71397 81.121368 
L 75.807294 81.581379 
L 75.947281 80.879775 
L 75.993943 81.550003 
L 76.040605 80.969146 
L 76.273916 80.070508 
L 76.320578 80.036185 
L 76.460565 79.228381 
L 76.507227 79.24265 
L 76.693875 78.496308 
L 76.833862 78.864839 
L 76.880524 78.817666 
L 76.973848 80.201311 
L 77.02051 79.817465 
L 77.113835 80.125962 
L 77.160497 80.430446 
L 77.207159 80.255877 
L 77.487132 79.488927 
L 77.533794 79.88939 
L 77.580456 79.741674 
L 77.627119 79.577576 
L 77.720443 79.951562 
L 77.767105 79.692179 
L 77.813767 79.703001 
L 77.860429 80.147514 
L 77.907091 79.901852 
L 78.000416 79.765643 
L 78.09374 80.471124 
L 78.187064 82.165378 
L 78.233727 81.840789 
L 78.280389 81.963608 
L 78.327051 81.674739 
L 78.373713 82.041443 
L 78.420375 82.297139 
L 78.607024 81.295744 
L 78.653686 81.819042 
L 78.700348 81.552251 
L 78.74701 81.558197 
L 78.793672 81.738436 
L 78.840335 81.552736 
L 79.120308 80.855321 
L 79.16697 81.472603 
L 79.260294 81.267488 
L 79.40028 80.526874 
L 79.493605 81.725696 
L 79.586929 81.612054 
L 80.426848 79.165246 
L 80.520172 79.469442 
L 80.566834 79.329728 
L 80.613497 79.470397 
L 80.660159 79.264894 
L 80.706821 79.19931 
L 80.753483 79.366509 
L 80.800145 79.205425 
L 80.89347 78.826104 
L 80.986794 79.429479 
L 81.033456 79.264275 
L 81.12678 79.608652 
L 81.266767 79.08623 
L 81.54674 80.025332 
L 81.733388 79.249584 
L 81.780051 79.67845 
L 81.873375 79.575725 
L 82.060023 79.141996 
L 82.246672 78.901404 
L 82.293334 78.908399 
L 82.573307 78.32225 
L 82.619969 78.347721 
L 82.946604 77.960562 
L 83.179915 77.330314 
L 83.226577 77.387683 
L 83.319902 77.930326 
L 83.366564 77.767562 
L 83.599875 77.164764 
L 83.646537 77.287271 
L 83.786523 77.816749 
L 83.879848 78.269741 
L 83.92651 78.218642 
L 84.113158 77.783565 
L 84.159821 77.871736 
L 84.206483 77.711986 
L 84.253145 77.865067 
L 84.346469 78.292806 
L 84.393131 78.177135 
L 84.813091 77.831781 
L 84.859753 78.041345 
L 84.906415 77.96569 
L 85.419699 76.956567 
L 85.466361 76.967308 
L 85.513023 76.821394 
L 85.559685 76.927256 
L 85.792996 76.764448 
L 86.026307 76.348906 
L 86.072969 76.381436 
L 86.119631 76.284243 
L 86.212955 76.149243 
L 86.259618 76.233498 
L 86.30628 76.280603 
L 86.352942 76.51179 
L 86.399604 76.478789 
L 86.492928 76.317067 
L 86.539591 76.35053 
L 86.726239 76.756064 
L 86.772901 76.654907 
L 86.912888 76.97803 
L 87.006212 76.834048 
L 87.052874 76.881205 
L 87.099536 76.855919 
L 87.192861 77.099533 
L 87.286185 76.826317 
L 87.332847 77.021438 
L 87.426172 76.930657 
L 87.472834 76.98771 
L 87.519496 77.105618 
L 87.566158 76.963274 
L 87.61282 76.873409 
L 87.659482 77.076045 
L 87.706144 77.017833 
L 87.799469 76.831118 
L 87.846131 77.058146 
L 87.892793 76.95203 
L 88.079442 76.653068 
L 88.126104 76.933558 
L 88.219428 76.851752 
L 88.499401 76.832257 
L 88.639388 77.022449 
L 88.826036 76.899199 
L 88.872698 77.350709 
L 88.919361 77.268872 
L 89.245996 76.720575 
L 89.292658 76.936054 
L 89.33932 76.893433 
L 89.479306 76.627282 
L 89.572631 77.165274 
L 89.619293 77.078642 
L 89.899266 76.455747 
L 89.945928 76.675699 
L 89.99259 76.60574 
L 90.272563 76.203497 
L 90.319225 76.39384 
L 90.365887 76.287345 
L 90.505874 76.180117 
L 90.785847 76.062042 
L 90.832509 75.94224 
L 90.879171 75.982518 
L 91.06582 76.199021 
L 91.159144 76.087495 
L 91.299131 75.920678 
L 91.345793 75.964676 
L 91.532441 75.841723 
L 91.812414 75.630423 
L 91.859076 75.670347 
L 91.905739 75.587226 
L 91.999063 75.415173 
L 92.092387 75.511448 
L 92.139049 75.620909 
L 92.185712 75.527151 
L 92.512347 75.178347 
L 92.559009 75.268569 
L 92.605671 75.136042 
L 92.79232 75.010821 
L 92.838982 75.05933 
L 92.932306 75.419158 
L 92.978968 75.332621 
L 93.165617 75.091669 
L 93.258941 75.197371 
L 93.305603 75.111112 
L 94.09886 74.512145 
L 94.145522 74.653642 
L 94.238847 74.587245 
L 94.285509 74.515173 
L 94.332171 74.561703 
L 94.425495 74.911487 
L 94.472157 74.834872 
L 94.705468 74.789318 
L 94.845455 74.617546 
L 94.892117 74.972184 
L 94.985441 74.864818 
L 95.265414 74.564104 
L 95.452063 74.632992 
L 95.732036 74.314215 
L 95.778698 74.307939 
L 95.82536 74.507634 
L 95.872022 74.434585 
L 95.918684 74.350642 
L 95.965346 74.501643 
L 96.058671 74.439262 
L 96.291981 74.106111 
L 96.338644 74.181046 
L 96.385306 74.333885 
L 96.431968 74.275128 
L 96.665279 74.013619 
L 96.711941 74.245839 
L 96.758603 74.175699 
L 96.945252 73.921596 
L 96.991914 73.951449 
L 97.1319 74.027077 
L 97.365211 73.780073 
L 97.458535 73.934891 
L 97.55186 73.809703 
L 97.645184 73.737375 
L 97.78517 74.031847 
L 97.831833 73.975107 
L 98.111806 73.857842 
L 98.20513 74.077149 
L 98.298454 73.991719 
L 98.485103 73.998002 
L 98.531765 73.95534 
L 98.578427 74.041221 
L 98.718414 73.992095 
L 98.765076 73.922494 
L 98.811738 74.12857 
L 98.8584 74.081324 
L 99.091711 73.879305 
L 99.604995 73.608476 
L 99.791643 73.443847 
L 99.884968 73.425155 
L 99.978292 73.293941 
L 100.024954 73.336845 
L 100.211603 73.636632 
L 100.538238 73.36531 
L 100.864873 73.038934 
L 100.911535 73.128677 
L 100.958197 73.060183 
L 101.144846 72.936503 
L 101.378157 72.731097 
L 101.518143 72.667179 
L 101.704792 72.543953 
L 101.844778 72.556176 
L 102.171413 72.312036 
L 102.3114 72.349088 
L 102.54471 72.106261 
L 102.638035 72.251293 
L 102.684697 72.208698 
L 103.244643 71.963242 
L 103.384629 72.017718 
L 103.711264 72.195109 
L 103.851251 72.07862 
L 103.944575 72.287771 
L 103.991237 72.21969 
L 104.131224 72.304287 
L 104.177886 72.347142 
L 104.224548 72.286443 
L 104.597845 71.999479 
L 104.737832 72.106918 
L 104.924481 71.971985 
L 105.064467 72.055504 
L 105.251116 71.980343 
L 105.34444 71.983123 
L 105.437764 71.885092 
L 105.484426 71.931695 
L 105.764399 71.992097 
L 106.091034 71.789926 
L 106.277683 72.036133 
L 106.324345 71.989573 
L 106.510994 71.846165 
L 106.65098 72.040871 
L 106.837629 71.955079 
L 106.977615 71.981573 
L 107.397575 71.822763 
L 107.444237 71.867156 
L 107.490899 71.817556 
L 107.957521 71.427419 
L 108.097507 71.479382 
L 108.37748 71.333454 
L 109.404048 71.172526 
L 109.45071 71.257499 
L 109.497372 71.223519 
L 109.684021 71.192633 
L 110.057318 71.260295 
L 110.430615 71.089992 
L 110.570602 71.045446 
L 111.270534 70.648643 
L 111.457183 70.697856 
L 111.737155 70.588818 
L 111.970466 70.582479 
L 112.343764 70.552569 
L 112.437088 70.580297 
L 112.670399 70.512324 
L 112.810385 70.525104 
L 113.090358 70.410092 
L 113.230345 70.396605 
L 113.370331 70.351951 
L 114.070263 70.077551 
L 114.21025 70.0848 
L 114.630209 69.948433 
L 114.770196 69.953803 
L 115.330142 69.887556 
L 115.51679 69.851356 
L 115.656777 69.844722 
L 116.496696 69.617928 
L 117.476601 69.377541 
L 117.616587 69.397871 
L 118.176533 69.288398 
L 118.31652 69.320948 
L 119.296425 69.002997 
L 119.529736 69.051179 
L 119.949695 68.921152 
L 120.089682 68.977345 
L 120.27633 69.00073 
L 120.416317 69.023925 
L 120.742952 69.064354 
L 121.816181 68.787863 
L 121.956168 68.824155 
L 123.869316 68.575384 
L 124.709235 68.52719 
L 125.315843 68.477864 
L 131.055289 67.940132 
L 131.241937 67.97076 
L 132.548478 67.885949 
L 132.875113 67.910391 
L 134.928248 67.897346 
L 135.161558 67.91737 
L 136.374775 67.915103 
L 136.608085 67.927209 
L 141.600936 67.777597 
L 141.880909 67.787224 
L 144.214017 67.718716 
L 148.60026 67.663191 
L 149.113543 67.762995 
L 149.393516 67.801003 
L 150.000124 67.910115 
L 150.32676 67.927312 
L 152.28657 68.030951 
L 152.613205 68.049298 
L 153.593111 68.081229 
L 154.713002 68.197701 
L 155.459597 68.289238 
L 155.786232 68.341191 
L 158.072678 68.440837 
L 158.399313 68.459707 
L 159.705853 68.568152 
L 159.939164 68.596427 
L 162.272272 68.691113 
L 162.692231 68.780529 
L 165.771934 68.864274 
L 166.051907 68.91596 
L 166.518528 68.94884 
L 167.498433 69.03335 
L 167.731744 69.061507 
L 169.551568 69.165719 
L 170.064852 69.214217 
L 170.67146 69.29853 
L 170.904771 69.326623 
L 172.817919 69.419361 
L 173.144554 69.460217 
L 174.357771 69.558364 
L 174.964379 69.637761 
L 175.524324 69.731105 
L 175.757635 69.768423 
L 178.277392 69.86415 
L 178.697351 69.961338 
L 180.143878 70.061225 
L 180.470513 70.079831 
L 182.057027 70.172818 
L 182.383662 70.191407 
L 185.416702 70.299741 
L 185.650013 70.327593 
L 189.196337 70.423358 
L 189.616296 70.483625 
L 194.282512 70.587213 
L 194.88912 70.594574 
L 197.128903 70.693203 
L 197.362214 70.720951 
L 199.975295 70.832044 
L 200.628565 70.910548 
L 203.428295 71.006955 
L 203.708267 71.048589 
L 206.834632 71.153407 
L 207.161267 71.199452 
L 208.234497 71.29149 
L 208.51447 71.328286 
L 211.967469 71.436747 
L 212.294104 71.455122 
L 214.767199 71.556951 
L 215.047172 71.593647 
L 218.406847 71.701071 
L 218.873469 71.72856 
L 221.346563 71.829319 
L 221.626536 71.849593 
L 223.633009 71.945642 
L 223.959644 71.9685 
L 226.4794 72.05989 
L 226.852698 72.123824 
L 229.419116 72.231992 
L 229.699089 72.254793 
L 232.96544 72.355671 
L 233.292075 72.373892 
L 237.538332 72.472586 
L 238.004953 72.504431 
L 241.131318 72.610141 
L 241.457953 72.662663 
L 245.237587 72.760541 
L 245.93752 72.851263 
L 249.343857 72.942442 
L 249.62383 72.964944 
L 252.843519 73.059349 
L 253.07683 73.086499 
L 257.556397 73.196876 
L 258.163005 73.205916 
L 264.32241 73.314424 
L 265.022342 73.341505 
L 272.394963 73.444612 
L 273.048233 73.458133 
L 275.288017 73.560395 
L 275.614652 73.605417 
L 280.9808 73.714673 
L 281.400759 73.732655 
L 283.500556 73.833957 
L 283.780529 73.88335 
L 286.346948 73.99212 
L 286.720245 74.027994 
L 288.446745 74.126282 
L 288.726718 74.157634 
L 291.899745 74.264048 
L 292.599677 74.290888 
L 297.265893 74.382365 
L 297.499204 74.409173 
L 301.185514 74.512208 
L 301.418825 74.561295 
L 304.405203 74.669622 
L 304.638514 74.69636 
L 312.384432 74.805081 
L 312.757729 74.840674 
L 315.744107 74.939464 
L 316.164067 74.952796 
L 320.083688 75.048936 
L 320.456985 75.088882 
L 323.350039 75.181338 
L 323.630012 75.203508 
L 329.416119 75.313111 
L 329.836079 75.326397 
L 332.449159 75.427503 
L 332.775795 75.449625 
L 335.528862 75.555751 
L 336.042146 75.586688 
L 340.708361 75.688625 
L 340.941672 75.715108 
L 342.808158 75.739461 
L 343.788064 75.814444 
L 348.734252 75.924489 
L 349.480847 75.955308 
L 352.373901 76.066148 
L 353.027171 76.081723 
L 356.433508 76.188231 
L 356.713481 76.210184 
L 361.846319 76.310776 
L 362.126291 76.332696 
L 365.625953 76.436423 
L 366.139237 76.467151 
L 368.099048 76.57218 
L 368.379021 76.620289 
L 376.078277 76.723955 
L 376.498236 76.737052 
L 380.511181 76.83742 
L 380.837817 76.888307 
L 383.404235 76.986392 
L 383.684208 77.007442 
L 386.670586 77.114068 
L 387.230532 77.161906 
L 391.850086 77.266894 
L 392.690005 77.314662 
L 396.516301 77.425258 
L 397.169572 77.433931 
L 399.969301 77.455613 
L 399.969301 77.455613 
" clip-path="url(#p5535fa7d71)" style="fill: none; stroke: #2ca02c; stroke-width: 1.8; stroke-linecap: square"/>
   </g>
   <g id="line2d_32">
    <path d="M 71.327727 249.758182 
L 71.514376 98.776109 
L 71.561038 88.053395 
L 71.6077 88.936644 
L 71.654362 96.341022 
L 71.701025 91.568404 
L 71.747687 85.574179 
L 71.841011 86.755275 
L 71.887673 86.488315 
L 72.540943 64.94851 
L 72.820916 61.07619 
L 72.960903 66.517236 
L 73.007565 65.640617 
L 73.054227 64.84601 
L 73.100889 66.221995 
L 73.147551 65.42818 
L 73.240876 65.461995 
L 73.287538 64.650678 
L 73.427524 66.302756 
L 73.567511 64.541429 
L 73.800822 62.712213 
L 74.127457 59.414967 
L 74.174119 58.923918 
L 74.267443 62.992153 
L 74.314105 62.530074 
L 74.500754 61.098649 
L 74.547416 62.877713 
L 74.594078 62.487002 
L 74.687403 61.594276 
L 74.827389 62.984316 
L 75.900619 56.646038 
L 75.993943 56.259019 
L 76.040605 56.971582 
L 76.087267 56.796305 
L 76.180592 56.407642 
L 76.320578 57.437204 
L 76.36724 57.178788 
L 76.647213 56.124287 
L 76.693875 56.528365 
L 76.740538 56.356586 
L 76.7872 56.163776 
L 76.833862 57.023193 
L 76.880524 56.783068 
L 77.067173 55.963753 
L 77.113835 56.459256 
L 77.160497 56.283603 
L 77.253821 55.959619 
L 77.300483 56.143716 
L 77.44047 56.530562 
L 77.533794 56.263702 
L 77.813767 57.791867 
L 78.327051 56.146076 
L 78.560362 55.61917 
L 78.653686 55.314255 
L 78.700348 55.536709 
L 78.793672 55.339016 
L 78.840335 55.889984 
L 78.886997 55.761541 
L 79.120308 55.154873 
L 79.260294 56.217234 
L 79.306956 56.126209 
L 79.40028 55.851235 
L 79.446943 56.107806 
L 79.540267 56.003919 
L 79.913564 55.274497 
L 79.960226 55.550302 
L 80.006889 55.423144 
L 80.380186 54.614937 
L 80.426848 54.762688 
L 80.47351 55.3288 
L 80.566834 55.127281 
L 80.660159 54.93179 
L 80.706821 55.348608 
L 80.753483 55.253463 
L 81.033456 54.670335 
L 81.080118 54.978942 
L 81.12678 54.938435 
L 81.220105 54.700711 
L 81.266767 54.985131 
L 81.313429 54.9057 
L 81.453415 54.637891 
L 81.500078 54.983906 
L 81.54674 54.899603 
L 81.640064 54.703603 
L 81.686726 54.850578 
L 81.873375 54.559895 
L 81.920037 54.808944 
L 81.966699 54.7287 
L 82.106686 54.52482 
L 82.153348 55.17425 
L 82.246672 55.014655 
L 82.293334 54.91391 
L 82.339996 55.162373 
L 82.386659 55.085107 
L 82.526645 54.915458 
L 82.573307 55.171344 
L 82.619969 55.08617 
L 82.759956 54.839662 
L 82.806618 55.16335 
L 82.85328 55.090551 
L 82.993267 54.838608 
L 83.086591 55.938772 
L 83.133253 55.874026 
L 83.179915 55.98747 
L 83.226577 55.881753 
L 83.50655 55.557938 
L 83.646537 55.432515 
L 83.786523 55.781523 
L 83.833185 55.721926 
L 84.019834 55.584534 
L 84.159821 55.529684 
L 84.206483 55.705117 
L 84.253145 55.643592 
L 84.439793 55.343025 
L 84.533118 55.752047 
L 84.57978 55.681175 
L 84.766429 55.533389 
L 84.813091 55.504214 
L 84.859753 55.904472 
L 84.953077 55.829416 
L 84.999739 55.944955 
L 85.046402 56.508402 
L 85.139726 56.35901 
L 85.186388 56.282456 
L 85.279712 56.683997 
L 85.373037 56.577429 
L 85.419699 56.497227 
L 85.466361 56.676135 
L 85.513023 56.581592 
L 85.606347 56.444667 
L 85.65301 56.605312 
L 85.699672 56.545143 
L 85.88632 56.257128 
L 85.932983 56.402138 
L 85.979645 56.329875 
L 86.072969 56.160765 
L 86.166293 56.439766 
L 86.212955 56.347655 
L 86.259618 56.30438 
L 86.399604 57.034616 
L 86.446266 56.973853 
L 87.099536 56.287028 
L 87.332847 56.90997 
L 87.519496 56.692779 
L 87.566158 56.921848 
L 87.61282 56.865784 
L 87.659482 56.803071 
L 87.706144 56.931793 
L 87.752807 56.883087 
L 87.846131 56.757742 
L 87.892793 57.279977 
L 87.986117 57.170639 
L 88.03278 57.108337 
L 88.079442 57.392744 
L 88.126104 57.330104 
L 88.219428 57.203639 
L 88.359415 57.551355 
L 88.546063 57.337927 
L 88.732712 57.815231 
L 88.872698 57.629556 
L 89.106009 58.038816 
L 89.199334 57.956894 
L 89.292658 57.840129 
L 89.385982 58.126598 
L 89.432644 58.058733 
L 89.572631 57.843482 
L 89.712617 58.061708 
L 89.99259 57.856003 
L 90.132577 57.714344 
L 90.179239 57.85262 
L 90.225901 57.796924 
L 90.272563 57.751946 
L 90.319225 57.883428 
L 90.365887 57.811367 
L 90.552536 57.575588 
L 90.599198 57.714796 
L 90.64586 57.656665 
L 90.832509 57.600954 
L 91.345793 57.192925 
L 91.439117 57.742307 
L 91.485779 57.685501 
L 91.71909 57.409699 
L 91.765752 57.549239 
L 91.812414 57.498696 
L 92.092387 57.145019 
L 92.139049 57.304922 
L 92.185712 57.242182 
L 92.465685 56.933082 
L 92.559009 57.363053 
L 92.605671 57.311485 
L 92.885644 57.090892 
L 92.932306 57.156488 
L 92.978968 57.096735 
L 93.305603 56.869067 
L 93.398928 57.015854 
L 93.44559 56.982512 
L 93.725563 56.764013 
L 93.772225 56.843417 
L 94.472157 56.440356 
L 94.565482 56.907913 
L 94.612144 56.855558 
L 94.658806 56.801866 
L 94.705468 56.933861 
L 94.75213 56.886637 
L 94.798792 56.836448 
L 94.938779 57.073086 
L 94.985441 57.014921 
L 95.032103 57.138151 
L 95.078765 57.105512 
L 95.638711 56.640727 
L 95.82536 56.757819 
L 96.012008 56.687941 
L 96.198657 56.752051 
L 96.47863 56.563557 
L 96.618617 56.574662 
L 97.55186 55.954988 
L 97.78517 56.539915 
L 97.831833 56.61516 
L 97.878495 56.576924 
L 98.251792 56.322006 
L 98.298454 56.449875 
L 98.391778 56.384176 
L 98.671751 56.250455 
L 99.138373 55.962486 
L 99.185035 56.115715 
L 99.231697 56.074432 
L 99.278359 56.032678 
L 99.325022 56.144848 
L 99.371684 56.101185 
L 100.491576 55.561519 
L 100.678224 55.709663 
L 101.098184 55.574843 
L 101.144846 55.743957 
L 101.23817 55.674863 
L 101.518143 55.602064 
L 101.564805 55.745109 
L 101.611467 55.710702 
L 101.65813 55.668296 
L 101.704792 55.785947 
L 101.751454 55.747588 
L 101.798116 55.719206 
L 101.844778 55.841498 
L 101.938102 55.777233 
L 102.358062 55.65474 
L 102.54471 55.970992 
L 102.591373 55.936126 
L 102.918008 55.78304 
L 103.197981 56.116146 
L 103.664602 55.842056 
L 103.804589 55.974739 
L 103.851251 55.93413 
L 103.991237 55.978857 
L 104.177886 56.074014 
L 104.551183 55.829162 
L 104.877818 56.076003 
L 105.391102 55.875083 
L 105.531089 55.949619 
L 105.717737 55.852373 
L 105.764399 56.003045 
L 105.857724 55.958369 
L 105.99771 56.10608 
L 106.231021 56.075045 
L 106.277683 56.249466 
L 106.371007 56.218262 
L 106.557656 56.205133 
L 106.837629 56.369379 
L 107.864196 56.308225 
L 108.004183 56.314244 
L 108.237494 56.302385 
L 108.37748 56.380207 
L 108.704115 56.24937 
L 108.937426 56.548186 
L 109.217399 56.54644 
L 109.497372 56.760397 
L 109.684021 56.788501 
L 109.870669 56.87282 
L 110.057318 56.883607 
L 110.243966 57.006001 
L 110.337291 57.104448 
L 110.383953 57.084502 
L 110.617264 57.201451 
L 110.663926 57.183512 
L 110.850574 57.355867 
L 111.083885 57.562271 
L 111.457183 57.565572 
L 111.550507 57.705541 
L 111.597169 57.685442 
L 112.063791 57.686776 
L 112.48375 57.882711 
L 114.070263 57.636191 
L 114.303574 57.70977 
L 114.396898 57.792348 
L 114.583547 57.843118 
L 114.816858 57.893132 
L 114.956844 57.967703 
L 115.470128 57.843013 
L 115.610115 57.857101 
L 115.890087 57.883403 
L 116.030074 57.928323 
L 116.543358 57.819172 
L 116.823331 57.855156 
L 117.24329 57.82388 
L 117.383277 57.850703 
L 117.663249 57.890224 
L 117.89656 57.918904 
L 118.129871 57.939944 
L 118.269858 57.956425 
L 118.456506 57.998002 
L 118.596493 58.085385 
L 118.829803 58.142896 
L 119.576398 58.200394 
L 119.669722 58.231077 
L 119.903033 58.362662 
L 120.136344 58.404901 
L 120.27633 58.504442 
L 120.649628 58.512797 
L 121.162911 58.608682 
L 121.722857 58.644916 
L 122.049492 58.68224 
L 122.609438 58.687039 
L 122.982735 58.882327 
L 123.356033 58.907349 
L 123.542681 58.988852 
L 124.055965 58.994692 
L 124.289276 59.06328 
L 124.522587 59.059305 
L 124.662573 59.156009 
L 124.849222 59.177491 
L 125.129195 59.18465 
L 125.829127 59.197136 
L 126.062438 59.27255 
L 126.389073 59.297867 
L 126.669046 59.364927 
L 126.949019 59.405709 
L 127.135667 59.473176 
L 127.368978 59.473135 
L 127.555627 59.485308 
L 127.742275 59.531968 
L 127.882262 59.563923 
L 128.255559 59.581103 
L 128.442208 59.583536 
L 128.955492 59.642308 
L 129.468775 59.801588 
L 131.568572 59.704547 
L 131.708559 59.815041 
L 132.548478 59.822848 
L 132.735126 59.839416 
L 134.041667 59.948402 
L 134.274977 60.012049 
L 134.461626 60.070591 
L 134.601613 60.10022 
L 135.114896 60.161937 
L 135.254883 60.216516 
L 135.674842 60.239724 
L 135.908153 60.356834 
L 136.234788 60.385051 
L 136.70141 60.412603 
L 137.261356 60.532203 
L 137.681315 60.569532 
L 137.867964 60.581768 
L 138.614558 60.590288 
L 138.847869 60.711456 
L 139.454477 60.741289 
L 139.73445 60.728906 
L 140.527707 60.721106 
L 140.947666 60.73507 
L 141.180977 60.820708 
L 141.554274 60.924627 
L 141.880909 60.953501 
L 142.11422 61.01814 
L 142.627504 61.103766 
L 142.860814 61.108651 
L 143.280774 61.161553 
L 143.560747 61.245315 
L 143.794058 61.278069 
L 144.027368 61.439656 
L 144.400666 61.468341 
L 144.633976 61.532493 
L 145.007274 61.583307 
L 145.14726 61.635024 
L 145.520557 61.663283 
L 146.500463 61.697048 
L 146.640449 61.768306 
L 147.620354 62.025146 
L 148.273625 62.108286 
L 148.506935 62.112479 
L 149.393516 62.19935 
L 149.580165 62.222719 
L 150.046787 62.246433 
L 150.373422 62.292573 
L 150.840043 62.370998 
L 151.446651 62.50899 
L 152.613205 62.531067 
L 152.986503 62.659905 
L 153.966408 62.746652 
L 154.153056 62.82408 
L 154.433029 62.89788 
L 154.759665 63.035577 
L 155.226286 63.108322 
L 155.692908 63.217396 
L 156.206191 63.254161 
L 156.532826 63.296867 
L 157.232759 63.368461 
L 157.512732 63.398063 
L 158.072678 63.455048 
L 158.492637 63.521503 
L 158.725948 63.563561 
L 159.005921 63.632952 
L 159.192569 63.706709 
L 160.312461 63.80912 
L 163.672137 64.337104 
L 164.232082 64.44347 
L 165.211988 64.619769 
L 166.005244 64.673317 
L 166.238555 64.690307 
L 167.125136 64.767791 
L 167.358447 64.789534 
L 168.385014 64.842119 
L 168.618325 64.862844 
L 169.411582 64.943259 
L 169.878203 65.078982 
L 170.298163 65.149093 
L 170.67146 65.182654 
L 171.931338 65.272528 
L 172.491284 65.430594 
L 173.517852 65.533403 
L 174.357771 65.735511 
L 175.057703 65.840469 
L 175.337676 65.890014 
L 175.804297 65.990523 
L 176.037608 66.01626 
L 176.737541 66.11893 
L 177.670784 66.2736 
L 178.650689 66.359861 
L 178.884 66.3855 
L 179.863905 66.477889 
L 180.143878 66.535095 
L 180.84381 66.627277 
L 181.217108 66.689653 
L 181.637067 66.791823 
L 182.010364 66.849341 
L 183.503553 66.950958 
L 183.970175 67.014278 
L 185.276715 67.120079 
L 185.60335 67.15617 
L 186.723242 67.247627 
L 187.049877 67.261977 
L 188.169769 67.329341 
L 188.776377 67.441898 
L 190.269566 67.539336 
L 190.642863 67.570015 
L 192.789323 67.669898 
L 193.209282 67.709403 
L 193.862552 67.806142 
L 194.23585 67.839242 
L 195.449066 67.937367 
L 195.915687 67.993995 
L 197.128903 68.097719 
L 197.642187 68.167834 
L 198.762079 68.275574 
L 199.2287 68.371737 
L 234.365305 68.458871 
L 234.645278 68.483924 
L 243.277777 68.591618 
L 243.837723 68.633307 
L 247.943993 68.650411 
L 258.069681 68.752709 
L 258.349654 68.773519 
L 264.929018 68.881941 
L 265.395639 68.894411 
L 273.888152 69.002281 
L 274.168125 69.023041 
L 283.033935 69.118724 
L 283.500556 69.168462 
L 288.166772 69.277051 
L 288.540069 69.301888 
L 294.979447 69.409156 
L 295.352744 69.424601 
L 298.432447 69.53037 
L 298.992393 69.575781 
L 300.43892 69.673162 
L 300.905541 69.722641 
L 302.678703 69.831703 
L 303.098663 69.863549 
L 307.998189 69.960935 
L 308.371486 69.987521 
L 313.690972 70.094638 
L 315.510796 70.143928 
L 319.617066 70.243227 
L 320.083688 70.259638 
L 325.076539 70.369654 
L 325.589822 70.390141 
L 328.949498 70.493272 
L 329.322795 70.517829 
L 334.688943 70.626551 
L 335.06224 70.642898 
L 339.261834 70.738132 
L 339.681794 70.769669 
L 345.887861 70.87603 
L 346.447807 70.911595 
L 351.347333 71.021959 
L 351.72063 71.038242 
L 357.133441 71.141301 
L 357.973359 71.176758 
L 364.926021 71.283707 
L 365.392642 71.295888 
L 369.732223 71.397492 
L 370.152183 71.42588 
L 372.018669 71.529549 
L 372.578615 71.570056 
L 380.604506 71.680641 
L 381.071127 71.689336 
L 385.45737 71.799657 
L 387.043883 71.82563 
L 391.150153 71.928853 
L 391.803424 71.936921 
L 396.469639 72.037127 
L 396.936261 72.049215 
L 403.468963 72.154481 
L 403.982247 72.180918 
L 407.108611 72.280322 
L 407.575233 72.296405 
L 409.581705 72.400251 
L 410.188313 72.444425 
L 414.061273 72.545191 
L 414.43457 72.560649 
L 420.360664 72.661269 
L 420.687299 72.681298 
L 434.079338 72.787314 
L 434.592622 72.807314 
L 440.798689 72.916311 
L 441.68527 72.960258 
L 448.684593 73.012038 
L 448.684593 73.012038 
" clip-path="url(#p5535fa7d71)" style="fill: none; stroke: #d62728; stroke-width: 1.8; stroke-linecap: square"/>
   </g>
   <g id="line2d_33">
    <path d="M 71.327727 36.121818 
L 71.561038 115.930401 
L 71.654362 93.308921 
L 71.701025 105.199167 
L 71.794349 98.961134 
L 71.841011 101.98847 
L 71.934335 93.287459 
L 71.980997 95.827103 
L 72.02766 95.744751 
L 72.307633 80.320382 
L 72.587606 74.557095 
L 72.867578 68.031219 
L 73.3342 61.266928 
L 73.800822 56.192875 
L 73.847484 56.694426 
L 73.894146 56.279199 
L 74.127457 54.411117 
L 74.174119 55.103042 
L 74.220781 54.828835 
L 74.454092 53.507902 
L 74.500754 53.547888 
L 75.760632 48.38716 
L 75.993943 47.762888 
L 76.740538 46.118982 
L 76.7872 46.026018 
L 76.833862 46.524477 
L 76.927186 46.340421 
L 77.580456 45.15891 
L 77.953754 44.642883 
L 78.000416 44.830479 
L 78.047078 44.757159 
L 78.74701 43.919279 
L 79.353618 43.353585 
L 80.706821 42.287382 
L 81.826713 41.659306 
L 82.899942 41.123821 
L 83.92651 40.733771 
L 85.839658 40.102577 
L 88.592725 39.472973 
L 92.185712 38.888499 
L 95.778698 38.477623 
L 109.03075 37.659257 
L 115.703439 37.517818 
L 119.203101 37.608257 
L 119.576398 37.623553 
L 121.769519 37.715297 
L 122.00283 37.740771 
L 125.409168 37.842498 
L 125.689141 37.913745 
L 127.135667 38.01038 
L 127.368978 38.040882 
L 129.888735 38.132172 
L 130.122045 38.162646 
L 130.681991 38.172326 
L 132.875113 38.278594 
L 133.155086 38.298726 
L 135.301545 38.404614 
L 135.488194 38.445138 
L 136.70141 38.530656 
L 136.93472 38.561016 
L 139.08118 38.661989 
L 139.454477 38.71189 
L 142.814152 38.822473 
L 143.047463 38.883031 
L 144.260679 38.953347 
L 144.447328 39.003762 
L 144.727301 39.044081 
L 145.240584 39.149863 
L 145.56722 39.245503 
L 147.713679 39.350161 
L 148.040314 39.370267 
L 150.466746 39.450483 
L 150.653395 39.490661 
L 153.919746 39.590563 
L 154.153056 39.625679 
L 156.999448 39.725963 
L 157.46607 39.760724 
L 159.285894 39.84588 
L 159.519205 39.920976 
L 161.245704 40.005831 
L 161.479015 40.065491 
L 162.925542 40.159445 
L 163.392164 40.239337 
L 165.585285 40.344126 
L 165.865258 40.383725 
L 166.56519 40.457658 
L 166.798501 40.537048 
L 167.63842 40.636606 
L 167.871731 40.666459 
L 171.09142 40.769913 
L 171.418055 40.789793 
L 173.984473 40.882758 
L 174.311108 40.902616 
L 177.1575 41.010064 
L 177.390811 41.039812 
L 178.930662 41.089379 
L 179.070648 41.153789 
L 180.237202 41.252283 
L 180.703824 41.291874 
L 182.383662 41.399392 
L 182.663635 41.453756 
L 183.316905 41.552545 
L 183.503553 41.63114 
L 183.970175 41.70514 
L 184.203486 41.779101 
L 184.856756 41.843169 
L 185.043405 41.897357 
L 186.396607 42.005465 
L 186.629918 42.03991 
L 188.636391 42.122791 
L 188.869701 42.157097 
L 190.12958 42.255046 
L 190.596201 42.29827 
L 192.742661 42.390419 
L 193.16262 42.454172 
L 195.169093 42.564753 
L 195.449066 42.632959 
L 196.708944 42.720346 
L 196.942255 42.80836 
L 197.455538 42.900493 
L 197.828836 42.939563 
L 198.342119 43.037189 
L 198.762079 43.105487 
L 199.135376 43.154251 
L 199.275363 43.222491 
L 200.208606 43.290699 
L 200.395254 43.368483 
L 201.981768 43.474385 
L 202.355065 43.488974 
L 202.821687 43.59106 
L 203.848254 43.697926 
L 204.874821 43.804711 
L 205.481429 43.955042 
L 206.741308 44.0471 
L 207.067943 44.066473 
L 209.447713 44.165062 
L 209.727686 44.208594 
L 211.407523 44.310682 
L 211.734159 44.33369 
L 212.807388 44.429072 
L 213.180685 44.50142 
L 214.020604 44.602203 
L 214.347239 44.669641 
L 216.30705 44.772703 
L 216.680347 44.810732 
L 217.240293 44.916034 
L 217.520266 44.992129 
L 219.433415 45.095408 
L 219.853374 45.157758 
L 222.233144 45.261474 
L 222.79309 45.271055 
L 223.586347 45.340662 
L 223.819657 45.412443 
L 225.126198 45.515225 
L 225.312846 45.553454 
L 226.619387 45.661496 
L 226.946022 45.680589 
L 229.092481 45.783052 
L 229.325792 45.811657 
L 229.979062 45.906962 
L 230.445684 45.991832 
L 232.078859 46.096347 
L 232.452156 46.13915 
L 235.065237 46.241115 
L 235.391872 46.282988 
L 236.791737 46.37318 
L 237.025048 46.410785 
L 238.471575 46.482399 
L 238.704885 46.534523 
L 240.291399 46.609046 
L 240.478047 46.646917 
L 242.297872 46.744822 
L 242.717831 46.834647 
L 243.371101 46.919691 
L 245.51756 47.030574 
L 245.844196 47.049446 
L 247.24406 47.142258 
L 247.617358 47.244592 
L 249.017222 47.347591 
L 249.483844 47.380529 
L 250.417087 47.487727 
L 250.837046 47.511034 
L 254.010073 47.608509 
L 254.290046 47.631978 
L 255.596586 47.739087 
L 256.063208 47.76722 
L 257.323086 47.844899 
L 257.556397 47.873005 
L 259.936167 47.966045 
L 260.21614 47.989445 
L 262.549248 48.09032 
L 263.155856 48.168753 
L 264.742369 48.2739 
L 265.069004 48.315488 
L 266.04891 48.358606 
L 266.328883 48.395907 
L 268.00872 48.495701 
L 268.568666 48.549682 
L 269.595234 48.646127 
L 269.921869 48.674032 
L 271.181747 48.780303 
L 271.46172 48.803533 
L 272.161652 48.914333 
L 275.288017 49.114892 
L 277.154503 49.220535 
L 277.341152 49.271229 
L 277.994422 49.381579 
L 278.414381 49.394327 
L 278.834341 49.484723 
L 280.560841 49.546654 
L 282.194016 49.643101 
L 282.520651 49.698443 
L 283.407232 49.789937 
L 283.780529 49.859032 
L 284.947083 49.958674 
L 285.180394 50.018477 
L 287.04688 50.122803 
L 287.420178 50.214676 
L 289.84661 50.31036 
L 290.079921 50.337889 
L 292.133056 50.447469 
L 292.832988 50.539085 
L 294.652812 50.612035 
L 296.146001 50.696731 
L 296.379312 50.751579 
L 297.545866 50.859724 
L 297.872501 50.905373 
L 299.459014 51.000186 
L 299.645663 51.041226 
L 301.185514 51.146047 
L 301.605473 51.200705 
L 304.638514 51.306135 
L 304.918487 51.337975 
L 306.318351 51.44254 
L 306.644986 51.460717 
L 309.678027 51.565332 
L 309.958 51.588025 
L 312.011135 51.68898 
L 312.197783 51.747908 
L 313.364337 51.838516 
L 313.597648 51.864897 
L 314.810864 51.964472 
L 314.997513 52.000662 
L 317.237296 52.107842 
L 317.657256 52.120864 
L 318.730485 52.219701 
L 318.963796 52.246789 
L 320.690296 52.347059 
L 321.016931 52.365097 
L 322.790093 52.443791 
L 322.976742 52.493348 
L 324.983214 52.597947 
L 325.169863 52.642925 
L 326.429741 52.743893 
L 327.222998 52.868209 
L 328.762849 52.955684 
L 328.949498 52.990426 
L 329.696092 53.095981 
L 330.256038 53.193045 
L 332.869119 53.302864 
L 333.195754 53.320744 
L 334.922254 53.407527 
L 335.155565 53.438786 
L 336.13547 53.491636 
L 336.322119 53.549628 
L 336.648754 53.583567 
L 338.001956 53.687998 
L 338.188605 53.728732 
L 339.121848 53.815959 
L 339.308497 53.869316 
L 339.495145 53.927095 
L 340.755023 54.026005 
L 341.174983 54.07483 
L 341.96824 54.176862 
L 342.341537 54.212333 
L 343.881388 54.320417 
L 344.208023 54.373555 
L 346.447807 54.479347 
L 346.72778 54.501458 
L 348.080982 54.593067 
L 348.360955 54.690238 
L 348.874239 54.739838 
L 349.060887 54.783959 
L 351.020698 54.885466 
L 351.207347 54.960363 
L 353.400468 55.051579 
L 353.773765 55.158746 
L 355.873562 55.25105 
L 356.153535 55.286197 
L 357.460076 55.339818 
L 357.833373 55.405654 
L 360.913075 55.496365 
L 361.23971 55.556113 
L 362.266278 55.644545 
L 362.499589 55.670801 
L 363.619481 55.765098 
L 363.992778 55.830662 
L 366.045913 55.935498 
L 366.279223 55.961694 
L 368.612331 56.066873 
L 368.845642 56.097398 
L 370.292169 56.203733 
L 370.805453 56.234222 
L 371.785358 56.333692 
L 372.065331 56.372852 
L 374.818398 56.479626 
L 375.005047 56.514377 
L 377.291493 56.610228 
L 377.571466 56.631923 
L 382.610979 56.723003 
L 382.797627 56.766352 
L 384.15083 56.862624 
L 384.570789 56.909838 
L 386.250627 57.017211 
L 387.137208 57.161036 
L 389.143681 57.262407 
L 389.470316 57.301219 
L 390.776856 57.402242 
L 391.103491 57.479069 
L 393.996545 57.573751 
L 394.649815 57.707053 
L 397.122909 57.809535 
L 397.542869 57.885385 
L 398.849409 57.994773 
L 400.202612 58.131166 
L 401.275841 58.233899 
L 401.555814 58.310897 
L 403.235652 58.4156 
L 403.655611 58.492484 
L 404.215557 58.590659 
L 404.448868 58.616258 
L 405.708746 58.712038 
L 406.128706 58.758908 
L 406.8753 58.8639 
L 407.528571 58.870211 
L 410.3283 58.976761 
L 410.608273 58.998017 
L 414.107935 59.097016 
L 414.43457 59.139463 
L 416.301056 59.232202 
L 416.487705 59.274596 
L 417.934232 59.345512 
L 418.12088 59.392102 
L 419.19411 59.487209 
L 419.474083 59.508363 
L 420.873948 59.618384 
L 421.433893 59.706724 
L 422.367137 59.806559 
L 422.647109 59.823849 
L 425.633488 59.922407 
L 425.820136 59.960305 
L 427.63996 60.06093 
L 428.339893 60.140838 
L 429.599771 60.237846 
L 429.973068 60.263047 
L 431.699568 60.365672 
L 432.072865 60.411821 
L 432.866122 60.510113 
L 433.332744 60.614846 
L 436.132473 60.710598 
L 436.319122 60.760793 
L 437.205703 60.806875 
L 437.532338 60.886254 
L 441.965243 60.967805 
L 442.151891 61.009519 
L 443.458432 61.109578 
L 443.64508 61.151247 
L 447.004756 61.257684 
L 447.378053 61.320095 
L 450.691066 61.421626 
L 450.971039 61.478961 
L 452.277579 61.569058 
L 452.464228 61.635422 
L 454.564025 61.740978 
L 455.030647 61.790658 
L 456.710484 61.899915 
L 457.130444 62.102386 
L 457.410417 62.127156 
L 459.416889 62.224539 
L 459.603538 62.264538 
L 460.630106 62.339951 
L 460.816754 62.381147 
L 463.569821 62.467516 
L 463.803132 62.500431 
L 465.06301 62.590903 
L 465.342983 62.61431 
L 465.996254 62.682483 
L 466.229564 62.781027 
L 468.422686 62.884742 
L 468.655997 62.915852 
L 469.682564 63.018296 
L 470.662469 63.166782 
L 470.989104 63.273104 
L 471.269077 63.346661 
L 472.435631 63.435216 
L 472.62228 63.471952 
L 476.868536 63.578964 
L 477.195171 63.600385 
L 479.10832 63.710321 
L 479.294968 63.755083 
L 482.421333 63.865903 
L 482.887955 63.914668 
L 485.547698 64.012944 
L 485.781008 64.038721 
L 486.9009 64.1424 
L 487.134211 64.191032 
L 488.674062 64.286993 
L 489.000697 64.384108 
L 490.58721 64.447038 
L 490.773859 64.497362 
L 493.573589 64.593442 
L 493.853562 64.613626 
L 496.000021 64.692555 
L 496.233332 64.724815 
L 498.14648 64.830493 
L 498.893074 64.916835 
L 500.106291 65.020055 
L 500.292939 65.06026 
L 502.766034 65.165972 
L 503.139331 65.188703 
L 504.492533 65.289028 
L 504.819168 65.373241 
L 507.01229 65.48361 
L 507.525574 65.511642 
L 508.505479 65.607909 
L 508.878776 65.655901 
L 509.532046 65.658112 
L 510.885249 65.777948 
L 512.751735 65.86605 
L 513.031708 65.889985 
L 515.364816 65.978909 
L 515.551465 66.022742 
L 516.718019 66.093302 
L 516.904667 66.149026 
L 517.464613 66.224613 
L 519.657734 66.332873 
L 520.171018 66.350862 
L 523.67068 66.458477 
L 523.950653 66.498146 
L 529.270139 66.547341 
L 529.270139 66.547341 
" clip-path="url(#p5535fa7d71)" style="fill: none; stroke: #9467bd; stroke-width: 1.8; stroke-linecap: square"/>
   </g>
   <g id="patch_3">
    <path d="M 47.81 260.44 
L 47.81 25.44 
" style="fill: none; stroke: #000000; stroke-width: 0.8; stroke-linejoin: miter; stroke-linecap: square"/>
   </g>
   <g id="patch_4">
    <path d="M 565.2 260.44 
L 565.2 25.44 
" style="fill: none; stroke: #000000; stroke-width: 0.8; stroke-linejoin: miter; stroke-linecap: square"/>
   </g>
   <g id="patch_5">
    <path d="M 47.81 260.44 
L 565.2 260.44 
" style="fill: none; stroke: #000000; stroke-width: 0.8; stroke-linejoin: miter; stroke-linecap: square"/>
   </g>
   <g id="patch_6">
    <path d="M 47.81 25.44 
L 565.2 25.44 
" style="fill: none; stroke: #000000; stroke-width: 0.8; stroke-linejoin: miter; stroke-linecap: square"/>
   </g>
   <g id="text_17">
    <!-- Timely Transfer Rate (Cumulative) -->
    <g transform="translate(204.082187 19.44) scale(0.12 -0.12)">
     <defs>
      <path id="DejaVuSans-54" d="M -19 4666 
L 3928 4666 
L 3928 4134 
L 2272 4134 
L 2272 0 
L 1638 0 
L 1638 4134 
L -19 4134 
L -19 4666 
z
" transform="scale(0.015625)"/>
      <path id="DejaVuSans-52" d="M 2841 2188 
Q 3044 2119 3236 1894 
Q 3428 1669 3622 1275 
L 4263 0 
L 3584 0 
L 2988 1197 
Q 2756 1666 2539 1819 
Q 2322 1972 1947 1972 
L 1259 1972 
L 1259 0 
L 628 0 
L 628 4666 
L 2053 4666 
Q 2853 4666 3247 4331 
Q 3641 3997 3641 3322 
Q 3641 2881 3436 2590 
Q 3231 2300 2841 2188 
z
M 1259 4147 
L 1259 2491 
L 2053 2491 
Q 2509 2491 2742 2702 
Q 2975 2913 2975 3322 
Q 2975 3731 2742 3939 
Q 2509 4147 2053 4147 
L 1259 4147 
z
" transform="scale(0.015625)"/>
      <path id="DejaVuSans-28" d="M 1984 4856 
Q 1566 4138 1362 3434 
Q 1159 2731 1159 2009 
Q 1159 1288 1364 580 
Q 1569 -128 1984 -844 
L 1484 -844 
Q 1016 -109 783 600 
Q 550 1309 550 2009 
Q 550 2706 781 3412 
Q 1013 4119 1484 4856 
L 1984 4856 
z
" transform="scale(0.015625)"/>
      <path id="DejaVuSans-43" d="M 4122 4306 
L 4122 3641 
Q 3803 3938 3442 4084 
Q 3081 4231 2675 4231 
Q 1875 4231 1450 3742 
Q 1025 3253 1025 2328 
Q 1025 1406 1450 917 
Q 1875 428 2675 428 
Q 3081 428 3442 575 
Q 3803 722 4122 1019 
L 4122 359 
Q 3791 134 3420 21 
Q 3050 -91 2638 -91 
Q 1578 -91 968 557 
Q 359 1206 359 2328 
Q 359 3453 968 4101 
Q 1578 4750 2638 4750 
Q 3056 4750 3426 4639 
Q 3797 4528 4122 4306 
z
" transform="scale(0.015625)"/>
      <path id="DejaVuSans-29" d="M 513 4856 
L 1013 4856 
Q 1481 4119 1714 3412 
Q 1947 2706 1947 2009 
Q 1947 1309 1714 600 
Q 1481 -109 1013 -844 
L 513 -844 
Q 928 -128 1133 580 
Q 1338 1288 1338 2009 
Q 1338 2731 1133 3434 
Q 928 4138 513 4856 
z
" transform="scale(0.015625)"/>
     </defs>
     <use xlink:href="#DejaVuSans-54"/>
     <use xlink:href="#DejaVuSans-69" x="57.958984"/>
     <use xlink:href="#DejaVuSans-6d" x="85.742188"/>
     <use xlink:href="#DejaVuSans-65" x="183.154297"/>
     <use xlink:href="#DejaVuSans-6c" x="244.677734"/>
     <use xlink:href="#DejaVuSans-79" x="272.460938"/>
     <use xlink:href="#DejaVuSans-20" x="331.640625"/>
     <use xlink:href="#DejaVuSans-54" x="363.427734"/>
     <use xlink:href="#DejaVuSans-72" x="409.761719"/>
     <use xlink:href="#DejaVuSans-61" x="450.875"/>
     <use xlink:href="#DejaVuSans-6e" x="512.154297"/>
     <use xlink:href="#DejaVuSans-73" x="575.533203"/>
     <use xlink:href="#DejaVuSans-66" x="627.632812"/>
     <use xlink:href="#DejaVuSans-65" x="662.837891"/>
     <use xlink:href="#DejaVuSans-72" x="724.361328"/>
     <use xlink:href="#DejaVuSans-20" x="765.474609"/>
     <use xlink:href="#DejaVuSans-52" x="797.261719"/>
     <use xlink:href="#DejaVuSans-61" x="864.494141"/>
     <use xlink:href="#DejaVuSans-74" x="925.773438"/>
     <use xlink:href="#DejaVuSans-65" x="964.982422"/>
     <use xlink:href="#DejaVuSans-20" x="1026.505859"/>
     <use xlink:href="#DejaVuSans-28" x="1058.292969"/>
     <use xlink:href="#DejaVuSans-43" x="1097.306641"/>
     <use xlink:href="#DejaVuSans-75" x="1167.130859"/>
     <use xlink:href="#DejaVuSans-6d" x="1230.509766"/>
     <use xlink:href="#DejaVuSans-75" x="1327.921875"/>
     <use xlink:href="#DejaVuSans-6c" x="1391.300781"/>
     <use xlink:href="#DejaVuSans-61" x="1419.083984"/>
     <use xlink:href="#DejaVuSans-74" x="1480.363281"/>
     <use xlink:href="#DejaVuSans-69" x="1519.572266"/>
     <use xlink:href="#DejaVuSans-76" x="1547.355469"/>
     <use xlink:href="#DejaVuSans-65" x="1606.535156"/>
     <use xlink:href="#DejaVuSans-29" x="1668.058594"/>
    </g>
   </g>
   <g id="legend_1">
    <g id="patch_7">
     <path d="M 473.826562 255.44 
L 558.2 255.44 
Q 560.2 255.44 560.2 253.44 
L 560.2 180.493125 
Q 560.2 178.493125 558.2 178.493125 
L 473.826562 178.493125 
Q 471.826562 178.493125 471.826562 180.493125 
L 471.826562 253.44 
Q 471.826562 255.44 473.826562 255.44 
z
" style="fill: #ffffff; opacity: 0.8; stroke: #cccccc; stroke-linejoin: miter"/>
    </g>
    <g id="line2d_34">
     <path d="M 475.826562 186.591563 
L 485.826562 186.591563 
L 495.826562 186.591563 
" style="fill: none; stroke: #1f77b4; stroke-width: 1.8; stroke-linecap: square"/>
    </g>
    <g id="text_18">
     <!-- SHEER -->
     <g transform="translate(503.826562 190.091563) scale(0.1 -0.1)">
      <defs>
       <path id="DejaVuSans-53" d="M 3425 4513 
L 3425 3897 
Q 3066 4069 2747 4153 
Q 2428 4238 2131 4238 
Q 1616 4238 1336 4038 
Q 1056 3838 1056 3469 
Q 1056 3159 1242 3001 
Q 1428 2844 1947 2747 
L 2328 2669 
Q 3034 2534 3370 2195 
Q 3706 1856 3706 1288 
Q 3706 609 3251 259 
Q 2797 -91 1919 -91 
Q 1588 -91 1214 -16 
Q 841 59 441 206 
L 441 856 
Q 825 641 1194 531 
Q 1563 422 1919 422 
Q 2459 422 2753 634 
Q 3047 847 3047 1241 
Q 3047 1584 2836 1778 
Q 2625 1972 2144 2069 
L 1759 2144 
Q 1053 2284 737 2584 
Q 422 2884 422 3419 
Q 422 4038 858 4394 
Q 1294 4750 2059 4750 
Q 2388 4750 2728 4690 
Q 3069 4631 3425 4513 
z
" transform="scale(0.015625)"/>
       <path id="DejaVuSans-48" d="M 628 4666 
L 1259 4666 
L 1259 2753 
L 3553 2753 
L 3553 4666 
L 4184 4666 
L 4184 0 
L 3553 0 
L 3553 2222 
L 1259 2222 
L 1259 0 
L 628 0 
L 628 4666 
z
" transform="scale(0.015625)"/>
       <path id="DejaVuSans-45" d="M 628 4666 
L 3578 4666 
L 3578 4134 
L 1259 4134 
L 1259 2753 
L 3481 2753 
L 3481 2222 
L 1259 2222 
L 1259 531 
L 3634 531 
L 3634 0 
L 628 0 
L 628 4666 
z
" transform="scale(0.015625)"/>
      </defs>
      <use xlink:href="#DejaVuSans-53"/>
      <use xlink:href="#DejaVuSans-48" x="63.476562"/>
      <use xlink:href="#DejaVuSans-45" x="138.671875"/>
      <use xlink:href="#DejaVuSans-45" x="201.855469"/>
      <use xlink:href="#DejaVuSans-52" x="265.039062"/>
     </g>
    </g>
    <g id="line2d_35">
     <path d="M 475.826562 201.269688 
L 485.826562 201.269688 
L 495.826562 201.269688 
" style="fill: none; stroke: #ff7f0e; stroke-width: 1.8; stroke-linecap: square"/>
    </g>
    <g id="text_19">
     <!-- ACTAR -->
     <g transform="translate(503.826562 204.769688) scale(0.1 -0.1)">
      <defs>
       <path id="DejaVuSans-41" d="M 2188 4044 
L 1331 1722 
L 3047 1722 
L 2188 4044 
z
M 1831 4666 
L 2547 4666 
L 4325 0 
L 3669 0 
L 3244 1197 
L 1141 1197 
L 716 0 
L 50 0 
L 1831 4666 
z
" transform="scale(0.015625)"/>
      </defs>
      <use xlink:href="#DejaVuSans-41"/>
      <use xlink:href="#DejaVuSans-43" x="66.658203"/>
      <use xlink:href="#DejaVuSans-54" x="136.482422"/>
      <use xlink:href="#DejaVuSans-41" x="189.816406"/>
      <use xlink:href="#DejaVuSans-52" x="258.224609"/>
     </g>
    </g>
    <g id="line2d_36">
     <path d="M 475.826562 215.947813 
L 485.826562 215.947813 
L 495.826562 215.947813 
" style="fill: none; stroke: #2ca02c; stroke-width: 1.8; stroke-linecap: square"/>
    </g>
    <g id="text_20">
     <!-- TFSM_DPC -->
     <g transform="translate(503.826562 219.447813) scale(0.1 -0.1)">
      <defs>
       <path id="DejaVuSans-46" d="M 628 4666 
L 3309 4666 
L 3309 4134 
L 1259 4134 
L 1259 2759 
L 3109 2759 
L 3109 2228 
L 1259 2228 
L 1259 0 
L 628 0 
L 628 4666 
z
" transform="scale(0.015625)"/>
       <path id="DejaVuSans-4d" d="M 628 4666 
L 1569 4666 
L 2759 1491 
L 3956 4666 
L 4897 4666 
L 4897 0 
L 4281 0 
L 4281 4097 
L 3078 897 
L 2444 897 
L 1241 4097 
L 1241 0 
L 628 0 
L 628 4666 
z
" transform="scale(0.015625)"/>
       <path id="DejaVuSans-5f" d="M 3263 -1063 
L 3263 -1509 
L -63 -1509 
L -63 -1063 
L 3263 -1063 
z
" transform="scale(0.015625)"/>
       <path id="DejaVuSans-44" d="M 1259 4147 
L 1259 519 
L 2022 519 
Q 2988 519 3436 956 
Q 3884 1394 3884 2338 
Q 3884 3275 3436 3711 
Q 2988 4147 2022 4147 
L 1259 4147 
z
M 628 4666 
L 1925 4666 
Q 3281 4666 3915 4102 
Q 4550 3538 4550 2338 
Q 4550 1131 3912 565 
Q 3275 0 1925 0 
L 628 0 
L 628 4666 
z
" transform="scale(0.015625)"/>
       <path id="DejaVuSans-50" d="M 1259 4147 
L 1259 2394 
L 2053 2394 
Q 2494 2394 2734 2622 
Q 2975 2850 2975 3272 
Q 2975 3691 2734 3919 
Q 2494 4147 2053 4147 
L 1259 4147 
z
M 628 4666 
L 2053 4666 
Q 2838 4666 3239 4311 
Q 3641 3956 3641 3272 
Q 3641 2581 3239 2228 
Q 2838 1875 2053 1875 
L 1259 1875 
L 1259 0 
L 628 0 
L 628 4666 
z
" transform="scale(0.015625)"/>
      </defs>
      <use xlink:href="#DejaVuSans-54"/>
      <use xlink:href="#DejaVuSans-46" x="61.083984"/>
      <use xlink:href="#DejaVuSans-53" x="116.853516"/>
      <use xlink:href="#DejaVuSans-4d" x="180.330078"/>
      <use xlink:href="#DejaVuSans-5f" x="266.609375"/>
      <use xlink:href="#DejaVuSans-44" x="316.609375"/>
      <use xlink:href="#DejaVuSans-50" x="393.611328"/>
      <use xlink:href="#DejaVuSans-43" x="453.914062"/>
     </g>
    </g>
    <g id="line2d_37">
     <path d="M 475.826562 230.904063 
L 485.826562 230.904063 
L 495.826562 230.904063 
" style="fill: none; stroke: #d62728; stroke-width: 1.8; stroke-linecap: square"/>
    </g>
    <g id="text_21">
     <!-- DST_WOA -->
     <g transform="translate(503.826562 234.404063) scale(0.1 -0.1)">
      <defs>
       <path id="DejaVuSans-57" d="M 213 4666 
L 850 4666 
L 1831 722 
L 2809 4666 
L 3519 4666 
L 4500 722 
L 5478 4666 
L 6119 4666 
L 4947 0 
L 4153 0 
L 3169 4050 
L 2175 0 
L 1381 0 
L 213 4666 
z
" transform="scale(0.015625)"/>
       <path id="DejaVuSans-4f" d="M 2522 4238 
Q 1834 4238 1429 3725 
Q 1025 3213 1025 2328 
Q 1025 1447 1429 934 
Q 1834 422 2522 422 
Q 3209 422 3611 934 
Q 4013 1447 4013 2328 
Q 4013 3213 3611 3725 
Q 3209 4238 2522 4238 
z
M 2522 4750 
Q 3503 4750 4090 4092 
Q 4678 3434 4678 2328 
Q 4678 1225 4090 567 
Q 3503 -91 2522 -91 
Q 1538 -91 948 565 
Q 359 1222 359 2328 
Q 359 3434 948 4092 
Q 1538 4750 2522 4750 
z
" transform="scale(0.015625)"/>
      </defs>
      <use xlink:href="#DejaVuSans-44"/>
      <use xlink:href="#DejaVuSans-53" x="77.001953"/>
      <use xlink:href="#DejaVuSans-54" x="140.478516"/>
      <use xlink:href="#DejaVuSans-5f" x="201.5625"/>
      <use xlink:href="#DejaVuSans-57" x="251.5625"/>
      <use xlink:href="#DejaVuSans-4f" x="350.439453"/>
      <use xlink:href="#DejaVuSans-41" x="427.400391"/>
     </g>
    </g>
    <g id="line2d_38">
     <path d="M 475.826562 245.860313 
L 485.826562 245.860313 
L 495.826562 245.860313 
" style="fill: none; stroke: #9467bd; stroke-width: 1.8; stroke-linecap: square"/>
    </g>
    <g id="text_22">
     <!-- TRAIL -->
     <g transform="translate(503.826562 249.360313) scale(0.1 -0.1)">
      <defs>
       <path id="DejaVuSans-49" d="M 628 4666 
L 1259 4666 
L 1259 0 
L 628 0 
L 628 4666 
z
" transform="scale(0.015625)"/>
       <path id="DejaVuSans-4c" d="M 628 4666 
L 1259 4666 
L 1259 531 
L 3531 531 
L 3531 0 
L 628 0 
L 628 4666 
z
" transform="scale(0.015625)"/>
      </defs>
      <use xlink:href="#DejaVuSans-54"/>
      <use xlink:href="#DejaVuSans-52" x="61.083984"/>
      <use xlink:href="#DejaVuSans-41" x="126.566406"/>
      <use xlink:href="#DejaVuSans-49" x="194.974609"/>
      <use xlink:href="#DejaVuSans-4c" x="224.466797"/>
     </g>
    </g>
   </g>
  </g>
 </g>
 <defs>
  <clipPath id="p5535fa7d71">
   <rect x="47.81" y="25.44" width="517.39" height="235"/>
  </clipPath>
 </defs>
</svg>
