<?xml version="1.0" encoding="utf-8" standalone="no"?>
<!DOCTYPE svg PUBLIC "-//W3C//DTD SVG 1.1//EN"
  "http://www.w3.org/Graphics/SVG/1.1/DTD/svg11.dtd">
<svg xmlns:xlink="http://www.w3.org/1999/xlink" width="576pt" height="302.4pt" viewBox="0 0 576 302.4" xmlns="http://www.w3.org/2000/svg" version="1.1">
 <metadata>
  <rdf:RDF xmlns:dc="http://purl.org/dc/elements/1.1/" xmlns:cc="http://creativecommons.org/ns#" xmlns:rdf="http://www.w3.org/1999/02/22-rdf-syntax-ns#">
   <cc:Work>
    <dc:type rdf:resource="http://purl.org/dc/dcmitype/StillImage"/>
    <dc:date>2025-09-08T12:41:50.628416</dc:date>
    <dc:format>image/svg+xml</dc:format>
    <dc:creator>
     <cc:Agent>
      <dc:title>Matplotlib v3.9.4, https://matplotlib.org/</dc:title>
     </cc:Agent>
    </dc:creator>
   </cc:Work>
  </rdf:RDF>
 </metadata>
 <defs>
  <style type="text/css">*{stroke-linejoin: round; stroke-linecap: butt}</style>
 </defs>
 <g id="figure_1">
  <g id="patch_1">
   <path d="M 0 302.4 
L 576 302.4 
L 576 0 
L 0 0 
z
" style="fill: #ffffff"/>
  </g>
  <g id="axes_1">
   <g id="patch_2">
    <path d="M 54.2 260.44 
L 565.2 260.44 
L 565.2 25.44 
L 54.2 25.44 
z
" style="fill: #ffffff"/>
   </g>
   <g id="matplotlib.axis_1">
    <g id="xtick_1">
     <g id="line2d_1">
      <path d="M 77.37845 260.44 
L 77.37845 25.44 
" clip-path="url(#p23754cf858)" style="fill: none; stroke-dasharray: 2.96,1.28; stroke-dashoffset: 0; stroke: #b0b0b0; stroke-opacity: 0.3; stroke-width: 0.8"/>
     </g>
     <g id="line2d_2">
      <defs>
       <path id="m1319630f79" d="M 0 0 
L 0 3.5 
" style="stroke: #000000; stroke-width: 0.8"/>
      </defs>
      <g>
       <use xlink:href="#m1319630f79" x="77.37845" y="260.44" style="stroke: #000000; stroke-width: 0.8"/>
      </g>
     </g>
     <g id="text_1">
      <!-- 0 -->
      <g transform="translate(74.1972 275.038438) scale(0.1 -0.1)">
       <defs>
        <path id="DejaVuSans-30" d="M 2034 4250 
Q 1547 4250 1301 3770 
Q 1056 3291 1056 2328 
Q 1056 1369 1301 889 
Q 1547 409 2034 409 
Q 2525 409 2770 889 
Q 3016 1369 3016 2328 
Q 3016 3291 2770 3770 
Q 2525 4250 2034 4250 
z
M 2034 4750 
Q 2819 4750 3233 4129 
Q 3647 3509 3647 2328 
Q 3647 1150 3233 529 
Q 2819 -91 2034 -91 
Q 1250 -91 836 529 
Q 422 1150 422 2328 
Q 422 3509 836 4129 
Q 1250 4750 2034 4750 
z
" transform="scale(0.015625)"/>
       </defs>
       <use xlink:href="#DejaVuSans-30"/>
      </g>
     </g>
    </g>
    <g id="xtick_2">
     <g id="line2d_3">
      <path d="M 175.023317 260.44 
L 175.023317 25.44 
" clip-path="url(#p23754cf858)" style="fill: none; stroke-dasharray: 2.96,1.28; stroke-dashoffset: 0; stroke: #b0b0b0; stroke-opacity: 0.3; stroke-width: 0.8"/>
     </g>
     <g id="line2d_4">
      <g>
       <use xlink:href="#m1319630f79" x="175.023317" y="260.44" style="stroke: #000000; stroke-width: 0.8"/>
      </g>
     </g>
     <g id="text_2">
      <!-- 2000 -->
      <g transform="translate(162.298317 275.038438) scale(0.1 -0.1)">
       <defs>
        <path id="DejaVuSans-32" d="M 1228 531 
L 3431 531 
L 3431 0 
L 469 0 
L 469 531 
Q 828 903 1448 1529 
Q 2069 2156 2228 2338 
Q 2531 2678 2651 2914 
Q 2772 3150 2772 3378 
Q 2772 3750 2511 3984 
Q 2250 4219 1831 4219 
Q 1534 4219 1204 4116 
Q 875 4013 500 3803 
L 500 4441 
Q 881 4594 1212 4672 
Q 1544 4750 1819 4750 
Q 2544 4750 2975 4387 
Q 3406 4025 3406 3419 
Q 3406 3131 3298 2873 
Q 3191 2616 2906 2266 
Q 2828 2175 2409 1742 
Q 1991 1309 1228 531 
z
" transform="scale(0.015625)"/>
       </defs>
       <use xlink:href="#DejaVuSans-32"/>
       <use xlink:href="#DejaVuSans-30" x="63.623047"/>
       <use xlink:href="#DejaVuSans-30" x="127.246094"/>
       <use xlink:href="#DejaVuSans-30" x="190.869141"/>
      </g>
     </g>
    </g>
    <g id="xtick_3">
     <g id="line2d_5">
      <path d="M 272.668184 260.44 
L 272.668184 25.44 
" clip-path="url(#p23754cf858)" style="fill: none; stroke-dasharray: 2.96,1.28; stroke-dashoffset: 0; stroke: #b0b0b0; stroke-opacity: 0.3; stroke-width: 0.8"/>
     </g>
     <g id="line2d_6">
      <g>
       <use xlink:href="#m1319630f79" x="272.668184" y="260.44" style="stroke: #000000; stroke-width: 0.8"/>
      </g>
     </g>
     <g id="text_3">
      <!-- 4000 -->
      <g transform="translate(259.943184 275.038438) scale(0.1 -0.1)">
       <defs>
        <path id="DejaVuSans-34" d="M 2419 4116 
L 825 1625 
L 2419 1625 
L 2419 4116 
z
M 2253 4666 
L 3047 4666 
L 3047 1625 
L 3713 1625 
L 3713 1100 
L 3047 1100 
L 3047 0 
L 2419 0 
L 2419 1100 
L 313 1100 
L 313 1709 
L 2253 4666 
z
" transform="scale(0.015625)"/>
       </defs>
       <use xlink:href="#DejaVuSans-34"/>
       <use xlink:href="#DejaVuSans-30" x="63.623047"/>
       <use xlink:href="#DejaVuSans-30" x="127.246094"/>
       <use xlink:href="#DejaVuSans-30" x="190.869141"/>
      </g>
     </g>
    </g>
    <g id="xtick_4">
     <g id="line2d_7">
      <path d="M 370.313051 260.44 
L 370.313051 25.44 
" clip-path="url(#p23754cf858)" style="fill: none; stroke-dasharray: 2.96,1.28; stroke-dashoffset: 0; stroke: #b0b0b0; stroke-opacity: 0.3; stroke-width: 0.8"/>
     </g>
     <g id="line2d_8">
      <g>
       <use xlink:href="#m1319630f79" x="370.313051" y="260.44" style="stroke: #000000; stroke-width: 0.8"/>
      </g>
     </g>
     <g id="text_4">
      <!-- 6000 -->
      <g transform="translate(357.588051 275.038438) scale(0.1 -0.1)">
       <defs>
        <path id="DejaVuSans-36" d="M 2113 2584 
Q 1688 2584 1439 2293 
Q 1191 2003 1191 1497 
Q 1191 994 1439 701 
Q 1688 409 2113 409 
Q 2538 409 2786 701 
Q 3034 994 3034 1497 
Q 3034 2003 2786 2293 
Q 2538 2584 2113 2584 
z
M 3366 4563 
L 3366 3988 
Q 3128 4100 2886 4159 
Q 2644 4219 2406 4219 
Q 1781 4219 1451 3797 
Q 1122 3375 1075 2522 
Q 1259 2794 1537 2939 
Q 1816 3084 2150 3084 
Q 2853 3084 3261 2657 
Q 3669 2231 3669 1497 
Q 3669 778 3244 343 
Q 2819 -91 2113 -91 
Q 1303 -91 875 529 
Q 447 1150 447 2328 
Q 447 3434 972 4092 
Q 1497 4750 2381 4750 
Q 2619 4750 2861 4703 
Q 3103 4656 3366 4563 
z
" transform="scale(0.015625)"/>
       </defs>
       <use xlink:href="#DejaVuSans-36"/>
       <use xlink:href="#DejaVuSans-30" x="63.623047"/>
       <use xlink:href="#DejaVuSans-30" x="127.246094"/>
       <use xlink:href="#DejaVuSans-30" x="190.869141"/>
      </g>
     </g>
    </g>
    <g id="xtick_5">
     <g id="line2d_9">
      <path d="M 467.957918 260.44 
L 467.957918 25.44 
" clip-path="url(#p23754cf858)" style="fill: none; stroke-dasharray: 2.96,1.28; stroke-dashoffset: 0; stroke: #b0b0b0; stroke-opacity: 0.3; stroke-width: 0.8"/>
     </g>
     <g id="line2d_10">
      <g>
       <use xlink:href="#m1319630f79" x="467.957918" y="260.44" style="stroke: #000000; stroke-width: 0.8"/>
      </g>
     </g>
     <g id="text_5">
      <!-- 8000 -->
      <g transform="translate(455.232918 275.038438) scale(0.1 -0.1)">
       <defs>
        <path id="DejaVuSans-38" d="M 2034 2216 
Q 1584 2216 1326 1975 
Q 1069 1734 1069 1313 
Q 1069 891 1326 650 
Q 1584 409 2034 409 
Q 2484 409 2743 651 
Q 3003 894 3003 1313 
Q 3003 1734 2745 1975 
Q 2488 2216 2034 2216 
z
M 1403 2484 
Q 997 2584 770 2862 
Q 544 3141 544 3541 
Q 544 4100 942 4425 
Q 1341 4750 2034 4750 
Q 2731 4750 3128 4425 
Q 3525 4100 3525 3541 
Q 3525 3141 3298 2862 
Q 3072 2584 2669 2484 
Q 3125 2378 3379 2068 
Q 3634 1759 3634 1313 
Q 3634 634 3220 271 
Q 2806 -91 2034 -91 
Q 1263 -91 848 271 
Q 434 634 434 1313 
Q 434 1759 690 2068 
Q 947 2378 1403 2484 
z
M 1172 3481 
Q 1172 3119 1398 2916 
Q 1625 2713 2034 2713 
Q 2441 2713 2670 2916 
Q 2900 3119 2900 3481 
Q 2900 3844 2670 4047 
Q 2441 4250 2034 4250 
Q 1625 4250 1398 4047 
Q 1172 3844 1172 3481 
z
" transform="scale(0.015625)"/>
       </defs>
       <use xlink:href="#DejaVuSans-38"/>
       <use xlink:href="#DejaVuSans-30" x="63.623047"/>
       <use xlink:href="#DejaVuSans-30" x="127.246094"/>
       <use xlink:href="#DejaVuSans-30" x="190.869141"/>
      </g>
     </g>
    </g>
    <g id="text_6">
     <!-- round -->
     <g transform="translate(295.185937 288.716563) scale(0.1 -0.1)">
      <defs>
       <path id="DejaVuSans-72" d="M 2631 2963 
Q 2534 3019 2420 3045 
Q 2306 3072 2169 3072 
Q 1681 3072 1420 2755 
Q 1159 2438 1159 1844 
L 1159 0 
L 581 0 
L 581 3500 
L 1159 3500 
L 1159 2956 
Q 1341 3275 1631 3429 
Q 1922 3584 2338 3584 
Q 2397 3584 2469 3576 
Q 2541 3569 2628 3553 
L 2631 2963 
z
" transform="scale(0.015625)"/>
       <path id="DejaVuSans-6f" d="M 1959 3097 
Q 1497 3097 1228 2736 
Q 959 2375 959 1747 
Q 959 1119 1226 758 
Q 1494 397 1959 397 
Q 2419 397 2687 759 
Q 2956 1122 2956 1747 
Q 2956 2369 2687 2733 
Q 2419 3097 1959 3097 
z
M 1959 3584 
Q 2709 3584 3137 3096 
Q 3566 2609 3566 1747 
Q 3566 888 3137 398 
Q 2709 -91 1959 -91 
Q 1206 -91 779 398 
Q 353 888 353 1747 
Q 353 2609 779 3096 
Q 1206 3584 1959 3584 
z
" transform="scale(0.015625)"/>
       <path id="DejaVuSans-75" d="M 544 1381 
L 544 3500 
L 1119 3500 
L 1119 1403 
Q 1119 906 1312 657 
Q 1506 409 1894 409 
Q 2359 409 2629 706 
Q 2900 1003 2900 1516 
L 2900 3500 
L 3475 3500 
L 3475 0 
L 2900 0 
L 2900 538 
Q 2691 219 2414 64 
Q 2138 -91 1772 -91 
Q 1169 -91 856 284 
Q 544 659 544 1381 
z
M 1991 3584 
L 1991 3584 
z
" transform="scale(0.015625)"/>
       <path id="DejaVuSans-6e" d="M 3513 2113 
L 3513 0 
L 2938 0 
L 2938 2094 
Q 2938 2591 2744 2837 
Q 2550 3084 2163 3084 
Q 1697 3084 1428 2787 
Q 1159 2491 1159 1978 
L 1159 0 
L 581 0 
L 581 3500 
L 1159 3500 
L 1159 2956 
Q 1366 3272 1645 3428 
Q 1925 3584 2291 3584 
Q 2894 3584 3203 3211 
Q 3513 2838 3513 2113 
z
" transform="scale(0.015625)"/>
       <path id="DejaVuSans-64" d="M 2906 2969 
L 2906 4863 
L 3481 4863 
L 3481 0 
L 2906 0 
L 2906 525 
Q 2725 213 2448 61 
Q 2172 -91 1784 -91 
Q 1150 -91 751 415 
Q 353 922 353 1747 
Q 353 2572 751 3078 
Q 1150 3584 1784 3584 
Q 2172 3584 2448 3432 
Q 2725 3281 2906 2969 
z
M 947 1747 
Q 947 1113 1208 752 
Q 1469 391 1925 391 
Q 2381 391 2643 752 
Q 2906 1113 2906 1747 
Q 2906 2381 2643 2742 
Q 2381 3103 1925 3103 
Q 1469 3103 1208 2742 
Q 947 2381 947 1747 
z
" transform="scale(0.015625)"/>
      </defs>
      <use xlink:href="#DejaVuSans-72"/>
      <use xlink:href="#DejaVuSans-6f" x="38.863281"/>
      <use xlink:href="#DejaVuSans-75" x="100.044922"/>
      <use xlink:href="#DejaVuSans-6e" x="163.423828"/>
      <use xlink:href="#DejaVuSans-64" x="226.802734"/>
     </g>
    </g>
   </g>
   <g id="matplotlib.axis_2">
    <g id="ytick_1">
     <g id="line2d_11">
      <path d="M 54.2 249.758182 
L 565.2 249.758182 
" clip-path="url(#p23754cf858)" style="fill: none; stroke-dasharray: 2.96,1.28; stroke-dashoffset: 0; stroke: #b0b0b0; stroke-opacity: 0.3; stroke-width: 0.8"/>
     </g>
     <g id="line2d_12">
      <defs>
       <path id="m6774253e47" d="M 0 0 
L -3.5 0 
" style="stroke: #000000; stroke-width: 0.8"/>
      </defs>
      <g>
       <use xlink:href="#m6774253e47" x="54.2" y="249.758182" style="stroke: #000000; stroke-width: 0.8"/>
      </g>
     </g>
     <g id="text_7">
      <!-- 0.65 -->
      <g transform="translate(24.934375 253.557401) scale(0.1 -0.1)">
       <defs>
        <path id="DejaVuSans-2e" d="M 684 794 
L 1344 794 
L 1344 0 
L 684 0 
L 684 794 
z
" transform="scale(0.015625)"/>
        <path id="DejaVuSans-35" d="M 691 4666 
L 3169 4666 
L 3169 4134 
L 1269 4134 
L 1269 2991 
Q 1406 3038 1543 3061 
Q 1681 3084 1819 3084 
Q 2600 3084 3056 2656 
Q 3513 2228 3513 1497 
Q 3513 744 3044 326 
Q 2575 -91 1722 -91 
Q 1428 -91 1123 -41 
Q 819 9 494 109 
L 494 744 
Q 775 591 1075 516 
Q 1375 441 1709 441 
Q 2250 441 2565 725 
Q 2881 1009 2881 1497 
Q 2881 1984 2565 2268 
Q 2250 2553 1709 2553 
Q 1456 2553 1204 2497 
Q 953 2441 691 2322 
L 691 4666 
z
" transform="scale(0.015625)"/>
       </defs>
       <use xlink:href="#DejaVuSans-30"/>
       <use xlink:href="#DejaVuSans-2e" x="63.623047"/>
       <use xlink:href="#DejaVuSans-36" x="95.410156"/>
       <use xlink:href="#DejaVuSans-35" x="159.033203"/>
      </g>
     </g>
    </g>
    <g id="ytick_2">
     <g id="line2d_13">
      <path d="M 54.2 219.238701 
L 565.2 219.238701 
" clip-path="url(#p23754cf858)" style="fill: none; stroke-dasharray: 2.96,1.28; stroke-dashoffset: 0; stroke: #b0b0b0; stroke-opacity: 0.3; stroke-width: 0.8"/>
     </g>
     <g id="line2d_14">
      <g>
       <use xlink:href="#m6774253e47" x="54.2" y="219.238701" style="stroke: #000000; stroke-width: 0.8"/>
      </g>
     </g>
     <g id="text_8">
      <!-- 0.70 -->
      <g transform="translate(24.934375 223.03792) scale(0.1 -0.1)">
       <defs>
        <path id="DejaVuSans-37" d="M 525 4666 
L 3525 4666 
L 3525 4397 
L 1831 0 
L 1172 0 
L 2766 4134 
L 525 4134 
L 525 4666 
z
" transform="scale(0.015625)"/>
       </defs>
       <use xlink:href="#DejaVuSans-30"/>
       <use xlink:href="#DejaVuSans-2e" x="63.623047"/>
       <use xlink:href="#DejaVuSans-37" x="95.410156"/>
       <use xlink:href="#DejaVuSans-30" x="159.033203"/>
      </g>
     </g>
    </g>
    <g id="ytick_3">
     <g id="line2d_15">
      <path d="M 54.2 188.719221 
L 565.2 188.719221 
" clip-path="url(#p23754cf858)" style="fill: none; stroke-dasharray: 2.96,1.28; stroke-dashoffset: 0; stroke: #b0b0b0; stroke-opacity: 0.3; stroke-width: 0.8"/>
     </g>
     <g id="line2d_16">
      <g>
       <use xlink:href="#m6774253e47" x="54.2" y="188.719221" style="stroke: #000000; stroke-width: 0.8"/>
      </g>
     </g>
     <g id="text_9">
      <!-- 0.75 -->
      <g transform="translate(24.934375 192.51844) scale(0.1 -0.1)">
       <use xlink:href="#DejaVuSans-30"/>
       <use xlink:href="#DejaVuSans-2e" x="63.623047"/>
       <use xlink:href="#DejaVuSans-37" x="95.410156"/>
       <use xlink:href="#DejaVuSans-35" x="159.033203"/>
      </g>
     </g>
    </g>
    <g id="ytick_4">
     <g id="line2d_17">
      <path d="M 54.2 158.19974 
L 565.2 158.19974 
" clip-path="url(#p23754cf858)" style="fill: none; stroke-dasharray: 2.96,1.28; stroke-dashoffset: 0; stroke: #b0b0b0; stroke-opacity: 0.3; stroke-width: 0.8"/>
     </g>
     <g id="line2d_18">
      <g>
       <use xlink:href="#m6774253e47" x="54.2" y="158.19974" style="stroke: #000000; stroke-width: 0.8"/>
      </g>
     </g>
     <g id="text_10">
      <!-- 0.80 -->
      <g transform="translate(24.934375 161.998959) scale(0.1 -0.1)">
       <use xlink:href="#DejaVuSans-30"/>
       <use xlink:href="#DejaVuSans-2e" x="63.623047"/>
       <use xlink:href="#DejaVuSans-38" x="95.410156"/>
       <use xlink:href="#DejaVuSans-30" x="159.033203"/>
      </g>
     </g>
    </g>
    <g id="ytick_5">
     <g id="line2d_19">
      <path d="M 54.2 127.68026 
L 565.2 127.68026 
" clip-path="url(#p23754cf858)" style="fill: none; stroke-dasharray: 2.96,1.28; stroke-dashoffset: 0; stroke: #b0b0b0; stroke-opacity: 0.3; stroke-width: 0.8"/>
     </g>
     <g id="line2d_20">
      <g>
       <use xlink:href="#m6774253e47" x="54.2" y="127.68026" style="stroke: #000000; stroke-width: 0.8"/>
      </g>
     </g>
     <g id="text_11">
      <!-- 0.85 -->
      <g transform="translate(24.934375 131.479478) scale(0.1 -0.1)">
       <use xlink:href="#DejaVuSans-30"/>
       <use xlink:href="#DejaVuSans-2e" x="63.623047"/>
       <use xlink:href="#DejaVuSans-38" x="95.410156"/>
       <use xlink:href="#DejaVuSans-35" x="159.033203"/>
      </g>
     </g>
    </g>
    <g id="ytick_6">
     <g id="line2d_21">
      <path d="M 54.2 97.160779 
L 565.2 97.160779 
" clip-path="url(#p23754cf858)" style="fill: none; stroke-dasharray: 2.96,1.28; stroke-dashoffset: 0; stroke: #b0b0b0; stroke-opacity: 0.3; stroke-width: 0.8"/>
     </g>
     <g id="line2d_22">
      <g>
       <use xlink:href="#m6774253e47" x="54.2" y="97.160779" style="stroke: #000000; stroke-width: 0.8"/>
      </g>
     </g>
     <g id="text_12">
      <!-- 0.90 -->
      <g transform="translate(24.934375 100.959998) scale(0.1 -0.1)">
       <defs>
        <path id="DejaVuSans-39" d="M 703 97 
L 703 672 
Q 941 559 1184 500 
Q 1428 441 1663 441 
Q 2288 441 2617 861 
Q 2947 1281 2994 2138 
Q 2813 1869 2534 1725 
Q 2256 1581 1919 1581 
Q 1219 1581 811 2004 
Q 403 2428 403 3163 
Q 403 3881 828 4315 
Q 1253 4750 1959 4750 
Q 2769 4750 3195 4129 
Q 3622 3509 3622 2328 
Q 3622 1225 3098 567 
Q 2575 -91 1691 -91 
Q 1453 -91 1209 -44 
Q 966 3 703 97 
z
M 1959 2075 
Q 2384 2075 2632 2365 
Q 2881 2656 2881 3163 
Q 2881 3666 2632 3958 
Q 2384 4250 1959 4250 
Q 1534 4250 1286 3958 
Q 1038 3666 1038 3163 
Q 1038 2656 1286 2365 
Q 1534 2075 1959 2075 
z
" transform="scale(0.015625)"/>
       </defs>
       <use xlink:href="#DejaVuSans-30"/>
       <use xlink:href="#DejaVuSans-2e" x="63.623047"/>
       <use xlink:href="#DejaVuSans-39" x="95.410156"/>
       <use xlink:href="#DejaVuSans-30" x="159.033203"/>
      </g>
     </g>
    </g>
    <g id="ytick_7">
     <g id="line2d_23">
      <path d="M 54.2 66.641299 
L 565.2 66.641299 
" clip-path="url(#p23754cf858)" style="fill: none; stroke-dasharray: 2.96,1.28; stroke-dashoffset: 0; stroke: #b0b0b0; stroke-opacity: 0.3; stroke-width: 0.8"/>
     </g>
     <g id="line2d_24">
      <g>
       <use xlink:href="#m6774253e47" x="54.2" y="66.641299" style="stroke: #000000; stroke-width: 0.8"/>
      </g>
     </g>
     <g id="text_13">
      <!-- 0.95 -->
      <g transform="translate(24.934375 70.440517) scale(0.1 -0.1)">
       <use xlink:href="#DejaVuSans-30"/>
       <use xlink:href="#DejaVuSans-2e" x="63.623047"/>
       <use xlink:href="#DejaVuSans-39" x="95.410156"/>
       <use xlink:href="#DejaVuSans-35" x="159.033203"/>
      </g>
     </g>
    </g>
    <g id="ytick_8">
     <g id="line2d_25">
      <path d="M 54.2 36.121818 
L 565.2 36.121818 
" clip-path="url(#p23754cf858)" style="fill: none; stroke-dasharray: 2.96,1.28; stroke-dashoffset: 0; stroke: #b0b0b0; stroke-opacity: 0.3; stroke-width: 0.8"/>
     </g>
     <g id="line2d_26">
      <g>
       <use xlink:href="#m6774253e47" x="54.2" y="36.121818" style="stroke: #000000; stroke-width: 0.8"/>
      </g>
     </g>
     <g id="text_14">
      <!-- 1.00 -->
      <g transform="translate(24.934375 39.921037) scale(0.1 -0.1)">
       <defs>
        <path id="DejaVuSans-31" d="M 794 531 
L 1825 531 
L 1825 4091 
L 703 3866 
L 703 4441 
L 1819 4666 
L 2450 4666 
L 2450 531 
L 3481 531 
L 3481 0 
L 794 0 
L 794 531 
z
" transform="scale(0.015625)"/>
       </defs>
       <use xlink:href="#DejaVuSans-31"/>
       <use xlink:href="#DejaVuSans-2e" x="63.623047"/>
       <use xlink:href="#DejaVuSans-30" x="95.410156"/>
       <use xlink:href="#DejaVuSans-30" x="159.033203"/>
      </g>
     </g>
    </g>
    <g id="text_15">
     <!-- cumulative timely transfer rate -->
     <g transform="translate(18.854688 221.048594) rotate(-90) scale(0.1 -0.1)">
      <defs>
       <path id="DejaVuSans-63" d="M 3122 3366 
L 3122 2828 
Q 2878 2963 2633 3030 
Q 2388 3097 2138 3097 
Q 1578 3097 1268 2742 
Q 959 2388 959 1747 
Q 959 1106 1268 751 
Q 1578 397 2138 397 
Q 2388 397 2633 464 
Q 2878 531 3122 666 
L 3122 134 
Q 2881 22 2623 -34 
Q 2366 -91 2075 -91 
Q 1284 -91 818 406 
Q 353 903 353 1747 
Q 353 2603 823 3093 
Q 1294 3584 2113 3584 
Q 2378 3584 2631 3529 
Q 2884 3475 3122 3366 
z
" transform="scale(0.015625)"/>
       <path id="DejaVuSans-6d" d="M 3328 2828 
Q 3544 3216 3844 3400 
Q 4144 3584 4550 3584 
Q 5097 3584 5394 3201 
Q 5691 2819 5691 2113 
L 5691 0 
L 5113 0 
L 5113 2094 
Q 5113 2597 4934 2840 
Q 4756 3084 4391 3084 
Q 3944 3084 3684 2787 
Q 3425 2491 3425 1978 
L 3425 0 
L 2847 0 
L 2847 2094 
Q 2847 2600 2669 2842 
Q 2491 3084 2119 3084 
Q 1678 3084 1418 2786 
Q 1159 2488 1159 1978 
L 1159 0 
L 581 0 
L 581 3500 
L 1159 3500 
L 1159 2956 
Q 1356 3278 1631 3431 
Q 1906 3584 2284 3584 
Q 2666 3584 2933 3390 
Q 3200 3197 3328 2828 
z
" transform="scale(0.015625)"/>
       <path id="DejaVuSans-6c" d="M 603 4863 
L 1178 4863 
L 1178 0 
L 603 0 
L 603 4863 
z
" transform="scale(0.015625)"/>
       <path id="DejaVuSans-61" d="M 2194 1759 
Q 1497 1759 1228 1600 
Q 959 1441 959 1056 
Q 959 750 1161 570 
Q 1363 391 1709 391 
Q 2188 391 2477 730 
Q 2766 1069 2766 1631 
L 2766 1759 
L 2194 1759 
z
M 3341 1997 
L 3341 0 
L 2766 0 
L 2766 531 
Q 2569 213 2275 61 
Q 1981 -91 1556 -91 
Q 1019 -91 701 211 
Q 384 513 384 1019 
Q 384 1609 779 1909 
Q 1175 2209 1959 2209 
L 2766 2209 
L 2766 2266 
Q 2766 2663 2505 2880 
Q 2244 3097 1772 3097 
Q 1472 3097 1187 3025 
Q 903 2953 641 2809 
L 641 3341 
Q 956 3463 1253 3523 
Q 1550 3584 1831 3584 
Q 2591 3584 2966 3190 
Q 3341 2797 3341 1997 
z
" transform="scale(0.015625)"/>
       <path id="DejaVuSans-74" d="M 1172 4494 
L 1172 3500 
L 2356 3500 
L 2356 3053 
L 1172 3053 
L 1172 1153 
Q 1172 725 1289 603 
Q 1406 481 1766 481 
L 2356 481 
L 2356 0 
L 1766 0 
Q 1100 0 847 248 
Q 594 497 594 1153 
L 594 3053 
L 172 3053 
L 172 3500 
L 594 3500 
L 594 4494 
L 1172 4494 
z
" transform="scale(0.015625)"/>
       <path id="DejaVuSans-69" d="M 603 3500 
L 1178 3500 
L 1178 0 
L 603 0 
L 603 3500 
z
M 603 4863 
L 1178 4863 
L 1178 4134 
L 603 4134 
L 603 4863 
z
" transform="scale(0.015625)"/>
       <path id="DejaVuSans-76" d="M 191 3500 
L 800 3500 
L 1894 563 
L 2988 3500 
L 3597 3500 
L 2284 0 
L 1503 0 
L 191 3500 
z
" transform="scale(0.015625)"/>
       <path id="DejaVuSans-65" d="M 3597 1894 
L 3597 1613 
L 953 1613 
Q 991 1019 1311 708 
Q 1631 397 2203 397 
Q 2534 397 2845 478 
Q 3156 559 3463 722 
L 3463 178 
Q 3153 47 2828 -22 
Q 2503 -91 2169 -91 
Q 1331 -91 842 396 
Q 353 884 353 1716 
Q 353 2575 817 3079 
Q 1281 3584 2069 3584 
Q 2775 3584 3186 3129 
Q 3597 2675 3597 1894 
z
M 3022 2063 
Q 3016 2534 2758 2815 
Q 2500 3097 2075 3097 
Q 1594 3097 1305 2825 
Q 1016 2553 972 2059 
L 3022 2063 
z
" transform="scale(0.015625)"/>
       <path id="DejaVuSans-20" transform="scale(0.015625)"/>
       <path id="DejaVuSans-79" d="M 2059 -325 
Q 1816 -950 1584 -1140 
Q 1353 -1331 966 -1331 
L 506 -1331 
L 506 -850 
L 844 -850 
Q 1081 -850 1212 -737 
Q 1344 -625 1503 -206 
L 1606 56 
L 191 3500 
L 800 3500 
L 1894 763 
L 2988 3500 
L 3597 3500 
L 2059 -325 
z
" transform="scale(0.015625)"/>
       <path id="DejaVuSans-73" d="M 2834 3397 
L 2834 2853 
Q 2591 2978 2328 3040 
Q 2066 3103 1784 3103 
Q 1356 3103 1142 2972 
Q 928 2841 928 2578 
Q 928 2378 1081 2264 
Q 1234 2150 1697 2047 
L 1894 2003 
Q 2506 1872 2764 1633 
Q 3022 1394 3022 966 
Q 3022 478 2636 193 
Q 2250 -91 1575 -91 
Q 1294 -91 989 -36 
Q 684 19 347 128 
L 347 722 
Q 666 556 975 473 
Q 1284 391 1588 391 
Q 1994 391 2212 530 
Q 2431 669 2431 922 
Q 2431 1156 2273 1281 
Q 2116 1406 1581 1522 
L 1381 1569 
Q 847 1681 609 1914 
Q 372 2147 372 2553 
Q 372 3047 722 3315 
Q 1072 3584 1716 3584 
Q 2034 3584 2315 3537 
Q 2597 3491 2834 3397 
z
" transform="scale(0.015625)"/>
       <path id="DejaVuSans-66" d="M 2375 4863 
L 2375 4384 
L 1825 4384 
Q 1516 4384 1395 4259 
Q 1275 4134 1275 3809 
L 1275 3500 
L 2222 3500 
L 2222 3053 
L 1275 3053 
L 1275 0 
L 697 0 
L 697 3053 
L 147 3053 
L 147 3500 
L 697 3500 
L 697 3744 
Q 697 4328 969 4595 
Q 1241 4863 1831 4863 
L 2375 4863 
z
" transform="scale(0.015625)"/>
      </defs>
      <use xlink:href="#DejaVuSans-63"/>
      <use xlink:href="#DejaVuSans-75" x="54.980469"/>
      <use xlink:href="#DejaVuSans-6d" x="118.359375"/>
      <use xlink:href="#DejaVuSans-75" x="215.771484"/>
      <use xlink:href="#DejaVuSans-6c" x="279.150391"/>
      <use xlink:href="#DejaVuSans-61" x="306.933594"/>
      <use xlink:href="#DejaVuSans-74" x="368.212891"/>
      <use xlink:href="#DejaVuSans-69" x="407.421875"/>
      <use xlink:href="#DejaVuSans-76" x="435.205078"/>
      <use xlink:href="#DejaVuSans-65" x="494.384766"/>
      <use xlink:href="#DejaVuSans-20" x="555.908203"/>
      <use xlink:href="#DejaVuSans-74" x="587.695312"/>
      <use xlink:href="#DejaVuSans-69" x="626.904297"/>
      <use xlink:href="#DejaVuSans-6d" x="654.6875"/>
      <use xlink:href="#DejaVuSans-65" x="752.099609"/>
      <use xlink:href="#DejaVuSans-6c" x="813.623047"/>
      <use xlink:href="#DejaVuSans-79" x="841.40625"/>
      <use xlink:href="#DejaVuSans-20" x="900.585938"/>
      <use xlink:href="#DejaVuSans-74" x="932.373047"/>
      <use xlink:href="#DejaVuSans-72" x="971.582031"/>
      <use xlink:href="#DejaVuSans-61" x="1012.695312"/>
      <use xlink:href="#DejaVuSans-6e" x="1073.974609"/>
      <use xlink:href="#DejaVuSans-73" x="1137.353516"/>
      <use xlink:href="#DejaVuSans-66" x="1189.453125"/>
      <use xlink:href="#DejaVuSans-65" x="1224.658203"/>
      <use xlink:href="#DejaVuSans-72" x="1286.181641"/>
      <use xlink:href="#DejaVuSans-20" x="1327.294922"/>
      <use xlink:href="#DejaVuSans-72" x="1359.082031"/>
      <use xlink:href="#DejaVuSans-61" x="1400.195312"/>
      <use xlink:href="#DejaVuSans-74" x="1461.474609"/>
      <use xlink:href="#DejaVuSans-65" x="1500.683594"/>
     </g>
    </g>
   </g>
   <g id="line2d_27">
    <path d="M 77.427273 179.742903 
L 77.476095 196.750663 
L 77.817852 78.011301 
L 77.915497 70.440913 
L 77.964319 76.220406 
L 78.013142 73.240105 
L 78.110787 68.436562 
L 78.306077 77.739292 
L 78.354899 75.929836 
L 78.403721 78.912018 
L 78.452544 77.055244 
L 78.501366 75.278888 
L 78.696656 80.760804 
L 79.136058 68.732645 
L 79.526637 62.265135 
L 79.624282 65.290879 
L 79.673105 64.659514 
L 80.161329 59.350175 
L 80.796021 54.670518 
L 81.38189 51.877573 
L 81.479535 51.481109 
L 81.528357 52.694753 
L 81.57718 52.51371 
L 81.674824 52.184703 
L 81.821292 53.622128 
L 81.918937 53.419248 
L 82.065404 58.32698 
L 82.114226 58.13587 
L 82.163049 57.939156 
L 82.260694 60.971672 
L 82.309516 60.757449 
L 82.602451 59.109069 
L 82.748918 65.715176 
L 82.79774 65.449214 
L 83.041853 64.178748 
L 83.18832 63.686521 
L 84.067124 58.251228 
L 84.262413 57.332857 
L 84.897105 61.618928 
L 84.945927 61.525639 
L 84.99475 61.809279 
L 85.043572 61.623642 
L 85.092395 61.537546 
L 85.141217 62.920738 
L 85.238862 62.725082 
L 85.482974 62.053833 
L 85.531797 62.688947 
L 85.580619 62.541667 
L 86.312956 59.836477 
L 87.191759 56.825092 
L 87.435872 56.246731 
L 87.533516 60.007053 
L 87.631161 59.78033 
L 88.021741 58.6845 
L 88.363498 57.617499 
L 88.558788 61.99444 
L 88.705255 61.575651 
L 88.851722 64.213008 
L 88.900545 64.096649 
L 89.047012 63.687801 
L 89.193479 65.097758 
L 89.388769 64.434885 
L 89.535236 65.494405 
L 89.584059 65.327783 
L 89.779348 64.69356 
L 89.828171 65.027692 
L 89.876993 64.848602 
L 89.974638 64.507019 
L 90.023461 65.517554 
L 90.072283 65.312825 
L 90.41404 64.088958 
L 90.511685 65.079463 
L 90.560507 64.877359 
L 90.60933 64.771135 
L 90.80462 65.821334 
L 90.951087 65.351385 
L 91.097554 66.469578 
L 91.195199 66.107601 
L 91.292844 66.860863 
L 91.341666 66.66554 
L 91.390489 66.523672 
L 91.439311 67.370024 
L 91.488134 67.17171 
L 91.829891 66.196812 
L 91.878713 66.750276 
L 91.927535 66.561494 
L 92.366937 64.786672 
L 92.562227 66.675247 
L 92.855162 65.69104 
L 93.001629 67.026991 
L 93.050451 66.911514 
L 93.148096 66.747329 
L 93.294564 67.360121 
L 93.489853 70.613585 
L 93.636321 71.238965 
L 94.0269 70.147371 
L 94.075723 70.624046 
L 94.124545 70.425367 
L 94.466302 69.460987 
L 94.612769 68.97888 
L 94.661592 69.004477 
L 94.710414 69.388408 
L 94.759237 69.222755 
L 95.052171 68.628491 
L 95.247461 70.118001 
L 95.296283 69.953673 
L 95.393928 69.679004 
L 95.589218 71.352102 
L 95.784508 70.858515 
L 95.83333 71.610462 
L 95.882153 71.503457 
L 95.930975 71.371145 
L 95.979797 71.974529 
L 96.02862 71.839458 
L 96.077442 71.711864 
L 96.22391 72.790393 
L 96.468022 72.056506 
L 96.712134 73.50262 
L 97.298003 75.46702 
L 97.542115 74.952704 
L 97.688583 75.387032 
L 98.03034 74.502597 
L 98.079162 74.95255 
L 98.127985 74.80421 
L 98.176807 74.711315 
L 98.225629 74.880748 
L 98.274452 75.653922 
L 98.323274 75.53131 
L 98.372097 75.379111 
L 98.420919 75.67251 
L 98.469742 75.555173 
L 98.665031 75.05531 
L 98.811499 75.871387 
L 98.909143 75.616367 
L 98.957966 76.090326 
L 99.006788 76.027028 
L 99.055611 75.926561 
L 99.104433 76.203518 
L 99.153256 76.156222 
L 99.2509 75.936973 
L 99.397368 76.358502 
L 99.44619 76.208779 
L 99.64148 77.206574 
L 99.690302 77.077629 
L 99.739125 77.20796 
L 100.129704 78.532701 
L 100.471461 77.672736 
L 100.520284 77.747431 
L 100.569106 77.627543 
L 100.715573 77.450139 
L 100.764396 77.524425 
L 100.813218 77.404992 
L 101.496732 75.810946 
L 101.545555 76.086877 
L 101.594377 75.991827 
L 101.936134 75.288209 
L 102.033779 75.956812 
L 102.131424 75.813544 
L 102.522004 75.180843 
L 102.619648 75.858559 
L 102.717293 75.693584 
L 102.863761 75.453355 
L 102.961405 75.942405 
L 103.010228 75.86085 
L 103.25434 75.593014 
L 103.400807 75.920616 
L 103.547275 75.809779 
L 103.64492 76.174486 
L 103.693742 76.051027 
L 103.791387 75.833412 
L 103.840209 76.106587 
L 103.889032 75.987746 
L 103.937854 75.889001 
L 104.230789 77.538613 
L 104.279611 77.485051 
L 104.523723 77.004681 
L 104.572546 77.258944 
L 104.816658 78.207812 
L 104.86548 78.106636 
L 105.25606 77.310064 
L 105.402527 77.591346 
L 105.45135 77.497307 
L 105.695462 78.713036 
L 105.744284 78.671799 
L 105.890751 78.389721 
L 106.037219 78.711014 
L 106.086041 78.660216 
L 106.232508 79.06567 
L 106.378976 78.83573 
L 106.427798 79.052978 
L 106.476621 78.966592 
L 106.525443 78.85052 
L 106.574266 79.074859 
L 106.623088 79.020441 
L 106.67191 78.946197 
L 106.8672 79.675009 
L 107.013667 79.414845 
L 107.160135 79.973194 
L 107.208957 79.956009 
L 107.25778 79.984056 
L 107.599537 81.603372 
L 107.648359 82.042947 
L 107.697181 81.961819 
L 107.746004 81.867776 
L 107.794826 82.147676 
L 107.843649 82.099116 
L 107.941294 81.962815 
L 107.990116 82.158526 
L 108.038939 82.118987 
L 108.234228 81.779138 
L 108.283051 82.075675 
L 108.331873 81.981697 
L 108.771275 81.321843 
L 108.820097 81.35335 
L 108.86892 81.283484 
L 108.917742 81.418806 
L 108.966565 81.326821 
L 109.161854 81.094952 
L 109.308322 81.531586 
L 110.187126 80.067143 
L 110.235948 80.151155 
L 110.28477 80.087907 
L 110.333593 80.024841 
L 110.382415 80.258615 
L 110.431238 80.171103 
L 110.772995 79.571854 
L 110.821817 79.852478 
L 110.87064 79.779796 
L 111.065929 79.521119 
L 111.163574 79.737167 
L 111.212397 79.6593 
L 111.261219 79.601389 
L 111.310042 79.717381 
L 111.358864 79.673085 
L 112.28649 78.298195 
L 112.335313 78.447801 
L 112.384135 78.378666 
L 112.67707 77.923471 
L 112.725892 78.092567 
L 112.774715 78.055355 
L 113.165294 77.657254 
L 113.214116 77.707701 
L 113.262939 77.638445 
L 113.555874 77.38098 
L 113.604696 77.493626 
L 113.653518 77.415969 
L 113.848808 77.107174 
L 113.995275 77.56192 
L 114.141743 77.38253 
L 114.190565 77.489877 
L 114.239388 77.719109 
L 114.28821 77.669268 
L 114.727612 77.090653 
L 114.971724 77.730292 
L 115.020547 77.67327 
L 115.313481 77.262204 
L 115.362304 77.572203 
L 115.411126 77.49272 
L 115.752883 77.181612 
L 115.89935 77.490387 
L 116.826977 76.517146 
L 117.022266 77.131122 
L 117.071089 77.070835 
L 117.266378 76.821065 
L 117.315201 76.949184 
L 117.364023 76.879355 
L 117.754603 76.396241 
L 117.852248 76.365912 
L 118.242827 76.03471 
L 118.389294 76.205228 
L 118.486939 76.171518 
L 118.535762 76.365042 
L 118.584584 76.294234 
L 118.975164 75.792377 
L 119.023986 75.866559 
L 119.170453 75.996315 
L 119.219276 75.944042 
L 119.268098 75.887568 
L 119.316921 76.098095 
L 119.365743 76.045905 
L 120.537481 74.779141 
L 120.635126 74.755208 
L 120.976883 74.391038 
L 121.074528 74.917929 
L 121.123351 74.864868 
L 121.269818 74.742595 
L 121.367463 74.654358 
L 121.416285 74.76472 
L 121.465108 74.71709 
L 122.148622 74.223403 
L 122.197444 74.275016 
L 122.246267 74.218155 
L 122.685669 73.796287 
L 122.832136 74.205304 
L 123.32036 73.735792 
L 123.369183 73.801813 
L 123.418005 73.75831 
L 124.150342 73.291476 
L 124.345631 73.664302 
L 124.540921 73.477662 
L 124.589743 73.633157 
L 124.638566 73.593944 
L 124.833856 73.414618 
L 124.882678 73.608861 
L 124.931501 73.562887 
L 124.980323 73.517729 
L 125.029145 73.660745 
L 125.077968 73.621919 
L 125.224435 73.591438 
L 125.273258 73.67388 
L 125.32208 73.631029 
L 125.810304 73.235296 
L 125.956772 73.453552 
L 126.005594 73.401982 
L 126.054416 73.538661 
L 126.152061 73.482316 
L 126.298529 73.374227 
L 126.347351 73.487144 
L 126.396174 73.465977 
L 126.835575 73.131877 
L 126.884398 73.287106 
L 126.93322 73.25218 
L 126.982043 73.209284 
L 127.12851 73.41547 
L 127.177332 73.491267 
L 127.226155 73.458372 
L 127.616734 73.129949 
L 127.665557 73.300045 
L 127.714379 73.257106 
L 128.446716 72.984245 
L 128.495538 73.108331 
L 128.544361 73.07277 
L 128.73965 72.93249 
L 128.788473 73.058825 
L 128.837295 73.004294 
L 129.081407 72.818187 
L 129.13023 72.94459 
L 129.179052 72.910925 
L 129.423164 72.715241 
L 129.471987 72.914718 
L 129.569632 72.855521 
L 129.911389 72.70616 
L 129.960211 72.866536 
L 130.057856 72.806076 
L 130.204323 72.685751 
L 130.253146 72.783341 
L 130.839015 72.36402 
L 130.887837 72.506769 
L 130.93666 72.478875 
L 131.620174 72.02827 
L 131.766641 72.057717 
L 131.961931 71.930836 
L 132.059576 72.065767 
L 132.108398 72.030602 
L 132.791912 71.566521 
L 132.840735 71.704321 
L 132.889557 71.677447 
L 134.842454 70.568697 
L 135.916548 70.067361 
L 137.088286 69.538103 
L 137.137109 69.691206 
L 137.234754 69.651844 
L 137.527688 69.462806 
L 137.576511 69.609864 
L 137.674156 69.554162 
L 138.455315 69.16015 
L 139.138829 68.920467 
L 139.236474 68.934513 
L 139.77352 68.679287 
L 140.1641 68.593863 
L 142.458754 68.615226 
L 142.946978 68.664391 
L 198.165151 68.77306 
L 198.55573 68.789437 
L 246.889939 68.895227 
L 247.085229 68.93614 
L 254.701529 69.034305 
L 254.994463 69.058842 
L 261.976071 69.15603 
L 262.171361 69.196904 
L 275.743998 69.288875 
L 275.939287 69.329722 
L 288.43783 69.436993 
L 288.730765 69.461484 
L 296.981756 69.558481 
L 297.225868 69.591121 
L 318.854206 69.699633 
L 319.53772 69.707787 
L 323.687627 69.786467 
L 323.931739 69.819072 
L 329.253385 69.916865 
L 329.595142 69.965749 
L 340.824301 70.063013 
L 341.117236 70.087443 
L 346.145947 70.193283 
L 346.536526 70.209563 
L 353.762246 70.311979 
L 354.104003 70.368925 
L 360.695032 70.450256 
L 360.939144 70.482782 
L 370.557163 70.588466 
L 370.801275 70.620977 
L 380.224005 70.723193 
L 380.614585 70.737486 
L 387.156791 70.82682 
L 387.400903 70.858808 
L 398.141838 70.948362 
L 398.434773 70.972705 
L 410.493914 71.064144 
L 410.786849 71.088472 
L 418.500793 71.187448 
L 418.891372 71.203658 
L 424.45713 71.276587 
L 424.65242 71.317095 
L 433.001056 71.417917 
L 433.391635 71.434111 
L 439.250327 71.521168 
L 439.543262 71.545448 
L 446.085468 71.634458 
L 446.378403 71.658729 
L 460.488086 71.74727 
L 460.732198 71.777603 
L 469.129657 71.877145 
L 469.520236 71.893305 
L 474.500124 71.97308 
L 474.744236 72.005386 
L 479.870592 72.108838 
L 480.261171 72.124983 
L 491.246219 72.229904 
L 491.685621 72.26218 
L 503.549472 72.350919 
L 503.842407 72.373588 
L 508.627005 72.466779 
L 508.91994 72.490962 
L 530.645923 72.600207 
L 530.938857 72.624376 
L 541.972727 72.721035 
L 541.972727 72.721035 
" clip-path="url(#p23754cf858)" style="fill: none; stroke: #1f77b4; stroke-width: 1.8; stroke-linecap: square"/>
   </g>
   <g id="line2d_28">
    <path d="M 77.427273 119.356765 
L 77.622562 61.912928 
L 77.671385 67.278596 
L 77.720207 63.305161 
L 77.915497 52.844821 
L 78.013142 64.754167 
L 78.159609 73.39752 
L 78.208432 71.140186 
L 78.257254 75.486854 
L 78.306077 73.528535 
L 78.403721 69.638044 
L 78.550189 77.248575 
L 78.599011 81.506391 
L 78.647834 79.65348 
L 78.696656 77.925176 
L 78.745478 77.945352 
L 78.940768 83.667956 
L 79.233703 77.734391 
L 79.282525 78.058583 
L 79.526637 74.932718 
L 79.624282 76.659689 
L 79.673105 75.676041 
L 79.721927 74.879424 
L 79.868394 78.583704 
L 79.917217 77.99886 
L 80.014862 76.367287 
L 80.063684 78.585009 
L 80.112507 77.856599 
L 80.161329 77.065231 
L 80.210151 77.958467 
L 80.258974 79.13068 
L 80.307796 78.565671 
L 80.405441 77.25211 
L 80.600731 80.161473 
L 80.649553 80.298844 
L 80.698376 79.581167 
L 80.893666 85.387823 
L 81.137778 82.791664 
L 81.1866 85.09842 
L 81.235423 84.488331 
L 81.284245 83.844324 
L 81.333067 84.643929 
L 81.38189 83.9736 
L 81.430712 84.231344 
L 81.479535 83.738755 
L 81.528357 84.289819 
L 81.57718 84.5347 
L 81.626002 85.698064 
L 81.674824 85.062372 
L 81.723647 84.627745 
L 81.870114 87.574359 
L 82.065404 86.225854 
L 82.114226 87.094705 
L 82.163049 86.486791 
L 82.211871 85.940998 
L 82.260694 86.497396 
L 82.309516 86.070255 
L 82.358339 86.811331 
L 82.407161 86.250045 
L 82.455983 85.759297 
L 82.553628 88.373981 
L 82.602451 88.242373 
L 82.651273 88.826142 
L 82.700096 88.367159 
L 82.748918 88.108232 
L 82.846563 89.08372 
L 82.99303 87.876629 
L 83.090675 88.095447 
L 83.139497 89.400342 
L 83.18832 88.867254 
L 83.237142 88.468479 
L 83.285965 89.327195 
L 83.334787 88.853943 
L 83.676544 87.089641 
L 84.115946 90.935009 
L 84.164769 90.528312 
L 84.213591 91.611783 
L 84.262413 91.601109 
L 84.360058 90.724069 
L 84.408881 90.804107 
L 84.652993 95.120433 
L 84.701815 94.706483 
L 84.945927 93.432155 
L 84.99475 94.319547 
L 85.043572 93.944336 
L 85.092395 93.593567 
L 85.141217 93.676394 
L 85.19004 94.10445 
L 85.238862 93.715403 
L 85.287685 93.455734 
L 85.434152 95.600039 
L 85.482974 95.73503 
L 85.531797 95.397333 
L 85.580619 95.718836 
L 85.629442 95.49919 
L 85.678264 95.839127 
L 85.727086 95.508204 
L 85.775909 95.21815 
L 85.873554 95.898561 
L 85.922376 95.5692 
L 86.166488 94.027855 
L 86.215311 94.064101 
L 86.264133 94.551731 
L 86.312956 94.299578 
L 86.703535 92.108435 
L 86.752358 92.192643 
L 86.80118 92.794678 
L 86.898825 92.708284 
L 86.947647 93.021101 
L 86.99647 94.322743 
L 87.094115 94.060374 
L 87.142937 93.830318 
L 87.191759 94.006816 
L 87.289404 94.575184 
L 87.338227 94.332134 
L 87.484694 93.884848 
L 87.533516 94.085718 
L 87.631161 93.488814 
L 87.679984 94.09775 
L 87.728806 93.876826 
L 87.972918 92.959406 
L 88.119386 92.546619 
L 88.314675 93.379605 
L 88.363498 93.163761 
L 88.41232 93.824933 
L 88.461143 93.813209 
L 88.900545 92.03942 
L 88.949367 92.160363 
L 89.144657 91.504525 
L 89.193479 91.828418 
L 89.242302 91.630554 
L 89.291124 91.393723 
L 89.339946 91.679994 
L 89.437591 91.239594 
L 89.486414 91.351554 
L 89.535236 91.892266 
L 89.584059 91.863789 
L 89.632881 91.663213 
L 89.681704 91.825669 
L 90.023461 93.49156 
L 90.169928 93.085147 
L 90.21875 93.587798 
L 90.267573 93.456651 
L 90.365218 93.235949 
L 90.462862 93.742747 
L 90.560507 94.876725 
L 90.60933 94.619028 
L 90.755797 93.994669 
L 90.80462 94.235396 
L 91.439311 92.475306 
L 91.488134 92.585245 
L 91.585778 92.998444 
L 91.683423 93.958109 
L 91.732246 93.788367 
L 91.976358 93.06167 
L 92.02518 93.116784 
L 92.464582 91.478896 
L 92.513405 91.535789 
L 92.659872 91.339654 
L 92.757517 91.47415 
L 93.001629 90.634436 
L 93.050451 90.794465 
L 93.099274 91.087535 
L 93.148096 90.884778 
L 93.343386 91.029046 
L 93.587498 90.20984 
L 93.636321 90.407661 
L 93.685143 90.256372 
L 93.733966 90.06624 
L 93.782788 90.468685 
L 93.83161 90.279069 
L 94.0269 89.949487 
L 94.124545 90.127834 
L 94.22219 89.798385 
L 94.271012 90.246934 
L 94.319835 90.05954 
L 94.368657 89.879761 
L 94.41748 90.255617 
L 94.466302 90.078385 
L 94.515124 89.925302 
L 94.563947 90.086884 
L 94.612769 90.306364 
L 94.661592 90.178983 
L 94.954526 89.527732 
L 95.149816 88.939821 
L 95.296283 89.522409 
L 95.442751 90.037208 
L 95.491573 89.880903 
L 95.589218 89.582699 
L 95.63804 89.683856 
L 95.784508 90.470673 
L 96.077442 89.859323 
L 96.126265 89.72807 
L 96.175087 89.950571 
L 96.22391 89.787637 
L 96.321554 89.49085 
L 96.370377 89.698402 
L 96.419199 89.747889 
L 96.809779 88.845049 
L 96.858601 88.984972 
L 96.907424 89.037865 
L 97.005069 88.783934 
L 97.053891 88.938063 
L 97.102713 88.794304 
L 97.151536 88.969581 
L 97.200358 89.425516 
L 97.249181 89.276181 
L 97.590938 88.627806 
L 97.786227 89.099328 
L 98.079162 89.045434 
L 98.176807 88.829502 
L 98.225629 88.939332 
L 98.274452 88.9896 
L 98.323274 89.409034 
L 98.372097 89.264474 
L 98.518564 89.026329 
L 98.567386 89.064845 
L 98.713854 88.843482 
L 98.762676 88.91983 
L 98.957966 88.540345 
L 99.006788 88.814639 
L 99.055611 88.702127 
L 99.153256 88.480128 
L 99.202078 88.671427 
L 99.2509 88.53954 
L 99.495013 88.180167 
L 99.543835 88.296849 
L 99.592658 88.219159 
L 99.885592 87.727534 
L 100.080882 88.562192 
L 100.178527 88.361574 
L 100.471461 87.804799 
L 100.617929 87.966641 
L 101.008508 87.27854 
L 101.057331 87.191626 
L 101.106153 87.257573 
L 101.154975 87.293623 
L 101.203798 87.197337 
L 101.399088 86.808829 
L 101.44791 87.122786 
L 101.496732 87.032131 
L 101.6432 86.698805 
L 101.692022 86.896625 
L 101.740845 86.807327 
L 101.984957 86.382658 
L 102.033779 86.495518 
L 102.082602 86.40414 
L 102.180247 86.319507 
L 102.473181 85.899173 
L 103.010228 84.920371 
L 103.05905 85.394233 
L 103.107873 85.305976 
L 103.742564 84.166252 
L 103.840209 84.088584 
L 104.767835 82.36412 
L 104.963125 82.462158 
L 105.25606 82.070675 
L 105.45135 82.680697 
L 105.500172 82.589675 
L 105.548994 82.762885 
L 105.597817 82.682837 
L 106.427798 81.438664 
L 106.574266 81.765707 
L 106.623088 81.675929 
L 106.720733 81.520676 
L 106.769555 81.636003 
L 107.013667 81.250622 
L 107.111312 81.61503 
L 107.160135 81.535201 
L 107.843649 80.58564 
L 108.087761 80.28954 
L 108.136583 80.338488 
L 108.185406 80.262578 
L 108.234228 80.1832 
L 108.283051 80.348092 
L 108.331873 80.266986 
L 108.624808 79.869531 
L 108.67363 80.012029 
L 108.722453 79.936191 
L 109.405967 78.988457 
L 109.454789 79.076586 
L 109.503612 79.027731 
L 109.698901 78.848352 
L 109.747724 78.933312 
L 109.796546 78.863575 
L 109.991836 78.616602 
L 110.040658 78.751624 
L 110.089481 78.687053 
L 110.382415 78.455058 
L 110.48006 78.42581 
L 110.919462 77.946215 
L 111.114752 77.850709 
L 111.261219 78.021076 
L 111.798266 77.375753 
L 111.847088 77.675597 
L 111.895911 77.606619 
L 112.237668 77.306626 
L 112.335313 77.284828 
L 112.872359 76.766738 
L 114.044098 75.793737 
L 114.09292 75.848637 
L 114.141743 75.789705 
L 114.581145 75.42725 
L 115.459948 74.625155 
L 115.508771 74.84459 
L 115.557593 74.798555 
L 115.801705 74.619403 
L 115.850528 74.899898 
L 115.948173 74.816434 
L 115.996995 74.778084 
L 116.045818 74.883704 
L 116.09464 74.836936 
L 116.28993 74.655487 
L 116.338752 74.779556 
L 116.387575 74.7416 
L 116.778154 74.495662 
L 116.875799 74.698939 
L 116.924621 74.651428 
L 118.047537 73.722178 
L 118.09636 73.829624 
L 118.145182 73.792235 
L 118.340472 73.762495 
L 118.486939 73.987684 
L 118.535762 73.950444 
L 118.682229 74.104578 
L 119.365743 73.692769 
L 119.51221 73.683963 
L 119.853967 73.592835 
L 119.951612 73.635277 
L 120.586304 73.358035 
L 120.732771 73.358684 
L 121.074528 73.323012 
L 121.123351 73.444827 
L 121.220996 73.394332 
L 122.002154 73.07972 
L 122.148622 73.142979 
L 122.832136 73.023442 
L 122.978603 73.112362 
L 124.443276 72.878132 
L 124.589743 72.963375 
L 125.51737 72.824479 
L 125.663837 72.921828 
L 127.274977 72.757359 
L 128.593183 72.650306 
L 128.73965 72.720944 
L 130.497258 72.677693 
L 152.174418 72.551741 
L 176.976215 72.657976 
L 177.366794 72.674642 
L 189.621225 72.782414 
L 190.304739 72.790743 
L 197.091057 72.899002 
L 197.335169 72.923979 
L 209.003731 73.005907 
L 209.247843 73.039188 
L 213.641862 73.145175 
L 213.934797 73.178437 
L 217.498834 73.286512 
L 217.791769 73.311447 
L 223.308704 73.421292 
L 224.23633 73.471127 
L 231.65734 73.564802 
L 231.999097 73.622902 
L 235.758424 73.722476 
L 236.051359 73.747364 
L 241.714761 73.853548 
L 241.958874 73.87733 
L 247.475809 73.972972 
L 247.768743 73.997833 
L 256.556781 74.069659 
L 256.752071 74.11936 
L 260.804333 74.210455 
L 261.194912 74.293243 
L 263.294277 74.400833 
L 263.538389 74.458749 
L 266.516558 74.554116 
L 266.955959 74.587191 
L 270.617642 74.674227 
L 270.910577 74.69902 
L 276.329867 74.79861 
L 276.622801 74.823387 
L 278.770988 74.927928 
L 279.796259 74.993962 
L 284.580858 75.100107 
L 284.971437 75.116607 
L 291.562466 75.223609 
L 291.806578 75.281314 
L 294.931214 75.359767 
L 295.175326 75.39159 
L 296.884111 75.488731 
L 297.274691 75.505201 
L 298.153494 75.594061 
L 298.397607 75.626986 
L 302.059289 75.729971 
L 302.449869 75.745282 
L 305.769794 75.851059 
L 306.160374 75.867505 
L 308.455028 75.964436 
L 308.69914 75.997312 
L 311.042617 76.102404 
L 311.433196 76.118833 
L 313.727851 76.215659 
L 314.069608 76.264923 
L 314.801944 76.371632 
L 315.290169 76.429074 
L 318.561272 76.516992 
L 318.903029 76.582602 
L 322.027664 76.683934 
L 322.467066 76.716717 
L 325.689347 76.803926 
L 325.982282 76.844884 
L 328.130469 76.948999 
L 329.106917 77.006306 
L 333.598581 77.11735 
L 333.989161 77.133713 
L 335.942058 77.172848 
L 344.095404 77.219561 
L 344.095404 77.219561 
" clip-path="url(#p23754cf858)" style="fill: none; stroke: #ff7f0e; stroke-width: 1.8; stroke-linecap: square"/>
   </g>
   <g id="line2d_29">
    <path d="M 77.427273 36.121818 
L 77.476095 36.121818 
L 77.524918 62.789325 
L 77.57374 57.49733 
L 77.76903 47.333056 
L 77.817852 51.659008 
L 77.866675 49.750932 
L 77.964319 47.455312 
L 78.061964 59.598342 
L 78.159609 56.184425 
L 78.208432 54.964528 
L 78.257254 60.622623 
L 78.306077 59.657377 
L 78.403721 57.441425 
L 78.550189 70.372137 
L 78.599011 68.946868 
L 78.647834 67.500476 
L 78.794301 79.014061 
L 79.136058 72.629631 
L 79.282525 77.816422 
L 79.331348 79.721076 
L 79.38017 78.915813 
L 79.477815 76.77075 
L 79.624282 80.528742 
L 79.673105 79.706663 
L 79.819572 82.449406 
L 80.014862 80.990469 
L 80.161329 85.245071 
L 80.210151 84.755822 
L 80.258974 84.008202 
L 80.307796 84.280998 
L 80.356619 84.695187 
L 80.551908 82.452596 
L 80.600731 82.535949 
L 81.088955 79.423501 
L 81.235423 80.68026 
L 81.38189 78.94177 
L 81.430712 80.20037 
L 81.479535 79.54199 
L 81.674824 77.627876 
L 81.723647 79.935851 
L 81.821292 79.57793 
L 82.065404 77.823588 
L 82.114226 78.476999 
L 82.163049 77.994995 
L 82.211871 77.550101 
L 82.358339 80.462765 
L 82.407161 80.06542 
L 82.455983 80.343642 
L 82.504806 80.693695 
L 82.553628 80.189058 
L 82.748918 83.015078 
L 83.041853 81.103051 
L 83.139497 81.698432 
L 83.237142 80.967414 
L 83.285965 81.637097 
L 83.334787 81.198173 
L 83.627722 79.318165 
L 83.676544 79.495282 
L 83.920656 78.019642 
L 83.969479 79.358923 
L 84.018301 79.217183 
L 84.164769 78.252973 
L 84.213591 78.659807 
L 84.311236 78.173852 
L 84.457703 79.263513 
L 84.506526 79.00177 
L 84.555348 79.053435 
L 84.60417 79.739349 
L 84.652993 79.390264 
L 84.750638 79.448273 
L 84.848283 78.821941 
L 84.897105 78.915304 
L 85.141217 77.851264 
L 85.482974 76.249073 
L 85.531797 77.703339 
L 85.629442 77.550473 
L 85.678264 77.264836 
L 85.873554 79.922173 
L 85.971199 79.721076 
L 86.361778 78.064019 
L 86.4106 79.054577 
L 86.459423 78.812079 
L 86.557068 78.446454 
L 86.654713 78.836659 
L 86.752358 78.371993 
L 86.80118 78.676427 
L 86.850002 79.123445 
L 86.947647 79.083912 
L 86.99647 79.117816 
L 87.142937 79.829196 
L 87.191759 79.616844 
L 87.728806 77.53455 
L 87.875273 78.084719 
L 88.021741 77.522689 
L 88.168208 78.158246 
L 88.217031 77.951636 
L 88.265853 78.347079 
L 88.314675 78.132783 
L 88.363498 77.900421 
L 88.41232 78.327822 
L 88.461143 78.133964 
L 88.558788 78.00967 
L 88.656432 79.724017 
L 88.705255 79.536594 
L 88.754077 79.741478 
L 88.8029 79.56722 
L 88.998189 79.09465 
L 89.095834 79.653419 
L 89.242302 79.128929 
L 89.486414 80.402144 
L 89.681704 80.047682 
L 90.023461 81.741751 
L 90.072283 81.581767 
L 90.21875 81.179082 
L 90.706975 79.983186 
L 90.853442 80.47207 
L 90.902264 80.27389 
L 91.048732 80.871592 
L 91.536956 79.528457 
L 91.585778 79.716446 
L 91.634601 79.582592 
L 91.927535 79.662353 
L 91.976358 79.977436 
L 92.074003 79.955565 
L 92.708694 78.403781 
L 92.855162 78.989011 
L 92.903984 78.870421 
L 93.050451 78.455386 
L 93.099274 78.902311 
L 93.148096 78.804162 
L 93.538676 77.923063 
L 93.587498 78.309926 
L 93.636321 78.164828 
L 93.978078 77.433063 
L 94.124545 77.6228 
L 94.22219 78.127007 
L 94.271012 78.029246 
L 94.319835 77.889044 
L 94.368657 78.216718 
L 94.41748 78.095407 
L 94.661592 77.723523 
L 94.710414 77.736873 
L 94.856881 77.50997 
L 94.905704 78.291038 
L 95.003349 78.090516 
L 95.247461 77.631091 
L 95.296283 77.723533 
L 95.491573 78.530832 
L 95.686863 78.090038 
L 95.784508 78.389582 
L 95.83333 78.256409 
L 95.930975 78.048824 
L 95.979797 78.503793 
L 96.02862 78.392293 
L 96.22391 78.103831 
L 96.419199 78.699272 
L 96.614489 78.360253 
L 96.663312 78.578522 
L 96.712134 78.477616 
L 97.151536 77.664711 
L 97.249181 77.735079 
L 97.346826 77.928379 
L 97.395648 77.829169 
L 97.786227 77.235443 
L 97.932695 77.423684 
L 97.981517 77.319375 
L 98.03034 77.378809 
L 98.079162 77.595755 
L 98.127985 77.494765 
L 98.372097 77.123213 
L 98.518564 77.304259 
L 98.567386 77.207407 
L 98.616209 77.476598 
L 98.665031 77.366698 
L 98.811499 77.112521 
L 98.957966 77.547211 
L 99.104433 77.55232 
L 99.153256 77.532182 
L 99.495013 78.237036 
L 99.739125 77.750048 
L 99.787947 77.906273 
L 99.885592 77.862747 
L 100.178527 77.607155 
L 100.227349 77.923806 
L 100.276172 77.882458 
L 100.471461 77.675756 
L 100.520284 77.710773 
L 100.569106 77.652498 
L 100.617929 77.830386 
L 100.666751 77.727596 
L 100.862041 77.387705 
L 100.910863 77.581209 
L 100.959686 77.477664 
L 101.399088 76.843968 
L 101.545555 77.603308 
L 101.6432 77.414503 
L 101.789667 77.153554 
L 101.838489 77.257468 
L 102.326714 76.682284 
L 102.522004 77.398429 
L 103.64492 76.043787 
L 103.693742 76.170763 
L 103.742564 76.094609 
L 104.377256 75.453612 
L 104.426078 75.576986 
L 104.474901 75.530509 
L 104.523723 75.462101 
L 104.572546 75.576076 
L 104.719013 75.739879 
L 104.767835 75.661843 
L 105.646639 74.717114 
L 105.695462 74.98668 
L 105.744284 74.952298 
L 106.086041 74.488426 
L 106.183686 74.687512 
L 106.232508 74.628495 
L 106.378976 74.419329 
L 106.476621 74.77509 
L 106.525443 74.724604 
L 106.916023 74.431646 
L 107.111312 74.442312 
L 107.501892 74.140663 
L 107.550714 74.114859 
L 107.648359 74.603906 
L 107.697181 74.540955 
L 107.892471 74.282612 
L 107.941294 74.418743 
L 107.990116 74.342433 
L 108.624808 73.694557 
L 108.722453 73.852352 
L 108.771275 73.799275 
L 109.503612 73.019615 
L 109.698901 73.279717 
L 110.28477 72.570983 
L 110.333593 72.629788 
L 110.382415 72.565925 
L 110.48006 72.438866 
L 110.528883 72.534407 
L 111.017107 72.092656 
L 111.163574 72.515355 
L 111.212397 72.457464 
L 111.261219 72.403814 
L 111.310042 72.548339 
L 111.358864 72.495534 
L 111.700621 72.216436 
L 111.749443 72.43852 
L 111.798266 72.387375 
L 112.28649 71.99047 
L 112.384135 71.995999 
L 112.725892 71.65448 
L 112.823537 71.865942 
L 112.872359 71.814832 
L 113.360584 71.361336 
L 113.458229 71.557838 
L 113.507051 71.515449 
L 113.555874 71.645583 
L 113.604696 71.618802 
L 114.434677 71.097145 
L 114.4835 71.279599 
L 114.532322 71.227807 
L 114.678789 71.103269 
L 114.727612 71.369826 
L 114.825257 71.290339 
L 115.069369 71.079409 
L 115.215836 71.366349 
L 115.557593 71.124493 
L 115.606416 71.227285 
L 115.655238 71.179046 
L 115.801705 71.091867 
L 115.850528 71.189866 
L 115.89935 71.146846 
L 116.192285 70.92305 
L 116.338752 71.446951 
L 116.387575 71.421372 
L 117.266378 70.799059 
L 117.315201 70.959834 
L 117.364023 70.921203 
L 117.852248 70.691332 
L 117.949893 70.910804 
L 118.047537 70.836844 
L 119.219276 69.976357 
L 119.268098 70.104439 
L 119.316921 70.059038 
L 119.365743 70.015617 
L 119.414566 70.220613 
L 119.463388 70.190749 
L 119.658678 70.071196 
L 119.7075 70.149425 
L 119.756323 70.114836 
L 120.391014 69.761466 
L 120.537481 69.778479 
L 121.220996 69.40346 
L 121.90451 69.140592 
L 122.002154 69.255766 
L 122.050977 69.226363 
L 122.441556 69.039643 
L 122.588024 69.102462 
L 122.978603 68.968554 
L 123.12507 69.099173 
L 123.418005 69.054186 
L 123.564472 69.081276 
L 123.759762 69.102673 
L 123.857407 69.192318 
L 123.906229 69.167631 
L 125.029145 68.708746 
L 125.175613 68.768099 
L 127.226155 68.158593 
L 127.421445 68.141929 
L 128.495538 67.852735 
L 131.815464 67.430057 
L 131.961931 67.468241 
L 133.036024 67.371517 
L 138.748249 67.020911 
L 141.921707 66.974047 
L 151.930306 66.863221 
L 164.819429 66.725195 
L 167.504662 66.813725 
L 167.699952 66.84913 
L 170.87341 66.928774 
L 171.0687 66.981859 
L 174.095691 67.079154 
L 174.290981 67.114527 
L 178.440888 67.191728 
L 178.636177 67.235922 
L 182.249037 67.315454 
L 182.444327 67.350794 
L 189.230645 67.45679 
L 189.425935 67.509773 
L 194.552291 67.617814 
L 194.796403 67.644286 
L 200.069226 67.753668 
L 200.264515 67.806576 
L 205.146759 67.91091 
L 205.342048 67.963786 
L 209.638423 68.068051 
L 209.882535 68.094475 
L 215.301825 68.182536 
L 215.497115 68.226557 
L 224.724555 68.303329 
L 224.919844 68.338529 
L 228.190947 68.426509 
L 228.386237 68.461694 
L 232.926723 68.546677 
L 233.122013 68.581844 
L 238.053079 68.649691 
L 238.248369 68.693629 
L 240.152444 68.763917 
L 240.347733 68.807838 
L 246.597005 68.906743 
L 246.841117 68.933078 
L 251.528071 69.026119 
L 251.72336 69.061213 
L 253.871547 69.140159 
L 254.066837 69.184009 
L 268.5671 69.269381 
L 268.76239 69.313195 
L 274.132857 69.418324 
L 274.474614 69.435841 
L 277.355138 69.529635 
L 277.59925 69.555898 
L 278.282764 69.652179 
L 278.624521 69.669681 
L 283.799699 69.774671 
L 284.092634 69.862133 
L 288.144896 69.958312 
L 288.340185 70.002018 
L 291.855401 70.096605 
L 292.05069 70.131552 
L 297.079401 70.235335 
L 297.421158 70.252801 
L 301.717532 70.320579 
L 301.912822 70.372952 
L 308.064448 70.47611 
L 308.406206 70.493559 
L 311.189084 70.5705 
L 311.384374 70.622824 
L 317.047776 70.689433 
L 317.243066 70.74173 
L 320.172412 70.837583 
L 320.367702 70.872431 
L 323.492337 70.976948 
L 323.785272 71.029193 
L 331.499217 71.129946 
L 331.840974 71.147351 
L 336.772039 71.240934 
L 336.967329 71.275726 
L 341.80075 71.386108 
L 342.044862 71.412188 
L 348.635891 71.519823 
L 348.977648 71.537198 
L 353.811069 71.622989 
L 354.104003 71.657726 
L 361.525013 71.748926 
L 361.769125 71.774965 
L 369.971294 71.883991 
L 370.264229 71.927362 
L 382.567482 72.033049 
L 382.958061 72.067721 
L 387.059146 72.082885 
L 387.693837 72.091009 
L 399.411222 72.199836 
L 399.752979 72.217159 
L 406.19754 72.312417 
L 406.636942 72.364363 
L 417.426699 72.444895 
L 417.426699 72.444895 
" clip-path="url(#p23754cf858)" style="fill: none; stroke: #2ca02c; stroke-width: 1.8; stroke-linecap: square"/>
   </g>
   <g id="line2d_30">
    <path d="M 77.427273 36.121818 
L 77.866675 36.121818 
L 77.964319 74.684339 
L 78.013142 71.906804 
L 78.061964 69.243735 
L 78.110787 82.813652 
L 78.159609 79.551868 
L 78.354899 69.592834 
L 78.501366 110.295746 
L 78.647834 102.35852 
L 78.745478 97.673712 
L 78.843123 109.962507 
L 78.891946 107.250183 
L 79.77075 80.974729 
L 80.210151 74.1163 
L 80.258974 75.396217 
L 80.307796 74.69812 
L 80.503086 72.215075 
L 80.551908 75.905812 
L 80.649553 74.888109 
L 80.942488 71.478256 
L 80.99131 73.393825 
L 81.040133 72.802359 
L 81.57718 67.552937 
L 81.870114 65.650614 
L 81.918937 66.578111 
L 81.967759 66.266059 
L 82.602451 62.713267 
L 82.748918 62.125689 
L 82.79774 64.49204 
L 82.895385 64.054364 
L 83.334787 61.875831 
L 83.38361 61.66761 
L 83.432432 63.248115 
L 83.481254 63.020021 
L 83.774189 61.709177 
L 83.823012 63.070587 
L 83.871834 62.924641 
L 84.164769 61.739737 
L 84.213591 62.841208 
L 84.262413 62.675157 
L 84.99475 60.122908 
L 85.043572 61.368893 
L 85.141217 61.05701 
L 85.678264 59.51215 
L 85.775909 61.010283 
L 85.824731 60.900828 
L 86.459423 59.288952 
L 86.508245 60.931285 
L 86.60589 60.689367 
L 86.850002 60.07319 
L 86.898825 60.71447 
L 86.947647 60.586332 
L 87.191759 59.946549 
L 87.240582 60.513721 
L 87.289404 60.349229 
L 87.631161 59.58301 
L 87.972918 58.796105 
L 88.021741 59.204009 
L 88.070563 59.12755 
L 88.461143 58.257577 
L 88.558788 58.053544 
L 88.60761 58.947879 
L 88.705255 58.755513 
L 88.900545 58.38773 
L 89.047012 59.698242 
L 89.095834 59.586869 
L 89.291124 59.197821 
L 89.632881 58.54759 
L 89.681704 59.460244 
L 89.779348 59.280994 
L 89.876993 59.120252 
L 89.925816 59.426928 
L 89.974638 59.301755 
L 90.072283 59.08978 
L 90.121105 60.613883 
L 90.21875 60.410991 
L 90.560507 59.810025 
L 90.902264 59.189366 
L 91.097554 61.089998 
L 91.341666 60.663641 
L 91.439311 62.277254 
L 91.536956 62.072367 
L 91.829891 61.58312 
L 91.878713 62.024403 
L 91.927535 61.943235 
L 93.050451 60.175118 
L 93.099274 60.331583 
L 93.148096 60.262772 
L 93.245741 60.13498 
L 93.294564 60.919812 
L 93.392208 60.768947 
L 93.685143 60.296018 
L 93.83161 61.897988 
L 94.0269 61.608617 
L 94.075723 62.095102 
L 94.124545 62.006396 
L 94.368657 61.591755 
L 94.466302 62.355744 
L 94.612769 62.118083 
L 95.052171 61.553344 
L 95.100994 61.967114 
L 95.198639 61.864493 
L 95.345106 61.644014 
L 95.393928 62.17089 
L 95.491573 62.028057 
L 95.540396 61.970818 
L 95.686863 63.132745 
L 95.930975 62.808268 
L 95.979797 63.211879 
L 96.02862 63.135471 
L 96.419199 62.681907 
L 96.468022 63.184787 
L 96.565667 63.064248 
L 96.614489 63.30035 
L 96.663312 63.252949 
L 96.760956 63.111732 
L 96.809779 63.527559 
L 96.858601 63.465295 
L 96.907424 63.38182 
L 96.956246 63.596849 
L 97.005069 63.53354 
L 97.151536 63.273959 
L 97.200358 63.618177 
L 97.249181 63.547769 
L 97.786227 62.849175 
L 97.83505 63.142633 
L 97.883872 63.075572 
L 97.932695 63.003819 
L 97.981517 63.271093 
L 98.03034 63.202983 
L 98.079162 63.132711 
L 98.127985 63.618116 
L 98.225629 63.480337 
L 98.274452 63.406335 
L 98.323274 63.878224 
L 98.372097 63.822465 
L 98.567386 63.498737 
L 98.616209 64.051551 
L 98.713854 63.933925 
L 98.860321 63.710202 
L 98.957966 64.337636 
L 99.055611 64.178925 
L 99.83677 63.206514 
L 99.934415 64.027406 
L 99.983237 63.955667 
L 100.422639 63.417303 
L 100.520284 63.51609 
L 100.569106 63.820044 
L 100.617929 63.736051 
L 101.203798 63.084173 
L 101.25262 63.490162 
L 101.301443 63.418232 
L 101.789667 62.909404 
L 101.838489 63.139688 
L 101.887312 63.100758 
L 102.912583 62.003177 
L 102.961405 62.247886 
L 103.010228 62.199272 
L 103.156695 62.02575 
L 103.205518 62.351168 
L 103.303162 62.255736 
L 104.279611 61.381263 
L 104.426078 61.895021 
L 104.572546 61.751153 
L 104.621368 61.984334 
L 104.670191 61.93458 
L 104.86548 61.717026 
L 104.914303 62.045456 
L 105.011948 61.955071 
L 106.818378 60.401941 
L 106.964845 60.276547 
L 107.013667 60.569659 
L 107.111312 60.490352 
L 108.185406 59.593984 
L 108.527163 59.367453 
L 108.575985 59.695331 
L 108.67363 59.611944 
L 108.86892 59.460353 
L 108.917742 59.861756 
L 109.015387 59.773059 
L 109.06421 60.075581 
L 109.161854 59.986593 
L 110.48006 59.032496 
L 110.528883 59.353065 
L 110.626527 59.270013 
L 111.065929 58.968139 
L 111.114752 59.236513 
L 111.212397 59.185824 
L 111.651799 58.881879 
L 111.798266 59.440224 
L 111.847088 59.40231 
L 112.384135 59.026737 
L 112.628247 58.883558 
L 112.67707 59.158177 
L 112.774715 59.101924 
L 112.872359 59.041651 
L 112.921182 59.226196 
L 113.018827 59.166443 
L 113.067649 59.144958 
L 113.116472 59.31987 
L 113.214116 59.26509 
L 113.360584 59.183707 
L 113.409406 59.520865 
L 113.507051 59.454337 
L 113.751163 59.292687 
L 113.799986 59.578116 
L 113.897631 59.513386 
L 113.946453 59.688678 
L 113.995275 59.655026 
L 114.044098 59.624517 
L 114.09292 59.733897 
L 114.141743 59.694833 
L 114.629967 59.401765 
L 114.678789 59.702506 
L 114.776434 59.649111 
L 114.825257 59.629972 
L 114.874079 59.81649 
L 114.971724 59.76966 
L 115.313481 59.575333 
L 115.362304 59.900048 
L 115.459948 59.843483 
L 116.729332 59.182863 
L 116.778154 59.414601 
L 116.875799 59.367141 
L 117.364023 59.113941 
L 117.510491 59.428824 
L 117.608135 59.389881 
L 117.656958 59.60002 
L 117.754603 59.549771 
L 118.877519 59.208969 
L 118.926341 59.375161 
L 119.023986 59.334157 
L 119.805145 58.998169 
L 120.000435 59.370653 
L 120.09808 59.324168 
L 120.146902 59.483229 
L 120.244547 59.443523 
L 121.025706 59.141477 
L 121.172173 59.16721 
L 121.269818 59.116413 
L 121.367463 59.654683 
L 121.51393 59.585858 
L 121.611575 59.545378 
L 121.660397 59.70211 
L 121.758042 59.663089 
L 122.295089 59.528106 
L 122.441556 59.544147 
L 122.734491 59.555035 
L 122.880958 59.629361 
L 123.076248 59.558797 
L 123.12507 59.702209 
L 123.222715 59.658524 
L 123.418005 59.591282 
L 123.466827 59.736445 
L 123.564472 59.701514 
L 124.199164 59.491102 
L 124.247986 59.72196 
L 124.345631 59.684938 
L 124.687388 59.934994 
L 125.077968 59.787272 
L 125.175613 60.076452 
L 125.273258 60.042406 
L 125.907949 59.840147 
L 126.103239 60.146451 
L 126.542641 60.099709 
L 127.372622 60.020933 
L 127.519089 60.115043 
L 127.909669 59.988084 
L 128.056136 60.085937 
L 128.788473 59.909896 
L 128.983762 60.269582 
L 129.276697 60.197905 
L 129.423164 60.29314 
L 129.520809 60.279686 
L 129.667277 60.393035 
L 129.911389 60.334902 
L 130.057856 60.461176 
L 131.034305 60.342586 
L 131.13195 60.68718 
L 131.229594 60.655546 
L 131.766641 60.545939 
L 131.913108 60.661462 
L 132.254866 60.571843 
L 132.401333 60.751306 
L 132.5478 60.726616 
L 132.694267 60.8602 
L 133.133669 60.764877 
L 133.182492 60.999636 
L 133.280137 60.968689 
L 133.475426 60.925966 
L 133.621894 61.042569 
L 133.768361 61.105401 
L 134.207763 61.022444 
L 134.305408 61.194594 
L 134.35423 61.180819 
L 135.867726 60.919003 
L 135.96537 61.090126 
L 136.014193 61.075677 
L 136.307128 61.007388 
L 136.453595 61.166993 
L 136.892997 61.067744 
L 137.039464 61.203385 
L 137.576511 61.098076 
L 137.722978 61.339055 
L 138.16238 61.349615 
L 138.308847 61.422074 
L 138.601782 61.358802 
L 138.748249 61.485161 
L 138.992361 61.43117 
L 139.138829 61.570441 
L 139.627053 61.587863 
L 139.871165 61.872699 
L 140.261745 61.87902 
L 140.408212 61.980483 
L 141.140548 61.83576 
L 141.482305 62.351622 
L 141.531128 62.339472 
L 141.677595 62.436677 
L 141.726418 62.430592 
L 141.872885 62.530821 
L 143.093446 62.281219 
L 143.874605 62.197626 
L 144.021072 62.296604 
L 144.216362 62.266464 
L 144.460474 62.682678 
L 144.851053 62.605205 
L 144.997521 62.770052 
L 145.19281 62.761614 
L 145.339278 62.817058 
L 145.534567 62.770954 
L 145.681035 62.882488 
L 145.973969 62.927305 
L 146.120437 62.982109 
L 146.266904 63.054162 
L 146.413371 63.173271 
L 146.803951 63.17556 
L 146.950418 63.26507 
L 146.99924 63.259972 
L 147.145708 63.382786 
L 147.633932 63.294744 
L 147.780399 63.366543 
L 149.342717 63.148892 
L 149.635652 63.212506 
L 149.782119 63.460473 
L 150.075054 63.495928 
L 150.221521 63.469425 
L 150.465633 63.77066 
L 151.490904 63.56311 
L 151.637372 63.670626 
L 153.053222 63.456722 
L 153.199689 63.505274 
L 153.736736 63.517281 
L 153.883204 63.596704 
L 154.273783 63.789802 
L 155.396699 63.662925 
L 155.543166 63.697057 
L 155.884923 63.646539 
L 156.031391 63.732302 
L 157.056662 63.656068 
L 157.203129 63.753545 
L 157.544886 63.761222 
L 157.691353 63.862385 
L 158.326045 63.861519 
L 158.472512 63.973251 
L 159.400139 63.868115 
L 159.546606 63.96973 
L 159.937185 63.975697 
L 160.083653 64.060393 
L 160.523055 64.078741 
L 160.669522 64.131811 
L 162.475952 63.96385 
L 162.622419 64.015762 
L 162.964176 64.068283 
L 163.110643 64.167568 
L 163.403578 64.229804 
L 163.550045 64.287806 
L 163.891802 64.319164 
L 164.03827 64.380509 
L 165.795877 64.333775 
L 165.942345 64.408304 
L 166.674681 64.413983 
L 170.482831 64.279368 
L 170.629298 64.366425 
L 171.703392 64.3413 
L 171.947504 64.352788 
L 172.777485 64.355597 
L 174.193336 64.280519 
L 174.339803 64.321582 
L 174.48627 64.414626 
L 175.365074 64.436553 
L 175.511542 64.486956 
L 176.439168 64.465178 
L 176.585635 64.515423 
L 177.513261 64.488993 
L 177.708551 64.659042 
L 178.880289 64.637334 
L 179.026757 64.688009 
L 179.807916 64.737218 
L 180.003205 64.855275 
L 181.614346 64.85365 
L 181.760813 64.903439 
L 182.49315 64.949659 
L 182.639617 65.024913 
L 183.616066 64.974616 
L 183.762533 65.05388 
L 184.348402 65.058741 
L 184.494869 65.184166 
L 184.690159 65.171426 
L 184.885449 65.401053 
L 187.814795 65.461849 
L 188.107729 65.524527 
L 188.449486 65.583594 
L 189.865337 65.659931 
L 190.011804 65.711868 
L 190.597674 65.781049 
L 190.744141 65.83674 
L 191.5253 65.902502 
L 191.671767 65.970947 
L 192.501748 66.002812 
L 192.648216 66.089993 
L 193.13644 66.176089 
L 193.52702 66.262349 
L 194.015244 66.352056 
L 194.259356 66.521714 
L 194.991693 66.540225 
L 195.186982 66.651359 
L 195.772851 66.720395 
L 195.919319 66.781096 
L 196.016964 66.854013 
L 196.212253 66.889765 
L 196.651655 66.933266 
L 196.846945 66.9799 
L 197.286347 67.022432 
L 197.481637 67.068129 
L 198.604553 67.102613 
L 198.75102 67.16788 
L 200.55745 67.248078 
L 200.703917 67.304085 
L 203.340329 67.388238 
L 203.535618 67.427188 
L 206.025563 67.47006 
L 206.36732 67.524917 
L 206.806721 67.551985 
L 207.002011 67.698024 
L 207.929637 67.776201 
L 208.124927 67.881492 
L 208.564329 67.947627 
L 208.808441 68.084685 
L 209.540778 68.139338 
L 209.687245 68.212116 
L 210.175469 68.272592 
L 210.321937 68.341215 
L 210.761339 68.419346 
L 211.005451 68.436562 
L 211.59132 68.496913 
L 211.737787 68.559982 
L 213.055993 68.614664 
L 213.20246 68.670874 
L 214.130086 68.774492 
L 214.325376 68.812955 
L 215.00889 68.911058 
L 215.253002 68.9965 
L 215.838872 69.089569 
L 215.985339 69.146549 
L 217.645302 69.219944 
L 217.791769 69.282647 
L 218.279993 69.351115 
L 218.475283 69.419077 
L 218.963507 69.493241 
L 219.158797 69.538655 
L 219.793489 69.643771 
L 219.988778 69.685825 
L 222.869302 69.770601 
L 223.064592 69.804452 
L 223.503994 69.902988 
L 223.699283 69.951032 
L 224.675732 70.02332 
L 226.140405 70.096012 
L 226.286872 70.149673 
L 227.946835 70.24356 
L 228.142125 70.314707 
L 230.534424 70.399755 
L 230.827359 70.421039 
L 246.548182 70.525751 
L 247.573453 70.586484 
L 250.795734 70.691386 
L 251.576893 70.714438 
L 306.306841 70.824542 
L 307.039177 70.832542 
L 395.017203 70.936042 
L 395.749539 70.94404 
L 403.170549 70.960033 
L 403.170549 70.960033 
" clip-path="url(#p23754cf858)" style="fill: none; stroke: #d62728; stroke-width: 1.8; stroke-linecap: square"/>
   </g>
   <g id="line2d_31">
    <path d="M 77.427273 249.758182 
L 77.524918 141.075688 
L 77.57374 147.299926 
L 77.817852 99.593875 
L 78.061964 80.945245 
L 78.208432 73.016479 
L 78.306077 78.638949 
L 78.354899 76.170005 
L 78.599011 67.996906 
L 78.647834 71.882726 
L 78.696656 70.443615 
L 78.940768 64.773332 
L 79.087235 66.220428 
L 79.38017 61.429609 
L 79.526637 65.159382 
L 80.014862 59.598342 
L 80.503086 55.855707 
L 80.99131 53.05114 
L 81.528357 50.784922 
L 82.358339 48.204616 
L 83.090675 46.640774 
L 83.969479 45.221807 
L 85.092395 43.912883 
L 88.021741 41.758456 
L 88.949367 41.333908 
L 91.536956 40.366327 
L 95.003349 39.515732 
L 97.151536 39.149027 
L 102.375536 38.509369 
L 108.575985 38.032993 
L 115.948173 37.665087 
L 125.663837 37.411605 
L 128.690828 37.488882 
L 129.227875 37.568072 
L 129.471987 37.62965 
L 130.93666 37.726112 
L 131.180772 37.752485 
L 132.5478 37.831568 
L 132.74309 37.875507 
L 136.16066 37.962915 
L 136.404772 37.989261 
L 138.552959 38.059227 
L 138.748249 38.111894 
L 138.992361 38.155658 
L 141.189371 38.260942 
L 141.433483 38.304799 
L 143.093446 38.401197 
L 143.435203 38.418567 
L 146.706306 38.523368 
L 146.901596 38.558345 
L 148.659203 38.654446 
L 148.903315 38.750761 
L 150.319166 38.838216 
L 150.563278 38.864471 
L 151.881484 38.960635 
L 152.223241 39.021531 
L 155.982568 39.126154 
L 156.275503 39.178597 
L 158.03311 39.265893 
L 158.2284 39.318311 
L 159.888363 39.414008 
L 160.132475 39.440203 
L 163.745335 39.527501 
L 163.940625 39.597321 
L 166.772326 39.692836 
L 166.967616 39.736446 
L 170.336364 39.814929 
L 170.580476 39.884674 
L 176.829747 39.988706 
L 177.073859 40.014844 
L 179.661448 40.093243 
L 179.856738 40.145498 
L 184.29958 40.24098 
L 184.543692 40.266915 
L 186.789524 40.336175 
L 186.984813 40.379678 
L 190.060627 40.45722 
L 190.255916 40.492003 
L 193.722309 40.59575 
L 193.917599 40.630512 
L 195.33345 40.7174 
L 195.626384 40.769122 
L 196.798123 40.864305 
L 197.13988 40.881191 
L 200.996852 40.984156 
L 202.217413 41.096063 
L 205.049114 41.17315 
L 205.293226 41.277136 
L 207.392591 41.372425 
L 207.880815 41.441708 
L 208.954909 41.519477 
L 209.150198 41.562758 
L 212.616591 41.648274 
L 213.104815 41.786667 
L 214.130086 41.87313 
L 214.374199 41.899064 
L 215.448292 41.994137 
L 215.790049 42.010831 
L 217.791769 42.105517 
L 218.035881 42.131427 
L 221.306984 42.216733 
L 221.599919 42.268523 
L 224.919844 42.362646 
L 225.163956 42.388527 
L 226.384517 42.48313 
L 226.579807 42.526243 
L 229.216218 42.620885 
L 229.411508 42.65536 
L 231.901452 42.758192 
L 232.731434 42.792648 
L 237.369565 42.902668 
L 237.564855 42.945704 
L 240.005976 43.031758 
L 240.250088 43.057569 
L 241.665939 43.151591 
L 242.007696 43.220383 
L 245.571734 43.330494 
L 245.962313 43.364864 
L 247.134051 43.442181 
L 247.329341 43.476538 
L 248.989304 43.562414 
L 249.233416 43.631097 
L 251.088669 43.72551 
L 251.283958 43.811314 
L 251.967472 43.819894 
L 252.504519 43.905671 
L 252.748631 43.9314 
L 255.92209 44.033842 
L 256.117379 44.067903 
L 257.630875 44.136465 
L 257.826164 44.187876 
L 259.632594 44.273542 
L 259.876707 44.299237 
L 262.269006 44.410085 
L 262.610763 44.427206 
L 265.003062 44.537874 
L 265.247174 44.563543 
L 267.932408 44.64909 
L 268.127698 44.700407 
L 269.201791 44.794466 
L 269.445904 44.862853 
L 274.376969 44.972442 
L 274.572259 45.006611 
L 274.962839 45.109097 
L 275.499885 45.185938 
L 277.40396 45.296506 
L 277.59925 45.339169 
L 278.429231 45.415948 
L 278.624521 45.458595 
L 281.4074 45.56784 
L 281.749157 45.729755 
L 283.653232 45.839386 
L 283.994989 45.907502 
L 286.582578 46.015914 
L 286.82669 46.041439 
L 287.998428 46.109493 
L 288.193718 46.194111 
L 288.974877 46.27913 
L 289.170167 46.312842 
L 291.318354 46.414236 
L 291.562466 46.439723 
L 293.417718 46.54165 
L 293.613008 46.626563 
L 294.687102 46.736914 
L 294.931214 46.762374 
L 295.468261 46.872675 
L 295.66355 46.906606 
L 296.542354 46.999895 
L 296.835289 47.084678 
L 299.959925 47.185761 
L 300.155214 47.219654 
L 301.717532 47.311575 
L 301.912822 47.345451 
L 305.574504 47.446253 
L 305.769794 47.522427 
L 309.333832 47.602501 
L 309.529121 47.636327 
L 311.286729 47.712422 
L 311.482019 47.754688 
L 312.263178 47.847654 
L 312.458467 47.889901 
L 316.266617 47.988759 
L 316.510729 48.022534 
L 317.975402 48.132277 
L 318.219515 48.166036 
L 319.73301 48.24198 
L 319.9283 48.284163 
L 322.369421 48.39087 
L 322.613534 48.466738 
L 324.95701 48.542587 
L 325.103478 48.609992 
L 329.399852 48.701055 
L 329.643964 48.734737 
L 330.522768 48.827344 
L 330.669235 48.894676 
L 333.354469 48.986147 
L 333.598581 49.011382 
L 336.332637 49.120713 
L 337.211441 49.162753 
L 338.578469 49.263254 
L 338.773759 49.322078 
L 341.019591 49.431291 
L 341.556638 49.515275 
L 344.046582 49.607629 
L 344.290694 49.716739 
L 347.317685 49.813762 
L 347.659442 49.871882 
L 350.63761 49.972479 
L 350.8329 50.014384 
L 351.760526 50.114933 
L 352.004639 50.173571 
L 354.933985 50.280252 
L 355.324564 50.296995 
L 357.521574 50.387261 
L 357.765686 50.42073 
L 358.64449 50.511133 
L 358.986247 50.585783 
L 360.987966 50.660408 
L 361.280901 50.785756 
L 362.794396 50.894347 
L 363.136153 51.011248 
L 364.844939 51.119758 
L 365.089051 51.144793 
L 365.723742 51.244912 
L 365.967855 51.269936 
L 367.578995 51.369586 
L 367.823107 51.402937 
L 370.313051 51.491187 
L 370.703631 51.591164 
L 371.728902 51.698344 
L 371.924191 51.739973 
L 375.439407 51.83722 
L 375.683519 51.878822 
L 377.245837 51.985408 
L 377.636416 52.00204 
L 380.028715 52.091711 
L 380.224005 52.14158 
L 380.51694 52.166511 
L 382.909239 52.273845 
L 383.153351 52.331986 
L 384.178622 52.414342 
L 384.32509 52.472454 
L 386.13152 52.554073 
L 386.375632 52.587262 
L 388.426174 52.669526 
L 388.621464 52.744165 
L 391.306698 52.833964 
L 391.648455 52.891981 
L 394.870735 52.97202 
L 395.114847 53.021718 
L 398.190661 53.112097 
L 398.483595 53.136934 
L 399.850623 53.219709 
L 400.045913 53.269364 
L 400.338848 53.294187 
L 402.291745 53.382784 
L 402.487035 53.423169 
L 403.707596 53.504636 
L 403.902885 53.545964 
L 405.562848 53.644395 
L 405.953428 53.66918 
L 406.734587 53.726267 
L 406.929876 53.825362 
L 408.150437 53.924423 
L 408.833951 54.048204 
L 411.958587 54.15343 
L 412.251522 54.227639 
L 413.276793 54.3173 
L 413.61855 54.366744 
L 416.792008 54.453545 
L 417.084942 54.519424 
L 418.110214 54.601753 
L 418.305503 54.632361 
L 419.721354 54.713355 
L 420.014288 54.794835 
L 425.628868 54.897036 
L 425.970625 54.946348 
L 426.800607 55.044159 
L 427.093541 55.068803 
L 427.581766 55.117029 
L 428.558214 55.223241 
L 428.753504 55.264284 
L 429.68113 55.361697 
L 429.925242 55.394515 
L 431.145803 55.484746 
L 431.438738 55.51755 
L 433.147523 55.624139 
L 433.48928 55.681517 
L 435.198065 55.787228 
L 435.68629 55.844572 
L 437.346252 55.942301 
L 437.590364 55.975052 
L 438.810925 56.037782 
L 440.177953 56.134315 
L 440.373243 56.183397 
L 444.181393 56.293699 
L 444.376683 56.33457 
L 447.013094 56.397426 
L 447.159561 56.462786 
L 449.112459 56.552633 
L 449.454216 56.601629 
L 450.918889 56.67397 
L 451.114179 56.722943 
L 452.578852 56.811274 
L 452.822964 56.884691 
L 456.728758 56.978513 
L 457.070515 57.049848 
L 458.388721 57.154317 
L 458.632833 57.211333 
L 458.97459 57.316312 
L 459.218703 57.348874 
L 464.637993 57.454678 
L 465.028572 57.470952 
L 468.543787 57.565912 
L 468.934367 57.582178 
L 470.936087 57.687884 
L 471.180199 57.720401 
L 473.181919 57.825159 
L 473.474853 57.890157 
L 473.865433 57.905502 
L 474.256012 58.001152 
L 475.867152 58.103051 
L 476.160087 58.184195 
L 478.357096 58.280927 
L 478.601209 58.378236 
L 479.968237 58.475512 
L 480.212349 58.507005 
L 483.629919 58.611096 
L 484.313433 58.619196 
L 486.168686 58.627296 
L 486.168686 58.627296 
" clip-path="url(#p23754cf858)" style="fill: none; stroke: #9467bd; stroke-width: 1.8; stroke-linecap: square"/>
   </g>
   <g id="patch_3">
    <path d="M 54.2 260.44 
L 54.2 25.44 
" style="fill: none; stroke: #000000; stroke-width: 0.8; stroke-linejoin: miter; stroke-linecap: square"/>
   </g>
   <g id="patch_4">
    <path d="M 565.2 260.44 
L 565.2 25.44 
" style="fill: none; stroke: #000000; stroke-width: 0.8; stroke-linejoin: miter; stroke-linecap: square"/>
   </g>
   <g id="patch_5">
    <path d="M 54.2 260.44 
L 565.2 260.44 
" style="fill: none; stroke: #000000; stroke-width: 0.8; stroke-linejoin: miter; stroke-linecap: square"/>
   </g>
   <g id="patch_6">
    <path d="M 54.2 25.44 
L 565.2 25.44 
" style="fill: none; stroke: #000000; stroke-width: 0.8; stroke-linejoin: miter; stroke-linecap: square"/>
   </g>
   <g id="text_16">
    <!-- Timely Transfer Rate (Cumulative) -->
    <g transform="translate(207.277187 19.44) scale(0.12 -0.12)">
     <defs>
      <path id="DejaVuSans-54" d="M -19 4666 
L 3928 4666 
L 3928 4134 
L 2272 4134 
L 2272 0 
L 1638 0 
L 1638 4134 
L -19 4134 
L -19 4666 
z
" transform="scale(0.015625)"/>
      <path id="DejaVuSans-52" d="M 2841 2188 
Q 3044 2119 3236 1894 
Q 3428 1669 3622 1275 
L 4263 0 
L 3584 0 
L 2988 1197 
Q 2756 1666 2539 1819 
Q 2322 1972 1947 1972 
L 1259 1972 
L 1259 0 
L 628 0 
L 628 4666 
L 2053 4666 
Q 2853 4666 3247 4331 
Q 3641 3997 3641 3322 
Q 3641 2881 3436 2590 
Q 3231 2300 2841 2188 
z
M 1259 4147 
L 1259 2491 
L 2053 2491 
Q 2509 2491 2742 2702 
Q 2975 2913 2975 3322 
Q 2975 3731 2742 3939 
Q 2509 4147 2053 4147 
L 1259 4147 
z
" transform="scale(0.015625)"/>
      <path id="DejaVuSans-28" d="M 1984 4856 
Q 1566 4138 1362 3434 
Q 1159 2731 1159 2009 
Q 1159 1288 1364 580 
Q 1569 -128 1984 -844 
L 1484 -844 
Q 1016 -109 783 600 
Q 550 1309 550 2009 
Q 550 2706 781 3412 
Q 1013 4119 1484 4856 
L 1984 4856 
z
" transform="scale(0.015625)"/>
      <path id="DejaVuSans-43" d="M 4122 4306 
L 4122 3641 
Q 3803 3938 3442 4084 
Q 3081 4231 2675 4231 
Q 1875 4231 1450 3742 
Q 1025 3253 1025 2328 
Q 1025 1406 1450 917 
Q 1875 428 2675 428 
Q 3081 428 3442 575 
Q 3803 722 4122 1019 
L 4122 359 
Q 3791 134 3420 21 
Q 3050 -91 2638 -91 
Q 1578 -91 968 557 
Q 359 1206 359 2328 
Q 359 3453 968 4101 
Q 1578 4750 2638 4750 
Q 3056 4750 3426 4639 
Q 3797 4528 4122 4306 
z
" transform="scale(0.015625)"/>
      <path id="DejaVuSans-29" d="M 513 4856 
L 1013 4856 
Q 1481 4119 1714 3412 
Q 1947 2706 1947 2009 
Q 1947 1309 1714 600 
Q 1481 -109 1013 -844 
L 513 -844 
Q 928 -128 1133 580 
Q 1338 1288 1338 2009 
Q 1338 2731 1133 3434 
Q 928 4138 513 4856 
z
" transform="scale(0.015625)"/>
     </defs>
     <use xlink:href="#DejaVuSans-54"/>
     <use xlink:href="#DejaVuSans-69" x="57.958984"/>
     <use xlink:href="#DejaVuSans-6d" x="85.742188"/>
     <use xlink:href="#DejaVuSans-65" x="183.154297"/>
     <use xlink:href="#DejaVuSans-6c" x="244.677734"/>
     <use xlink:href="#DejaVuSans-79" x="272.460938"/>
     <use xlink:href="#DejaVuSans-20" x="331.640625"/>
     <use xlink:href="#DejaVuSans-54" x="363.427734"/>
     <use xlink:href="#DejaVuSans-72" x="409.761719"/>
     <use xlink:href="#DejaVuSans-61" x="450.875"/>
     <use xlink:href="#DejaVuSans-6e" x="512.154297"/>
     <use xlink:href="#DejaVuSans-73" x="575.533203"/>
     <use xlink:href="#DejaVuSans-66" x="627.632812"/>
     <use xlink:href="#DejaVuSans-65" x="662.837891"/>
     <use xlink:href="#DejaVuSans-72" x="724.361328"/>
     <use xlink:href="#DejaVuSans-20" x="765.474609"/>
     <use xlink:href="#DejaVuSans-52" x="797.261719"/>
     <use xlink:href="#DejaVuSans-61" x="864.494141"/>
     <use xlink:href="#DejaVuSans-74" x="925.773438"/>
     <use xlink:href="#DejaVuSans-65" x="964.982422"/>
     <use xlink:href="#DejaVuSans-20" x="1026.505859"/>
     <use xlink:href="#DejaVuSans-28" x="1058.292969"/>
     <use xlink:href="#DejaVuSans-43" x="1097.306641"/>
     <use xlink:href="#DejaVuSans-75" x="1167.130859"/>
     <use xlink:href="#DejaVuSans-6d" x="1230.509766"/>
     <use xlink:href="#DejaVuSans-75" x="1327.921875"/>
     <use xlink:href="#DejaVuSans-6c" x="1391.300781"/>
     <use xlink:href="#DejaVuSans-61" x="1419.083984"/>
     <use xlink:href="#DejaVuSans-74" x="1480.363281"/>
     <use xlink:href="#DejaVuSans-69" x="1519.572266"/>
     <use xlink:href="#DejaVuSans-76" x="1547.355469"/>
     <use xlink:href="#DejaVuSans-65" x="1606.535156"/>
     <use xlink:href="#DejaVuSans-29" x="1668.058594"/>
    </g>
   </g>
   <g id="legend_1">
    <g id="patch_7">
     <path d="M 473.826562 255.44 
L 558.2 255.44 
Q 560.2 255.44 560.2 253.44 
L 560.2 180.493125 
Q 560.2 178.493125 558.2 178.493125 
L 473.826562 178.493125 
Q 471.826562 178.493125 471.826562 180.493125 
L 471.826562 253.44 
Q 471.826562 255.44 473.826562 255.44 
z
" style="fill: #ffffff; opacity: 0.8; stroke: #cccccc; stroke-linejoin: miter"/>
    </g>
    <g id="line2d_32">
     <path d="M 475.826562 186.591563 
L 485.826562 186.591563 
L 495.826562 186.591563 
" style="fill: none; stroke: #1f77b4; stroke-width: 1.8; stroke-linecap: square"/>
    </g>
    <g id="text_17">
     <!-- SHEER -->
     <g transform="translate(503.826562 190.091563) scale(0.1 -0.1)">
      <defs>
       <path id="DejaVuSans-53" d="M 3425 4513 
L 3425 3897 
Q 3066 4069 2747 4153 
Q 2428 4238 2131 4238 
Q 1616 4238 1336 4038 
Q 1056 3838 1056 3469 
Q 1056 3159 1242 3001 
Q 1428 2844 1947 2747 
L 2328 2669 
Q 3034 2534 3370 2195 
Q 3706 1856 3706 1288 
Q 3706 609 3251 259 
Q 2797 -91 1919 -91 
Q 1588 -91 1214 -16 
Q 841 59 441 206 
L 441 856 
Q 825 641 1194 531 
Q 1563 422 1919 422 
Q 2459 422 2753 634 
Q 3047 847 3047 1241 
Q 3047 1584 2836 1778 
Q 2625 1972 2144 2069 
L 1759 2144 
Q 1053 2284 737 2584 
Q 422 2884 422 3419 
Q 422 4038 858 4394 
Q 1294 4750 2059 4750 
Q 2388 4750 2728 4690 
Q 3069 4631 3425 4513 
z
" transform="scale(0.015625)"/>
       <path id="DejaVuSans-48" d="M 628 4666 
L 1259 4666 
L 1259 2753 
L 3553 2753 
L 3553 4666 
L 4184 4666 
L 4184 0 
L 3553 0 
L 3553 2222 
L 1259 2222 
L 1259 0 
L 628 0 
L 628 4666 
z
" transform="scale(0.015625)"/>
       <path id="DejaVuSans-45" d="M 628 4666 
L 3578 4666 
L 3578 4134 
L 1259 4134 
L 1259 2753 
L 3481 2753 
L 3481 2222 
L 1259 2222 
L 1259 531 
L 3634 531 
L 3634 0 
L 628 0 
L 628 4666 
z
" transform="scale(0.015625)"/>
      </defs>
      <use xlink:href="#DejaVuSans-53"/>
      <use xlink:href="#DejaVuSans-48" x="63.476562"/>
      <use xlink:href="#DejaVuSans-45" x="138.671875"/>
      <use xlink:href="#DejaVuSans-45" x="201.855469"/>
      <use xlink:href="#DejaVuSans-52" x="265.039062"/>
     </g>
    </g>
    <g id="line2d_33">
     <path d="M 475.826562 201.269688 
L 485.826562 201.269688 
L 495.826562 201.269688 
" style="fill: none; stroke: #ff7f0e; stroke-width: 1.8; stroke-linecap: square"/>
    </g>
    <g id="text_18">
     <!-- ACTAR -->
     <g transform="translate(503.826562 204.769688) scale(0.1 -0.1)">
      <defs>
       <path id="DejaVuSans-41" d="M 2188 4044 
L 1331 1722 
L 3047 1722 
L 2188 4044 
z
M 1831 4666 
L 2547 4666 
L 4325 0 
L 3669 0 
L 3244 1197 
L 1141 1197 
L 716 0 
L 50 0 
L 1831 4666 
z
" transform="scale(0.015625)"/>
      </defs>
      <use xlink:href="#DejaVuSans-41"/>
      <use xlink:href="#DejaVuSans-43" x="66.658203"/>
      <use xlink:href="#DejaVuSans-54" x="136.482422"/>
      <use xlink:href="#DejaVuSans-41" x="189.816406"/>
      <use xlink:href="#DejaVuSans-52" x="258.224609"/>
     </g>
    </g>
    <g id="line2d_34">
     <path d="M 475.826562 215.947813 
L 485.826562 215.947813 
L 495.826562 215.947813 
" style="fill: none; stroke: #2ca02c; stroke-width: 1.8; stroke-linecap: square"/>
    </g>
    <g id="text_19">
     <!-- TFSM_DPC -->
     <g transform="translate(503.826562 219.447813) scale(0.1 -0.1)">
      <defs>
       <path id="DejaVuSans-46" d="M 628 4666 
L 3309 4666 
L 3309 4134 
L 1259 4134 
L 1259 2759 
L 3109 2759 
L 3109 2228 
L 1259 2228 
L 1259 0 
L 628 0 
L 628 4666 
z
" transform="scale(0.015625)"/>
       <path id="DejaVuSans-4d" d="M 628 4666 
L 1569 4666 
L 2759 1491 
L 3956 4666 
L 4897 4666 
L 4897 0 
L 4281 0 
L 4281 4097 
L 3078 897 
L 2444 897 
L 1241 4097 
L 1241 0 
L 628 0 
L 628 4666 
z
" transform="scale(0.015625)"/>
       <path id="DejaVuSans-5f" d="M 3263 -1063 
L 3263 -1509 
L -63 -1509 
L -63 -1063 
L 3263 -1063 
z
" transform="scale(0.015625)"/>
       <path id="DejaVuSans-44" d="M 1259 4147 
L 1259 519 
L 2022 519 
Q 2988 519 3436 956 
Q 3884 1394 3884 2338 
Q 3884 3275 3436 3711 
Q 2988 4147 2022 4147 
L 1259 4147 
z
M 628 4666 
L 1925 4666 
Q 3281 4666 3915 4102 
Q 4550 3538 4550 2338 
Q 4550 1131 3912 565 
Q 3275 0 1925 0 
L 628 0 
L 628 4666 
z
" transform="scale(0.015625)"/>
       <path id="DejaVuSans-50" d="M 1259 4147 
L 1259 2394 
L 2053 2394 
Q 2494 2394 2734 2622 
Q 2975 2850 2975 3272 
Q 2975 3691 2734 3919 
Q 2494 4147 2053 4147 
L 1259 4147 
z
M 628 4666 
L 2053 4666 
Q 2838 4666 3239 4311 
Q 3641 3956 3641 3272 
Q 3641 2581 3239 2228 
Q 2838 1875 2053 1875 
L 1259 1875 
L 1259 0 
L 628 0 
L 628 4666 
z
" transform="scale(0.015625)"/>
      </defs>
      <use xlink:href="#DejaVuSans-54"/>
      <use xlink:href="#DejaVuSans-46" x="61.083984"/>
      <use xlink:href="#DejaVuSans-53" x="116.853516"/>
      <use xlink:href="#DejaVuSans-4d" x="180.330078"/>
      <use xlink:href="#DejaVuSans-5f" x="266.609375"/>
      <use xlink:href="#DejaVuSans-44" x="316.609375"/>
      <use xlink:href="#DejaVuSans-50" x="393.611328"/>
      <use xlink:href="#DejaVuSans-43" x="453.914062"/>
     </g>
    </g>
    <g id="line2d_35">
     <path d="M 475.826562 230.904063 
L 485.826562 230.904063 
L 495.826562 230.904063 
" style="fill: none; stroke: #d62728; stroke-width: 1.8; stroke-linecap: square"/>
    </g>
    <g id="text_20">
     <!-- DST_WOA -->
     <g transform="translate(503.826562 234.404063) scale(0.1 -0.1)">
      <defs>
       <path id="DejaVuSans-57" d="M 213 4666 
L 850 4666 
L 1831 722 
L 2809 4666 
L 3519 4666 
L 4500 722 
L 5478 4666 
L 6119 4666 
L 4947 0 
L 4153 0 
L 3169 4050 
L 2175 0 
L 1381 0 
L 213 4666 
z
" transform="scale(0.015625)"/>
       <path id="DejaVuSans-4f" d="M 2522 4238 
Q 1834 4238 1429 3725 
Q 1025 3213 1025 2328 
Q 1025 1447 1429 934 
Q 1834 422 2522 422 
Q 3209 422 3611 934 
Q 4013 1447 4013 2328 
Q 4013 3213 3611 3725 
Q 3209 4238 2522 4238 
z
M 2522 4750 
Q 3503 4750 4090 4092 
Q 4678 3434 4678 2328 
Q 4678 1225 4090 567 
Q 3503 -91 2522 -91 
Q 1538 -91 948 565 
Q 359 1222 359 2328 
Q 359 3434 948 4092 
Q 1538 4750 2522 4750 
z
" transform="scale(0.015625)"/>
      </defs>
      <use xlink:href="#DejaVuSans-44"/>
      <use xlink:href="#DejaVuSans-53" x="77.001953"/>
      <use xlink:href="#DejaVuSans-54" x="140.478516"/>
      <use xlink:href="#DejaVuSans-5f" x="201.5625"/>
      <use xlink:href="#DejaVuSans-57" x="251.5625"/>
      <use xlink:href="#DejaVuSans-4f" x="350.439453"/>
      <use xlink:href="#DejaVuSans-41" x="427.400391"/>
     </g>
    </g>
    <g id="line2d_36">
     <path d="M 475.826562 245.860313 
L 485.826562 245.860313 
L 495.826562 245.860313 
" style="fill: none; stroke: #9467bd; stroke-width: 1.8; stroke-linecap: square"/>
    </g>
    <g id="text_21">
     <!-- TRAIL -->
     <g transform="translate(503.826562 249.360313) scale(0.1 -0.1)">
      <defs>
       <path id="DejaVuSans-49" d="M 628 4666 
L 1259 4666 
L 1259 0 
L 628 0 
L 628 4666 
z
" transform="scale(0.015625)"/>
       <path id="DejaVuSans-4c" d="M 628 4666 
L 1259 4666 
L 1259 531 
L 3531 531 
L 3531 0 
L 628 0 
L 628 4666 
z
" transform="scale(0.015625)"/>
      </defs>
      <use xlink:href="#DejaVuSans-54"/>
      <use xlink:href="#DejaVuSans-52" x="61.083984"/>
      <use xlink:href="#DejaVuSans-41" x="126.566406"/>
      <use xlink:href="#DejaVuSans-49" x="194.974609"/>
      <use xlink:href="#DejaVuSans-4c" x="224.466797"/>
     </g>
    </g>
   </g>
  </g>
 </g>
 <defs>
  <clipPath id="p23754cf858">
   <rect x="54.2" y="25.44" width="511" height="235"/>
  </clipPath>
 </defs>
</svg>
