<?xml version="1.0" encoding="utf-8" standalone="no"?>
<!DOCTYPE svg PUBLIC "-//W3C//DTD SVG 1.1//EN"
  "http://www.w3.org/Graphics/SVG/1.1/DTD/svg11.dtd">
<svg xmlns:xlink="http://www.w3.org/1999/xlink" width="576pt" height="302.4pt" viewBox="0 0 576 302.4" xmlns="http://www.w3.org/2000/svg" version="1.1">
 <metadata>
  <rdf:RDF xmlns:dc="http://purl.org/dc/elements/1.1/" xmlns:cc="http://creativecommons.org/ns#" xmlns:rdf="http://www.w3.org/1999/02/22-rdf-syntax-ns#">
   <cc:Work>
    <dc:type rdf:resource="http://purl.org/dc/dcmitype/StillImage"/>
    <dc:date>2025-09-07T17:56:46.985632</dc:date>
    <dc:format>image/svg+xml</dc:format>
    <dc:creator>
     <cc:Agent>
      <dc:title>Matplotlib v3.9.4, https://matplotlib.org/</dc:title>
     </cc:Agent>
    </dc:creator>
   </cc:Work>
  </rdf:RDF>
 </metadata>
 <defs>
  <style type="text/css">*{stroke-linejoin: round; stroke-linecap: butt}</style>
 </defs>
 <g id="figure_1">
  <g id="patch_1">
   <path d="M 0 302.4 
L 576 302.4 
L 576 0 
L 0 0 
z
" style="fill: #ffffff"/>
  </g>
  <g id="axes_1">
   <g id="patch_2">
    <path d="M 54.2 260.44 
L 565.2 260.44 
L 565.2 25.44 
L 54.2 25.44 
z
" style="fill: #ffffff"/>
   </g>
   <g id="matplotlib.axis_1">
    <g id="xtick_1">
     <g id="line2d_1">
      <path d="M 77.360719 260.44 
L 77.360719 25.44 
" clip-path="url(#p11f434d9a2)" style="fill: none; stroke-dasharray: 2.96,1.28; stroke-dashoffset: 0; stroke: #b0b0b0; stroke-opacity: 0.3; stroke-width: 0.8"/>
     </g>
     <g id="line2d_2">
      <defs>
       <path id="m13e30c4537" d="M 0 0 
L 0 3.5 
" style="stroke: #000000; stroke-width: 0.8"/>
      </defs>
      <g>
       <use xlink:href="#m13e30c4537" x="77.360719" y="260.44" style="stroke: #000000; stroke-width: 0.8"/>
      </g>
     </g>
     <g id="text_1">
      <!-- 0 -->
      <g transform="translate(74.179469 275.038438) scale(0.1 -0.1)">
       <defs>
        <path id="DejaVuSans-30" d="M 2034 4250 
Q 1547 4250 1301 3770 
Q 1056 3291 1056 2328 
Q 1056 1369 1301 889 
Q 1547 409 2034 409 
Q 2525 409 2770 889 
Q 3016 1369 3016 2328 
Q 3016 3291 2770 3770 
Q 2525 4250 2034 4250 
z
M 2034 4750 
Q 2819 4750 3233 4129 
Q 3647 3509 3647 2328 
Q 3647 1150 3233 529 
Q 2819 -91 2034 -91 
Q 1250 -91 836 529 
Q 422 1150 422 2328 
Q 422 3509 836 4129 
Q 1250 4750 2034 4750 
z
" transform="scale(0.015625)"/>
       </defs>
       <use xlink:href="#DejaVuSans-30"/>
      </g>
     </g>
    </g>
    <g id="xtick_2">
     <g id="line2d_3">
      <path d="M 143.914509 260.44 
L 143.914509 25.44 
" clip-path="url(#p11f434d9a2)" style="fill: none; stroke-dasharray: 2.96,1.28; stroke-dashoffset: 0; stroke: #b0b0b0; stroke-opacity: 0.3; stroke-width: 0.8"/>
     </g>
     <g id="line2d_4">
      <g>
       <use xlink:href="#m13e30c4537" x="143.914509" y="260.44" style="stroke: #000000; stroke-width: 0.8"/>
      </g>
     </g>
     <g id="text_2">
      <!-- 1000 -->
      <g transform="translate(131.189509 275.038438) scale(0.1 -0.1)">
       <defs>
        <path id="DejaVuSans-31" d="M 794 531 
L 1825 531 
L 1825 4091 
L 703 3866 
L 703 4441 
L 1819 4666 
L 2450 4666 
L 2450 531 
L 3481 531 
L 3481 0 
L 794 0 
L 794 531 
z
" transform="scale(0.015625)"/>
       </defs>
       <use xlink:href="#DejaVuSans-31"/>
       <use xlink:href="#DejaVuSans-30" x="63.623047"/>
       <use xlink:href="#DejaVuSans-30" x="127.246094"/>
       <use xlink:href="#DejaVuSans-30" x="190.869141"/>
      </g>
     </g>
    </g>
    <g id="xtick_3">
     <g id="line2d_5">
      <path d="M 210.468299 260.44 
L 210.468299 25.44 
" clip-path="url(#p11f434d9a2)" style="fill: none; stroke-dasharray: 2.96,1.28; stroke-dashoffset: 0; stroke: #b0b0b0; stroke-opacity: 0.3; stroke-width: 0.8"/>
     </g>
     <g id="line2d_6">
      <g>
       <use xlink:href="#m13e30c4537" x="210.468299" y="260.44" style="stroke: #000000; stroke-width: 0.8"/>
      </g>
     </g>
     <g id="text_3">
      <!-- 2000 -->
      <g transform="translate(197.743299 275.038438) scale(0.1 -0.1)">
       <defs>
        <path id="DejaVuSans-32" d="M 1228 531 
L 3431 531 
L 3431 0 
L 469 0 
L 469 531 
Q 828 903 1448 1529 
Q 2069 2156 2228 2338 
Q 2531 2678 2651 2914 
Q 2772 3150 2772 3378 
Q 2772 3750 2511 3984 
Q 2250 4219 1831 4219 
Q 1534 4219 1204 4116 
Q 875 4013 500 3803 
L 500 4441 
Q 881 4594 1212 4672 
Q 1544 4750 1819 4750 
Q 2544 4750 2975 4387 
Q 3406 4025 3406 3419 
Q 3406 3131 3298 2873 
Q 3191 2616 2906 2266 
Q 2828 2175 2409 1742 
Q 1991 1309 1228 531 
z
" transform="scale(0.015625)"/>
       </defs>
       <use xlink:href="#DejaVuSans-32"/>
       <use xlink:href="#DejaVuSans-30" x="63.623047"/>
       <use xlink:href="#DejaVuSans-30" x="127.246094"/>
       <use xlink:href="#DejaVuSans-30" x="190.869141"/>
      </g>
     </g>
    </g>
    <g id="xtick_4">
     <g id="line2d_7">
      <path d="M 277.022089 260.44 
L 277.022089 25.44 
" clip-path="url(#p11f434d9a2)" style="fill: none; stroke-dasharray: 2.96,1.28; stroke-dashoffset: 0; stroke: #b0b0b0; stroke-opacity: 0.3; stroke-width: 0.8"/>
     </g>
     <g id="line2d_8">
      <g>
       <use xlink:href="#m13e30c4537" x="277.022089" y="260.44" style="stroke: #000000; stroke-width: 0.8"/>
      </g>
     </g>
     <g id="text_4">
      <!-- 3000 -->
      <g transform="translate(264.297089 275.038438) scale(0.1 -0.1)">
       <defs>
        <path id="DejaVuSans-33" d="M 2597 2516 
Q 3050 2419 3304 2112 
Q 3559 1806 3559 1356 
Q 3559 666 3084 287 
Q 2609 -91 1734 -91 
Q 1441 -91 1130 -33 
Q 819 25 488 141 
L 488 750 
Q 750 597 1062 519 
Q 1375 441 1716 441 
Q 2309 441 2620 675 
Q 2931 909 2931 1356 
Q 2931 1769 2642 2001 
Q 2353 2234 1838 2234 
L 1294 2234 
L 1294 2753 
L 1863 2753 
Q 2328 2753 2575 2939 
Q 2822 3125 2822 3475 
Q 2822 3834 2567 4026 
Q 2313 4219 1838 4219 
Q 1578 4219 1281 4162 
Q 984 4106 628 3988 
L 628 4550 
Q 988 4650 1302 4700 
Q 1616 4750 1894 4750 
Q 2613 4750 3031 4423 
Q 3450 4097 3450 3541 
Q 3450 3153 3228 2886 
Q 3006 2619 2597 2516 
z
" transform="scale(0.015625)"/>
       </defs>
       <use xlink:href="#DejaVuSans-33"/>
       <use xlink:href="#DejaVuSans-30" x="63.623047"/>
       <use xlink:href="#DejaVuSans-30" x="127.246094"/>
       <use xlink:href="#DejaVuSans-30" x="190.869141"/>
      </g>
     </g>
    </g>
    <g id="xtick_5">
     <g id="line2d_9">
      <path d="M 343.575879 260.44 
L 343.575879 25.44 
" clip-path="url(#p11f434d9a2)" style="fill: none; stroke-dasharray: 2.96,1.28; stroke-dashoffset: 0; stroke: #b0b0b0; stroke-opacity: 0.3; stroke-width: 0.8"/>
     </g>
     <g id="line2d_10">
      <g>
       <use xlink:href="#m13e30c4537" x="343.575879" y="260.44" style="stroke: #000000; stroke-width: 0.8"/>
      </g>
     </g>
     <g id="text_5">
      <!-- 4000 -->
      <g transform="translate(330.850879 275.038438) scale(0.1 -0.1)">
       <defs>
        <path id="DejaVuSans-34" d="M 2419 4116 
L 825 1625 
L 2419 1625 
L 2419 4116 
z
M 2253 4666 
L 3047 4666 
L 3047 1625 
L 3713 1625 
L 3713 1100 
L 3047 1100 
L 3047 0 
L 2419 0 
L 2419 1100 
L 313 1100 
L 313 1709 
L 2253 4666 
z
" transform="scale(0.015625)"/>
       </defs>
       <use xlink:href="#DejaVuSans-34"/>
       <use xlink:href="#DejaVuSans-30" x="63.623047"/>
       <use xlink:href="#DejaVuSans-30" x="127.246094"/>
       <use xlink:href="#DejaVuSans-30" x="190.869141"/>
      </g>
     </g>
    </g>
    <g id="xtick_6">
     <g id="line2d_11">
      <path d="M 410.129669 260.44 
L 410.129669 25.44 
" clip-path="url(#p11f434d9a2)" style="fill: none; stroke-dasharray: 2.96,1.28; stroke-dashoffset: 0; stroke: #b0b0b0; stroke-opacity: 0.3; stroke-width: 0.8"/>
     </g>
     <g id="line2d_12">
      <g>
       <use xlink:href="#m13e30c4537" x="410.129669" y="260.44" style="stroke: #000000; stroke-width: 0.8"/>
      </g>
     </g>
     <g id="text_6">
      <!-- 5000 -->
      <g transform="translate(397.404669 275.038438) scale(0.1 -0.1)">
       <defs>
        <path id="DejaVuSans-35" d="M 691 4666 
L 3169 4666 
L 3169 4134 
L 1269 4134 
L 1269 2991 
Q 1406 3038 1543 3061 
Q 1681 3084 1819 3084 
Q 2600 3084 3056 2656 
Q 3513 2228 3513 1497 
Q 3513 744 3044 326 
Q 2575 -91 1722 -91 
Q 1428 -91 1123 -41 
Q 819 9 494 109 
L 494 744 
Q 775 591 1075 516 
Q 1375 441 1709 441 
Q 2250 441 2565 725 
Q 2881 1009 2881 1497 
Q 2881 1984 2565 2268 
Q 2250 2553 1709 2553 
Q 1456 2553 1204 2497 
Q 953 2441 691 2322 
L 691 4666 
z
" transform="scale(0.015625)"/>
       </defs>
       <use xlink:href="#DejaVuSans-35"/>
       <use xlink:href="#DejaVuSans-30" x="63.623047"/>
       <use xlink:href="#DejaVuSans-30" x="127.246094"/>
       <use xlink:href="#DejaVuSans-30" x="190.869141"/>
      </g>
     </g>
    </g>
    <g id="xtick_7">
     <g id="line2d_13">
      <path d="M 476.683459 260.44 
L 476.683459 25.44 
" clip-path="url(#p11f434d9a2)" style="fill: none; stroke-dasharray: 2.96,1.28; stroke-dashoffset: 0; stroke: #b0b0b0; stroke-opacity: 0.3; stroke-width: 0.8"/>
     </g>
     <g id="line2d_14">
      <g>
       <use xlink:href="#m13e30c4537" x="476.683459" y="260.44" style="stroke: #000000; stroke-width: 0.8"/>
      </g>
     </g>
     <g id="text_7">
      <!-- 6000 -->
      <g transform="translate(463.958459 275.038438) scale(0.1 -0.1)">
       <defs>
        <path id="DejaVuSans-36" d="M 2113 2584 
Q 1688 2584 1439 2293 
Q 1191 2003 1191 1497 
Q 1191 994 1439 701 
Q 1688 409 2113 409 
Q 2538 409 2786 701 
Q 3034 994 3034 1497 
Q 3034 2003 2786 2293 
Q 2538 2584 2113 2584 
z
M 3366 4563 
L 3366 3988 
Q 3128 4100 2886 4159 
Q 2644 4219 2406 4219 
Q 1781 4219 1451 3797 
Q 1122 3375 1075 2522 
Q 1259 2794 1537 2939 
Q 1816 3084 2150 3084 
Q 2853 3084 3261 2657 
Q 3669 2231 3669 1497 
Q 3669 778 3244 343 
Q 2819 -91 2113 -91 
Q 1303 -91 875 529 
Q 447 1150 447 2328 
Q 447 3434 972 4092 
Q 1497 4750 2381 4750 
Q 2619 4750 2861 4703 
Q 3103 4656 3366 4563 
z
" transform="scale(0.015625)"/>
       </defs>
       <use xlink:href="#DejaVuSans-36"/>
       <use xlink:href="#DejaVuSans-30" x="63.623047"/>
       <use xlink:href="#DejaVuSans-30" x="127.246094"/>
       <use xlink:href="#DejaVuSans-30" x="190.869141"/>
      </g>
     </g>
    </g>
    <g id="xtick_8">
     <g id="line2d_15">
      <path d="M 543.237249 260.44 
L 543.237249 25.44 
" clip-path="url(#p11f434d9a2)" style="fill: none; stroke-dasharray: 2.96,1.28; stroke-dashoffset: 0; stroke: #b0b0b0; stroke-opacity: 0.3; stroke-width: 0.8"/>
     </g>
     <g id="line2d_16">
      <g>
       <use xlink:href="#m13e30c4537" x="543.237249" y="260.44" style="stroke: #000000; stroke-width: 0.8"/>
      </g>
     </g>
     <g id="text_8">
      <!-- 7000 -->
      <g transform="translate(530.512249 275.038438) scale(0.1 -0.1)">
       <defs>
        <path id="DejaVuSans-37" d="M 525 4666 
L 3525 4666 
L 3525 4397 
L 1831 0 
L 1172 0 
L 2766 4134 
L 525 4134 
L 525 4666 
z
" transform="scale(0.015625)"/>
       </defs>
       <use xlink:href="#DejaVuSans-37"/>
       <use xlink:href="#DejaVuSans-30" x="63.623047"/>
       <use xlink:href="#DejaVuSans-30" x="127.246094"/>
       <use xlink:href="#DejaVuSans-30" x="190.869141"/>
      </g>
     </g>
    </g>
    <g id="text_9">
     <!-- round -->
     <g transform="translate(295.185937 288.716563) scale(0.1 -0.1)">
      <defs>
       <path id="DejaVuSans-72" d="M 2631 2963 
Q 2534 3019 2420 3045 
Q 2306 3072 2169 3072 
Q 1681 3072 1420 2755 
Q 1159 2438 1159 1844 
L 1159 0 
L 581 0 
L 581 3500 
L 1159 3500 
L 1159 2956 
Q 1341 3275 1631 3429 
Q 1922 3584 2338 3584 
Q 2397 3584 2469 3576 
Q 2541 3569 2628 3553 
L 2631 2963 
z
" transform="scale(0.015625)"/>
       <path id="DejaVuSans-6f" d="M 1959 3097 
Q 1497 3097 1228 2736 
Q 959 2375 959 1747 
Q 959 1119 1226 758 
Q 1494 397 1959 397 
Q 2419 397 2687 759 
Q 2956 1122 2956 1747 
Q 2956 2369 2687 2733 
Q 2419 3097 1959 3097 
z
M 1959 3584 
Q 2709 3584 3137 3096 
Q 3566 2609 3566 1747 
Q 3566 888 3137 398 
Q 2709 -91 1959 -91 
Q 1206 -91 779 398 
Q 353 888 353 1747 
Q 353 2609 779 3096 
Q 1206 3584 1959 3584 
z
" transform="scale(0.015625)"/>
       <path id="DejaVuSans-75" d="M 544 1381 
L 544 3500 
L 1119 3500 
L 1119 1403 
Q 1119 906 1312 657 
Q 1506 409 1894 409 
Q 2359 409 2629 706 
Q 2900 1003 2900 1516 
L 2900 3500 
L 3475 3500 
L 3475 0 
L 2900 0 
L 2900 538 
Q 2691 219 2414 64 
Q 2138 -91 1772 -91 
Q 1169 -91 856 284 
Q 544 659 544 1381 
z
M 1991 3584 
L 1991 3584 
z
" transform="scale(0.015625)"/>
       <path id="DejaVuSans-6e" d="M 3513 2113 
L 3513 0 
L 2938 0 
L 2938 2094 
Q 2938 2591 2744 2837 
Q 2550 3084 2163 3084 
Q 1697 3084 1428 2787 
Q 1159 2491 1159 1978 
L 1159 0 
L 581 0 
L 581 3500 
L 1159 3500 
L 1159 2956 
Q 1366 3272 1645 3428 
Q 1925 3584 2291 3584 
Q 2894 3584 3203 3211 
Q 3513 2838 3513 2113 
z
" transform="scale(0.015625)"/>
       <path id="DejaVuSans-64" d="M 2906 2969 
L 2906 4863 
L 3481 4863 
L 3481 0 
L 2906 0 
L 2906 525 
Q 2725 213 2448 61 
Q 2172 -91 1784 -91 
Q 1150 -91 751 415 
Q 353 922 353 1747 
Q 353 2572 751 3078 
Q 1150 3584 1784 3584 
Q 2172 3584 2448 3432 
Q 2725 3281 2906 2969 
z
M 947 1747 
Q 947 1113 1208 752 
Q 1469 391 1925 391 
Q 2381 391 2643 752 
Q 2906 1113 2906 1747 
Q 2906 2381 2643 2742 
Q 2381 3103 1925 3103 
Q 1469 3103 1208 2742 
Q 947 2381 947 1747 
z
" transform="scale(0.015625)"/>
      </defs>
      <use xlink:href="#DejaVuSans-72"/>
      <use xlink:href="#DejaVuSans-6f" x="38.863281"/>
      <use xlink:href="#DejaVuSans-75" x="100.044922"/>
      <use xlink:href="#DejaVuSans-6e" x="163.423828"/>
      <use xlink:href="#DejaVuSans-64" x="226.802734"/>
     </g>
    </g>
   </g>
   <g id="matplotlib.axis_2">
    <g id="ytick_1">
     <g id="line2d_17">
      <path d="M 54.2 252.53336 
L 565.2 252.53336 
" clip-path="url(#p11f434d9a2)" style="fill: none; stroke-dasharray: 2.96,1.28; stroke-dashoffset: 0; stroke: #b0b0b0; stroke-opacity: 0.3; stroke-width: 0.8"/>
     </g>
     <g id="line2d_18">
      <defs>
       <path id="mefe6827315" d="M 0 0 
L -3.5 0 
" style="stroke: #000000; stroke-width: 0.8"/>
      </defs>
      <g>
       <use xlink:href="#mefe6827315" x="54.2" y="252.53336" style="stroke: #000000; stroke-width: 0.8"/>
      </g>
     </g>
     <g id="text_10">
      <!-- 0.90 -->
      <g transform="translate(24.934375 256.332579) scale(0.1 -0.1)">
       <defs>
        <path id="DejaVuSans-2e" d="M 684 794 
L 1344 794 
L 1344 0 
L 684 0 
L 684 794 
z
" transform="scale(0.015625)"/>
        <path id="DejaVuSans-39" d="M 703 97 
L 703 672 
Q 941 559 1184 500 
Q 1428 441 1663 441 
Q 2288 441 2617 861 
Q 2947 1281 2994 2138 
Q 2813 1869 2534 1725 
Q 2256 1581 1919 1581 
Q 1219 1581 811 2004 
Q 403 2428 403 3163 
Q 403 3881 828 4315 
Q 1253 4750 1959 4750 
Q 2769 4750 3195 4129 
Q 3622 3509 3622 2328 
Q 3622 1225 3098 567 
Q 2575 -91 1691 -91 
Q 1453 -91 1209 -44 
Q 966 3 703 97 
z
M 1959 2075 
Q 2384 2075 2632 2365 
Q 2881 2656 2881 3163 
Q 2881 3666 2632 3958 
Q 2384 4250 1959 4250 
Q 1534 4250 1286 3958 
Q 1038 3666 1038 3163 
Q 1038 2656 1286 2365 
Q 1534 2075 1959 2075 
z
" transform="scale(0.015625)"/>
       </defs>
       <use xlink:href="#DejaVuSans-30"/>
       <use xlink:href="#DejaVuSans-2e" x="63.623047"/>
       <use xlink:href="#DejaVuSans-39" x="95.410156"/>
       <use xlink:href="#DejaVuSans-30" x="159.033203"/>
      </g>
     </g>
    </g>
    <g id="ytick_2">
     <g id="line2d_19">
      <path d="M 54.2 209.251052 
L 565.2 209.251052 
" clip-path="url(#p11f434d9a2)" style="fill: none; stroke-dasharray: 2.96,1.28; stroke-dashoffset: 0; stroke: #b0b0b0; stroke-opacity: 0.3; stroke-width: 0.8"/>
     </g>
     <g id="line2d_20">
      <g>
       <use xlink:href="#mefe6827315" x="54.2" y="209.251052" style="stroke: #000000; stroke-width: 0.8"/>
      </g>
     </g>
     <g id="text_11">
      <!-- 0.92 -->
      <g transform="translate(24.934375 213.05027) scale(0.1 -0.1)">
       <use xlink:href="#DejaVuSans-30"/>
       <use xlink:href="#DejaVuSans-2e" x="63.623047"/>
       <use xlink:href="#DejaVuSans-39" x="95.410156"/>
       <use xlink:href="#DejaVuSans-32" x="159.033203"/>
      </g>
     </g>
    </g>
    <g id="ytick_3">
     <g id="line2d_21">
      <path d="M 54.2 165.968743 
L 565.2 165.968743 
" clip-path="url(#p11f434d9a2)" style="fill: none; stroke-dasharray: 2.96,1.28; stroke-dashoffset: 0; stroke: #b0b0b0; stroke-opacity: 0.3; stroke-width: 0.8"/>
     </g>
     <g id="line2d_22">
      <g>
       <use xlink:href="#mefe6827315" x="54.2" y="165.968743" style="stroke: #000000; stroke-width: 0.8"/>
      </g>
     </g>
     <g id="text_12">
      <!-- 0.94 -->
      <g transform="translate(24.934375 169.767962) scale(0.1 -0.1)">
       <use xlink:href="#DejaVuSans-30"/>
       <use xlink:href="#DejaVuSans-2e" x="63.623047"/>
       <use xlink:href="#DejaVuSans-39" x="95.410156"/>
       <use xlink:href="#DejaVuSans-34" x="159.033203"/>
      </g>
     </g>
    </g>
    <g id="ytick_4">
     <g id="line2d_23">
      <path d="M 54.2 122.686435 
L 565.2 122.686435 
" clip-path="url(#p11f434d9a2)" style="fill: none; stroke-dasharray: 2.96,1.28; stroke-dashoffset: 0; stroke: #b0b0b0; stroke-opacity: 0.3; stroke-width: 0.8"/>
     </g>
     <g id="line2d_24">
      <g>
       <use xlink:href="#mefe6827315" x="54.2" y="122.686435" style="stroke: #000000; stroke-width: 0.8"/>
      </g>
     </g>
     <g id="text_13">
      <!-- 0.96 -->
      <g transform="translate(24.934375 126.485654) scale(0.1 -0.1)">
       <use xlink:href="#DejaVuSans-30"/>
       <use xlink:href="#DejaVuSans-2e" x="63.623047"/>
       <use xlink:href="#DejaVuSans-39" x="95.410156"/>
       <use xlink:href="#DejaVuSans-36" x="159.033203"/>
      </g>
     </g>
    </g>
    <g id="ytick_5">
     <g id="line2d_25">
      <path d="M 54.2 79.404127 
L 565.2 79.404127 
" clip-path="url(#p11f434d9a2)" style="fill: none; stroke-dasharray: 2.96,1.28; stroke-dashoffset: 0; stroke: #b0b0b0; stroke-opacity: 0.3; stroke-width: 0.8"/>
     </g>
     <g id="line2d_26">
      <g>
       <use xlink:href="#mefe6827315" x="54.2" y="79.404127" style="stroke: #000000; stroke-width: 0.8"/>
      </g>
     </g>
     <g id="text_14">
      <!-- 0.98 -->
      <g transform="translate(24.934375 83.203345) scale(0.1 -0.1)">
       <defs>
        <path id="DejaVuSans-38" d="M 2034 2216 
Q 1584 2216 1326 1975 
Q 1069 1734 1069 1313 
Q 1069 891 1326 650 
Q 1584 409 2034 409 
Q 2484 409 2743 651 
Q 3003 894 3003 1313 
Q 3003 1734 2745 1975 
Q 2488 2216 2034 2216 
z
M 1403 2484 
Q 997 2584 770 2862 
Q 544 3141 544 3541 
Q 544 4100 942 4425 
Q 1341 4750 2034 4750 
Q 2731 4750 3128 4425 
Q 3525 4100 3525 3541 
Q 3525 3141 3298 2862 
Q 3072 2584 2669 2484 
Q 3125 2378 3379 2068 
Q 3634 1759 3634 1313 
Q 3634 634 3220 271 
Q 2806 -91 2034 -91 
Q 1263 -91 848 271 
Q 434 634 434 1313 
Q 434 1759 690 2068 
Q 947 2378 1403 2484 
z
M 1172 3481 
Q 1172 3119 1398 2916 
Q 1625 2713 2034 2713 
Q 2441 2713 2670 2916 
Q 2900 3119 2900 3481 
Q 2900 3844 2670 4047 
Q 2441 4250 2034 4250 
Q 1625 4250 1398 4047 
Q 1172 3844 1172 3481 
z
" transform="scale(0.015625)"/>
       </defs>
       <use xlink:href="#DejaVuSans-30"/>
       <use xlink:href="#DejaVuSans-2e" x="63.623047"/>
       <use xlink:href="#DejaVuSans-39" x="95.410156"/>
       <use xlink:href="#DejaVuSans-38" x="159.033203"/>
      </g>
     </g>
    </g>
    <g id="ytick_6">
     <g id="line2d_27">
      <path d="M 54.2 36.121818 
L 565.2 36.121818 
" clip-path="url(#p11f434d9a2)" style="fill: none; stroke-dasharray: 2.96,1.28; stroke-dashoffset: 0; stroke: #b0b0b0; stroke-opacity: 0.3; stroke-width: 0.8"/>
     </g>
     <g id="line2d_28">
      <g>
       <use xlink:href="#mefe6827315" x="54.2" y="36.121818" style="stroke: #000000; stroke-width: 0.8"/>
      </g>
     </g>
     <g id="text_15">
      <!-- 1.00 -->
      <g transform="translate(24.934375 39.921037) scale(0.1 -0.1)">
       <use xlink:href="#DejaVuSans-31"/>
       <use xlink:href="#DejaVuSans-2e" x="63.623047"/>
       <use xlink:href="#DejaVuSans-30" x="95.410156"/>
       <use xlink:href="#DejaVuSans-30" x="159.033203"/>
      </g>
     </g>
    </g>
    <g id="text_16">
     <!-- cumulative timely transfer rate -->
     <g transform="translate(18.854688 221.048594) rotate(-90) scale(0.1 -0.1)">
      <defs>
       <path id="DejaVuSans-63" d="M 3122 3366 
L 3122 2828 
Q 2878 2963 2633 3030 
Q 2388 3097 2138 3097 
Q 1578 3097 1268 2742 
Q 959 2388 959 1747 
Q 959 1106 1268 751 
Q 1578 397 2138 397 
Q 2388 397 2633 464 
Q 2878 531 3122 666 
L 3122 134 
Q 2881 22 2623 -34 
Q 2366 -91 2075 -91 
Q 1284 -91 818 406 
Q 353 903 353 1747 
Q 353 2603 823 3093 
Q 1294 3584 2113 3584 
Q 2378 3584 2631 3529 
Q 2884 3475 3122 3366 
z
" transform="scale(0.015625)"/>
       <path id="DejaVuSans-6d" d="M 3328 2828 
Q 3544 3216 3844 3400 
Q 4144 3584 4550 3584 
Q 5097 3584 5394 3201 
Q 5691 2819 5691 2113 
L 5691 0 
L 5113 0 
L 5113 2094 
Q 5113 2597 4934 2840 
Q 4756 3084 4391 3084 
Q 3944 3084 3684 2787 
Q 3425 2491 3425 1978 
L 3425 0 
L 2847 0 
L 2847 2094 
Q 2847 2600 2669 2842 
Q 2491 3084 2119 3084 
Q 1678 3084 1418 2786 
Q 1159 2488 1159 1978 
L 1159 0 
L 581 0 
L 581 3500 
L 1159 3500 
L 1159 2956 
Q 1356 3278 1631 3431 
Q 1906 3584 2284 3584 
Q 2666 3584 2933 3390 
Q 3200 3197 3328 2828 
z
" transform="scale(0.015625)"/>
       <path id="DejaVuSans-6c" d="M 603 4863 
L 1178 4863 
L 1178 0 
L 603 0 
L 603 4863 
z
" transform="scale(0.015625)"/>
       <path id="DejaVuSans-61" d="M 2194 1759 
Q 1497 1759 1228 1600 
Q 959 1441 959 1056 
Q 959 750 1161 570 
Q 1363 391 1709 391 
Q 2188 391 2477 730 
Q 2766 1069 2766 1631 
L 2766 1759 
L 2194 1759 
z
M 3341 1997 
L 3341 0 
L 2766 0 
L 2766 531 
Q 2569 213 2275 61 
Q 1981 -91 1556 -91 
Q 1019 -91 701 211 
Q 384 513 384 1019 
Q 384 1609 779 1909 
Q 1175 2209 1959 2209 
L 2766 2209 
L 2766 2266 
Q 2766 2663 2505 2880 
Q 2244 3097 1772 3097 
Q 1472 3097 1187 3025 
Q 903 2953 641 2809 
L 641 3341 
Q 956 3463 1253 3523 
Q 1550 3584 1831 3584 
Q 2591 3584 2966 3190 
Q 3341 2797 3341 1997 
z
" transform="scale(0.015625)"/>
       <path id="DejaVuSans-74" d="M 1172 4494 
L 1172 3500 
L 2356 3500 
L 2356 3053 
L 1172 3053 
L 1172 1153 
Q 1172 725 1289 603 
Q 1406 481 1766 481 
L 2356 481 
L 2356 0 
L 1766 0 
Q 1100 0 847 248 
Q 594 497 594 1153 
L 594 3053 
L 172 3053 
L 172 3500 
L 594 3500 
L 594 4494 
L 1172 4494 
z
" transform="scale(0.015625)"/>
       <path id="DejaVuSans-69" d="M 603 3500 
L 1178 3500 
L 1178 0 
L 603 0 
L 603 3500 
z
M 603 4863 
L 1178 4863 
L 1178 4134 
L 603 4134 
L 603 4863 
z
" transform="scale(0.015625)"/>
       <path id="DejaVuSans-76" d="M 191 3500 
L 800 3500 
L 1894 563 
L 2988 3500 
L 3597 3500 
L 2284 0 
L 1503 0 
L 191 3500 
z
" transform="scale(0.015625)"/>
       <path id="DejaVuSans-65" d="M 3597 1894 
L 3597 1613 
L 953 1613 
Q 991 1019 1311 708 
Q 1631 397 2203 397 
Q 2534 397 2845 478 
Q 3156 559 3463 722 
L 3463 178 
Q 3153 47 2828 -22 
Q 2503 -91 2169 -91 
Q 1331 -91 842 396 
Q 353 884 353 1716 
Q 353 2575 817 3079 
Q 1281 3584 2069 3584 
Q 2775 3584 3186 3129 
Q 3597 2675 3597 1894 
z
M 3022 2063 
Q 3016 2534 2758 2815 
Q 2500 3097 2075 3097 
Q 1594 3097 1305 2825 
Q 1016 2553 972 2059 
L 3022 2063 
z
" transform="scale(0.015625)"/>
       <path id="DejaVuSans-20" transform="scale(0.015625)"/>
       <path id="DejaVuSans-79" d="M 2059 -325 
Q 1816 -950 1584 -1140 
Q 1353 -1331 966 -1331 
L 506 -1331 
L 506 -850 
L 844 -850 
Q 1081 -850 1212 -737 
Q 1344 -625 1503 -206 
L 1606 56 
L 191 3500 
L 800 3500 
L 1894 763 
L 2988 3500 
L 3597 3500 
L 2059 -325 
z
" transform="scale(0.015625)"/>
       <path id="DejaVuSans-73" d="M 2834 3397 
L 2834 2853 
Q 2591 2978 2328 3040 
Q 2066 3103 1784 3103 
Q 1356 3103 1142 2972 
Q 928 2841 928 2578 
Q 928 2378 1081 2264 
Q 1234 2150 1697 2047 
L 1894 2003 
Q 2506 1872 2764 1633 
Q 3022 1394 3022 966 
Q 3022 478 2636 193 
Q 2250 -91 1575 -91 
Q 1294 -91 989 -36 
Q 684 19 347 128 
L 347 722 
Q 666 556 975 473 
Q 1284 391 1588 391 
Q 1994 391 2212 530 
Q 2431 669 2431 922 
Q 2431 1156 2273 1281 
Q 2116 1406 1581 1522 
L 1381 1569 
Q 847 1681 609 1914 
Q 372 2147 372 2553 
Q 372 3047 722 3315 
Q 1072 3584 1716 3584 
Q 2034 3584 2315 3537 
Q 2597 3491 2834 3397 
z
" transform="scale(0.015625)"/>
       <path id="DejaVuSans-66" d="M 2375 4863 
L 2375 4384 
L 1825 4384 
Q 1516 4384 1395 4259 
Q 1275 4134 1275 3809 
L 1275 3500 
L 2222 3500 
L 2222 3053 
L 1275 3053 
L 1275 0 
L 697 0 
L 697 3053 
L 147 3053 
L 147 3500 
L 697 3500 
L 697 3744 
Q 697 4328 969 4595 
Q 1241 4863 1831 4863 
L 2375 4863 
z
" transform="scale(0.015625)"/>
      </defs>
      <use xlink:href="#DejaVuSans-63"/>
      <use xlink:href="#DejaVuSans-75" x="54.980469"/>
      <use xlink:href="#DejaVuSans-6d" x="118.359375"/>
      <use xlink:href="#DejaVuSans-75" x="215.771484"/>
      <use xlink:href="#DejaVuSans-6c" x="279.150391"/>
      <use xlink:href="#DejaVuSans-61" x="306.933594"/>
      <use xlink:href="#DejaVuSans-74" x="368.212891"/>
      <use xlink:href="#DejaVuSans-69" x="407.421875"/>
      <use xlink:href="#DejaVuSans-76" x="435.205078"/>
      <use xlink:href="#DejaVuSans-65" x="494.384766"/>
      <use xlink:href="#DejaVuSans-20" x="555.908203"/>
      <use xlink:href="#DejaVuSans-74" x="587.695312"/>
      <use xlink:href="#DejaVuSans-69" x="626.904297"/>
      <use xlink:href="#DejaVuSans-6d" x="654.6875"/>
      <use xlink:href="#DejaVuSans-65" x="752.099609"/>
      <use xlink:href="#DejaVuSans-6c" x="813.623047"/>
      <use xlink:href="#DejaVuSans-79" x="841.40625"/>
      <use xlink:href="#DejaVuSans-20" x="900.585938"/>
      <use xlink:href="#DejaVuSans-74" x="932.373047"/>
      <use xlink:href="#DejaVuSans-72" x="971.582031"/>
      <use xlink:href="#DejaVuSans-61" x="1012.695312"/>
      <use xlink:href="#DejaVuSans-6e" x="1073.974609"/>
      <use xlink:href="#DejaVuSans-73" x="1137.353516"/>
      <use xlink:href="#DejaVuSans-66" x="1189.453125"/>
      <use xlink:href="#DejaVuSans-65" x="1224.658203"/>
      <use xlink:href="#DejaVuSans-72" x="1286.181641"/>
      <use xlink:href="#DejaVuSans-20" x="1327.294922"/>
      <use xlink:href="#DejaVuSans-72" x="1359.082031"/>
      <use xlink:href="#DejaVuSans-61" x="1400.195312"/>
      <use xlink:href="#DejaVuSans-74" x="1461.474609"/>
      <use xlink:href="#DejaVuSans-65" x="1500.683594"/>
     </g>
    </g>
   </g>
   <g id="line2d_29">
    <path d="M 77.427273 36.121818 
L 80.621855 36.121818 
L 80.821516 83.099722 
L 80.88807 82.49572 
L 81.087731 148.65582 
L 81.154285 147.321425 
L 81.220839 144.955476 
L 81.4205 184.005239 
L 82.219146 166.574416 
L 82.285699 179.402765 
L 82.352253 178.124142 
L 82.618468 172.538574 
L 82.685022 187.857409 
L 82.751576 185.773743 
L 83.217452 177.25978 
L 83.35056 191.539321 
L 83.417114 189.735368 
L 83.616775 185.728058 
L 83.683329 192.362209 
L 83.749883 191.229067 
L 83.949544 186.668978 
L 84.016098 184.943509 
L 84.082652 191.202154 
L 84.149206 189.34119 
L 84.548528 180.886909 
L 85.080959 170.571951 
L 85.147512 181.646391 
L 85.214066 180.694267 
L 85.28062 179.852866 
L 85.613389 217.69638 
L 85.679943 215.595228 
L 85.746496 225.232635 
L 85.81305 224.097731 
L 86.545142 204.428306 
L 86.611696 212.031759 
L 86.67825 210.280443 
L 86.811357 206.926697 
L 86.877911 216.513106 
L 86.944465 215.169409 
L 87.011018 213.658061 
L 87.21068 226.276532 
L 87.277234 224.782666 
L 87.543449 249.758182 
L 87.610003 248.116798 
L 87.74311 243.974712 
L 87.809664 248.497714 
L 87.876218 246.535812 
L 88.275541 237.601825 
L 88.475202 233.541665 
L 89.14074 217.181554 
L 89.939385 203.694485 
L 91.0708 183.452444 
L 91.270461 181.08484 
L 91.536676 195.670977 
L 91.802891 192.173678 
L 92.468429 178.250836 
L 92.668091 176.301483 
L 93.400182 165.903444 
L 94.265382 152.988461 
L 94.465043 150.667208 
L 94.598151 157.66414 
L 94.664704 156.754648 
L 95.330242 149.166059 
L 97.060641 133.025322 
L 97.127195 135.692504 
L 97.193748 135.16899 
L 97.459964 133.490509 
L 97.526517 136.124791 
L 97.593071 135.621378 
L 98.125501 131.40062 
L 98.192055 134.467132 
L 98.258609 134.021458 
L 98.325163 133.418095 
L 98.524824 137.630377 
L 98.857593 135.591091 
L 99.123808 141.111471 
L 99.589685 138.497843 
L 100.055561 135.290674 
L 100.987314 128.618803 
L 101.519745 124.8948 
L 101.586299 125.310266 
L 101.985621 123.053302 
L 102.052175 123.396285 
L 102.251836 128.034056 
L 102.31839 127.697057 
L 102.384944 128.247675 
L 102.451498 127.917908 
L 102.584605 127.260008 
L 102.651159 127.744843 
L 102.717713 127.378932 
L 102.784267 127.821624 
L 102.850821 127.453309 
L 102.917374 128.222515 
L 102.983928 127.844922 
L 103.050482 127.454656 
L 103.117036 127.887742 
L 103.849127 123.995648 
L 105.313311 116.729515 
L 105.845741 114.224756 
L 106.311618 112.118668 
L 106.378171 112.433856 
L 107.443032 108.159349 
L 107.509586 108.011987 
L 107.709247 110.042637 
L 107.842355 109.64084 
L 108.241678 115.645079 
L 108.374785 115.255996 
L 108.441339 116.778409 
L 108.507893 116.60965 
L 108.574446 116.445018 
L 108.774108 118.808223 
L 108.973769 118.166706 
L 109.040323 119.927894 
L 109.106877 119.773967 
L 110.903829 114.053721 
L 110.970383 113.861482 
L 111.10349 116.188287 
L 111.170044 115.995562 
L 111.303152 115.667326 
L 111.369706 117.160055 
L 111.436259 117.073971 
L 111.502813 116.890121 
L 111.569367 117.883642 
L 111.635921 117.68969 
L 111.835582 117.140576 
L 111.96869 119.279622 
L 112.035244 119.100595 
L 112.634228 117.328227 
L 112.700781 117.972939 
L 112.767335 117.789503 
L 112.833889 117.603948 
L 112.966997 118.888188 
L 113.03355 118.704494 
L 113.233212 118.099965 
L 113.299766 119.100173 
L 113.366319 118.856603 
L 113.699088 118.148774 
L 113.89875 121.000935 
L 113.965303 122.022758 
L 114.031857 121.903181 
L 114.231519 121.445902 
L 114.497734 124.729161 
L 114.697395 124.256896 
L 114.763949 125.100517 
L 114.830503 124.9219 
L 114.897057 124.716923 
L 114.96361 125.663835 
L 115.030164 125.494237 
L 115.229825 124.935509 
L 115.296379 125.071983 
L 115.362933 125.883095 
L 115.429487 125.712281 
L 115.629148 125.251057 
L 115.695702 126.427785 
L 115.762256 126.269426 
L 116.028471 125.670931 
L 116.294686 129.654782 
L 116.36124 131.133139 
L 116.427794 131.00335 
L 116.89367 129.631694 
L 116.960224 132.032344 
L 117.026778 131.848555 
L 117.292993 131.03315 
L 117.559208 132.909745 
L 117.625762 132.697124 
L 117.758869 132.328781 
L 117.825423 132.634684 
L 117.891977 132.50243 
L 118.025085 132.122719 
L 118.091638 133.342521 
L 118.158192 133.135272 
L 118.424407 132.415332 
L 118.490961 133.497076 
L 118.557515 133.351247 
L 119.955145 129.279734 
L 120.021698 130.650906 
L 120.088252 130.444216 
L 120.154806 130.265814 
L 120.22136 131.683425 
L 120.287914 131.508962 
L 120.421021 131.172917 
L 120.487575 131.621349 
L 120.554129 131.456476 
L 120.953451 130.37171 
L 121.086559 129.97126 
L 121.219667 131.877517 
L 121.618989 130.859607 
L 123.21628 126.454019 
L 123.282834 127.353741 
L 123.349388 127.155573 
L 124.014926 125.568092 
L 124.08148 125.958119 
L 124.148033 125.783322 
L 124.347695 125.290587 
L 124.414249 125.508467 
L 125.14634 123.657845 
L 125.212894 124.688722 
L 125.279448 124.504088 
L 125.745324 123.503285 
L 126.610524 121.840843 
L 126.876739 123.778343 
L 127.276061 122.981332 
L 127.342615 123.721039 
L 127.409169 123.563961 
L 127.542277 123.276404 
L 127.60883 123.541064 
L 127.675384 123.414387 
L 128.47403 121.788399 
L 129.139568 120.441873 
L 129.206121 122.214585 
L 129.272675 122.063027 
L 129.671998 121.359533 
L 129.805105 122.167908 
L 130.204428 121.333893 
L 130.270982 121.804465 
L 130.337536 121.685934 
L 130.40409 121.52016 
L 130.470643 121.762668 
L 130.537197 121.610621 
L 130.670305 121.366578 
L 130.736859 121.846874 
L 130.803412 121.746616 
L 131.003074 121.357275 
L 131.069628 121.53181 
L 131.136181 121.438226 
L 131.269289 121.164274 
L 131.335843 121.548048 
L 131.402396 121.428979 
L 131.668612 120.946819 
L 131.801719 121.961607 
L 131.868273 121.833977 
L 132.001381 121.622101 
L 132.201042 122.26406 
L 132.533811 121.798414 
L 132.733472 121.445037 
L 132.800026 121.843837 
L 132.86658 121.735376 
L 133.798333 120.052202 
L 133.864887 120.597548 
L 133.93144 120.49479 
L 134.663532 119.226874 
L 134.730086 119.843072 
L 134.79664 119.741345 
L 135.129409 119.216325 
L 135.32907 118.891522 
L 135.462178 119.581676 
L 135.528731 119.455058 
L 136.327377 118.320632 
L 136.393931 119.043646 
L 136.460485 118.933222 
L 136.660146 118.623019 
L 136.793253 119.005522 
L 137.458791 117.943442 
L 137.658453 117.641182 
L 137.725007 117.774064 
L 138.057775 117.260732 
L 138.124329 117.838436 
L 138.190883 117.733186 
L 138.257437 117.649799 
L 138.323991 118.182308 
L 138.390544 118.090937 
L 139.655066 116.263889 
L 139.788174 116.125127 
L 139.854728 116.408465 
L 139.921282 116.32139 
L 140.387158 115.634424 
L 140.586819 115.3658 
L 140.719927 115.147624 
L 140.786481 115.684021 
L 140.853035 115.613549 
L 141.185804 115.220344 
L 141.252357 115.793243 
L 141.318911 115.711733 
L 141.518573 115.44407 
L 141.585126 115.833261 
L 141.65168 115.743658 
L 141.718234 115.664179 
L 141.784788 115.898837 
L 141.851341 115.806597 
L 142.18411 115.295373 
L 142.383772 116.95711 
L 142.450326 116.870406 
L 143.115864 116.027387 
L 143.182417 116.281207 
L 143.248971 116.181015 
L 143.315525 116.081073 
L 143.448632 118.120554 
L 143.515186 118.04405 
L 144.180724 117.099666 
L 144.247278 117.362425 
L 144.313832 117.273842 
L 144.380386 117.20201 
L 144.446939 117.488672 
L 144.513493 117.375371 
L 145.578354 116.027952 
L 146.177338 115.308565 
L 146.243892 115.882129 
L 146.310445 115.77944 
L 146.842876 115.163639 
L 147.242198 114.686251 
L 147.308752 114.845718 
L 147.375306 114.785596 
L 148.639828 113.249115 
L 148.706382 113.160745 
L 148.772936 113.444822 
L 148.839489 113.339275 
L 149.172258 112.955127 
L 149.238812 114.037212 
L 149.305366 113.970887 
L 150.104011 112.963085 
L 150.170565 113.41526 
L 150.237119 113.338419 
L 150.702996 112.81188 
L 150.769549 112.727969 
L 150.836103 113.192784 
L 150.902657 113.100376 
L 151.767856 112.238051 
L 152.233733 111.715259 
L 152.300287 112.22631 
L 152.36684 112.152931 
L 152.433394 112.089983 
L 152.499948 112.902511 
L 152.566502 112.81024 
L 153.298593 111.935598 
L 153.831024 111.321386 
L 153.897577 111.643847 
L 153.964131 111.570554 
L 154.163793 111.322863 
L 154.230346 111.40201 
L 154.563115 111.029141 
L 154.629669 111.222275 
L 154.696223 111.160014 
L 154.762777 111.081517 
L 154.829331 111.426814 
L 154.895884 111.344914 
L 155.827637 110.355632 
L 155.894191 110.925705 
L 155.960745 110.88082 
L 157.691144 109.074614 
L 157.824251 108.947702 
L 157.890805 109.175682 
L 157.957359 109.124934 
L 158.556343 108.494478 
L 158.622897 108.846674 
L 158.68945 108.774689 
L 159.022219 108.435687 
L 159.088773 108.864696 
L 159.155327 108.786195 
L 160.08708 107.87174 
L 160.153634 108.230812 
L 160.220188 108.156079 
L 160.952279 107.496095 
L 161.085387 108.415554 
L 161.151941 108.335751 
L 161.750925 107.803785 
L 161.884032 107.719661 
L 161.950586 107.978605 
L 162.01714 107.958728 
L 163.215108 107.909556 
L 163.9472 108.019719 
L 164.213415 108.102334 
L 186.508935 108.212476 
L 186.708596 108.267544 
L 235.492524 108.350139 
L 235.692185 108.405198 
L 326.072232 108.402345 
L 326.072232 108.402345 
" clip-path="url(#p11f434d9a2)" style="fill: none; stroke: #1f77b4; stroke-width: 1.8; stroke-linecap: square"/>
   </g>
   <g id="line2d_30">
    <path d="M 77.427273 36.121818 
L 77.693488 36.121818 
L 77.760042 82.862972 
L 77.826595 76.497106 
L 77.893149 91.701026 
L 77.959703 85.871598 
L 78.026257 80.457089 
L 78.092811 93.268379 
L 78.159364 88.07866 
L 78.359026 78.339507 
L 78.42558 97.612075 
L 78.492133 93.57621 
L 78.758349 83.338882 
L 78.824902 94.74627 
L 78.891456 91.977625 
L 78.95801 89.430741 
L 79.024564 100.155324 
L 79.091117 97.478286 
L 79.157671 94.961823 
L 79.290779 106.415736 
L 79.623548 95.772188 
L 79.823209 114.616852 
L 79.889763 112.393343 
L 80.022871 108.191644 
L 80.089424 113.835032 
L 80.155978 111.740894 
L 80.422193 104.897907 
L 80.488747 115.852386 
L 80.555301 114.067833 
L 80.821516 107.849128 
L 80.88807 110.729105 
L 80.954624 109.768422 
L 81.021177 108.454493 
L 81.087731 113.291825 
L 81.154285 112.063968 
L 81.287393 109.304465 
L 81.4205 115.607389 
L 81.95293 106.231876 
L 82.219146 102.523732 
L 82.418807 108.294205 
L 82.685022 104.75481 
L 82.751576 106.134403 
L 82.81813 105.21707 
L 83.217452 100.613309 
L 83.284006 103.741033 
L 83.35056 103.025634 
L 83.417114 102.253282 
L 83.483668 104.095376 
L 83.550221 103.408957 
L 83.683329 101.982529 
L 83.749883 105.319939 
L 83.816437 104.561071 
L 84.016098 107.742333 
L 84.215759 105.597493 
L 84.415421 108.896935 
L 84.481974 108.150997 
L 84.681636 113.76695 
L 84.74819 113.102358 
L 85.014405 110.314762 
L 85.080959 111.910642 
L 85.147512 111.217306 
L 85.347174 109.293753 
L 85.413728 111.102854 
L 85.480281 110.483301 
L 85.546835 109.859164 
L 85.613389 112.161209 
L 85.679943 111.510212 
L 85.946158 109.194773 
L 86.012712 110.406834 
L 86.079265 109.903112 
L 86.212373 108.828062 
L 86.278927 110.244913 
L 86.345481 109.736571 
L 86.611696 107.561248 
L 86.67825 109.110212 
L 86.744803 108.605964 
L 86.811357 108.158686 
L 86.877911 109.864536 
L 86.944465 109.371655 
L 87.011018 108.897707 
L 87.077572 109.447571 
L 87.144126 108.900272 
L 87.21068 109.582617 
L 87.343787 108.674946 
L 87.410341 110.117748 
L 87.476895 109.582939 
L 87.676556 108.247496 
L 87.74311 109.806958 
L 87.809664 109.34889 
L 88.009325 107.92503 
L 88.142433 112.131064 
L 88.275541 111.157101 
L 88.342094 112.439455 
L 88.408648 111.945545 
L 88.674863 110.134188 
L 88.741417 111.236518 
L 88.807971 110.762541 
L 88.874525 110.310366 
L 89.14074 112.958784 
L 89.273847 112.079255 
L 89.340401 112.659416 
L 89.406955 112.267986 
L 89.473509 111.834311 
L 89.67317 115.328443 
L 89.806278 114.409863 
L 90.072493 117.715497 
L 90.139047 117.36468 
L 90.272154 119.008099 
L 90.671477 116.526106 
L 90.738031 117.030767 
L 90.804585 116.699881 
L 90.871138 116.298581 
L 90.937692 117.048988 
L 91.004246 116.67428 
L 91.137353 115.939934 
L 91.337015 119.147071 
L 91.403569 118.768912 
L 91.536676 118.018097 
L 91.736338 121.258025 
L 91.802891 120.82758 
L 92.069107 119.176212 
L 92.202214 121.295935 
L 92.268768 120.949432 
L 92.534983 119.464926 
L 92.601537 120.234034 
L 92.668091 119.84248 
L 92.734644 120.381119 
L 92.801198 120.036966 
L 92.934306 119.313255 
L 93.133967 122.510957 
L 93.400182 121.002092 
L 93.53329 122.173414 
L 93.799505 120.953068 
L 93.866059 121.438424 
L 93.999166 120.7568 
L 94.06572 121.368408 
L 94.132274 121.026454 
L 94.265382 120.444831 
L 94.331935 121.291042 
L 94.398489 120.933861 
L 94.531597 120.300845 
L 94.664704 121.696115 
L 94.731258 121.396565 
L 94.797812 121.07908 
L 94.864366 121.7479 
L 94.93092 121.427593 
L 95.263688 119.792213 
L 95.330242 120.364809 
L 95.396796 120.123018 
L 95.529904 119.537776 
L 95.596457 120.891541 
L 95.663011 120.560409 
L 96.328549 117.590207 
L 96.395103 118.713798 
L 96.461657 118.397667 
L 96.860979 116.682648 
L 96.927533 116.967298 
L 97.593071 114.36616 
L 97.659625 114.676648 
L 97.859286 113.960822 
L 98.125501 115.753585 
L 98.258609 115.267682 
L 98.325163 115.758549 
L 98.391717 115.490768 
L 99.523131 111.886725 
L 99.589685 112.843074 
L 99.656239 112.608392 
L 99.8559 111.882448 
L 99.922454 112.556131 
L 99.989008 112.400596 
L 100.454884 110.818184 
L 100.521438 111.432114 
L 100.587992 111.197751 
L 100.854207 110.394041 
L 100.920761 110.694434 
L 100.987314 111.623845 
L 101.053868 111.422164 
L 101.386637 110.383947 
L 101.586299 112.072429 
L 101.652852 111.91822 
L 101.719406 112.224827 
L 101.78596 112.004588 
L 102.384944 114.389107 
L 102.584605 113.787031 
L 102.717713 115.050361 
L 102.784267 114.869104 
L 102.850821 114.6684 
L 103.050482 116.399944 
L 103.117036 116.200031 
L 103.250143 115.752581 
L 103.383251 116.233735 
L 103.449805 116.082199 
L 103.71602 115.293477 
L 103.782574 116.04711 
L 103.849127 115.855925 
L 104.181896 114.882125 
L 104.381558 115.473596 
L 104.980542 113.777913 
L 105.113649 115.036228 
L 105.180203 114.870471 
L 105.246757 114.663672 
L 105.313311 115.413275 
L 105.379865 115.206138 
L 105.579526 114.632329 
L 105.779187 115.353296 
L 106.045402 114.59473 
L 106.111956 115.329977 
L 106.17851 115.151453 
L 106.378171 115.738514 
L 106.444725 115.5518 
L 106.511279 115.725252 
L 106.577833 116.404992 
L 106.644387 116.209025 
L 106.777494 115.851114 
L 107.043709 118.5529 
L 107.110263 118.354857 
L 107.509586 117.283519 
L 107.709247 117.946795 
L 107.842355 117.589596 
L 108.042016 118.893643 
L 108.10857 118.721202 
L 108.707554 117.11815 
L 108.774108 118.5153 
L 108.840662 118.356285 
L 108.907215 118.672641 
L 108.973769 118.490466 
L 109.040323 118.306965 
L 109.106877 118.457768 
L 109.306538 117.975405 
L 109.373092 118.571708 
L 109.439646 118.430321 
L 109.905522 117.312343 
L 109.972076 117.786551 
L 110.03863 117.60387 
L 110.304845 118.51241 
L 110.504506 118.016253 
L 110.57106 119.334387 
L 110.637614 119.155757 
L 110.970383 118.388466 
L 111.036937 118.579393 
L 111.170044 119.652216 
L 111.303152 119.298641 
L 111.369706 119.662462 
L 111.436259 119.499419 
L 111.702475 118.835762 
L 111.769028 119.198158 
L 111.835582 119.033972 
L 112.035244 118.594088 
L 112.234905 119.310003 
L 112.50112 118.707359 
L 112.634228 119.783218 
L 112.700781 119.618037 
L 112.833889 119.330052 
L 112.966997 120.241671 
L 113.03355 120.077147 
L 113.432873 119.171361 
L 113.565981 119.657174 
L 113.632535 119.560665 
L 113.832196 119.070235 
L 113.89875 119.351414 
L 113.965303 119.244915 
L 114.031857 119.123802 
L 114.098411 119.496692 
L 114.164965 119.342157 
L 114.364626 118.900351 
L 114.497734 119.823243 
L 114.564288 119.673412 
L 114.630841 120.040005 
L 114.697395 119.875586 
L 114.830503 119.552333 
L 114.897057 119.963705 
L 114.96361 119.817151 
L 115.895363 118.094838 
L 115.961917 118.649886 
L 116.028471 118.500792 
L 116.694009 117.115042 
L 116.760563 117.641767 
L 116.827116 117.500885 
L 117.359547 116.458765 
L 117.426101 116.637748 
L 117.758869 115.970837 
L 117.825423 116.50551 
L 117.891977 116.389709 
L 118.224746 115.753111 
L 118.2913 116.089031 
L 118.357854 115.963897 
L 118.690623 115.282599 
L 118.757176 115.567295 
L 118.82373 115.455402 
L 118.890284 115.314018 
L 119.023392 115.980052 
L 119.089945 115.866751 
L 119.888591 114.384709 
L 119.955145 115.12914 
L 120.021698 114.9997 
L 120.088252 114.879776 
L 120.154806 115.342415 
L 120.22136 115.216265 
L 120.620682 114.497512 
L 120.687236 114.611561 
L 120.820344 114.354695 
L 120.886898 114.677217 
L 120.953451 114.566104 
L 121.352774 113.885613 
L 121.419328 114.213871 
L 121.485882 114.087247 
L 122.217973 112.826351 
L 122.284527 113.064975 
L 122.351081 112.966494 
L 122.816958 112.1835 
L 122.883511 112.573673 
L 122.950065 112.450917 
L 123.815264 111.084976 
L 123.881818 111.425026 
L 123.948372 111.307982 
L 124.480802 110.48316 
L 124.61391 111.055832 
L 124.680464 110.942455 
L 124.880125 110.630173 
L 125.079786 111.11333 
L 125.745324 110.100172 
L 125.811878 110.448466 
L 125.878432 110.352593 
L 126.277755 109.747791 
L 126.344308 110.599698 
L 126.410862 110.505905 
L 127.009846 109.651525 
L 127.0764 109.738264 
L 127.276061 109.442903 
L 127.342615 109.791402 
L 127.409169 109.684635 
L 127.60883 109.391412 
L 127.875046 110.506439 
L 127.941599 110.405764 
L 128.008153 110.300528 
L 128.074707 110.548696 
L 128.141261 110.458039 
L 128.607137 109.803468 
L 128.673691 110.261811 
L 128.740245 110.165392 
L 128.873352 109.979219 
L 128.939906 110.184395 
L 129.00646 110.077951 
L 129.139568 109.880072 
L 129.206121 110.740554 
L 129.272675 110.642184 
L 130.204428 109.380862 
L 130.337536 110.09686 
L 130.40409 110.001367 
L 130.93652 109.294642 
L 131.003074 109.545438 
L 131.069628 109.451789 
L 131.136181 109.587492 
L 131.202735 109.490658 
L 131.402396 109.222884 
L 131.46895 109.490054 
L 131.535504 109.411813 
L 131.602058 109.325941 
L 131.668612 109.738123 
L 131.735165 109.654298 
L 131.801719 109.559527 
L 131.868273 110.187099 
L 131.934827 110.093004 
L 132.33415 109.652613 
L 132.400703 109.81389 
L 132.467257 109.729861 
L 132.933134 109.232954 
L 132.999687 109.516612 
L 133.066241 109.445656 
L 133.39901 109.16861 
L 133.532118 109.905391 
L 133.598672 109.845415 
L 134.330763 109.305692 
L 134.397317 109.662339 
L 134.463871 109.620317 
L 135.661839 108.82039 
L 135.728393 109.178343 
L 135.794947 109.130763 
L 136.926361 108.475242 
L 137.126022 109.288895 
L 138.190883 108.697548 
L 138.323991 108.960453 
L 138.65676 108.771726 
L 138.856421 109.550113 
L 139.18919 109.38336 
L 139.255744 109.86381 
L 139.322297 109.82121 
L 139.388851 109.785921 
L 139.455405 110.111013 
L 139.521959 110.092272 
L 139.788174 109.949944 
L 139.854728 110.142952 
L 139.921282 110.101402 
L 141.052696 109.612564 
L 144.646601 109.000954 
L 148.839489 108.667989 
L 283.877129 108.657009 
L 283.877129 108.657009 
" clip-path="url(#p11f434d9a2)" style="fill: none; stroke: #ff7f0e; stroke-width: 1.8; stroke-linecap: square"/>
   </g>
   <g id="line2d_31">
    <path d="M 77.427273 36.121818 
L 77.826595 36.121818 
L 77.893149 84.116313 
L 77.959703 78.479949 
L 78.159364 68.161212 
L 78.225918 75.661077 
L 78.292472 72.884821 
L 78.492133 65.578925 
L 78.558687 72.677822 
L 78.625241 70.527469 
L 78.891456 64.823614 
L 78.95801 84.091444 
L 79.024564 81.943984 
L 79.157671 77.923165 
L 79.357333 87.982797 
L 79.623548 81.285966 
L 79.690102 84.334562 
L 79.756655 82.975624 
L 79.889763 80.768808 
L 79.956317 85.956111 
L 80.022871 84.548465 
L 80.754962 73.508123 
L 80.821516 72.986113 
L 80.88807 74.990982 
L 80.954624 74.357073 
L 81.220839 71.465412 
L 81.287393 78.975589 
L 81.353946 78.472413 
L 81.487054 76.944557 
L 81.620162 85.979404 
L 81.686715 85.685459 
L 81.753269 93.79925 
L 81.819823 92.771562 
L 81.886377 91.876253 
L 81.95293 94.076875 
L 82.019484 93.131758 
L 82.352253 89.317008 
L 82.418807 91.771687 
L 82.485361 90.982103 
L 82.685022 88.866719 
L 82.884684 93.680094 
L 82.951237 93.09195 
L 83.084345 91.630685 
L 83.150899 94.923421 
L 83.217452 94.130503 
L 83.483668 91.892698 
L 83.550221 96.301875 
L 83.616775 95.724564 
L 83.88299 93.224182 
L 83.949544 98.053504 
L 84.016098 97.845715 
L 84.082652 97.223319 
L 84.149206 99.926389 
L 84.215759 99.287624 
L 84.681636 95.463703 
L 84.74819 96.858959 
L 84.814743 96.181564 
L 84.947851 95.178271 
L 85.147512 98.530119 
L 85.413728 96.722274 
L 85.480281 98.234674 
L 85.546835 97.719031 
L 85.946158 94.829595 
L 86.079265 102.44381 
L 86.145819 101.794809 
L 86.67825 98.184979 
L 86.877911 96.909102 
L 87.077572 106.53632 
L 87.144126 105.931993 
L 87.277234 105.014511 
L 87.476895 109.373246 
L 87.543449 108.77061 
L 87.610003 108.360744 
L 87.74311 109.777606 
L 88.009325 107.686997 
L 88.075879 109.737775 
L 88.142433 109.26634 
L 88.674863 106.229564 
L 88.741417 108.356779 
L 88.807971 107.822245 
L 89.074186 106.889868 
L 89.207294 111.267153 
L 89.872831 107.065553 
L 89.939385 108.863807 
L 90.005939 108.433903 
L 90.072493 108.046975 
L 90.272154 113.743862 
L 90.338708 114.352475 
L 91.004246 110.521352 
L 91.0708 112.068937 
L 91.137353 111.668355 
L 91.337015 110.593328 
L 91.403569 110.695667 
L 91.470122 111.469331 
L 91.536676 111.250504 
L 92.002553 108.881847 
L 92.069107 108.573803 
L 92.13566 109.19876 
L 92.202214 108.798377 
L 92.801198 105.716543 
L 92.867752 107.37717 
L 92.934306 107.119851 
L 93.466736 104.645322 
L 93.53329 105.377585 
L 93.599844 105.109734 
L 94.731258 100.520855 
L 94.797812 100.628991 
L 95.263688 98.864763 
L 95.46335 102.466136 
L 95.529904 102.227512 
L 95.862673 101.063012 
L 95.929226 101.818179 
L 95.99578 101.554446 
L 96.328549 100.510691 
L 96.52821 99.8132 
L 96.594764 100.111038 
L 97.193748 98.127895 
L 97.260302 98.333313 
L 97.39341 101.317098 
L 97.859286 99.836891 
L 97.92584 100.875191 
L 97.992394 100.646831 
L 98.724486 98.421241 
L 98.990701 97.637805 
L 99.057254 98.968604 
L 99.123808 98.791248 
L 99.190362 98.60407 
L 99.256916 98.978392 
L 99.32347 98.79177 
L 99.390023 98.584814 
L 99.456577 99.38328 
L 99.523131 99.210722 
L 99.8559 98.286061 
L 99.922454 98.088284 
L 99.989008 98.779144 
L 100.055561 98.575914 
L 100.321777 98.108686 
L 100.454884 97.736476 
L 100.521438 98.351595 
L 100.587992 98.162078 
L 101.120422 96.763433 
L 101.186976 97.18293 
L 101.25353 97.02627 
L 101.453191 96.478333 
L 101.519745 97.509774 
L 101.586299 97.34018 
L 101.719406 96.975532 
L 101.919067 99.251888 
L 101.985621 99.094776 
L 102.052175 98.895289 
L 102.118729 99.554208 
L 102.185283 99.359224 
L 102.983928 97.324627 
L 103.050482 98.186955 
L 103.117036 98.016926 
L 103.71602 96.536193 
L 103.782574 97.291972 
L 103.849127 97.107666 
L 104.913988 94.758939 
L 104.980542 95.267538 
L 105.047096 95.119133 
L 105.113649 94.993373 
L 105.180203 96.213825 
L 105.246757 96.098481 
L 105.64608 95.256152 
L 105.712633 95.662252 
L 105.779187 95.510669 
L 106.045402 94.958197 
L 106.245064 96.177464 
L 106.311618 96.515084 
L 106.378171 96.37041 
L 106.844048 95.363582 
L 106.910602 96.197948 
L 106.977156 96.083677 
L 107.110263 95.809308 
L 107.176817 97.239239 
L 107.243371 97.079944 
L 107.376478 96.78847 
L 107.443032 97.861151 
L 107.509586 97.703706 
L 108.308231 96.057819 
L 108.374785 97.296378 
L 108.441339 97.141581 
L 108.907215 96.232568 
L 108.973769 97.090943 
L 109.040323 96.993565 
L 109.838968 95.439139 
L 111.10349 93.130593 
L 111.236598 94.621104 
L 112.101797 93.116608 
L 112.168351 94.498504 
L 112.234905 94.387578 
L 113.366319 92.450411 
L 113.432873 93.066342 
L 113.499427 92.957736 
L 113.89875 92.324729 
L 114.497734 91.382521 
L 114.564288 91.607793 
L 114.630841 91.523259 
L 115.429487 90.437994 
L 115.496041 90.924281 
L 115.562594 90.819995 
L 116.560901 89.39425 
L 116.627455 89.810235 
L 116.694009 89.732673 
L 117.758869 88.416612 
L 120.421021 85.267891 
L 121.153113 84.451024 
L 121.818651 83.77774 
L 123.948372 81.750889 
L 124.014926 82.157578 
L 124.08148 82.08925 
L 124.61391 81.603029 
L 124.680464 82.085635 
L 124.747017 82.022885 
L 126.277755 80.733316 
L 126.54397 80.631347 
L 127.209508 80.12704 
L 128.873352 78.771718 
L 130.40409 77.740911 
L 132.400703 76.53498 
L 133.598672 75.887712 
L 133.93144 75.759386 
L 135.195962 75.213735 
L 135.8615 74.89737 
L 136.859807 74.511257 
L 136.926361 74.77183 
L 136.992915 74.74574 
L 138.65676 74.114581 
L 141.11925 73.421101 
L 141.252357 73.619633 
L 142.516879 73.306049 
L 144.446939 72.874825 
L 153.098932 71.721081 
L 156.626283 71.440969 
L 158.889112 71.297842 
L 167.541104 70.999578 
L 210.268638 70.779432 
L 221.848997 70.870652 
L 221.982105 71.026906 
L 224.244934 71.026906 
L 224.378041 71.151892 
L 225.442902 71.151892 
L 225.576009 71.308105 
L 228.171607 71.30604 
L 228.304715 71.430986 
L 230.50099 71.430986 
L 230.634097 71.555918 
L 231.632404 71.648044 
L 231.765512 71.804167 
L 232.564157 71.804167 
L 232.697265 71.92905 
L 234.427663 72.020596 
L 234.560771 72.145445 
L 237.089815 72.239073 
L 237.222923 72.363897 
L 238.021568 72.363897 
L 238.154676 72.488706 
L 239.618859 72.551105 
L 239.81852 72.644697 
L 240.284397 72.644697 
L 240.417505 72.769473 
L 241.016489 72.769473 
L 241.149596 72.894235 
L 241.948242 72.987797 
L 242.214457 73.174895 
L 243.013102 73.265165 
L 243.14621 73.389858 
L 243.67864 73.483368 
L 243.878302 73.576869 
L 245.409039 73.670362 
L 245.6087 73.763847 
L 246.141131 73.826166 
L 246.340792 73.919638 
L 249.069497 73.917976 
L 249.202605 74.073737 
L 250.267465 74.13325 
L 250.467127 74.19554 
L 250.86645 74.19554 
L 250.999557 74.351248 
L 251.465434 74.413525 
L 251.665095 74.506934 
L 255.525215 74.593009 
L 255.724876 74.686384 
L 257.921151 74.777487 
L 258.054259 74.93307 
L 259.65155 74.964184 
L 259.784657 75.088631 
L 261.115733 75.150849 
L 261.315395 75.213064 
L 263.112347 75.304658 
L 263.378562 75.335759 
L 264.443423 75.36686 
L 264.57653 75.522351 
L 266.50659 75.615634 
L 266.706252 75.708909 
L 268.636312 75.771088 
L 268.835973 75.86435 
L 270.632925 75.957603 
L 270.766033 76.081928 
L 275.158583 76.077836 
L 275.291691 76.202134 
L 278.552826 76.295348 
L 278.752488 76.357486 
L 278.885595 76.357486 
L 279.018703 76.512815 
L 281.015316 76.57494 
L 281.214978 76.637062 
L 281.680854 76.730238 
L 281.880516 76.823405 
L 284.076791 76.883724 
L 284.276452 77.101061 
L 284.40956 77.101061 
L 284.542667 77.225234 
L 287.071711 77.318354 
L 287.204819 77.442501 
L 289.267986 77.50094 
L 289.401094 77.656081 
L 290.000078 77.74733 
L 290.19974 77.840392 
L 292.462568 77.837343 
L 292.595676 77.992417 
L 293.527429 78.08545 
L 293.660537 78.240488 
L 294.259521 78.302496 
L 294.392628 78.426503 
L 296.256134 78.48293 
L 296.455796 78.544917 
L 296.722011 78.544917 
L 296.855119 78.668878 
L 299.251055 78.76184 
L 299.450716 78.854793 
L 300.249362 78.945236 
L 300.382469 79.100118 
L 300.582131 79.162065 
L 300.715238 79.285947 
L 301.913207 79.347882 
L 302.112868 79.440779 
L 302.379083 79.595588 
L 303.177729 79.657506 
L 303.37739 79.719419 
L 304.508804 79.78133 
L 304.641912 79.905139 
L 304.708466 79.905139 
L 304.841573 80.028934 
L 307.503725 80.086335 
L 307.76994 80.241034 
L 308.568586 80.301618 
L 308.701693 80.42535 
L 311.829721 80.514253 
L 311.962829 80.63795 
L 315.357072 80.63795 
L 315.49018 80.79255 
L 318.218885 80.854383 
L 318.351993 80.97804 
L 322.079005 81.070773 
L 322.278666 81.132591 
L 322.411774 81.132591 
L 322.544881 81.256215 
L 324.208726 81.314067 
L 324.408388 81.375865 
L 324.874264 81.434355 
L 325.007372 81.588814 
L 326.005679 81.588814 
L 326.138786 81.74325 
L 329.865798 81.835901 
L 330.06546 81.928544 
L 332.461396 81.928544 
L 332.594504 82.052055 
L 334.99044 82.052055 
L 335.123548 82.175552 
L 336.787393 82.268165 
L 336.9205 82.422502 
L 339.516098 82.422502 
L 339.649206 82.576817 
L 342.377911 82.636503 
L 342.577572 82.698216 
L 344.441078 82.7901 
L 344.64074 82.882653 
L 346.837015 82.975199 
L 347.036676 83.067737 
L 347.768768 83.067737 
L 347.901875 83.191108 
L 347.968429 83.191108 
L 348.101537 83.314464 
L 350.96335 83.404906 
L 351.163011 83.466571 
L 353.558948 83.555607 
L 353.758609 83.648083 
L 358.683589 83.739164 
L 358.883251 83.831622 
L 362.477156 83.861744 
L 362.676817 83.954189 
L 364.207554 83.985002 
L 364.407215 84.077436 
L 364.873092 84.077436 
L 365.072753 84.231475 
L 367.934566 84.259477 
L 368.067674 84.382682 
L 371.262256 84.379872 
L 371.461917 84.657014 
L 373.658192 84.657014 
L 373.7913 84.810951 
L 378.18385 84.869682 
L 378.316958 85.023578 
L 382.709508 85.115905 
L 382.909169 85.177452 
L 385.105444 85.236137 
L 385.238552 85.359206 
L 385.637874 85.359206 
L 385.770982 85.482261 
L 386.503074 85.482261 
L 386.636181 85.605301 
L 392.492915 85.666816 
L 392.692576 85.759081 
L 395.155066 85.851339 
L 395.421282 86.005083 
L 396.818911 86.000731 
L 396.952019 86.1237 
L 398.283095 86.1237 
L 398.416202 86.277391 
L 398.615864 86.277391 
L 398.748971 86.43106 
L 400.146601 86.461791 
L 400.346262 86.553979 
L 402.276322 86.584706 
L 402.40943 86.707607 
L 404.472597 86.799774 
L 404.672258 86.861213 
L 407.534071 86.921173 
L 407.733733 86.982604 
L 408.665486 86.982604 
L 408.798593 87.105455 
L 411.061422 87.135424 
L 411.19453 87.258256 
L 417.983016 87.35037 
L 418.116124 87.473176 
L 424.505288 87.565272 
L 424.638395 87.718747 
L 427.034332 87.718747 
L 427.167439 87.872199 
L 429.563376 87.933574 
L 429.763037 87.994945 
L 431.160667 87.994945 
L 431.160667 87.994945 
" clip-path="url(#p11f434d9a2)" style="fill: none; stroke: #2ca02c; stroke-width: 1.8; stroke-linecap: square"/>
   </g>
   <g id="line2d_32">
    <path d="M 77.427273 36.121818 
L 77.493827 36.121818 
L 77.56038 203.58313 
L 77.626934 158.975532 
L 77.893149 97.818091 
L 77.959703 89.004338 
L 78.026257 115.209093 
L 78.092811 108.368463 
L 78.42558 83.495489 
L 79.091117 64.699573 
L 79.357333 60.918974 
L 79.423886 92.586445 
L 79.49044 90.670535 
L 80.155978 78.380174 
L 80.355639 75.760424 
L 80.821516 70.747665 
L 80.88807 78.427834 
L 80.954624 77.47029 
L 81.287393 74.263766 
L 81.353946 82.792039 
L 81.4205 81.97412 
L 82.019484 76.006539 
L 82.551915 71.635057 
L 82.951237 69.239776 
L 83.749883 64.900894 
L 83.949544 64.043664 
L 85.147512 59.720815 
L 85.347174 67.901145 
L 86.611696 63.44466 
L 87.277234 61.611452 
L 87.543449 60.971206 
L 87.610003 63.479379 
L 87.676556 63.329596 
L 88.208987 61.974449 
L 88.475202 61.402111 
L 88.541756 65.100983 
L 88.608309 64.914943 
L 89.473509 62.871624 
L 89.540063 65.512418 
L 89.606616 65.324161 
L 90.405262 63.441268 
L 90.471816 64.173573 
L 90.538369 64.033736 
L 91.0708 62.910306 
L 92.335322 60.702043 
L 92.867752 59.753547 
L 93.932613 58.157726 
L 95.130581 56.751727 
L 95.729565 56.052369 
L 96.195442 55.538938 
L 96.261995 57.259469 
L 96.328549 57.170534 
L 98.125501 55.239066 
L 98.192055 57.106661 
L 98.258609 57.033208 
L 102.451498 53.419915 
L 102.983928 53.124529 
L 103.449805 52.809466 
L 103.516358 53.688654 
L 103.582912 53.646048 
L 103.782574 53.500562 
L 103.849127 54.038899 
L 103.915681 53.996715 
L 104.514665 53.568445 
L 104.581219 55.222931 
L 104.647773 55.177126 
L 105.246757 54.785517 
L 106.378171 54.020918 
L 109.572753 52.210623 
L 110.437953 51.790286 
L 112.434566 50.860758 
L 112.50112 50.827515 
L 112.567674 52.864974 
L 112.634228 52.832653 
L 113.699088 52.326985 
L 117.891977 50.594978 
L 120.687236 49.642495 
L 120.75379 50.681246 
L 120.820344 50.660263 
L 121.752097 50.369474 
L 121.818651 50.788115 
L 121.885204 50.766799 
L 123.748711 50.176966 
L 123.815264 51.001936 
L 123.881818 50.990613 
L 129.938213 49.430639 
L 131.934827 49.063427 
L 132.001381 49.951339 
L 132.067934 49.939844 
L 132.201042 49.921335 
L 132.33415 50.596007 
L 133.39901 50.411589 
L 133.465564 51.086981 
L 133.532118 51.073918 
L 134.596978 50.897733 
L 134.730086 51.279634 
L 135.395624 51.169546 
L 135.528731 51.50867 
L 135.994608 51.44514 
L 136.061162 51.942005 
L 136.127716 51.931421 
L 136.593592 51.849797 
L 136.7267 52.376405 
L 139.588513 51.960876 
L 142.117557 51.611814 
L 142.250664 51.893419 
L 142.982756 51.79102 
L 143.115864 52.173253 
L 144.380386 52.007435 
L 144.513493 52.349961 
L 145.911123 52.265776 
L 146.04423 52.608132 
L 146.310445 52.571627 
L 146.443553 52.875753 
L 147.44186 52.765857 
L 147.574967 52.893509 
L 147.907736 52.852937 
L 147.97429 53.268997 
L 148.040844 53.258079 
L 148.506721 53.213153 
L 148.639828 53.438684 
L 150.303673 53.253122 
L 150.43678 53.587268 
L 151.102318 53.523483 
L 151.235426 53.785805 
L 152.300287 53.68769 
L 152.433394 53.810822 
L 153.165486 53.741614 
L 153.298593 54.136991 
L 153.631362 54.100571 
L 153.76447 54.294745 
L 154.829331 54.199438 
L 154.962438 54.626947 
L 155.095546 54.615341 
L 155.228653 54.803414 
L 156.293514 54.688516 
L 156.426622 55.079294 
L 156.493175 55.07546 
L 156.626283 55.294118 
L 157.025606 55.254865 
L 157.158713 55.514075 
L 158.223574 55.415666 
L 158.356681 55.668538 
L 160.486403 55.475239 
L 160.61951 55.861915 
L 160.686064 55.857099 
L 160.819172 56.074421 
L 161.018833 56.058926 
L 161.151941 56.278247 
L 161.884032 56.2119 
L 162.01714 56.432446 
L 162.283355 56.40784 
L 162.416463 56.62824 
L 163.281662 56.554013 
L 163.414769 56.775635 
L 163.814092 56.739266 
L 163.9472 56.955661 
L 166.40969 56.775778 
L 166.542798 57.120434 
L 167.674212 57.027578 
L 167.873873 57.46228 
L 169.138395 57.372472 
L 169.271503 57.523402 
L 170.070148 57.458526 
L 170.203256 57.769976 
L 170.669133 57.735637 
L 170.868794 58.132356 
L 172.7323 58.009006 
L 172.865408 58.159525 
L 173.26473 58.138325 
L 173.397838 58.417656 
L 173.730607 58.403046 
L 173.863715 58.614153 
L 174.263037 58.593218 
L 174.396145 58.744988 
L 175.793774 58.672528 
L 176.05999 59.159328 
L 176.658974 59.125677 
L 176.792081 59.430565 
L 177.923496 59.372078 
L 178.056603 59.677707 
L 183.048138 59.443692 
L 183.181245 59.686102 
L 184.31266 59.639786 
L 184.445767 59.790867 
L 186.841704 59.686167 
L 186.974811 59.925554 
L 188.971425 59.843847 
L 189.104532 60.052763 
L 189.903178 60.015644 
L 190.036285 60.131613 
L 191.433915 60.0732 
L 191.567023 60.249695 
L 191.966345 60.229698 
L 192.166007 60.523423 
L 192.831545 60.492966 
L 192.964652 60.668182 
L 193.63019 60.640337 
L 193.763298 60.785656 
L 195.094374 60.730529 
L 195.227481 60.90465 
L 195.56025 60.89185 
L 195.693358 61.037323 
L 196.758218 60.990818 
L 196.891326 61.163312 
L 199.886246 61.091113 
L 200.019354 61.295708 
L 202.149075 61.210934 
L 202.282183 61.327623 
L 203.080828 61.296703 
L 203.213936 61.501651 
L 206.27541 61.378092 
L 206.408518 61.549536 
L 209.469992 61.477127 
L 209.669654 61.558393 
L 209.869315 61.548338 
L 210.002423 61.689551 
L 211.932482 61.608976 
L 212.06559 61.75039 
L 213.729435 61.681313 
L 213.929096 61.966726 
L 215.459833 61.908417 
L 215.592941 62.020814 
L 221.250013 61.813639 
L 221.383121 61.924789 
L 223.379734 61.884752 
L 223.512842 62.026716 
L 228.903699 61.940388 
L 230.168221 61.922848 
L 230.301328 62.034363 
L 233.096588 62.084525 
L 233.296249 62.167758 
L 240.284397 62.145719 
L 240.484058 62.202412 
L 248.470513 62.163433 
L 248.670175 62.247902 
L 249.269159 62.242376 
L 249.402266 62.355081 
L 250.267465 62.345721 
L 250.400573 62.458023 
L 257.588382 62.39588 
L 257.72149 62.536777 
L 259.65155 62.634106 
L 259.851211 62.717528 
L 260.050873 62.715076 
L 260.18398 62.85583 
L 260.383642 62.853366 
L 260.516749 62.994089 
L 262.047486 63.067869 
L 262.247148 63.151899 
L 284.476114 63.144166 
L 303.710159 63.229617 
L 303.843266 63.369609 
L 303.90982 63.369609 
L 304.042928 63.48159 
L 305.174342 63.565568 
L 305.374004 63.649539 
L 305.440557 63.649539 
L 305.573665 63.76149 
L 307.76994 63.76149 
L 307.903048 63.873429 
L 309.500339 63.873429 
L 309.633446 63.985357 
L 310.764861 63.985357 
L 310.897968 64.12525 
L 315.357072 64.235679 
L 315.49018 64.347562 
L 318.817869 64.457579 
L 319.017531 64.54147 
L 320.41516 64.625355 
L 320.614822 64.709232 
L 320.814483 64.709232 
L 320.947591 64.821059 
L 322.145559 64.821059 
L 322.278666 64.932874 
L 324.075619 64.932874 
L 324.208726 65.044678 
L 324.27528 65.044678 
L 324.408388 65.156469 
L 325.340141 65.184415 
L 325.539802 65.268249 
L 327.203647 65.324135 
L 327.403308 65.407958 
L 328.800938 65.407958 
L 328.934045 65.519711 
L 330.331675 65.603519 
L 330.464782 65.715252 
L 331.99552 65.771114 
L 332.195181 65.826973 
L 332.661058 65.826973 
L 332.794165 65.966609 
L 333.126934 65.966609 
L 333.326595 66.106226 
L 334.324902 66.106226 
L 334.45801 66.217906 
L 335.190102 66.217906 
L 335.323209 66.357491 
L 336.787393 66.441232 
L 336.9205 66.552878 
L 338.451237 66.636604 
L 338.650899 66.720324 
L 343.043449 66.829531 
L 343.176556 66.941127 
L 345.572493 67.024816 
L 345.772154 67.108499 
L 350.697135 67.161442 
L 350.830242 67.272993 
L 351.362673 67.356649 
L 351.562334 67.412415 
L 353.159625 67.412415 
L 353.292732 67.52394 
L 353.558948 67.607576 
L 353.758609 67.663329 
L 353.891717 67.663329 
L 354.024824 67.802701 
L 355.88833 67.802701 
L 356.021438 67.913353 
L 358.018052 67.968673 
L 358.217713 68.191586 
L 360.081219 68.273905 
L 360.214327 68.385331 
L 362.410602 68.385331 
L 362.543709 68.496745 
L 364.739984 68.580298 
L 364.873092 68.719538 
L 367.335582 68.77395 
L 367.535244 68.857477 
L 369.798072 68.936712 
L 369.997734 69.020216 
L 370.46361 69.020216 
L 370.596718 69.131545 
L 371.595025 69.159375 
L 371.728132 69.270689 
L 374.922714 69.381557 
L 375.122376 69.437203 
L 377.717973 69.546305 
L 377.851081 69.657569 
L 381.711201 69.764431 
L 381.844308 69.875658 
L 384.573014 69.927296 
L 384.706121 70.038493 
L 385.03889 70.038493 
L 385.171998 70.149678 
L 385.970643 70.205266 
L 386.170305 70.260852 
L 390.163532 70.36978 
L 390.363194 70.508707 
L 391.028731 70.508707 
L 391.161839 70.619836 
L 393.025345 70.701822 
L 393.225007 70.785151 
L 396.486142 70.867567 
L 396.685804 71.089724 
L 398.482756 71.143429 
L 398.615864 71.254478 
L 399.61417 71.309999 
L 399.747278 71.421031 
L 401.610784 71.446944 
L 401.743892 71.557956 
L 405.204689 71.639355 
L 405.337796 71.750341 
L 407.600625 71.833573 
L 407.800287 71.916798 
L 411.19453 71.996744 
L 411.460745 72.190879 
L 416.052956 72.301797 
L 416.252618 72.357251 
L 417.849909 72.468152 
L 418.04957 72.55132 
L 418.781662 72.633054 
L 418.981323 72.68849 
L 421.843136 72.771637 
L 422.175905 72.908764 
L 423.706642 73.019598 
L 423.906304 73.102717 
L 427.966085 73.212082 
L 428.298854 73.239782 
L 430.961005 73.292761 
L 431.160667 73.375849 
L 434.222141 73.457473 
L 434.355249 73.568234 
L 435.153894 73.595922 
L 435.287002 73.706669 
L 435.819432 73.762038 
L 436.019094 73.845086 
L 438.281922 73.928128 
L 438.41503 74.03884 
L 441.210289 74.121866 
L 441.343397 74.232558 
L 442.541365 74.31557 
L 442.741026 74.398575 
L 446.334931 74.478578 
L 446.468039 74.589224 
L 448.198437 74.672201 
L 448.398098 74.755171 
L 450.52782 74.865789 
L 450.860589 74.893441 
L 452.324772 74.893441 
L 452.324772 74.893441 
" clip-path="url(#p11f434d9a2)" style="fill: none; stroke: #d62728; stroke-width: 1.8; stroke-linecap: square"/>
   </g>
   <g id="line2d_33">
    <path d="M 77.427273 173.091148 
L 77.626934 71.715822 
L 77.693488 67.215431 
L 77.760042 77.245152 
L 77.826595 71.96638 
L 77.893149 66.873014 
L 78.026257 130.987152 
L 78.092811 121.302253 
L 78.159364 114.638477 
L 78.225918 159.082922 
L 78.292472 149.805054 
L 78.691795 115.419852 
L 78.758349 111.694103 
L 78.824902 117.588215 
L 78.891456 113.904517 
L 79.157671 102.709985 
L 79.224225 110.42621 
L 79.290779 107.893495 
L 79.49044 100.588641 
L 79.556994 102.91015 
L 80.089424 90.312676 
L 80.155978 106.638708 
L 80.222532 104.919315 
L 80.88807 91.446685 
L 81.620162 82.034051 
L 82.219146 76.248531 
L 83.483668 67.770816 
L 84.814743 62.040875 
L 85.214066 60.768422 
L 86.012712 58.454639 
L 87.676556 54.93386 
L 89.872831 51.585147 
L 90.871138 50.427953 
L 94.531597 47.354629 
L 95.596457 46.691995 
L 97.326856 45.756739 
L 99.256916 44.870695 
L 103.982235 43.310643 
L 106.245064 42.754678 
L 110.371399 41.926002 
L 114.564288 41.278408 
L 118.890284 40.738239 
L 126.943293 39.981225 
L 138.257437 39.320737 
L 146.376999 39.190809 
L 159.354988 39.242753 
L 159.488096 39.361467 
L 164.546184 39.420639 
L 164.745845 39.539327 
L 167.274889 39.628239 
L 167.474551 39.717237 
L 172.133316 39.776565 
L 172.332977 39.865551 
L 176.991743 39.954214 
L 177.191404 40.102429 
L 178.123157 40.102429 
L 178.322818 40.309969 
L 183.514014 40.39855 
L 183.846783 40.42819 
L 186.242719 40.457592 
L 186.375827 40.576136 
L 188.904871 40.664973 
L 189.037979 40.783492 
L 195.693358 40.842553 
L 195.826465 40.99067 
L 199.154155 41.049708 
L 199.353816 41.13856 
L 199.553477 41.13856 
L 199.686585 41.28663 
L 213.063897 41.286205 
L 213.197004 41.404636 
L 216.45814 41.463847 
L 216.591248 41.611861 
L 217.456447 41.700659 
L 217.589555 41.819045 
L 217.789216 41.819045 
L 217.988877 41.9966 
L 219.386507 42.085367 
L 219.586168 42.174126 
L 220.185152 42.174126 
L 220.31826 42.29246 
L 221.383121 42.380774 
L 221.582782 42.439927 
L 221.71589 42.439927 
L 221.848997 42.558224 
L 225.642563 42.646759 
L 225.842225 42.735464 
L 227.439515 42.794596 
L 227.572623 42.942413 
L 228.637484 43.031093 
L 228.770591 43.178877 
L 232.364496 43.267538 
L 232.564157 43.326641 
L 235.42597 43.356192 
L 235.625632 43.444838 
L 237.422584 43.474385 
L 237.688799 43.651651 
L 245.6087 43.710109 
L 245.808362 43.798719 
L 249.136051 43.798719 
L 249.269159 43.916854 
L 249.535374 43.916854 
L 249.668481 44.064505 
L 249.868143 44.153086 
L 250.067804 44.212135 
L 251.598541 44.212135 
L 251.731649 44.359746 
L 258.786351 44.418671 
L 258.986012 44.507221 
L 263.777885 44.594952 
L 263.977546 44.683479 
L 269.568065 44.772 
L 269.767726 44.919517 
L 275.358244 44.977064 
L 275.824121 45.242486 
L 276.68932 45.330946 
L 276.888982 45.419398 
L 277.155197 45.419398 
L 277.288304 45.566803 
L 280.349779 45.654193 
L 280.54944 45.713137 
L 286.139958 45.800887 
L 286.273066 45.918749 
L 288.602449 45.918749 
L 288.735556 46.066059 
L 294.326074 46.124567 
L 294.525736 46.18348 
L 295.590597 46.212935 
L 295.790258 46.301295 
L 297.387549 46.389649 
L 297.520656 46.536888 
L 299.051394 46.595778 
L 299.184501 46.713549 
L 300.715238 46.713549 
L 300.848346 46.831307 
L 304.109482 46.919616 
L 304.309143 46.978486 
L 307.570279 47.066634 
L 307.76994 47.125193 
L 313.227351 47.124742 
L 313.360458 47.271869 
L 317.819562 47.360135 
L 318.019224 47.44824 
L 318.218885 47.507074 
L 323.74285 47.565906 
L 323.942511 47.654147 
L 325.340141 47.742381 
L 325.473248 47.860015 
L 328.534723 47.859534 
L 328.66783 47.97715 
L 330.06546 48.065354 
L 330.265121 48.15355 
L 330.930659 48.15355 
L 331.063767 48.271134 
L 333.126934 48.329421 
L 333.260042 48.446981 
L 334.191795 48.535143 
L 334.324902 48.652681 
L 335.789086 48.740825 
L 335.988747 48.975843 
L 338.650899 49.063608 
L 338.784006 49.181084 
L 344.374525 49.268107 
L 344.707294 49.297469 
L 345.306278 49.297469 
L 345.439385 49.444269 
L 345.572493 49.444269 
L 345.7056 49.561694 
L 350.098151 49.620402 
L 350.297812 49.708458 
L 350.896796 49.708458 
L 351.029904 49.825854 
L 354.291039 49.913893 
L 354.424147 50.031268 
L 356.75353 50.08995 
L 356.953191 50.148629 
L 359.016358 50.206344 
L 359.21602 50.294346 
L 363.475462 50.35301 
L 363.675124 50.499655 
L 364.673431 50.499459 
L 364.806538 50.646083 
L 366.536937 50.64529 
L 366.670044 50.762568 
L 369.132535 50.850519 
L 369.332196 50.909148 
L 370.596718 50.996275 
L 370.796379 51.084201 
L 372.859547 51.113508 
L 372.992654 51.260032 
L 374.32373 51.318636 
L 374.456838 51.465132 
L 377.451758 51.55302 
L 377.784527 51.582314 
L 378.849388 51.640901 
L 379.049049 51.699484 
L 380.912555 51.758064 
L 381.045663 51.875214 
L 381.711201 51.875214 
L 381.844308 52.021634 
L 385.770982 52.078457 
L 385.90409 52.195559 
L 389.764209 52.224833 
L 389.963871 52.371189 
L 391.694269 52.371189 
L 391.827377 52.48826 
L 394.556082 52.545671 
L 394.755744 52.633455 
L 395.754051 52.721232 
L 396.685804 53.013769 
L 398.216541 53.072267 
L 398.416202 53.130299 
L 400.146601 53.217567 
L 400.346262 53.305291 
L 405.005027 53.36377 
L 405.204689 53.422245 
L 407.667179 53.509953 
L 407.800287 53.626885 
L 411.127976 53.684628 
L 411.460745 53.713857 
L 413.790128 53.799852 
L 413.989789 53.887516 
L 418.182678 53.942316 
L 418.382339 54.00074 
L 423.30732 54.058917 
L 423.440427 54.204954 
L 424.904611 54.234158 
L 425.104272 54.321768 
L 426.30224 54.380171 
L 426.435348 54.496966 
L 427.233993 54.496716 
L 427.367101 54.613498 
L 428.431961 54.613498 
L 428.565069 54.730266 
L 429.563376 54.788646 
L 429.763037 54.876209 
L 430.961005 54.963766 
L 431.094113 55.080496 
L 432.225527 55.079722 
L 432.358635 55.196436 
L 434.02248 55.225612 
L 434.288695 55.429824 
L 438.481584 55.517331 
L 438.681245 55.604831 
L 444.73764 55.692325 
L 444.937301 55.779811 
L 447.133576 55.779009 
L 447.266684 55.924797 
L 447.932222 55.983107 
L 448.131883 56.041413 
L 449.329852 56.099717 
L 449.729174 56.332899 
L 449.795728 56.332899 
L 449.928836 56.449471 
L 451.06025 56.507752 
L 451.193358 56.624305 
L 455.918677 56.710032 
L 456.184892 56.88481 
L 458.314613 56.942496 
L 458.447721 57.088111 
L 458.78049 57.17547 
L 458.980151 57.233705 
L 462.307841 57.291937 
L 462.440948 57.436925 
L 463.306147 57.436925 
L 463.439255 57.582468 
L 473.35577 57.639802 
L 473.621985 57.727111 
L 474.154415 57.727111 
L 474.287523 57.84351 
L 477.282443 57.872608 
L 477.482105 57.959897 
L 478.081089 57.959897 
L 478.214196 58.076272 
L 478.746627 58.105363 
L 478.879734 58.221722 
L 483.937822 58.308982 
L 484.270591 58.337163 
L 488.330372 58.393514 
L 488.530034 58.450763 
L 490.859417 58.53799 
L 491.192185 58.567065 
L 491.724616 58.567065 
L 491.857723 58.683354 
L 494.25366 58.770562 
L 494.586429 58.79963 
L 496.71615 58.885594 
L 496.915811 58.972781 
L 499.511409 58.972781 
L 499.644517 59.08902 
L 501.042146 59.08902 
L 501.175254 59.205246 
L 503.637744 59.204933 
L 503.770852 59.321145 
L 508.163402 59.347359 
L 508.29651 59.492585 
L 516.615733 59.575893 
L 516.948502 59.604929 
L 521.740375 59.661721 
L 521.873483 59.777844 
L 525.467387 59.8359 
L 525.600495 59.952004 
L 531.390675 60.033885 
L 531.590336 60.091915 
L 533.58695 60.119953 
L 533.786611 60.206986 
L 534.185934 60.206986 
L 534.385595 60.381031 
L 534.851472 60.379387 
L 534.984579 60.495394 
L 536.182548 60.523732 
L 536.315655 60.63972 
L 537.9795 60.69671 
L 538.312269 60.841663 
L 541.972727 60.841663 
L 541.972727 60.841663 
" clip-path="url(#p11f434d9a2)" style="fill: none; stroke: #9467bd; stroke-width: 1.8; stroke-linecap: square"/>
   </g>
   <g id="patch_3">
    <path d="M 54.2 260.44 
L 54.2 25.44 
" style="fill: none; stroke: #000000; stroke-width: 0.8; stroke-linejoin: miter; stroke-linecap: square"/>
   </g>
   <g id="patch_4">
    <path d="M 565.2 260.44 
L 565.2 25.44 
" style="fill: none; stroke: #000000; stroke-width: 0.8; stroke-linejoin: miter; stroke-linecap: square"/>
   </g>
   <g id="patch_5">
    <path d="M 54.2 260.44 
L 565.2 260.44 
" style="fill: none; stroke: #000000; stroke-width: 0.8; stroke-linejoin: miter; stroke-linecap: square"/>
   </g>
   <g id="patch_6">
    <path d="M 54.2 25.44 
L 565.2 25.44 
" style="fill: none; stroke: #000000; stroke-width: 0.8; stroke-linejoin: miter; stroke-linecap: square"/>
   </g>
   <g id="text_17">
    <!-- Timely Transfer Rate (Cumulative) -->
    <g transform="translate(207.277187 19.44) scale(0.12 -0.12)">
     <defs>
      <path id="DejaVuSans-54" d="M -19 4666 
L 3928 4666 
L 3928 4134 
L 2272 4134 
L 2272 0 
L 1638 0 
L 1638 4134 
L -19 4134 
L -19 4666 
z
" transform="scale(0.015625)"/>
      <path id="DejaVuSans-52" d="M 2841 2188 
Q 3044 2119 3236 1894 
Q 3428 1669 3622 1275 
L 4263 0 
L 3584 0 
L 2988 1197 
Q 2756 1666 2539 1819 
Q 2322 1972 1947 1972 
L 1259 1972 
L 1259 0 
L 628 0 
L 628 4666 
L 2053 4666 
Q 2853 4666 3247 4331 
Q 3641 3997 3641 3322 
Q 3641 2881 3436 2590 
Q 3231 2300 2841 2188 
z
M 1259 4147 
L 1259 2491 
L 2053 2491 
Q 2509 2491 2742 2702 
Q 2975 2913 2975 3322 
Q 2975 3731 2742 3939 
Q 2509 4147 2053 4147 
L 1259 4147 
z
" transform="scale(0.015625)"/>
      <path id="DejaVuSans-28" d="M 1984 4856 
Q 1566 4138 1362 3434 
Q 1159 2731 1159 2009 
Q 1159 1288 1364 580 
Q 1569 -128 1984 -844 
L 1484 -844 
Q 1016 -109 783 600 
Q 550 1309 550 2009 
Q 550 2706 781 3412 
Q 1013 4119 1484 4856 
L 1984 4856 
z
" transform="scale(0.015625)"/>
      <path id="DejaVuSans-43" d="M 4122 4306 
L 4122 3641 
Q 3803 3938 3442 4084 
Q 3081 4231 2675 4231 
Q 1875 4231 1450 3742 
Q 1025 3253 1025 2328 
Q 1025 1406 1450 917 
Q 1875 428 2675 428 
Q 3081 428 3442 575 
Q 3803 722 4122 1019 
L 4122 359 
Q 3791 134 3420 21 
Q 3050 -91 2638 -91 
Q 1578 -91 968 557 
Q 359 1206 359 2328 
Q 359 3453 968 4101 
Q 1578 4750 2638 4750 
Q 3056 4750 3426 4639 
Q 3797 4528 4122 4306 
z
" transform="scale(0.015625)"/>
      <path id="DejaVuSans-29" d="M 513 4856 
L 1013 4856 
Q 1481 4119 1714 3412 
Q 1947 2706 1947 2009 
Q 1947 1309 1714 600 
Q 1481 -109 1013 -844 
L 513 -844 
Q 928 -128 1133 580 
Q 1338 1288 1338 2009 
Q 1338 2731 1133 3434 
Q 928 4138 513 4856 
z
" transform="scale(0.015625)"/>
     </defs>
     <use xlink:href="#DejaVuSans-54"/>
     <use xlink:href="#DejaVuSans-69" x="57.958984"/>
     <use xlink:href="#DejaVuSans-6d" x="85.742188"/>
     <use xlink:href="#DejaVuSans-65" x="183.154297"/>
     <use xlink:href="#DejaVuSans-6c" x="244.677734"/>
     <use xlink:href="#DejaVuSans-79" x="272.460938"/>
     <use xlink:href="#DejaVuSans-20" x="331.640625"/>
     <use xlink:href="#DejaVuSans-54" x="363.427734"/>
     <use xlink:href="#DejaVuSans-72" x="409.761719"/>
     <use xlink:href="#DejaVuSans-61" x="450.875"/>
     <use xlink:href="#DejaVuSans-6e" x="512.154297"/>
     <use xlink:href="#DejaVuSans-73" x="575.533203"/>
     <use xlink:href="#DejaVuSans-66" x="627.632812"/>
     <use xlink:href="#DejaVuSans-65" x="662.837891"/>
     <use xlink:href="#DejaVuSans-72" x="724.361328"/>
     <use xlink:href="#DejaVuSans-20" x="765.474609"/>
     <use xlink:href="#DejaVuSans-52" x="797.261719"/>
     <use xlink:href="#DejaVuSans-61" x="864.494141"/>
     <use xlink:href="#DejaVuSans-74" x="925.773438"/>
     <use xlink:href="#DejaVuSans-65" x="964.982422"/>
     <use xlink:href="#DejaVuSans-20" x="1026.505859"/>
     <use xlink:href="#DejaVuSans-28" x="1058.292969"/>
     <use xlink:href="#DejaVuSans-43" x="1097.306641"/>
     <use xlink:href="#DejaVuSans-75" x="1167.130859"/>
     <use xlink:href="#DejaVuSans-6d" x="1230.509766"/>
     <use xlink:href="#DejaVuSans-75" x="1327.921875"/>
     <use xlink:href="#DejaVuSans-6c" x="1391.300781"/>
     <use xlink:href="#DejaVuSans-61" x="1419.083984"/>
     <use xlink:href="#DejaVuSans-74" x="1480.363281"/>
     <use xlink:href="#DejaVuSans-69" x="1519.572266"/>
     <use xlink:href="#DejaVuSans-76" x="1547.355469"/>
     <use xlink:href="#DejaVuSans-65" x="1606.535156"/>
     <use xlink:href="#DejaVuSans-29" x="1668.058594"/>
    </g>
   </g>
   <g id="legend_1">
    <g id="patch_7">
     <path d="M 473.826562 255.44 
L 558.2 255.44 
Q 560.2 255.44 560.2 253.44 
L 560.2 180.493125 
Q 560.2 178.493125 558.2 178.493125 
L 473.826562 178.493125 
Q 471.826562 178.493125 471.826562 180.493125 
L 471.826562 253.44 
Q 471.826562 255.44 473.826562 255.44 
z
" style="fill: #ffffff; opacity: 0.8; stroke: #cccccc; stroke-linejoin: miter"/>
    </g>
    <g id="line2d_34">
     <path d="M 475.826562 186.591563 
L 485.826562 186.591563 
L 495.826562 186.591563 
" style="fill: none; stroke: #1f77b4; stroke-width: 1.8; stroke-linecap: square"/>
    </g>
    <g id="text_18">
     <!-- SHEER -->
     <g transform="translate(503.826562 190.091563) scale(0.1 -0.1)">
      <defs>
       <path id="DejaVuSans-53" d="M 3425 4513 
L 3425 3897 
Q 3066 4069 2747 4153 
Q 2428 4238 2131 4238 
Q 1616 4238 1336 4038 
Q 1056 3838 1056 3469 
Q 1056 3159 1242 3001 
Q 1428 2844 1947 2747 
L 2328 2669 
Q 3034 2534 3370 2195 
Q 3706 1856 3706 1288 
Q 3706 609 3251 259 
Q 2797 -91 1919 -91 
Q 1588 -91 1214 -16 
Q 841 59 441 206 
L 441 856 
Q 825 641 1194 531 
Q 1563 422 1919 422 
Q 2459 422 2753 634 
Q 3047 847 3047 1241 
Q 3047 1584 2836 1778 
Q 2625 1972 2144 2069 
L 1759 2144 
Q 1053 2284 737 2584 
Q 422 2884 422 3419 
Q 422 4038 858 4394 
Q 1294 4750 2059 4750 
Q 2388 4750 2728 4690 
Q 3069 4631 3425 4513 
z
" transform="scale(0.015625)"/>
       <path id="DejaVuSans-48" d="M 628 4666 
L 1259 4666 
L 1259 2753 
L 3553 2753 
L 3553 4666 
L 4184 4666 
L 4184 0 
L 3553 0 
L 3553 2222 
L 1259 2222 
L 1259 0 
L 628 0 
L 628 4666 
z
" transform="scale(0.015625)"/>
       <path id="DejaVuSans-45" d="M 628 4666 
L 3578 4666 
L 3578 4134 
L 1259 4134 
L 1259 2753 
L 3481 2753 
L 3481 2222 
L 1259 2222 
L 1259 531 
L 3634 531 
L 3634 0 
L 628 0 
L 628 4666 
z
" transform="scale(0.015625)"/>
      </defs>
      <use xlink:href="#DejaVuSans-53"/>
      <use xlink:href="#DejaVuSans-48" x="63.476562"/>
      <use xlink:href="#DejaVuSans-45" x="138.671875"/>
      <use xlink:href="#DejaVuSans-45" x="201.855469"/>
      <use xlink:href="#DejaVuSans-52" x="265.039062"/>
     </g>
    </g>
    <g id="line2d_35">
     <path d="M 475.826562 201.269688 
L 485.826562 201.269688 
L 495.826562 201.269688 
" style="fill: none; stroke: #ff7f0e; stroke-width: 1.8; stroke-linecap: square"/>
    </g>
    <g id="text_19">
     <!-- ACTAR -->
     <g transform="translate(503.826562 204.769688) scale(0.1 -0.1)">
      <defs>
       <path id="DejaVuSans-41" d="M 2188 4044 
L 1331 1722 
L 3047 1722 
L 2188 4044 
z
M 1831 4666 
L 2547 4666 
L 4325 0 
L 3669 0 
L 3244 1197 
L 1141 1197 
L 716 0 
L 50 0 
L 1831 4666 
z
" transform="scale(0.015625)"/>
      </defs>
      <use xlink:href="#DejaVuSans-41"/>
      <use xlink:href="#DejaVuSans-43" x="66.658203"/>
      <use xlink:href="#DejaVuSans-54" x="136.482422"/>
      <use xlink:href="#DejaVuSans-41" x="189.816406"/>
      <use xlink:href="#DejaVuSans-52" x="258.224609"/>
     </g>
    </g>
    <g id="line2d_36">
     <path d="M 475.826562 215.947813 
L 485.826562 215.947813 
L 495.826562 215.947813 
" style="fill: none; stroke: #2ca02c; stroke-width: 1.8; stroke-linecap: square"/>
    </g>
    <g id="text_20">
     <!-- TFSM_DPC -->
     <g transform="translate(503.826562 219.447813) scale(0.1 -0.1)">
      <defs>
       <path id="DejaVuSans-46" d="M 628 4666 
L 3309 4666 
L 3309 4134 
L 1259 4134 
L 1259 2759 
L 3109 2759 
L 3109 2228 
L 1259 2228 
L 1259 0 
L 628 0 
L 628 4666 
z
" transform="scale(0.015625)"/>
       <path id="DejaVuSans-4d" d="M 628 4666 
L 1569 4666 
L 2759 1491 
L 3956 4666 
L 4897 4666 
L 4897 0 
L 4281 0 
L 4281 4097 
L 3078 897 
L 2444 897 
L 1241 4097 
L 1241 0 
L 628 0 
L 628 4666 
z
" transform="scale(0.015625)"/>
       <path id="DejaVuSans-5f" d="M 3263 -1063 
L 3263 -1509 
L -63 -1509 
L -63 -1063 
L 3263 -1063 
z
" transform="scale(0.015625)"/>
       <path id="DejaVuSans-44" d="M 1259 4147 
L 1259 519 
L 2022 519 
Q 2988 519 3436 956 
Q 3884 1394 3884 2338 
Q 3884 3275 3436 3711 
Q 2988 4147 2022 4147 
L 1259 4147 
z
M 628 4666 
L 1925 4666 
Q 3281 4666 3915 4102 
Q 4550 3538 4550 2338 
Q 4550 1131 3912 565 
Q 3275 0 1925 0 
L 628 0 
L 628 4666 
z
" transform="scale(0.015625)"/>
       <path id="DejaVuSans-50" d="M 1259 4147 
L 1259 2394 
L 2053 2394 
Q 2494 2394 2734 2622 
Q 2975 2850 2975 3272 
Q 2975 3691 2734 3919 
Q 2494 4147 2053 4147 
L 1259 4147 
z
M 628 4666 
L 2053 4666 
Q 2838 4666 3239 4311 
Q 3641 3956 3641 3272 
Q 3641 2581 3239 2228 
Q 2838 1875 2053 1875 
L 1259 1875 
L 1259 0 
L 628 0 
L 628 4666 
z
" transform="scale(0.015625)"/>
      </defs>
      <use xlink:href="#DejaVuSans-54"/>
      <use xlink:href="#DejaVuSans-46" x="61.083984"/>
      <use xlink:href="#DejaVuSans-53" x="116.853516"/>
      <use xlink:href="#DejaVuSans-4d" x="180.330078"/>
      <use xlink:href="#DejaVuSans-5f" x="266.609375"/>
      <use xlink:href="#DejaVuSans-44" x="316.609375"/>
      <use xlink:href="#DejaVuSans-50" x="393.611328"/>
      <use xlink:href="#DejaVuSans-43" x="453.914062"/>
     </g>
    </g>
    <g id="line2d_37">
     <path d="M 475.826562 230.904063 
L 485.826562 230.904063 
L 495.826562 230.904063 
" style="fill: none; stroke: #d62728; stroke-width: 1.8; stroke-linecap: square"/>
    </g>
    <g id="text_21">
     <!-- DST_WOA -->
     <g transform="translate(503.826562 234.404063) scale(0.1 -0.1)">
      <defs>
       <path id="DejaVuSans-57" d="M 213 4666 
L 850 4666 
L 1831 722 
L 2809 4666 
L 3519 4666 
L 4500 722 
L 5478 4666 
L 6119 4666 
L 4947 0 
L 4153 0 
L 3169 4050 
L 2175 0 
L 1381 0 
L 213 4666 
z
" transform="scale(0.015625)"/>
       <path id="DejaVuSans-4f" d="M 2522 4238 
Q 1834 4238 1429 3725 
Q 1025 3213 1025 2328 
Q 1025 1447 1429 934 
Q 1834 422 2522 422 
Q 3209 422 3611 934 
Q 4013 1447 4013 2328 
Q 4013 3213 3611 3725 
Q 3209 4238 2522 4238 
z
M 2522 4750 
Q 3503 4750 4090 4092 
Q 4678 3434 4678 2328 
Q 4678 1225 4090 567 
Q 3503 -91 2522 -91 
Q 1538 -91 948 565 
Q 359 1222 359 2328 
Q 359 3434 948 4092 
Q 1538 4750 2522 4750 
z
" transform="scale(0.015625)"/>
      </defs>
      <use xlink:href="#DejaVuSans-44"/>
      <use xlink:href="#DejaVuSans-53" x="77.001953"/>
      <use xlink:href="#DejaVuSans-54" x="140.478516"/>
      <use xlink:href="#DejaVuSans-5f" x="201.5625"/>
      <use xlink:href="#DejaVuSans-57" x="251.5625"/>
      <use xlink:href="#DejaVuSans-4f" x="350.439453"/>
      <use xlink:href="#DejaVuSans-41" x="427.400391"/>
     </g>
    </g>
    <g id="line2d_38">
     <path d="M 475.826562 245.860313 
L 485.826562 245.860313 
L 495.826562 245.860313 
" style="fill: none; stroke: #9467bd; stroke-width: 1.8; stroke-linecap: square"/>
    </g>
    <g id="text_22">
     <!-- TRAIL -->
     <g transform="translate(503.826562 249.360313) scale(0.1 -0.1)">
      <defs>
       <path id="DejaVuSans-49" d="M 628 4666 
L 1259 4666 
L 1259 0 
L 628 0 
L 628 4666 
z
" transform="scale(0.015625)"/>
       <path id="DejaVuSans-4c" d="M 628 4666 
L 1259 4666 
L 1259 531 
L 3531 531 
L 3531 0 
L 628 0 
L 628 4666 
z
" transform="scale(0.015625)"/>
      </defs>
      <use xlink:href="#DejaVuSans-54"/>
      <use xlink:href="#DejaVuSans-52" x="61.083984"/>
      <use xlink:href="#DejaVuSans-41" x="126.566406"/>
      <use xlink:href="#DejaVuSans-49" x="194.974609"/>
      <use xlink:href="#DejaVuSans-4c" x="224.466797"/>
     </g>
    </g>
   </g>
  </g>
 </g>
 <defs>
  <clipPath id="p11f434d9a2">
   <rect x="54.2" y="25.44" width="511" height="235"/>
  </clipPath>
 </defs>
</svg>
