<?xml version="1.0" encoding="utf-8" standalone="no"?>
<!DOCTYPE svg PUBLIC "-//W3C//DTD SVG 1.1//EN"
  "http://www.w3.org/Graphics/SVG/1.1/DTD/svg11.dtd">
<svg xmlns:xlink="http://www.w3.org/1999/xlink" width="576pt" height="302.4pt" viewBox="0 0 576 302.4" xmlns="http://www.w3.org/2000/svg" version="1.1">
 <metadata>
  <rdf:RDF xmlns:dc="http://purl.org/dc/elements/1.1/" xmlns:cc="http://creativecommons.org/ns#" xmlns:rdf="http://www.w3.org/1999/02/22-rdf-syntax-ns#">
   <cc:Work>
    <dc:type rdf:resource="http://purl.org/dc/dcmitype/StillImage"/>
    <dc:date>2025-09-11T16:55:15.807402</dc:date>
    <dc:format>image/svg+xml</dc:format>
    <dc:creator>
     <cc:Agent>
      <dc:title>Matplotlib v3.9.4, https://matplotlib.org/</dc:title>
     </cc:Agent>
    </dc:creator>
   </cc:Work>
  </rdf:RDF>
 </metadata>
 <defs>
  <style type="text/css">*{stroke-linejoin: round; stroke-linecap: butt}</style>
 </defs>
 <g id="figure_1">
  <g id="patch_1">
   <path d="M 0 302.4 
L 576 302.4 
L 576 0 
L 0 0 
z
" style="fill: #ffffff"/>
  </g>
  <g id="axes_1">
   <g id="patch_2">
    <path d="M 54.2 260.44 
L 560.774891 260.44 
L 560.774891 25.44 
L 54.2 25.44 
z
" style="fill: #ffffff"/>
   </g>
   <g id="matplotlib.axis_1">
    <g id="xtick_1">
     <g id="line2d_1">
      <path d="M 77.186925 260.44 
L 77.186925 25.44 
" clip-path="url(#pc2638a4073)" style="fill: none; stroke-dasharray: 2.96,1.28; stroke-dashoffset: 0; stroke: #b0b0b0; stroke-opacity: 0.3; stroke-width: 0.8"/>
     </g>
     <g id="line2d_2">
      <defs>
       <path id="m5c70944a18" d="M 0 0 
L 0 3.5 
" style="stroke: #000000; stroke-width: 0.8"/>
      </defs>
      <g>
       <use xlink:href="#m5c70944a18" x="77.186925" y="260.44" style="stroke: #000000; stroke-width: 0.8"/>
      </g>
     </g>
     <g id="text_1">
      <!-- 0 -->
      <g transform="translate(74.005675 275.038438) scale(0.1 -0.1)">
       <defs>
        <path id="DejaVuSans-30" d="M 2034 4250 
Q 1547 4250 1301 3770 
Q 1056 3291 1056 2328 
Q 1056 1369 1301 889 
Q 1547 409 2034 409 
Q 2525 409 2770 889 
Q 3016 1369 3016 2328 
Q 3016 3291 2770 3770 
Q 2525 4250 2034 4250 
z
M 2034 4750 
Q 2819 4750 3233 4129 
Q 3647 3509 3647 2328 
Q 3647 1150 3233 529 
Q 2819 -91 2034 -91 
Q 1250 -91 836 529 
Q 422 1150 422 2328 
Q 422 3509 836 4129 
Q 1250 4750 2034 4750 
z
" transform="scale(0.015625)"/>
       </defs>
       <use xlink:href="#DejaVuSans-30"/>
      </g>
     </g>
    </g>
    <g id="xtick_2">
     <g id="line2d_3">
      <path d="M 155.600449 260.44 
L 155.600449 25.44 
" clip-path="url(#pc2638a4073)" style="fill: none; stroke-dasharray: 2.96,1.28; stroke-dashoffset: 0; stroke: #b0b0b0; stroke-opacity: 0.3; stroke-width: 0.8"/>
     </g>
     <g id="line2d_4">
      <g>
       <use xlink:href="#m5c70944a18" x="155.600449" y="260.44" style="stroke: #000000; stroke-width: 0.8"/>
      </g>
     </g>
     <g id="text_2">
      <!-- 2000 -->
      <g transform="translate(142.875449 275.038438) scale(0.1 -0.1)">
       <defs>
        <path id="DejaVuSans-32" d="M 1228 531 
L 3431 531 
L 3431 0 
L 469 0 
L 469 531 
Q 828 903 1448 1529 
Q 2069 2156 2228 2338 
Q 2531 2678 2651 2914 
Q 2772 3150 2772 3378 
Q 2772 3750 2511 3984 
Q 2250 4219 1831 4219 
Q 1534 4219 1204 4116 
Q 875 4013 500 3803 
L 500 4441 
Q 881 4594 1212 4672 
Q 1544 4750 1819 4750 
Q 2544 4750 2975 4387 
Q 3406 4025 3406 3419 
Q 3406 3131 3298 2873 
Q 3191 2616 2906 2266 
Q 2828 2175 2409 1742 
Q 1991 1309 1228 531 
z
" transform="scale(0.015625)"/>
       </defs>
       <use xlink:href="#DejaVuSans-32"/>
       <use xlink:href="#DejaVuSans-30" x="63.623047"/>
       <use xlink:href="#DejaVuSans-30" x="127.246094"/>
       <use xlink:href="#DejaVuSans-30" x="190.869141"/>
      </g>
     </g>
    </g>
    <g id="xtick_3">
     <g id="line2d_5">
      <path d="M 234.013973 260.44 
L 234.013973 25.44 
" clip-path="url(#pc2638a4073)" style="fill: none; stroke-dasharray: 2.96,1.28; stroke-dashoffset: 0; stroke: #b0b0b0; stroke-opacity: 0.3; stroke-width: 0.8"/>
     </g>
     <g id="line2d_6">
      <g>
       <use xlink:href="#m5c70944a18" x="234.013973" y="260.44" style="stroke: #000000; stroke-width: 0.8"/>
      </g>
     </g>
     <g id="text_3">
      <!-- 4000 -->
      <g transform="translate(221.288973 275.038438) scale(0.1 -0.1)">
       <defs>
        <path id="DejaVuSans-34" d="M 2419 4116 
L 825 1625 
L 2419 1625 
L 2419 4116 
z
M 2253 4666 
L 3047 4666 
L 3047 1625 
L 3713 1625 
L 3713 1100 
L 3047 1100 
L 3047 0 
L 2419 0 
L 2419 1100 
L 313 1100 
L 313 1709 
L 2253 4666 
z
" transform="scale(0.015625)"/>
       </defs>
       <use xlink:href="#DejaVuSans-34"/>
       <use xlink:href="#DejaVuSans-30" x="63.623047"/>
       <use xlink:href="#DejaVuSans-30" x="127.246094"/>
       <use xlink:href="#DejaVuSans-30" x="190.869141"/>
      </g>
     </g>
    </g>
    <g id="xtick_4">
     <g id="line2d_7">
      <path d="M 312.427497 260.44 
L 312.427497 25.44 
" clip-path="url(#pc2638a4073)" style="fill: none; stroke-dasharray: 2.96,1.28; stroke-dashoffset: 0; stroke: #b0b0b0; stroke-opacity: 0.3; stroke-width: 0.8"/>
     </g>
     <g id="line2d_8">
      <g>
       <use xlink:href="#m5c70944a18" x="312.427497" y="260.44" style="stroke: #000000; stroke-width: 0.8"/>
      </g>
     </g>
     <g id="text_4">
      <!-- 6000 -->
      <g transform="translate(299.702497 275.038438) scale(0.1 -0.1)">
       <defs>
        <path id="DejaVuSans-36" d="M 2113 2584 
Q 1688 2584 1439 2293 
Q 1191 2003 1191 1497 
Q 1191 994 1439 701 
Q 1688 409 2113 409 
Q 2538 409 2786 701 
Q 3034 994 3034 1497 
Q 3034 2003 2786 2293 
Q 2538 2584 2113 2584 
z
M 3366 4563 
L 3366 3988 
Q 3128 4100 2886 4159 
Q 2644 4219 2406 4219 
Q 1781 4219 1451 3797 
Q 1122 3375 1075 2522 
Q 1259 2794 1537 2939 
Q 1816 3084 2150 3084 
Q 2853 3084 3261 2657 
Q 3669 2231 3669 1497 
Q 3669 778 3244 343 
Q 2819 -91 2113 -91 
Q 1303 -91 875 529 
Q 447 1150 447 2328 
Q 447 3434 972 4092 
Q 1497 4750 2381 4750 
Q 2619 4750 2861 4703 
Q 3103 4656 3366 4563 
z
" transform="scale(0.015625)"/>
       </defs>
       <use xlink:href="#DejaVuSans-36"/>
       <use xlink:href="#DejaVuSans-30" x="63.623047"/>
       <use xlink:href="#DejaVuSans-30" x="127.246094"/>
       <use xlink:href="#DejaVuSans-30" x="190.869141"/>
      </g>
     </g>
    </g>
    <g id="xtick_5">
     <g id="line2d_9">
      <path d="M 390.841022 260.44 
L 390.841022 25.44 
" clip-path="url(#pc2638a4073)" style="fill: none; stroke-dasharray: 2.96,1.28; stroke-dashoffset: 0; stroke: #b0b0b0; stroke-opacity: 0.3; stroke-width: 0.8"/>
     </g>
     <g id="line2d_10">
      <g>
       <use xlink:href="#m5c70944a18" x="390.841022" y="260.44" style="stroke: #000000; stroke-width: 0.8"/>
      </g>
     </g>
     <g id="text_5">
      <!-- 8000 -->
      <g transform="translate(378.116022 275.038438) scale(0.1 -0.1)">
       <defs>
        <path id="DejaVuSans-38" d="M 2034 2216 
Q 1584 2216 1326 1975 
Q 1069 1734 1069 1313 
Q 1069 891 1326 650 
Q 1584 409 2034 409 
Q 2484 409 2743 651 
Q 3003 894 3003 1313 
Q 3003 1734 2745 1975 
Q 2488 2216 2034 2216 
z
M 1403 2484 
Q 997 2584 770 2862 
Q 544 3141 544 3541 
Q 544 4100 942 4425 
Q 1341 4750 2034 4750 
Q 2731 4750 3128 4425 
Q 3525 4100 3525 3541 
Q 3525 3141 3298 2862 
Q 3072 2584 2669 2484 
Q 3125 2378 3379 2068 
Q 3634 1759 3634 1313 
Q 3634 634 3220 271 
Q 2806 -91 2034 -91 
Q 1263 -91 848 271 
Q 434 634 434 1313 
Q 434 1759 690 2068 
Q 947 2378 1403 2484 
z
M 1172 3481 
Q 1172 3119 1398 2916 
Q 1625 2713 2034 2713 
Q 2441 2713 2670 2916 
Q 2900 3119 2900 3481 
Q 2900 3844 2670 4047 
Q 2441 4250 2034 4250 
Q 1625 4250 1398 4047 
Q 1172 3844 1172 3481 
z
" transform="scale(0.015625)"/>
       </defs>
       <use xlink:href="#DejaVuSans-38"/>
       <use xlink:href="#DejaVuSans-30" x="63.623047"/>
       <use xlink:href="#DejaVuSans-30" x="127.246094"/>
       <use xlink:href="#DejaVuSans-30" x="190.869141"/>
      </g>
     </g>
    </g>
    <g id="xtick_6">
     <g id="line2d_11">
      <path d="M 469.254546 260.44 
L 469.254546 25.44 
" clip-path="url(#pc2638a4073)" style="fill: none; stroke-dasharray: 2.96,1.28; stroke-dashoffset: 0; stroke: #b0b0b0; stroke-opacity: 0.3; stroke-width: 0.8"/>
     </g>
     <g id="line2d_12">
      <g>
       <use xlink:href="#m5c70944a18" x="469.254546" y="260.44" style="stroke: #000000; stroke-width: 0.8"/>
      </g>
     </g>
     <g id="text_6">
      <!-- 10000 -->
      <g transform="translate(453.348296 275.038438) scale(0.1 -0.1)">
       <defs>
        <path id="DejaVuSans-31" d="M 794 531 
L 1825 531 
L 1825 4091 
L 703 3866 
L 703 4441 
L 1819 4666 
L 2450 4666 
L 2450 531 
L 3481 531 
L 3481 0 
L 794 0 
L 794 531 
z
" transform="scale(0.015625)"/>
       </defs>
       <use xlink:href="#DejaVuSans-31"/>
       <use xlink:href="#DejaVuSans-30" x="63.623047"/>
       <use xlink:href="#DejaVuSans-30" x="127.246094"/>
       <use xlink:href="#DejaVuSans-30" x="190.869141"/>
       <use xlink:href="#DejaVuSans-30" x="254.492188"/>
      </g>
     </g>
    </g>
    <g id="xtick_7">
     <g id="line2d_13">
      <path d="M 547.66807 260.44 
L 547.66807 25.44 
" clip-path="url(#pc2638a4073)" style="fill: none; stroke-dasharray: 2.96,1.28; stroke-dashoffset: 0; stroke: #b0b0b0; stroke-opacity: 0.3; stroke-width: 0.8"/>
     </g>
     <g id="line2d_14">
      <g>
       <use xlink:href="#m5c70944a18" x="547.66807" y="260.44" style="stroke: #000000; stroke-width: 0.8"/>
      </g>
     </g>
     <g id="text_7">
      <!-- 12000 -->
      <g transform="translate(531.76182 275.038438) scale(0.1 -0.1)">
       <use xlink:href="#DejaVuSans-31"/>
       <use xlink:href="#DejaVuSans-32" x="63.623047"/>
       <use xlink:href="#DejaVuSans-30" x="127.246094"/>
       <use xlink:href="#DejaVuSans-30" x="190.869141"/>
       <use xlink:href="#DejaVuSans-30" x="254.492188"/>
      </g>
     </g>
    </g>
    <g id="text_8">
     <!-- round -->
     <g transform="translate(292.973383 288.716563) scale(0.1 -0.1)">
      <defs>
       <path id="DejaVuSans-72" d="M 2631 2963 
Q 2534 3019 2420 3045 
Q 2306 3072 2169 3072 
Q 1681 3072 1420 2755 
Q 1159 2438 1159 1844 
L 1159 0 
L 581 0 
L 581 3500 
L 1159 3500 
L 1159 2956 
Q 1341 3275 1631 3429 
Q 1922 3584 2338 3584 
Q 2397 3584 2469 3576 
Q 2541 3569 2628 3553 
L 2631 2963 
z
" transform="scale(0.015625)"/>
       <path id="DejaVuSans-6f" d="M 1959 3097 
Q 1497 3097 1228 2736 
Q 959 2375 959 1747 
Q 959 1119 1226 758 
Q 1494 397 1959 397 
Q 2419 397 2687 759 
Q 2956 1122 2956 1747 
Q 2956 2369 2687 2733 
Q 2419 3097 1959 3097 
z
M 1959 3584 
Q 2709 3584 3137 3096 
Q 3566 2609 3566 1747 
Q 3566 888 3137 398 
Q 2709 -91 1959 -91 
Q 1206 -91 779 398 
Q 353 888 353 1747 
Q 353 2609 779 3096 
Q 1206 3584 1959 3584 
z
" transform="scale(0.015625)"/>
       <path id="DejaVuSans-75" d="M 544 1381 
L 544 3500 
L 1119 3500 
L 1119 1403 
Q 1119 906 1312 657 
Q 1506 409 1894 409 
Q 2359 409 2629 706 
Q 2900 1003 2900 1516 
L 2900 3500 
L 3475 3500 
L 3475 0 
L 2900 0 
L 2900 538 
Q 2691 219 2414 64 
Q 2138 -91 1772 -91 
Q 1169 -91 856 284 
Q 544 659 544 1381 
z
M 1991 3584 
L 1991 3584 
z
" transform="scale(0.015625)"/>
       <path id="DejaVuSans-6e" d="M 3513 2113 
L 3513 0 
L 2938 0 
L 2938 2094 
Q 2938 2591 2744 2837 
Q 2550 3084 2163 3084 
Q 1697 3084 1428 2787 
Q 1159 2491 1159 1978 
L 1159 0 
L 581 0 
L 581 3500 
L 1159 3500 
L 1159 2956 
Q 1366 3272 1645 3428 
Q 1925 3584 2291 3584 
Q 2894 3584 3203 3211 
Q 3513 2838 3513 2113 
z
" transform="scale(0.015625)"/>
       <path id="DejaVuSans-64" d="M 2906 2969 
L 2906 4863 
L 3481 4863 
L 3481 0 
L 2906 0 
L 2906 525 
Q 2725 213 2448 61 
Q 2172 -91 1784 -91 
Q 1150 -91 751 415 
Q 353 922 353 1747 
Q 353 2572 751 3078 
Q 1150 3584 1784 3584 
Q 2172 3584 2448 3432 
Q 2725 3281 2906 2969 
z
M 947 1747 
Q 947 1113 1208 752 
Q 1469 391 1925 391 
Q 2381 391 2643 752 
Q 2906 1113 2906 1747 
Q 2906 2381 2643 2742 
Q 2381 3103 1925 3103 
Q 1469 3103 1208 2742 
Q 947 2381 947 1747 
z
" transform="scale(0.015625)"/>
      </defs>
      <use xlink:href="#DejaVuSans-72"/>
      <use xlink:href="#DejaVuSans-6f" x="38.863281"/>
      <use xlink:href="#DejaVuSans-75" x="100.044922"/>
      <use xlink:href="#DejaVuSans-6e" x="163.423828"/>
      <use xlink:href="#DejaVuSans-64" x="226.802734"/>
     </g>
    </g>
   </g>
   <g id="matplotlib.axis_2">
    <g id="ytick_1">
     <g id="line2d_15">
      <path d="M 54.2 260.44 
L 560.774891 260.44 
" clip-path="url(#pc2638a4073)" style="fill: none; stroke-dasharray: 2.96,1.28; stroke-dashoffset: 0; stroke: #b0b0b0; stroke-opacity: 0.3; stroke-width: 0.8"/>
     </g>
     <g id="line2d_16">
      <defs>
       <path id="m034b5cdd74" d="M 0 0 
L -3.5 0 
" style="stroke: #000000; stroke-width: 0.8"/>
      </defs>
      <g>
       <use xlink:href="#m034b5cdd74" x="54.2" y="260.44" style="stroke: #000000; stroke-width: 0.8"/>
      </g>
     </g>
     <g id="text_9">
      <!-- 0.65 -->
      <g transform="translate(24.934375 264.239219) scale(0.1 -0.1)">
       <defs>
        <path id="DejaVuSans-2e" d="M 684 794 
L 1344 794 
L 1344 0 
L 684 0 
L 684 794 
z
" transform="scale(0.015625)"/>
        <path id="DejaVuSans-35" d="M 691 4666 
L 3169 4666 
L 3169 4134 
L 1269 4134 
L 1269 2991 
Q 1406 3038 1543 3061 
Q 1681 3084 1819 3084 
Q 2600 3084 3056 2656 
Q 3513 2228 3513 1497 
Q 3513 744 3044 326 
Q 2575 -91 1722 -91 
Q 1428 -91 1123 -41 
Q 819 9 494 109 
L 494 744 
Q 775 591 1075 516 
Q 1375 441 1709 441 
Q 2250 441 2565 725 
Q 2881 1009 2881 1497 
Q 2881 1984 2565 2268 
Q 2250 2553 1709 2553 
Q 1456 2553 1204 2497 
Q 953 2441 691 2322 
L 691 4666 
z
" transform="scale(0.015625)"/>
       </defs>
       <use xlink:href="#DejaVuSans-30"/>
       <use xlink:href="#DejaVuSans-2e" x="63.623047"/>
       <use xlink:href="#DejaVuSans-36" x="95.410156"/>
       <use xlink:href="#DejaVuSans-35" x="159.033203"/>
      </g>
     </g>
    </g>
    <g id="ytick_2">
     <g id="line2d_17">
      <path d="M 54.2 228.394545 
L 560.774891 228.394545 
" clip-path="url(#pc2638a4073)" style="fill: none; stroke-dasharray: 2.96,1.28; stroke-dashoffset: 0; stroke: #b0b0b0; stroke-opacity: 0.3; stroke-width: 0.8"/>
     </g>
     <g id="line2d_18">
      <g>
       <use xlink:href="#m034b5cdd74" x="54.2" y="228.394545" style="stroke: #000000; stroke-width: 0.8"/>
      </g>
     </g>
     <g id="text_10">
      <!-- 0.70 -->
      <g transform="translate(24.934375 232.193764) scale(0.1 -0.1)">
       <defs>
        <path id="DejaVuSans-37" d="M 525 4666 
L 3525 4666 
L 3525 4397 
L 1831 0 
L 1172 0 
L 2766 4134 
L 525 4134 
L 525 4666 
z
" transform="scale(0.015625)"/>
       </defs>
       <use xlink:href="#DejaVuSans-30"/>
       <use xlink:href="#DejaVuSans-2e" x="63.623047"/>
       <use xlink:href="#DejaVuSans-37" x="95.410156"/>
       <use xlink:href="#DejaVuSans-30" x="159.033203"/>
      </g>
     </g>
    </g>
    <g id="ytick_3">
     <g id="line2d_19">
      <path d="M 54.2 196.349091 
L 560.774891 196.349091 
" clip-path="url(#pc2638a4073)" style="fill: none; stroke-dasharray: 2.96,1.28; stroke-dashoffset: 0; stroke: #b0b0b0; stroke-opacity: 0.3; stroke-width: 0.8"/>
     </g>
     <g id="line2d_20">
      <g>
       <use xlink:href="#m034b5cdd74" x="54.2" y="196.349091" style="stroke: #000000; stroke-width: 0.8"/>
      </g>
     </g>
     <g id="text_11">
      <!-- 0.75 -->
      <g transform="translate(24.934375 200.14831) scale(0.1 -0.1)">
       <use xlink:href="#DejaVuSans-30"/>
       <use xlink:href="#DejaVuSans-2e" x="63.623047"/>
       <use xlink:href="#DejaVuSans-37" x="95.410156"/>
       <use xlink:href="#DejaVuSans-35" x="159.033203"/>
      </g>
     </g>
    </g>
    <g id="ytick_4">
     <g id="line2d_21">
      <path d="M 54.2 164.303636 
L 560.774891 164.303636 
" clip-path="url(#pc2638a4073)" style="fill: none; stroke-dasharray: 2.96,1.28; stroke-dashoffset: 0; stroke: #b0b0b0; stroke-opacity: 0.3; stroke-width: 0.8"/>
     </g>
     <g id="line2d_22">
      <g>
       <use xlink:href="#m034b5cdd74" x="54.2" y="164.303636" style="stroke: #000000; stroke-width: 0.8"/>
      </g>
     </g>
     <g id="text_12">
      <!-- 0.80 -->
      <g transform="translate(24.934375 168.102855) scale(0.1 -0.1)">
       <use xlink:href="#DejaVuSans-30"/>
       <use xlink:href="#DejaVuSans-2e" x="63.623047"/>
       <use xlink:href="#DejaVuSans-38" x="95.410156"/>
       <use xlink:href="#DejaVuSans-30" x="159.033203"/>
      </g>
     </g>
    </g>
    <g id="ytick_5">
     <g id="line2d_23">
      <path d="M 54.2 132.258182 
L 560.774891 132.258182 
" clip-path="url(#pc2638a4073)" style="fill: none; stroke-dasharray: 2.96,1.28; stroke-dashoffset: 0; stroke: #b0b0b0; stroke-opacity: 0.3; stroke-width: 0.8"/>
     </g>
     <g id="line2d_24">
      <g>
       <use xlink:href="#m034b5cdd74" x="54.2" y="132.258182" style="stroke: #000000; stroke-width: 0.8"/>
      </g>
     </g>
     <g id="text_13">
      <!-- 0.85 -->
      <g transform="translate(24.934375 136.057401) scale(0.1 -0.1)">
       <use xlink:href="#DejaVuSans-30"/>
       <use xlink:href="#DejaVuSans-2e" x="63.623047"/>
       <use xlink:href="#DejaVuSans-38" x="95.410156"/>
       <use xlink:href="#DejaVuSans-35" x="159.033203"/>
      </g>
     </g>
    </g>
    <g id="ytick_6">
     <g id="line2d_25">
      <path d="M 54.2 100.212727 
L 560.774891 100.212727 
" clip-path="url(#pc2638a4073)" style="fill: none; stroke-dasharray: 2.96,1.28; stroke-dashoffset: 0; stroke: #b0b0b0; stroke-opacity: 0.3; stroke-width: 0.8"/>
     </g>
     <g id="line2d_26">
      <g>
       <use xlink:href="#m034b5cdd74" x="54.2" y="100.212727" style="stroke: #000000; stroke-width: 0.8"/>
      </g>
     </g>
     <g id="text_14">
      <!-- 0.90 -->
      <g transform="translate(24.934375 104.011946) scale(0.1 -0.1)">
       <defs>
        <path id="DejaVuSans-39" d="M 703 97 
L 703 672 
Q 941 559 1184 500 
Q 1428 441 1663 441 
Q 2288 441 2617 861 
Q 2947 1281 2994 2138 
Q 2813 1869 2534 1725 
Q 2256 1581 1919 1581 
Q 1219 1581 811 2004 
Q 403 2428 403 3163 
Q 403 3881 828 4315 
Q 1253 4750 1959 4750 
Q 2769 4750 3195 4129 
Q 3622 3509 3622 2328 
Q 3622 1225 3098 567 
Q 2575 -91 1691 -91 
Q 1453 -91 1209 -44 
Q 966 3 703 97 
z
M 1959 2075 
Q 2384 2075 2632 2365 
Q 2881 2656 2881 3163 
Q 2881 3666 2632 3958 
Q 2384 4250 1959 4250 
Q 1534 4250 1286 3958 
Q 1038 3666 1038 3163 
Q 1038 2656 1286 2365 
Q 1534 2075 1959 2075 
z
" transform="scale(0.015625)"/>
       </defs>
       <use xlink:href="#DejaVuSans-30"/>
       <use xlink:href="#DejaVuSans-2e" x="63.623047"/>
       <use xlink:href="#DejaVuSans-39" x="95.410156"/>
       <use xlink:href="#DejaVuSans-30" x="159.033203"/>
      </g>
     </g>
    </g>
    <g id="ytick_7">
     <g id="line2d_27">
      <path d="M 54.2 68.167273 
L 560.774891 68.167273 
" clip-path="url(#pc2638a4073)" style="fill: none; stroke-dasharray: 2.96,1.28; stroke-dashoffset: 0; stroke: #b0b0b0; stroke-opacity: 0.3; stroke-width: 0.8"/>
     </g>
     <g id="line2d_28">
      <g>
       <use xlink:href="#m034b5cdd74" x="54.2" y="68.167273" style="stroke: #000000; stroke-width: 0.8"/>
      </g>
     </g>
     <g id="text_15">
      <!-- 0.95 -->
      <g transform="translate(24.934375 71.966491) scale(0.1 -0.1)">
       <use xlink:href="#DejaVuSans-30"/>
       <use xlink:href="#DejaVuSans-2e" x="63.623047"/>
       <use xlink:href="#DejaVuSans-39" x="95.410156"/>
       <use xlink:href="#DejaVuSans-35" x="159.033203"/>
      </g>
     </g>
    </g>
    <g id="ytick_8">
     <g id="line2d_29">
      <path d="M 54.2 36.121818 
L 560.774891 36.121818 
" clip-path="url(#pc2638a4073)" style="fill: none; stroke-dasharray: 2.96,1.28; stroke-dashoffset: 0; stroke: #b0b0b0; stroke-opacity: 0.3; stroke-width: 0.8"/>
     </g>
     <g id="line2d_30">
      <g>
       <use xlink:href="#m034b5cdd74" x="54.2" y="36.121818" style="stroke: #000000; stroke-width: 0.8"/>
      </g>
     </g>
     <g id="text_16">
      <!-- 1.00 -->
      <g transform="translate(24.934375 39.921037) scale(0.1 -0.1)">
       <use xlink:href="#DejaVuSans-31"/>
       <use xlink:href="#DejaVuSans-2e" x="63.623047"/>
       <use xlink:href="#DejaVuSans-30" x="95.410156"/>
       <use xlink:href="#DejaVuSans-30" x="159.033203"/>
      </g>
     </g>
    </g>
    <g id="text_17">
     <!-- cumulative timely transfer rate -->
     <g transform="translate(18.854688 221.048594) rotate(-90) scale(0.1 -0.1)">
      <defs>
       <path id="DejaVuSans-63" d="M 3122 3366 
L 3122 2828 
Q 2878 2963 2633 3030 
Q 2388 3097 2138 3097 
Q 1578 3097 1268 2742 
Q 959 2388 959 1747 
Q 959 1106 1268 751 
Q 1578 397 2138 397 
Q 2388 397 2633 464 
Q 2878 531 3122 666 
L 3122 134 
Q 2881 22 2623 -34 
Q 2366 -91 2075 -91 
Q 1284 -91 818 406 
Q 353 903 353 1747 
Q 353 2603 823 3093 
Q 1294 3584 2113 3584 
Q 2378 3584 2631 3529 
Q 2884 3475 3122 3366 
z
" transform="scale(0.015625)"/>
       <path id="DejaVuSans-6d" d="M 3328 2828 
Q 3544 3216 3844 3400 
Q 4144 3584 4550 3584 
Q 5097 3584 5394 3201 
Q 5691 2819 5691 2113 
L 5691 0 
L 5113 0 
L 5113 2094 
Q 5113 2597 4934 2840 
Q 4756 3084 4391 3084 
Q 3944 3084 3684 2787 
Q 3425 2491 3425 1978 
L 3425 0 
L 2847 0 
L 2847 2094 
Q 2847 2600 2669 2842 
Q 2491 3084 2119 3084 
Q 1678 3084 1418 2786 
Q 1159 2488 1159 1978 
L 1159 0 
L 581 0 
L 581 3500 
L 1159 3500 
L 1159 2956 
Q 1356 3278 1631 3431 
Q 1906 3584 2284 3584 
Q 2666 3584 2933 3390 
Q 3200 3197 3328 2828 
z
" transform="scale(0.015625)"/>
       <path id="DejaVuSans-6c" d="M 603 4863 
L 1178 4863 
L 1178 0 
L 603 0 
L 603 4863 
z
" transform="scale(0.015625)"/>
       <path id="DejaVuSans-61" d="M 2194 1759 
Q 1497 1759 1228 1600 
Q 959 1441 959 1056 
Q 959 750 1161 570 
Q 1363 391 1709 391 
Q 2188 391 2477 730 
Q 2766 1069 2766 1631 
L 2766 1759 
L 2194 1759 
z
M 3341 1997 
L 3341 0 
L 2766 0 
L 2766 531 
Q 2569 213 2275 61 
Q 1981 -91 1556 -91 
Q 1019 -91 701 211 
Q 384 513 384 1019 
Q 384 1609 779 1909 
Q 1175 2209 1959 2209 
L 2766 2209 
L 2766 2266 
Q 2766 2663 2505 2880 
Q 2244 3097 1772 3097 
Q 1472 3097 1187 3025 
Q 903 2953 641 2809 
L 641 3341 
Q 956 3463 1253 3523 
Q 1550 3584 1831 3584 
Q 2591 3584 2966 3190 
Q 3341 2797 3341 1997 
z
" transform="scale(0.015625)"/>
       <path id="DejaVuSans-74" d="M 1172 4494 
L 1172 3500 
L 2356 3500 
L 2356 3053 
L 1172 3053 
L 1172 1153 
Q 1172 725 1289 603 
Q 1406 481 1766 481 
L 2356 481 
L 2356 0 
L 1766 0 
Q 1100 0 847 248 
Q 594 497 594 1153 
L 594 3053 
L 172 3053 
L 172 3500 
L 594 3500 
L 594 4494 
L 1172 4494 
z
" transform="scale(0.015625)"/>
       <path id="DejaVuSans-69" d="M 603 3500 
L 1178 3500 
L 1178 0 
L 603 0 
L 603 3500 
z
M 603 4863 
L 1178 4863 
L 1178 4134 
L 603 4134 
L 603 4863 
z
" transform="scale(0.015625)"/>
       <path id="DejaVuSans-76" d="M 191 3500 
L 800 3500 
L 1894 563 
L 2988 3500 
L 3597 3500 
L 2284 0 
L 1503 0 
L 191 3500 
z
" transform="scale(0.015625)"/>
       <path id="DejaVuSans-65" d="M 3597 1894 
L 3597 1613 
L 953 1613 
Q 991 1019 1311 708 
Q 1631 397 2203 397 
Q 2534 397 2845 478 
Q 3156 559 3463 722 
L 3463 178 
Q 3153 47 2828 -22 
Q 2503 -91 2169 -91 
Q 1331 -91 842 396 
Q 353 884 353 1716 
Q 353 2575 817 3079 
Q 1281 3584 2069 3584 
Q 2775 3584 3186 3129 
Q 3597 2675 3597 1894 
z
M 3022 2063 
Q 3016 2534 2758 2815 
Q 2500 3097 2075 3097 
Q 1594 3097 1305 2825 
Q 1016 2553 972 2059 
L 3022 2063 
z
" transform="scale(0.015625)"/>
       <path id="DejaVuSans-20" transform="scale(0.015625)"/>
       <path id="DejaVuSans-79" d="M 2059 -325 
Q 1816 -950 1584 -1140 
Q 1353 -1331 966 -1331 
L 506 -1331 
L 506 -850 
L 844 -850 
Q 1081 -850 1212 -737 
Q 1344 -625 1503 -206 
L 1606 56 
L 191 3500 
L 800 3500 
L 1894 763 
L 2988 3500 
L 3597 3500 
L 2059 -325 
z
" transform="scale(0.015625)"/>
       <path id="DejaVuSans-73" d="M 2834 3397 
L 2834 2853 
Q 2591 2978 2328 3040 
Q 2066 3103 1784 3103 
Q 1356 3103 1142 2972 
Q 928 2841 928 2578 
Q 928 2378 1081 2264 
Q 1234 2150 1697 2047 
L 1894 2003 
Q 2506 1872 2764 1633 
Q 3022 1394 3022 966 
Q 3022 478 2636 193 
Q 2250 -91 1575 -91 
Q 1294 -91 989 -36 
Q 684 19 347 128 
L 347 722 
Q 666 556 975 473 
Q 1284 391 1588 391 
Q 1994 391 2212 530 
Q 2431 669 2431 922 
Q 2431 1156 2273 1281 
Q 2116 1406 1581 1522 
L 1381 1569 
Q 847 1681 609 1914 
Q 372 2147 372 2553 
Q 372 3047 722 3315 
Q 1072 3584 1716 3584 
Q 2034 3584 2315 3537 
Q 2597 3491 2834 3397 
z
" transform="scale(0.015625)"/>
       <path id="DejaVuSans-66" d="M 2375 4863 
L 2375 4384 
L 1825 4384 
Q 1516 4384 1395 4259 
Q 1275 4134 1275 3809 
L 1275 3500 
L 2222 3500 
L 2222 3053 
L 1275 3053 
L 1275 0 
L 697 0 
L 697 3053 
L 147 3053 
L 147 3500 
L 697 3500 
L 697 3744 
Q 697 4328 969 4595 
Q 1241 4863 1831 4863 
L 2375 4863 
z
" transform="scale(0.015625)"/>
      </defs>
      <use xlink:href="#DejaVuSans-63"/>
      <use xlink:href="#DejaVuSans-75" x="54.980469"/>
      <use xlink:href="#DejaVuSans-6d" x="118.359375"/>
      <use xlink:href="#DejaVuSans-75" x="215.771484"/>
      <use xlink:href="#DejaVuSans-6c" x="279.150391"/>
      <use xlink:href="#DejaVuSans-61" x="306.933594"/>
      <use xlink:href="#DejaVuSans-74" x="368.212891"/>
      <use xlink:href="#DejaVuSans-69" x="407.421875"/>
      <use xlink:href="#DejaVuSans-76" x="435.205078"/>
      <use xlink:href="#DejaVuSans-65" x="494.384766"/>
      <use xlink:href="#DejaVuSans-20" x="555.908203"/>
      <use xlink:href="#DejaVuSans-74" x="587.695312"/>
      <use xlink:href="#DejaVuSans-69" x="626.904297"/>
      <use xlink:href="#DejaVuSans-6d" x="654.6875"/>
      <use xlink:href="#DejaVuSans-65" x="752.099609"/>
      <use xlink:href="#DejaVuSans-6c" x="813.623047"/>
      <use xlink:href="#DejaVuSans-79" x="841.40625"/>
      <use xlink:href="#DejaVuSans-20" x="900.585938"/>
      <use xlink:href="#DejaVuSans-74" x="932.373047"/>
      <use xlink:href="#DejaVuSans-72" x="971.582031"/>
      <use xlink:href="#DejaVuSans-61" x="1012.695312"/>
      <use xlink:href="#DejaVuSans-6e" x="1073.974609"/>
      <use xlink:href="#DejaVuSans-73" x="1137.353516"/>
      <use xlink:href="#DejaVuSans-66" x="1189.453125"/>
      <use xlink:href="#DejaVuSans-65" x="1224.658203"/>
      <use xlink:href="#DejaVuSans-72" x="1286.181641"/>
      <use xlink:href="#DejaVuSans-20" x="1327.294922"/>
      <use xlink:href="#DejaVuSans-72" x="1359.082031"/>
      <use xlink:href="#DejaVuSans-61" x="1400.195312"/>
      <use xlink:href="#DejaVuSans-74" x="1461.474609"/>
      <use xlink:href="#DejaVuSans-65" x="1500.683594"/>
     </g>
    </g>
   </g>
   <g id="line2d_31">
    <path d="M 77.226131 249.758182 
L 77.382958 121.140371 
L 77.422165 105.553636 
L 77.461372 125.13697 
L 77.500579 139.741851 
L 77.539786 131.201738 
L 77.618199 116.235455 
L 77.696613 121.912799 
L 77.85344 103.585933 
L 77.97106 116.235455 
L 78.08868 107.499165 
L 78.127887 112.521577 
L 78.245507 104.116103 
L 78.284714 109.609515 
L 78.363128 105.317313 
L 78.402334 110.240557 
L 78.480748 106.415073 
L 79.029642 84.925646 
L 79.53933 73.854994 
L 80.127432 64.869719 
L 80.676326 59.515172 
L 80.87236 58.437137 
L 80.911567 58.86061 
L 80.950774 58.632423 
L 80.989981 62.49537 
L 81.068394 62.096161 
L 81.186014 61.36883 
L 81.225221 61.67401 
L 81.538875 60.481404 
L 81.578082 61.103117 
L 81.656496 60.667273 
L 81.852529 59.703919 
L 81.97015 60.664009 
L 82.009356 60.40251 
L 82.126977 62.826364 
L 82.166183 62.642194 
L 82.244597 62.21235 
L 82.283804 63.42512 
L 82.362217 63.032918 
L 82.597458 61.948484 
L 82.793492 65.491379 
L 83.969694 60.371461 
L 84.793036 57.687802 
L 85.224311 66.447319 
L 85.341931 68.493964 
L 85.381138 68.32979 
L 85.420345 68.638097 
L 85.459551 68.378914 
L 85.498758 70.319093 
L 85.577172 69.959524 
L 85.694792 69.445137 
L 85.851619 71.620447 
L 85.890826 71.369761 
L 85.930033 71.508602 
L 86.361307 68.69343 
L 86.557341 69.695539 
L 87.067029 66.890692 
L 87.106235 68.221312 
L 87.184649 67.751928 
L 87.341476 66.987717 
L 87.380683 67.821366 
L 87.459096 67.537927 
L 87.53751 67.889056 
L 87.576717 67.699639 
L 87.811957 66.463542 
L 87.851164 67.043287 
L 87.890371 66.766635 
L 88.517679 63.186114 
L 88.674506 62.466083 
L 88.831333 63.181372 
L 89.027367 62.162071 
L 89.223401 66.609965 
L 89.301814 66.208398 
L 89.341021 66.039997 
L 89.380228 66.318359 
L 89.419434 66.194424 
L 89.772295 68.163878 
L 90.046743 67.470632 
L 90.360397 70.73306 
L 90.399603 70.590137 
L 90.556431 73.623128 
L 90.595637 73.440265 
L 90.713258 74.493105 
L 90.752464 74.349163 
L 90.791671 74.195626 
L 90.987705 75.925461 
L 91.026912 75.820006 
L 91.222945 78.275493 
L 91.262152 78.154307 
L 91.301359 79.281452 
L 91.379773 79.066097 
L 91.615013 77.977106 
L 91.65422 78.538186 
L 91.732633 78.268018 
L 91.88946 79.856107 
L 92.124701 78.689859 
L 92.555975 75.99221 
L 92.595182 76.119925 
L 92.673596 75.647314 
L 92.712802 75.753663 
L 92.752009 75.964073 
L 92.791216 75.796455 
L 92.830423 75.627286 
L 92.869629 75.9701 
L 92.908836 75.796013 
L 92.948043 75.617617 
L 92.98725 76.005205 
L 93.026457 75.841975 
L 93.614558 73.408516 
L 93.653765 73.971642 
L 93.732178 73.68696 
L 93.771385 73.547482 
L 93.810592 73.764083 
L 93.849799 74.034267 
L 93.889005 73.872594 
L 94.281073 72.786345 
L 94.32028 73.0446 
L 94.359486 72.894288 
L 94.398693 72.770734 
L 94.55552 73.728419 
L 94.790761 73.116084 
L 94.829968 73.285536 
L 94.869174 73.157625 
L 94.947588 73.183016 
L 95.143622 72.498555 
L 95.261242 72.702535 
L 95.300449 72.592083 
L 95.339656 73.39907 
L 95.418069 73.225138 
L 95.457276 73.436659 
L 95.496483 73.333998 
L 95.535689 73.210702 
L 95.731723 74.37699 
L 95.77093 74.233608 
L 96.084584 73.533169 
L 96.241411 73.89933 
L 96.280618 73.808207 
L 96.398238 74.819372 
L 96.555065 75.96674 
L 96.594272 75.850216 
L 96.633479 76.078578 
L 96.711892 77.286895 
L 96.829512 76.878005 
L 97.496027 74.617277 
L 97.613648 75.297866 
L 97.652854 75.204255 
L 97.888095 74.630082 
L 97.927302 74.874461 
L 98.005715 74.671615 
L 98.044922 74.554863 
L 98.201749 75.870635 
L 98.240956 75.891833 
L 98.397783 76.33481 
L 98.67223 75.679886 
L 98.711437 75.69919 
L 98.750644 75.87602 
L 98.789851 75.758694 
L 98.868264 75.526108 
L 98.946678 75.559803 
L 98.985884 75.751058 
L 99.025091 75.631052 
L 99.064298 75.501581 
L 99.103505 75.7137 
L 99.221125 76.178636 
L 99.299538 76.131039 
L 99.613193 75.566891 
L 99.652399 75.493165 
L 99.691606 75.595889 
L 99.77002 76.132389 
L 99.809226 76.022158 
L 100.514948 74.16229 
L 100.554155 74.211763 
L 100.593362 74.474291 
L 100.671775 74.351921 
L 100.710982 74.27028 
L 100.789395 74.723038 
L 100.867809 74.636682 
L 100.907016 74.538884 
L 100.946222 74.624092 
L 101.259877 76.155986 
L 101.416704 75.774808 
L 101.495117 76.178636 
L 101.534324 76.073173 
L 101.573531 75.956477 
L 101.769565 76.788817 
L 101.808771 76.926488 
L 101.887185 76.82408 
L 102.044012 76.600287 
L 102.200839 77.410689 
L 102.240046 77.354456 
L 102.514493 80.479224 
L 102.5537 80.410448 
L 102.67132 80.197663 
L 102.749734 80.715563 
L 102.78894 80.643991 
L 102.867354 80.493819 
L 102.906561 80.627541 
L 102.984974 80.522815 
L 103.024181 80.612776 
L 103.298628 81.476782 
L 103.337835 81.38733 
L 103.494662 82.746745 
L 103.533869 83.59976 
L 103.612282 83.470735 
L 103.690696 83.317144 
L 103.88673 83.961937 
L 103.925936 83.89394 
L 104.12197 83.42951 
L 104.161177 83.487263 
L 104.278797 83.795321 
L 104.318004 83.710377 
L 104.435624 83.448202 
L 104.474831 83.937633 
L 104.553245 83.755428 
L 104.710072 83.483955 
L 104.749278 83.579969 
L 104.788485 83.795432 
L 104.866899 83.667184 
L 104.906105 83.610072 
L 105.023726 83.810066 
L 105.062933 83.724735 
L 105.102139 83.889068 
L 105.141346 83.817285 
L 105.180553 83.955638 
L 105.21976 83.857172 
L 105.768654 83.063345 
L 105.925481 83.191062 
L 106.709617 81.753308 
L 106.748823 81.805378 
L 106.78803 81.725965 
L 107.180098 81.123528 
L 107.219304 81.235723 
L 107.258511 81.181898 
L 107.376131 80.953936 
L 107.454545 81.013625 
L 107.493752 81.11687 
L 107.532959 81.06883 
L 108.23868 79.974964 
L 108.317094 80.069771 
L 108.356301 80.004227 
L 108.591541 79.743813 
L 108.748368 79.895645 
L 109.101229 79.440647 
L 109.140436 79.380186 
L 109.218849 79.880218 
L 109.258056 79.791917 
L 109.375676 79.569883 
L 109.414883 79.729928 
L 109.493297 79.585118 
L 109.728537 80.565381 
L 109.806951 80.407283 
L 109.846158 80.355211 
L 109.885364 80.487667 
L 110.042191 80.195284 
L 110.159812 80.139544 
L 110.199018 80.162733 
L 110.238225 80.745742 
L 110.316639 80.634747 
L 110.355845 80.56126 
L 110.395052 80.975213 
L 110.473466 80.833438 
L 110.6695 80.462635 
L 110.708706 80.574563 
L 110.865533 80.358752 
L 111.179187 79.95143 
L 111.257601 80.18103 
L 111.296808 80.121533 
L 111.414428 80.121635 
L 111.453635 80.221068 
L 111.492842 80.154444 
L 111.532048 80.081707 
L 111.688875 80.815831 
L 111.728082 80.746795 
L 112.394597 79.7602 
L 112.590631 80.061803 
L 112.629838 80.020506 
L 113.649213 78.665166 
L 113.68842 78.776587 
L 113.727627 78.708077 
L 114.119695 78.353286 
L 114.158901 78.776912 
L 114.237315 78.638789 
L 114.629382 78.309209 
L 114.668589 78.37926 
L 114.707796 78.341473 
L 114.864623 78.179569 
L 114.90383 78.271024 
L 114.943037 78.209634 
L 115.452724 77.721624 
L 115.531138 77.906356 
L 115.570345 77.852653 
L 115.687965 77.703531 
L 115.727172 77.828249 
L 115.805585 77.738949 
L 115.844792 77.698718 
L 115.883999 77.819804 
L 115.923206 77.752262 
L 115.962412 77.690044 
L 116.040826 77.918814 
L 116.080033 77.865953 
L 116.119239 77.811527 
L 116.23686 78.201905 
L 116.276066 78.137157 
L 116.393687 77.974468 
L 116.550514 78.326834 
L 116.942581 77.7891 
L 116.981788 77.819335 
L 117.060202 77.79318 
L 117.334649 77.520162 
L 117.373856 77.556503 
L 117.68751 77.171986 
L 117.726717 77.205575 
L 117.844337 77.444873 
L 117.883544 77.384391 
L 118.236405 77.036893 
L 118.275611 77.125245 
L 118.314818 77.072956 
L 118.589265 76.740516 
L 118.628472 76.803144 
L 118.785299 76.957928 
L 118.824506 76.903555 
L 118.981333 76.743659 
L 119.02054 76.86698 
L 119.098953 76.777567 
L 119.25578 76.584928 
L 119.294987 76.648935 
L 119.412607 76.617328 
L 119.687055 76.418462 
L 119.765468 76.366882 
L 119.804675 76.564298 
L 119.883089 76.477301 
L 119.961502 76.401668 
L 120.000709 76.542657 
L 120.079122 76.461274 
L 120.157536 76.391882 
L 120.314363 76.689342 
L 120.47119 76.632511 
L 120.510397 76.70621 
L 120.58881 76.621911 
L 120.980878 76.31421 
L 121.020085 76.723728 
L 121.098498 76.645565 
L 121.412152 76.352115 
L 121.647393 76.129744 
L 121.725806 76.33546 
L 121.765013 76.301202 
L 122.235494 75.904586 
L 122.274701 76.107783 
L 122.353115 76.0235 
L 122.431528 75.946381 
L 122.470735 76.197114 
L 122.549148 76.117168 
L 122.745182 75.958469 
L 122.823596 76.090486 
L 122.902009 76.026988 
L 124.235039 75.050488 
L 124.47028 74.809346 
L 124.509487 74.900283 
L 124.627107 74.854766 
L 125.176001 74.410989 
L 125.411242 74.466282 
L 125.450449 74.427149 
L 125.489656 74.490985 
L 125.528862 74.58738 
L 125.607276 74.512837 
L 125.881723 74.252992 
L 125.92093 74.333939 
L 125.999344 74.271409 
L 126.509031 73.970859 
L 126.548238 74.275679 
L 126.626652 74.22293 
L 127.018719 73.997221 
L 127.057926 73.969809 
L 127.097133 74.07473 
L 127.175546 74.014085 
L 127.25396 74.222007 
L 127.293167 74.175304 
L 127.646028 73.8969 
L 127.802855 73.996588 
L 127.920475 74.006494 
L 127.959682 74.187476 
L 128.038095 74.142669 
L 128.312542 73.993107 
L 128.430163 74.268316 
L 128.508576 74.209649 
L 128.783024 74.023766 
L 128.861437 74.315598 
L 128.900644 74.286758 
L 128.939851 74.258526 
L 128.979057 74.4358 
L 129.057471 74.354999 
L 129.802399 73.786203 
L 130.194467 73.798305 
L 131.997978 73.906494 
L 132.82132 74.156561 
L 177.320995 74.265645 
L 177.634649 74.300556 
L 242.40422 74.406785 
L 242.678668 74.42423 
L 291.843947 74.53426 
L 292.118395 74.551696 
L 314.975937 74.647574 
L 315.250384 74.665003 
L 352.183154 74.768438 
L 352.732049 74.777149 
L 428.910788 74.886444 
L 429.498889 74.903856 
L 444.358252 75.008312 
L 444.907147 75.017015 
L 497.444208 75.120868 
L 497.757862 75.146966 
L 516.106627 75.231683 
L 516.302661 75.266465 
L 528.613584 75.366818 
L 528.848824 75.392891 
L 530.887576 75.410271 
L 530.887576 75.410271 
" clip-path="url(#pc2638a4073)" style="fill: none; stroke: #1f77b4; stroke-width: 1.8; stroke-linecap: square"/>
   </g>
   <g id="line2d_32">
    <path d="M 77.226131 36.121818 
L 77.304545 65.12223 
L 77.343752 58.453145 
L 77.382958 54.024307 
L 77.422165 75.994043 
L 77.500579 65.15629 
L 77.539786 62.065664 
L 77.657406 80.492448 
L 77.696613 77.155632 
L 77.735819 77.645506 
L 77.892646 93.070769 
L 77.931853 90.009419 
L 78.010267 84.477359 
L 78.049473 87.95449 
L 78.127887 84.485751 
L 78.167094 86.515198 
L 78.2063 86.848261 
L 78.245507 90.76081 
L 78.284714 89.049289 
L 78.323921 87.370983 
L 78.363128 87.577499 
L 78.559161 92.238282 
L 78.598368 91.915244 
L 78.872815 84.530058 
L 78.912022 87.254029 
L 78.990436 85.063288 
L 79.029642 84.959929 
L 79.382503 77.990251 
L 79.42171 79.550359 
L 79.460917 78.87868 
L 79.500124 78.18921 
L 79.53933 78.87769 
L 79.578537 78.952071 
L 79.813778 75.19383 
L 79.970605 77.967699 
L 80.009812 77.38206 
L 80.049018 76.820076 
L 80.166639 79.580955 
L 80.284259 78.798156 
L 80.401879 81.976161 
L 80.441086 81.330743 
L 80.558706 80.722451 
L 80.597913 80.737698 
L 80.715533 83.716434 
L 80.75474 83.240557 
L 80.950774 81.52291 
L 80.989981 81.869375 
L 81.029187 82.640829 
L 81.068394 82.211617 
L 81.342841 79.720524 
L 81.382048 79.845739 
L 81.774116 77.1925 
L 81.852529 78.057219 
L 81.891736 77.676842 
L 81.97015 77.139433 
L 82.009356 77.436619 
L 82.048563 77.477564 
L 82.244597 76.591073 
L 82.362217 78.519913 
L 82.440631 77.944237 
L 82.519044 77.967458 
L 82.558251 78.802515 
L 82.636665 78.140443 
L 82.793492 78.626448 
L 82.832698 78.523389 
L 83.028732 80.905567 
L 83.067939 80.561885 
L 83.185559 79.607831 
L 83.224766 79.847024 
L 83.263973 79.892583 
L 83.381593 78.980458 
L 83.616834 81.208782 
L 83.65604 80.885051 
L 83.695247 81.266505 
L 83.734454 81.160346 
L 83.773661 81.465046 
L 83.812867 81.287924 
L 84.048108 80.395631 
L 84.087315 80.395144 
L 84.322555 79.161938 
L 84.361762 79.514987 
L 84.400969 79.730646 
L 84.440176 79.508443 
L 84.597003 78.833864 
L 84.675416 79.665152 
L 84.714623 79.414956 
L 84.832243 78.769458 
L 84.87145 79.139394 
L 84.910657 78.930799 
L 85.028277 78.693813 
L 85.067484 79.297859 
L 85.145897 79.067145 
L 85.381138 78.272252 
L 85.420345 78.08879 
L 85.459551 78.552619 
L 85.537965 78.188429 
L 85.577172 78.202724 
L 85.655585 77.805018 
L 85.733999 77.909075 
L 85.812412 79.182837 
L 85.890826 78.78193 
L 85.930033 78.676918 
L 85.969239 79.521901 
L 86.047653 79.191823 
L 86.20448 78.704405 
L 86.243687 78.97319 
L 86.282893 78.770044 
L 86.478927 78.099277 
L 86.635754 78.561405 
L 86.674961 78.363957 
L 86.714168 78.483699 
L 86.753375 78.651931 
L 86.792581 78.44964 
L 86.831788 78.614185 
L 86.949408 78.1249 
L 87.027822 78.689533 
L 87.067029 78.497379 
L 87.145442 78.142557 
L 87.184649 78.192197 
L 87.263063 78.540069 
L 87.302269 78.366422 
L 87.459096 77.982041 
L 87.498303 78.134762 
L 87.576717 78.044706 
L 87.77275 77.648101 
L 87.811957 77.745458 
L 87.851164 77.58165 
L 87.929577 77.621104 
L 88.047198 77.224001 
L 88.164818 77.407561 
L 88.439265 76.551883 
L 88.478472 76.818237 
L 88.517679 76.677054 
L 88.713713 76.377217 
L 88.87054 77.620976 
L 88.909747 77.505923 
L 89.10578 77.018915 
L 89.184194 77.438285 
L 89.223401 77.319528 
L 89.262607 77.196101 
L 89.380228 78.03578 
L 89.458641 77.882163 
L 89.537055 77.605839 
L 89.615468 78.199116 
L 89.693882 78.133691 
L 89.733089 78.158733 
L 89.772295 78.011824 
L 89.929122 78.569965 
L 90.046743 78.211994 
L 90.085949 78.285178 
L 90.32119 79.36708 
L 90.360397 79.224413 
L 90.674051 78.512224 
L 90.752464 78.910135 
L 90.791671 78.799724 
L 90.909291 78.61898 
L 91.066118 79.136501 
L 91.183739 78.762657 
L 91.222945 78.794842 
L 91.379773 78.89646 
L 91.458186 78.659094 
L 91.497393 78.698792 
L 91.615013 78.870846 
L 91.65422 78.740646 
L 91.693427 79.080801 
L 91.77184 79.06411 
L 91.850254 79.128774 
L 91.967874 78.792985 
L 92.007081 78.682719 
L 92.046287 78.806866 
L 92.085494 78.849091 
L 92.320735 78.444956 
L 92.399148 78.240659 
L 92.438355 78.374474 
L 92.477562 78.393095 
L 92.673596 78.976454 
L 92.752009 79.520192 
L 92.830423 79.284513 
L 92.908836 79.058538 
L 92.948043 79.423604 
L 93.026457 79.286036 
L 93.065663 79.435632 
L 93.10487 79.335811 
L 93.22249 79.216238 
L 93.300904 79.515728 
L 93.340111 79.411602 
L 93.418524 79.174275 
L 93.457731 79.330099 
L 93.536144 80.093907 
L 93.614558 79.94239 
L 93.692972 79.715679 
L 93.732178 79.762501 
L 93.849799 80.216719 
L 93.889005 80.09907 
L 94.045832 79.936143 
L 94.085039 80.028149 
L 94.124246 79.947887 
L 94.55552 79.210749 
L 94.869174 79.699227 
L 94.947588 79.599577 
L 94.986795 79.716324 
L 95.026001 79.608715 
L 95.065208 79.507995 
L 95.104415 79.64543 
L 95.261242 80.015372 
L 95.300449 79.913749 
L 95.339656 79.813857 
L 95.378862 79.862566 
L 95.496483 80.205415 
L 95.535689 80.105955 
L 95.65331 80.016463 
L 95.810137 80.436166 
L 95.849343 80.337946 
L 96.084584 80.072308 
L 96.123791 80.119342 
L 96.162998 80.031828 
L 96.241411 79.856638 
L 96.359031 80.288601 
L 96.398238 80.207826 
L 96.476652 80.013736 
L 96.515858 80.188773 
L 96.594272 80.097967 
L 96.672685 80.479446 
L 96.711892 80.403186 
L 96.868719 80.060889 
L 96.907926 80.158426 
L 96.947133 80.263766 
L 96.98634 80.181877 
L 97.260787 79.74592 
L 97.378407 80.081288 
L 97.417614 80.006039 
L 97.770475 79.397798 
L 97.927302 79.651841 
L 98.280163 79.164504 
L 98.319369 79.183966 
L 98.515403 79.623718 
L 98.711437 79.293073 
L 98.789851 79.487631 
L 98.829057 79.40258 
L 99.417159 78.527469 
L 99.456366 78.662904 
L 99.573986 78.816064 
L 99.613193 78.743187 
L 99.652399 78.774314 
L 99.691606 78.995387 
L 99.77002 78.865958 
L 99.809226 78.996713 
L 99.848433 78.92327 
L 99.88764 78.838233 
L 99.966053 78.902216 
L 100.044467 78.837328 
L 100.083674 78.791317 
L 100.201294 79.283533 
L 100.279708 79.146213 
L 100.318914 79.060343 
L 100.475741 79.463166 
L 100.789395 79.938578 
L 101.024636 79.559427 
L 101.063843 79.620971 
L 101.33829 79.260866 
L 101.377497 79.502674 
L 101.45591 79.351873 
L 101.808771 78.886388 
L 101.926392 79.245821 
L 102.004805 79.119122 
L 102.044012 79.177235 
L 102.083219 79.343282 
L 102.161632 79.197175 
L 102.318459 79.114843 
L 102.436079 79.118876 
L 102.5537 79.319942 
L 102.867354 78.99313 
L 102.906561 79.134184 
L 102.984974 79.076058 
L 103.102594 78.874191 
L 103.259421 79.382054 
L 103.298628 79.323819 
L 103.612282 79.016157 
L 103.651489 79.070055 
L 103.690696 79.018207 
L 103.88673 78.889426 
L 103.965143 79.015824 
L 104.00435 78.955349 
L 104.239591 78.705652 
L 104.396418 79.01317 
L 104.435624 78.960263 
L 104.592451 78.861372 
L 104.749278 79.14691 
L 104.984519 78.805499 
L 105.023726 78.833778 
L 105.180553 79.233805 
L 105.258966 79.18316 
L 105.298173 79.126048 
L 105.33738 79.187754 
L 105.455 79.234643 
L 105.886275 78.788122 
L 106.003895 78.873211 
L 106.356756 78.47787 
L 106.474376 78.554943 
L 106.90565 78.117452 
L 106.944857 78.1772 
L 107.023271 78.100941 
L 107.258511 77.903692 
L 107.376131 77.941802 
L 107.925026 77.478924 
L 108.199473 77.702463 
L 108.317094 77.619919 
L 108.395507 77.759631 
L 108.434714 77.70567 
L 108.669955 77.558845 
L 108.709161 77.680141 
L 108.787575 77.630424 
L 109.258056 77.201014 
L 109.45409 77.409363 
L 109.532503 77.317226 
L 109.610917 77.253017 
L 109.68933 77.513062 
L 109.728537 77.477496 
L 109.806951 77.406546 
L 109.846158 77.4524 
L 110.002985 77.542764 
L 110.120605 77.44885 
L 110.159812 77.512641 
L 110.355845 77.89794 
L 110.395052 77.859199 
L 110.473466 77.782597 
L 110.512672 77.872024 
L 110.551879 77.974646 
L 110.630293 77.91935 
L 110.708706 77.860883 
L 110.865533 78.136992 
L 110.90474 78.101744 
L 110.943947 78.173906 
L 111.02236 78.102188 
L 111.139981 78.013546 
L 111.218394 78.19692 
L 111.296808 78.134777 
L 111.571255 78.185767 
L 111.649669 78.302819 
L 111.688875 78.273209 
L 111.884909 78.271157 
L 112.159356 78.208377 
L 112.198563 78.313917 
L 112.276977 78.249996 
L 112.473011 78.23269 
L 112.551424 78.189248 
L 112.590631 78.295327 
L 112.669044 78.502815 
L 112.747458 78.45334 
L 113.021905 78.332097 
L 113.139526 78.386348 
L 113.374766 78.339144 
L 113.413973 78.489912 
L 113.492386 78.458908 
L 113.727627 78.459799 
L 113.766834 78.653565 
L 113.845247 78.614804 
L 114.119695 78.619253 
L 114.158901 78.737778 
L 114.237315 78.709396 
L 115.02145 78.556174 
L 115.13907 78.608455 
L 115.491931 78.568862 
L 115.687965 78.57311 
L 115.844792 78.725934 
L 116.511307 78.701061 
L 116.668134 78.93541 
L 117.060202 78.960005 
L 117.217029 78.984681 
L 118.236405 78.976799 
L 123.686145 78.867302 
L 126.273791 78.769522 
L 127.293167 78.864748 
L 127.567614 78.882282 
L 128.743817 78.954898 
L 129.723986 79.050652 
L 130.03764 79.076933 
L 134.15435 79.182032 
L 134.389591 79.208301 
L 178.497198 79.310192 
L 178.771645 79.327696 
L 186.33855 79.430797 
L 186.573791 79.457041 
L 194.179903 79.544504 
L 194.415143 79.570738 
L 210.646743 79.679293 
L 210.881984 79.705512 
L 221.899084 79.805252 
L 222.173531 79.822722 
L 231.543947 79.924317 
L 231.818395 79.941779 
L 246.011242 80.033305 
L 246.246483 80.058842 
L 250.559227 80.162892 
L 251.225742 80.197782 
L 265.026522 80.299198 
L 265.340176 80.334068 
L 269.182439 80.438656 
L 269.456886 80.456083 
L 275.494728 80.562848 
L 276.043622 80.571557 
L 279.10175 80.623156 
L 279.376197 80.64057 
L 286.707862 80.749176 
L 287.256756 80.757878 
L 294.392387 80.860982 
L 295.058902 80.895776 
L 302.861048 80.99817 
L 303.135495 81.015558 
L 309.643817 81.119869 
L 310.349539 81.163321 
L 319.837576 81.238888 
L 319.837576 81.238888 
" clip-path="url(#pc2638a4073)" style="fill: none; stroke: #ff7f0e; stroke-width: 1.8; stroke-linecap: square"/>
   </g>
   <g id="line2d_33">
    <path d="M 77.226131 111.03327 
L 77.265338 78.225335 
L 77.343752 103.1937 
L 77.382958 111.409332 
L 77.422165 100.709556 
L 77.461372 101.46396 
L 77.657406 77.59701 
L 77.696613 81.123363 
L 77.735819 77.817898 
L 77.85344 69.882535 
L 78.010267 78.580928 
L 78.167094 71.727879 
L 78.2063 76.38083 
L 78.284714 73.66461 
L 78.363128 70.899831 
L 78.402334 75.183319 
L 78.480748 73.119235 
L 78.637575 76.275783 
L 78.912022 71.702857 
L 79.068849 81.16314 
L 79.382503 75.175544 
L 79.578537 72.328595 
L 79.696157 73.868419 
L 79.735364 73.305037 
L 79.774571 73.332967 
L 79.813778 72.677264 
L 79.892191 75.252519 
L 79.931398 74.621658 
L 80.362672 69.428519 
L 80.597913 67.623361 
L 80.950774 64.92905 
L 81.029187 67.048225 
L 81.107601 66.498551 
L 81.225221 67.614932 
L 81.186014 66.394045 
L 81.303635 66.98955 
L 81.578082 65.46205 
L 81.656496 66.628739 
L 81.695702 66.387939 
L 81.774116 65.810171 
L 81.852529 65.992204 
L 81.891736 66.069282 
L 82.08777 64.782302 
L 82.126977 65.915003 
L 82.20539 65.391682 
L 82.32301 64.716224 
L 82.362217 66.691495 
L 82.440631 66.382208 
L 82.675871 65.499782 
L 82.715078 65.874021 
L 82.754285 65.659063 
L 82.793492 65.48868 
L 82.832698 65.93637 
L 82.871905 65.700126 
L 83.028732 64.940996 
L 83.107146 66.477891 
L 83.185559 66.268428 
L 83.263973 65.770361 
L 83.30318 66.021984 
L 83.4208 67.101181 
L 84.204935 64.164733 
L 84.244142 64.373548 
L 84.283349 64.356671 
L 84.322555 64.578642 
L 84.361762 64.411648 
L 84.597003 63.682123 
L 84.793036 67.034988 
L 84.832243 66.865027 
L 85.106691 65.7416 
L 85.145897 65.779918 
L 85.263518 66.282246 
L 85.381138 65.893818 
L 85.420345 67.385676 
L 85.498758 67.069069 
L 85.537965 66.881715 
L 85.577172 67.56036 
L 85.655585 67.280002 
L 85.773206 66.870899 
L 85.851619 67.58135 
L 85.890826 67.409729 
L 85.969239 67.084896 
L 86.08686 68.184746 
L 86.165273 67.890273 
L 86.20448 67.749307 
L 86.361307 69.0606 
L 86.400514 68.952163 
L 86.674961 68.473525 
L 86.792581 68.043561 
L 86.910202 68.960199 
L 86.949408 68.786711 
L 87.106235 68.40319 
L 87.145442 68.60813 
L 87.184649 68.444098 
L 87.341476 68.079036 
L 87.498303 68.889989 
L 87.733544 68.196903 
L 87.77275 68.318483 
L 87.929577 68.609794 
L 87.968784 68.709801 
L 88.007991 68.548229 
L 88.204025 68.2152 
L 88.243232 68.768567 
L 88.321645 68.511168 
L 88.400059 68.25256 
L 88.478472 68.374687 
L 88.909747 67.24552 
L 89.066574 67.678505 
L 89.537055 66.588788 
L 89.576261 66.982148 
L 89.654675 66.785385 
L 89.968329 66.224295 
L 90.20357 67.264899 
L 90.399603 66.771312 
L 90.43881 66.862757 
L 90.517224 67.316122 
L 90.556431 67.253929 
L 90.674051 66.963249 
L 90.713258 67.186289 
L 90.752464 67.089274 
L 90.870085 66.792339 
L 90.909291 66.988249 
L 90.987705 66.891524 
L 91.105325 66.645281 
L 91.183739 67.240367 
L 91.222945 67.143796 
L 91.340566 66.902339 
L 91.379773 67.094713 
L 91.418979 66.987978 
L 91.693427 66.404358 
L 91.850254 66.762153 
L 91.928667 66.640045 
L 92.242321 66.045527 
L 92.281528 66.234748 
L 92.320735 66.137198 
L 92.555975 65.858748 
L 92.595182 66.040479 
L 92.673596 65.888424 
L 92.869629 65.668412 
L 92.948043 65.608407 
L 93.144077 65.31698 
L 93.379317 65.578176 
L 93.849799 64.880262 
L 93.889005 65.038146 
L 93.967419 64.89667 
L 94.085039 64.691113 
L 94.124246 64.75279 
L 94.163453 65.191965 
L 94.241866 65.108908 
L 94.398693 65.048699 
L 94.4379 65.114417 
L 94.477107 65.03955 
L 94.516314 64.964066 
L 94.55552 65.045557 
L 94.594727 65.124842 
L 94.633934 65.053665 
L 95.065208 64.438194 
L 95.104415 64.519525 
L 95.182828 64.756446 
L 95.222035 64.698065 
L 95.378862 64.600055 
L 95.418069 64.701839 
L 95.457276 64.636752 
L 95.496483 64.576645 
L 95.574896 64.878809 
L 95.65331 64.826125 
L 96.241411 64.139369 
L 96.359031 64.080533 
L 96.437445 63.965563 
L 96.476652 64.101752 
L 96.555065 63.979611 
L 96.594272 64.080203 
L 96.633479 64.021174 
L 97.10396 63.340021 
L 97.143167 63.509937 
L 97.22158 63.396187 
L 97.3392 63.232188 
L 97.378407 63.363611 
L 97.456821 63.259118 
L 97.496027 63.21079 
L 97.574441 63.769917 
L 97.652854 63.68191 
L 97.770475 63.650017 
L 97.809682 63.762406 
L 97.888095 63.671321 
L 98.55461 62.991584 
L 98.593817 63.098905 
L 98.67223 62.995109 
L 98.985884 62.654573 
L 99.025091 62.815278 
L 99.103505 62.723991 
L 99.181918 62.639157 
L 99.221125 62.892323 
L 99.299538 62.795694 
L 99.495572 62.575787 
L 99.573986 62.961282 
L 99.652399 62.873106 
L 99.691606 62.8156 
L 99.730813 62.895864 
L 99.88764 63.039863 
L 100.593362 62.252629 
L 100.946222 62.062289 
L 100.985429 62.41661 
L 101.063843 62.32873 
L 101.495117 61.852501 
L 101.612737 62.546486 
L 101.769565 62.490523 
L 101.887185 62.437145 
L 102.004805 62.749623 
L 102.083219 63.18474 
L 102.122425 63.138845 
L 102.357666 62.893035 
L 102.475286 63.260942 
L 102.514493 63.211097 
L 102.632113 63.093365 
L 102.78894 63.63865 
L 102.867354 63.56089 
L 103.102594 63.326411 
L 103.181008 63.414548 
L 103.220215 63.56167 
L 103.298628 63.473255 
L 103.612282 63.241156 
L 103.729903 63.170993 
L 104.435624 62.641308 
L 104.788485 62.486677 
L 104.827692 62.62701 
L 104.906105 62.557154 
L 105.141346 62.521235 
L 105.298173 62.644306 
L 105.415793 62.535915 
L 105.455 62.745602 
L 105.533414 62.676193 
L 105.964688 62.408599 
L 106.003895 62.527741 
L 106.082308 62.46837 
L 106.78803 62.050934 
L 106.944857 62.250229 
L 106.984064 62.211876 
L 107.219304 62.049989 
L 107.297718 62.173324 
L 107.376131 62.121628 
L 107.493752 62.075642 
L 107.532959 62.050781 
L 107.572165 62.262738 
L 107.650579 62.204874 
L 107.807406 62.103568 
L 107.846613 62.20947 
L 107.925026 62.154226 
L 108.081853 62.077478 
L 108.199473 62.225558 
L 108.23868 62.204656 
L 108.317094 62.161392 
L 108.356301 62.275106 
L 108.434714 62.231321 
L 108.591541 62.211247 
L 108.630748 62.281632 
L 108.709161 62.225691 
L 108.826782 62.168445 
L 108.905195 62.326002 
L 108.944402 62.301218 
L 109.101229 62.319654 
L 109.532503 62.152825 
L 109.68933 62.411315 
L 109.728537 62.388381 
L 109.767744 62.358371 
L 109.806951 62.460038 
L 110.042191 62.410527 
L 110.159812 62.399682 
L 110.355845 62.286625 
L 110.395052 62.386075 
L 110.473466 62.334994 
L 110.78712 62.251114 
L 111.061567 62.124395 
L 111.100774 62.31145 
L 111.179187 62.272019 
L 111.453635 62.210286 
L 111.610462 62.376705 
L 112.12015 62.201947 
L 112.276977 62.262294 
L 113.68842 61.769288 
L 114.119695 61.610104 
L 114.237315 61.63566 
L 116.35448 60.905043 
L 117.452269 60.565263 
L 117.56989 60.646317 
L 118.118784 60.601098 
L 118.236405 60.635152 
L 118.510852 60.56267 
L 118.628472 60.645269 
L 120.863258 60.214627 
L 121.92184 60.050752 
L 125.254415 59.639419 
L 127.685234 59.395311 
L 138.310267 59.000976 
L 146.073206 58.968956 
L 167.362478 59.065048 
L 167.558511 59.094192 
L 229.662023 59.188059 
L 229.858056 59.217188 
L 243.345183 59.321418 
L 243.61963 59.340827 
L 245.462348 59.415889 
L 245.658382 59.45469 
L 251.657016 59.548359 
L 251.931463 59.567748 
L 257.655651 59.662461 
L 257.851685 59.691531 
L 259.733609 59.787299 
L 259.929643 59.816356 
L 265.65383 59.911701 
L 265.967484 59.960105 
L 269.574506 60.066569 
L 270.044988 60.076245 
L 272.162153 60.181159 
L 272.475807 60.229518 
L 276.67093 60.323558 
L 276.906171 60.362224 
L 280.003505 60.448822 
L 280.238746 60.487472 
L 284.78673 60.581774 
L 284.982764 60.610747 
L 289.02106 60.703065 
L 289.217094 60.732021 
L 293.451425 60.83662 
L 293.921906 60.845106 
L 298.391477 60.950036 
L 298.58751 60.978963 
L 300.783089 61.06573 
L 300.979123 61.094647 
L 304.860592 61.18984 
L 305.13504 61.209109 
L 308.193167 61.30465 
L 308.428408 61.343172 
L 309.36937 61.439456 
L 309.643817 61.458709 
L 313.054806 61.552571 
L 313.250839 61.581039 
L 317.328343 61.682861 
L 317.563583 61.73094 
L 319.759162 61.835081 
L 319.955196 61.863914 
L 322.464429 61.948781 
L 322.778083 61.987207 
L 327.365274 62.091231 
L 327.600514 62.148837 
L 329.364819 62.243193 
L 329.639266 62.262386 
L 332.775807 62.357512 
L 333.089461 62.405472 
L 337.794273 62.482192 
L 337.990306 62.519721 
L 344.577042 62.624751 
L 344.890697 62.663084 
L 352.457602 62.755158 
L 352.653635 62.79347 
L 361.20071 62.9042 
L 361.43595 62.952058 
L 363.827563 63.036924 
L 364.023596 63.075192 
L 368.179513 63.160857 
L 368.414754 63.218233 
L 373.354806 63.328716 
L 373.590046 63.386052 
L 378.138031 63.489436 
L 378.412478 63.508537 
L 381.235365 63.613576 
L 381.509812 63.63267 
L 384.293492 63.725116 
L 384.489526 63.752883 
L 389.468785 63.847422 
L 389.743232 63.866498 
L 395.624247 63.959264 
L 395.820281 63.987864 
L 400.289851 64.077964 
L 400.485885 64.106548 
L 403.387186 64.210896 
L 403.70084 64.248116 
L 407.229448 64.342889 
L 407.425482 64.380965 
L 414.404286 64.485209 
L 414.678733 64.504238 
L 417.815274 64.599367 
L 418.089721 64.61839 
L 424.28439 64.711264 
L 424.480424 64.739784 
L 427.969825 64.843443 
L 428.165859 64.87195 
L 432.282569 64.974662 
L 432.870671 65.003155 
L 433.96846 65.088618 
L 434.164494 65.1171 
L 436.595313 65.202531 
L 436.86976 65.268961 
L 440.202335 65.362475 
L 440.437576 65.419384 
L 443.730944 65.512385 
L 444.044598 65.550303 
L 448.318135 65.65181 
L 448.631789 65.689708 
L 452.513259 65.788387 
L 452.709292 65.816793 
L 456.512348 65.91954 
L 456.982829 65.927619 
L 460.158577 66.030314 
L 460.433025 66.049233 
L 466.118005 66.133428 
L 466.118005 66.133428 
" clip-path="url(#pc2638a4073)" style="fill: none; stroke: #2ca02c; stroke-width: 1.8; stroke-linecap: square"/>
   </g>
   <g id="line2d_34">
    <path d="M 77.226131 36.121818 
L 77.382958 36.121818 
L 77.539786 114.657724 
L 77.735819 84.492316 
L 77.85344 96.492225 
L 77.931853 96.620611 
L 78.049473 87.609076 
L 78.127887 108.863034 
L 78.2063 104.510099 
L 78.519955 86.603215 
L 78.833609 77.131133 
L 78.872815 76.02697 
L 78.912022 78.092389 
L 78.990436 76.608328 
L 79.225676 71.715442 
L 79.382503 69.218455 
L 79.42171 73.798263 
L 79.500124 72.26257 
L 79.696157 68.979793 
L 79.774571 69.221228 
L 80.127432 65.191459 
L 81.068394 57.999779 
L 81.538875 55.71833 
L 81.578082 57.06656 
L 81.656496 56.689502 
L 81.97015 55.254826 
L 82.126977 57.789403 
L 82.166183 57.595807 
L 82.989525 54.616167 
L 84.322555 51.094026 
L 84.361762 51.546237 
L 84.440176 51.365715 
L 84.75383 50.651243 
L 84.793036 51.36246 
L 84.87145 51.172742 
L 85.302724 50.32982 
L 85.341931 50.835213 
L 85.420345 50.678379 
L 86.3221 49.251899 
L 86.361307 49.645891 
L 86.439721 49.52273 
L 86.674961 49.143262 
L 86.714168 49.578516 
L 86.792581 49.437785 
L 88.243232 47.773298 
L 88.831333 47.135263 
L 88.948953 47.898959 
L 88.98816 47.856365 
L 90.909291 46.186501 
L 90.948498 46.523473 
L 91.026912 46.449642 
L 92.595182 45.394757 
L 92.712802 45.825086 
L 92.791216 45.770205 
L 93.889005 45.127924 
L 94.006626 45.135904 
L 94.4379 44.913877 
L 94.477107 45.042447 
L 94.55552 44.994478 
L 95.418069 44.559726 
L 96.711892 44.096784 
L 96.751099 44.251331 
L 96.829512 44.217921 
L 96.947133 44.170743 
L 96.98634 44.305642 
L 97.064753 44.269148 
L 97.299994 44.166614 
L 97.3392 44.276092 
L 97.417614 44.242805 
L 97.535234 44.187752 
L 97.574441 44.527251 
L 97.652854 44.493905 
L 98.280163 44.240428 
L 98.319369 44.505862 
L 98.397783 44.477167 
L 98.67223 44.370656 
L 98.711437 44.600128 
L 98.789851 44.56695 
L 100.12288 44.09802 
L 100.162087 44.305209 
L 100.240501 44.273724 
L 101.024636 44.001556 
L 101.063843 44.151613 
L 101.142256 44.119027 
L 102.5537 43.667621 
L 104.161177 43.398433 
L 104.278797 43.580092 
L 104.749278 43.492692 
L 104.788485 43.747998 
L 104.866899 43.734006 
L 104.984519 43.718967 
L 105.102139 43.820981 
L 105.533414 43.811875 
L 105.651034 44.110211 
L 105.690241 44.101136 
L 105.886275 44.055878 
L 106.003895 44.216498 
L 106.317549 44.145859 
L 106.395962 44.276029 
L 106.435169 44.265064 
L 106.67041 44.21403 
L 106.827237 44.682767 
L 107.180098 44.615706 
L 107.297718 44.735366 
L 107.532959 44.681732 
L 107.650579 44.990087 
L 107.689786 44.978928 
L 108.865988 44.853588 
L 108.905195 45.067275 
L 108.983609 45.046028 
L 109.179643 45.004028 
L 109.218849 45.245722 
L 109.297263 45.229736 
L 109.375676 45.216163 
L 109.493297 45.335085 
L 110.865533 45.261294 
L 110.983154 45.497104 
L 111.257601 45.453041 
L 111.375221 45.597265 
L 112.433804 45.539215 
L 112.590631 45.580908 
L 112.747458 45.554648 
L 112.865078 45.651774 
L 113.923661 45.575096 
L 114.119695 45.903562 
L 114.315728 45.981762 
L 114.472555 46.249079 
L 114.825416 46.276465 
L 114.943037 46.372516 
L 114.982243 46.366246 
L 115.099864 46.534997 
L 115.531138 46.468366 
L 115.648758 46.585844 
L 115.766379 46.56891 
L 115.923206 46.867211 
L 116.158446 46.838239 
L 116.276066 46.932722 
L 116.824961 46.859523 
L 116.981788 47.045147 
L 117.099408 47.129189 
L 117.56989 47.159344 
L 117.80513 47.560105 
L 117.922751 47.638865 
L 118.040371 47.740971 
L 118.863713 47.677189 
L 119.726262 48.136343 
L 119.843882 48.359509 
L 120.275156 48.400989 
L 120.628017 48.628163 
L 120.902464 48.673997 
L 121.098498 48.830865 
L 121.255325 48.877618 
L 121.372946 48.941627 
L 121.725806 48.888609 
L 121.92184 49.210554 
L 122.470735 49.248983 
L 122.627562 49.388734 
L 123.999799 49.218474 
L 124.156626 49.281495 
L 125.019174 49.237544 
L 125.176001 49.400554 
L 125.411242 49.422629 
L 125.528862 49.573162 
L 125.724896 49.548373 
L 125.881723 49.804572 
L 126.195377 49.772113 
L 126.312998 49.934371 
L 127.410787 49.812653 
L 127.567614 49.876127 
L 127.685234 49.957622 
L 127.802855 50.139856 
L 128.038095 50.11308 
L 128.155715 50.230292 
L 128.58699 50.191696 
L 128.70461 50.341033 
L 128.979057 50.360143 
L 129.096678 50.429276 
L 129.135884 50.423713 
L 129.292712 50.664571 
L 129.723986 50.692836 
L 129.92002 50.856351 
L 130.272881 50.867087 
L 130.390501 50.973774 
L 131.135429 50.967361 
L 131.25305 51.099318 
L 132.037185 51.079438 
L 132.154805 51.172998 
L 132.233219 51.166036 
L 132.350839 51.273233 
L 133.331008 51.234178 
L 133.448628 51.307296 
L 133.997523 51.275164 
L 134.15435 51.329547 
L 135.056106 51.235884 
L 135.173726 51.364759 
L 135.48738 51.398821 
L 135.644207 51.470269 
L 136.036275 51.474727 
L 136.153895 51.557455 
L 136.310722 51.634084 
L 136.467549 51.670366 
L 136.585169 51.692502 
L 136.781203 51.947749 
L 137.330098 51.958622 
L 137.447718 52.042164 
L 137.878992 52.003348 
L 138.075026 52.191223 
L 138.27106 52.267805 
L 138.427887 52.295442 
L 139.564883 52.213662 
L 140.584259 52.225214 
L 140.741086 52.26471 
L 141.682048 52.292948 
L 141.838875 52.362357 
L 143.171905 52.368867 
L 143.328732 52.477806 
L 144.544142 52.478135 
L 144.700969 52.541368 
L 145.445898 52.624256 
L 145.602725 52.71003 
L 145.877172 52.789748 
L 146.50448 52.832517 
L 146.661307 52.890764 
L 147.170995 52.905212 
L 147.327822 52.974902 
L 148.347198 53.016989 
L 148.504025 53.054338 
L 148.778472 53.073825 
L 148.896093 53.161761 
L 149.131333 53.233563 
L 149.40578 53.240575 
L 149.523401 53.311325 
L 149.758641 53.416283 
L 150.150709 53.508146 
L 150.307536 53.537033 
L 151.091671 53.583509 
L 151.601359 53.67699 
L 151.8366 53.778836 
L 152.699149 53.805999 
L 152.855976 53.858068 
L 153.052009 53.879275 
L 153.365663 53.965304 
L 153.679318 54.067543 
L 154.816314 54.171668 
L 155.012347 54.261843 
L 155.482829 54.32155 
L 155.639656 54.364104 
L 156.933479 54.423372 
L 157.090306 54.457606 
L 158.893817 54.470387 
L 159.207471 54.557751 
L 160.697328 54.656727 
L 160.854155 54.709259 
L 162.187185 54.797025 
L 162.383219 54.821427 
L 164.735624 54.896153 
L 164.970865 55.002782 
L 165.63738 55.079419 
L 168.695507 55.165359 
L 168.852335 55.20863 
L 172.224116 55.300861 
L 172.380943 55.353039 
L 173.439526 55.416128 
L 173.674766 55.494385 
L 176.223206 55.478918 
L 176.41924 55.512112 
L 177.909097 55.59484 
L 178.144337 55.663324 
L 180.496743 55.7624 
L 180.77119 55.83178 
L 182.692322 55.857837 
L 182.888355 55.891884 
L 184.417419 55.940398 
L 184.613453 55.965096 
L 186.064103 56.061253 
L 186.416964 56.112559 
L 187.475547 56.184108 
L 187.710787 56.235346 
L 189.200644 56.330747 
L 189.396678 56.366314 
L 191.239396 56.443619 
L 191.43543 56.477387 
L 192.141151 56.55443 
L 192.337185 56.607539 
L 192.88608 56.693159 
L 193.12132 56.763816 
L 194.062283 56.83921 
L 194.258316 56.891635 
L 194.650384 56.970546 
L 194.846418 57.005072 
L 196.610722 57.083806 
L 196.806756 57.117991 
L 198.296613 57.199319 
L 198.57106 57.260212 
L 200.609812 57.311941 
L 200.805846 57.347268 
L 201.903635 57.44954 
L 202.099669 57.475632 
L 208.294337 57.538198 
L 208.921645 57.573149 
L 213.195182 57.616983 
L 236.405586 57.714439 
L 236.601619 57.749983 
L 242.012153 57.838823 
L 242.247393 57.86547 
L 245.462348 57.968903 
L 245.972036 57.97778 
L 247.697133 58.030098 
L 247.971581 58.047849 
L 253.225287 58.1537 
L 253.734975 58.161308 
L 277.807926 58.238918 
L 278.00396 58.274387 
L 285.021971 58.370951 
L 285.257211 58.397541 
L 289.099474 58.494057 
L 289.334715 58.520635 
L 296.980033 58.631268 
L 297.254481 58.648975 
L 300.312608 58.745377 
L 300.587055 58.763077 
L 306.389656 58.865677 
L 306.899344 58.874522 
L 308.898889 58.980646 
L 309.526197 59.015685 
L 312.897979 59.112922 
L 313.133219 59.139435 
L 315.799279 59.236302 
L 316.073726 59.253971 
L 320.072816 59.357968 
L 320.347263 59.375628 
L 325.444142 59.472741 
L 325.679383 59.499221 
L 328.110202 59.550835 
L 328.38465 59.568483 
L 330.109747 59.66553 
L 330.344988 59.691991 
L 337.480618 59.783591 
L 337.676652 59.818851 
L 341.597328 59.896814 
L 341.793362 59.932059 
L 346.811828 60.036405 
L 347.007862 60.09805 
L 350.379643 60.202323 
L 350.654091 60.219927 
L 355.476522 60.32311 
L 355.711763 60.367095 
L 359.789266 60.471245 
L 360.024507 60.497623 
L 365.278213 60.599621 
L 365.55266 60.617196 
L 368.610788 60.713492 
L 368.963648 60.766195 
L 378.059617 60.85645 
L 378.255651 60.89156 
L 381.039331 60.99616 
L 381.274572 61.02248 
L 385.861763 61.125604 
L 386.410658 61.143143 
L 391.821191 61.246922 
L 392.213258 61.317037 
L 400.054611 61.417502 
L 400.250645 61.452535 
L 402.955911 61.557613 
L 403.661633 61.601384 
L 408.05279 61.696569 
L 408.405651 61.740319 
L 413.424117 61.825973 
L 413.659357 61.852211 
L 417.776067 61.957139 
L 418.011308 61.983366 
L 423.421841 62.05982 
L 423.617875 62.094774 
L 426.597589 62.18214 
L 426.832829 62.208345 
L 433.262738 62.294564 
L 433.458772 62.329489 
L 438.751685 62.424392 
L 439.026132 62.476754 
L 443.41729 62.586793 
L 443.65253 62.612958 
L 446.945898 62.71684 
L 447.455586 62.724802 
L 450.474507 62.828258 
L 450.788161 62.863113 
L 453.571841 62.950233 
L 453.807082 62.976364 
L 457.022036 63.071012 
L 457.296484 63.088425 
L 462.471776 63.16639 
L 462.471776 63.16639 
" clip-path="url(#pc2638a4073)" style="fill: none; stroke: #d62728; stroke-width: 1.8; stroke-linecap: square"/>
   </g>
   <g id="line2d_35">
    <path d="M 77.226131 98.432424 
L 77.422165 68.167273 
L 77.461372 79.117816 
L 77.500579 72.876461 
L 77.539786 68.883944 
L 77.657406 89.152121 
L 77.892646 70.845995 
L 78.363128 60.560678 
L 78.519955 60.917292 
L 78.559161 62.356329 
L 78.598368 61.564815 
L 78.912022 57.609421 
L 79.42171 52.772966 
L 80.009812 49.354803 
L 80.911567 46.199615 
L 81.538875 44.668368 
L 82.558251 43.014739 
L 83.499213 41.968195 
L 85.381138 40.586588 
L 87.41989 39.684137 
L 89.889916 38.983142 
L 92.791216 38.444924 
L 95.614103 38.089712 
L 102.867354 37.534619 
L 110.983154 37.212085 
L 118.432438 37.152854 
L 118.90292 37.162474 
L 129.567159 37.258541 
L 129.763193 37.287388 
L 132.311632 37.38345 
L 132.507666 37.412284 
L 141.995702 37.517945 
L 142.191736 37.546767 
L 146.38686 37.642613 
L 146.582894 37.68102 
L 153.091216 37.786342 
L 153.248043 37.834321 
L 155.090761 37.93985 
L 155.404415 37.987806 
L 157.325546 38.064375 
L 157.52158 38.102722 
L 160.344467 38.198509 
L 160.540501 38.227131 
L 163.284974 38.332479 
L 163.559422 38.351636 
L 166.891996 38.437686 
L 167.08803 38.466408 
L 168.852335 38.552561 
L 169.126782 38.619553 
L 172.224116 38.724758 
L 172.42015 38.791712 
L 173.8708 38.887047 
L 174.066834 38.944234 
L 175.635104 39.030242 
L 175.831138 39.058862 
L 177.830683 39.163896 
L 178.026717 39.202097 
L 180.222296 39.307032 
L 180.496743 39.326124 
L 181.829773 39.43106 
L 182.300254 39.440603 
L 185.672035 39.545345 
L 185.946483 39.564267 
L 187.985234 39.659151 
L 188.298889 39.706814 
L 192.219565 39.801624 
L 192.415599 39.830206 
L 193.474181 39.906186 
L 193.670215 39.94428 
L 195.238485 40.0298 
L 195.434519 40.067642 
L 197.669305 40.162811 
L 197.865338 40.20087 
L 198.923921 40.276976 
L 199.119955 40.315021 
L 201.001879 40.410116 
L 201.23712 40.467159 
L 204.099214 40.571513 
L 204.295247 40.60002 
L 206.843687 40.694752 
L 207.039721 40.72304 
L 209.2353 40.827282 
L 209.823401 40.855762 
L 210.80357 40.931409 
L 210.999604 40.969367 
L 214.763453 41.063874 
L 214.998694 41.120781 
L 216.096483 41.224932 
L 216.410137 41.262851 
L 217.46872 41.357395 
L 217.664753 41.385821 
L 220.644467 41.48979 
L 221.154155 41.499261 
L 224.918004 41.602367 
L 225.741346 41.687552 
L 228.211372 41.771705 
L 228.407406 41.800083 
L 231.38712 41.90351 
L 231.700774 41.941153 
L 233.033804 42.007056 
L 233.190631 42.054307 
L 235.856691 42.148788 
L 236.209552 42.196018 
L 239.306886 42.290181 
L 239.542127 42.346828 
L 242.796288 42.450373 
L 243.070735 42.535102 
L 245.07028 42.638859 
L 245.423141 42.686011 
L 248.206821 42.76968 
L 248.402855 42.807379 
L 251.813843 42.901406 
L 252.009877 42.929668 
L 253.107666 43.01403 
L 253.3037 43.042281 
L 259.419955 43.145532 
L 259.694402 43.230237 
L 264.830488 43.313958 
L 265.026522 43.342177 
L 267.927822 43.445407 
L 268.20227 43.558216 
L 270.829123 43.632286 
L 271.025157 43.688654 
L 272.946288 43.772166 
L 273.142322 43.809724 
L 275.298694 43.902447 
L 275.494728 43.939984 
L 277.925547 44.03369 
L 278.317614 44.108727 
L 280.748434 44.211275 
L 281.022881 44.27653 
L 283.532114 44.370241 
L 283.688941 44.417086 
L 288.393752 44.527494 
L 288.6682 44.545845 
L 289.805196 44.630091 
L 290.040436 44.686242 
L 292.471256 44.779036 
L 292.78491 44.81645 
L 297.489721 44.909576 
L 297.685755 44.937624 
L 303.057081 45.046756 
L 303.253115 45.084124 
L 305.762348 45.186729 
L 306.036795 45.205271 
L 308.467614 45.298633 
L 308.742062 45.316894 
L 310.82002 45.427505 
L 311.016054 45.464268 
L 315.093557 45.573806 
L 315.760072 45.620412 
L 318.8182 45.722213 
L 319.092647 45.740846 
L 320.425677 45.833995 
L 320.621711 45.871247 
L 322.307602 45.973086 
L 322.895703 46.00072 
L 326.267484 46.093784 
L 326.463518 46.121698 
L 327.718135 46.204978 
L 327.914169 46.232881 
L 328.972751 46.315973 
L 329.168785 46.381049 
L 333.599149 46.491201 
L 333.95201 46.537653 
L 337.166964 46.64787 
L 337.441412 46.665974 
L 340.107472 46.758804 
L 340.460332 46.805209 
L 341.244468 46.888721 
L 341.440501 46.92583 
L 342.930358 47.026574 
L 343.165599 47.06334 
L 344.498629 47.164983 
L 344.694663 47.201564 
L 347.203895 47.31192 
L 347.87041 47.35823 
L 353.516184 47.467677 
L 353.712218 47.504701 
L 359.554026 47.613215 
L 359.828473 47.631715 
L 361.906431 47.723687 
L 362.141672 47.769917 
L 364.298044 47.880322 
L 365.199799 47.981964 
L 367.944273 48.073283 
L 368.140306 48.100988 
L 370.100645 48.210715 
L 370.296678 48.247634 
L 371.551295 48.358364 
L 371.747329 48.386041 
L 374.648629 48.478278 
L 374.844663 48.533608 
L 376.491347 48.643319 
L 377.197069 48.698616 
L 379.784715 48.799038 
L 380.098369 48.835882 
L 382.646808 48.92666 
L 382.882049 48.981896 
L 386.01859 49.072228 
L 386.214624 49.099831 
L 391.311503 49.209068 
L 391.821191 49.337793 
L 392.840567 49.448087 
L 393.075807 49.521595 
L 393.271841 49.549156 
L 396.055521 49.656999 
L 396.369175 49.767161 
L 399.427303 49.85833 
L 399.623336 49.89503 
L 401.662088 50.004495 
L 402.171776 50.013665 
L 403.387186 50.105357 
L 403.583219 50.13286 
L 408.562478 50.230999 
L 408.836926 50.249324 
L 410.169955 50.359247 
L 410.48361 50.395879 
L 413.26729 50.495966 
L 413.463323 50.532581 
L 417.893688 50.641128 
L 418.128928 50.741752 
L 422.128018 50.840841 
L 422.324052 50.867621 
L 426.087901 50.977296 
L 426.283935 51.032119 
L 428.322686 51.122594 
L 428.597134 51.18652 
L 430.831919 51.258017 
L 431.027953 51.2854 
L 433.576392 51.385342 
L 433.772426 51.412713 
L 434.909422 51.522177 
L 435.41911 51.531297 
L 437.575482 51.639814 
L 437.928343 51.694507 
L 441.064884 51.775845 
L 441.260918 51.830512 
L 443.848564 51.938895 
L 444.044598 51.974396 
L 446.945898 52.073375 
L 447.181139 52.118879 
L 449.494338 52.227125 
L 449.690372 52.254413 
L 451.493883 52.361415 
L 451.689917 52.388688 
L 453.924702 52.479343 
L 454.43439 52.487955 
L 459.060788 52.576899 
L 459.256822 52.604149 
L 460.825092 52.7124 
L 461.530814 52.766871 
L 464.981009 52.857391 
L 465.255456 52.920909 
L 467.921516 53.009663 
L 468.11755 53.045201 
L 473.410463 53.144191 
L 473.68491 53.161329 
L 475.723662 53.269576 
L 476.703831 53.387086 
L 478.468135 53.476632 
L 478.703376 53.521897 
L 480.5853 53.630504 
L 481.604676 53.757166 
L 483.682634 53.865692 
L 483.957082 53.883003 
L 485.486146 53.982442 
L 485.682179 54.009556 
L 487.603311 54.098355 
L 487.838551 54.134229 
L 490.269371 54.23893 
L 491.014299 54.30133 
L 492.739397 54.409623 
L 492.93543 54.435629 
L 494.895768 54.524499 
L 495.091802 54.56057 
L 496.150385 54.641714 
L 496.385625 54.722838 
L 498.463584 54.810515 
L 498.659618 54.882577 
L 500.737576 54.979179 
L 503.442843 55.083626 
L 503.638876 55.119615 
L 508.539722 55.223968 
L 508.735755 55.259934 
L 509.04941 55.286906 
L 511.127368 55.37624 
L 511.362609 55.457117 
L 512.734845 55.537411 
L 512.930879 55.573339 
L 516.655521 55.671555 
L 517.047589 55.743374 
L 519.635235 55.841528 
L 519.909683 55.859474 
L 522.262088 55.947756 
L 522.497329 55.974664 
L 524.849735 56.070712 
L 525.163389 56.106568 
L 526.535625 56.202835 
L 526.731659 56.238672 
L 528.339137 56.346159 
L 528.652791 56.373025 
L 529.75058 56.480466 
L 530.534715 56.552072 
L 532.769501 56.641261 
L 533.043948 56.71283 
L 536.376523 56.817466 
L 536.690177 56.853227 
L 537.748759 56.853227 
L 537.748759 56.853227 
" clip-path="url(#pc2638a4073)" style="fill: none; stroke: #9467bd; stroke-width: 1.8; stroke-linecap: square"/>
   </g>
   <g id="patch_3">
    <path d="M 54.2 260.44 
L 54.2 25.44 
" style="fill: none; stroke: #000000; stroke-width: 0.8; stroke-linejoin: miter; stroke-linecap: square"/>
   </g>
   <g id="patch_4">
    <path d="M 560.774891 260.44 
L 560.774891 25.44 
" style="fill: none; stroke: #000000; stroke-width: 0.8; stroke-linejoin: miter; stroke-linecap: square"/>
   </g>
   <g id="patch_5">
    <path d="M 54.2 260.44 
L 560.774891 260.44 
" style="fill: none; stroke: #000000; stroke-width: 0.8; stroke-linejoin: miter; stroke-linecap: square"/>
   </g>
   <g id="patch_6">
    <path d="M 54.2 25.44 
L 560.774891 25.44 
" style="fill: none; stroke: #000000; stroke-width: 0.8; stroke-linejoin: miter; stroke-linecap: square"/>
   </g>
   <g id="text_18">
    <!-- Timely Transfer Rate (Cumulative) -->
    <g transform="translate(205.064633 19.44) scale(0.12 -0.12)">
     <defs>
      <path id="DejaVuSans-54" d="M -19 4666 
L 3928 4666 
L 3928 4134 
L 2272 4134 
L 2272 0 
L 1638 0 
L 1638 4134 
L -19 4134 
L -19 4666 
z
" transform="scale(0.015625)"/>
      <path id="DejaVuSans-52" d="M 2841 2188 
Q 3044 2119 3236 1894 
Q 3428 1669 3622 1275 
L 4263 0 
L 3584 0 
L 2988 1197 
Q 2756 1666 2539 1819 
Q 2322 1972 1947 1972 
L 1259 1972 
L 1259 0 
L 628 0 
L 628 4666 
L 2053 4666 
Q 2853 4666 3247 4331 
Q 3641 3997 3641 3322 
Q 3641 2881 3436 2590 
Q 3231 2300 2841 2188 
z
M 1259 4147 
L 1259 2491 
L 2053 2491 
Q 2509 2491 2742 2702 
Q 2975 2913 2975 3322 
Q 2975 3731 2742 3939 
Q 2509 4147 2053 4147 
L 1259 4147 
z
" transform="scale(0.015625)"/>
      <path id="DejaVuSans-28" d="M 1984 4856 
Q 1566 4138 1362 3434 
Q 1159 2731 1159 2009 
Q 1159 1288 1364 580 
Q 1569 -128 1984 -844 
L 1484 -844 
Q 1016 -109 783 600 
Q 550 1309 550 2009 
Q 550 2706 781 3412 
Q 1013 4119 1484 4856 
L 1984 4856 
z
" transform="scale(0.015625)"/>
      <path id="DejaVuSans-43" d="M 4122 4306 
L 4122 3641 
Q 3803 3938 3442 4084 
Q 3081 4231 2675 4231 
Q 1875 4231 1450 3742 
Q 1025 3253 1025 2328 
Q 1025 1406 1450 917 
Q 1875 428 2675 428 
Q 3081 428 3442 575 
Q 3803 722 4122 1019 
L 4122 359 
Q 3791 134 3420 21 
Q 3050 -91 2638 -91 
Q 1578 -91 968 557 
Q 359 1206 359 2328 
Q 359 3453 968 4101 
Q 1578 4750 2638 4750 
Q 3056 4750 3426 4639 
Q 3797 4528 4122 4306 
z
" transform="scale(0.015625)"/>
      <path id="DejaVuSans-29" d="M 513 4856 
L 1013 4856 
Q 1481 4119 1714 3412 
Q 1947 2706 1947 2009 
Q 1947 1309 1714 600 
Q 1481 -109 1013 -844 
L 513 -844 
Q 928 -128 1133 580 
Q 1338 1288 1338 2009 
Q 1338 2731 1133 3434 
Q 928 4138 513 4856 
z
" transform="scale(0.015625)"/>
     </defs>
     <use xlink:href="#DejaVuSans-54"/>
     <use xlink:href="#DejaVuSans-69" x="57.958984"/>
     <use xlink:href="#DejaVuSans-6d" x="85.742188"/>
     <use xlink:href="#DejaVuSans-65" x="183.154297"/>
     <use xlink:href="#DejaVuSans-6c" x="244.677734"/>
     <use xlink:href="#DejaVuSans-79" x="272.460938"/>
     <use xlink:href="#DejaVuSans-20" x="331.640625"/>
     <use xlink:href="#DejaVuSans-54" x="363.427734"/>
     <use xlink:href="#DejaVuSans-72" x="409.761719"/>
     <use xlink:href="#DejaVuSans-61" x="450.875"/>
     <use xlink:href="#DejaVuSans-6e" x="512.154297"/>
     <use xlink:href="#DejaVuSans-73" x="575.533203"/>
     <use xlink:href="#DejaVuSans-66" x="627.632812"/>
     <use xlink:href="#DejaVuSans-65" x="662.837891"/>
     <use xlink:href="#DejaVuSans-72" x="724.361328"/>
     <use xlink:href="#DejaVuSans-20" x="765.474609"/>
     <use xlink:href="#DejaVuSans-52" x="797.261719"/>
     <use xlink:href="#DejaVuSans-61" x="864.494141"/>
     <use xlink:href="#DejaVuSans-74" x="925.773438"/>
     <use xlink:href="#DejaVuSans-65" x="964.982422"/>
     <use xlink:href="#DejaVuSans-20" x="1026.505859"/>
     <use xlink:href="#DejaVuSans-28" x="1058.292969"/>
     <use xlink:href="#DejaVuSans-43" x="1097.306641"/>
     <use xlink:href="#DejaVuSans-75" x="1167.130859"/>
     <use xlink:href="#DejaVuSans-6d" x="1230.509766"/>
     <use xlink:href="#DejaVuSans-75" x="1327.921875"/>
     <use xlink:href="#DejaVuSans-6c" x="1391.300781"/>
     <use xlink:href="#DejaVuSans-61" x="1419.083984"/>
     <use xlink:href="#DejaVuSans-74" x="1480.363281"/>
     <use xlink:href="#DejaVuSans-69" x="1519.572266"/>
     <use xlink:href="#DejaVuSans-76" x="1547.355469"/>
     <use xlink:href="#DejaVuSans-65" x="1606.535156"/>
     <use xlink:href="#DejaVuSans-29" x="1668.058594"/>
    </g>
   </g>
   <g id="legend_1">
    <g id="patch_7">
     <path d="M 469.401453 255.44 
L 553.774891 255.44 
Q 555.774891 255.44 555.774891 253.44 
L 555.774891 180.493125 
Q 555.774891 178.493125 553.774891 178.493125 
L 469.401453 178.493125 
Q 467.401453 178.493125 467.401453 180.493125 
L 467.401453 253.44 
Q 467.401453 255.44 469.401453 255.44 
z
" style="fill: #ffffff; opacity: 0.8; stroke: #cccccc; stroke-linejoin: miter"/>
    </g>
    <g id="line2d_36">
     <path d="M 471.401453 186.591563 
L 481.401453 186.591563 
L 491.401453 186.591563 
" style="fill: none; stroke: #1f77b4; stroke-width: 1.8; stroke-linecap: square"/>
    </g>
    <g id="text_19">
     <!-- SHEER -->
     <g transform="translate(499.401453 190.091563) scale(0.1 -0.1)">
      <defs>
       <path id="DejaVuSans-53" d="M 3425 4513 
L 3425 3897 
Q 3066 4069 2747 4153 
Q 2428 4238 2131 4238 
Q 1616 4238 1336 4038 
Q 1056 3838 1056 3469 
Q 1056 3159 1242 3001 
Q 1428 2844 1947 2747 
L 2328 2669 
Q 3034 2534 3370 2195 
Q 3706 1856 3706 1288 
Q 3706 609 3251 259 
Q 2797 -91 1919 -91 
Q 1588 -91 1214 -16 
Q 841 59 441 206 
L 441 856 
Q 825 641 1194 531 
Q 1563 422 1919 422 
Q 2459 422 2753 634 
Q 3047 847 3047 1241 
Q 3047 1584 2836 1778 
Q 2625 1972 2144 2069 
L 1759 2144 
Q 1053 2284 737 2584 
Q 422 2884 422 3419 
Q 422 4038 858 4394 
Q 1294 4750 2059 4750 
Q 2388 4750 2728 4690 
Q 3069 4631 3425 4513 
z
" transform="scale(0.015625)"/>
       <path id="DejaVuSans-48" d="M 628 4666 
L 1259 4666 
L 1259 2753 
L 3553 2753 
L 3553 4666 
L 4184 4666 
L 4184 0 
L 3553 0 
L 3553 2222 
L 1259 2222 
L 1259 0 
L 628 0 
L 628 4666 
z
" transform="scale(0.015625)"/>
       <path id="DejaVuSans-45" d="M 628 4666 
L 3578 4666 
L 3578 4134 
L 1259 4134 
L 1259 2753 
L 3481 2753 
L 3481 2222 
L 1259 2222 
L 1259 531 
L 3634 531 
L 3634 0 
L 628 0 
L 628 4666 
z
" transform="scale(0.015625)"/>
      </defs>
      <use xlink:href="#DejaVuSans-53"/>
      <use xlink:href="#DejaVuSans-48" x="63.476562"/>
      <use xlink:href="#DejaVuSans-45" x="138.671875"/>
      <use xlink:href="#DejaVuSans-45" x="201.855469"/>
      <use xlink:href="#DejaVuSans-52" x="265.039062"/>
     </g>
    </g>
    <g id="line2d_37">
     <path d="M 471.401453 201.269688 
L 481.401453 201.269688 
L 491.401453 201.269688 
" style="fill: none; stroke: #ff7f0e; stroke-width: 1.8; stroke-linecap: square"/>
    </g>
    <g id="text_20">
     <!-- ACTAR -->
     <g transform="translate(499.401453 204.769688) scale(0.1 -0.1)">
      <defs>
       <path id="DejaVuSans-41" d="M 2188 4044 
L 1331 1722 
L 3047 1722 
L 2188 4044 
z
M 1831 4666 
L 2547 4666 
L 4325 0 
L 3669 0 
L 3244 1197 
L 1141 1197 
L 716 0 
L 50 0 
L 1831 4666 
z
" transform="scale(0.015625)"/>
      </defs>
      <use xlink:href="#DejaVuSans-41"/>
      <use xlink:href="#DejaVuSans-43" x="66.658203"/>
      <use xlink:href="#DejaVuSans-54" x="136.482422"/>
      <use xlink:href="#DejaVuSans-41" x="189.816406"/>
      <use xlink:href="#DejaVuSans-52" x="258.224609"/>
     </g>
    </g>
    <g id="line2d_38">
     <path d="M 471.401453 215.947813 
L 481.401453 215.947813 
L 491.401453 215.947813 
" style="fill: none; stroke: #2ca02c; stroke-width: 1.8; stroke-linecap: square"/>
    </g>
    <g id="text_21">
     <!-- TFSM_DPC -->
     <g transform="translate(499.401453 219.447813) scale(0.1 -0.1)">
      <defs>
       <path id="DejaVuSans-46" d="M 628 4666 
L 3309 4666 
L 3309 4134 
L 1259 4134 
L 1259 2759 
L 3109 2759 
L 3109 2228 
L 1259 2228 
L 1259 0 
L 628 0 
L 628 4666 
z
" transform="scale(0.015625)"/>
       <path id="DejaVuSans-4d" d="M 628 4666 
L 1569 4666 
L 2759 1491 
L 3956 4666 
L 4897 4666 
L 4897 0 
L 4281 0 
L 4281 4097 
L 3078 897 
L 2444 897 
L 1241 4097 
L 1241 0 
L 628 0 
L 628 4666 
z
" transform="scale(0.015625)"/>
       <path id="DejaVuSans-5f" d="M 3263 -1063 
L 3263 -1509 
L -63 -1509 
L -63 -1063 
L 3263 -1063 
z
" transform="scale(0.015625)"/>
       <path id="DejaVuSans-44" d="M 1259 4147 
L 1259 519 
L 2022 519 
Q 2988 519 3436 956 
Q 3884 1394 3884 2338 
Q 3884 3275 3436 3711 
Q 2988 4147 2022 4147 
L 1259 4147 
z
M 628 4666 
L 1925 4666 
Q 3281 4666 3915 4102 
Q 4550 3538 4550 2338 
Q 4550 1131 3912 565 
Q 3275 0 1925 0 
L 628 0 
L 628 4666 
z
" transform="scale(0.015625)"/>
       <path id="DejaVuSans-50" d="M 1259 4147 
L 1259 2394 
L 2053 2394 
Q 2494 2394 2734 2622 
Q 2975 2850 2975 3272 
Q 2975 3691 2734 3919 
Q 2494 4147 2053 4147 
L 1259 4147 
z
M 628 4666 
L 2053 4666 
Q 2838 4666 3239 4311 
Q 3641 3956 3641 3272 
Q 3641 2581 3239 2228 
Q 2838 1875 2053 1875 
L 1259 1875 
L 1259 0 
L 628 0 
L 628 4666 
z
" transform="scale(0.015625)"/>
      </defs>
      <use xlink:href="#DejaVuSans-54"/>
      <use xlink:href="#DejaVuSans-46" x="61.083984"/>
      <use xlink:href="#DejaVuSans-53" x="116.853516"/>
      <use xlink:href="#DejaVuSans-4d" x="180.330078"/>
      <use xlink:href="#DejaVuSans-5f" x="266.609375"/>
      <use xlink:href="#DejaVuSans-44" x="316.609375"/>
      <use xlink:href="#DejaVuSans-50" x="393.611328"/>
      <use xlink:href="#DejaVuSans-43" x="453.914062"/>
     </g>
    </g>
    <g id="line2d_39">
     <path d="M 471.401453 230.904063 
L 481.401453 230.904063 
L 491.401453 230.904063 
" style="fill: none; stroke: #d62728; stroke-width: 1.8; stroke-linecap: square"/>
    </g>
    <g id="text_22">
     <!-- DST_WOA -->
     <g transform="translate(499.401453 234.404063) scale(0.1 -0.1)">
      <defs>
       <path id="DejaVuSans-57" d="M 213 4666 
L 850 4666 
L 1831 722 
L 2809 4666 
L 3519 4666 
L 4500 722 
L 5478 4666 
L 6119 4666 
L 4947 0 
L 4153 0 
L 3169 4050 
L 2175 0 
L 1381 0 
L 213 4666 
z
" transform="scale(0.015625)"/>
       <path id="DejaVuSans-4f" d="M 2522 4238 
Q 1834 4238 1429 3725 
Q 1025 3213 1025 2328 
Q 1025 1447 1429 934 
Q 1834 422 2522 422 
Q 3209 422 3611 934 
Q 4013 1447 4013 2328 
Q 4013 3213 3611 3725 
Q 3209 4238 2522 4238 
z
M 2522 4750 
Q 3503 4750 4090 4092 
Q 4678 3434 4678 2328 
Q 4678 1225 4090 567 
Q 3503 -91 2522 -91 
Q 1538 -91 948 565 
Q 359 1222 359 2328 
Q 359 3434 948 4092 
Q 1538 4750 2522 4750 
z
" transform="scale(0.015625)"/>
      </defs>
      <use xlink:href="#DejaVuSans-44"/>
      <use xlink:href="#DejaVuSans-53" x="77.001953"/>
      <use xlink:href="#DejaVuSans-54" x="140.478516"/>
      <use xlink:href="#DejaVuSans-5f" x="201.5625"/>
      <use xlink:href="#DejaVuSans-57" x="251.5625"/>
      <use xlink:href="#DejaVuSans-4f" x="350.439453"/>
      <use xlink:href="#DejaVuSans-41" x="427.400391"/>
     </g>
    </g>
    <g id="line2d_40">
     <path d="M 471.401453 245.860313 
L 481.401453 245.860313 
L 491.401453 245.860313 
" style="fill: none; stroke: #9467bd; stroke-width: 1.8; stroke-linecap: square"/>
    </g>
    <g id="text_23">
     <!-- TRAIL -->
     <g transform="translate(499.401453 249.360313) scale(0.1 -0.1)">
      <defs>
       <path id="DejaVuSans-49" d="M 628 4666 
L 1259 4666 
L 1259 0 
L 628 0 
L 628 4666 
z
" transform="scale(0.015625)"/>
       <path id="DejaVuSans-4c" d="M 628 4666 
L 1259 4666 
L 1259 531 
L 3531 531 
L 3531 0 
L 628 0 
L 628 4666 
z
" transform="scale(0.015625)"/>
      </defs>
      <use xlink:href="#DejaVuSans-54"/>
      <use xlink:href="#DejaVuSans-52" x="61.083984"/>
      <use xlink:href="#DejaVuSans-41" x="126.566406"/>
      <use xlink:href="#DejaVuSans-49" x="194.974609"/>
      <use xlink:href="#DejaVuSans-4c" x="224.466797"/>
     </g>
    </g>
   </g>
  </g>
 </g>
 <defs>
  <clipPath id="pc2638a4073">
   <rect x="54.2" y="25.44" width="506.574891" height="235"/>
  </clipPath>
 </defs>
</svg>
