<?xml version="1.0" encoding="utf-8" standalone="no"?>
<!DOCTYPE svg PUBLIC "-//W3C//DTD SVG 1.1//EN"
  "http://www.w3.org/Graphics/SVG/1.1/DTD/svg11.dtd">
<svg xmlns:xlink="http://www.w3.org/1999/xlink" width="576pt" height="302.4pt" viewBox="0 0 576 302.4" xmlns="http://www.w3.org/2000/svg" version="1.1">
 <metadata>
  <rdf:RDF xmlns:dc="http://purl.org/dc/elements/1.1/" xmlns:cc="http://creativecommons.org/ns#" xmlns:rdf="http://www.w3.org/1999/02/22-rdf-syntax-ns#">
   <cc:Work>
    <dc:type rdf:resource="http://purl.org/dc/dcmitype/StillImage"/>
    <dc:date>2025-09-06T17:14:29.683329</dc:date>
    <dc:format>image/svg+xml</dc:format>
    <dc:creator>
     <cc:Agent>
      <dc:title>Matplotlib v3.9.4, https://matplotlib.org/</dc:title>
     </cc:Agent>
    </dc:creator>
   </cc:Work>
  </rdf:RDF>
 </metadata>
 <defs>
  <style type="text/css">*{stroke-linejoin: round; stroke-linecap: butt}</style>
 </defs>
 <g id="figure_1">
  <g id="patch_1">
   <path d="M 0 302.4 
L 576 302.4 
L 576 0 
L 0 0 
z
" style="fill: #ffffff"/>
  </g>
  <g id="axes_1">
   <g id="patch_2">
    <path d="M 54.2 260.44 
L 565.2 260.44 
L 565.2 25.44 
L 54.2 25.44 
z
" style="fill: #ffffff"/>
   </g>
   <g id="matplotlib.axis_1">
    <g id="xtick_1">
     <g id="line2d_1">
      <path d="M 77.363056 260.44 
L 77.363056 25.44 
" clip-path="url(#p4231d3c333)" style="fill: none; stroke-dasharray: 2.96,1.28; stroke-dashoffset: 0; stroke: #b0b0b0; stroke-opacity: 0.3; stroke-width: 0.8"/>
     </g>
     <g id="line2d_2">
      <defs>
       <path id="mf5ae98b2e6" d="M 0 0 
L 0 3.5 
" style="stroke: #000000; stroke-width: 0.8"/>
      </defs>
      <g>
       <use xlink:href="#mf5ae98b2e6" x="77.363056" y="260.44" style="stroke: #000000; stroke-width: 0.8"/>
      </g>
     </g>
     <g id="text_1">
      <!-- 0 -->
      <g transform="translate(74.181806 275.038438) scale(0.1 -0.1)">
       <defs>
        <path id="DejaVuSans-30" d="M 2034 4250 
Q 1547 4250 1301 3770 
Q 1056 3291 1056 2328 
Q 1056 1369 1301 889 
Q 1547 409 2034 409 
Q 2525 409 2770 889 
Q 3016 1369 3016 2328 
Q 3016 3291 2770 3770 
Q 2525 4250 2034 4250 
z
M 2034 4750 
Q 2819 4750 3233 4129 
Q 3647 3509 3647 2328 
Q 3647 1150 3233 529 
Q 2819 -91 2034 -91 
Q 1250 -91 836 529 
Q 422 1150 422 2328 
Q 422 3509 836 4129 
Q 1250 4750 2034 4750 
z
" transform="scale(0.015625)"/>
       </defs>
       <use xlink:href="#DejaVuSans-30"/>
      </g>
     </g>
    </g>
    <g id="xtick_2">
     <g id="line2d_3">
      <path d="M 141.580011 260.44 
L 141.580011 25.44 
" clip-path="url(#p4231d3c333)" style="fill: none; stroke-dasharray: 2.96,1.28; stroke-dashoffset: 0; stroke: #b0b0b0; stroke-opacity: 0.3; stroke-width: 0.8"/>
     </g>
     <g id="line2d_4">
      <g>
       <use xlink:href="#mf5ae98b2e6" x="141.580011" y="260.44" style="stroke: #000000; stroke-width: 0.8"/>
      </g>
     </g>
     <g id="text_2">
      <!-- 1000 -->
      <g transform="translate(128.855011 275.038438) scale(0.1 -0.1)">
       <defs>
        <path id="DejaVuSans-31" d="M 794 531 
L 1825 531 
L 1825 4091 
L 703 3866 
L 703 4441 
L 1819 4666 
L 2450 4666 
L 2450 531 
L 3481 531 
L 3481 0 
L 794 0 
L 794 531 
z
" transform="scale(0.015625)"/>
       </defs>
       <use xlink:href="#DejaVuSans-31"/>
       <use xlink:href="#DejaVuSans-30" x="63.623047"/>
       <use xlink:href="#DejaVuSans-30" x="127.246094"/>
       <use xlink:href="#DejaVuSans-30" x="190.869141"/>
      </g>
     </g>
    </g>
    <g id="xtick_3">
     <g id="line2d_5">
      <path d="M 205.796966 260.44 
L 205.796966 25.44 
" clip-path="url(#p4231d3c333)" style="fill: none; stroke-dasharray: 2.96,1.28; stroke-dashoffset: 0; stroke: #b0b0b0; stroke-opacity: 0.3; stroke-width: 0.8"/>
     </g>
     <g id="line2d_6">
      <g>
       <use xlink:href="#mf5ae98b2e6" x="205.796966" y="260.44" style="stroke: #000000; stroke-width: 0.8"/>
      </g>
     </g>
     <g id="text_3">
      <!-- 2000 -->
      <g transform="translate(193.071966 275.038438) scale(0.1 -0.1)">
       <defs>
        <path id="DejaVuSans-32" d="M 1228 531 
L 3431 531 
L 3431 0 
L 469 0 
L 469 531 
Q 828 903 1448 1529 
Q 2069 2156 2228 2338 
Q 2531 2678 2651 2914 
Q 2772 3150 2772 3378 
Q 2772 3750 2511 3984 
Q 2250 4219 1831 4219 
Q 1534 4219 1204 4116 
Q 875 4013 500 3803 
L 500 4441 
Q 881 4594 1212 4672 
Q 1544 4750 1819 4750 
Q 2544 4750 2975 4387 
Q 3406 4025 3406 3419 
Q 3406 3131 3298 2873 
Q 3191 2616 2906 2266 
Q 2828 2175 2409 1742 
Q 1991 1309 1228 531 
z
" transform="scale(0.015625)"/>
       </defs>
       <use xlink:href="#DejaVuSans-32"/>
       <use xlink:href="#DejaVuSans-30" x="63.623047"/>
       <use xlink:href="#DejaVuSans-30" x="127.246094"/>
       <use xlink:href="#DejaVuSans-30" x="190.869141"/>
      </g>
     </g>
    </g>
    <g id="xtick_4">
     <g id="line2d_7">
      <path d="M 270.013922 260.44 
L 270.013922 25.44 
" clip-path="url(#p4231d3c333)" style="fill: none; stroke-dasharray: 2.96,1.28; stroke-dashoffset: 0; stroke: #b0b0b0; stroke-opacity: 0.3; stroke-width: 0.8"/>
     </g>
     <g id="line2d_8">
      <g>
       <use xlink:href="#mf5ae98b2e6" x="270.013922" y="260.44" style="stroke: #000000; stroke-width: 0.8"/>
      </g>
     </g>
     <g id="text_4">
      <!-- 3000 -->
      <g transform="translate(257.288922 275.038438) scale(0.1 -0.1)">
       <defs>
        <path id="DejaVuSans-33" d="M 2597 2516 
Q 3050 2419 3304 2112 
Q 3559 1806 3559 1356 
Q 3559 666 3084 287 
Q 2609 -91 1734 -91 
Q 1441 -91 1130 -33 
Q 819 25 488 141 
L 488 750 
Q 750 597 1062 519 
Q 1375 441 1716 441 
Q 2309 441 2620 675 
Q 2931 909 2931 1356 
Q 2931 1769 2642 2001 
Q 2353 2234 1838 2234 
L 1294 2234 
L 1294 2753 
L 1863 2753 
Q 2328 2753 2575 2939 
Q 2822 3125 2822 3475 
Q 2822 3834 2567 4026 
Q 2313 4219 1838 4219 
Q 1578 4219 1281 4162 
Q 984 4106 628 3988 
L 628 4550 
Q 988 4650 1302 4700 
Q 1616 4750 1894 4750 
Q 2613 4750 3031 4423 
Q 3450 4097 3450 3541 
Q 3450 3153 3228 2886 
Q 3006 2619 2597 2516 
z
" transform="scale(0.015625)"/>
       </defs>
       <use xlink:href="#DejaVuSans-33"/>
       <use xlink:href="#DejaVuSans-30" x="63.623047"/>
       <use xlink:href="#DejaVuSans-30" x="127.246094"/>
       <use xlink:href="#DejaVuSans-30" x="190.869141"/>
      </g>
     </g>
    </g>
    <g id="xtick_5">
     <g id="line2d_9">
      <path d="M 334.230877 260.44 
L 334.230877 25.44 
" clip-path="url(#p4231d3c333)" style="fill: none; stroke-dasharray: 2.96,1.28; stroke-dashoffset: 0; stroke: #b0b0b0; stroke-opacity: 0.3; stroke-width: 0.8"/>
     </g>
     <g id="line2d_10">
      <g>
       <use xlink:href="#mf5ae98b2e6" x="334.230877" y="260.44" style="stroke: #000000; stroke-width: 0.8"/>
      </g>
     </g>
     <g id="text_5">
      <!-- 4000 -->
      <g transform="translate(321.505877 275.038438) scale(0.1 -0.1)">
       <defs>
        <path id="DejaVuSans-34" d="M 2419 4116 
L 825 1625 
L 2419 1625 
L 2419 4116 
z
M 2253 4666 
L 3047 4666 
L 3047 1625 
L 3713 1625 
L 3713 1100 
L 3047 1100 
L 3047 0 
L 2419 0 
L 2419 1100 
L 313 1100 
L 313 1709 
L 2253 4666 
z
" transform="scale(0.015625)"/>
       </defs>
       <use xlink:href="#DejaVuSans-34"/>
       <use xlink:href="#DejaVuSans-30" x="63.623047"/>
       <use xlink:href="#DejaVuSans-30" x="127.246094"/>
       <use xlink:href="#DejaVuSans-30" x="190.869141"/>
      </g>
     </g>
    </g>
    <g id="xtick_6">
     <g id="line2d_11">
      <path d="M 398.447832 260.44 
L 398.447832 25.44 
" clip-path="url(#p4231d3c333)" style="fill: none; stroke-dasharray: 2.96,1.28; stroke-dashoffset: 0; stroke: #b0b0b0; stroke-opacity: 0.3; stroke-width: 0.8"/>
     </g>
     <g id="line2d_12">
      <g>
       <use xlink:href="#mf5ae98b2e6" x="398.447832" y="260.44" style="stroke: #000000; stroke-width: 0.8"/>
      </g>
     </g>
     <g id="text_6">
      <!-- 5000 -->
      <g transform="translate(385.722832 275.038438) scale(0.1 -0.1)">
       <defs>
        <path id="DejaVuSans-35" d="M 691 4666 
L 3169 4666 
L 3169 4134 
L 1269 4134 
L 1269 2991 
Q 1406 3038 1543 3061 
Q 1681 3084 1819 3084 
Q 2600 3084 3056 2656 
Q 3513 2228 3513 1497 
Q 3513 744 3044 326 
Q 2575 -91 1722 -91 
Q 1428 -91 1123 -41 
Q 819 9 494 109 
L 494 744 
Q 775 591 1075 516 
Q 1375 441 1709 441 
Q 2250 441 2565 725 
Q 2881 1009 2881 1497 
Q 2881 1984 2565 2268 
Q 2250 2553 1709 2553 
Q 1456 2553 1204 2497 
Q 953 2441 691 2322 
L 691 4666 
z
" transform="scale(0.015625)"/>
       </defs>
       <use xlink:href="#DejaVuSans-35"/>
       <use xlink:href="#DejaVuSans-30" x="63.623047"/>
       <use xlink:href="#DejaVuSans-30" x="127.246094"/>
       <use xlink:href="#DejaVuSans-30" x="190.869141"/>
      </g>
     </g>
    </g>
    <g id="xtick_7">
     <g id="line2d_13">
      <path d="M 462.664787 260.44 
L 462.664787 25.44 
" clip-path="url(#p4231d3c333)" style="fill: none; stroke-dasharray: 2.96,1.28; stroke-dashoffset: 0; stroke: #b0b0b0; stroke-opacity: 0.3; stroke-width: 0.8"/>
     </g>
     <g id="line2d_14">
      <g>
       <use xlink:href="#mf5ae98b2e6" x="462.664787" y="260.44" style="stroke: #000000; stroke-width: 0.8"/>
      </g>
     </g>
     <g id="text_7">
      <!-- 6000 -->
      <g transform="translate(449.939787 275.038438) scale(0.1 -0.1)">
       <defs>
        <path id="DejaVuSans-36" d="M 2113 2584 
Q 1688 2584 1439 2293 
Q 1191 2003 1191 1497 
Q 1191 994 1439 701 
Q 1688 409 2113 409 
Q 2538 409 2786 701 
Q 3034 994 3034 1497 
Q 3034 2003 2786 2293 
Q 2538 2584 2113 2584 
z
M 3366 4563 
L 3366 3988 
Q 3128 4100 2886 4159 
Q 2644 4219 2406 4219 
Q 1781 4219 1451 3797 
Q 1122 3375 1075 2522 
Q 1259 2794 1537 2939 
Q 1816 3084 2150 3084 
Q 2853 3084 3261 2657 
Q 3669 2231 3669 1497 
Q 3669 778 3244 343 
Q 2819 -91 2113 -91 
Q 1303 -91 875 529 
Q 447 1150 447 2328 
Q 447 3434 972 4092 
Q 1497 4750 2381 4750 
Q 2619 4750 2861 4703 
Q 3103 4656 3366 4563 
z
" transform="scale(0.015625)"/>
       </defs>
       <use xlink:href="#DejaVuSans-36"/>
       <use xlink:href="#DejaVuSans-30" x="63.623047"/>
       <use xlink:href="#DejaVuSans-30" x="127.246094"/>
       <use xlink:href="#DejaVuSans-30" x="190.869141"/>
      </g>
     </g>
    </g>
    <g id="xtick_8">
     <g id="line2d_15">
      <path d="M 526.881743 260.44 
L 526.881743 25.44 
" clip-path="url(#p4231d3c333)" style="fill: none; stroke-dasharray: 2.96,1.28; stroke-dashoffset: 0; stroke: #b0b0b0; stroke-opacity: 0.3; stroke-width: 0.8"/>
     </g>
     <g id="line2d_16">
      <g>
       <use xlink:href="#mf5ae98b2e6" x="526.881743" y="260.44" style="stroke: #000000; stroke-width: 0.8"/>
      </g>
     </g>
     <g id="text_8">
      <!-- 7000 -->
      <g transform="translate(514.156743 275.038438) scale(0.1 -0.1)">
       <defs>
        <path id="DejaVuSans-37" d="M 525 4666 
L 3525 4666 
L 3525 4397 
L 1831 0 
L 1172 0 
L 2766 4134 
L 525 4134 
L 525 4666 
z
" transform="scale(0.015625)"/>
       </defs>
       <use xlink:href="#DejaVuSans-37"/>
       <use xlink:href="#DejaVuSans-30" x="63.623047"/>
       <use xlink:href="#DejaVuSans-30" x="127.246094"/>
       <use xlink:href="#DejaVuSans-30" x="190.869141"/>
      </g>
     </g>
    </g>
    <g id="text_9">
     <!-- round -->
     <g transform="translate(295.185937 288.716563) scale(0.1 -0.1)">
      <defs>
       <path id="DejaVuSans-72" d="M 2631 2963 
Q 2534 3019 2420 3045 
Q 2306 3072 2169 3072 
Q 1681 3072 1420 2755 
Q 1159 2438 1159 1844 
L 1159 0 
L 581 0 
L 581 3500 
L 1159 3500 
L 1159 2956 
Q 1341 3275 1631 3429 
Q 1922 3584 2338 3584 
Q 2397 3584 2469 3576 
Q 2541 3569 2628 3553 
L 2631 2963 
z
" transform="scale(0.015625)"/>
       <path id="DejaVuSans-6f" d="M 1959 3097 
Q 1497 3097 1228 2736 
Q 959 2375 959 1747 
Q 959 1119 1226 758 
Q 1494 397 1959 397 
Q 2419 397 2687 759 
Q 2956 1122 2956 1747 
Q 2956 2369 2687 2733 
Q 2419 3097 1959 3097 
z
M 1959 3584 
Q 2709 3584 3137 3096 
Q 3566 2609 3566 1747 
Q 3566 888 3137 398 
Q 2709 -91 1959 -91 
Q 1206 -91 779 398 
Q 353 888 353 1747 
Q 353 2609 779 3096 
Q 1206 3584 1959 3584 
z
" transform="scale(0.015625)"/>
       <path id="DejaVuSans-75" d="M 544 1381 
L 544 3500 
L 1119 3500 
L 1119 1403 
Q 1119 906 1312 657 
Q 1506 409 1894 409 
Q 2359 409 2629 706 
Q 2900 1003 2900 1516 
L 2900 3500 
L 3475 3500 
L 3475 0 
L 2900 0 
L 2900 538 
Q 2691 219 2414 64 
Q 2138 -91 1772 -91 
Q 1169 -91 856 284 
Q 544 659 544 1381 
z
M 1991 3584 
L 1991 3584 
z
" transform="scale(0.015625)"/>
       <path id="DejaVuSans-6e" d="M 3513 2113 
L 3513 0 
L 2938 0 
L 2938 2094 
Q 2938 2591 2744 2837 
Q 2550 3084 2163 3084 
Q 1697 3084 1428 2787 
Q 1159 2491 1159 1978 
L 1159 0 
L 581 0 
L 581 3500 
L 1159 3500 
L 1159 2956 
Q 1366 3272 1645 3428 
Q 1925 3584 2291 3584 
Q 2894 3584 3203 3211 
Q 3513 2838 3513 2113 
z
" transform="scale(0.015625)"/>
       <path id="DejaVuSans-64" d="M 2906 2969 
L 2906 4863 
L 3481 4863 
L 3481 0 
L 2906 0 
L 2906 525 
Q 2725 213 2448 61 
Q 2172 -91 1784 -91 
Q 1150 -91 751 415 
Q 353 922 353 1747 
Q 353 2572 751 3078 
Q 1150 3584 1784 3584 
Q 2172 3584 2448 3432 
Q 2725 3281 2906 2969 
z
M 947 1747 
Q 947 1113 1208 752 
Q 1469 391 1925 391 
Q 2381 391 2643 752 
Q 2906 1113 2906 1747 
Q 2906 2381 2643 2742 
Q 2381 3103 1925 3103 
Q 1469 3103 1208 2742 
Q 947 2381 947 1747 
z
" transform="scale(0.015625)"/>
      </defs>
      <use xlink:href="#DejaVuSans-72"/>
      <use xlink:href="#DejaVuSans-6f" x="38.863281"/>
      <use xlink:href="#DejaVuSans-75" x="100.044922"/>
      <use xlink:href="#DejaVuSans-6e" x="163.423828"/>
      <use xlink:href="#DejaVuSans-64" x="226.802734"/>
     </g>
    </g>
   </g>
   <g id="matplotlib.axis_2">
    <g id="ytick_1">
     <g id="line2d_17">
      <path d="M 54.2 254.030909 
L 565.2 254.030909 
" clip-path="url(#p4231d3c333)" style="fill: none; stroke-dasharray: 2.96,1.28; stroke-dashoffset: 0; stroke: #b0b0b0; stroke-opacity: 0.3; stroke-width: 0.8"/>
     </g>
     <g id="line2d_18">
      <defs>
       <path id="mff775854b8" d="M 0 0 
L -3.5 0 
" style="stroke: #000000; stroke-width: 0.8"/>
      </defs>
      <g>
       <use xlink:href="#mff775854b8" x="54.2" y="254.030909" style="stroke: #000000; stroke-width: 0.8"/>
      </g>
     </g>
     <g id="text_10">
      <!-- 0.88 -->
      <g transform="translate(24.934375 257.830128) scale(0.1 -0.1)">
       <defs>
        <path id="DejaVuSans-2e" d="M 684 794 
L 1344 794 
L 1344 0 
L 684 0 
L 684 794 
z
" transform="scale(0.015625)"/>
        <path id="DejaVuSans-38" d="M 2034 2216 
Q 1584 2216 1326 1975 
Q 1069 1734 1069 1313 
Q 1069 891 1326 650 
Q 1584 409 2034 409 
Q 2484 409 2743 651 
Q 3003 894 3003 1313 
Q 3003 1734 2745 1975 
Q 2488 2216 2034 2216 
z
M 1403 2484 
Q 997 2584 770 2862 
Q 544 3141 544 3541 
Q 544 4100 942 4425 
Q 1341 4750 2034 4750 
Q 2731 4750 3128 4425 
Q 3525 4100 3525 3541 
Q 3525 3141 3298 2862 
Q 3072 2584 2669 2484 
Q 3125 2378 3379 2068 
Q 3634 1759 3634 1313 
Q 3634 634 3220 271 
Q 2806 -91 2034 -91 
Q 1263 -91 848 271 
Q 434 634 434 1313 
Q 434 1759 690 2068 
Q 947 2378 1403 2484 
z
M 1172 3481 
Q 1172 3119 1398 2916 
Q 1625 2713 2034 2713 
Q 2441 2713 2670 2916 
Q 2900 3119 2900 3481 
Q 2900 3844 2670 4047 
Q 2441 4250 2034 4250 
Q 1625 4250 1398 4047 
Q 1172 3844 1172 3481 
z
" transform="scale(0.015625)"/>
       </defs>
       <use xlink:href="#DejaVuSans-30"/>
       <use xlink:href="#DejaVuSans-2e" x="63.623047"/>
       <use xlink:href="#DejaVuSans-38" x="95.410156"/>
       <use xlink:href="#DejaVuSans-38" x="159.033203"/>
      </g>
     </g>
    </g>
    <g id="ytick_2">
     <g id="line2d_19">
      <path d="M 54.2 217.712727 
L 565.2 217.712727 
" clip-path="url(#p4231d3c333)" style="fill: none; stroke-dasharray: 2.96,1.28; stroke-dashoffset: 0; stroke: #b0b0b0; stroke-opacity: 0.3; stroke-width: 0.8"/>
     </g>
     <g id="line2d_20">
      <g>
       <use xlink:href="#mff775854b8" x="54.2" y="217.712727" style="stroke: #000000; stroke-width: 0.8"/>
      </g>
     </g>
     <g id="text_11">
      <!-- 0.90 -->
      <g transform="translate(24.934375 221.511946) scale(0.1 -0.1)">
       <defs>
        <path id="DejaVuSans-39" d="M 703 97 
L 703 672 
Q 941 559 1184 500 
Q 1428 441 1663 441 
Q 2288 441 2617 861 
Q 2947 1281 2994 2138 
Q 2813 1869 2534 1725 
Q 2256 1581 1919 1581 
Q 1219 1581 811 2004 
Q 403 2428 403 3163 
Q 403 3881 828 4315 
Q 1253 4750 1959 4750 
Q 2769 4750 3195 4129 
Q 3622 3509 3622 2328 
Q 3622 1225 3098 567 
Q 2575 -91 1691 -91 
Q 1453 -91 1209 -44 
Q 966 3 703 97 
z
M 1959 2075 
Q 2384 2075 2632 2365 
Q 2881 2656 2881 3163 
Q 2881 3666 2632 3958 
Q 2384 4250 1959 4250 
Q 1534 4250 1286 3958 
Q 1038 3666 1038 3163 
Q 1038 2656 1286 2365 
Q 1534 2075 1959 2075 
z
" transform="scale(0.015625)"/>
       </defs>
       <use xlink:href="#DejaVuSans-30"/>
       <use xlink:href="#DejaVuSans-2e" x="63.623047"/>
       <use xlink:href="#DejaVuSans-39" x="95.410156"/>
       <use xlink:href="#DejaVuSans-30" x="159.033203"/>
      </g>
     </g>
    </g>
    <g id="ytick_3">
     <g id="line2d_21">
      <path d="M 54.2 181.394545 
L 565.2 181.394545 
" clip-path="url(#p4231d3c333)" style="fill: none; stroke-dasharray: 2.96,1.28; stroke-dashoffset: 0; stroke: #b0b0b0; stroke-opacity: 0.3; stroke-width: 0.8"/>
     </g>
     <g id="line2d_22">
      <g>
       <use xlink:href="#mff775854b8" x="54.2" y="181.394545" style="stroke: #000000; stroke-width: 0.8"/>
      </g>
     </g>
     <g id="text_12">
      <!-- 0.92 -->
      <g transform="translate(24.934375 185.193764) scale(0.1 -0.1)">
       <use xlink:href="#DejaVuSans-30"/>
       <use xlink:href="#DejaVuSans-2e" x="63.623047"/>
       <use xlink:href="#DejaVuSans-39" x="95.410156"/>
       <use xlink:href="#DejaVuSans-32" x="159.033203"/>
      </g>
     </g>
    </g>
    <g id="ytick_4">
     <g id="line2d_23">
      <path d="M 54.2 145.076364 
L 565.2 145.076364 
" clip-path="url(#p4231d3c333)" style="fill: none; stroke-dasharray: 2.96,1.28; stroke-dashoffset: 0; stroke: #b0b0b0; stroke-opacity: 0.3; stroke-width: 0.8"/>
     </g>
     <g id="line2d_24">
      <g>
       <use xlink:href="#mff775854b8" x="54.2" y="145.076364" style="stroke: #000000; stroke-width: 0.8"/>
      </g>
     </g>
     <g id="text_13">
      <!-- 0.94 -->
      <g transform="translate(24.934375 148.875582) scale(0.1 -0.1)">
       <use xlink:href="#DejaVuSans-30"/>
       <use xlink:href="#DejaVuSans-2e" x="63.623047"/>
       <use xlink:href="#DejaVuSans-39" x="95.410156"/>
       <use xlink:href="#DejaVuSans-34" x="159.033203"/>
      </g>
     </g>
    </g>
    <g id="ytick_5">
     <g id="line2d_25">
      <path d="M 54.2 108.758182 
L 565.2 108.758182 
" clip-path="url(#p4231d3c333)" style="fill: none; stroke-dasharray: 2.96,1.28; stroke-dashoffset: 0; stroke: #b0b0b0; stroke-opacity: 0.3; stroke-width: 0.8"/>
     </g>
     <g id="line2d_26">
      <g>
       <use xlink:href="#mff775854b8" x="54.2" y="108.758182" style="stroke: #000000; stroke-width: 0.8"/>
      </g>
     </g>
     <g id="text_14">
      <!-- 0.96 -->
      <g transform="translate(24.934375 112.557401) scale(0.1 -0.1)">
       <use xlink:href="#DejaVuSans-30"/>
       <use xlink:href="#DejaVuSans-2e" x="63.623047"/>
       <use xlink:href="#DejaVuSans-39" x="95.410156"/>
       <use xlink:href="#DejaVuSans-36" x="159.033203"/>
      </g>
     </g>
    </g>
    <g id="ytick_6">
     <g id="line2d_27">
      <path d="M 54.2 72.44 
L 565.2 72.44 
" clip-path="url(#p4231d3c333)" style="fill: none; stroke-dasharray: 2.96,1.28; stroke-dashoffset: 0; stroke: #b0b0b0; stroke-opacity: 0.3; stroke-width: 0.8"/>
     </g>
     <g id="line2d_28">
      <g>
       <use xlink:href="#mff775854b8" x="54.2" y="72.44" style="stroke: #000000; stroke-width: 0.8"/>
      </g>
     </g>
     <g id="text_15">
      <!-- 0.98 -->
      <g transform="translate(24.934375 76.239219) scale(0.1 -0.1)">
       <use xlink:href="#DejaVuSans-30"/>
       <use xlink:href="#DejaVuSans-2e" x="63.623047"/>
       <use xlink:href="#DejaVuSans-39" x="95.410156"/>
       <use xlink:href="#DejaVuSans-38" x="159.033203"/>
      </g>
     </g>
    </g>
    <g id="ytick_7">
     <g id="line2d_29">
      <path d="M 54.2 36.121818 
L 565.2 36.121818 
" clip-path="url(#p4231d3c333)" style="fill: none; stroke-dasharray: 2.96,1.28; stroke-dashoffset: 0; stroke: #b0b0b0; stroke-opacity: 0.3; stroke-width: 0.8"/>
     </g>
     <g id="line2d_30">
      <g>
       <use xlink:href="#mff775854b8" x="54.2" y="36.121818" style="stroke: #000000; stroke-width: 0.8"/>
      </g>
     </g>
     <g id="text_16">
      <!-- 1.00 -->
      <g transform="translate(24.934375 39.921037) scale(0.1 -0.1)">
       <use xlink:href="#DejaVuSans-31"/>
       <use xlink:href="#DejaVuSans-2e" x="63.623047"/>
       <use xlink:href="#DejaVuSans-30" x="95.410156"/>
       <use xlink:href="#DejaVuSans-30" x="159.033203"/>
      </g>
     </g>
    </g>
    <g id="text_17">
     <!-- cumulative timely transfer rate -->
     <g transform="translate(18.854688 221.048594) rotate(-90) scale(0.1 -0.1)">
      <defs>
       <path id="DejaVuSans-63" d="M 3122 3366 
L 3122 2828 
Q 2878 2963 2633 3030 
Q 2388 3097 2138 3097 
Q 1578 3097 1268 2742 
Q 959 2388 959 1747 
Q 959 1106 1268 751 
Q 1578 397 2138 397 
Q 2388 397 2633 464 
Q 2878 531 3122 666 
L 3122 134 
Q 2881 22 2623 -34 
Q 2366 -91 2075 -91 
Q 1284 -91 818 406 
Q 353 903 353 1747 
Q 353 2603 823 3093 
Q 1294 3584 2113 3584 
Q 2378 3584 2631 3529 
Q 2884 3475 3122 3366 
z
" transform="scale(0.015625)"/>
       <path id="DejaVuSans-6d" d="M 3328 2828 
Q 3544 3216 3844 3400 
Q 4144 3584 4550 3584 
Q 5097 3584 5394 3201 
Q 5691 2819 5691 2113 
L 5691 0 
L 5113 0 
L 5113 2094 
Q 5113 2597 4934 2840 
Q 4756 3084 4391 3084 
Q 3944 3084 3684 2787 
Q 3425 2491 3425 1978 
L 3425 0 
L 2847 0 
L 2847 2094 
Q 2847 2600 2669 2842 
Q 2491 3084 2119 3084 
Q 1678 3084 1418 2786 
Q 1159 2488 1159 1978 
L 1159 0 
L 581 0 
L 581 3500 
L 1159 3500 
L 1159 2956 
Q 1356 3278 1631 3431 
Q 1906 3584 2284 3584 
Q 2666 3584 2933 3390 
Q 3200 3197 3328 2828 
z
" transform="scale(0.015625)"/>
       <path id="DejaVuSans-6c" d="M 603 4863 
L 1178 4863 
L 1178 0 
L 603 0 
L 603 4863 
z
" transform="scale(0.015625)"/>
       <path id="DejaVuSans-61" d="M 2194 1759 
Q 1497 1759 1228 1600 
Q 959 1441 959 1056 
Q 959 750 1161 570 
Q 1363 391 1709 391 
Q 2188 391 2477 730 
Q 2766 1069 2766 1631 
L 2766 1759 
L 2194 1759 
z
M 3341 1997 
L 3341 0 
L 2766 0 
L 2766 531 
Q 2569 213 2275 61 
Q 1981 -91 1556 -91 
Q 1019 -91 701 211 
Q 384 513 384 1019 
Q 384 1609 779 1909 
Q 1175 2209 1959 2209 
L 2766 2209 
L 2766 2266 
Q 2766 2663 2505 2880 
Q 2244 3097 1772 3097 
Q 1472 3097 1187 3025 
Q 903 2953 641 2809 
L 641 3341 
Q 956 3463 1253 3523 
Q 1550 3584 1831 3584 
Q 2591 3584 2966 3190 
Q 3341 2797 3341 1997 
z
" transform="scale(0.015625)"/>
       <path id="DejaVuSans-74" d="M 1172 4494 
L 1172 3500 
L 2356 3500 
L 2356 3053 
L 1172 3053 
L 1172 1153 
Q 1172 725 1289 603 
Q 1406 481 1766 481 
L 2356 481 
L 2356 0 
L 1766 0 
Q 1100 0 847 248 
Q 594 497 594 1153 
L 594 3053 
L 172 3053 
L 172 3500 
L 594 3500 
L 594 4494 
L 1172 4494 
z
" transform="scale(0.015625)"/>
       <path id="DejaVuSans-69" d="M 603 3500 
L 1178 3500 
L 1178 0 
L 603 0 
L 603 3500 
z
M 603 4863 
L 1178 4863 
L 1178 4134 
L 603 4134 
L 603 4863 
z
" transform="scale(0.015625)"/>
       <path id="DejaVuSans-76" d="M 191 3500 
L 800 3500 
L 1894 563 
L 2988 3500 
L 3597 3500 
L 2284 0 
L 1503 0 
L 191 3500 
z
" transform="scale(0.015625)"/>
       <path id="DejaVuSans-65" d="M 3597 1894 
L 3597 1613 
L 953 1613 
Q 991 1019 1311 708 
Q 1631 397 2203 397 
Q 2534 397 2845 478 
Q 3156 559 3463 722 
L 3463 178 
Q 3153 47 2828 -22 
Q 2503 -91 2169 -91 
Q 1331 -91 842 396 
Q 353 884 353 1716 
Q 353 2575 817 3079 
Q 1281 3584 2069 3584 
Q 2775 3584 3186 3129 
Q 3597 2675 3597 1894 
z
M 3022 2063 
Q 3016 2534 2758 2815 
Q 2500 3097 2075 3097 
Q 1594 3097 1305 2825 
Q 1016 2553 972 2059 
L 3022 2063 
z
" transform="scale(0.015625)"/>
       <path id="DejaVuSans-20" transform="scale(0.015625)"/>
       <path id="DejaVuSans-79" d="M 2059 -325 
Q 1816 -950 1584 -1140 
Q 1353 -1331 966 -1331 
L 506 -1331 
L 506 -850 
L 844 -850 
Q 1081 -850 1212 -737 
Q 1344 -625 1503 -206 
L 1606 56 
L 191 3500 
L 800 3500 
L 1894 763 
L 2988 3500 
L 3597 3500 
L 2059 -325 
z
" transform="scale(0.015625)"/>
       <path id="DejaVuSans-73" d="M 2834 3397 
L 2834 2853 
Q 2591 2978 2328 3040 
Q 2066 3103 1784 3103 
Q 1356 3103 1142 2972 
Q 928 2841 928 2578 
Q 928 2378 1081 2264 
Q 1234 2150 1697 2047 
L 1894 2003 
Q 2506 1872 2764 1633 
Q 3022 1394 3022 966 
Q 3022 478 2636 193 
Q 2250 -91 1575 -91 
Q 1294 -91 989 -36 
Q 684 19 347 128 
L 347 722 
Q 666 556 975 473 
Q 1284 391 1588 391 
Q 1994 391 2212 530 
Q 2431 669 2431 922 
Q 2431 1156 2273 1281 
Q 2116 1406 1581 1522 
L 1381 1569 
Q 847 1681 609 1914 
Q 372 2147 372 2553 
Q 372 3047 722 3315 
Q 1072 3584 1716 3584 
Q 2034 3584 2315 3537 
Q 2597 3491 2834 3397 
z
" transform="scale(0.015625)"/>
       <path id="DejaVuSans-66" d="M 2375 4863 
L 2375 4384 
L 1825 4384 
Q 1516 4384 1395 4259 
Q 1275 4134 1275 3809 
L 1275 3500 
L 2222 3500 
L 2222 3053 
L 1275 3053 
L 1275 0 
L 697 0 
L 697 3053 
L 147 3053 
L 147 3500 
L 697 3500 
L 697 3744 
Q 697 4328 969 4595 
Q 1241 4863 1831 4863 
L 2375 4863 
z
" transform="scale(0.015625)"/>
      </defs>
      <use xlink:href="#DejaVuSans-63"/>
      <use xlink:href="#DejaVuSans-75" x="54.980469"/>
      <use xlink:href="#DejaVuSans-6d" x="118.359375"/>
      <use xlink:href="#DejaVuSans-75" x="215.771484"/>
      <use xlink:href="#DejaVuSans-6c" x="279.150391"/>
      <use xlink:href="#DejaVuSans-61" x="306.933594"/>
      <use xlink:href="#DejaVuSans-74" x="368.212891"/>
      <use xlink:href="#DejaVuSans-69" x="407.421875"/>
      <use xlink:href="#DejaVuSans-76" x="435.205078"/>
      <use xlink:href="#DejaVuSans-65" x="494.384766"/>
      <use xlink:href="#DejaVuSans-20" x="555.908203"/>
      <use xlink:href="#DejaVuSans-74" x="587.695312"/>
      <use xlink:href="#DejaVuSans-69" x="626.904297"/>
      <use xlink:href="#DejaVuSans-6d" x="654.6875"/>
      <use xlink:href="#DejaVuSans-65" x="752.099609"/>
      <use xlink:href="#DejaVuSans-6c" x="813.623047"/>
      <use xlink:href="#DejaVuSans-79" x="841.40625"/>
      <use xlink:href="#DejaVuSans-20" x="900.585938"/>
      <use xlink:href="#DejaVuSans-74" x="932.373047"/>
      <use xlink:href="#DejaVuSans-72" x="971.582031"/>
      <use xlink:href="#DejaVuSans-61" x="1012.695312"/>
      <use xlink:href="#DejaVuSans-6e" x="1073.974609"/>
      <use xlink:href="#DejaVuSans-73" x="1137.353516"/>
      <use xlink:href="#DejaVuSans-66" x="1189.453125"/>
      <use xlink:href="#DejaVuSans-65" x="1224.658203"/>
      <use xlink:href="#DejaVuSans-72" x="1286.181641"/>
      <use xlink:href="#DejaVuSans-20" x="1327.294922"/>
      <use xlink:href="#DejaVuSans-72" x="1359.082031"/>
      <use xlink:href="#DejaVuSans-61" x="1400.195312"/>
      <use xlink:href="#DejaVuSans-74" x="1461.474609"/>
      <use xlink:href="#DejaVuSans-65" x="1500.683594"/>
     </g>
    </g>
   </g>
   <g id="line2d_31">
    <path d="M 77.427273 36.121818 
L 80.509687 36.121818 
L 80.573904 55.44 
L 80.63812 55.179335 
L 81.151856 53.322581 
L 81.216073 73.352759 
L 81.28029 72.914747 
L 81.344507 72.557535 
L 81.601375 114.166337 
L 81.986677 109.711741 
L 82.050894 119.776057 
L 82.11511 118.98467 
L 82.371978 114.492632 
L 82.436195 128.424251 
L 82.500412 127.196071 
L 82.628846 125.369105 
L 82.821497 122.258842 
L 83.014148 134.738604 
L 83.078365 133.95993 
L 83.142582 140.292831 
L 83.206799 139.439359 
L 83.271016 138.599758 
L 83.463667 156.443606 
L 83.527883 155.610209 
L 83.848968 150.084734 
L 83.913185 155.501714 
L 83.977402 154.199913 
L 84.683789 141.325619 
L 84.87644 158.364739 
L 85.133307 154.604054 
L 85.197524 163.490191 
L 85.261741 162.687005 
L 85.582826 157.722873 
L 86.417646 143.270149 
L 86.54608 141.610313 
L 86.674514 152.676932 
L 86.995599 146.995693 
L 87.18825 165.9901 
L 87.252467 165.033075 
L 87.766203 156.377943 
L 87.830419 155.52972 
L 88.087287 167.401999 
L 88.472589 160.571919 
L 88.857891 154.699995 
L 88.922108 160.788688 
L 88.986325 160.07952 
L 89.564277 152.736759 
L 91.105484 135.016398 
L 91.426569 130.48293 
L 92.132955 122.111254 
L 92.197172 126.02074 
L 92.261389 125.45283 
L 93.481512 112.139515 
L 94.5732 103.747248 
L 94.830068 102.089335 
L 95.086935 100.485824 
L 95.151152 103.584851 
L 95.215369 103.178253 
L 95.600671 101.362037 
L 95.664888 104.186897 
L 95.729105 103.917097 
L 95.985973 102.756156 
L 96.05019 106.814143 
L 96.114407 106.415073 
L 96.307058 105.031931 
L 96.371275 106.861224 
L 96.435491 106.608803 
L 96.563925 106.018725 
L 96.692359 108.783023 
L 96.756576 108.523033 
L 97.077661 106.795037 
L 97.719831 103.128477 
L 97.784048 104.606393 
L 97.848265 104.301685 
L 98.040915 103.512627 
L 98.233566 111.202808 
L 98.297783 110.974823 
L 98.362 114.305078 
L 98.426217 114.063699 
L 98.554651 113.567997 
L 98.618868 113.94456 
L 98.683085 113.678657 
L 100.738027 102.670431 
L 100.802244 102.429542 
L 100.930678 105.363405 
L 100.994895 105.055953 
L 101.572848 102.315478 
L 101.637065 102.492606 
L 101.701282 102.888752 
L 101.829716 110.216485 
L 101.893933 110.096569 
L 101.95815 110.497158 
L 102.022367 110.270908 
L 102.215017 109.332963 
L 102.279234 110.00383 
L 102.343451 109.639984 
L 104.077309 102.139596 
L 104.141526 103.842827 
L 104.205743 103.624975 
L 104.26996 103.435929 
L 104.334177 104.125112 
L 104.398394 103.898125 
L 104.462611 103.631813 
L 104.719479 107.531947 
L 104.847913 107.066964 
L 104.91213 108.115856 
L 104.976347 107.830501 
L 106.260686 102.530421 
L 106.38912 103.668468 
L 106.453337 103.474351 
L 106.58177 103.24576 
L 106.774421 104.648202 
L 106.902855 104.230358 
L 107.095506 106.873576 
L 108.315628 103.045377 
L 108.444062 105.120862 
L 108.572496 104.733179 
L 109.3431 102.524464 
L 110.049486 100.413397 
L 110.17792 101.906162 
L 110.242137 101.786847 
L 110.563222 101.13828 
L 110.627439 103.340066 
L 110.691656 103.214888 
L 110.755873 103.142497 
L 110.820089 103.659805 
L 110.884306 103.504735 
L 111.076957 103.019164 
L 111.141174 104.056066 
L 111.205391 103.911859 
L 111.783344 102.600437 
L 111.911778 104.650359 
L 111.975995 104.489259 
L 112.040212 104.374998 
L 112.232862 106.452713 
L 112.297079 106.264504 
L 112.48973 105.842253 
L 112.618164 108.145537 
L 112.682381 108.005238 
L 112.746598 107.895385 
L 113.196117 112.072862 
L 113.452985 111.514113 
L 113.581419 113.875257 
L 113.645636 113.756819 
L 113.838286 113.315221 
L 113.902503 113.646113 
L 113.96672 113.505863 
L 114.223588 112.962682 
L 114.287805 114.369337 
L 114.352022 114.185341 
L 114.544673 113.799448 
L 114.673107 115.437114 
L 114.737324 115.2657 
L 115.251059 114.058585 
L 115.315276 114.423505 
L 115.379493 114.28004 
L 116.021663 112.617831 
L 116.406965 111.617899 
L 116.535398 113.772314 
L 116.599615 113.623636 
L 116.984917 112.729357 
L 117.049134 113.831134 
L 117.113351 113.703533 
L 117.498653 112.828841 
L 117.56287 113.212555 
L 117.627087 113.074032 
L 117.755521 112.777885 
L 117.883955 113.866337 
L 117.948172 113.714186 
L 118.39769 112.502477 
L 118.461907 112.595623 
L 118.526124 112.723311 
L 118.590341 112.55012 
L 118.782992 113.324387 
L 119.682029 111.125764 
L 119.746246 112.072196 
L 119.810463 111.92606 
L 119.938897 111.620788 
L 120.003114 112.061482 
L 120.067331 111.895587 
L 120.645284 110.709624 
L 120.709501 111.686049 
L 120.773718 111.5938 
L 121.415887 109.955326 
L 121.608538 111.316828 
L 121.672755 112.455128 
L 121.736972 112.30846 
L 122.764443 110.502407 
L 123.021311 111.921513 
L 123.149745 111.615807 
L 123.213962 112.244654 
L 123.278179 112.117609 
L 123.856131 110.849658 
L 123.920348 111.397799 
L 123.984565 111.261643 
L 124.241433 110.793545 
L 124.30565 111.503892 
L 124.369867 111.392892 
L 124.498301 111.164525 
L 124.562518 112.058222 
L 124.626735 111.908278 
L 124.755169 111.624826 
L 124.819386 112.683567 
L 124.883603 112.566804 
L 125.78264 110.953709 
L 125.846857 111.500472 
L 125.911074 111.393771 
L 126.039508 111.147738 
L 126.103725 111.601683 
L 126.167942 111.499016 
L 126.232159 111.373717 
L 126.296376 112.119042 
L 126.360593 111.97539 
L 126.553244 111.768849 
L 127.066979 110.864334 
L 127.131196 111.595318 
L 127.195413 111.484564 
L 127.323847 111.257158 
L 127.388064 112.243971 
L 127.452281 112.153751 
L 127.516498 112.044731 
L 127.580715 112.744022 
L 127.644932 112.655333 
L 127.966017 112.18577 
L 128.030233 112.655639 
L 128.09445 112.509379 
L 128.415535 111.967115 
L 128.479752 112.425622 
L 128.543969 112.294875 
L 128.608186 112.161196 
L 128.73662 113.091656 
L 128.800837 113.011626 
L 129.186139 112.26707 
L 129.250356 112.789914 
L 129.314573 112.680996 
L 130.020959 111.350833 
L 130.406261 110.689441 
L 130.470478 111.017403 
L 130.534695 110.89976 
L 130.598912 110.807812 
L 130.663129 111.238493 
L 130.727346 111.103568 
L 131.112647 110.526531 
L 131.369515 110.130795 
L 131.6906 109.560976 
L 131.754817 109.9832 
L 131.819034 109.887151 
L 132.075902 109.478328 
L 132.268553 110.073875 
L 132.589637 109.566367 
L 132.653854 109.871609 
L 132.718071 109.790947 
L 133.16759 109.024606 
L 133.231807 109.339563 
L 133.296024 109.245918 
L 133.360241 109.197725 
L 133.424458 110.079422 
L 133.488675 109.995438 
L 133.617109 109.797287 
L 133.745543 110.943448 
L 133.809759 110.825006 
L 133.938193 110.625982 
L 134.00241 110.997288 
L 134.066627 110.872056 
L 134.451929 110.340472 
L 134.901448 109.797733 
L 134.965665 110.116567 
L 135.029882 110.000836 
L 135.094099 110.041797 
L 135.350966 109.79059 
L 136.057353 108.858603 
L 136.12157 109.026162 
L 136.185787 109.673461 
L 136.250004 109.583252 
L 136.442655 109.305696 
L 136.506872 109.446775 
L 136.571089 109.378016 
L 136.699522 109.236777 
L 136.763739 109.593395 
L 136.827956 109.478186 
L 136.892173 109.389284 
L 136.95639 109.954109 
L 137.020607 109.874438 
L 137.534343 109.10051 
L 137.59856 109.431495 
L 137.662777 109.362795 
L 137.855428 109.098629 
L 137.919645 109.438218 
L 137.983862 109.376601 
L 138.176512 109.067408 
L 138.304946 109.566102 
L 138.754465 108.924102 
L 138.947116 110.281066 
L 139.781936 109.244597 
L 139.846153 109.56568 
L 139.91037 109.486709 
L 140.231455 109.066254 
L 140.295672 109.873356 
L 140.359889 109.795971 
L 140.745191 109.303257 
L 140.809408 109.547269 
L 140.873625 109.467081 
L 141.002058 109.302166 
L 141.066275 110.09203 
L 141.130492 110.039675 
L 141.451577 109.590705 
L 141.515794 110.137653 
L 141.580011 110.069209 
L 142.222181 109.319632 
L 142.350615 110.258106 
L 142.414831 110.171694 
L 142.992784 109.454447 
L 143.057001 109.714738 
L 143.121218 109.629973 
L 144.084472 108.503875 
L 144.533991 108.104762 
L 144.598208 108.227531 
L 144.662425 108.14297 
L 144.790859 108.004813 
L 144.855076 108.510498 
L 144.919293 108.434175 
L 145.368811 107.926361 
L 145.433028 108.162227 
L 145.497245 108.890063 
L 145.561462 108.824646 
L 145.946764 108.471568 
L 146.588934 107.789207 
L 146.653151 108.674379 
L 146.717367 108.605645 
L 146.910018 108.399083 
L 146.974235 108.75247 
L 147.038452 108.677153 
L 147.873273 107.796506 
L 148.001707 108.306011 
L 148.065924 108.250164 
L 148.77231 107.419442 
L 148.836527 107.853557 
L 148.900744 107.800981 
L 148.964961 107.737554 
L 149.029178 107.951345 
L 149.093395 107.875905 
L 149.350263 107.627749 
L 150.120866 106.832965 
L 150.185083 106.789504 
L 150.2493 107.014552 
L 150.313517 106.925488 
L 151.276771 105.944903 
L 151.405205 106.627256 
L 151.469422 106.557824 
L 151.533639 106.487496 
L 151.597856 106.643594 
L 151.662073 106.587787 
L 151.918941 106.310075 
L 152.111592 106.8252 
L 152.432677 106.496514 
L 152.496893 106.817275 
L 152.56111 106.743713 
L 152.689544 106.633656 
L 152.753761 106.953109 
L 152.817978 106.881711 
L 153.074846 106.662301 
L 153.139063 107.045389 
L 153.20328 106.985421 
L 153.395931 106.78087 
L 153.460148 107.356304 
L 153.524365 107.285193 
L 154.294968 106.475527 
L 154.359185 106.938283 
L 154.423402 106.880483 
L 154.68027 106.592895 
L 154.744487 106.949111 
L 154.808704 106.872842 
L 154.872921 106.822417 
L 154.937138 107.01933 
L 155.001355 106.962965 
L 155.322439 106.625673 
L 155.386656 106.88068 
L 155.450873 106.811083 
L 155.51509 106.753352 
L 155.707741 107.396883 
L 155.771958 107.330009 
L 155.836175 107.711866 
L 155.900392 107.656646 
L 156.349911 107.193608 
L 156.414128 107.355353 
L 156.478345 107.298927 
L 156.735213 107.026815 
L 156.799429 107.351361 
L 156.863646 107.289455 
L 156.927863 107.218011 
L 156.99208 107.521667 
L 157.056297 107.457854 
L 157.377382 107.129963 
L 157.441599 107.4356 
L 157.505816 107.358848 
L 157.891118 107.000317 
L 158.725938 106.20296 
L 158.918589 106.747297 
L 159.368108 106.617933 
L 160.459796 106.611431 
L 160.716664 106.70156 
L 302.764569 106.770543 
L 302.764569 106.770543 
" clip-path="url(#p4231d3c333)" style="fill: none; stroke: #1f77b4; stroke-width: 1.8; stroke-linecap: square"/>
   </g>
   <g id="line2d_32">
    <path d="M 77.427273 240.411591 
L 77.49149 247.792203 
L 77.619924 144.279413 
L 77.748358 249.758182 
L 77.812574 217.088704 
L 78.133659 143.923996 
L 78.197876 151.958421 
L 78.262093 142.94 
L 78.32631 151.533579 
L 78.390527 144.472889 
L 78.454744 154.071659 
L 78.518961 147.100816 
L 78.583178 147.299926 
L 78.775829 132.54177 
L 78.840046 140.218518 
L 78.904263 135.573229 
L 78.96848 142.211931 
L 79.032697 138.667273 
L 79.482215 117.583161 
L 79.739083 112.747587 
L 79.8033 116.670949 
L 79.867517 114.398724 
L 80.124385 109.157514 
L 80.317036 113.918357 
L 80.509687 108.961025 
L 80.702337 114.070913 
L 81.151856 104.8568 
L 81.216073 110.371318 
L 81.28029 109.039489 
L 81.344507 110.448755 
L 81.537158 107.02047 
L 81.601375 109.264025 
L 81.665592 108.098952 
L 81.729809 106.957499 
L 81.794026 111.703251 
L 81.858243 110.528549 
L 81.986677 108.285386 
L 82.050894 110.735601 
L 82.11511 109.752038 
L 82.371978 106.308856 
L 82.436195 108.050314 
L 82.500412 107.057966 
L 82.693063 104.279264 
L 83.014148 113.367425 
L 83.206799 110.637048 
L 83.271016 111.571733 
L 83.335233 110.900221 
L 83.848968 105.167791 
L 83.913185 107.083314 
L 83.977402 106.333481 
L 84.170053 104.366768 
L 84.23427 106.579259 
L 84.298487 105.852394 
L 84.362704 105.226617 
L 84.426921 107.285823 
L 84.491138 106.587514 
L 84.555355 105.910483 
L 84.619572 107.431309 
L 84.683789 106.751435 
L 84.748006 106.197209 
L 84.812223 107.147997 
L 84.87644 106.599677 
L 84.940656 107.091442 
L 85.133307 105.294009 
L 85.261741 108.874878 
L 86.032345 102.351044 
L 86.160779 104.794771 
L 86.224996 104.321927 
L 86.289213 103.867583 
L 86.35343 105.342036 
L 86.417646 104.802673 
L 86.481863 104.277572 
L 86.610297 106.610834 
L 86.674514 106.077326 
L 86.738731 105.722192 
L 86.802948 106.234728 
L 87.059816 104.301963 
L 87.124033 105.295093 
L 87.18825 104.815266 
L 87.252467 105.365808 
L 87.316684 105.018098 
L 87.509335 103.719591 
L 87.637769 105.818846 
L 87.701986 105.353701 
L 88.151504 102.727487 
L 88.215721 103.367847 
L 88.279938 103.014669 
L 88.472589 101.877884 
L 88.536806 103.027819 
L 88.601023 102.629682 
L 88.66524 102.22229 
L 88.729457 103.608361 
L 88.793674 103.204588 
L 89.050542 101.774962 
L 89.178976 103.740007 
L 89.243193 103.3642 
L 89.564277 101.627215 
L 89.628494 102.090621 
L 89.756928 101.404549 
L 89.821145 102.251909 
L 89.885362 101.96585 
L 89.949579 101.6532 
L 90.078013 102.458995 
L 90.14223 102.111658 
L 90.463315 100.467226 
L 90.527532 101.665816 
L 90.591749 101.366024 
L 91.041267 99.213113 
L 91.105484 100.412029 
L 91.169701 100.085871 
L 91.233918 99.869043 
L 91.298135 100.267678 
L 91.747654 98.240263 
L 91.940305 99.733628 
L 92.132955 101.349421 
L 92.197172 101.04524 
L 92.839342 98.426929 
L 92.903559 99.191659 
L 92.967776 98.91182 
L 93.224644 97.869467 
L 93.288861 98.708096 
L 93.353078 98.434195 
L 93.674162 97.135515 
L 93.738379 97.837724 
L 93.802596 97.617097 
L 93.866813 97.395092 
L 93.995247 98.963541 
L 94.059464 98.70068 
L 94.187898 98.204912 
L 94.380549 100.703651 
L 94.444766 100.460738 
L 94.637417 99.713641 
L 94.701634 100.536951 
L 94.765851 100.275948 
L 95.215369 98.680995 
L 95.279586 99.570212 
L 95.343803 99.315871 
L 95.921756 97.328755 
L 96.114407 98.43806 
L 97.013444 95.622628 
L 97.206095 95.066723 
L 97.270312 95.727333 
L 97.334529 95.526434 
L 97.398746 95.317527 
L 97.462963 96.046675 
L 97.52718 95.842073 
L 97.848265 94.930437 
L 98.040915 95.999166 
L 98.105132 96.209081 
L 98.426217 95.262186 
L 98.618868 96.237839 
L 98.875736 95.508865 
L 98.939953 95.72962 
L 99.00417 95.577148 
L 99.068387 95.384413 
L 99.132604 96.18838 
L 99.196821 95.994898 
L 99.774773 94.387991 
L 99.83899 95.036846 
L 99.903207 94.85331 
L 100.352726 93.702463 
L 100.416943 94.519168 
L 100.48116 94.377664 
L 100.738027 93.726926 
L 100.802244 95.022773 
L 100.866461 94.854795 
L 101.637065 92.97772 
L 101.701282 93.637172 
L 101.765499 93.471871 
L 102.343451 92.140463 
L 102.471885 93.21441 
L 102.536102 93.064326 
L 102.728753 92.601236 
L 102.79297 93.232595 
L 102.857187 93.080962 
L 102.985621 92.774881 
L 103.242489 94.145668 
L 103.306706 93.990843 
L 103.499357 93.560662 
L 103.563574 93.903968 
L 103.62779 93.774046 
L 103.884658 93.197404 
L 104.013092 93.601209 
L 104.976347 91.621591 
L 105.297431 90.989614 
L 105.490082 91.965456 
L 106.068035 90.85808 
L 106.196469 91.784716 
L 106.260686 91.649821 
L 106.774421 90.67244 
L 106.838638 91.189027 
L 106.902855 91.084856 
L 107.159723 90.819608 
L 107.22394 90.708647 
L 107.288157 91.347526 
L 107.352374 91.243206 
L 107.994543 90.089269 
L 108.05876 90.716378 
L 108.122977 90.619998 
L 108.572496 89.809565 
L 108.636713 90.304876 
L 108.70093 90.208264 
L 109.150449 89.442315 
L 109.214666 89.776329 
L 109.278883 89.673137 
L 109.407316 89.461388 
L 109.471533 89.968066 
L 109.53575 89.85088 
L 109.599967 89.735512 
L 109.664184 90.149889 
L 109.728401 90.042237 
L 110.049486 89.491089 
L 110.113703 90.514103 
L 110.17792 90.404664 
L 110.627439 89.631795 
L 110.691656 90.46089 
L 110.755873 90.351003 
L 111.01274 89.934693 
L 111.076957 90.334371 
L 111.141174 90.218473 
L 111.205391 90.423002 
L 111.269608 90.309864 
L 111.333825 90.198446 
L 111.526476 90.838476 
L 111.911778 90.227117 
L 111.975995 90.692924 
L 112.040212 90.594161 
L 112.232862 90.278074 
L 112.425513 90.733488 
L 113.003466 89.83158 
L 113.260334 90.8131 
L 113.581419 90.290565 
L 113.709852 91.180176 
L 113.774069 91.085488 
L 113.902503 90.881836 
L 113.96672 91.112885 
L 114.030937 91.01193 
L 114.352022 90.518418 
L 114.416239 90.916972 
L 114.480456 90.826869 
L 114.801541 90.339952 
L 114.865758 90.653623 
L 114.929975 90.55713 
L 115.251059 90.083086 
L 115.315276 90.585999 
L 115.379493 90.498628 
L 115.507927 90.324726 
L 115.572144 90.892639 
L 115.636361 90.797541 
L 115.700578 90.699434 
L 115.764795 90.970167 
L 115.829012 90.902155 
L 116.150097 90.437316 
L 116.342748 91.532184 
L 116.406965 91.440133 
L 116.728049 90.97245 
L 116.792266 91.311812 
L 116.856483 91.217935 
L 118.140822 89.474647 
L 118.205039 89.6606 
L 118.269256 89.57475 
L 118.333473 89.482056 
L 118.39769 90.014562 
L 118.461907 89.923466 
L 118.526124 89.833697 
L 118.590341 90.193126 
L 118.654558 90.103203 
L 118.847209 89.83522 
L 118.911426 90.361133 
L 118.975643 90.300106 
L 119.682029 89.392056 
L 119.810463 89.889201 
L 119.87468 89.802379 
L 120.067331 89.565059 
L 120.131548 89.712102 
L 120.195765 89.645717 
L 120.51685 89.28352 
L 120.581067 89.44694 
L 120.645284 89.364195 
L 121.415887 88.644388 
L 121.480104 88.859394 
L 121.544321 88.79317 
L 121.736972 88.55115 
L 121.801189 88.758252 
L 121.865406 88.684336 
L 121.99384 88.536208 
L 122.058057 88.689696 
L 122.122274 88.611702 
L 122.186491 88.542162 
L 122.379141 88.934056 
L 122.636009 88.625202 
L 122.700226 88.828037 
L 122.764443 88.759128 
L 122.957094 88.557971 
L 123.021311 88.821712 
L 123.085528 88.746072 
L 123.278179 88.671348 
L 123.663481 88.23427 
L 123.727697 88.716513 
L 123.791914 88.640413 
L 124.112999 88.285848 
L 124.177216 88.615427 
L 124.241433 88.551547 
L 124.369867 88.398172 
L 124.434084 88.836801 
L 124.498301 88.7573 
L 124.626735 88.611158 
L 124.755169 89.387447 
L 124.883603 89.25436 
L 125.78264 88.283746 
L 125.846857 88.747532 
L 125.911074 88.67384 
L 126.489027 88.055276 
L 126.553244 88.299964 
L 126.61746 88.229612 
L 126.810111 88.02707 
L 126.874328 88.385616 
L 126.938545 88.313145 
L 127.580715 87.671445 
L 127.773366 88.104701 
L 127.837583 88.035468 
L 127.9018 88.194319 
L 127.966017 88.122736 
L 128.030233 88.052152 
L 128.222884 88.50086 
L 128.543969 88.16178 
L 128.73662 89.61457 
L 128.800837 89.544699 
L 128.865054 89.47582 
L 129.057705 89.879577 
L 129.186139 89.752336 
L 129.250356 90.176659 
L 129.314573 90.114062 
L 130.21361 89.252679 
L 130.277827 89.705405 
L 130.342044 89.657127 
L 130.470478 89.552167 
L 130.534695 89.822728 
L 130.598912 89.776107 
L 130.791563 89.639085 
L 130.85578 89.830868 
L 130.919996 89.79545 
L 130.984213 89.749084 
L 131.04843 89.969233 
L 131.112647 89.934595 
L 131.6906 89.577448 
L 131.754817 89.789853 
L 131.819034 89.749373 
L 131.947468 89.665495 
L 132.140119 90.809813 
L 132.204336 90.76717 
L 132.461203 90.608242 
L 132.589637 91.13117 
L 132.718071 91.054561 
L 133.873976 90.472436 
L 134.066627 90.386103 
L 134.130844 90.530115 
L 134.195061 90.493126 
L 134.259278 90.456956 
L 134.323495 90.914282 
L 134.387712 90.880199 
L 134.516146 90.81216 
L 134.580363 91.007273 
L 134.64458 90.976312 
L 136.314221 90.247351 
L 137.855428 89.841449 
L 137.983862 89.970357 
L 138.626031 89.850195 
L 138.754465 90.054513 
L 139.011333 90.006287 
L 139.139767 90.210283 
L 139.396635 90.162722 
L 139.525068 90.367145 
L 141.38736 90.219289 
L 141.515794 90.408602 
L 142.543265 90.351418 
L 142.671699 90.53973 
L 142.928567 90.525592 
L 143.057001 90.714533 
L 144.598208 90.657868 
L 144.726642 90.775898 
L 147.423754 90.759484 
L 186.981398 90.854909 
L 187.302483 90.87895 
L 197.641413 90.950321 
L 197.834064 90.998396 
L 201.173346 91.069755 
L 201.365996 91.117823 
L 258.390653 91.212448 
L 258.583304 91.260507 
L 263.014274 91.331085 
L 263.206924 91.379136 
L 315.158441 91.475231 
L 315.351092 91.523274 
L 322.543391 91.616325 
L 322.736042 91.664358 
L 346.303665 91.759658 
L 346.624749 91.78367 
L 408.915196 91.855704 
L 408.915196 91.855704 
" clip-path="url(#p4231d3c333)" style="fill: none; stroke: #ff7f0e; stroke-width: 1.8; stroke-linecap: square"/>
   </g>
   <g id="line2d_33">
    <path d="M 77.427273 220.34448 
L 77.619924 81.846148 
L 77.876791 59.149651 
L 78.005225 54.490841 
L 78.133659 123.111475 
L 78.454744 97.678059 
L 78.518961 107.135023 
L 78.583178 103.735455 
L 78.647395 101.499882 
L 78.711612 112.101278 
L 78.775829 108.372843 
L 78.904263 101.95538 
L 78.96848 105.199628 
L 79.032697 102.927838 
L 79.096914 99.973709 
L 79.225347 116.432294 
L 79.482215 110.30498 
L 79.546432 112.072389 
L 79.674866 107.376277 
L 79.739083 110.82473 
L 79.8033 108.894205 
L 79.867517 108.380008 
L 80.188602 100.674068 
L 80.252819 102.507366 
L 80.44547 98.227668 
L 80.509687 102.145116 
L 80.573904 101.126713 
L 80.63812 100.78795 
L 80.766554 97.925033 
L 80.894988 100.252437 
L 81.023422 97.733019 
L 81.087639 105.143619 
L 81.151856 103.922895 
L 81.28029 101.559984 
L 81.472941 105.054576 
L 81.537158 104.440749 
L 81.601375 106.669647 
L 81.665592 105.61715 
L 82.179327 98.135306 
L 82.371978 104.69743 
L 82.693063 101.201372 
L 82.75728 103.43569 
L 82.821497 102.678323 
L 83.5921 94.419631 
L 83.656317 95.10602 
L 83.784751 93.961691 
L 83.848968 97.536915 
L 83.913185 97.099983 
L 84.041619 95.809081 
L 84.23427 101.045979 
L 84.555355 98.003837 
L 84.619572 97.363515 
L 84.748006 100.325224 
L 84.812223 99.798312 
L 84.87644 100.815818 
L 84.940656 100.270177 
L 85.133307 98.41235 
L 85.197524 99.373064 
L 85.325958 106.271441 
L 85.454392 104.957777 
L 85.647043 109.927785 
L 85.839694 114.78368 
L 86.35343 110.720117 
L 86.610297 114.523317 
L 86.674514 114.003022 
L 86.867165 112.423481 
L 86.931382 112.49836 
L 86.995599 111.893065 
L 87.059816 112.804257 
L 87.124033 112.226503 
L 87.18825 111.756369 
L 87.252467 114.392308 
L 87.316684 113.900995 
L 87.637769 111.433028 
L 87.766203 113.305961 
L 88.087287 110.982251 
L 88.151504 112.299761 
L 88.215721 111.810285 
L 88.857891 107.41617 
L 88.922108 109.281366 
L 88.986325 108.861074 
L 89.371626 106.582081 
L 89.564277 109.660767 
L 89.756928 108.51731 
L 89.821145 108.885885 
L 90.206447 106.729031 
L 90.399098 109.956886 
L 90.463315 109.626528 
L 90.655966 108.513127 
L 90.720182 110.364917 
L 90.784399 109.995599 
L 90.97705 108.860528 
L 91.041267 109.107348 
L 91.105484 110.08271 
L 91.169701 109.842307 
L 91.362352 108.734452 
L 91.555003 110.62965 
L 91.876088 109.289477 
L 92.132955 108.10035 
L 92.261389 108.700119 
L 92.518257 107.463064 
L 92.582474 108.408759 
L 92.646691 108.218005 
L 93.031993 106.430148 
L 93.160427 106.482248 
L 93.224644 106.894637 
L 93.545729 105.318805 
L 93.609945 105.815557 
L 93.674162 105.573944 
L 93.738379 105.310868 
L 93.866813 108.400802 
L 93.93103 108.257241 
L 94.380549 106.403738 
L 94.444766 107.007908 
L 94.508983 106.720598 
L 95.022718 104.637823 
L 95.086935 105.604313 
L 95.151152 105.31174 
L 95.793322 103.050317 
L 95.857539 103.854112 
L 95.921756 103.6234 
L 96.242841 102.464041 
L 96.307058 102.775992 
L 96.499708 102.093243 
L 96.563925 102.524787 
L 96.628142 102.272484 
L 96.692359 102.037685 
L 96.820793 103.573773 
L 96.88501 103.330447 
L 96.949227 103.427944 
L 97.206095 102.528958 
L 97.270312 103.315957 
L 97.334529 105.830261 
L 97.398746 105.579203 
L 98.105132 103.327276 
L 98.169349 103.632187 
L 98.490434 102.553682 
L 98.554651 102.794466 
L 98.618868 102.565134 
L 98.683085 103.464213 
L 98.747302 103.25411 
L 99.068387 102.239651 
L 99.132604 104.165072 
L 99.196821 103.982833 
L 99.261038 103.745122 
L 99.453688 105.269308 
L 99.517905 105.033087 
L 99.582122 105.45179 
L 99.646339 105.236383 
L 99.774773 104.873805 
L 99.83899 105.035657 
L 100.416943 103.622393 
L 100.48116 104.122671 
L 100.545377 103.924893 
L 101.059112 102.485105 
L 101.123329 103.024099 
L 101.187546 102.903642 
L 101.572848 101.762029 
L 101.637065 102.047036 
L 101.701282 101.901331 
L 102.086584 100.911107 
L 102.150801 100.999577 
L 102.728753 99.593659 
L 102.79297 100.097642 
L 102.857187 99.937216 
L 102.921404 99.745763 
L 102.985621 100.167062 
L 103.049838 100.012287 
L 103.43514 99.187489 
L 103.62779 100.172598 
L 104.013092 99.267628 
L 104.077309 99.804137 
L 104.141526 99.623808 
L 104.26996 99.43451 
L 104.591045 98.716255 
L 104.655262 99.116789 
L 104.719479 98.946391 
L 104.91213 98.552356 
L 105.490082 97.315645 
L 105.875384 96.45025 
L 105.939601 97.035739 
L 106.003818 96.897621 
L 106.324903 96.352211 
L 106.38912 97.540423 
L 106.453337 97.395699 
L 106.58177 97.154094 
L 106.645987 97.795272 
L 106.710204 97.630149 
L 106.774421 97.82911 
L 106.838638 97.71241 
L 107.22394 96.855678 
L 107.288157 97.677119 
L 107.352374 97.545931 
L 107.416591 97.893061 
L 107.480808 97.760143 
L 107.545025 97.77865 
L 107.737676 97.346952 
L 107.801893 97.635616 
L 107.86611 97.521497 
L 107.994543 97.219846 
L 108.122977 98.171034 
L 108.187194 98.040636 
L 108.957798 96.751773 
L 109.022015 97.088218 
L 109.086232 96.946236 
L 109.53575 96.060452 
L 109.728401 98.030136 
L 109.792618 97.880489 
L 109.985269 97.446127 
L 110.049486 97.8692 
L 110.113703 97.774767 
L 110.434788 97.185575 
L 110.499005 97.665369 
L 110.563222 97.572469 
L 110.691656 97.323871 
L 110.755873 97.982784 
L 110.820089 97.861541 
L 111.783344 96.295607 
L 111.847561 96.398762 
L 111.911778 96.29833 
L 112.040212 96.041606 
L 112.104429 96.563003 
L 112.168646 96.429817 
L 112.682381 95.582825 
L 112.746598 96.699008 
L 112.810815 96.58037 
L 113.067683 96.12884 
L 113.1319 96.744817 
L 113.196117 96.632074 
L 114.030937 95.351011 
L 114.673107 94.334874 
L 114.737324 94.616432 
L 114.801541 94.497923 
L 114.994192 94.184706 
L 115.058409 94.323186 
L 115.122625 94.218956 
L 115.507927 93.71173 
L 116.021663 93.008616 
L 116.08588 93.24152 
L 116.150097 93.167428 
L 116.471182 92.685845 
L 116.535398 92.952474 
L 116.599615 92.847811 
L 116.728049 92.680361 
L 116.792266 92.763617 
L 116.856483 92.675678 
L 117.627087 91.680967 
L 117.691304 92.328136 
L 117.755521 92.259346 
L 118.461907 91.379653 
L 118.654558 92.27524 
L 118.718775 92.576408 
L 118.782992 92.475405 
L 118.975643 92.190565 
L 119.03986 92.568754 
L 119.104077 92.473501 
L 119.682029 91.69165 
L 119.746246 92.317891 
L 119.810463 92.233127 
L 120.773718 91.09941 
L 120.837935 91.015965 
L 120.902151 91.160949 
L 121.030585 92.417554 
L 121.094802 92.320828 
L 122.636009 90.601673 
L 123.021311 90.140825 
L 123.085528 90.506319 
L 123.149745 90.432039 
L 123.535047 89.980923 
L 123.599264 90.318353 
L 123.663481 90.262337 
L 124.434084 89.461881 
L 124.498301 89.642676 
L 124.562518 89.571593 
L 125.012037 89.103851 
L 126.103725 88.01379 
L 126.489027 87.661953 
L 126.553244 88.004935 
L 126.61746 87.935694 
L 127.323847 87.326447 
L 127.452281 87.224875 
L 127.516498 87.361319 
L 127.580715 87.297835 
L 128.543969 86.430776 
L 130.149393 85.369322 
L 130.21361 85.791667 
L 130.277827 85.726638 
L 131.819034 84.587076 
L 131.883251 84.847907 
L 131.947468 84.79412 
L 132.268553 84.571002 
L 132.332769 84.744163 
L 132.396986 84.70916 
L 132.782288 84.475435 
L 132.846505 84.839066 
L 132.910722 84.814997 
L 133.617109 84.406993 
L 134.516146 83.940879 
L 134.901448 83.726637 
L 134.965665 84.005953 
L 135.029882 83.97807 
L 135.350966 83.86052 
L 135.415183 84.069793 
L 135.4794 84.02927 
L 135.993136 83.793849 
L 136.057353 84.03096 
L 136.12157 84.005709 
L 136.827956 83.707101 
L 136.892173 83.860431 
L 136.95639 83.831553 
L 138.112295 83.400238 
L 138.176512 83.782008 
L 138.240729 83.752702 
L 138.818682 83.553917 
L 138.882899 83.819627 
L 138.947116 83.789688 
L 139.332418 83.658858 
L 141.002058 83.085233 
L 145.561462 82.194013 
L 147.487971 81.878241 
L 147.616405 82.057041 
L 149.992432 81.723421 
L 150.955687 81.615708 
L 151.08412 81.742948 
L 155.836175 81.429833 
L 156.542562 81.372494 
L 156.670996 81.46963 
L 172.789451 80.892486 
L 245.290394 81.001957 
L 245.483045 81.080725 
L 272.325732 81.183735 
L 272.5826 81.288731 
L 273.160552 81.367471 
L 273.353203 81.472445 
L 273.802722 81.497342 
L 273.995373 81.602298 
L 275.665014 81.679657 
L 275.857665 81.784589 
L 277.784173 81.886795 
L 277.976824 81.991696 
L 278.875861 82.042781 
L 279.068512 82.173877 
L 280.673936 82.278741 
L 280.866587 82.329114 
L 281.894058 82.355326 
L 282.086709 82.460163 
L 285.23334 82.48637 
L 285.425991 82.591192 
L 288.957923 82.696001 
L 289.150574 82.774599 
L 290.049612 82.826995 
L 290.242263 82.905582 
L 292.104554 82.98208 
L 292.297205 83.086838 
L 293.774195 83.165399 
L 293.966846 83.217768 
L 298.654684 83.290033 
L 298.847335 83.342388 
L 299.039985 83.44709 
L 299.232636 83.525607 
L 301.223362 83.628881 
L 301.416013 83.733544 
L 306.168067 83.778115 
L 306.360718 83.882744 
L 310.213736 83.982405 
L 310.920122 84.165436 
L 313.103499 84.243866 
L 313.296149 84.348428 
L 315.672177 84.452264 
L 315.864828 84.504533 
L 318.240855 84.5568 
L 318.433506 84.635194 
L 321.066401 84.713581 
L 321.259052 84.791962 
L 323.442428 84.870335 
L 323.635079 84.948701 
L 335.065697 85.01911 
L 335.258348 85.123562 
L 341.294742 85.222922 
L 341.487393 85.301236 
L 347.202702 85.376632 
L 347.395353 85.454927 
L 351.312587 85.530296 
L 351.505238 85.582481 
L 353.688614 85.686843 
L 354.009699 85.712931 
L 361.458866 85.786058 
L 361.651517 85.864304 
L 364.54128 85.941807 
L 364.733931 86.124335 
L 369.742853 86.20255 
L 369.935504 86.280757 
L 374.559125 86.385024 
L 374.751776 86.462472 
L 376.678284 86.566716 
L 376.870935 86.64489 
L 376.999369 86.697002 
L 377.19202 86.775165 
L 379.246963 86.853321 
L 379.439613 87.008861 
L 381.944075 87.083987 
L 382.136726 87.16211 
L 386.05396 87.238717 
L 386.246611 87.316824 
L 397.548795 87.389629 
L 397.548795 87.389629 
" clip-path="url(#p4231d3c333)" style="fill: none; stroke: #2ca02c; stroke-width: 1.8; stroke-linecap: square"/>
   </g>
   <g id="line2d_34">
    <path d="M 77.427273 36.121818 
L 78.005225 36.121818 
L 78.133659 122.352138 
L 78.197876 117.789687 
L 78.32631 107.830191 
L 78.454744 142.173886 
L 78.775829 114.655064 
L 78.96848 140.33296 
L 79.353781 117.640957 
L 79.417998 122.550808 
L 79.482215 119.933007 
L 80.124385 101.364061 
L 80.509687 93.560788 
L 80.959205 85.801862 
L 81.408724 80.401034 
L 81.537158 78.954072 
L 81.601375 80.833378 
L 81.665592 80.009547 
L 82.179327 75.003908 
L 82.243544 82.849186 
L 82.307761 82.279458 
L 82.371978 81.621272 
L 82.436195 83.179326 
L 82.500412 82.609668 
L 82.821497 80.079835 
L 82.885714 84.352687 
L 82.949931 83.777351 
L 83.39945 80.171861 
L 83.463667 91.766722 
L 83.527883 91.222359 
L 84.041619 87.199495 
L 85.197524 79.652256 
L 85.518609 77.874722 
L 85.582826 81.954163 
L 85.647043 81.575523 
L 85.775477 80.858414 
L 85.839694 83.500954 
L 85.903911 83.127934 
L 85.968128 82.777309 
L 86.160779 89.896852 
L 86.867165 86.036318 
L 86.931382 88.149147 
L 86.995599 87.773658 
L 87.445118 85.444169 
L 88.986325 78.736848 
L 90.463315 74.100875 
L 90.527532 76.134091 
L 90.591749 75.884207 
L 92.261389 71.515283 
L 92.325606 72.107443 
L 92.389823 71.914222 
L 93.481512 69.451795 
L 93.545729 70.12289 
L 93.609945 69.992634 
L 94.187898 68.780471 
L 94.508983 68.264675 
L 94.637417 68.043985 
L 94.701634 70.168106 
L 94.765851 70.032153 
L 95.215369 69.117595 
L 96.307058 67.103045 
L 96.371275 68.26438 
L 96.435491 68.144509 
L 96.756576 67.632482 
L 96.820793 70.178414 
L 96.88501 70.084379 
L 97.52718 69.01507 
L 97.591397 70.179244 
L 97.655614 70.078508 
L 97.976698 69.517642 
L 98.297783 68.946344 
L 98.362 69.993516 
L 98.426217 69.880953 
L 98.875736 69.167922 
L 98.939953 70.203747 
L 99.00417 70.114205 
L 100.48116 67.870985 
L 101.637065 66.32515 
L 102.215017 65.594147 
L 102.279234 67.137183 
L 102.343451 67.053107 
L 103.114055 66.08567 
L 103.178272 66.796438 
L 103.242489 66.756907 
L 103.884658 65.995113 
L 104.013092 67.901431 
L 104.077309 67.836558 
L 104.719479 67.057693 
L 106.196469 65.450607 
L 106.260686 66.270849 
L 106.324903 66.204745 
L 106.517553 66.005059 
L 106.58177 66.772453 
L 106.645987 66.698573 
L 106.902855 66.453132 
L 106.967072 67.460495 
L 107.031289 67.38479 
L 107.86611 66.462922 
L 107.930326 67.042871 
L 107.994543 66.960599 
L 108.315628 66.629893 
L 108.379845 67.327052 
L 108.444062 67.250346 
L 109.086232 66.631624 
L 109.856835 65.910169 
L 109.921052 66.750664 
L 109.985269 66.677039 
L 110.049486 66.618769 
L 110.113703 66.934881 
L 110.17792 66.874489 
L 111.01274 66.093396 
L 111.076957 66.312125 
L 111.141174 66.248395 
L 112.810815 64.750322 
L 113.067683 64.557505 
L 113.1319 65.062027 
L 113.196117 65.005397 
L 113.517202 64.758043 
L 113.581419 65.415537 
L 113.645636 65.348415 
L 115.572144 63.822046 
L 115.636361 64.433895 
L 115.700578 64.382232 
L 116.728049 63.593759 
L 116.856483 63.606393 
L 117.691304 63.037822 
L 119.296728 61.944517 
L 119.360945 62.804213 
L 119.425161 62.7575 
L 121.415887 61.493965 
L 121.480104 62.113585 
L 121.544321 62.079119 
L 125.78264 59.848951 
L 125.846857 60.232577 
L 125.911074 60.200459 
L 127.25963 59.578867 
L 127.644932 59.409626 
L 127.709149 59.931595 
L 127.773366 59.902393 
L 128.158667 59.739339 
L 128.222884 60.352944 
L 128.287101 60.323499 
L 129.121922 60.00935 
L 131.112647 59.306103 
L 132.52542 58.914113 
L 133.231807 58.734223 
L 133.296024 59.40824 
L 133.360241 59.38526 
L 133.745543 59.26893 
L 133.809759 59.710623 
L 133.873976 59.688787 
L 135.029882 59.368524 
L 135.094099 59.901657 
L 135.158316 59.881255 
L 136.057353 59.662869 
L 136.12157 60.128262 
L 136.185787 60.107462 
L 136.95639 59.923125 
L 137.020607 60.288514 
L 137.084824 60.275385 
L 137.534343 60.181782 
L 137.59856 60.510892 
L 137.662777 60.49049 
L 137.919645 60.428641 
L 137.983862 60.757039 
L 138.048079 60.739933 
L 138.112295 60.724559 
L 138.176512 61.205957 
L 138.240729 61.196396 
L 141.066275 60.538175 
L 141.130492 60.886998 
L 141.194709 60.87156 
L 142.414831 60.62552 
L 142.479048 60.978207 
L 142.543265 60.963711 
L 142.800133 60.912077 
L 142.86435 61.349064 
L 142.928567 61.339007 
L 144.277123 61.057348 
L 144.405557 61.683736 
L 144.726642 61.608053 
L 144.790859 61.919186 
L 144.855076 61.903592 
L 147.038452 61.567157 
L 147.166886 61.555291 
L 147.231103 62.007927 
L 147.29532 61.9967 
L 153.20328 61.125875 
L 153.460148 61.734076 
L 154.359185 61.62183 
L 154.551836 61.675927 
L 155.258223 61.586438 
L 155.386656 61.902521 
L 155.771958 61.849213 
L 155.900392 61.993903 
L 156.670996 61.888619 
L 156.799429 62.227724 
L 159.047023 61.927864 
L 159.175457 62.206972 
L 160.074494 62.108469 
L 160.202928 62.393226 
L 160.909315 62.298354 
L 161.166182 62.619784 
L 161.358833 62.596502 
L 161.487267 62.87843 
L 162.193654 62.805356 
L 162.322088 62.947962 
L 162.450522 62.931659 
L 162.643172 63.498278 
L 166.175105 63.364711 
L 166.303539 63.619072 
L 167.009925 63.570033 
L 167.138359 63.718818 
L 167.266793 63.713576 
L 167.459444 64.121293 
L 169.000651 64.107623 
L 169.193302 64.644641 
L 173.560055 64.32743 
L 173.688489 64.523516 
L 174.330658 64.479936 
L 174.459092 64.653219 
L 177.220421 64.475995 
L 177.348855 64.646117 
L 178.633194 64.574397 
L 178.761628 64.67028 
L 180.302835 64.573305 
L 180.431269 64.768375 
L 180.559703 64.758651 
L 180.688137 64.92947 
L 185.953927 64.732817 
L 186.146578 64.80142 
L 186.596097 64.878492 
L 188.073087 64.899571 
L 188.201521 65.044579 
L 188.779473 65.019613 
L 188.972124 65.210937 
L 191.348151 65.097216 
L 191.990321 65.165299 
L 192.247189 65.404593 
L 192.375623 65.400946 
L 192.568274 65.740091 
L 194.75165 65.819803 
L 194.944301 65.889999 
L 196.164423 65.848195 
L 196.292857 65.967859 
L 196.613942 65.954717 
L 196.742376 66.075937 
L 200.210091 66.009127 
L 200.338525 66.127797 
L 200.980695 66.101918 
L 201.109129 66.221269 
L 201.49443 66.278086 
L 201.622864 66.395662 
L 201.815515 66.39028 
L 201.943949 66.510693 
L 205.219014 66.525506 
L 205.347448 66.64504 
L 206.56757 66.703158 
L 206.760221 66.943891 
L 207.273956 67.004962 
L 207.466607 67.193585 
L 208.365645 67.164474 
L 208.494078 67.281834 
L 209.649984 67.34145 
L 209.842635 67.385606 
L 210.099502 67.474299 
L 210.292153 67.517986 
L 210.35637 67.51671 
L 210.484804 67.656644 
L 210.613238 67.653654 
L 210.741672 67.772346 
L 212.347096 67.774378 
L 212.539747 68.009157 
L 213.438784 68.05431 
L 213.631435 68.121837 
L 216.007462 68.10772 
L 216.135896 68.24882 
L 217.420235 68.310214 
L 217.612886 68.352123 
L 218.38349 68.398032 
L 218.57614 68.463834 
L 223.135544 68.358617 
L 231.612182 68.241223 
L 243.620753 68.225729 
L 243.813404 68.295098 
L 249.271845 68.372425 
L 249.464496 68.443396 
L 250.877269 68.433111 
L 251.06992 68.525982 
L 255.693541 68.568953 
L 255.886191 68.639819 
L 256.849446 68.728685 
L 257.042097 68.799525 
L 257.876917 68.866892 
L 258.069568 68.913239 
L 259.353907 68.953931 
L 259.546558 69.047457 
L 260.188727 69.139221 
L 260.381378 69.208684 
L 261.344633 69.297335 
L 261.537284 69.390785 
L 264.36283 69.444775 
L 264.55548 69.537714 
L 265.968253 69.628864 
L 266.160904 69.699096 
L 267.894762 69.767096 
L 268.087413 69.860413 
L 268.665366 69.954163 
L 268.858016 70.047451 
L 269.821271 70.093192 
L 270.013922 70.162917 
L 319.589411 70.245801 
L 319.846279 70.339915 
L 320.103147 70.384254 
L 320.360015 70.525387 
L 320.809533 70.618553 
L 321.002184 70.710791 
L 321.323269 70.781329 
L 321.51592 70.944058 
L 321.837005 71.014573 
L 322.093872 71.155588 
L 322.35074 71.224234 
L 322.543391 71.388702 
L 323.057127 71.458246 
L 323.249778 71.503826 
L 323.506645 71.574289 
L 324.213032 71.972055 
L 325.047852 72.064529 
L 325.30472 72.181881 
L 328.2587 72.274321 
L 328.451351 72.344714 
L 330.313643 72.415102 
L 330.506294 72.485485 
L 332.497019 72.531443 
L 332.68967 72.601814 
L 334.16666 72.67218 
L 334.359311 72.765992 
L 335.707867 72.836345 
L 335.900518 72.906692 
L 337.634376 72.977033 
L 337.827026 73.070813 
L 340.973657 73.163607 
L 341.166308 73.233926 
L 342.707515 73.327677 
L 342.900166 73.421417 
L 349.321861 73.530694 
L 349.514512 73.624393 
L 351.119936 73.693176 
L 351.312587 73.763435 
L 355.03717 73.854621 
L 355.422472 73.878036 
L 359.403923 73.94728 
L 359.596574 74.017513 
L 361.651517 74.086241 
L 361.844168 74.15646 
L 363.06429 74.250076 
L 363.256941 74.296881 
L 365.568751 74.367083 
L 365.761402 74.460678 
L 368.33008 74.504945 
L 368.522731 74.597506 
L 370.641891 74.665142 
L 370.834541 74.711917 
L 372.375748 74.782076 
L 372.568399 74.875611 
L 377.320454 74.967604 
L 377.513105 75.037739 
L 379.182746 75.131244 
L 379.375396 75.201367 
L 380.98082 75.292793 
L 381.173471 75.386267 
L 383.035763 75.456365 
L 383.292631 75.573183 
L 384.641187 75.666627 
L 384.833838 75.713345 
L 386.05396 75.783418 
L 386.246611 75.87684 
L 387.466733 75.970251 
L 387.659384 76.040304 
L 388.558421 76.133698 
L 388.751072 76.203738 
L 391.640835 76.297115 
L 391.833486 76.367142 
L 393.43891 76.413823 
L 393.631561 76.507178 
L 394.787466 76.553852 
L 394.980117 76.623858 
L 397.356144 76.69226 
L 397.548795 76.785582 
L 401.979765 76.855567 
L 402.172416 76.948872 
L 407.630857 77.016158 
L 407.823508 77.10944 
L 410.713271 77.201632 
L 411.034355 77.318206 
L 413.346166 77.411453 
L 413.538817 77.458074 
L 415.144241 77.526911 
L 415.465325 77.643439 
L 418.933041 77.687862 
L 419.125692 77.781063 
L 421.116417 77.781063 
L 421.116417 77.781063 
" clip-path="url(#p4231d3c333)" style="fill: none; stroke: #d62728; stroke-width: 1.8; stroke-linecap: square"/>
   </g>
   <g id="line2d_35">
    <path d="M 77.427273 107.80244 
L 77.49149 72.44 
L 77.555707 131.278626 
L 77.619924 107.567422 
L 77.684141 107.427149 
L 78.069442 70.341211 
L 78.390527 59.224987 
L 78.775829 52.79173 
L 79.353781 47.7226 
L 79.931734 45.073062 
L 80.702337 42.941707 
L 81.28029 41.91974 
L 82.885714 40.252013 
L 83.720534 39.699729 
L 84.812223 39.156764 
L 89.50006 37.989141 
L 92.903559 37.573307 
L 98.747302 37.17257 
L 107.545025 36.86798 
L 120.709501 36.640047 
L 138.818682 36.50927 
L 159.624975 36.498714 
L 159.817626 36.599193 
L 160.267145 36.599193 
L 160.395579 36.724776 
L 162.514738 36.775005 
L 162.707389 36.850342 
L 169.129085 36.900564 
L 169.321736 37.000998 
L 172.40415 37.076317 
L 172.5968 37.176732 
L 178.50476 37.277136 
L 178.761628 37.427722 
L 179.917533 37.528098 
L 180.110184 37.603373 
L 184.476937 37.628338 
L 184.669588 37.728662 
L 187.302483 37.803727 
L 187.559351 38.029418 
L 189.228992 38.104553 
L 189.421643 38.229897 
L 192.054538 38.22981 
L 192.182972 38.355131 
L 193.338877 38.355131 
L 193.467311 38.480435 
L 195.008518 38.530552 
L 195.201169 38.630777 
L 196.164423 38.730955 
L 196.357074 38.806107 
L 199.118403 38.881253 
L 199.311054 38.981439 
L 201.237563 39.05657 
L 201.430213 39.131695 
L 203.549373 39.206687 
L 203.742024 39.306832 
L 207.338173 39.406829 
L 207.659258 39.43186 
L 209.072031 39.531882 
L 209.264682 39.581934 
L 211.191191 39.631984 
L 211.319625 39.757096 
L 216.521198 39.856555 
L 216.713849 39.956604 
L 221.465903 40.056643 
L 221.594337 40.181676 
L 221.786988 40.281689 
L 221.979639 40.381692 
L 225.447355 40.456328 
L 225.640006 40.556303 
L 225.832656 40.631277 
L 229.428806 40.731233 
L 229.621457 40.781207 
L 232.768088 40.880687 
L 232.960738 40.955627 
L 236.749539 41.030561 
L 236.94219 41.105488 
L 238.868698 41.205382 
L 239.061349 41.280295 
L 244.391356 41.354553 
L 244.584007 41.429444 
L 250.235099 41.504329 
L 250.42775 41.579209 
L 254.794503 41.679038 
L 254.987154 41.728948 
L 262.115236 41.828446 
L 262.372104 42.003082 
L 263.335358 42.003082 
L 263.463792 42.127802 
L 269.114884 42.227144 
L 269.435969 42.252081 
L 275.343929 42.301869 
L 275.53658 42.376672 
L 284.205869 42.475524 
L 284.526954 42.500451 
L 285.297557 42.600151 
L 285.618642 42.624895 
L 290.948649 42.699658 
L 291.269734 42.849167 
L 293.324676 42.898998 
L 293.517327 42.998651 
L 295.957572 43.072906 
L 296.150222 43.122721 
L 300.452758 43.147047 
L 300.709626 43.371056 
L 305.012162 43.469629 
L 305.204813 43.544301 
L 307.323973 43.643749 
L 307.516624 43.743289 
L 308.544095 43.817936 
L 308.736746 43.892578 
L 314.773139 43.966889 
L 314.96579 44.066389 
L 317.983987 44.165546 
L 318.176638 44.240153 
L 320.231581 44.239929 
L 320.360015 44.364257 
L 321.259052 44.438845 
L 321.451703 44.513311 
L 323.635079 44.587886 
L 323.82773 44.687309 
L 323.891947 44.687309 
L 324.020381 44.811573 
L 326.011107 44.910851 
L 326.139541 45.035083 
L 331.469548 45.133712 
L 331.662199 45.233066 
L 333.010755 45.307574 
L 333.33184 45.55589 
L 333.909792 45.630372 
L 334.102443 45.704847 
L 337.95546 45.803739 
L 338.148111 45.878197 
L 346.624749 45.976246 
L 346.8174 46.02587 
L 347.780654 46.074944 
L 347.973305 46.149366 
L 349.642946 46.248586 
L 349.835597 46.298192 
L 354.587652 46.396973 
L 354.716086 46.520957 
L 357.15633 46.570546 
L 357.348981 46.644924 
L 359.339706 46.744086 
L 359.660791 46.768875 
L 362.807422 46.818009 
L 362.935856 46.941931 
L 364.54128 46.966266 
L 364.733931 47.065385 
L 366.981524 47.11494 
L 367.174175 47.189267 
L 367.816345 47.189267 
L 367.944778 47.313132 
L 369.550202 47.337749 
L 369.742853 47.436825 
L 372.054664 47.486359 
L 372.183097 47.610182 
L 373.017918 47.610182 
L 373.146352 47.733988 
L 380.659736 47.832699 
L 380.852386 47.906964 
L 391.31975 47.979434 
L 391.576618 48.127911 
L 392.79674 48.202141 
L 392.989391 48.251291 
L 397.035059 48.30077 
L 397.22771 48.374983 
L 399.924822 48.473925 
L 400.245907 48.498658 
L 402.557717 48.597587 
L 402.750368 48.721231 
L 406.08965 48.819264 
L 406.410735 48.843987 
L 408.080375 48.942167 
L 408.40146 48.966885 
L 409.750016 49.040149 
L 409.942667 49.114287 
L 414.823156 49.211873 
L 415.144241 49.236579 
L 416.942315 49.33413 
L 417.2634 49.358831 
L 419.960512 49.408048 
L 420.088946 49.531532 
L 426.061123 49.630307 
L 426.253774 49.852512 
L 427.538113 49.926568 
L 427.730764 50.000618 
L 429.336188 50.000618 
L 429.464622 50.124021 
L 433.446073 50.148699 
L 433.574507 50.272082 
L 436.978005 50.345519 
L 437.170656 50.46887 
L 438.005477 50.567538 
L 438.198128 50.616869 
L 440.317287 50.714722 
L 440.509938 50.764041 
L 443.20705 50.86247 
L 443.399701 50.911781 
L 446.225247 51.010394 
L 446.674766 51.084346 
L 449.628746 51.182941 
L 449.821396 51.256879 
L 453.931282 51.355246 
L 454.059715 51.478448 
L 456.114658 51.503087 
L 456.307309 51.601634 
L 460.738279 51.70017 
L 461.059364 51.724802 
L 463.306957 51.749006 
L 463.499608 51.847524 
L 468.701181 51.94603 
L 468.958049 52.09377 
L 469.600219 52.143011 
L 469.79287 52.216868 
L 472.682633 52.314227 
L 472.875283 52.388064 
L 476.086131 52.461896 
L 476.278782 52.511114 
L 477.498904 52.511114 
L 477.627338 52.634146 
L 480.067582 52.73097 
L 480.388667 52.755569 
L 482.379393 52.755569 
L 482.507827 52.878098 
L 484.626986 52.927287 
L 484.819637 53.001065 
L 492.846756 53.050247 
L 493.039407 53.124015 
L 495.864953 53.197777 
L 496.057604 53.271533 
L 497.984113 53.369865 
L 498.369415 53.419027 
L 505.304846 53.489916 
L 505.43328 53.612779 
L 512.240277 53.707213 
L 512.368711 53.83002 
L 516.157511 53.87744 
L 516.350162 53.975658 
L 518.340888 54.023785 
L 518.533539 54.121982 
L 522.900292 54.195376 
L 523.092942 54.293552 
L 526.496441 54.391718 
L 526.689092 54.489874 
L 529.000902 54.587766 
L 529.193553 54.636834 
L 535.8079 54.733691 
L 536.00055 54.782747 
L 538.505012 54.8318 
L 538.697663 54.978945 
L 541.972727 54.978945 
L 541.972727 54.978945 
" clip-path="url(#p4231d3c333)" style="fill: none; stroke: #9467bd; stroke-width: 1.8; stroke-linecap: square"/>
   </g>
   <g id="patch_3">
    <path d="M 54.2 260.44 
L 54.2 25.44 
" style="fill: none; stroke: #000000; stroke-width: 0.8; stroke-linejoin: miter; stroke-linecap: square"/>
   </g>
   <g id="patch_4">
    <path d="M 565.2 260.44 
L 565.2 25.44 
" style="fill: none; stroke: #000000; stroke-width: 0.8; stroke-linejoin: miter; stroke-linecap: square"/>
   </g>
   <g id="patch_5">
    <path d="M 54.2 260.44 
L 565.2 260.44 
" style="fill: none; stroke: #000000; stroke-width: 0.8; stroke-linejoin: miter; stroke-linecap: square"/>
   </g>
   <g id="patch_6">
    <path d="M 54.2 25.44 
L 565.2 25.44 
" style="fill: none; stroke: #000000; stroke-width: 0.8; stroke-linejoin: miter; stroke-linecap: square"/>
   </g>
   <g id="text_18">
    <!-- Timely Transfer Rate (Cumulative) -->
    <g transform="translate(207.277187 19.44) scale(0.12 -0.12)">
     <defs>
      <path id="DejaVuSans-54" d="M -19 4666 
L 3928 4666 
L 3928 4134 
L 2272 4134 
L 2272 0 
L 1638 0 
L 1638 4134 
L -19 4134 
L -19 4666 
z
" transform="scale(0.015625)"/>
      <path id="DejaVuSans-52" d="M 2841 2188 
Q 3044 2119 3236 1894 
Q 3428 1669 3622 1275 
L 4263 0 
L 3584 0 
L 2988 1197 
Q 2756 1666 2539 1819 
Q 2322 1972 1947 1972 
L 1259 1972 
L 1259 0 
L 628 0 
L 628 4666 
L 2053 4666 
Q 2853 4666 3247 4331 
Q 3641 3997 3641 3322 
Q 3641 2881 3436 2590 
Q 3231 2300 2841 2188 
z
M 1259 4147 
L 1259 2491 
L 2053 2491 
Q 2509 2491 2742 2702 
Q 2975 2913 2975 3322 
Q 2975 3731 2742 3939 
Q 2509 4147 2053 4147 
L 1259 4147 
z
" transform="scale(0.015625)"/>
      <path id="DejaVuSans-28" d="M 1984 4856 
Q 1566 4138 1362 3434 
Q 1159 2731 1159 2009 
Q 1159 1288 1364 580 
Q 1569 -128 1984 -844 
L 1484 -844 
Q 1016 -109 783 600 
Q 550 1309 550 2009 
Q 550 2706 781 3412 
Q 1013 4119 1484 4856 
L 1984 4856 
z
" transform="scale(0.015625)"/>
      <path id="DejaVuSans-43" d="M 4122 4306 
L 4122 3641 
Q 3803 3938 3442 4084 
Q 3081 4231 2675 4231 
Q 1875 4231 1450 3742 
Q 1025 3253 1025 2328 
Q 1025 1406 1450 917 
Q 1875 428 2675 428 
Q 3081 428 3442 575 
Q 3803 722 4122 1019 
L 4122 359 
Q 3791 134 3420 21 
Q 3050 -91 2638 -91 
Q 1578 -91 968 557 
Q 359 1206 359 2328 
Q 359 3453 968 4101 
Q 1578 4750 2638 4750 
Q 3056 4750 3426 4639 
Q 3797 4528 4122 4306 
z
" transform="scale(0.015625)"/>
      <path id="DejaVuSans-29" d="M 513 4856 
L 1013 4856 
Q 1481 4119 1714 3412 
Q 1947 2706 1947 2009 
Q 1947 1309 1714 600 
Q 1481 -109 1013 -844 
L 513 -844 
Q 928 -128 1133 580 
Q 1338 1288 1338 2009 
Q 1338 2731 1133 3434 
Q 928 4138 513 4856 
z
" transform="scale(0.015625)"/>
     </defs>
     <use xlink:href="#DejaVuSans-54"/>
     <use xlink:href="#DejaVuSans-69" x="57.958984"/>
     <use xlink:href="#DejaVuSans-6d" x="85.742188"/>
     <use xlink:href="#DejaVuSans-65" x="183.154297"/>
     <use xlink:href="#DejaVuSans-6c" x="244.677734"/>
     <use xlink:href="#DejaVuSans-79" x="272.460938"/>
     <use xlink:href="#DejaVuSans-20" x="331.640625"/>
     <use xlink:href="#DejaVuSans-54" x="363.427734"/>
     <use xlink:href="#DejaVuSans-72" x="409.761719"/>
     <use xlink:href="#DejaVuSans-61" x="450.875"/>
     <use xlink:href="#DejaVuSans-6e" x="512.154297"/>
     <use xlink:href="#DejaVuSans-73" x="575.533203"/>
     <use xlink:href="#DejaVuSans-66" x="627.632812"/>
     <use xlink:href="#DejaVuSans-65" x="662.837891"/>
     <use xlink:href="#DejaVuSans-72" x="724.361328"/>
     <use xlink:href="#DejaVuSans-20" x="765.474609"/>
     <use xlink:href="#DejaVuSans-52" x="797.261719"/>
     <use xlink:href="#DejaVuSans-61" x="864.494141"/>
     <use xlink:href="#DejaVuSans-74" x="925.773438"/>
     <use xlink:href="#DejaVuSans-65" x="964.982422"/>
     <use xlink:href="#DejaVuSans-20" x="1026.505859"/>
     <use xlink:href="#DejaVuSans-28" x="1058.292969"/>
     <use xlink:href="#DejaVuSans-43" x="1097.306641"/>
     <use xlink:href="#DejaVuSans-75" x="1167.130859"/>
     <use xlink:href="#DejaVuSans-6d" x="1230.509766"/>
     <use xlink:href="#DejaVuSans-75" x="1327.921875"/>
     <use xlink:href="#DejaVuSans-6c" x="1391.300781"/>
     <use xlink:href="#DejaVuSans-61" x="1419.083984"/>
     <use xlink:href="#DejaVuSans-74" x="1480.363281"/>
     <use xlink:href="#DejaVuSans-69" x="1519.572266"/>
     <use xlink:href="#DejaVuSans-76" x="1547.355469"/>
     <use xlink:href="#DejaVuSans-65" x="1606.535156"/>
     <use xlink:href="#DejaVuSans-29" x="1668.058594"/>
    </g>
   </g>
   <g id="legend_1">
    <g id="patch_7">
     <path d="M 473.826562 255.44 
L 558.2 255.44 
Q 560.2 255.44 560.2 253.44 
L 560.2 180.493125 
Q 560.2 178.493125 558.2 178.493125 
L 473.826562 178.493125 
Q 471.826562 178.493125 471.826562 180.493125 
L 471.826562 253.44 
Q 471.826562 255.44 473.826562 255.44 
z
" style="fill: #ffffff; opacity: 0.8; stroke: #cccccc; stroke-linejoin: miter"/>
    </g>
    <g id="line2d_36">
     <path d="M 475.826562 186.591563 
L 485.826562 186.591563 
L 495.826562 186.591563 
" style="fill: none; stroke: #1f77b4; stroke-width: 1.8; stroke-linecap: square"/>
    </g>
    <g id="text_19">
     <!-- SHEER -->
     <g transform="translate(503.826562 190.091563) scale(0.1 -0.1)">
      <defs>
       <path id="DejaVuSans-53" d="M 3425 4513 
L 3425 3897 
Q 3066 4069 2747 4153 
Q 2428 4238 2131 4238 
Q 1616 4238 1336 4038 
Q 1056 3838 1056 3469 
Q 1056 3159 1242 3001 
Q 1428 2844 1947 2747 
L 2328 2669 
Q 3034 2534 3370 2195 
Q 3706 1856 3706 1288 
Q 3706 609 3251 259 
Q 2797 -91 1919 -91 
Q 1588 -91 1214 -16 
Q 841 59 441 206 
L 441 856 
Q 825 641 1194 531 
Q 1563 422 1919 422 
Q 2459 422 2753 634 
Q 3047 847 3047 1241 
Q 3047 1584 2836 1778 
Q 2625 1972 2144 2069 
L 1759 2144 
Q 1053 2284 737 2584 
Q 422 2884 422 3419 
Q 422 4038 858 4394 
Q 1294 4750 2059 4750 
Q 2388 4750 2728 4690 
Q 3069 4631 3425 4513 
z
" transform="scale(0.015625)"/>
       <path id="DejaVuSans-48" d="M 628 4666 
L 1259 4666 
L 1259 2753 
L 3553 2753 
L 3553 4666 
L 4184 4666 
L 4184 0 
L 3553 0 
L 3553 2222 
L 1259 2222 
L 1259 0 
L 628 0 
L 628 4666 
z
" transform="scale(0.015625)"/>
       <path id="DejaVuSans-45" d="M 628 4666 
L 3578 4666 
L 3578 4134 
L 1259 4134 
L 1259 2753 
L 3481 2753 
L 3481 2222 
L 1259 2222 
L 1259 531 
L 3634 531 
L 3634 0 
L 628 0 
L 628 4666 
z
" transform="scale(0.015625)"/>
      </defs>
      <use xlink:href="#DejaVuSans-53"/>
      <use xlink:href="#DejaVuSans-48" x="63.476562"/>
      <use xlink:href="#DejaVuSans-45" x="138.671875"/>
      <use xlink:href="#DejaVuSans-45" x="201.855469"/>
      <use xlink:href="#DejaVuSans-52" x="265.039062"/>
     </g>
    </g>
    <g id="line2d_37">
     <path d="M 475.826562 201.269688 
L 485.826562 201.269688 
L 495.826562 201.269688 
" style="fill: none; stroke: #ff7f0e; stroke-width: 1.8; stroke-linecap: square"/>
    </g>
    <g id="text_20">
     <!-- ACTAR -->
     <g transform="translate(503.826562 204.769688) scale(0.1 -0.1)">
      <defs>
       <path id="DejaVuSans-41" d="M 2188 4044 
L 1331 1722 
L 3047 1722 
L 2188 4044 
z
M 1831 4666 
L 2547 4666 
L 4325 0 
L 3669 0 
L 3244 1197 
L 1141 1197 
L 716 0 
L 50 0 
L 1831 4666 
z
" transform="scale(0.015625)"/>
      </defs>
      <use xlink:href="#DejaVuSans-41"/>
      <use xlink:href="#DejaVuSans-43" x="66.658203"/>
      <use xlink:href="#DejaVuSans-54" x="136.482422"/>
      <use xlink:href="#DejaVuSans-41" x="189.816406"/>
      <use xlink:href="#DejaVuSans-52" x="258.224609"/>
     </g>
    </g>
    <g id="line2d_38">
     <path d="M 475.826562 215.947813 
L 485.826562 215.947813 
L 495.826562 215.947813 
" style="fill: none; stroke: #2ca02c; stroke-width: 1.8; stroke-linecap: square"/>
    </g>
    <g id="text_21">
     <!-- TFSM_DPC -->
     <g transform="translate(503.826562 219.447813) scale(0.1 -0.1)">
      <defs>
       <path id="DejaVuSans-46" d="M 628 4666 
L 3309 4666 
L 3309 4134 
L 1259 4134 
L 1259 2759 
L 3109 2759 
L 3109 2228 
L 1259 2228 
L 1259 0 
L 628 0 
L 628 4666 
z
" transform="scale(0.015625)"/>
       <path id="DejaVuSans-4d" d="M 628 4666 
L 1569 4666 
L 2759 1491 
L 3956 4666 
L 4897 4666 
L 4897 0 
L 4281 0 
L 4281 4097 
L 3078 897 
L 2444 897 
L 1241 4097 
L 1241 0 
L 628 0 
L 628 4666 
z
" transform="scale(0.015625)"/>
       <path id="DejaVuSans-5f" d="M 3263 -1063 
L 3263 -1509 
L -63 -1509 
L -63 -1063 
L 3263 -1063 
z
" transform="scale(0.015625)"/>
       <path id="DejaVuSans-44" d="M 1259 4147 
L 1259 519 
L 2022 519 
Q 2988 519 3436 956 
Q 3884 1394 3884 2338 
Q 3884 3275 3436 3711 
Q 2988 4147 2022 4147 
L 1259 4147 
z
M 628 4666 
L 1925 4666 
Q 3281 4666 3915 4102 
Q 4550 3538 4550 2338 
Q 4550 1131 3912 565 
Q 3275 0 1925 0 
L 628 0 
L 628 4666 
z
" transform="scale(0.015625)"/>
       <path id="DejaVuSans-50" d="M 1259 4147 
L 1259 2394 
L 2053 2394 
Q 2494 2394 2734 2622 
Q 2975 2850 2975 3272 
Q 2975 3691 2734 3919 
Q 2494 4147 2053 4147 
L 1259 4147 
z
M 628 4666 
L 2053 4666 
Q 2838 4666 3239 4311 
Q 3641 3956 3641 3272 
Q 3641 2581 3239 2228 
Q 2838 1875 2053 1875 
L 1259 1875 
L 1259 0 
L 628 0 
L 628 4666 
z
" transform="scale(0.015625)"/>
      </defs>
      <use xlink:href="#DejaVuSans-54"/>
      <use xlink:href="#DejaVuSans-46" x="61.083984"/>
      <use xlink:href="#DejaVuSans-53" x="116.853516"/>
      <use xlink:href="#DejaVuSans-4d" x="180.330078"/>
      <use xlink:href="#DejaVuSans-5f" x="266.609375"/>
      <use xlink:href="#DejaVuSans-44" x="316.609375"/>
      <use xlink:href="#DejaVuSans-50" x="393.611328"/>
      <use xlink:href="#DejaVuSans-43" x="453.914062"/>
     </g>
    </g>
    <g id="line2d_39">
     <path d="M 475.826562 230.904063 
L 485.826562 230.904063 
L 495.826562 230.904063 
" style="fill: none; stroke: #d62728; stroke-width: 1.8; stroke-linecap: square"/>
    </g>
    <g id="text_22">
     <!-- DST_WOA -->
     <g transform="translate(503.826562 234.404063) scale(0.1 -0.1)">
      <defs>
       <path id="DejaVuSans-57" d="M 213 4666 
L 850 4666 
L 1831 722 
L 2809 4666 
L 3519 4666 
L 4500 722 
L 5478 4666 
L 6119 4666 
L 4947 0 
L 4153 0 
L 3169 4050 
L 2175 0 
L 1381 0 
L 213 4666 
z
" transform="scale(0.015625)"/>
       <path id="DejaVuSans-4f" d="M 2522 4238 
Q 1834 4238 1429 3725 
Q 1025 3213 1025 2328 
Q 1025 1447 1429 934 
Q 1834 422 2522 422 
Q 3209 422 3611 934 
Q 4013 1447 4013 2328 
Q 4013 3213 3611 3725 
Q 3209 4238 2522 4238 
z
M 2522 4750 
Q 3503 4750 4090 4092 
Q 4678 3434 4678 2328 
Q 4678 1225 4090 567 
Q 3503 -91 2522 -91 
Q 1538 -91 948 565 
Q 359 1222 359 2328 
Q 359 3434 948 4092 
Q 1538 4750 2522 4750 
z
" transform="scale(0.015625)"/>
      </defs>
      <use xlink:href="#DejaVuSans-44"/>
      <use xlink:href="#DejaVuSans-53" x="77.001953"/>
      <use xlink:href="#DejaVuSans-54" x="140.478516"/>
      <use xlink:href="#DejaVuSans-5f" x="201.5625"/>
      <use xlink:href="#DejaVuSans-57" x="251.5625"/>
      <use xlink:href="#DejaVuSans-4f" x="350.439453"/>
      <use xlink:href="#DejaVuSans-41" x="427.400391"/>
     </g>
    </g>
    <g id="line2d_40">
     <path d="M 475.826562 245.860313 
L 485.826562 245.860313 
L 495.826562 245.860313 
" style="fill: none; stroke: #9467bd; stroke-width: 1.8; stroke-linecap: square"/>
    </g>
    <g id="text_23">
     <!-- TRAIL -->
     <g transform="translate(503.826562 249.360313) scale(0.1 -0.1)">
      <defs>
       <path id="DejaVuSans-49" d="M 628 4666 
L 1259 4666 
L 1259 0 
L 628 0 
L 628 4666 
z
" transform="scale(0.015625)"/>
       <path id="DejaVuSans-4c" d="M 628 4666 
L 1259 4666 
L 1259 531 
L 3531 531 
L 3531 0 
L 628 0 
L 628 4666 
z
" transform="scale(0.015625)"/>
      </defs>
      <use xlink:href="#DejaVuSans-54"/>
      <use xlink:href="#DejaVuSans-52" x="61.083984"/>
      <use xlink:href="#DejaVuSans-41" x="126.566406"/>
      <use xlink:href="#DejaVuSans-49" x="194.974609"/>
      <use xlink:href="#DejaVuSans-4c" x="224.466797"/>
     </g>
    </g>
   </g>
  </g>
 </g>
 <defs>
  <clipPath id="p4231d3c333">
   <rect x="54.2" y="25.44" width="511" height="235"/>
  </clipPath>
 </defs>
</svg>
