<?xml version="1.0" encoding="utf-8" standalone="no"?>
<!DOCTYPE svg PUBLIC "-//W3C//DTD SVG 1.1//EN"
  "http://www.w3.org/Graphics/SVG/1.1/DTD/svg11.dtd">
<svg xmlns:xlink="http://www.w3.org/1999/xlink" width="576pt" height="302.4pt" viewBox="0 0 576 302.4" xmlns="http://www.w3.org/2000/svg" version="1.1">
 <metadata>
  <rdf:RDF xmlns:dc="http://purl.org/dc/elements/1.1/" xmlns:cc="http://creativecommons.org/ns#" xmlns:rdf="http://www.w3.org/1999/02/22-rdf-syntax-ns#">
   <cc:Work>
    <dc:type rdf:resource="http://purl.org/dc/dcmitype/StillImage"/>
    <dc:date>2025-09-07T18:17:13.573762</dc:date>
    <dc:format>image/svg+xml</dc:format>
    <dc:creator>
     <cc:Agent>
      <dc:title>Matplotlib v3.9.4, https://matplotlib.org/</dc:title>
     </cc:Agent>
    </dc:creator>
   </cc:Work>
  </rdf:RDF>
 </metadata>
 <defs>
  <style type="text/css">*{stroke-linejoin: round; stroke-linecap: butt}</style>
 </defs>
 <g id="figure_1">
  <g id="patch_1">
   <path d="M 0 302.4 
L 576 302.4 
L 576 0 
L 0 0 
z
" style="fill: #ffffff"/>
  </g>
  <g id="axes_1">
   <g id="patch_2">
    <path d="M 47.81 260.44 
L 565.2 260.44 
L 565.2 25.44 
L 47.81 25.44 
z
" style="fill: #ffffff"/>
   </g>
   <g id="matplotlib.axis_1">
    <g id="xtick_1">
     <g id="line2d_1">
      <path d="M 71.277535 260.44 
L 71.277535 25.44 
" clip-path="url(#p0aba2fccee)" style="fill: none; stroke-dasharray: 2.96,1.28; stroke-dashoffset: 0; stroke: #b0b0b0; stroke-opacity: 0.3; stroke-width: 0.8"/>
     </g>
     <g id="line2d_2">
      <defs>
       <path id="mf4cbcfd361" d="M 0 0 
L 0 3.5 
" style="stroke: #000000; stroke-width: 0.8"/>
      </defs>
      <g>
       <use xlink:href="#mf4cbcfd361" x="71.277535" y="260.44" style="stroke: #000000; stroke-width: 0.8"/>
      </g>
     </g>
     <g id="text_1">
      <!-- 0 -->
      <g transform="translate(68.096285 275.038438) scale(0.1 -0.1)">
       <defs>
        <path id="DejaVuSans-30" d="M 2034 4250 
Q 1547 4250 1301 3770 
Q 1056 3291 1056 2328 
Q 1056 1369 1301 889 
Q 1547 409 2034 409 
Q 2525 409 2770 889 
Q 3016 1369 3016 2328 
Q 3016 3291 2770 3770 
Q 2525 4250 2034 4250 
z
M 2034 4750 
Q 2819 4750 3233 4129 
Q 3647 3509 3647 2328 
Q 3647 1150 3233 529 
Q 2819 -91 2034 -91 
Q 1250 -91 836 529 
Q 422 1150 422 2328 
Q 422 3509 836 4129 
Q 1250 4750 2034 4750 
z
" transform="scale(0.015625)"/>
       </defs>
       <use xlink:href="#DejaVuSans-30"/>
      </g>
     </g>
    </g>
    <g id="xtick_2">
     <g id="line2d_3">
      <path d="M 171.662669 260.44 
L 171.662669 25.44 
" clip-path="url(#p0aba2fccee)" style="fill: none; stroke-dasharray: 2.96,1.28; stroke-dashoffset: 0; stroke: #b0b0b0; stroke-opacity: 0.3; stroke-width: 0.8"/>
     </g>
     <g id="line2d_4">
      <g>
       <use xlink:href="#mf4cbcfd361" x="171.662669" y="260.44" style="stroke: #000000; stroke-width: 0.8"/>
      </g>
     </g>
     <g id="text_2">
      <!-- 2000 -->
      <g transform="translate(158.937669 275.038438) scale(0.1 -0.1)">
       <defs>
        <path id="DejaVuSans-32" d="M 1228 531 
L 3431 531 
L 3431 0 
L 469 0 
L 469 531 
Q 828 903 1448 1529 
Q 2069 2156 2228 2338 
Q 2531 2678 2651 2914 
Q 2772 3150 2772 3378 
Q 2772 3750 2511 3984 
Q 2250 4219 1831 4219 
Q 1534 4219 1204 4116 
Q 875 4013 500 3803 
L 500 4441 
Q 881 4594 1212 4672 
Q 1544 4750 1819 4750 
Q 2544 4750 2975 4387 
Q 3406 4025 3406 3419 
Q 3406 3131 3298 2873 
Q 3191 2616 2906 2266 
Q 2828 2175 2409 1742 
Q 1991 1309 1228 531 
z
" transform="scale(0.015625)"/>
       </defs>
       <use xlink:href="#DejaVuSans-32"/>
       <use xlink:href="#DejaVuSans-30" x="63.623047"/>
       <use xlink:href="#DejaVuSans-30" x="127.246094"/>
       <use xlink:href="#DejaVuSans-30" x="190.869141"/>
      </g>
     </g>
    </g>
    <g id="xtick_3">
     <g id="line2d_5">
      <path d="M 272.047803 260.44 
L 272.047803 25.44 
" clip-path="url(#p0aba2fccee)" style="fill: none; stroke-dasharray: 2.96,1.28; stroke-dashoffset: 0; stroke: #b0b0b0; stroke-opacity: 0.3; stroke-width: 0.8"/>
     </g>
     <g id="line2d_6">
      <g>
       <use xlink:href="#mf4cbcfd361" x="272.047803" y="260.44" style="stroke: #000000; stroke-width: 0.8"/>
      </g>
     </g>
     <g id="text_3">
      <!-- 4000 -->
      <g transform="translate(259.322803 275.038438) scale(0.1 -0.1)">
       <defs>
        <path id="DejaVuSans-34" d="M 2419 4116 
L 825 1625 
L 2419 1625 
L 2419 4116 
z
M 2253 4666 
L 3047 4666 
L 3047 1625 
L 3713 1625 
L 3713 1100 
L 3047 1100 
L 3047 0 
L 2419 0 
L 2419 1100 
L 313 1100 
L 313 1709 
L 2253 4666 
z
" transform="scale(0.015625)"/>
       </defs>
       <use xlink:href="#DejaVuSans-34"/>
       <use xlink:href="#DejaVuSans-30" x="63.623047"/>
       <use xlink:href="#DejaVuSans-30" x="127.246094"/>
       <use xlink:href="#DejaVuSans-30" x="190.869141"/>
      </g>
     </g>
    </g>
    <g id="xtick_4">
     <g id="line2d_7">
      <path d="M 372.432937 260.44 
L 372.432937 25.44 
" clip-path="url(#p0aba2fccee)" style="fill: none; stroke-dasharray: 2.96,1.28; stroke-dashoffset: 0; stroke: #b0b0b0; stroke-opacity: 0.3; stroke-width: 0.8"/>
     </g>
     <g id="line2d_8">
      <g>
       <use xlink:href="#mf4cbcfd361" x="372.432937" y="260.44" style="stroke: #000000; stroke-width: 0.8"/>
      </g>
     </g>
     <g id="text_4">
      <!-- 6000 -->
      <g transform="translate(359.707937 275.038438) scale(0.1 -0.1)">
       <defs>
        <path id="DejaVuSans-36" d="M 2113 2584 
Q 1688 2584 1439 2293 
Q 1191 2003 1191 1497 
Q 1191 994 1439 701 
Q 1688 409 2113 409 
Q 2538 409 2786 701 
Q 3034 994 3034 1497 
Q 3034 2003 2786 2293 
Q 2538 2584 2113 2584 
z
M 3366 4563 
L 3366 3988 
Q 3128 4100 2886 4159 
Q 2644 4219 2406 4219 
Q 1781 4219 1451 3797 
Q 1122 3375 1075 2522 
Q 1259 2794 1537 2939 
Q 1816 3084 2150 3084 
Q 2853 3084 3261 2657 
Q 3669 2231 3669 1497 
Q 3669 778 3244 343 
Q 2819 -91 2113 -91 
Q 1303 -91 875 529 
Q 447 1150 447 2328 
Q 447 3434 972 4092 
Q 1497 4750 2381 4750 
Q 2619 4750 2861 4703 
Q 3103 4656 3366 4563 
z
" transform="scale(0.015625)"/>
       </defs>
       <use xlink:href="#DejaVuSans-36"/>
       <use xlink:href="#DejaVuSans-30" x="63.623047"/>
       <use xlink:href="#DejaVuSans-30" x="127.246094"/>
       <use xlink:href="#DejaVuSans-30" x="190.869141"/>
      </g>
     </g>
    </g>
    <g id="xtick_5">
     <g id="line2d_9">
      <path d="M 472.818071 260.44 
L 472.818071 25.44 
" clip-path="url(#p0aba2fccee)" style="fill: none; stroke-dasharray: 2.96,1.28; stroke-dashoffset: 0; stroke: #b0b0b0; stroke-opacity: 0.3; stroke-width: 0.8"/>
     </g>
     <g id="line2d_10">
      <g>
       <use xlink:href="#mf4cbcfd361" x="472.818071" y="260.44" style="stroke: #000000; stroke-width: 0.8"/>
      </g>
     </g>
     <g id="text_5">
      <!-- 8000 -->
      <g transform="translate(460.093071 275.038438) scale(0.1 -0.1)">
       <defs>
        <path id="DejaVuSans-38" d="M 2034 2216 
Q 1584 2216 1326 1975 
Q 1069 1734 1069 1313 
Q 1069 891 1326 650 
Q 1584 409 2034 409 
Q 2484 409 2743 651 
Q 3003 894 3003 1313 
Q 3003 1734 2745 1975 
Q 2488 2216 2034 2216 
z
M 1403 2484 
Q 997 2584 770 2862 
Q 544 3141 544 3541 
Q 544 4100 942 4425 
Q 1341 4750 2034 4750 
Q 2731 4750 3128 4425 
Q 3525 4100 3525 3541 
Q 3525 3141 3298 2862 
Q 3072 2584 2669 2484 
Q 3125 2378 3379 2068 
Q 3634 1759 3634 1313 
Q 3634 634 3220 271 
Q 2806 -91 2034 -91 
Q 1263 -91 848 271 
Q 434 634 434 1313 
Q 434 1759 690 2068 
Q 947 2378 1403 2484 
z
M 1172 3481 
Q 1172 3119 1398 2916 
Q 1625 2713 2034 2713 
Q 2441 2713 2670 2916 
Q 2900 3119 2900 3481 
Q 2900 3844 2670 4047 
Q 2441 4250 2034 4250 
Q 1625 4250 1398 4047 
Q 1172 3844 1172 3481 
z
" transform="scale(0.015625)"/>
       </defs>
       <use xlink:href="#DejaVuSans-38"/>
       <use xlink:href="#DejaVuSans-30" x="63.623047"/>
       <use xlink:href="#DejaVuSans-30" x="127.246094"/>
       <use xlink:href="#DejaVuSans-30" x="190.869141"/>
      </g>
     </g>
    </g>
    <g id="text_6">
     <!-- round -->
     <g transform="translate(291.990937 288.716563) scale(0.1 -0.1)">
      <defs>
       <path id="DejaVuSans-72" d="M 2631 2963 
Q 2534 3019 2420 3045 
Q 2306 3072 2169 3072 
Q 1681 3072 1420 2755 
Q 1159 2438 1159 1844 
L 1159 0 
L 581 0 
L 581 3500 
L 1159 3500 
L 1159 2956 
Q 1341 3275 1631 3429 
Q 1922 3584 2338 3584 
Q 2397 3584 2469 3576 
Q 2541 3569 2628 3553 
L 2631 2963 
z
" transform="scale(0.015625)"/>
       <path id="DejaVuSans-6f" d="M 1959 3097 
Q 1497 3097 1228 2736 
Q 959 2375 959 1747 
Q 959 1119 1226 758 
Q 1494 397 1959 397 
Q 2419 397 2687 759 
Q 2956 1122 2956 1747 
Q 2956 2369 2687 2733 
Q 2419 3097 1959 3097 
z
M 1959 3584 
Q 2709 3584 3137 3096 
Q 3566 2609 3566 1747 
Q 3566 888 3137 398 
Q 2709 -91 1959 -91 
Q 1206 -91 779 398 
Q 353 888 353 1747 
Q 353 2609 779 3096 
Q 1206 3584 1959 3584 
z
" transform="scale(0.015625)"/>
       <path id="DejaVuSans-75" d="M 544 1381 
L 544 3500 
L 1119 3500 
L 1119 1403 
Q 1119 906 1312 657 
Q 1506 409 1894 409 
Q 2359 409 2629 706 
Q 2900 1003 2900 1516 
L 2900 3500 
L 3475 3500 
L 3475 0 
L 2900 0 
L 2900 538 
Q 2691 219 2414 64 
Q 2138 -91 1772 -91 
Q 1169 -91 856 284 
Q 544 659 544 1381 
z
M 1991 3584 
L 1991 3584 
z
" transform="scale(0.015625)"/>
       <path id="DejaVuSans-6e" d="M 3513 2113 
L 3513 0 
L 2938 0 
L 2938 2094 
Q 2938 2591 2744 2837 
Q 2550 3084 2163 3084 
Q 1697 3084 1428 2787 
Q 1159 2491 1159 1978 
L 1159 0 
L 581 0 
L 581 3500 
L 1159 3500 
L 1159 2956 
Q 1366 3272 1645 3428 
Q 1925 3584 2291 3584 
Q 2894 3584 3203 3211 
Q 3513 2838 3513 2113 
z
" transform="scale(0.015625)"/>
       <path id="DejaVuSans-64" d="M 2906 2969 
L 2906 4863 
L 3481 4863 
L 3481 0 
L 2906 0 
L 2906 525 
Q 2725 213 2448 61 
Q 2172 -91 1784 -91 
Q 1150 -91 751 415 
Q 353 922 353 1747 
Q 353 2572 751 3078 
Q 1150 3584 1784 3584 
Q 2172 3584 2448 3432 
Q 2725 3281 2906 2969 
z
M 947 1747 
Q 947 1113 1208 752 
Q 1469 391 1925 391 
Q 2381 391 2643 752 
Q 2906 1113 2906 1747 
Q 2906 2381 2643 2742 
Q 2381 3103 1925 3103 
Q 1469 3103 1208 2742 
Q 947 2381 947 1747 
z
" transform="scale(0.015625)"/>
      </defs>
      <use xlink:href="#DejaVuSans-72"/>
      <use xlink:href="#DejaVuSans-6f" x="38.863281"/>
      <use xlink:href="#DejaVuSans-75" x="100.044922"/>
      <use xlink:href="#DejaVuSans-6e" x="163.423828"/>
      <use xlink:href="#DejaVuSans-64" x="226.802734"/>
     </g>
    </g>
   </g>
   <g id="matplotlib.axis_2">
    <g id="ytick_1">
     <g id="line2d_11">
      <path d="M 47.81 253.642479 
L 565.2 253.642479 
" clip-path="url(#p0aba2fccee)" style="fill: none; stroke-dasharray: 2.96,1.28; stroke-dashoffset: 0; stroke: #b0b0b0; stroke-opacity: 0.3; stroke-width: 0.8"/>
     </g>
     <g id="line2d_12">
      <defs>
       <path id="m4789676789" d="M 0 0 
L -3.5 0 
" style="stroke: #000000; stroke-width: 0.8"/>
      </defs>
      <g>
       <use xlink:href="#m4789676789" x="47.81" y="253.642479" style="stroke: #000000; stroke-width: 0.8"/>
      </g>
     </g>
     <g id="text_7">
      <!-- 0.5 -->
      <g transform="translate(24.906875 257.441698) scale(0.1 -0.1)">
       <defs>
        <path id="DejaVuSans-2e" d="M 684 794 
L 1344 794 
L 1344 0 
L 684 0 
L 684 794 
z
" transform="scale(0.015625)"/>
        <path id="DejaVuSans-35" d="M 691 4666 
L 3169 4666 
L 3169 4134 
L 1269 4134 
L 1269 2991 
Q 1406 3038 1543 3061 
Q 1681 3084 1819 3084 
Q 2600 3084 3056 2656 
Q 3513 2228 3513 1497 
Q 3513 744 3044 326 
Q 2575 -91 1722 -91 
Q 1428 -91 1123 -41 
Q 819 9 494 109 
L 494 744 
Q 775 591 1075 516 
Q 1375 441 1709 441 
Q 2250 441 2565 725 
Q 2881 1009 2881 1497 
Q 2881 1984 2565 2268 
Q 2250 2553 1709 2553 
Q 1456 2553 1204 2497 
Q 953 2441 691 2322 
L 691 4666 
z
" transform="scale(0.015625)"/>
       </defs>
       <use xlink:href="#DejaVuSans-30"/>
       <use xlink:href="#DejaVuSans-2e" x="63.623047"/>
       <use xlink:href="#DejaVuSans-35" x="95.410156"/>
      </g>
     </g>
    </g>
    <g id="ytick_2">
     <g id="line2d_13">
      <path d="M 47.81 210.138347 
L 565.2 210.138347 
" clip-path="url(#p0aba2fccee)" style="fill: none; stroke-dasharray: 2.96,1.28; stroke-dashoffset: 0; stroke: #b0b0b0; stroke-opacity: 0.3; stroke-width: 0.8"/>
     </g>
     <g id="line2d_14">
      <g>
       <use xlink:href="#m4789676789" x="47.81" y="210.138347" style="stroke: #000000; stroke-width: 0.8"/>
      </g>
     </g>
     <g id="text_8">
      <!-- 0.6 -->
      <g transform="translate(24.906875 213.937566) scale(0.1 -0.1)">
       <use xlink:href="#DejaVuSans-30"/>
       <use xlink:href="#DejaVuSans-2e" x="63.623047"/>
       <use xlink:href="#DejaVuSans-36" x="95.410156"/>
      </g>
     </g>
    </g>
    <g id="ytick_3">
     <g id="line2d_15">
      <path d="M 47.81 166.634215 
L 565.2 166.634215 
" clip-path="url(#p0aba2fccee)" style="fill: none; stroke-dasharray: 2.96,1.28; stroke-dashoffset: 0; stroke: #b0b0b0; stroke-opacity: 0.3; stroke-width: 0.8"/>
     </g>
     <g id="line2d_16">
      <g>
       <use xlink:href="#m4789676789" x="47.81" y="166.634215" style="stroke: #000000; stroke-width: 0.8"/>
      </g>
     </g>
     <g id="text_9">
      <!-- 0.7 -->
      <g transform="translate(24.906875 170.433434) scale(0.1 -0.1)">
       <defs>
        <path id="DejaVuSans-37" d="M 525 4666 
L 3525 4666 
L 3525 4397 
L 1831 0 
L 1172 0 
L 2766 4134 
L 525 4134 
L 525 4666 
z
" transform="scale(0.015625)"/>
       </defs>
       <use xlink:href="#DejaVuSans-30"/>
       <use xlink:href="#DejaVuSans-2e" x="63.623047"/>
       <use xlink:href="#DejaVuSans-37" x="95.410156"/>
      </g>
     </g>
    </g>
    <g id="ytick_4">
     <g id="line2d_17">
      <path d="M 47.81 123.130083 
L 565.2 123.130083 
" clip-path="url(#p0aba2fccee)" style="fill: none; stroke-dasharray: 2.96,1.28; stroke-dashoffset: 0; stroke: #b0b0b0; stroke-opacity: 0.3; stroke-width: 0.8"/>
     </g>
     <g id="line2d_18">
      <g>
       <use xlink:href="#m4789676789" x="47.81" y="123.130083" style="stroke: #000000; stroke-width: 0.8"/>
      </g>
     </g>
     <g id="text_10">
      <!-- 0.8 -->
      <g transform="translate(24.906875 126.929301) scale(0.1 -0.1)">
       <use xlink:href="#DejaVuSans-30"/>
       <use xlink:href="#DejaVuSans-2e" x="63.623047"/>
       <use xlink:href="#DejaVuSans-38" x="95.410156"/>
      </g>
     </g>
    </g>
    <g id="ytick_5">
     <g id="line2d_19">
      <path d="M 47.81 79.62595 
L 565.2 79.62595 
" clip-path="url(#p0aba2fccee)" style="fill: none; stroke-dasharray: 2.96,1.28; stroke-dashoffset: 0; stroke: #b0b0b0; stroke-opacity: 0.3; stroke-width: 0.8"/>
     </g>
     <g id="line2d_20">
      <g>
       <use xlink:href="#m4789676789" x="47.81" y="79.62595" style="stroke: #000000; stroke-width: 0.8"/>
      </g>
     </g>
     <g id="text_11">
      <!-- 0.9 -->
      <g transform="translate(24.906875 83.425169) scale(0.1 -0.1)">
       <defs>
        <path id="DejaVuSans-39" d="M 703 97 
L 703 672 
Q 941 559 1184 500 
Q 1428 441 1663 441 
Q 2288 441 2617 861 
Q 2947 1281 2994 2138 
Q 2813 1869 2534 1725 
Q 2256 1581 1919 1581 
Q 1219 1581 811 2004 
Q 403 2428 403 3163 
Q 403 3881 828 4315 
Q 1253 4750 1959 4750 
Q 2769 4750 3195 4129 
Q 3622 3509 3622 2328 
Q 3622 1225 3098 567 
Q 2575 -91 1691 -91 
Q 1453 -91 1209 -44 
Q 966 3 703 97 
z
M 1959 2075 
Q 2384 2075 2632 2365 
Q 2881 2656 2881 3163 
Q 2881 3666 2632 3958 
Q 2384 4250 1959 4250 
Q 1534 4250 1286 3958 
Q 1038 3666 1038 3163 
Q 1038 2656 1286 2365 
Q 1534 2075 1959 2075 
z
" transform="scale(0.015625)"/>
       </defs>
       <use xlink:href="#DejaVuSans-30"/>
       <use xlink:href="#DejaVuSans-2e" x="63.623047"/>
       <use xlink:href="#DejaVuSans-39" x="95.410156"/>
      </g>
     </g>
    </g>
    <g id="ytick_6">
     <g id="line2d_21">
      <path d="M 47.81 36.121818 
L 565.2 36.121818 
" clip-path="url(#p0aba2fccee)" style="fill: none; stroke-dasharray: 2.96,1.28; stroke-dashoffset: 0; stroke: #b0b0b0; stroke-opacity: 0.3; stroke-width: 0.8"/>
     </g>
     <g id="line2d_22">
      <g>
       <use xlink:href="#m4789676789" x="47.81" y="36.121818" style="stroke: #000000; stroke-width: 0.8"/>
      </g>
     </g>
     <g id="text_12">
      <!-- 1.0 -->
      <g transform="translate(24.906875 39.921037) scale(0.1 -0.1)">
       <defs>
        <path id="DejaVuSans-31" d="M 794 531 
L 1825 531 
L 1825 4091 
L 703 3866 
L 703 4441 
L 1819 4666 
L 2450 4666 
L 2450 531 
L 3481 531 
L 3481 0 
L 794 0 
L 794 531 
z
" transform="scale(0.015625)"/>
       </defs>
       <use xlink:href="#DejaVuSans-31"/>
       <use xlink:href="#DejaVuSans-2e" x="63.623047"/>
       <use xlink:href="#DejaVuSans-30" x="95.410156"/>
      </g>
     </g>
    </g>
    <g id="text_13">
     <!-- cumulative timely transfer rate -->
     <g transform="translate(18.827188 221.048594) rotate(-90) scale(0.1 -0.1)">
      <defs>
       <path id="DejaVuSans-63" d="M 3122 3366 
L 3122 2828 
Q 2878 2963 2633 3030 
Q 2388 3097 2138 3097 
Q 1578 3097 1268 2742 
Q 959 2388 959 1747 
Q 959 1106 1268 751 
Q 1578 397 2138 397 
Q 2388 397 2633 464 
Q 2878 531 3122 666 
L 3122 134 
Q 2881 22 2623 -34 
Q 2366 -91 2075 -91 
Q 1284 -91 818 406 
Q 353 903 353 1747 
Q 353 2603 823 3093 
Q 1294 3584 2113 3584 
Q 2378 3584 2631 3529 
Q 2884 3475 3122 3366 
z
" transform="scale(0.015625)"/>
       <path id="DejaVuSans-6d" d="M 3328 2828 
Q 3544 3216 3844 3400 
Q 4144 3584 4550 3584 
Q 5097 3584 5394 3201 
Q 5691 2819 5691 2113 
L 5691 0 
L 5113 0 
L 5113 2094 
Q 5113 2597 4934 2840 
Q 4756 3084 4391 3084 
Q 3944 3084 3684 2787 
Q 3425 2491 3425 1978 
L 3425 0 
L 2847 0 
L 2847 2094 
Q 2847 2600 2669 2842 
Q 2491 3084 2119 3084 
Q 1678 3084 1418 2786 
Q 1159 2488 1159 1978 
L 1159 0 
L 581 0 
L 581 3500 
L 1159 3500 
L 1159 2956 
Q 1356 3278 1631 3431 
Q 1906 3584 2284 3584 
Q 2666 3584 2933 3390 
Q 3200 3197 3328 2828 
z
" transform="scale(0.015625)"/>
       <path id="DejaVuSans-6c" d="M 603 4863 
L 1178 4863 
L 1178 0 
L 603 0 
L 603 4863 
z
" transform="scale(0.015625)"/>
       <path id="DejaVuSans-61" d="M 2194 1759 
Q 1497 1759 1228 1600 
Q 959 1441 959 1056 
Q 959 750 1161 570 
Q 1363 391 1709 391 
Q 2188 391 2477 730 
Q 2766 1069 2766 1631 
L 2766 1759 
L 2194 1759 
z
M 3341 1997 
L 3341 0 
L 2766 0 
L 2766 531 
Q 2569 213 2275 61 
Q 1981 -91 1556 -91 
Q 1019 -91 701 211 
Q 384 513 384 1019 
Q 384 1609 779 1909 
Q 1175 2209 1959 2209 
L 2766 2209 
L 2766 2266 
Q 2766 2663 2505 2880 
Q 2244 3097 1772 3097 
Q 1472 3097 1187 3025 
Q 903 2953 641 2809 
L 641 3341 
Q 956 3463 1253 3523 
Q 1550 3584 1831 3584 
Q 2591 3584 2966 3190 
Q 3341 2797 3341 1997 
z
" transform="scale(0.015625)"/>
       <path id="DejaVuSans-74" d="M 1172 4494 
L 1172 3500 
L 2356 3500 
L 2356 3053 
L 1172 3053 
L 1172 1153 
Q 1172 725 1289 603 
Q 1406 481 1766 481 
L 2356 481 
L 2356 0 
L 1766 0 
Q 1100 0 847 248 
Q 594 497 594 1153 
L 594 3053 
L 172 3053 
L 172 3500 
L 594 3500 
L 594 4494 
L 1172 4494 
z
" transform="scale(0.015625)"/>
       <path id="DejaVuSans-69" d="M 603 3500 
L 1178 3500 
L 1178 0 
L 603 0 
L 603 3500 
z
M 603 4863 
L 1178 4863 
L 1178 4134 
L 603 4134 
L 603 4863 
z
" transform="scale(0.015625)"/>
       <path id="DejaVuSans-76" d="M 191 3500 
L 800 3500 
L 1894 563 
L 2988 3500 
L 3597 3500 
L 2284 0 
L 1503 0 
L 191 3500 
z
" transform="scale(0.015625)"/>
       <path id="DejaVuSans-65" d="M 3597 1894 
L 3597 1613 
L 953 1613 
Q 991 1019 1311 708 
Q 1631 397 2203 397 
Q 2534 397 2845 478 
Q 3156 559 3463 722 
L 3463 178 
Q 3153 47 2828 -22 
Q 2503 -91 2169 -91 
Q 1331 -91 842 396 
Q 353 884 353 1716 
Q 353 2575 817 3079 
Q 1281 3584 2069 3584 
Q 2775 3584 3186 3129 
Q 3597 2675 3597 1894 
z
M 3022 2063 
Q 3016 2534 2758 2815 
Q 2500 3097 2075 3097 
Q 1594 3097 1305 2825 
Q 1016 2553 972 2059 
L 3022 2063 
z
" transform="scale(0.015625)"/>
       <path id="DejaVuSans-20" transform="scale(0.015625)"/>
       <path id="DejaVuSans-79" d="M 2059 -325 
Q 1816 -950 1584 -1140 
Q 1353 -1331 966 -1331 
L 506 -1331 
L 506 -850 
L 844 -850 
Q 1081 -850 1212 -737 
Q 1344 -625 1503 -206 
L 1606 56 
L 191 3500 
L 800 3500 
L 1894 763 
L 2988 3500 
L 3597 3500 
L 2059 -325 
z
" transform="scale(0.015625)"/>
       <path id="DejaVuSans-73" d="M 2834 3397 
L 2834 2853 
Q 2591 2978 2328 3040 
Q 2066 3103 1784 3103 
Q 1356 3103 1142 2972 
Q 928 2841 928 2578 
Q 928 2378 1081 2264 
Q 1234 2150 1697 2047 
L 1894 2003 
Q 2506 1872 2764 1633 
Q 3022 1394 3022 966 
Q 3022 478 2636 193 
Q 2250 -91 1575 -91 
Q 1294 -91 989 -36 
Q 684 19 347 128 
L 347 722 
Q 666 556 975 473 
Q 1284 391 1588 391 
Q 1994 391 2212 530 
Q 2431 669 2431 922 
Q 2431 1156 2273 1281 
Q 2116 1406 1581 1522 
L 1381 1569 
Q 847 1681 609 1914 
Q 372 2147 372 2553 
Q 372 3047 722 3315 
Q 1072 3584 1716 3584 
Q 2034 3584 2315 3537 
Q 2597 3491 2834 3397 
z
" transform="scale(0.015625)"/>
       <path id="DejaVuSans-66" d="M 2375 4863 
L 2375 4384 
L 1825 4384 
Q 1516 4384 1395 4259 
Q 1275 4134 1275 3809 
L 1275 3500 
L 2222 3500 
L 2222 3053 
L 1275 3053 
L 1275 0 
L 697 0 
L 697 3053 
L 147 3053 
L 147 3500 
L 697 3500 
L 697 3744 
Q 697 4328 969 4595 
Q 1241 4863 1831 4863 
L 2375 4863 
z
" transform="scale(0.015625)"/>
      </defs>
      <use xlink:href="#DejaVuSans-63"/>
      <use xlink:href="#DejaVuSans-75" x="54.980469"/>
      <use xlink:href="#DejaVuSans-6d" x="118.359375"/>
      <use xlink:href="#DejaVuSans-75" x="215.771484"/>
      <use xlink:href="#DejaVuSans-6c" x="279.150391"/>
      <use xlink:href="#DejaVuSans-61" x="306.933594"/>
      <use xlink:href="#DejaVuSans-74" x="368.212891"/>
      <use xlink:href="#DejaVuSans-69" x="407.421875"/>
      <use xlink:href="#DejaVuSans-76" x="435.205078"/>
      <use xlink:href="#DejaVuSans-65" x="494.384766"/>
      <use xlink:href="#DejaVuSans-20" x="555.908203"/>
      <use xlink:href="#DejaVuSans-74" x="587.695312"/>
      <use xlink:href="#DejaVuSans-69" x="626.904297"/>
      <use xlink:href="#DejaVuSans-6d" x="654.6875"/>
      <use xlink:href="#DejaVuSans-65" x="752.099609"/>
      <use xlink:href="#DejaVuSans-6c" x="813.623047"/>
      <use xlink:href="#DejaVuSans-79" x="841.40625"/>
      <use xlink:href="#DejaVuSans-20" x="900.585938"/>
      <use xlink:href="#DejaVuSans-74" x="932.373047"/>
      <use xlink:href="#DejaVuSans-72" x="971.582031"/>
      <use xlink:href="#DejaVuSans-61" x="1012.695312"/>
      <use xlink:href="#DejaVuSans-6e" x="1073.974609"/>
      <use xlink:href="#DejaVuSans-73" x="1137.353516"/>
      <use xlink:href="#DejaVuSans-66" x="1189.453125"/>
      <use xlink:href="#DejaVuSans-65" x="1224.658203"/>
      <use xlink:href="#DejaVuSans-72" x="1286.181641"/>
      <use xlink:href="#DejaVuSans-20" x="1327.294922"/>
      <use xlink:href="#DejaVuSans-72" x="1359.082031"/>
      <use xlink:href="#DejaVuSans-61" x="1400.195312"/>
      <use xlink:href="#DejaVuSans-74" x="1461.474609"/>
      <use xlink:href="#DejaVuSans-65" x="1500.683594"/>
     </g>
    </g>
   </g>
   <g id="line2d_23">
    <path d="M 71.327727 36.121818 
L 71.428112 36.121818 
L 71.478305 125.689149 
L 71.528498 111.314145 
L 71.729268 80.905484 
L 71.879846 124.819564 
L 72.482156 76.367932 
L 72.883697 65.032792 
L 73.33543 57.84802 
L 73.586393 55.335 
L 73.636585 60.512514 
L 73.73697 59.672283 
L 73.787163 59.262314 
L 73.937741 75.391035 
L 74.038126 74.211273 
L 74.138511 73.100331 
L 74.188704 77.503798 
L 74.238896 76.744192 
L 74.289089 76.011971 
L 74.339281 79.725807 
L 74.389474 78.971753 
L 74.841207 73.321827 
L 74.8914 76.026186 
L 74.941592 75.696188 
L 74.991785 75.322139 
L 75.09217 78.662759 
L 75.142362 78.402729 
L 75.192555 77.816556 
L 75.343133 83.276647 
L 75.393325 82.976298 
L 75.49371 81.967533 
L 75.543903 83.377147 
L 75.594095 82.983571 
L 75.694481 81.890808 
L 75.744673 83.165901 
L 75.794866 82.741631 
L 75.945443 81.28027 
L 75.995636 82.717615 
L 76.045829 82.295721 
L 76.146214 81.564253 
L 76.246599 83.852306 
L 76.296791 83.282458 
L 76.497562 81.339025 
L 76.547754 82.712326 
L 76.597947 82.336427 
L 76.748525 81.283795 
L 76.798717 82.619095 
L 76.84891 82.239933 
L 77.099872 80.342068 
L 77.45122 93.972174 
L 77.501413 93.598804 
L 77.601798 93.187171 
L 77.752376 96.307273 
L 78.053531 93.568815 
L 78.153916 98.727097 
L 78.204109 98.18829 
L 78.555457 95.364412 
L 78.605649 96.211901 
L 78.655842 97.272205 
L 78.756227 97.143334 
L 78.80642 98.010542 
L 78.856612 97.261372 
L 78.906805 97.235976 
L 79.20796 94.167058 
L 79.258153 94.741893 
L 79.308345 94.393624 
L 79.408731 93.494989 
L 79.458923 93.859492 
L 79.609501 93.130335 
L 79.659693 93.822271 
L 79.709886 93.410754 
L 80.061234 90.726422 
L 80.211812 92.27945 
L 80.262004 91.870118 
L 80.312197 93.505502 
L 80.362389 93.212796 
L 80.512967 92.185887 
L 80.56316 92.921882 
L 80.613352 92.615614 
L 80.76393 91.630402 
L 80.914508 92.21999 
L 80.9647 91.836822 
L 81.014893 92.309666 
L 81.065085 91.826102 
L 81.767781 85.669094 
L 81.817974 85.292692 
L 81.868166 85.689579 
L 82.420285 81.861107 
L 83.122981 77.224943 
L 83.173173 77.632891 
L 83.223366 77.376302 
L 83.424136 76.921131 
L 83.474328 77.557403 
L 83.574714 77.422394 
L 83.624906 77.203357 
L 83.675099 77.742214 
L 83.725291 77.392057 
L 83.926062 76.026029 
L 83.976254 76.533182 
L 84.026447 76.243495 
L 84.47818 73.802119 
L 84.578565 74.808285 
L 84.628758 74.566556 
L 84.929913 73.15912 
L 85.030298 72.83439 
L 85.080491 73.523799 
L 85.130683 73.393101 
L 85.231068 72.997638 
L 85.281261 73.328622 
L 85.331453 73.131343 
L 85.582416 71.750202 
L 86.385497 68.281113 
L 86.485883 68.084218 
L 86.83723 70.290027 
L 86.887423 70.19717 
L 87.088193 69.494285 
L 88.142237 65.756185 
L 88.443393 68.647938 
L 88.543778 68.343163 
L 89.045703 66.925102 
L 89.196281 66.513192 
L 89.397051 67.161081 
L 90.35071 64.380556 
L 90.501288 64.929963 
L 90.752251 64.414128 
L 90.852636 65.111152 
L 90.953021 64.96244 
L 91.053406 64.736608 
L 91.203984 65.640469 
L 91.254176 65.581398 
L 91.555332 67.840146 
L 91.605524 67.734291 
L 91.655717 68.005376 
L 91.705909 67.945471 
L 91.756102 67.844147 
L 91.956872 69.644159 
L 92.007065 69.525015 
L 92.057257 69.590619 
L 92.30822 70.086578 
L 92.358413 69.9445 
L 92.458798 70.357959 
L 92.508991 70.298677 
L 92.559183 70.212026 
L 92.659568 70.968906 
L 92.709761 70.901751 
L 92.860339 70.581783 
L 92.910531 70.783769 
L 92.960724 70.676272 
L 93.010916 70.573384 
L 93.312072 71.652351 
L 93.362264 71.533008 
L 93.512842 71.193346 
L 93.66342 71.484617 
L 93.713612 71.403176 
L 93.763805 71.509206 
L 93.914382 71.984257 
L 93.964575 71.88927 
L 94.014768 71.921996 
L 94.26573 73.204583 
L 94.315923 73.259773 
L 94.366116 73.14417 
L 94.416308 73.277639 
L 94.466501 73.195699 
L 94.516693 73.456605 
L 94.566886 73.357232 
L 94.767656 72.944061 
L 94.918234 73.827916 
L 94.968426 73.726184 
L 95.018619 73.78343 
L 95.068811 73.705191 
L 95.319774 75.566433 
L 95.470352 75.435641 
L 95.520545 75.7473 
L 95.570737 75.665174 
L 96.072663 74.736316 
L 96.122855 74.590035 
L 96.173048 74.623443 
L 96.373818 75.506584 
L 96.474203 76.228244 
L 96.524396 76.139912 
L 96.674974 76.077691 
L 96.825551 75.851711 
L 96.875744 75.933053 
L 96.925936 76.023062 
L 96.976129 75.891682 
L 97.327477 75.279259 
L 97.427862 75.481587 
L 97.478055 75.383161 
L 97.528247 75.302679 
L 97.77921 77.234857 
L 97.879595 77.617658 
L 97.97998 78.123334 
L 98.030173 78.017894 
L 98.080365 77.923811 
L 98.230943 78.409482 
L 98.381521 78.137807 
L 98.431713 78.587371 
L 98.481906 78.479604 
L 98.582291 78.294098 
L 98.632484 78.585829 
L 98.682676 78.491472 
L 98.883447 78.230193 
L 98.933639 78.316522 
L 99.084217 79.056012 
L 99.485757 79.654264 
L 99.686528 79.481418 
L 99.73672 79.654104 
L 99.786913 79.583788 
L 99.837105 79.522449 
L 99.987683 80.297391 
L 100.037876 80.230199 
L 100.088068 80.387777 
L 100.138261 80.329451 
L 100.188453 80.269518 
L 100.489609 81.210663 
L 100.539801 81.13613 
L 101.041727 80.564502 
L 101.342882 81.000431 
L 101.543653 80.676631 
L 101.644038 81.267771 
L 101.69423 81.197361 
L 101.744423 81.17358 
L 101.844808 81.694777 
L 101.895001 81.664187 
L 101.995386 81.492432 
L 102.045578 81.857597 
L 102.095771 81.775902 
L 102.296541 81.436949 
L 102.346734 81.496785 
L 102.396926 82.122876 
L 102.447119 82.024923 
L 102.497311 81.962653 
L 102.547504 82.48637 
L 102.597697 82.413618 
L 103.04943 81.859735 
L 103.149815 81.647229 
L 103.2502 81.890405 
L 103.300392 81.796218 
L 103.952896 80.711374 
L 104.053281 81.322665 
L 104.103474 81.224939 
L 104.304244 80.85801 
L 104.354436 81.12864 
L 104.404629 81.099642 
L 104.755977 80.586242 
L 104.806169 80.732505 
L 104.856362 80.650754 
L 105.107325 80.183898 
L 105.157517 80.268897 
L 105.20771 80.178987 
L 105.358288 79.954375 
L 105.458673 80.434598 
L 105.559058 80.272191 
L 106.412332 78.999208 
L 106.512717 79.435917 
L 106.613102 79.360863 
L 106.76368 79.148179 
L 106.813872 79.345313 
L 106.864065 79.249471 
L 107.265605 78.630257 
L 107.416183 78.984715 
L 107.667146 78.599811 
L 107.717338 78.810118 
L 107.767531 78.70204 
L 107.817723 78.609656 
L 107.867916 78.826052 
L 107.918109 78.751463 
L 108.118879 78.468143 
L 108.420034 79.187819 
L 108.470227 79.100251 
L 108.670997 79.439033 
L 108.72119 79.370442 
L 108.771382 79.569703 
L 108.821575 79.504887 
L 108.972153 79.261079 
L 109.022345 79.479814 
L 109.072538 79.412034 
L 109.3235 79.176039 
L 109.423886 79.039378 
L 109.474078 79.159948 
L 109.624656 79.475535 
L 109.674848 79.549676 
L 109.725041 79.455611 
L 109.925811 79.121273 
L 110.176774 79.523688 
L 110.277159 79.666236 
L 110.47793 79.528262 
L 110.87947 79.123948 
L 111.030048 79.062527 
L 111.281011 78.762545 
L 111.331203 78.873737 
L 111.481781 79.321229 
L 111.531973 79.266696 
L 111.582166 79.211168 
L 111.632359 79.269902 
L 111.782936 79.324746 
L 112.134284 78.953617 
L 112.234669 78.85109 
L 112.385247 79.15572 
L 112.736595 78.696625 
L 112.786788 78.797311 
L 112.887173 78.732067 
L 113.03775 78.568338 
L 113.087943 78.621279 
L 113.188328 78.599391 
L 113.439291 78.280796 
L 113.640061 78.639245 
L 113.840832 78.381634 
L 113.891024 78.471822 
L 113.991409 78.430344 
L 114.292565 78.123552 
L 114.443142 78.266315 
L 114.643913 78.066741 
L 114.694105 78.200698 
L 114.744298 78.172439 
L 115.145838 77.687918 
L 115.196031 77.755425 
L 115.296416 77.718577 
L 115.346609 77.670536 
L 115.396801 77.863348 
L 115.446994 77.806464 
L 115.697957 77.627778 
L 115.748149 77.719314 
L 115.798342 77.669969 
L 116.099497 77.401279 
L 116.55123 77.151819 
L 116.651615 77.13949 
L 117.354311 76.385566 
L 117.454696 76.32356 
L 118.257777 75.604368 
L 118.408355 75.723668 
L 118.709511 75.478926 
L 118.759703 75.608503 
L 118.809896 75.579449 
L 118.910281 75.488291 
L 119.111051 75.672729 
L 119.462399 75.305636 
L 119.713362 75.688596 
L 119.763554 75.640951 
L 120.566636 75.214106 
L 120.616828 75.303788 
L 120.667021 75.272211 
L 121.319524 74.771708 
L 121.82145 74.355667 
L 121.871642 74.491879 
L 121.921835 74.459529 
L 122.624531 73.954115 
L 122.674723 74.039249 
L 122.724916 73.991402 
L 122.775108 73.955597 
L 122.825301 74.08212 
L 122.875494 74.039597 
L 124.230693 73.060072 
L 124.381271 73.176176 
L 125.033774 72.790437 
L 125.083967 72.880366 
L 125.134159 72.829498 
L 125.234544 72.741158 
L 125.284737 72.941363 
L 125.334929 72.892031 
L 126.790514 72.117419 
L 126.890899 72.131739 
L 127.543402 71.675283 
L 127.593595 71.7657 
L 127.643787 71.720048 
L 127.794365 71.613351 
L 127.844558 71.69361 
L 127.89475 71.65457 
L 128.798216 71.083337 
L 130.605149 70.063241 
L 132.261504 69.438364 
L 132.311696 69.542126 
L 132.361889 69.515319 
L 133.968051 68.676824 
L 134.118629 68.829566 
L 135.12248 68.26152 
L 135.273058 68.266463 
L 135.674598 68.167348 
L 157.056632 68.277486 
L 157.40798 68.296202 
L 161.674348 68.399729 
L 161.925311 68.430901 
L 171.461898 68.532333 
L 171.712861 68.588392 
L 174.62403 68.68179 
L 174.874993 68.712913 
L 179.844057 68.804736 
L 180.09502 68.829619 
L 184.762929 68.914148 
L 185.013892 68.945231 
L 188.477179 69.03122 
L 188.728142 69.062284 
L 195.604523 69.166333 
L 195.955871 69.222204 
L 200.42301 69.327696 
L 200.924935 69.340103 
L 204.087067 69.402164 
L 204.237645 69.464156 
L 209.357287 69.55453 
L 209.507864 69.610278 
L 217.43829 69.715535 
L 217.940216 69.727915 
L 223.461398 69.801139 
L 223.662168 69.85063 
L 227.125455 69.952631 
L 227.476803 70.01444 
L 230.488357 70.109631 
L 230.638935 70.16521 
L 233.048178 70.261352 
L 233.248948 70.298375 
L 236.360888 70.390904 
L 236.662043 70.415571 
L 241.430337 70.526159 
L 241.6813 70.55696 
L 244.341506 70.667801 
L 244.542276 70.747815 
L 247.051904 70.835833 
L 247.252675 70.878879 
L 249.611725 70.963339 
L 249.812496 71.030933 
L 255.38387 71.135809 
L 255.685026 71.221728 
L 262.260252 71.323157 
L 262.561408 71.347674 
L 263.966799 71.457966 
L 264.217762 71.54983 
L 268.333553 71.646951 
L 268.634708 71.671419 
L 270.542026 71.763148 
L 270.792989 71.791531 
L 272.348958 71.870979 
L 272.549728 71.907636 
L 274.557431 71.987038 
L 274.808394 72.054199 
L 277.368215 72.164051 
L 277.619178 72.249449 
L 283.642286 72.3459 
L 283.993634 72.406834 
L 286.101722 72.488221 
L 286.352684 72.518665 
L 290.76963 72.615409 
L 290.970401 72.651904 
L 293.781184 72.760231 
L 293.981955 72.796698 
L 295.487732 72.871763 
L 295.688502 72.920351 
L 298.951019 73.003104 
L 299.151789 73.051657 
L 301.811995 73.154228 
L 302.062958 73.184552 
L 303.217387 73.266604 
L 303.46835 73.296908 
L 305.174897 73.38609 
L 305.476052 73.452709 
L 315.01264 73.542521 
L 315.21341 73.590917 
L 320.634208 73.692336 
L 320.985556 73.710468 
L 321.989407 73.795063 
L 322.24037 73.825267 
L 325.000961 73.935977 
L 325.302116 73.960121 
L 326.15539 74.06873 
L 326.406353 74.098889 
L 328.564633 74.175219 
L 328.765403 74.223433 
L 330.572336 74.303145 
L 330.773106 74.339279 
L 335.691978 74.439297 
L 335.892748 74.483365 
L 339.105072 74.588713 
L 339.45642 74.60325 
L 341.01239 74.687394 
L 341.263353 74.717437 
L 348.189927 74.811928 
L 348.390697 74.905619 
L 352.15514 75.013602 
L 352.406103 75.103543 
L 354.263228 75.187452 
L 354.51419 75.250987 
L 358.931136 75.355808 
L 359.232292 75.379751 
L 364.100971 75.469019 
L 364.402126 75.492936 
L 366.861562 75.586788 
L 367.21291 75.634589 
L 369.320998 75.74448 
L 369.57196 75.792238 
L 374.791987 75.895975 
L 374.992758 75.943676 
L 378.707008 76.04963 
L 379.309318 76.086502 
L 382.27068 76.178735 
L 382.47145 76.22039 
L 383.776457 76.303674 
L 383.977227 76.369086 
L 391.054379 76.477026 
L 392.008038 76.482967 
L 393.262852 76.582101 
L 393.564007 76.605848 
L 397.830376 76.714334 
L 398.031146 76.748703 
L 401.343855 76.847672 
L 401.695203 76.865455 
L 406.614075 76.959844 
L 406.91523 76.981078 
L 410.880443 77.081486 
L 411.131406 77.111072 
L 415.096619 77.207676 
L 415.397774 77.231323 
L 418.911254 77.336191 
L 419.262602 77.353911 
L 421.722038 77.4512 
L 422.023193 77.489418 
L 425.68725 77.589404 
L 425.938213 77.636579 
L 428.046301 77.742683 
L 428.297264 77.78393 
L 429.702656 77.885577 
L 430.003811 77.904749 
L 435.123453 78.009287 
L 435.424608 78.036812 
L 436.42846 78.135499 
L 436.679423 78.164884 
L 439.791362 78.270835 
L 439.992132 78.311938 
L 443.85696 78.410461 
L 444.05773 78.451533 
L 447.822172 78.546337 
L 448.17352 78.563923 
L 451.837578 78.669409 
L 452.038348 78.710416 
L 455.652213 78.820402 
L 455.852983 78.855523 
L 460.922432 78.940105 
L 461.173395 78.969353 
L 464.134757 79.068762 
L 464.38572 79.097991 
L 465.740919 79.18565 
L 465.941689 79.220703 
L 470.107672 79.219418 
L 470.107672 79.219418 
" clip-path="url(#p0aba2fccee)" style="fill: none; stroke: #1f77b4; stroke-width: 1.8; stroke-linecap: square"/>
   </g>
   <g id="line2d_24">
    <path d="M 71.327727 163.008871 
L 71.478305 117.175144 
L 71.57869 133.266968 
L 71.679075 127.085004 
L 71.829653 107.952875 
L 71.879846 114.450426 
L 71.930038 119.520995 
L 71.980231 113.613554 
L 72.080616 117.890534 
L 72.231193 106.66906 
L 72.281386 107.537204 
L 72.482156 99.371564 
L 72.632734 93.900744 
L 72.682927 96.240008 
L 72.733119 93.948022 
L 73.13466 84.30054 
L 73.33543 90.037886 
L 73.385623 88.959564 
L 73.435815 90.137531 
L 73.486008 91.691137 
L 73.5362 90.153275 
L 73.586393 88.629265 
L 73.636585 89.911272 
L 73.686778 89.518898 
L 73.887548 87.064612 
L 73.937741 87.5743 
L 73.987933 86.379739 
L 74.038126 86.799314 
L 74.088318 87.013445 
L 74.339281 84.868978 
L 74.389474 85.006471 
L 74.489859 85.820076 
L 74.640437 83.471237 
L 74.690629 83.550769 
L 74.740822 83.587831 
L 74.841207 82.218912 
L 74.8914 82.825324 
L 75.242747 85.852687 
L 75.393325 84.752056 
L 75.543903 89.922238 
L 75.594095 89.168202 
L 75.744673 87.70571 
L 75.995636 89.593317 
L 76.096021 88.269517 
L 76.146214 88.858187 
L 76.246599 89.262691 
L 76.296791 89.174039 
L 76.397177 88.396219 
L 76.497562 88.341913 
L 76.547754 89.049138 
L 76.698332 87.979036 
L 76.748525 88.004167 
L 76.84891 89.167003 
L 76.949295 88.359316 
L 77.04968 89.623155 
L 77.099872 89.101089 
L 77.200258 88.48117 
L 77.300643 88.625857 
L 77.350835 88.758331 
L 77.501413 88.115602 
L 77.551606 88.17669 
L 77.702183 89.151686 
L 78.153916 86.380527 
L 78.254302 85.694401 
L 78.304494 85.968814 
L 78.354687 85.991948 
L 78.505264 85.288717 
L 78.555457 85.448322 
L 78.605649 86.420899 
L 78.706035 86.336309 
L 78.756227 86.289475 
L 78.856612 86.752392 
L 78.906805 86.42912 
L 78.956997 87.483294 
L 79.00719 87.119173 
L 79.057383 87.18869 
L 79.107575 86.885952 
L 79.157768 87.01635 
L 79.258153 87.300668 
L 79.308345 86.896871 
L 79.358538 87.082731 
L 79.458923 87.225573 
L 79.509116 87.032656 
L 79.559308 87.300748 
L 79.609501 86.999807 
L 79.659693 86.646128 
L 79.709886 86.680024 
L 79.760079 86.833381 
L 79.910656 88.322064 
L 79.960849 88.301799 
L 80.111426 88.282385 
L 80.161619 88.77231 
L 80.211812 88.484053 
L 80.262004 88.167446 
L 80.362389 88.876616 
L 80.663545 87.460527 
L 80.713737 87.400317 
L 80.76393 87.114103 
L 80.9647 88.427607 
L 81.115278 87.878814 
L 81.16547 88.01596 
L 81.366241 90.37678 
L 81.416433 90.298654 
L 81.516818 90.428109 
L 81.567011 90.142715 
L 81.617204 90.331462 
L 81.717589 90.389462 
L 81.817974 89.865213 
L 81.968551 90.709826 
L 82.169322 89.994333 
L 82.319899 90.804937 
L 82.370092 90.615197 
L 82.52067 90.051823 
L 82.570862 90.257661 
L 82.621055 90.520391 
L 82.671247 90.278408 
L 82.771633 90.063112 
L 83.022595 91.462864 
L 83.173173 90.817373 
L 83.223366 90.941152 
L 83.474328 90.44032 
L 83.574714 90.552911 
L 83.624906 90.403794 
L 83.725291 90.834533 
L 83.775484 90.65264 
L 83.926062 91.051011 
L 83.976254 90.811523 
L 84.026447 91.076341 
L 84.126832 91.127043 
L 84.327602 90.617549 
L 84.528372 90.157305 
L 84.628758 89.810763 
L 84.67895 90.370615 
L 84.779335 90.334507 
L 84.87972 89.956858 
L 85.030298 90.294751 
L 85.130683 89.92389 
L 85.231068 90.030314 
L 85.331453 89.813778 
L 85.381646 89.891506 
L 85.431839 90.178804 
L 85.482031 89.97035 
L 85.532224 89.769303 
L 85.682801 90.484522 
L 85.833379 90.159644 
L 85.933764 90.028418 
L 86.034149 91.034345 
L 86.084342 90.843429 
L 86.134535 90.634104 
L 86.184727 90.98119 
L 86.23492 90.747543 
L 86.285112 90.546466 
L 86.335305 90.607275 
L 86.485883 91.115458 
L 86.586268 91.078068 
L 86.63646 90.91652 
L 86.686653 91.052368 
L 86.736845 91.284258 
L 86.787038 91.268505 
L 87.038001 90.787139 
L 87.088193 90.873278 
L 87.238771 90.66873 
L 87.288964 90.725685 
L 87.640312 89.899426 
L 87.690504 90.05826 
L 87.891274 89.623794 
L 88.041852 89.900537 
L 88.092045 89.70543 
L 88.19243 90.144251 
L 88.242622 90.057725 
L 88.343007 90.159634 
L 88.543778 89.504182 
L 88.694355 89.778944 
L 88.895126 89.154997 
L 88.945318 89.33559 
L 89.045703 89.561666 
L 89.397051 88.828677 
L 89.497437 89.416239 
L 89.547629 89.374477 
L 89.698207 88.868206 
L 89.748399 89.345908 
L 89.798592 89.295909 
L 89.999362 88.877547 
L 90.099747 89.092492 
L 90.400903 88.644596 
L 90.601673 88.603641 
L 90.752251 88.660516 
L 90.852636 88.871878 
L 91.053406 88.483913 
L 91.153791 88.398063 
L 91.354562 87.954029 
L 91.454947 88.234536 
L 91.505139 88.079375 
L 91.605524 88.364772 
L 92.207835 87.168589 
L 92.258028 87.247968 
L 92.30822 87.119672 
L 92.358413 87.164966 
L 92.408605 87.061134 
L 92.458798 87.096326 
L 92.709761 86.706239 
L 92.910531 86.468701 
L 93.061109 86.890925 
L 93.412457 86.230748 
L 93.512842 86.129274 
L 93.66342 86.482413 
L 93.813997 86.297116 
L 93.86419 86.372921 
L 93.914382 86.254436 
L 94.06496 86.154581 
L 94.26573 85.885118 
L 94.315923 85.992928 
L 94.366116 85.879271 
L 94.516693 85.73241 
L 94.617078 85.813223 
L 94.817849 85.593024 
L 94.868041 85.649642 
L 94.918234 85.563047 
L 95.169197 85.331791 
L 95.219389 85.561743 
L 95.269582 85.424143 
L 95.520545 85.029639 
L 95.671122 85.205735 
L 95.771507 84.959505 
L 95.8217 85.058821 
L 95.972278 85.253659 
L 96.223241 84.79503 
L 96.323626 85.11126 
L 96.373818 84.99587 
L 96.574588 85.177534 
L 96.775359 84.849405 
L 96.825551 85.080838 
L 96.875744 84.989299 
L 97.227092 84.360949 
L 97.37767 84.105872 
L 97.478055 84.020257 
L 97.57844 84.321262 
L 97.628632 84.231198 
L 97.929788 83.987804 
L 97.97998 84.032093 
L 98.180751 83.648758 
L 98.230943 83.701082 
L 98.331328 83.568464 
L 98.381521 83.834409 
L 98.431713 83.749378 
L 98.582291 83.83037 
L 98.732869 84.02114 
L 98.833254 83.829895 
L 98.883447 84.057643 
L 98.933639 83.961052 
L 99.184602 83.51792 
L 99.284987 83.674188 
L 99.33518 83.591129 
L 99.53595 83.42979 
L 99.686528 83.596363 
L 99.73672 83.534458 
L 100.138261 82.975515 
L 100.238646 82.886813 
L 100.288838 82.80918 
L 100.339031 82.86693 
L 100.539801 82.87381 
L 100.640186 82.766691 
L 100.991534 82.212308 
L 101.041727 82.23912 
L 101.09192 82.273859 
L 101.142112 82.184636 
L 101.192305 82.090073 
L 101.242497 82.202334 
L 101.49346 82.447685 
L 101.744423 82.10394 
L 101.794615 82.253787 
L 101.895001 82.219329 
L 102.145963 81.939181 
L 102.246349 82.146968 
L 102.296541 82.057216 
L 102.547504 81.809262 
L 102.698082 81.931224 
L 102.748274 81.867885 
L 103.04943 81.501102 
L 103.099622 81.555996 
L 103.149815 81.731395 
L 103.200007 81.670308 
L 103.400778 81.334126 
L 103.45097 81.596035 
L 103.551355 81.558938 
L 103.601548 81.542847 
L 103.752126 81.690246 
L 104.153666 81.273864 
L 104.203859 81.363471 
L 104.254051 81.299858 
L 104.354436 81.201163 
L 104.655592 81.587477 
L 104.906555 81.559151 
L 105.20771 82.171285 
L 105.308095 82.032211 
L 105.358288 82.116799 
L 105.709636 81.998566 
L 105.860213 81.81168 
L 105.910406 81.892357 
L 106.111176 81.907924 
L 106.261754 81.839293 
L 106.462524 81.823477 
L 106.663294 81.721894 
L 107.064835 81.415771 
L 107.215413 81.536659 
L 107.466376 81.366116 
L 107.817723 81.66744 
L 108.018494 81.516078 
L 108.068686 81.594048 
L 108.118879 81.54525 
L 108.169071 81.478549 
L 108.219264 81.553567 
L 108.369842 81.727392 
L 108.420034 81.660054 
L 108.470227 81.785124 
L 108.520419 81.714326 
L 108.620805 81.70228 
L 108.821575 81.722923 
L 109.223115 81.73964 
L 109.273308 81.785718 
L 109.3235 81.728697 
L 109.474078 81.591556 
L 109.574463 81.704856 
L 109.925811 81.36796 
L 109.976004 81.431429 
L 110.026196 81.357907 
L 110.126582 81.235335 
L 110.176774 81.290981 
L 110.327352 81.480497 
L 110.528122 81.553477 
L 110.829278 81.350119 
L 110.929663 81.334131 
L 110.979855 81.282565 
L 111.030048 81.398986 
L 111.08024 81.342483 
L 111.230818 81.167229 
L 111.281011 81.240273 
L 111.431588 81.521011 
L 111.582166 81.36063 
L 111.682551 81.564514 
L 111.732744 81.521872 
L 112.184477 81.194331 
L 112.284862 81.221623 
L 112.43544 81.387704 
L 112.736595 81.182567 
L 112.786788 81.300363 
L 112.83698 81.240891 
L 112.887173 81.205283 
L 112.937365 81.365262 
L 112.987558 81.307472 
L 113.188328 81.102054 
L 113.238521 81.230487 
L 113.288713 81.166227 
L 113.489484 80.952828 
L 113.539676 81.040071 
L 113.589869 80.978865 
L 113.991409 80.604632 
L 114.041602 80.82481 
L 114.091794 80.780612 
L 114.493335 80.520849 
L 114.543527 80.600061 
L 114.59372 80.564762 
L 114.744298 80.582125 
L 115.196031 80.406982 
L 115.396801 80.576583 
L 115.748149 80.402965 
L 115.898727 80.546143 
L 116.35046 80.380805 
L 116.501038 80.375923 
L 117.504889 80.043068 
L 118.30797 79.831685 
L 118.458548 79.841887 
L 118.910281 79.744681 
L 120.767406 79.595578 
L 120.917983 79.630779 
L 121.570487 79.623887 
L 121.771257 79.65345 
L 124.029923 79.530096 
L 124.280885 79.614316 
L 128.095521 79.516695 
L 176.531348 79.605471 
L 176.782311 79.636189 
L 181.400027 79.724209 
L 181.701182 79.748766 
L 183.80927 79.852378 
L 184.160618 79.870781 
L 188.426986 79.974343 
L 188.778334 79.992734 
L 202.430712 80.094088 
L 202.78206 80.112464 
L 211.465374 80.218538 
L 211.716337 80.249141 
L 218.542526 80.331231 
L 218.793489 80.361809 
L 219.144837 80.380153 
L 223.963324 80.477959 
L 224.314672 80.496292 
L 237.013391 80.599842 
L 237.364739 80.618158 
L 243.689002 80.726452 
L 244.241121 80.756952 
L 247.202482 80.853122 
L 247.453445 80.875409 
L 252.82405 80.984393 
L 253.175398 81.002668 
L 257.391573 81.112279 
L 257.742921 81.130541 
L 261.055631 81.22369 
L 261.406979 81.24194 
L 268.885671 81.349726 
L 269.136634 81.380116 
L 271.495685 81.47126 
L 271.79684 81.495557 
L 276.013016 81.589175 
L 276.364364 81.607386 
L 281.484005 81.714485 
L 281.835353 81.732683 
L 286.202107 81.826153 
L 286.503262 81.850401 
L 299.854485 81.947353 
L 300.205833 81.965523 
L 304.773356 82.071645 
L 305.074512 82.095854 
L 308.387221 82.201889 
L 308.638184 82.232126 
L 314.560907 82.34124 
L 316.066684 82.413022 
L 319.379393 82.521 
L 320.333052 82.527037 
L 326.105197 82.62556 
L 326.35616 82.655719 
L 330.873491 82.765939 
L 331.174647 82.796073 
L 334.888897 82.885723 
L 335.089667 82.921861 
L 337.549103 83.003975 
L 337.800066 83.052126 
L 344.375292 83.156775 
L 344.72664 83.174817 
L 351.904177 83.27078 
L 352.15514 83.300819 
L 356.27093 83.40599 
L 356.622278 83.472018 
L 365.155015 83.573405 
L 365.506363 83.591397 
L 367.714835 83.680593 
L 368.015991 83.704568 
L 372.88467 83.811679 
L 374.089291 83.846139 
L 380.1124 83.941266 
L 380.413555 83.983154 
L 387.540899 84.077436 
L 387.842055 84.101352 
L 390.351683 84.186559 
L 390.602646 84.216434 
L 395.421132 84.323964 
L 395.722288 84.347844 
L 398.332301 84.437368 
L 398.583264 84.4672 
L 400.540774 84.568595 
L 400.84193 84.592445 
L 404.004061 84.696737 
L 404.55618 84.72057 
L 409.274281 84.827728 
L 409.625629 84.845588 
L 415.749122 84.934798 
L 416.000085 84.964543 
L 423.980703 85.074432 
L 424.482629 85.086319 
L 427.24322 85.084058 
L 427.24322 85.084058 
" clip-path="url(#p0aba2fccee)" style="fill: none; stroke: #ff7f0e; stroke-width: 1.8; stroke-linecap: square"/>
   </g>
   <g id="line2d_25">
    <path d="M 71.327727 70.648907 
L 71.37792 119.291483 
L 71.478305 118.840943 
L 71.57869 96.358309 
L 71.628883 100.676337 
L 71.729268 114.799504 
L 71.77946 108.041129 
L 71.829653 117.852954 
L 71.879846 111.807089 
L 71.930038 111.687308 
L 72.130808 101.670271 
L 72.331579 95.047694 
L 72.532349 101.448412 
L 72.682927 95.136119 
L 72.733119 99.489182 
L 72.783312 97.595049 
L 72.883697 95.012908 
L 73.034275 95.352796 
L 73.084467 96.113818 
L 73.385623 88.656406 
L 73.486008 90.747308 
L 73.586393 89.179433 
L 73.636585 90.671981 
L 73.686778 89.68591 
L 73.73697 88.402084 
L 73.787163 91.105813 
L 73.837356 90.466877 
L 73.937741 89.370119 
L 73.987933 89.789724 
L 74.038126 88.653642 
L 74.088318 89.788333 
L 74.138511 89.829078 
L 74.188704 88.561472 
L 74.289089 88.76488 
L 74.339281 88.924278 
L 74.640437 85.758125 
L 74.690629 86.823714 
L 74.740822 86.302844 
L 74.8914 84.215331 
L 74.941592 84.787458 
L 75.09217 86.257391 
L 75.142362 87.466704 
L 75.192555 86.78671 
L 75.242747 87.096175 
L 75.393325 85.910461 
L 75.443518 85.853097 
L 75.594095 84.330225 
L 75.644288 84.660505 
L 75.694481 84.694788 
L 75.744673 85.120195 
L 75.794866 84.778805 
L 75.895251 84.233377 
L 76.045829 86.091758 
L 76.096021 86.050738 
L 76.146214 85.464039 
L 76.346984 89.798062 
L 76.397177 89.180794 
L 76.447369 89.474628 
L 76.547754 90.339399 
L 76.597947 91.562274 
L 76.698332 91.393735 
L 76.748525 91.499104 
L 76.899102 90.437704 
L 77.300643 95.656323 
L 77.401028 94.835774 
L 77.45122 95.011558 
L 77.551606 94.712853 
L 77.702183 94.157496 
L 77.752376 94.576113 
L 77.802568 94.097654 
L 77.852761 93.957764 
L 77.902954 93.462194 
L 77.953146 94.174481 
L 78.003339 93.90709 
L 78.103724 93.007736 
L 78.153916 93.378049 
L 78.204109 93.202267 
L 78.254302 94.315048 
L 78.354687 94.165029 
L 78.455072 94.144249 
L 78.505264 94.608408 
L 78.856612 92.327957 
L 78.906805 92.964527 
L 78.956997 92.565543 
L 79.00719 92.59854 
L 79.057383 92.262259 
L 79.20796 92.757967 
L 79.308345 92.269468 
L 79.358538 93.056298 
L 79.408731 92.689399 
L 79.509116 92.130934 
L 79.559308 92.415524 
L 79.709886 93.613774 
L 79.760079 93.287797 
L 79.860464 92.569081 
L 79.910656 92.901579 
L 79.960849 93.045093 
L 80.061234 92.327734 
L 80.111426 93.232456 
L 80.161619 92.846536 
L 80.211812 93.025437 
L 80.412582 92.078657 
L 80.462774 92.64765 
L 80.512967 92.481519 
L 80.56316 92.20013 
L 80.613352 92.692118 
L 80.663545 92.453039 
L 80.76393 91.98165 
L 80.914508 92.504761 
L 81.065085 91.790613 
L 81.16547 92.186898 
L 81.316048 91.66988 
L 81.366241 91.991353 
L 81.416433 91.786839 
L 81.516818 91.209382 
L 81.767781 92.754003 
L 81.918359 92.164787 
L 81.968551 92.694385 
L 82.018744 92.467222 
L 82.119129 92.0649 
L 82.269707 91.747969 
L 82.420285 92.232786 
L 82.621055 91.615584 
L 82.671247 91.63566 
L 82.771633 91.43481 
L 82.821825 91.534796 
L 82.872018 91.835298 
L 82.92221 91.548135 
L 83.022595 91.172472 
L 83.072788 91.680259 
L 83.122981 91.66894 
L 83.273558 91.267468 
L 83.323751 91.234208 
L 83.373943 91.382588 
L 83.424136 91.996736 
L 83.474328 91.756097 
L 83.725291 90.905238 
L 83.825676 90.483628 
L 83.875869 90.611961 
L 84.026447 91.110068 
L 84.227217 90.555336 
L 84.27741 90.516141 
L 84.327602 90.286986 
L 84.377795 91.021494 
L 84.427987 90.820242 
L 84.47818 90.6589 
L 84.528372 90.876636 
L 84.578565 90.664395 
L 84.929913 89.668274 
L 85.030298 90.136746 
L 85.080491 89.97415 
L 85.231068 90.188334 
L 85.732994 88.883507 
L 85.783187 89.064566 
L 86.084342 87.922527 
L 86.285112 88.319912 
L 86.43569 88.030434 
L 86.485883 88.38194 
L 86.536075 88.159101 
L 86.63646 87.879992 
L 86.736845 88.60141 
L 86.787038 88.490533 
L 86.83723 88.283407 
L 86.887423 88.514649 
L 87.238771 87.631999 
L 87.288964 87.997596 
L 87.339156 87.812384 
L 87.740697 86.988463 
L 87.891274 87.475955 
L 88.092045 87.162013 
L 88.142237 87.209838 
L 88.19243 87.476353 
L 88.242622 87.353971 
L 88.292815 87.216986 
L 88.3932 87.604098 
L 88.493585 87.400696 
L 88.744548 87.836495 
L 89.045703 87.300715 
L 89.095896 87.57543 
L 89.146089 87.397634 
L 89.296666 87.1603 
L 89.346859 87.195425 
L 89.397051 87.059623 
L 89.447244 87.344817 
L 89.497437 87.217749 
L 89.547629 87.078401 
L 89.597822 87.166346 
L 89.748399 87.120485 
L 89.798592 86.9855 
L 89.848784 87.026066 
L 90.099747 87.176771 
L 90.14994 87.078399 
L 90.200132 87.398015 
L 90.250325 87.338487 
L 90.35071 87.016569 
L 90.400903 87.097675 
L 90.501288 87.630589 
L 90.55148 87.488784 
L 90.702058 87.268721 
L 90.802443 87.458948 
L 90.902828 87.350459 
L 91.153791 86.847105 
L 91.203984 87.076751 
L 91.304369 87.0276 
L 91.505139 86.681899 
L 91.555332 86.829052 
L 91.605524 86.738642 
L 91.705909 86.535874 
L 91.756102 86.670501 
L 91.90668 86.373646 
L 92.10745 86.068326 
L 92.207835 86.404035 
L 92.258028 86.256236 
L 92.30822 86.355195 
L 92.358413 86.238411 
L 92.408605 86.291443 
L 92.559183 86.145077 
L 92.659568 86.235985 
L 93.010916 85.500019 
L 93.061109 85.693141 
L 93.111301 85.589081 
L 93.362264 85.160104 
L 93.512842 85.298815 
L 93.563034 85.180902 
L 93.713612 85.746491 
L 93.763805 85.615674 
L 94.115153 85.046016 
L 94.215538 85.281118 
L 94.26573 85.195917 
L 94.466501 84.7583 
L 94.566886 84.823662 
L 94.767656 84.742513 
L 94.968426 84.288553 
L 95.018619 84.370049 
L 95.169197 84.675606 
L 95.219389 85.044538 
L 95.269582 84.97196 
L 95.570737 84.486713 
L 95.62093 84.626269 
L 95.721315 84.674057 
L 95.922085 84.257228 
L 95.972278 84.361957 
L 96.072663 84.319293 
L 96.273433 84.054727 
L 96.524396 83.724813 
L 96.574588 83.906577 
L 96.624781 83.828129 
L 96.725166 83.742405 
L 96.925936 83.525266 
L 97.176899 83.403324 
L 97.227092 83.882782 
L 97.327477 83.798746 
L 97.427862 84.051536 
L 97.478055 83.964516 
L 97.528247 83.918027 
L 97.57844 84.170781 
L 97.628632 84.083991 
L 97.97998 83.516676 
L 98.381521 83.012991 
L 98.532099 83.434617 
L 98.682676 83.194966 
L 98.732869 83.384267 
L 98.783061 83.284748 
L 98.833254 83.296431 
L 98.933639 83.078829 
L 98.983832 83.146454 
L 99.034024 83.246963 
L 99.084217 83.791749 
L 99.134409 83.716083 
L 99.385372 83.526285 
L 99.485757 83.700157 
L 99.53595 83.615641 
L 99.586142 83.518604 
L 99.636335 83.675516 
L 99.686528 83.623712 
L 100.339031 82.721569 
L 100.389224 83.090477 
L 100.439416 82.985098 
L 100.539801 82.910639 
L 100.790764 82.625112 
L 100.840957 82.670427 
L 100.891149 82.584965 
L 100.991534 82.411011 
L 101.142112 82.912687 
L 101.192305 82.819775 
L 101.443267 82.417908 
L 101.543653 82.540529 
L 101.644038 82.458371 
L 102.346734 81.63562 
L 102.447119 81.525442 
L 102.547504 81.381744 
L 102.597697 81.438623 
L 102.647889 81.647625 
L 102.698082 81.591213 
L 102.949044 81.195394 
L 102.999237 81.335224 
L 103.04943 81.306318 
L 103.601548 80.676643 
L 103.701933 80.941508 
L 103.752126 80.888992 
L 104.103474 80.54809 
L 104.153666 80.630443 
L 104.203859 80.589282 
L 104.404629 80.422632 
L 104.505014 80.686594 
L 104.605399 80.58804 
L 104.755977 80.388872 
L 104.806169 80.45346 
L 104.856362 80.558809 
L 104.906555 80.516251 
L 104.956747 80.461494 
L 105.00694 80.571574 
L 105.057132 80.501316 
L 105.157517 80.361464 
L 105.20771 80.472326 
L 105.559058 80.103876 
L 105.609251 80.19867 
L 105.659443 80.312914 
L 105.709636 80.249765 
L 106.060984 79.845792 
L 106.111176 79.912301 
L 106.161369 79.852601 
L 106.362139 79.751329 
L 106.663294 80.006465 
L 107.215413 79.405827 
L 108.420034 78.704278 
L 108.570612 78.741393 
L 108.72119 78.689559 
L 108.871767 78.711349 
L 109.273308 78.450005 
L 109.373693 78.466839 
L 109.925811 77.989044 
L 110.026196 78.381499 
L 110.076389 78.311926 
L 110.277159 78.10916 
L 110.327352 78.243104 
L 110.377544 78.221979 
L 110.728892 77.855242 
L 111.933514 76.964112 
L 112.284862 76.657284 
L 112.335055 76.73801 
L 112.385247 76.686421 
L 112.83698 76.381328 
L 115.145838 75.048238 
L 115.196031 75.195283 
L 115.246223 75.17145 
L 115.497186 75.124523 
L 115.647764 75.18481 
L 116.099497 74.908859 
L 116.35046 74.830239 
L 116.601423 74.676879 
L 116.651615 74.83507 
L 116.701808 74.809794 
L 116.952771 74.760713 
L 117.103348 74.836429 
L 117.655467 74.627028 
L 118.458548 74.46541 
L 118.609125 74.472188 
L 118.759703 74.466754 
L 119.261629 74.268617 
L 119.362014 74.308501 
L 119.663169 74.259392 
L 119.763554 74.295297 
L 120.46625 74.008945 
L 120.667021 74.128586 
L 121.068561 74.077115 
L 121.219139 74.105129 
L 121.570487 74.098802 
L 121.871642 74.059458 
L 122.02222 74.086607 
L 122.373568 74.02365 
L 122.624531 73.967118 
L 123.277034 73.843062 
L 123.477804 73.912033 
L 125.93724 73.657046 
L 126.439166 73.882483 
L 130.605149 73.499497 
L 133.968051 73.428307 
L 134.168821 73.448289 
L 136.628257 73.387184 
L 136.929412 73.384664 
L 145.311571 73.070634 
L 171.11055 73.164389 
L 171.311321 73.197913 
L 184.110425 73.292189 
L 184.311196 73.339082 
L 187.674098 73.412748 
L 187.874868 73.456471 
L 191.739696 73.563539 
L 191.940466 73.610364 
L 196.006064 73.680764 
L 196.206834 73.727556 
L 201.677824 73.814427 
L 201.878594 73.854509 
L 205.442266 73.961354 
L 206.29554 73.96803 
L 216.585016 74.059216 
L 216.886172 74.079228 
L 219.044452 74.185925 
L 219.19503 74.245916 
L 225.167945 74.32445 
L 225.368715 74.364402 
L 226.372567 74.423029 
L 226.573337 74.476267 
L 229.032773 74.554165 
L 229.233543 74.607365 
L 233.750874 74.692492 
L 233.951644 74.732364 
L 238.067435 74.838652 
L 238.268205 74.885134 
L 244.592469 74.968435 
L 244.793239 75.008234 
L 245.39555 75.058679 
L 248.206333 75.164735 
L 248.457296 75.19124 
L 254.028671 75.295983 
L 254.480404 75.307913 
L 256.136759 75.400575 
L 256.437914 75.41714 
L 258.596195 75.484639 
L 258.796965 75.530922 
L 262.912756 75.616849 
L 263.163718 75.735762 
L 264.468725 75.828201 
L 264.719688 75.854604 
L 268.182975 75.935738 
L 268.383745 75.975315 
L 269.588367 76.066297 
L 269.939715 76.125618 
L 273.001462 76.205255 
L 273.202232 76.25794 
L 278.020718 76.359243 
L 278.372066 76.378984 
L 278.924184 76.41846 
L 281.935738 76.511731 
L 282.186701 76.538027 
L 283.993634 76.647724 
L 284.344982 76.667432 
L 285.047678 76.739678 
L 285.248448 76.779073 
L 289.715586 76.885225 
L 289.966549 76.911466 
L 290.819823 76.996727 
L 291.171171 77.068842 
L 293.379644 77.176144 
L 293.630607 77.202344 
L 298.800441 77.303686 
L 299.151789 77.362588 
L 301.91238 77.450057 
L 302.11315 77.520609 
L 303.970275 77.622423 
L 304.321623 77.642023 
L 309.742421 77.738233 
L 309.993383 77.793521 
L 312.603397 77.874876 
L 312.804167 77.914007 
L 314.209559 78.011801 
L 314.460522 78.044388 
L 317.622654 78.12377 
L 317.823424 78.16935 
L 320.182475 78.249087 
L 320.383245 78.293236 
L 325.251924 78.394002 
L 325.703657 78.452498 
L 331.275032 78.554519 
L 331.525995 78.580493 
L 335.089667 78.690842 
L 335.34063 78.716797 
L 339.807768 78.813528 
L 340.159116 78.832979 
L 344.626255 78.936207 
L 344.827025 78.97507 
L 348.64166 79.062976 
L 348.942815 79.095333 
L 351.502636 79.177306 
L 351.703407 79.229042 
L 354.213035 79.333947 
L 354.463998 79.359793 
L 356.019967 79.452399 
L 356.220738 79.491138 
L 359.58364 79.591553 
L 359.934988 79.610902 
L 363.599045 79.705454 
L 363.950393 79.724788 
L 366.560406 79.814987 
L 366.811369 79.847191 
L 373.938714 79.94727 
L 374.189677 79.97301 
L 377.602771 80.065892 
L 377.803541 80.117333 
L 380.413555 80.2237 
L 380.664518 80.255823 
L 383.977227 80.350591 
L 384.278383 80.395524 
L 386.988781 80.48099 
L 387.239744 80.513061 
L 389.749372 80.612003 
L 390.150913 80.656868 
L 392.811119 80.759376 
L 393.112274 80.797803 
L 394.467474 80.906638 
L 395.069784 80.951435 
L 396.575562 81.034601 
L 396.826524 81.064369 
L 397.177872 81.128306 
L 400.892122 81.218 
L 401.143085 81.243549 
L 404.154639 81.326282 
L 404.355409 81.364577 
L 407.969274 81.448556 
L 408.170044 81.486804 
L 412.486605 81.589928 
L 412.837953 81.606062 
L 416.853359 81.699404 
L 417.104321 81.724856 
L 417.85721 81.746232 
L 420.366838 81.841998 
L 420.818571 81.90555 
L 423.027044 82.011294 
L 423.278007 82.043044 
L 427.092642 82.138602 
L 427.393798 82.17667 
L 432.91498 82.234836 
L 432.91498 82.234836 
" clip-path="url(#p0aba2fccee)" style="fill: none; stroke: #2ca02c; stroke-width: 1.8; stroke-linecap: square"/>
   </g>
   <g id="line2d_26">
    <path d="M 71.327727 167.455048 
L 71.37792 249.758182 
L 71.428112 218.839174 
L 71.57869 127.907993 
L 71.930038 79.271297 
L 71.980231 81.774303 
L 72.030423 78.431329 
L 72.181001 86.746305 
L 72.231193 83.813514 
L 72.281386 83.883802 
L 72.381771 89.607713 
L 72.632734 80.473434 
L 72.783312 87.710789 
L 73.034275 82.11927 
L 73.235045 77.609716 
L 73.33543 81.227668 
L 73.385623 80.074447 
L 73.686778 75.049913 
L 73.837356 73.053601 
L 73.887548 74.896602 
L 73.937741 73.963963 
L 74.188704 70.935674 
L 74.238896 73.765893 
L 74.289089 72.998318 
L 74.590244 69.245059 
L 74.640437 70.402538 
L 74.690629 69.916779 
L 74.740822 69.419671 
L 74.791014 70.156393 
L 74.841207 69.489372 
L 75.041977 67.679736 
L 75.09217 68.732728 
L 75.142362 68.253902 
L 75.242747 67.520453 
L 75.29294 68.467937 
L 75.343133 68.186249 
L 75.794866 64.690959 
L 75.845058 64.407248 
L 75.895251 65.054726 
L 75.945443 64.663455 
L 76.698332 60.810379 
L 76.748525 61.423641 
L 76.798717 61.215153 
L 77.04968 60.075563 
L 77.099872 61.350885 
L 77.150065 61.086322 
L 77.200258 60.830811 
L 77.25045 61.770935 
L 77.300643 61.538718 
L 77.802568 59.932322 
L 77.852761 60.505 
L 77.902954 60.387971 
L 78.003339 59.988591 
L 78.053531 61.273508 
L 78.103724 61.083206 
L 78.706035 58.952706 
L 78.756227 59.097422 
L 79.107575 58.061874 
L 79.157768 58.787599 
L 79.20796 58.638514 
L 79.308345 58.331969 
L 79.358538 59.110685 
L 79.408731 58.97783 
L 79.509116 58.737815 
L 79.559308 58.983271 
L 79.609501 58.82622 
L 79.910656 58.024492 
L 80.462774 56.640353 
L 80.914508 55.828193 
L 80.9647 56.265457 
L 81.014893 56.147349 
L 82.169322 53.968623 
L 82.219514 54.278069 
L 82.269707 54.168871 
L 82.420285 53.896137 
L 82.470477 54.897978 
L 82.570862 54.694423 
L 83.173173 53.735701 
L 83.223366 53.879861 
L 83.273558 53.79499 
L 83.373943 53.669193 
L 83.424136 53.783558 
L 83.474328 53.710197 
L 83.524521 53.621758 
L 83.574714 54.338128 
L 83.624906 54.24854 
L 83.926062 53.918303 
L 83.976254 54.389674 
L 84.026447 54.307381 
L 84.578565 53.62109 
L 84.67895 54.414988 
L 84.729143 54.35955 
L 84.779335 54.289582 
L 84.87972 55.440106 
L 84.980105 55.266971 
L 85.682801 54.348805 
L 86.787038 53.005576 
L 86.83723 53.300409 
L 86.887423 53.227012 
L 86.987808 53.121283 
L 87.138386 53.632799 
L 87.188578 53.570555 
L 87.489734 53.235526 
L 87.590119 53.919475 
L 87.690504 53.786997 
L 87.790889 53.686012 
L 87.841082 54.082646 
L 87.891274 54.017135 
L 88.493585 53.427141 
L 88.543778 53.749721 
L 88.59397 53.695605 
L 89.045703 53.281701 
L 89.095896 53.23204 
L 89.146089 53.57121 
L 89.196281 53.529219 
L 89.898977 52.848108 
L 89.999362 52.921436 
L 90.250325 52.665888 
L 90.300518 52.797759 
L 90.35071 52.746866 
L 90.852636 52.525384 
L 90.902828 52.742004 
L 90.953021 52.69784 
L 91.605524 52.158296 
L 91.705909 52.630083 
L 91.756102 52.599432 
L 92.458798 51.99684 
L 92.559183 52.014446 
L 92.759953 51.874786 
L 92.810146 52.425444 
L 92.910531 52.350532 
L 93.010916 52.318819 
L 93.061109 52.617871 
L 93.111301 52.580935 
L 93.512842 52.28271 
L 93.563034 52.540334 
L 93.613227 52.4939 
L 93.813997 52.340999 
L 93.86419 52.512751 
L 93.914382 52.471278 
L 94.165345 52.300313 
L 94.215538 52.426277 
L 94.26573 52.391604 
L 94.767656 52.00549 
L 94.817849 52.238489 
L 94.868041 52.205737 
L 95.369967 51.909117 
L 95.420159 52.156216 
L 95.470352 52.12714 
L 96.273433 51.581032 
L 96.524396 51.553954 
L 96.574588 51.759661 
L 96.624781 51.726483 
L 97.076514 51.457043 
L 97.126707 51.769566 
L 97.227092 51.712325 
L 98.030173 51.255236 
L 98.080365 51.450547 
L 98.130558 51.415549 
L 98.632484 51.127386 
L 98.682676 51.300622 
L 98.783061 51.249186 
L 99.485757 50.854293 
L 99.586142 50.913352 
L 100.088068 50.659953 
L 100.238646 50.669037 
L 100.489609 50.543976 
L 100.539801 50.664389 
L 100.589994 50.637732 
L 100.941342 50.473722 
L 100.991534 50.760976 
L 101.09192 50.70284 
L 101.644038 50.500567 
L 101.794615 50.50513 
L 102.798467 50.051855 
L 102.848659 50.163244 
L 102.949044 50.116735 
L 103.149815 50.040756 
L 103.300392 50.109734 
L 103.952896 49.857369 
L 104.655592 49.557144 
L 105.157517 49.364509 
L 105.20771 49.494587 
L 105.308095 49.451925 
L 105.709636 49.292004 
L 105.860213 49.349783 
L 106.462524 49.248738 
L 106.562909 49.362793 
L 106.613102 49.341019 
L 107.265605 49.186214 
L 107.315798 49.37279 
L 107.416183 49.333816 
L 107.717338 49.320131 
L 107.867916 49.38106 
L 108.420034 49.281554 
L 108.620805 49.53039 
L 110.026196 49.16097 
L 110.427737 49.034133 
L 110.578315 49.098449 
L 110.728892 49.156097 
L 110.779085 49.378884 
L 110.87947 49.349584 
L 111.782936 49.23027 
L 111.933514 49.248734 
L 112.184477 49.26912 
L 112.83698 49.179066 
L 112.987558 49.364228 
L 113.188328 49.30327 
L 113.389098 49.591606 
L 113.539676 49.550275 
L 113.690254 49.643861 
L 113.840832 49.70285 
L 114.292565 49.678149 
L 114.443142 49.784028 
L 114.543527 49.768469 
L 114.694105 49.848282 
L 115.095646 49.845165 
L 115.246223 49.943036 
L 115.446994 49.903776 
L 115.597571 50.071485 
L 115.798342 50.128701 
L 115.999112 50.430093 
L 116.099497 50.444796 
L 116.300267 50.750537 
L 116.450845 50.725231 
L 116.752 51.204307 
L 117.605274 51.16354 
L 117.755852 51.278398 
L 117.856237 51.341316 
L 118.006815 51.514821 
L 118.458548 51.534097 
L 118.659318 51.780105 
L 118.759703 51.830613 
L 118.910281 51.895275 
L 119.512592 51.927676 
L 119.663169 51.980998 
L 120.114902 52.01437 
L 120.26548 52.068248 
L 121.068561 52.01598 
L 121.269331 52.222563 
L 121.82145 52.199849 
L 122.02222 52.371118 
L 122.22299 52.344076 
L 122.373568 52.523778 
L 122.574338 52.515875 
L 122.724916 52.685169 
L 122.975879 52.730548 
L 123.226842 52.899338 
L 123.427612 52.871727 
L 123.57819 52.988698 
L 124.582041 52.978569 
L 124.782811 53.102305 
L 125.134159 53.103548 
L 125.284737 53.189408 
L 125.585892 53.253268 
L 125.73647 53.326231 
L 126.288588 53.254399 
L 126.439166 53.462594 
L 126.690129 53.53114 
L 126.840706 53.592096 
L 127.543402 53.549369 
L 127.69398 53.614472 
L 129.500912 53.481687 
L 129.65149 53.550793 
L 130.303994 53.553345 
L 130.454571 53.605554 
L 130.755727 53.634312 
L 130.906304 53.722323 
L 131.458423 53.762037 
L 135.072287 53.691408 
L 135.222865 53.736704 
L 135.724791 53.728948 
L 135.925561 54.002304 
L 136.377294 54.01196 
L 136.578064 54.140728 
L 136.728642 54.223708 
L 136.929412 54.304726 
L 137.983456 54.248837 
L 138.134034 54.346205 
L 139.188078 54.378371 
L 139.338656 54.462885 
L 139.589618 54.469404 
L 139.740196 54.533875 
L 140.191929 54.560189 
L 140.342507 54.700997 
L 140.99501 54.715246 
L 141.145588 54.947709 
L 141.346358 55.026616 
L 141.496936 55.122707 
L 141.697706 55.197981 
L 141.848284 55.275283 
L 141.998862 55.329695 
L 142.249824 55.31 
L 142.400402 55.422947 
L 143.153291 55.467021 
L 143.303868 55.50959 
L 143.454446 55.571981 
L 143.605024 55.622595 
L 143.805794 55.716964 
L 143.956372 55.759292 
L 144.056757 55.785758 
L 144.207335 55.848041 
L 144.408105 55.910233 
L 144.608875 55.941264 
L 145.060608 55.971534 
L 145.261378 56.065539 
L 145.462149 56.123165 
L 145.612726 56.171704 
L 146.315422 56.187378 
L 146.566385 56.271863 
L 146.66677 56.359954 
L 146.817348 56.408401 
L 147.218889 56.416384 
L 147.369466 56.498732 
L 147.720814 56.556897 
L 147.871392 56.623461 
L 148.02197 56.685382 
L 148.172547 56.755304 
L 150.230443 56.736753 
L 150.581791 56.843855 
L 151.435064 56.905719 
L 151.635834 56.949267 
L 152.288338 57.010465 
L 152.438916 57.075289 
L 152.790264 57.089766 
L 152.940841 57.151229 
L 153.342382 57.207953 
L 153.543152 57.232011 
L 154.496811 57.274113 
L 154.697581 57.361906 
L 156.303743 57.442024 
L 156.454321 57.501045 
L 157.458172 57.559522 
L 157.709135 57.586494 
L 157.960098 57.672243 
L 158.160868 57.724035 
L 158.662794 57.826843 
L 158.863564 57.906008 
L 161.072037 57.962687 
L 161.272807 58.008531 
L 161.52377 58.036213 
L 162.126081 58.113918 
L 162.377044 58.135878 
L 162.929162 58.214995 
L 163.129932 58.299802 
L 163.882821 58.369594 
L 164.133784 58.428933 
L 164.936865 58.467988 
L 165.137635 58.555625 
L 165.840331 58.587448 
L 166.041101 58.695922 
L 166.643412 58.78404 
L 166.944567 58.902311 
L 167.145338 58.960539 
L 167.346108 59.000141 
L 169.102848 59.049319 
L 169.303618 59.096387 
L 170.156892 59.15572 
L 170.458047 59.296027 
L 171.562284 59.366063 
L 171.813246 59.394803 
L 172.716713 59.46515 
L 172.917483 59.543816 
L 174.925186 59.63019 
L 175.125956 59.672156 
L 175.527496 59.742708 
L 175.728267 59.777438 
L 175.979229 59.824786 
L 176.18 59.922268 
L 178.639436 60.012157 
L 178.840206 60.05395 
L 179.743672 60.144372 
L 179.944442 60.18 
L 182.454071 60.26349 
L 182.805419 60.328835 
L 185.264854 60.367125 
L 185.465625 60.401154 
L 187.222364 60.478669 
L 187.423135 60.556263 
L 190.183726 60.605025 
L 190.434689 60.700605 
L 192.643162 60.766178 
L 192.894125 60.861954 
L 194.249324 60.948888 
L 194.450094 60.99085 
L 195.002212 61.046528 
L 195.15279 61.100175 
L 196.608375 61.151733 
L 196.809145 61.241541 
L 198.716462 61.347726 
L 199.118003 61.380177 
L 199.921084 61.483029 
L 200.272432 61.501094 
L 256.990033 61.609475 
L 257.491958 61.621508 
L 270.391448 61.710981 
L 270.692603 61.735033 
L 285.29864 61.840969 
L 285.499411 61.877021 
L 306.831252 61.971165 
L 307.1826 61.988416 
L 313.607248 62.095291 
L 314.560907 62.101291 
L 320.6844 62.202102 
L 321.186326 62.214093 
L 330.973876 62.302853 
L 331.275032 62.326822 
L 336.846407 62.428658 
L 337.147562 62.452612 
L 341.815471 62.560371 
L 342.76913 62.566356 
L 349.896474 62.666129 
L 350.19763 62.707995 
L 353.309569 62.797679 
L 353.610724 62.821588 
L 361.340379 62.915235 
L 361.641535 62.939129 
L 370.876967 63.048251 
L 371.178123 63.10793 
L 373.988906 63.197416 
L 374.239869 63.227236 
L 387.791862 63.334546 
L 388.093018 63.358381 
L 395.621903 63.468761 
L 396.224214 63.507639 
L 400.590967 63.614758 
L 400.84193 63.644504 
L 407.417156 63.749939 
L 407.919082 63.759812 
L 412.38622 63.847746 
L 412.637183 63.877452 
L 415.447967 63.963296 
L 415.69893 63.992981 
L 421.722038 64.092066 
L 422.023193 64.115793 
L 424.131281 64.214553 
L 424.482629 64.232337 
L 428.498034 64.331024 
L 428.949767 64.383511 
L 434.621527 64.477976 
L 434.87249 64.506739 
L 437.382118 64.588735 
L 437.633081 64.618306 
L 440.644635 64.704916 
L 440.895598 64.732803 
L 443.254649 64.827336 
L 443.605997 64.843803 
L 446.968899 64.93828 
L 447.320247 64.955989 
L 449.93026 65.055052 
L 450.231416 65.07865 
L 453.493932 65.189434 
L 454.798939 65.231521 
L 461.574936 65.316892 
L 461.825899 65.346334 
L 463.482253 65.439244 
L 463.733216 65.468667 
L 467.296888 65.560657 
L 467.598044 65.58418 
L 472.968648 65.688284 
L 473.420382 65.735294 
L 477.48598 65.836722 
L 477.787135 65.866079 
L 482.003311 65.968702 
L 482.505236 66.027366 
L 486.219486 66.136609 
L 486.821797 66.171778 
L 495.203956 66.277248 
L 495.454919 66.306535 
L 496.65954 66.335818 
L 504.489581 66.436818 
L 504.891121 66.466078 
L 510.613074 66.570624 
L 511.014614 66.599858 
L 515.933486 66.687194 
L 516.234641 66.745611 
L 519.898699 66.854781 
L 520.400624 66.86468 
L 525.821422 66.971538 
L 526.77508 66.975145 
L 532.547226 67.071589 
L 532.848381 67.094903 
L 537.767253 67.203815 
L 538.269178 67.215464 
L 541.682273 67.215464 
L 541.682273 67.215464 
" clip-path="url(#p0aba2fccee)" style="fill: none; stroke: #d62728; stroke-width: 1.8; stroke-linecap: square"/>
   </g>
   <g id="line2d_27">
    <path d="M 71.327727 106.289773 
L 71.428112 63.743489 
L 71.478305 71.395439 
L 71.628883 60.232542 
L 71.679075 62.188344 
L 71.729268 61.572133 
L 71.829653 56.685071 
L 71.879846 60.258076 
L 71.930038 57.953757 
L 71.980231 56.43696 
L 72.030423 60.650744 
L 72.080616 58.815903 
L 72.281386 54.348846 
L 72.331579 55.970375 
L 72.381771 55.090739 
L 72.532349 52.875303 
L 72.582541 55.562071 
L 72.632734 54.78446 
L 72.833504 52.098522 
L 72.883697 53.006508 
L 72.933889 52.435868 
L 73.034275 51.383121 
L 73.084467 54.180137 
L 73.13466 53.579901 
L 74.038126 47.600787 
L 74.389474 46.215348 
L 74.439666 47.806188 
L 74.540052 47.472424 
L 75.242747 45.501891 
L 75.744673 44.485224 
L 76.447369 43.27893 
L 77.401028 42.132394 
L 79.157768 40.75757 
L 80.9647 39.893195 
L 83.022595 39.228109 
L 85.482031 38.677256 
L 89.196281 38.158989 
L 91.90668 37.883488 
L 97.879595 37.482495 
L 108.520419 37.096494 
L 117.655467 36.929966 
L 128.195906 36.924275 
L 142.701558 37.019956 
L 142.902328 37.054162 
L 145.211186 37.156652 
L 145.662919 37.170325 
L 148.42351 37.245336 
L 148.62428 37.286331 
L 150.832753 37.347808 
L 150.983331 37.409267 
L 155.952395 37.511311 
L 156.253551 37.531779 
L 159.716838 37.606811 
L 159.867415 37.675 
L 162.025696 37.763613 
L 162.276659 37.790661 
L 164.936865 37.899339 
L 165.23802 37.919764 
L 166.091294 38.02186 
L 166.292064 38.076292 
L 172.766905 38.183981 
L 172.967675 38.231548 
L 174.674223 38.285693 
L 174.8248 38.346814 
L 176.280385 38.435033 
L 176.481155 38.475753 
L 179.141361 38.725346 
L 179.994635 38.820171 
L 180.29579 38.901417 
L 182.604648 39.002481 
L 182.805419 39.04983 
L 183.558307 39.103932 
L 183.759077 39.178299 
L 184.562158 39.279223 
L 185.013892 39.292733 
L 187.172172 39.385954 
L 187.423135 39.412692 
L 188.778334 39.513622 
L 188.979104 39.54734 
L 190.434689 39.655204 
L 190.836229 39.715685 
L 192.793739 39.78305 
L 192.99451 39.850395 
L 195.453945 39.916592 
L 195.654716 39.997329 
L 195.805293 40.044044 
L 195.955871 40.11128 
L 197.361263 40.204803 
L 197.562033 40.258546 
L 199.770506 40.33183 
L 199.921084 40.405669 
L 201.426861 40.479211 
L 201.627631 40.519255 
L 204.33803 40.598611 
L 204.5388 40.638334 
L 205.843807 40.744805 
L 206.044577 40.784981 
L 207.751124 40.88502 
L 208.05228 40.992062 
L 210.561908 41.052097 
L 210.712486 41.125635 
L 211.615952 41.20583 
L 211.866915 41.265956 
L 214.677699 41.371746 
L 214.828276 41.438487 
L 216.083091 41.538559 
L 216.283861 41.591148 
L 218.140986 41.691136 
L 218.693104 41.804398 
L 223.11005 41.908252 
L 223.361013 41.934867 
L 225.26833 42.020067 
L 225.469101 42.066608 
L 226.322374 42.152921 
L 226.523144 42.192789 
L 227.627381 42.285785 
L 227.828151 42.338907 
L 229.484506 42.444819 
L 229.685276 42.4979 
L 231.191053 42.59739 
L 231.592594 42.643803 
L 233.550104 42.729973 
L 233.750874 42.769731 
L 236.461273 42.868366 
L 237.013391 42.967673 
L 238.719938 43.05306 
L 238.970901 43.079521 
L 241.179374 43.164519 
L 241.329952 43.24384 
L 245.295165 43.328181 
L 245.495935 43.37441 
L 245.746898 43.407424 
L 248.005563 43.513036 
L 248.306719 43.532147 
L 249.762303 43.598116 
L 249.963073 43.710216 
L 252.322124 43.786356 
L 252.573087 43.890772 
L 253.627131 43.987926 
L 253.827901 44.027397 
L 257.993884 44.125303 
L 258.445617 44.243607 
L 259.650239 44.321305 
L 259.851009 44.380402 
L 261.005438 44.452098 
L 261.206208 44.543958 
L 261.959097 44.629222 
L 262.41083 44.74709 
L 263.916607 44.838822 
L 264.318147 44.890279 
L 266.52662 44.993532 
L 266.978353 45.104756 
L 269.437789 45.214247 
L 269.738945 45.265408 
L 271.746647 45.375745 
L 272.298766 45.407538 
L 274.155891 45.485003 
L 274.356661 45.524152 
L 275.109549 45.635035 
L 275.360512 45.700233 
L 278.422259 45.795473 
L 278.773607 45.815015 
L 280.329576 45.925716 
L 280.480154 45.9843 
L 281.233043 46.086883 
L 281.433813 46.138911 
L 282.789012 46.248032 
L 282.989782 46.30651 
L 283.642286 46.364971 
L 283.792863 46.429909 
L 286.302492 46.536279 
L 286.503262 46.575197 
L 288.460772 46.678945 
L 288.862313 46.808069 
L 290.267705 46.917844 
L 290.468475 46.963163 
L 294.28311 47.052271 
L 294.433688 47.110492 
L 295.788887 47.174825 
L 295.939465 47.258865 
L 297.947167 47.355793 
L 298.19813 47.388093 
L 299.904677 47.497354 
L 300.105448 47.536085 
L 302.062958 47.612651 
L 302.213536 47.677158 
L 304.271431 47.786776 
L 304.422008 47.857675 
L 306.831252 47.966118 
L 307.1826 48.030512 
L 308.236644 48.137926 
L 308.487606 48.202256 
L 309.943191 48.311574 
L 310.143961 48.382278 
L 311.49916 48.472231 
L 311.649738 48.528907 
L 312.553204 48.636905 
L 313.004937 48.64974 
L 314.711485 48.745402 
L 315.01264 48.796708 
L 315.564758 48.860823 
L 315.715336 48.944144 
L 318.174772 49.000441 
L 318.32535 49.058083 
L 321.387096 49.134127 
L 321.587866 49.204528 
L 326.305968 49.301093 
L 326.707508 49.396969 
L 328.614826 49.498581 
L 328.815596 49.536899 
L 330.020218 49.63205 
L 330.27118 49.683104 
L 331.325224 49.777971 
L 331.576187 49.809858 
L 332.078113 49.89274 
L 332.228691 49.962845 
L 334.537549 50.056088 
L 334.838704 50.119761 
L 336.143711 50.202507 
L 336.444866 50.291581 
L 338.151414 50.371676 
L 338.402376 50.441597 
L 340.058731 50.542388 
L 340.309694 50.566704 
L 341.464123 50.63414 
L 341.614701 50.716643 
L 342.618552 50.798006 
L 343.020093 50.950163 
L 344.224714 51.032535 
L 344.475677 51.062857 
L 345.479528 51.157839 
L 345.680299 51.19582 
L 348.240119 51.276718 
L 348.491082 51.333649 
L 349.344356 51.422178 
L 349.545126 51.51067 
L 351.552829 51.614808 
L 351.853984 51.646381 
L 353.510339 51.746675 
L 353.711109 51.797155 
L 355.819197 51.896892 
L 356.421508 51.941027 
L 357.023819 52.048174 
L 357.62613 52.167862 
L 358.880944 52.278516 
L 359.232292 52.398052 
L 360.035373 52.486087 
L 360.236143 52.530091 
L 361.440765 52.630141 
L 361.691727 52.661551 
L 364.251548 52.75101 
L 364.452319 52.786918 
L 365.506363 52.868479 
L 365.707133 52.943738 
L 367.112525 53.018969 
L 367.263102 53.075376 
L 369.120227 53.162833 
L 369.421383 53.231723 
L 371.880819 53.33634 
L 372.131781 53.411421 
L 374.340254 53.509925 
L 374.541025 53.591187 
L 375.444491 53.696615 
L 375.795839 53.802774 
L 376.448342 53.902639 
L 376.950268 53.971269 
L 377.201231 54.046111 
L 377.402001 54.089757 
L 378.205082 54.152092 
L 378.35566 54.208178 
L 379.359511 54.301621 
L 379.610474 54.363893 
L 382.170295 54.457266 
L 382.421258 54.543002 
L 384.378768 54.604517 
L 385.031271 54.653688 
L 385.533197 54.734461 
L 385.683774 54.790362 
L 387.691477 54.90016 
L 387.892247 54.987033 
L 393.463622 55.09413 
L 393.714585 55.125113 
L 394.618051 55.185645 
L 394.818822 55.253766 
L 396.977102 55.359748 
L 397.278257 55.433977 
L 400.540774 55.536201 
L 400.791737 55.559477 
L 404.55618 55.657821 
L 404.75695 55.737198 
L 405.058105 55.761883 
L 407.166193 55.872049 
L 407.467349 55.983032 
L 409.675821 56.079796 
L 409.876592 56.116745 
L 410.529095 56.202038 
L 410.729865 56.248583 
L 411.432561 56.297797 
L 411.583139 56.371596 
L 413.841805 56.454648 
L 414.092767 56.485372 
L 415.347582 56.566228 
L 417.054129 56.677081 
L 418.509713 56.928478 
L 419.262602 57.007817 
L 419.463372 57.050691 
L 421.069534 57.15561 
L 421.521267 57.253499 
L 424.281858 57.3446 
L 424.532821 57.430174 
L 428.146686 57.52898 
L 428.347456 57.571723 
L 431.35901 57.664937 
L 431.860936 57.786929 
L 432.71421 57.883187 
L 432.91498 57.986769 
L 437.080963 58.092825 
L 437.331926 58.12326 
L 438.38597 58.231484 
L 438.58674 58.286223 
L 441.698679 58.387612 
L 441.89945 58.430152 
L 442.953493 58.526033 
L 443.254649 58.550325 
L 444.609848 58.629253 
L 444.810618 58.692695 
L 445.914855 58.798545 
L 446.115625 58.834922 
L 448.926409 58.94066 
L 449.127179 58.977007 
L 450.934112 59.084658 
L 451.134882 59.127029 
L 452.891622 59.204679 
L 453.092392 59.240975 
L 455.702405 59.349824 
L 455.903176 59.39545 
L 457.15799 59.502832 
L 457.35876 59.557184 
L 459.165693 59.63998 
L 459.366463 59.676189 
L 460.721662 59.766686 
L 460.922432 59.814934 
L 463.03052 59.923452 
L 463.381868 59.947559 
L 465.088415 60.051799 
L 465.238993 60.128668 
L 466.845155 60.228859 
L 467.246696 60.258937 
L 470.007287 60.358316 
L 470.308442 60.381645 
L 471.312294 60.489782 
L 471.864412 60.510951 
L 473.420382 60.607003 
L 473.77173 60.625008 
L 475.126929 60.733003 
L 475.528469 60.822956 
L 477.134632 60.929398 
L 477.435787 60.953365 
L 478.339253 61.025248 
L 478.489831 61.085132 
L 479.694452 61.185431 
L 480.196378 61.194837 
L 482.856584 61.29406 
L 483.057354 61.364683 
L 484.261976 61.465139 
L 484.563131 61.489029 
L 486.87199 61.591671 
L 487.07276 61.639408 
L 487.574685 61.728885 
L 487.825648 61.758702 
L 489.833351 61.849966 
L 489.983929 61.90955 
L 493.196253 62.011483 
L 493.497408 62.08291 
L 497.261851 62.16485 
L 497.462621 62.206465 
L 499.821672 62.287008 
L 500.022442 62.322653 
L 502.983804 62.425349 
L 503.184574 62.472835 
L 505.342854 62.560096 
L 505.593817 62.589747 
L 506.497283 62.672747 
L 506.748246 62.749788 
L 511.767503 62.847002 
L 511.91808 62.906208 
L 513.775205 62.969758 
L 513.975976 63.023009 
L 514.779057 63.123557 
L 514.979827 63.164944 
L 516.937337 63.265422 
L 517.539648 63.293784 
L 520.802165 63.367008 
L 521.002935 63.414232 
L 522.558905 63.520444 
L 522.86006 63.667869 
L 525.520266 63.776242 
L 525.871614 63.790313 
L 528.230665 63.787913 
L 531.894722 63.786313 
L 531.894722 63.786313 
" clip-path="url(#p0aba2fccee)" style="fill: none; stroke: #9467bd; stroke-width: 1.8; stroke-linecap: square"/>
   </g>
   <g id="patch_3">
    <path d="M 47.81 260.44 
L 47.81 25.44 
" style="fill: none; stroke: #000000; stroke-width: 0.8; stroke-linejoin: miter; stroke-linecap: square"/>
   </g>
   <g id="patch_4">
    <path d="M 565.2 260.44 
L 565.2 25.44 
" style="fill: none; stroke: #000000; stroke-width: 0.8; stroke-linejoin: miter; stroke-linecap: square"/>
   </g>
   <g id="patch_5">
    <path d="M 47.81 260.44 
L 565.2 260.44 
" style="fill: none; stroke: #000000; stroke-width: 0.8; stroke-linejoin: miter; stroke-linecap: square"/>
   </g>
   <g id="patch_6">
    <path d="M 47.81 25.44 
L 565.2 25.44 
" style="fill: none; stroke: #000000; stroke-width: 0.8; stroke-linejoin: miter; stroke-linecap: square"/>
   </g>
   <g id="text_14">
    <!-- Timely Transfer Rate (Cumulative) -->
    <g transform="translate(204.082187 19.44) scale(0.12 -0.12)">
     <defs>
      <path id="DejaVuSans-54" d="M -19 4666 
L 3928 4666 
L 3928 4134 
L 2272 4134 
L 2272 0 
L 1638 0 
L 1638 4134 
L -19 4134 
L -19 4666 
z
" transform="scale(0.015625)"/>
      <path id="DejaVuSans-52" d="M 2841 2188 
Q 3044 2119 3236 1894 
Q 3428 1669 3622 1275 
L 4263 0 
L 3584 0 
L 2988 1197 
Q 2756 1666 2539 1819 
Q 2322 1972 1947 1972 
L 1259 1972 
L 1259 0 
L 628 0 
L 628 4666 
L 2053 4666 
Q 2853 4666 3247 4331 
Q 3641 3997 3641 3322 
Q 3641 2881 3436 2590 
Q 3231 2300 2841 2188 
z
M 1259 4147 
L 1259 2491 
L 2053 2491 
Q 2509 2491 2742 2702 
Q 2975 2913 2975 3322 
Q 2975 3731 2742 3939 
Q 2509 4147 2053 4147 
L 1259 4147 
z
" transform="scale(0.015625)"/>
      <path id="DejaVuSans-28" d="M 1984 4856 
Q 1566 4138 1362 3434 
Q 1159 2731 1159 2009 
Q 1159 1288 1364 580 
Q 1569 -128 1984 -844 
L 1484 -844 
Q 1016 -109 783 600 
Q 550 1309 550 2009 
Q 550 2706 781 3412 
Q 1013 4119 1484 4856 
L 1984 4856 
z
" transform="scale(0.015625)"/>
      <path id="DejaVuSans-43" d="M 4122 4306 
L 4122 3641 
Q 3803 3938 3442 4084 
Q 3081 4231 2675 4231 
Q 1875 4231 1450 3742 
Q 1025 3253 1025 2328 
Q 1025 1406 1450 917 
Q 1875 428 2675 428 
Q 3081 428 3442 575 
Q 3803 722 4122 1019 
L 4122 359 
Q 3791 134 3420 21 
Q 3050 -91 2638 -91 
Q 1578 -91 968 557 
Q 359 1206 359 2328 
Q 359 3453 968 4101 
Q 1578 4750 2638 4750 
Q 3056 4750 3426 4639 
Q 3797 4528 4122 4306 
z
" transform="scale(0.015625)"/>
      <path id="DejaVuSans-29" d="M 513 4856 
L 1013 4856 
Q 1481 4119 1714 3412 
Q 1947 2706 1947 2009 
Q 1947 1309 1714 600 
Q 1481 -109 1013 -844 
L 513 -844 
Q 928 -128 1133 580 
Q 1338 1288 1338 2009 
Q 1338 2731 1133 3434 
Q 928 4138 513 4856 
z
" transform="scale(0.015625)"/>
     </defs>
     <use xlink:href="#DejaVuSans-54"/>
     <use xlink:href="#DejaVuSans-69" x="57.958984"/>
     <use xlink:href="#DejaVuSans-6d" x="85.742188"/>
     <use xlink:href="#DejaVuSans-65" x="183.154297"/>
     <use xlink:href="#DejaVuSans-6c" x="244.677734"/>
     <use xlink:href="#DejaVuSans-79" x="272.460938"/>
     <use xlink:href="#DejaVuSans-20" x="331.640625"/>
     <use xlink:href="#DejaVuSans-54" x="363.427734"/>
     <use xlink:href="#DejaVuSans-72" x="409.761719"/>
     <use xlink:href="#DejaVuSans-61" x="450.875"/>
     <use xlink:href="#DejaVuSans-6e" x="512.154297"/>
     <use xlink:href="#DejaVuSans-73" x="575.533203"/>
     <use xlink:href="#DejaVuSans-66" x="627.632812"/>
     <use xlink:href="#DejaVuSans-65" x="662.837891"/>
     <use xlink:href="#DejaVuSans-72" x="724.361328"/>
     <use xlink:href="#DejaVuSans-20" x="765.474609"/>
     <use xlink:href="#DejaVuSans-52" x="797.261719"/>
     <use xlink:href="#DejaVuSans-61" x="864.494141"/>
     <use xlink:href="#DejaVuSans-74" x="925.773438"/>
     <use xlink:href="#DejaVuSans-65" x="964.982422"/>
     <use xlink:href="#DejaVuSans-20" x="1026.505859"/>
     <use xlink:href="#DejaVuSans-28" x="1058.292969"/>
     <use xlink:href="#DejaVuSans-43" x="1097.306641"/>
     <use xlink:href="#DejaVuSans-75" x="1167.130859"/>
     <use xlink:href="#DejaVuSans-6d" x="1230.509766"/>
     <use xlink:href="#DejaVuSans-75" x="1327.921875"/>
     <use xlink:href="#DejaVuSans-6c" x="1391.300781"/>
     <use xlink:href="#DejaVuSans-61" x="1419.083984"/>
     <use xlink:href="#DejaVuSans-74" x="1480.363281"/>
     <use xlink:href="#DejaVuSans-69" x="1519.572266"/>
     <use xlink:href="#DejaVuSans-76" x="1547.355469"/>
     <use xlink:href="#DejaVuSans-65" x="1606.535156"/>
     <use xlink:href="#DejaVuSans-29" x="1668.058594"/>
    </g>
   </g>
   <g id="legend_1">
    <g id="patch_7">
     <path d="M 473.826562 255.44 
L 558.2 255.44 
Q 560.2 255.44 560.2 253.44 
L 560.2 180.493125 
Q 560.2 178.493125 558.2 178.493125 
L 473.826562 178.493125 
Q 471.826562 178.493125 471.826562 180.493125 
L 471.826562 253.44 
Q 471.826562 255.44 473.826562 255.44 
z
" style="fill: #ffffff; opacity: 0.8; stroke: #cccccc; stroke-linejoin: miter"/>
    </g>
    <g id="line2d_28">
     <path d="M 475.826562 186.591563 
L 485.826562 186.591563 
L 495.826562 186.591563 
" style="fill: none; stroke: #1f77b4; stroke-width: 1.8; stroke-linecap: square"/>
    </g>
    <g id="text_15">
     <!-- SHEER -->
     <g transform="translate(503.826562 190.091563) scale(0.1 -0.1)">
      <defs>
       <path id="DejaVuSans-53" d="M 3425 4513 
L 3425 3897 
Q 3066 4069 2747 4153 
Q 2428 4238 2131 4238 
Q 1616 4238 1336 4038 
Q 1056 3838 1056 3469 
Q 1056 3159 1242 3001 
Q 1428 2844 1947 2747 
L 2328 2669 
Q 3034 2534 3370 2195 
Q 3706 1856 3706 1288 
Q 3706 609 3251 259 
Q 2797 -91 1919 -91 
Q 1588 -91 1214 -16 
Q 841 59 441 206 
L 441 856 
Q 825 641 1194 531 
Q 1563 422 1919 422 
Q 2459 422 2753 634 
Q 3047 847 3047 1241 
Q 3047 1584 2836 1778 
Q 2625 1972 2144 2069 
L 1759 2144 
Q 1053 2284 737 2584 
Q 422 2884 422 3419 
Q 422 4038 858 4394 
Q 1294 4750 2059 4750 
Q 2388 4750 2728 4690 
Q 3069 4631 3425 4513 
z
" transform="scale(0.015625)"/>
       <path id="DejaVuSans-48" d="M 628 4666 
L 1259 4666 
L 1259 2753 
L 3553 2753 
L 3553 4666 
L 4184 4666 
L 4184 0 
L 3553 0 
L 3553 2222 
L 1259 2222 
L 1259 0 
L 628 0 
L 628 4666 
z
" transform="scale(0.015625)"/>
       <path id="DejaVuSans-45" d="M 628 4666 
L 3578 4666 
L 3578 4134 
L 1259 4134 
L 1259 2753 
L 3481 2753 
L 3481 2222 
L 1259 2222 
L 1259 531 
L 3634 531 
L 3634 0 
L 628 0 
L 628 4666 
z
" transform="scale(0.015625)"/>
      </defs>
      <use xlink:href="#DejaVuSans-53"/>
      <use xlink:href="#DejaVuSans-48" x="63.476562"/>
      <use xlink:href="#DejaVuSans-45" x="138.671875"/>
      <use xlink:href="#DejaVuSans-45" x="201.855469"/>
      <use xlink:href="#DejaVuSans-52" x="265.039062"/>
     </g>
    </g>
    <g id="line2d_29">
     <path d="M 475.826562 201.269688 
L 485.826562 201.269688 
L 495.826562 201.269688 
" style="fill: none; stroke: #ff7f0e; stroke-width: 1.8; stroke-linecap: square"/>
    </g>
    <g id="text_16">
     <!-- ACTAR -->
     <g transform="translate(503.826562 204.769688) scale(0.1 -0.1)">
      <defs>
       <path id="DejaVuSans-41" d="M 2188 4044 
L 1331 1722 
L 3047 1722 
L 2188 4044 
z
M 1831 4666 
L 2547 4666 
L 4325 0 
L 3669 0 
L 3244 1197 
L 1141 1197 
L 716 0 
L 50 0 
L 1831 4666 
z
" transform="scale(0.015625)"/>
      </defs>
      <use xlink:href="#DejaVuSans-41"/>
      <use xlink:href="#DejaVuSans-43" x="66.658203"/>
      <use xlink:href="#DejaVuSans-54" x="136.482422"/>
      <use xlink:href="#DejaVuSans-41" x="189.816406"/>
      <use xlink:href="#DejaVuSans-52" x="258.224609"/>
     </g>
    </g>
    <g id="line2d_30">
     <path d="M 475.826562 215.947813 
L 485.826562 215.947813 
L 495.826562 215.947813 
" style="fill: none; stroke: #2ca02c; stroke-width: 1.8; stroke-linecap: square"/>
    </g>
    <g id="text_17">
     <!-- TFSM_DPC -->
     <g transform="translate(503.826562 219.447813) scale(0.1 -0.1)">
      <defs>
       <path id="DejaVuSans-46" d="M 628 4666 
L 3309 4666 
L 3309 4134 
L 1259 4134 
L 1259 2759 
L 3109 2759 
L 3109 2228 
L 1259 2228 
L 1259 0 
L 628 0 
L 628 4666 
z
" transform="scale(0.015625)"/>
       <path id="DejaVuSans-4d" d="M 628 4666 
L 1569 4666 
L 2759 1491 
L 3956 4666 
L 4897 4666 
L 4897 0 
L 4281 0 
L 4281 4097 
L 3078 897 
L 2444 897 
L 1241 4097 
L 1241 0 
L 628 0 
L 628 4666 
z
" transform="scale(0.015625)"/>
       <path id="DejaVuSans-5f" d="M 3263 -1063 
L 3263 -1509 
L -63 -1509 
L -63 -1063 
L 3263 -1063 
z
" transform="scale(0.015625)"/>
       <path id="DejaVuSans-44" d="M 1259 4147 
L 1259 519 
L 2022 519 
Q 2988 519 3436 956 
Q 3884 1394 3884 2338 
Q 3884 3275 3436 3711 
Q 2988 4147 2022 4147 
L 1259 4147 
z
M 628 4666 
L 1925 4666 
Q 3281 4666 3915 4102 
Q 4550 3538 4550 2338 
Q 4550 1131 3912 565 
Q 3275 0 1925 0 
L 628 0 
L 628 4666 
z
" transform="scale(0.015625)"/>
       <path id="DejaVuSans-50" d="M 1259 4147 
L 1259 2394 
L 2053 2394 
Q 2494 2394 2734 2622 
Q 2975 2850 2975 3272 
Q 2975 3691 2734 3919 
Q 2494 4147 2053 4147 
L 1259 4147 
z
M 628 4666 
L 2053 4666 
Q 2838 4666 3239 4311 
Q 3641 3956 3641 3272 
Q 3641 2581 3239 2228 
Q 2838 1875 2053 1875 
L 1259 1875 
L 1259 0 
L 628 0 
L 628 4666 
z
" transform="scale(0.015625)"/>
      </defs>
      <use xlink:href="#DejaVuSans-54"/>
      <use xlink:href="#DejaVuSans-46" x="61.083984"/>
      <use xlink:href="#DejaVuSans-53" x="116.853516"/>
      <use xlink:href="#DejaVuSans-4d" x="180.330078"/>
      <use xlink:href="#DejaVuSans-5f" x="266.609375"/>
      <use xlink:href="#DejaVuSans-44" x="316.609375"/>
      <use xlink:href="#DejaVuSans-50" x="393.611328"/>
      <use xlink:href="#DejaVuSans-43" x="453.914062"/>
     </g>
    </g>
    <g id="line2d_31">
     <path d="M 475.826562 230.904063 
L 485.826562 230.904063 
L 495.826562 230.904063 
" style="fill: none; stroke: #d62728; stroke-width: 1.8; stroke-linecap: square"/>
    </g>
    <g id="text_18">
     <!-- DST_WOA -->
     <g transform="translate(503.826562 234.404063) scale(0.1 -0.1)">
      <defs>
       <path id="DejaVuSans-57" d="M 213 4666 
L 850 4666 
L 1831 722 
L 2809 4666 
L 3519 4666 
L 4500 722 
L 5478 4666 
L 6119 4666 
L 4947 0 
L 4153 0 
L 3169 4050 
L 2175 0 
L 1381 0 
L 213 4666 
z
" transform="scale(0.015625)"/>
       <path id="DejaVuSans-4f" d="M 2522 4238 
Q 1834 4238 1429 3725 
Q 1025 3213 1025 2328 
Q 1025 1447 1429 934 
Q 1834 422 2522 422 
Q 3209 422 3611 934 
Q 4013 1447 4013 2328 
Q 4013 3213 3611 3725 
Q 3209 4238 2522 4238 
z
M 2522 4750 
Q 3503 4750 4090 4092 
Q 4678 3434 4678 2328 
Q 4678 1225 4090 567 
Q 3503 -91 2522 -91 
Q 1538 -91 948 565 
Q 359 1222 359 2328 
Q 359 3434 948 4092 
Q 1538 4750 2522 4750 
z
" transform="scale(0.015625)"/>
      </defs>
      <use xlink:href="#DejaVuSans-44"/>
      <use xlink:href="#DejaVuSans-53" x="77.001953"/>
      <use xlink:href="#DejaVuSans-54" x="140.478516"/>
      <use xlink:href="#DejaVuSans-5f" x="201.5625"/>
      <use xlink:href="#DejaVuSans-57" x="251.5625"/>
      <use xlink:href="#DejaVuSans-4f" x="350.439453"/>
      <use xlink:href="#DejaVuSans-41" x="427.400391"/>
     </g>
    </g>
    <g id="line2d_32">
     <path d="M 475.826562 245.860313 
L 485.826562 245.860313 
L 495.826562 245.860313 
" style="fill: none; stroke: #9467bd; stroke-width: 1.8; stroke-linecap: square"/>
    </g>
    <g id="text_19">
     <!-- TRAIL -->
     <g transform="translate(503.826562 249.360313) scale(0.1 -0.1)">
      <defs>
       <path id="DejaVuSans-49" d="M 628 4666 
L 1259 4666 
L 1259 0 
L 628 0 
L 628 4666 
z
" transform="scale(0.015625)"/>
       <path id="DejaVuSans-4c" d="M 628 4666 
L 1259 4666 
L 1259 531 
L 3531 531 
L 3531 0 
L 628 0 
L 628 4666 
z
" transform="scale(0.015625)"/>
      </defs>
      <use xlink:href="#DejaVuSans-54"/>
      <use xlink:href="#DejaVuSans-52" x="61.083984"/>
      <use xlink:href="#DejaVuSans-41" x="126.566406"/>
      <use xlink:href="#DejaVuSans-49" x="194.974609"/>
      <use xlink:href="#DejaVuSans-4c" x="224.466797"/>
     </g>
    </g>
   </g>
  </g>
 </g>
 <defs>
  <clipPath id="p0aba2fccee">
   <rect x="47.81" y="25.44" width="517.39" height="235"/>
  </clipPath>
 </defs>
</svg>
