<?xml version="1.0" encoding="utf-8" standalone="no"?>
<!DOCTYPE svg PUBLIC "-//W3C//DTD SVG 1.1//EN"
  "http://www.w3.org/Graphics/SVG/1.1/DTD/svg11.dtd">
<svg xmlns:xlink="http://www.w3.org/1999/xlink" width="576pt" height="302.4pt" viewBox="0 0 576 302.4" xmlns="http://www.w3.org/2000/svg" version="1.1">
 <metadata>
  <rdf:RDF xmlns:dc="http://purl.org/dc/elements/1.1/" xmlns:cc="http://creativecommons.org/ns#" xmlns:rdf="http://www.w3.org/1999/02/22-rdf-syntax-ns#">
   <cc:Work>
    <dc:type rdf:resource="http://purl.org/dc/dcmitype/StillImage"/>
    <dc:date>2025-09-07T18:26:42.053638</dc:date>
    <dc:format>image/svg+xml</dc:format>
    <dc:creator>
     <cc:Agent>
      <dc:title>Matplotlib v3.9.4, https://matplotlib.org/</dc:title>
     </cc:Agent>
    </dc:creator>
   </cc:Work>
  </rdf:RDF>
 </metadata>
 <defs>
  <style type="text/css">*{stroke-linejoin: round; stroke-linecap: butt}</style>
 </defs>
 <g id="figure_1">
  <g id="patch_1">
   <path d="M 0 302.4 
L 576 302.4 
L 576 0 
L 0 0 
z
" style="fill: #ffffff"/>
  </g>
  <g id="axes_1">
   <g id="patch_2">
    <path d="M 47.81 260.44 
L 559.023842 260.44 
L 559.023842 25.44 
L 47.81 25.44 
z
" style="fill: #ffffff"/>
   </g>
   <g id="matplotlib.axis_1">
    <g id="xtick_1">
     <g id="line2d_1">
      <path d="M 70.999313 260.44 
L 70.999313 25.44 
" clip-path="url(#pfa37eec694)" style="fill: none; stroke-dasharray: 2.96,1.28; stroke-dashoffset: 0; stroke: #b0b0b0; stroke-opacity: 0.3; stroke-width: 0.8"/>
     </g>
     <g id="line2d_2">
      <defs>
       <path id="m9790baef16" d="M 0 0 
L 0 3.5 
" style="stroke: #000000; stroke-width: 0.8"/>
      </defs>
      <g>
       <use xlink:href="#m9790baef16" x="70.999313" y="260.44" style="stroke: #000000; stroke-width: 0.8"/>
      </g>
     </g>
     <g id="text_1">
      <!-- 0 -->
      <g transform="translate(67.818063 275.038438) scale(0.1 -0.1)">
       <defs>
        <path id="DejaVuSans-30" d="M 2034 4250 
Q 1547 4250 1301 3770 
Q 1056 3291 1056 2328 
Q 1056 1369 1301 889 
Q 1547 409 2034 409 
Q 2525 409 2770 889 
Q 3016 1369 3016 2328 
Q 3016 3291 2770 3770 
Q 2525 4250 2034 4250 
z
M 2034 4750 
Q 2819 4750 3233 4129 
Q 3647 3509 3647 2328 
Q 3647 1150 3233 529 
Q 2819 -91 2034 -91 
Q 1250 -91 836 529 
Q 422 1150 422 2328 
Q 422 3509 836 4129 
Q 1250 4750 2034 4750 
z
" transform="scale(0.015625)"/>
       </defs>
       <use xlink:href="#DejaVuSans-30"/>
      </g>
     </g>
    </g>
    <g id="xtick_2">
     <g id="line2d_3">
      <path d="M 166.359907 260.44 
L 166.359907 25.44 
" clip-path="url(#pfa37eec694)" style="fill: none; stroke-dasharray: 2.96,1.28; stroke-dashoffset: 0; stroke: #b0b0b0; stroke-opacity: 0.3; stroke-width: 0.8"/>
     </g>
     <g id="line2d_4">
      <g>
       <use xlink:href="#m9790baef16" x="166.359907" y="260.44" style="stroke: #000000; stroke-width: 0.8"/>
      </g>
     </g>
     <g id="text_2">
      <!-- 2000 -->
      <g transform="translate(153.634907 275.038438) scale(0.1 -0.1)">
       <defs>
        <path id="DejaVuSans-32" d="M 1228 531 
L 3431 531 
L 3431 0 
L 469 0 
L 469 531 
Q 828 903 1448 1529 
Q 2069 2156 2228 2338 
Q 2531 2678 2651 2914 
Q 2772 3150 2772 3378 
Q 2772 3750 2511 3984 
Q 2250 4219 1831 4219 
Q 1534 4219 1204 4116 
Q 875 4013 500 3803 
L 500 4441 
Q 881 4594 1212 4672 
Q 1544 4750 1819 4750 
Q 2544 4750 2975 4387 
Q 3406 4025 3406 3419 
Q 3406 3131 3298 2873 
Q 3191 2616 2906 2266 
Q 2828 2175 2409 1742 
Q 1991 1309 1228 531 
z
" transform="scale(0.015625)"/>
       </defs>
       <use xlink:href="#DejaVuSans-32"/>
       <use xlink:href="#DejaVuSans-30" x="63.623047"/>
       <use xlink:href="#DejaVuSans-30" x="127.246094"/>
       <use xlink:href="#DejaVuSans-30" x="190.869141"/>
      </g>
     </g>
    </g>
    <g id="xtick_3">
     <g id="line2d_5">
      <path d="M 261.720501 260.44 
L 261.720501 25.44 
" clip-path="url(#pfa37eec694)" style="fill: none; stroke-dasharray: 2.96,1.28; stroke-dashoffset: 0; stroke: #b0b0b0; stroke-opacity: 0.3; stroke-width: 0.8"/>
     </g>
     <g id="line2d_6">
      <g>
       <use xlink:href="#m9790baef16" x="261.720501" y="260.44" style="stroke: #000000; stroke-width: 0.8"/>
      </g>
     </g>
     <g id="text_3">
      <!-- 4000 -->
      <g transform="translate(248.995501 275.038438) scale(0.1 -0.1)">
       <defs>
        <path id="DejaVuSans-34" d="M 2419 4116 
L 825 1625 
L 2419 1625 
L 2419 4116 
z
M 2253 4666 
L 3047 4666 
L 3047 1625 
L 3713 1625 
L 3713 1100 
L 3047 1100 
L 3047 0 
L 2419 0 
L 2419 1100 
L 313 1100 
L 313 1709 
L 2253 4666 
z
" transform="scale(0.015625)"/>
       </defs>
       <use xlink:href="#DejaVuSans-34"/>
       <use xlink:href="#DejaVuSans-30" x="63.623047"/>
       <use xlink:href="#DejaVuSans-30" x="127.246094"/>
       <use xlink:href="#DejaVuSans-30" x="190.869141"/>
      </g>
     </g>
    </g>
    <g id="xtick_4">
     <g id="line2d_7">
      <path d="M 357.081095 260.44 
L 357.081095 25.44 
" clip-path="url(#pfa37eec694)" style="fill: none; stroke-dasharray: 2.96,1.28; stroke-dashoffset: 0; stroke: #b0b0b0; stroke-opacity: 0.3; stroke-width: 0.8"/>
     </g>
     <g id="line2d_8">
      <g>
       <use xlink:href="#m9790baef16" x="357.081095" y="260.44" style="stroke: #000000; stroke-width: 0.8"/>
      </g>
     </g>
     <g id="text_4">
      <!-- 6000 -->
      <g transform="translate(344.356095 275.038438) scale(0.1 -0.1)">
       <defs>
        <path id="DejaVuSans-36" d="M 2113 2584 
Q 1688 2584 1439 2293 
Q 1191 2003 1191 1497 
Q 1191 994 1439 701 
Q 1688 409 2113 409 
Q 2538 409 2786 701 
Q 3034 994 3034 1497 
Q 3034 2003 2786 2293 
Q 2538 2584 2113 2584 
z
M 3366 4563 
L 3366 3988 
Q 3128 4100 2886 4159 
Q 2644 4219 2406 4219 
Q 1781 4219 1451 3797 
Q 1122 3375 1075 2522 
Q 1259 2794 1537 2939 
Q 1816 3084 2150 3084 
Q 2853 3084 3261 2657 
Q 3669 2231 3669 1497 
Q 3669 778 3244 343 
Q 2819 -91 2113 -91 
Q 1303 -91 875 529 
Q 447 1150 447 2328 
Q 447 3434 972 4092 
Q 1497 4750 2381 4750 
Q 2619 4750 2861 4703 
Q 3103 4656 3366 4563 
z
" transform="scale(0.015625)"/>
       </defs>
       <use xlink:href="#DejaVuSans-36"/>
       <use xlink:href="#DejaVuSans-30" x="63.623047"/>
       <use xlink:href="#DejaVuSans-30" x="127.246094"/>
       <use xlink:href="#DejaVuSans-30" x="190.869141"/>
      </g>
     </g>
    </g>
    <g id="xtick_5">
     <g id="line2d_9">
      <path d="M 452.441689 260.44 
L 452.441689 25.44 
" clip-path="url(#pfa37eec694)" style="fill: none; stroke-dasharray: 2.96,1.28; stroke-dashoffset: 0; stroke: #b0b0b0; stroke-opacity: 0.3; stroke-width: 0.8"/>
     </g>
     <g id="line2d_10">
      <g>
       <use xlink:href="#m9790baef16" x="452.441689" y="260.44" style="stroke: #000000; stroke-width: 0.8"/>
      </g>
     </g>
     <g id="text_5">
      <!-- 8000 -->
      <g transform="translate(439.716689 275.038438) scale(0.1 -0.1)">
       <defs>
        <path id="DejaVuSans-38" d="M 2034 2216 
Q 1584 2216 1326 1975 
Q 1069 1734 1069 1313 
Q 1069 891 1326 650 
Q 1584 409 2034 409 
Q 2484 409 2743 651 
Q 3003 894 3003 1313 
Q 3003 1734 2745 1975 
Q 2488 2216 2034 2216 
z
M 1403 2484 
Q 997 2584 770 2862 
Q 544 3141 544 3541 
Q 544 4100 942 4425 
Q 1341 4750 2034 4750 
Q 2731 4750 3128 4425 
Q 3525 4100 3525 3541 
Q 3525 3141 3298 2862 
Q 3072 2584 2669 2484 
Q 3125 2378 3379 2068 
Q 3634 1759 3634 1313 
Q 3634 634 3220 271 
Q 2806 -91 2034 -91 
Q 1263 -91 848 271 
Q 434 634 434 1313 
Q 434 1759 690 2068 
Q 947 2378 1403 2484 
z
M 1172 3481 
Q 1172 3119 1398 2916 
Q 1625 2713 2034 2713 
Q 2441 2713 2670 2916 
Q 2900 3119 2900 3481 
Q 2900 3844 2670 4047 
Q 2441 4250 2034 4250 
Q 1625 4250 1398 4047 
Q 1172 3844 1172 3481 
z
" transform="scale(0.015625)"/>
       </defs>
       <use xlink:href="#DejaVuSans-38"/>
       <use xlink:href="#DejaVuSans-30" x="63.623047"/>
       <use xlink:href="#DejaVuSans-30" x="127.246094"/>
       <use xlink:href="#DejaVuSans-30" x="190.869141"/>
      </g>
     </g>
    </g>
    <g id="xtick_6">
     <g id="line2d_11">
      <path d="M 547.802284 260.44 
L 547.802284 25.44 
" clip-path="url(#pfa37eec694)" style="fill: none; stroke-dasharray: 2.96,1.28; stroke-dashoffset: 0; stroke: #b0b0b0; stroke-opacity: 0.3; stroke-width: 0.8"/>
     </g>
     <g id="line2d_12">
      <g>
       <use xlink:href="#m9790baef16" x="547.802284" y="260.44" style="stroke: #000000; stroke-width: 0.8"/>
      </g>
     </g>
     <g id="text_6">
      <!-- 10000 -->
      <g transform="translate(531.896034 275.038438) scale(0.1 -0.1)">
       <defs>
        <path id="DejaVuSans-31" d="M 794 531 
L 1825 531 
L 1825 4091 
L 703 3866 
L 703 4441 
L 1819 4666 
L 2450 4666 
L 2450 531 
L 3481 531 
L 3481 0 
L 794 0 
L 794 531 
z
" transform="scale(0.015625)"/>
       </defs>
       <use xlink:href="#DejaVuSans-31"/>
       <use xlink:href="#DejaVuSans-30" x="63.623047"/>
       <use xlink:href="#DejaVuSans-30" x="127.246094"/>
       <use xlink:href="#DejaVuSans-30" x="190.869141"/>
       <use xlink:href="#DejaVuSans-30" x="254.492188"/>
      </g>
     </g>
    </g>
    <g id="text_7">
     <!-- round -->
     <g transform="translate(288.902858 288.716563) scale(0.1 -0.1)">
      <defs>
       <path id="DejaVuSans-72" d="M 2631 2963 
Q 2534 3019 2420 3045 
Q 2306 3072 2169 3072 
Q 1681 3072 1420 2755 
Q 1159 2438 1159 1844 
L 1159 0 
L 581 0 
L 581 3500 
L 1159 3500 
L 1159 2956 
Q 1341 3275 1631 3429 
Q 1922 3584 2338 3584 
Q 2397 3584 2469 3576 
Q 2541 3569 2628 3553 
L 2631 2963 
z
" transform="scale(0.015625)"/>
       <path id="DejaVuSans-6f" d="M 1959 3097 
Q 1497 3097 1228 2736 
Q 959 2375 959 1747 
Q 959 1119 1226 758 
Q 1494 397 1959 397 
Q 2419 397 2687 759 
Q 2956 1122 2956 1747 
Q 2956 2369 2687 2733 
Q 2419 3097 1959 3097 
z
M 1959 3584 
Q 2709 3584 3137 3096 
Q 3566 2609 3566 1747 
Q 3566 888 3137 398 
Q 2709 -91 1959 -91 
Q 1206 -91 779 398 
Q 353 888 353 1747 
Q 353 2609 779 3096 
Q 1206 3584 1959 3584 
z
" transform="scale(0.015625)"/>
       <path id="DejaVuSans-75" d="M 544 1381 
L 544 3500 
L 1119 3500 
L 1119 1403 
Q 1119 906 1312 657 
Q 1506 409 1894 409 
Q 2359 409 2629 706 
Q 2900 1003 2900 1516 
L 2900 3500 
L 3475 3500 
L 3475 0 
L 2900 0 
L 2900 538 
Q 2691 219 2414 64 
Q 2138 -91 1772 -91 
Q 1169 -91 856 284 
Q 544 659 544 1381 
z
M 1991 3584 
L 1991 3584 
z
" transform="scale(0.015625)"/>
       <path id="DejaVuSans-6e" d="M 3513 2113 
L 3513 0 
L 2938 0 
L 2938 2094 
Q 2938 2591 2744 2837 
Q 2550 3084 2163 3084 
Q 1697 3084 1428 2787 
Q 1159 2491 1159 1978 
L 1159 0 
L 581 0 
L 581 3500 
L 1159 3500 
L 1159 2956 
Q 1366 3272 1645 3428 
Q 1925 3584 2291 3584 
Q 2894 3584 3203 3211 
Q 3513 2838 3513 2113 
z
" transform="scale(0.015625)"/>
       <path id="DejaVuSans-64" d="M 2906 2969 
L 2906 4863 
L 3481 4863 
L 3481 0 
L 2906 0 
L 2906 525 
Q 2725 213 2448 61 
Q 2172 -91 1784 -91 
Q 1150 -91 751 415 
Q 353 922 353 1747 
Q 353 2572 751 3078 
Q 1150 3584 1784 3584 
Q 2172 3584 2448 3432 
Q 2725 3281 2906 2969 
z
M 947 1747 
Q 947 1113 1208 752 
Q 1469 391 1925 391 
Q 2381 391 2643 752 
Q 2906 1113 2906 1747 
Q 2906 2381 2643 2742 
Q 2381 3103 1925 3103 
Q 1469 3103 1208 2742 
Q 947 2381 947 1747 
z
" transform="scale(0.015625)"/>
      </defs>
      <use xlink:href="#DejaVuSans-72"/>
      <use xlink:href="#DejaVuSans-6f" x="38.863281"/>
      <use xlink:href="#DejaVuSans-75" x="100.044922"/>
      <use xlink:href="#DejaVuSans-6e" x="163.423828"/>
      <use xlink:href="#DejaVuSans-64" x="226.802734"/>
     </g>
    </g>
   </g>
   <g id="matplotlib.axis_2">
    <g id="ytick_1">
     <g id="line2d_13">
      <path d="M 47.81 258.303636 
L 559.023842 258.303636 
" clip-path="url(#pfa37eec694)" style="fill: none; stroke-dasharray: 2.96,1.28; stroke-dashoffset: 0; stroke: #b0b0b0; stroke-opacity: 0.3; stroke-width: 0.8"/>
     </g>
     <g id="line2d_14">
      <defs>
       <path id="m86691d709e" d="M 0 0 
L -3.5 0 
" style="stroke: #000000; stroke-width: 0.8"/>
      </defs>
      <g>
       <use xlink:href="#m86691d709e" x="47.81" y="258.303636" style="stroke: #000000; stroke-width: 0.8"/>
      </g>
     </g>
     <g id="text_8">
      <!-- 0.0 -->
      <g transform="translate(24.906875 262.102855) scale(0.1 -0.1)">
       <defs>
        <path id="DejaVuSans-2e" d="M 684 794 
L 1344 794 
L 1344 0 
L 684 0 
L 684 794 
z
" transform="scale(0.015625)"/>
       </defs>
       <use xlink:href="#DejaVuSans-30"/>
       <use xlink:href="#DejaVuSans-2e" x="63.623047"/>
       <use xlink:href="#DejaVuSans-30" x="95.410156"/>
      </g>
     </g>
    </g>
    <g id="ytick_2">
     <g id="line2d_15">
      <path d="M 47.81 213.867273 
L 559.023842 213.867273 
" clip-path="url(#pfa37eec694)" style="fill: none; stroke-dasharray: 2.96,1.28; stroke-dashoffset: 0; stroke: #b0b0b0; stroke-opacity: 0.3; stroke-width: 0.8"/>
     </g>
     <g id="line2d_16">
      <g>
       <use xlink:href="#m86691d709e" x="47.81" y="213.867273" style="stroke: #000000; stroke-width: 0.8"/>
      </g>
     </g>
     <g id="text_9">
      <!-- 0.2 -->
      <g transform="translate(24.906875 217.666491) scale(0.1 -0.1)">
       <use xlink:href="#DejaVuSans-30"/>
       <use xlink:href="#DejaVuSans-2e" x="63.623047"/>
       <use xlink:href="#DejaVuSans-32" x="95.410156"/>
      </g>
     </g>
    </g>
    <g id="ytick_3">
     <g id="line2d_17">
      <path d="M 47.81 169.430909 
L 559.023842 169.430909 
" clip-path="url(#pfa37eec694)" style="fill: none; stroke-dasharray: 2.96,1.28; stroke-dashoffset: 0; stroke: #b0b0b0; stroke-opacity: 0.3; stroke-width: 0.8"/>
     </g>
     <g id="line2d_18">
      <g>
       <use xlink:href="#m86691d709e" x="47.81" y="169.430909" style="stroke: #000000; stroke-width: 0.8"/>
      </g>
     </g>
     <g id="text_10">
      <!-- 0.4 -->
      <g transform="translate(24.906875 173.230128) scale(0.1 -0.1)">
       <use xlink:href="#DejaVuSans-30"/>
       <use xlink:href="#DejaVuSans-2e" x="63.623047"/>
       <use xlink:href="#DejaVuSans-34" x="95.410156"/>
      </g>
     </g>
    </g>
    <g id="ytick_4">
     <g id="line2d_19">
      <path d="M 47.81 124.994545 
L 559.023842 124.994545 
" clip-path="url(#pfa37eec694)" style="fill: none; stroke-dasharray: 2.96,1.28; stroke-dashoffset: 0; stroke: #b0b0b0; stroke-opacity: 0.3; stroke-width: 0.8"/>
     </g>
     <g id="line2d_20">
      <g>
       <use xlink:href="#m86691d709e" x="47.81" y="124.994545" style="stroke: #000000; stroke-width: 0.8"/>
      </g>
     </g>
     <g id="text_11">
      <!-- 0.6 -->
      <g transform="translate(24.906875 128.793764) scale(0.1 -0.1)">
       <use xlink:href="#DejaVuSans-30"/>
       <use xlink:href="#DejaVuSans-2e" x="63.623047"/>
       <use xlink:href="#DejaVuSans-36" x="95.410156"/>
      </g>
     </g>
    </g>
    <g id="ytick_5">
     <g id="line2d_21">
      <path d="M 47.81 80.558182 
L 559.023842 80.558182 
" clip-path="url(#pfa37eec694)" style="fill: none; stroke-dasharray: 2.96,1.28; stroke-dashoffset: 0; stroke: #b0b0b0; stroke-opacity: 0.3; stroke-width: 0.8"/>
     </g>
     <g id="line2d_22">
      <g>
       <use xlink:href="#m86691d709e" x="47.81" y="80.558182" style="stroke: #000000; stroke-width: 0.8"/>
      </g>
     </g>
     <g id="text_12">
      <!-- 0.8 -->
      <g transform="translate(24.906875 84.357401) scale(0.1 -0.1)">
       <use xlink:href="#DejaVuSans-30"/>
       <use xlink:href="#DejaVuSans-2e" x="63.623047"/>
       <use xlink:href="#DejaVuSans-38" x="95.410156"/>
      </g>
     </g>
    </g>
    <g id="ytick_6">
     <g id="line2d_23">
      <path d="M 47.81 36.121818 
L 559.023842 36.121818 
" clip-path="url(#pfa37eec694)" style="fill: none; stroke-dasharray: 2.96,1.28; stroke-dashoffset: 0; stroke: #b0b0b0; stroke-opacity: 0.3; stroke-width: 0.8"/>
     </g>
     <g id="line2d_24">
      <g>
       <use xlink:href="#m86691d709e" x="47.81" y="36.121818" style="stroke: #000000; stroke-width: 0.8"/>
      </g>
     </g>
     <g id="text_13">
      <!-- 1.0 -->
      <g transform="translate(24.906875 39.921037) scale(0.1 -0.1)">
       <use xlink:href="#DejaVuSans-31"/>
       <use xlink:href="#DejaVuSans-2e" x="63.623047"/>
       <use xlink:href="#DejaVuSans-30" x="95.410156"/>
      </g>
     </g>
    </g>
    <g id="text_14">
     <!-- cumulative timely transfer rate -->
     <g transform="translate(18.827188 221.048594) rotate(-90) scale(0.1 -0.1)">
      <defs>
       <path id="DejaVuSans-63" d="M 3122 3366 
L 3122 2828 
Q 2878 2963 2633 3030 
Q 2388 3097 2138 3097 
Q 1578 3097 1268 2742 
Q 959 2388 959 1747 
Q 959 1106 1268 751 
Q 1578 397 2138 397 
Q 2388 397 2633 464 
Q 2878 531 3122 666 
L 3122 134 
Q 2881 22 2623 -34 
Q 2366 -91 2075 -91 
Q 1284 -91 818 406 
Q 353 903 353 1747 
Q 353 2603 823 3093 
Q 1294 3584 2113 3584 
Q 2378 3584 2631 3529 
Q 2884 3475 3122 3366 
z
" transform="scale(0.015625)"/>
       <path id="DejaVuSans-6d" d="M 3328 2828 
Q 3544 3216 3844 3400 
Q 4144 3584 4550 3584 
Q 5097 3584 5394 3201 
Q 5691 2819 5691 2113 
L 5691 0 
L 5113 0 
L 5113 2094 
Q 5113 2597 4934 2840 
Q 4756 3084 4391 3084 
Q 3944 3084 3684 2787 
Q 3425 2491 3425 1978 
L 3425 0 
L 2847 0 
L 2847 2094 
Q 2847 2600 2669 2842 
Q 2491 3084 2119 3084 
Q 1678 3084 1418 2786 
Q 1159 2488 1159 1978 
L 1159 0 
L 581 0 
L 581 3500 
L 1159 3500 
L 1159 2956 
Q 1356 3278 1631 3431 
Q 1906 3584 2284 3584 
Q 2666 3584 2933 3390 
Q 3200 3197 3328 2828 
z
" transform="scale(0.015625)"/>
       <path id="DejaVuSans-6c" d="M 603 4863 
L 1178 4863 
L 1178 0 
L 603 0 
L 603 4863 
z
" transform="scale(0.015625)"/>
       <path id="DejaVuSans-61" d="M 2194 1759 
Q 1497 1759 1228 1600 
Q 959 1441 959 1056 
Q 959 750 1161 570 
Q 1363 391 1709 391 
Q 2188 391 2477 730 
Q 2766 1069 2766 1631 
L 2766 1759 
L 2194 1759 
z
M 3341 1997 
L 3341 0 
L 2766 0 
L 2766 531 
Q 2569 213 2275 61 
Q 1981 -91 1556 -91 
Q 1019 -91 701 211 
Q 384 513 384 1019 
Q 384 1609 779 1909 
Q 1175 2209 1959 2209 
L 2766 2209 
L 2766 2266 
Q 2766 2663 2505 2880 
Q 2244 3097 1772 3097 
Q 1472 3097 1187 3025 
Q 903 2953 641 2809 
L 641 3341 
Q 956 3463 1253 3523 
Q 1550 3584 1831 3584 
Q 2591 3584 2966 3190 
Q 3341 2797 3341 1997 
z
" transform="scale(0.015625)"/>
       <path id="DejaVuSans-74" d="M 1172 4494 
L 1172 3500 
L 2356 3500 
L 2356 3053 
L 1172 3053 
L 1172 1153 
Q 1172 725 1289 603 
Q 1406 481 1766 481 
L 2356 481 
L 2356 0 
L 1766 0 
Q 1100 0 847 248 
Q 594 497 594 1153 
L 594 3053 
L 172 3053 
L 172 3500 
L 594 3500 
L 594 4494 
L 1172 4494 
z
" transform="scale(0.015625)"/>
       <path id="DejaVuSans-69" d="M 603 3500 
L 1178 3500 
L 1178 0 
L 603 0 
L 603 3500 
z
M 603 4863 
L 1178 4863 
L 1178 4134 
L 603 4134 
L 603 4863 
z
" transform="scale(0.015625)"/>
       <path id="DejaVuSans-76" d="M 191 3500 
L 800 3500 
L 1894 563 
L 2988 3500 
L 3597 3500 
L 2284 0 
L 1503 0 
L 191 3500 
z
" transform="scale(0.015625)"/>
       <path id="DejaVuSans-65" d="M 3597 1894 
L 3597 1613 
L 953 1613 
Q 991 1019 1311 708 
Q 1631 397 2203 397 
Q 2534 397 2845 478 
Q 3156 559 3463 722 
L 3463 178 
Q 3153 47 2828 -22 
Q 2503 -91 2169 -91 
Q 1331 -91 842 396 
Q 353 884 353 1716 
Q 353 2575 817 3079 
Q 1281 3584 2069 3584 
Q 2775 3584 3186 3129 
Q 3597 2675 3597 1894 
z
M 3022 2063 
Q 3016 2534 2758 2815 
Q 2500 3097 2075 3097 
Q 1594 3097 1305 2825 
Q 1016 2553 972 2059 
L 3022 2063 
z
" transform="scale(0.015625)"/>
       <path id="DejaVuSans-20" transform="scale(0.015625)"/>
       <path id="DejaVuSans-79" d="M 2059 -325 
Q 1816 -950 1584 -1140 
Q 1353 -1331 966 -1331 
L 506 -1331 
L 506 -850 
L 844 -850 
Q 1081 -850 1212 -737 
Q 1344 -625 1503 -206 
L 1606 56 
L 191 3500 
L 800 3500 
L 1894 763 
L 2988 3500 
L 3597 3500 
L 2059 -325 
z
" transform="scale(0.015625)"/>
       <path id="DejaVuSans-73" d="M 2834 3397 
L 2834 2853 
Q 2591 2978 2328 3040 
Q 2066 3103 1784 3103 
Q 1356 3103 1142 2972 
Q 928 2841 928 2578 
Q 928 2378 1081 2264 
Q 1234 2150 1697 2047 
L 1894 2003 
Q 2506 1872 2764 1633 
Q 3022 1394 3022 966 
Q 3022 478 2636 193 
Q 2250 -91 1575 -91 
Q 1294 -91 989 -36 
Q 684 19 347 128 
L 347 722 
Q 666 556 975 473 
Q 1284 391 1588 391 
Q 1994 391 2212 530 
Q 2431 669 2431 922 
Q 2431 1156 2273 1281 
Q 2116 1406 1581 1522 
L 1381 1569 
Q 847 1681 609 1914 
Q 372 2147 372 2553 
Q 372 3047 722 3315 
Q 1072 3584 1716 3584 
Q 2034 3584 2315 3537 
Q 2597 3491 2834 3397 
z
" transform="scale(0.015625)"/>
       <path id="DejaVuSans-66" d="M 2375 4863 
L 2375 4384 
L 1825 4384 
Q 1516 4384 1395 4259 
Q 1275 4134 1275 3809 
L 1275 3500 
L 2222 3500 
L 2222 3053 
L 1275 3053 
L 1275 0 
L 697 0 
L 697 3053 
L 147 3053 
L 147 3500 
L 697 3500 
L 697 3744 
Q 697 4328 969 4595 
Q 1241 4863 1831 4863 
L 2375 4863 
z
" transform="scale(0.015625)"/>
      </defs>
      <use xlink:href="#DejaVuSans-63"/>
      <use xlink:href="#DejaVuSans-75" x="54.980469"/>
      <use xlink:href="#DejaVuSans-6d" x="118.359375"/>
      <use xlink:href="#DejaVuSans-75" x="215.771484"/>
      <use xlink:href="#DejaVuSans-6c" x="279.150391"/>
      <use xlink:href="#DejaVuSans-61" x="306.933594"/>
      <use xlink:href="#DejaVuSans-74" x="368.212891"/>
      <use xlink:href="#DejaVuSans-69" x="407.421875"/>
      <use xlink:href="#DejaVuSans-76" x="435.205078"/>
      <use xlink:href="#DejaVuSans-65" x="494.384766"/>
      <use xlink:href="#DejaVuSans-20" x="555.908203"/>
      <use xlink:href="#DejaVuSans-74" x="587.695312"/>
      <use xlink:href="#DejaVuSans-69" x="626.904297"/>
      <use xlink:href="#DejaVuSans-6d" x="654.6875"/>
      <use xlink:href="#DejaVuSans-65" x="752.099609"/>
      <use xlink:href="#DejaVuSans-6c" x="813.623047"/>
      <use xlink:href="#DejaVuSans-79" x="841.40625"/>
      <use xlink:href="#DejaVuSans-20" x="900.585938"/>
      <use xlink:href="#DejaVuSans-74" x="932.373047"/>
      <use xlink:href="#DejaVuSans-72" x="971.582031"/>
      <use xlink:href="#DejaVuSans-61" x="1012.695312"/>
      <use xlink:href="#DejaVuSans-6e" x="1073.974609"/>
      <use xlink:href="#DejaVuSans-73" x="1137.353516"/>
      <use xlink:href="#DejaVuSans-66" x="1189.453125"/>
      <use xlink:href="#DejaVuSans-65" x="1224.658203"/>
      <use xlink:href="#DejaVuSans-72" x="1286.181641"/>
      <use xlink:href="#DejaVuSans-20" x="1327.294922"/>
      <use xlink:href="#DejaVuSans-72" x="1359.082031"/>
      <use xlink:href="#DejaVuSans-61" x="1400.195312"/>
      <use xlink:href="#DejaVuSans-74" x="1461.474609"/>
      <use xlink:href="#DejaVuSans-65" x="1500.683594"/>
     </g>
    </g>
   </g>
   <g id="line2d_25">
    <path d="M 71.046993 36.121818 
L 71.142353 36.121818 
L 71.190034 80.558182 
L 71.285394 68.864402 
L 71.571476 52.073333 
L 71.619156 63.894545 
L 71.714517 60.71111 
L 72.239 49.082424 
L 72.715803 44.883918 
L 73.240286 42.608879 
L 73.574049 41.80318 
L 73.76477 47.100652 
L 74.527654 44.423735 
L 74.575335 46.208431 
L 74.670695 46.066191 
L 74.766056 45.916065 
L 74.813736 47.607153 
L 74.909097 47.452309 
L 75.004457 47.288669 
L 75.099818 50.460151 
L 75.147498 50.253958 
L 75.195179 50.084064 
L 75.33822 53.014206 
L 75.3859 52.77678 
L 75.48126 52.503888 
L 75.671982 54.356574 
L 75.719662 54.153966 
L 76.291825 52.266518 
L 76.339506 52.956656 
L 76.387186 52.813746 
L 76.530227 52.345491 
L 76.768628 53.86825 
L 76.816309 53.770551 
L 76.863989 53.639666 
L 76.911669 54.187469 
L 76.95935 54.00826 
L 77.00703 53.845963 
L 77.245431 57.251269 
L 77.293112 57.114114 
L 77.531513 56.306158 
L 77.579194 56.6744 
L 77.626874 56.436879 
L 77.769915 55.997744 
L 77.817595 57.327102 
L 77.912956 57.052511 
L 78.008316 58.649759 
L 78.055996 58.543194 
L 78.199037 58.215722 
L 78.246718 58.715422 
L 78.294398 58.447921 
L 78.723521 56.629956 
L 78.818881 58.133827 
L 78.866562 57.955061 
L 79.009602 57.537644 
L 79.057283 58.830364 
L 79.104963 58.535907 
L 79.200324 58.215051 
L 79.295684 59.283198 
L 79.343364 59.115697 
L 79.391045 59.012944 
L 79.486405 60.537403 
L 79.534086 60.412833 
L 79.629446 60.260355 
L 79.677127 60.873886 
L 79.772487 60.755597 
L 80.106249 60.102363 
L 80.344651 61.771749 
L 80.583052 60.998753 
L 80.773773 60.277164 
L 80.916814 60.587303 
L 81.012175 60.141474 
L 81.059855 60.224116 
L 81.107535 60.374372 
L 81.250576 59.963835 
L 81.298257 60.105908 
L 81.488978 59.436439 
L 81.536658 59.594579 
L 81.584338 59.353377 
L 81.632019 59.655838 
L 81.679699 59.44303 
L 82.061141 58.147507 
L 82.108822 58.204724 
L 82.347223 57.162555 
L 82.490264 58.346786 
L 82.537944 58.286023 
L 82.585625 58.523898 
L 82.633305 58.349953 
L 82.871706 57.799653 
L 82.919387 58.400212 
L 83.014747 58.223839 
L 83.110108 57.976785 
L 83.253149 58.546624 
L 83.39619 58.140105 
L 83.539231 58.41911 
L 83.729952 58.16161 
L 83.777632 58.314228 
L 83.872993 58.771973 
L 83.920673 58.636619 
L 84.063714 59.004883 
L 84.111394 58.851838 
L 84.445156 57.796813 
L 84.492837 57.878804 
L 84.540517 57.757016 
L 84.683558 57.502057 
L 84.874279 58.717835 
L 84.921959 58.620309 
L 84.96964 58.708311 
L 85.208041 59.703108 
L 85.303402 59.503182 
L 85.351082 59.769651 
L 85.398762 59.6604 
L 85.541803 59.309805 
L 85.589483 59.389084 
L 85.637164 59.474671 
L 85.684844 59.306204 
L 85.732524 59.520004 
L 85.780205 59.351132 
L 85.827885 59.35565 
L 86.209327 58.582764 
L 86.447729 59.18404 
L 86.543089 58.977015 
L 86.59077 59.139011 
L 86.63845 59.02612 
L 86.68613 58.887582 
L 86.876851 60.4251 
L 86.924532 60.345971 
L 87.019892 60.853842 
L 87.067573 60.727396 
L 87.210614 60.409592 
L 87.258294 60.468439 
L 87.305974 60.536989 
L 87.878138 59.033495 
L 88.021179 59.527547 
L 88.068859 59.424359 
L 88.164219 59.613307 
L 88.25958 59.429375 
L 88.450301 59.074691 
L 88.593342 59.376064 
L 88.784063 59.169791 
L 89.022465 59.148536 
L 89.070145 59.358261 
L 89.117825 59.287917 
L 89.165506 59.201798 
L 89.213186 59.326023 
L 89.451587 59.828563 
L 89.499268 59.787782 
L 89.594628 59.94168 
L 89.642309 59.866903 
L 89.689989 59.892989 
L 89.88071 60.563607 
L 89.92839 60.486792 
L 89.976071 60.55886 
L 90.023751 60.518253 
L 90.166792 60.46509 
L 90.405193 61.056917 
L 90.452874 60.963448 
L 90.548234 60.815031 
L 90.595915 60.863985 
L 90.738956 61.280311 
L 90.786636 61.199405 
L 90.929677 61.070641 
L 90.977357 61.123492 
L 91.025037 61.067196 
L 91.168078 60.789023 
L 91.358799 61.156011 
L 91.50184 61.387355 
L 91.692561 61.940022 
L 91.740242 61.858943 
L 91.978643 62.548616 
L 92.121684 62.45952 
L 92.217045 62.629466 
L 92.264725 62.524818 
L 92.312405 62.469043 
L 92.455446 62.9386 
L 92.503127 62.927977 
L 92.550807 62.89041 
L 92.932249 64.513845 
L 93.266011 66.269346 
L 93.313692 66.538127 
L 93.409052 66.455537 
L 93.552093 66.666272 
L 93.695134 66.647979 
L 93.742814 66.892949 
L 93.838175 66.869243 
L 93.981216 67.109192 
L 94.028896 67.327393 
L 94.076576 67.245471 
L 94.124257 67.112047 
L 94.171937 67.280476 
L 94.219617 67.207657 
L 94.267297 67.283218 
L 94.7441 68.335018 
L 94.791781 68.279416 
L 94.839461 68.350785 
L 95.077863 68.916962 
L 95.220903 69.219324 
L 95.268584 69.161692 
L 95.316264 69.357016 
L 95.411625 69.280006 
L 95.793067 68.79371 
L 95.983788 68.982251 
L 96.031468 68.923895 
L 96.22219 68.724413 
L 96.26987 68.950961 
L 96.31755 68.840733 
L 96.365231 68.836349 
L 96.555952 69.37621 
L 96.603632 69.303131 
L 96.746673 69.476465 
L 96.985074 69.374355 
L 97.509558 70.061955 
L 97.557238 70.019211 
L 97.604918 70.075553 
L 97.93868 70.478815 
L 98.034041 70.413798 
L 98.081721 70.451179 
L 98.177082 70.593605 
L 98.224762 70.507678 
L 98.320123 70.347528 
L 98.367803 70.417239 
L 98.510844 70.895267 
L 98.558524 70.842814 
L 98.701565 71.001852 
L 98.844606 70.993744 
L 99.130688 71.603397 
L 99.369089 71.600064 
L 99.655171 72.32438 
L 100.322695 72.774169 
L 100.370376 72.852838 
L 100.418056 72.775815 
L 100.513416 72.653542 
L 100.656457 72.89172 
L 100.942539 73.203331 
L 100.990219 73.153582 
L 101.08558 73.09972 
L 101.228621 73.20855 
L 101.562383 72.918059 
L 101.657744 72.888849 
L 101.705424 72.850738 
L 101.800784 73.075665 
L 101.848465 73.006561 
L 102.277587 72.523127 
L 102.515989 72.751794 
L 102.563669 72.920913 
L 102.611349 72.880171 
L 103.040472 72.48251 
L 103.088152 72.542955 
L 103.135833 72.484981 
L 103.326554 72.37833 
L 103.421915 72.498474 
L 103.469595 72.42583 
L 103.994078 71.80399 
L 104.470881 71.250339 
L 104.518561 71.3848 
L 104.566242 71.346319 
L 104.613922 71.307922 
L 104.709283 71.472697 
L 104.756963 71.386504 
L 104.900004 71.311594 
L 104.947684 71.24527 
L 104.995364 71.289275 
L 105.138405 71.394083 
L 105.519848 71.136019 
L 105.615208 71.040275 
L 105.94897 70.548606 
L 106.044331 70.589165 
L 106.235052 70.488276 
L 106.902576 70.398797 
L 107.045617 70.626227 
L 107.093297 70.580076 
L 107.236338 70.634028 
L 107.284019 70.58385 
L 107.331699 70.688923 
L 107.5701 71.125395 
L 107.856182 70.839205 
L 107.903862 70.927067 
L 107.951543 70.890137 
L 108.905149 70.223962 
L 109.906435 70.738754 
L 109.954115 70.695384 
L 110.001796 70.778721 
L 110.097156 70.745839 
L 110.287877 70.699306 
L 110.383238 70.677602 
L 110.66932 70.513507 
L 110.907721 70.705681 
L 110.955401 70.654134 
L 111.146123 70.640472 
L 111.193803 70.769224 
L 111.241483 70.726547 
L 111.527565 70.546307 
L 112.099729 70.203801 
L 112.195089 70.189421 
L 112.24277 70.153178 
L 112.29045 70.238255 
L 112.433491 70.13854 
L 112.671892 70.001289 
L 112.767253 70.100237 
L 112.814933 70.045103 
L 112.910294 70.036863 
L 113.387097 69.634638 
L 113.530138 69.627866 
L 113.720859 69.586688 
L 113.91158 69.547701 
L 114.054621 69.411498 
L 114.102301 69.462817 
L 114.149981 69.542595 
L 114.197662 69.496337 
L 114.483743 69.337595 
L 115.008227 69.243144 
L 115.628071 68.893987 
L 115.914152 68.827806 
L 116.009513 68.822375 
L 116.247914 68.714935 
L 116.295595 68.693893 
L 116.343275 68.83385 
L 116.438636 68.790005 
L 116.629357 68.885642 
L 116.867758 68.695635 
L 117.010799 68.725124 
L 117.15384 68.760576 
L 117.20152 68.726223 
L 117.249201 68.810268 
L 117.487602 68.70594 
L 117.582963 68.718988 
L 117.678323 68.70424 
L 117.726004 68.653863 
L 117.773684 68.747267 
L 117.916725 68.744096 
L 118.250487 68.952652 
L 119.061052 68.955221 
L 119.442494 68.871161 
L 119.680896 68.766415 
L 119.966978 68.720149 
L 120.205379 68.834661 
L 120.443781 68.681155 
L 120.920584 68.448304 
L 121.111305 68.495359 
L 121.302026 68.486494 
L 121.87419 68.493672 
L 121.92187 68.453462 
L 122.01723 68.610295 
L 122.064911 68.591892 
L 122.255632 68.458248 
L 122.398673 68.540859 
L 122.589394 68.43465 
L 122.684755 68.425713 
L 122.780115 68.555277 
L 122.827795 68.51913 
L 123.161558 68.393326 
L 123.924442 68.17298 
L 124.258204 68.007139 
L 124.401245 68.148107 
L 125.021089 67.807284 
L 125.259491 67.685949 
L 125.497892 67.700294 
L 125.688613 67.674704 
L 125.927015 67.556181 
L 126.117736 67.67314 
L 126.83294 67.361597 
L 127.548145 67.211172 
L 127.786546 67.196228 
L 127.977268 67.172475 
L 128.215669 67.136137 
L 128.40639 67.204851 
L 130.265922 66.481219 
L 131.60097 66.018383 
L 131.791691 65.968654 
L 132.030093 65.989737 
L 132.459215 65.879485 
L 132.602256 65.900273 
L 133.269781 65.653231 
L 133.460502 65.682538 
L 190.247736 65.784148 
L 190.486137 65.810546 
L 203.121416 65.912218 
L 203.502858 65.928691 
L 215.947416 66.03047 
L 216.328858 66.046921 
L 228.535014 66.136739 
L 228.821096 66.159731 
L 232.969282 66.251833 
L 233.207683 66.281353 
L 241.933178 66.387122 
L 242.171579 66.41331 
L 251.183155 66.517633 
L 251.612278 66.528117 
L 261.911222 66.629824 
L 262.435705 66.662456 
L 271.685683 66.773452 
L 271.924085 66.815803 
L 283.176635 66.922401 
L 283.748798 66.932158 
L 290.5194 67.034596 
L 290.853163 67.054085 
L 297.909846 67.148226 
L 298.148248 67.177424 
L 298.577371 67.190398 
L 305.347973 67.284473 
L 305.634055 67.307148 
L 315.170114 67.413017 
L 315.408516 67.455055 
L 320.224226 67.55416 
L 320.605668 67.570306 
L 326.851787 67.675778 
L 327.757712 67.74669 
L 330.284768 67.854033 
L 330.61853 67.87334 
L 337.246092 67.97517 
L 337.627534 67.991238 
L 342.347883 68.095549 
L 342.633965 68.118009 
L 352.837549 68.215621 
L 353.07595 68.244446 
L 359.894233 68.346748 
L 360.323355 68.359539 
L 365.94963 68.462825 
L 366.474114 68.497951 
L 373.95992 68.597878 
L 374.484404 68.623387 
L 380.39676 68.722171 
L 380.635162 68.747647 
L 386.73824 68.852662 
L 387.310404 68.862203 
L 390.695705 68.970268 
L 391.410909 69.006173 
L 396.798783 69.113219 
L 397.370946 69.122731 
L 401.18537 69.218427 
L 401.566812 69.234256 
L 405.762679 69.34221 
L 406.287162 69.367501 
L 411.245913 69.47509 
L 411.675035 69.485485 
L 417.062909 69.591563 
L 417.492032 69.600813 
L 427.886336 69.700374 
L 428.363139 69.719249 
L 433.22653 69.815023 
L 433.751013 69.871564 
L 438.232961 69.978025 
L 438.614403 69.993705 
L 443.716195 70.099174 
L 444.097637 70.114831 
L 451.345043 70.2221 
L 451.631124 70.243982 
L 455.874671 70.353866 
L 456.256113 70.366058 
L 463.551199 70.466879 
L 463.932641 70.482452 
L 472.276693 70.590755 
L 472.753496 70.609413 
L 476.138797 70.711304 
L 476.66328 70.736142 
L 480.811466 70.823025 
L 481.097548 70.860236 
L 489.918403 70.967605 
L 490.156804 70.995462 
L 494.495711 71.103543 
L 494.972514 71.115904 
L 500.408068 71.220908 
L 500.74183 71.252536 
L 507.750834 71.354249 
L 508.227637 71.366573 
L 514.092314 71.4725 
L 514.569117 71.484804 
L 521.57812 71.594598 
L 522.102604 71.625306 
L 527.9196 71.724812 
L 528.396403 71.735322 
L 535.786849 71.790315 
L 535.786849 71.790315 
" clip-path="url(#pfa37eec694)" style="fill: none; stroke: #1f77b4; stroke-width: 1.8; stroke-linecap: square"/>
   </g>
   <g id="line2d_26">
    <path d="M 71.046993 77.780909 
L 71.190034 56.599405 
L 71.237714 67.517075 
L 71.285394 64.719478 
L 71.428435 57.21787 
L 71.523796 57.682225 
L 71.666837 52.949453 
L 71.905238 61.444011 
L 71.952918 62.078543 
L 72.19132 68.306308 
L 72.239 68.332938 
L 72.382041 66.015372 
L 72.429721 67.937515 
L 72.525082 67.773418 
L 72.620443 66.516863 
L 72.668123 67.32133 
L 72.715803 66.536239 
L 72.763483 67.004654 
L 72.811164 65.89334 
L 72.858844 67.05982 
L 72.906524 67.207346 
L 72.954205 66.71349 
L 73.001885 66.99905 
L 73.049565 67.318262 
L 73.097246 66.480944 
L 73.144926 68.97223 
L 73.240286 68.783299 
L 73.335647 68.520025 
L 73.526368 70.828651 
L 73.574049 70.281647 
L 73.621729 69.976746 
L 73.669409 71.021295 
L 73.717089 70.194645 
L 73.86013 69.212727 
L 73.907811 70.682033 
L 73.955491 70.198403 
L 74.336933 68.349652 
L 74.384614 69.035601 
L 74.432294 68.800405 
L 74.575335 68.114751 
L 74.670695 68.241415 
L 74.718376 68.560061 
L 74.766056 68.088997 
L 74.813736 68.717648 
L 74.861417 69.678767 
L 74.909097 69.389171 
L 75.099818 68.297054 
L 75.147498 68.381989 
L 75.195179 68.261606 
L 75.242859 67.868342 
L 75.33822 69.312574 
L 75.3859 68.934547 
L 75.43358 68.723455 
L 75.624301 70.921857 
L 75.671982 70.831599 
L 75.815023 71.931761 
L 75.910383 71.787063 
L 76.005744 72.945723 
L 76.101104 73.557737 
L 76.148785 73.506139 
L 76.244145 72.833444 
L 76.291825 72.870325 
L 76.339506 73.470466 
L 76.387186 73.084609 
L 76.434866 72.8447 
L 76.482547 73.152121 
L 76.577907 73.054157 
L 76.625588 73.184604 
L 76.673268 72.851673 
L 76.720948 73.099039 
L 76.768628 73.020266 
L 76.816309 73.512552 
L 76.863989 73.250675 
L 76.911669 73.234525 
L 77.00703 72.767233 
L 77.150071 73.887692 
L 77.197751 73.79319 
L 77.293112 73.321253 
L 77.436153 74.202059 
L 77.483833 74.188522 
L 77.579194 73.698508 
L 77.626874 73.985337 
L 77.769915 73.695898 
L 77.817595 73.776153 
L 78.103677 72.834755 
L 78.151357 73.097473 
L 78.199037 73.005756 
L 78.246718 72.939806 
L 78.389759 72.556306 
L 78.532799 72.71309 
L 78.67584 72.332349 
L 78.723521 72.399725 
L 78.771201 72.278546 
L 78.914242 71.560887 
L 78.961922 71.581413 
L 79.009602 71.600938 
L 79.104963 71.837151 
L 79.248004 71.740579 
L 79.343364 72.21991 
L 79.391045 73.006263 
L 79.486405 72.793831 
L 79.629446 72.587962 
L 79.820167 73.290609 
L 80.29697 72.930036 
L 80.440011 73.389312 
L 80.583052 73.214567 
L 80.773773 74.586264 
L 80.821454 74.421453 
L 80.869134 74.248663 
L 81.059855 74.922246 
L 81.202896 74.656231 
L 81.250576 74.841794 
L 81.345937 74.775675 
L 81.488978 74.494953 
L 81.632019 74.690372 
L 81.679699 74.556352 
L 81.727379 74.865326 
L 81.82274 74.816125 
L 81.918101 74.469167 
L 81.965781 74.50387 
L 82.061141 74.975757 
L 82.108822 74.809714 
L 82.251863 74.505599 
L 82.394904 74.64629 
L 82.633305 74.950006 
L 82.680985 74.797969 
L 82.728666 74.704017 
L 82.919387 75.172318 
L 82.967067 75.214174 
L 83.014747 75.133329 
L 83.157788 74.989363 
L 83.205469 74.803308 
L 83.253149 74.821461 
L 83.300829 75.205344 
L 83.348509 75.0609 
L 83.44387 74.812545 
L 83.49155 74.980455 
L 83.634591 74.60489 
L 83.682272 75.015237 
L 83.729952 74.875438 
L 84.016034 74.405412 
L 84.349796 75.076552 
L 84.397476 74.897583 
L 84.445156 74.936236 
L 84.588197 75.061844 
L 84.778918 74.764936 
L 84.826599 74.793353 
L 84.874279 74.684307 
L 84.921959 74.801965 
L 85.01732 75.183835 
L 85.065 75.015598 
L 85.255721 74.592602 
L 85.303402 74.653322 
L 85.398762 74.859003 
L 85.446443 74.839402 
L 85.494123 74.865789 
L 85.541803 74.715009 
L 85.589483 74.744192 
L 85.637164 75.146076 
L 85.732524 75.086316 
L 85.923246 75.416863 
L 85.970926 75.312288 
L 86.018606 75.402451 
L 86.161647 75.541738 
L 86.209327 75.691309 
L 86.257008 75.565462 
L 86.400048 75.395222 
L 86.447729 75.512915 
L 86.495409 75.36124 
L 86.63845 75.606243 
L 86.733811 75.528838 
L 86.876851 75.321214 
L 87.162933 74.939287 
L 87.210614 74.99763 
L 87.258294 74.935666 
L 87.496695 74.575333 
L 87.544376 74.704098 
L 87.639736 74.649599 
L 87.735097 74.798811 
L 87.782777 74.70177 
L 87.830457 74.594315 
L 87.878138 74.720759 
L 88.30726 74.42481 
L 88.354941 74.546072 
L 88.402621 74.428679 
L 88.450301 74.450632 
L 88.784063 73.857539 
L 88.831744 74.079402 
L 88.879424 73.956557 
L 89.070145 73.707722 
L 89.165506 73.909489 
L 89.213186 73.848616 
L 89.308547 73.724185 
L 89.356227 73.795208 
L 89.403907 73.696192 
L 89.642309 73.294181 
L 89.689989 73.498287 
L 89.737669 73.420627 
L 90.309833 72.346419 
L 90.357513 72.387842 
L 90.405193 72.426631 
L 90.738956 71.93716 
L 90.881996 71.898733 
L 90.977357 71.83213 
L 91.215758 71.556889 
L 91.358799 71.687173 
L 91.597201 71.482682 
L 91.740242 71.996908 
L 92.026324 71.626216 
L 92.074004 71.76645 
L 92.121684 71.658629 
L 92.169364 71.583146 
L 92.217045 71.719463 
L 92.264725 71.652118 
L 92.312405 71.558787 
L 92.407766 71.809011 
L 92.455446 71.791303 
L 92.503127 71.749376 
L 92.550807 71.968863 
L 92.598487 71.861716 
L 92.646167 71.791505 
L 92.693848 71.884015 
L 93.02761 71.743467 
L 93.266011 72.085684 
L 93.695134 71.658943 
L 93.742814 71.708256 
L 93.838175 71.739448 
L 93.885855 71.878184 
L 93.933535 71.857355 
L 94.124257 71.639071 
L 94.171937 71.673008 
L 94.219617 71.589251 
L 94.505699 71.356921 
L 94.69642 71.558542 
L 94.887141 71.265781 
L 95.077863 70.978948 
L 95.173223 71.251417 
L 95.220903 71.185847 
L 95.411625 71.034283 
L 95.983788 70.547663 
L 96.031468 70.684815 
L 96.079149 70.658494 
L 96.126829 70.566695 
L 96.174509 70.598189 
L 96.22219 70.701209 
L 96.31755 70.649982 
L 96.412911 70.581813 
L 96.555952 70.4484 
L 96.794353 70.223089 
L 96.889714 70.304147 
L 96.937394 70.389292 
L 96.985074 70.304654 
L 97.128115 70.270782 
L 97.271156 70.315197 
L 97.557238 70.020419 
L 97.700279 69.994797 
L 97.795639 70.000175 
L 97.93868 70.108782 
L 98.177082 69.925798 
L 98.272442 69.848085 
L 98.463164 69.710265 
L 98.510844 69.771607 
L 98.558524 69.711481 
L 98.653885 69.591872 
L 98.701565 69.686991 
L 98.796926 69.640256 
L 98.987647 69.472887 
L 99.46445 69.481461 
L 99.988933 68.947 
L 100.131974 69.011882 
L 100.656457 68.507584 
L 100.704138 68.732043 
L 100.751818 68.674237 
L 100.894859 68.664632 
L 101.0379 68.536166 
L 101.419342 68.210408 
L 101.562383 68.224134 
L 101.705424 68.234034 
L 101.848465 68.391305 
L 101.896145 68.326772 
L 102.039186 68.174045 
L 102.086866 68.395194 
L 102.134547 68.332011 
L 102.372948 68.18123 
L 102.420628 68.298722 
L 102.468309 68.241833 
L 102.70671 68.10209 
L 102.897431 68.030768 
L 102.992792 68.003109 
L 103.183513 67.952844 
L 103.278874 67.92339 
L 103.755677 67.564248 
L 104.28016 67.279108 
L 104.423201 67.207841 
L 105.710569 66.9631 
L 106.282732 66.633242 
L 106.807216 66.718491 
L 106.950257 66.662839 
L 107.093297 66.769199 
L 107.284019 66.72686 
L 107.951543 66.467913 
L 108.857468 66.211495 
L 109.09587 66.106993 
L 109.238911 66.261411 
L 109.286591 66.221937 
L 109.477312 66.233746 
L 109.620353 66.201563 
L 109.858755 66.131366 
L 110.478599 66.197733 
L 110.621639 66.375875 
L 111.003082 66.157313 
L 111.384524 66.060443 
L 111.813647 66.062092 
L 112.29045 65.850256 
L 112.767253 65.731652 
L 113.196375 65.666517 
L 113.339416 65.725809 
L 114.054621 65.694137 
L 114.197662 65.701183 
L 115.008227 65.464112 
L 115.151268 65.463293 
L 115.341989 65.475099 
L 115.53271 65.582827 
L 115.914152 65.548181 
L 116.057193 65.54561 
L 116.533996 65.494477 
L 116.724717 65.512909 
L 117.05848 65.512554 
L 117.20152 65.526292 
L 119.633216 65.349716 
L 119.919297 65.379132 
L 178.04158 65.482102 
L 178.470702 65.495317 
L 193.108553 65.601281 
L 193.823758 65.640857 
L 205.171669 65.744794 
L 205.934553 65.790893 
L 207.221921 65.803799 
L 212.276033 65.902481 
L 212.705156 65.915631 
L 218.712873 66.013689 
L 219.046635 66.027043 
L 224.62523 66.124057 
L 225.006672 66.140448 
L 231.634233 66.236037 
L 231.967996 66.272036 
L 235.114895 66.368088 
L 235.353297 66.394233 
L 240.598129 66.498194 
L 241.217973 66.514507 
L 245.699921 66.623434 
L 246.939609 66.682058 
L 251.421557 66.785278 
L 251.707639 66.817792 
L 258.28752 66.927955 
L 258.621282 66.94743 
L 266.679252 67.052473 
L 267.823579 67.101082 
L 276.930516 67.199591 
L 277.264278 67.218999 
L 287.038739 67.322697 
L 287.467861 67.332975 
L 294.333824 67.435858 
L 294.762947 67.468092 
L 303.965244 67.573462 
L 305.014211 67.605633 
L 310.354404 67.710177 
L 310.735846 67.726235 
L 314.884032 67.829475 
L 315.408516 67.861544 
L 316.600523 67.864215 
L 316.838924 67.888254 
L 320.796389 67.98697 
L 321.225512 67.99977 
L 325.326017 68.098349 
L 325.70746 68.123914 
L 327.805393 68.186143 
L 328.186835 68.200489 
L 331.047653 68.278094 
L 333.908471 68.358751 
L 340.297631 68.461442 
L 340.726753 68.469288 
L 344.874939 68.577181 
L 345.351742 68.596233 
L 351.121058 68.701846 
L 351.5025 68.717699 
L 359.798872 68.816465 
L 360.180315 68.829012 
L 366.712515 68.925843 
L 367.046277 68.957446 
L 375.867132 69.065904 
L 376.820738 69.081677 
L 385.16479 69.188003 
L 385.498552 69.203595 
L 391.315549 69.307842 
L 391.696991 69.329857 
L 396.846463 69.433576 
L 397.466307 69.446136 
L 405.476597 69.555011 
L 406.525563 69.583224 
L 412.247199 69.684505 
L 412.771682 69.709542 
L 417.587392 69.811965 
L 418.064195 69.824465 
L 427.981697 69.933375 
L 428.601541 69.95073 
L 437.946879 70.059626 
L 438.328321 70.075196 
L 444.669801 70.183013 
L 445.003563 70.204776 
L 450.248396 70.29799 
L 450.534478 70.322831 
L 459.832135 70.432782 
L 460.404299 70.478131 
L 466.793459 70.530782 
L 466.793459 70.530782 
" clip-path="url(#pfa37eec694)" style="fill: none; stroke: #ff7f0e; stroke-width: 1.8; stroke-linecap: square"/>
   </g>
   <g id="line2d_27">
    <path d="M 71.046993 115.709335 
L 71.142353 74.429028 
L 71.190034 79.612727 
L 71.237714 71.486398 
L 71.285394 79.949465 
L 71.523796 71.461489 
L 71.666837 83.416661 
L 71.714517 84.517858 
L 72.000599 74.194809 
L 72.048279 74.874461 
L 72.095959 77.822115 
L 72.14364 76.855152 
L 72.286681 74.242642 
L 72.334361 75.257676 
L 72.382041 74.130112 
L 72.572762 72.352331 
L 72.620443 72.686331 
L 72.906524 68.740211 
L 72.954205 68.855254 
L 73.001885 68.995659 
L 73.049565 70.396522 
L 73.097246 69.639844 
L 73.144926 68.79822 
L 73.192606 69.293598 
L 73.240286 69.169457 
L 73.287967 69.966274 
L 73.335647 69.238569 
L 73.383327 69.226272 
L 73.526368 68.908934 
L 73.621729 69.708291 
L 73.669409 71.033025 
L 73.76477 70.893895 
L 73.81245 71.056494 
L 73.86013 70.426851 
L 73.907811 71.093066 
L 73.955491 71.030593 
L 74.193892 69.748057 
L 74.241573 69.739905 
L 74.336933 69.056474 
L 74.384614 69.887204 
L 74.432294 69.684523 
L 74.527654 68.861591 
L 74.575335 69.094126 
L 74.623015 69.845382 
L 74.670695 69.635562 
L 74.766056 69.17984 
L 74.813736 70.106054 
L 74.861417 69.732436 
L 74.909097 69.301999 
L 74.956777 69.60127 
L 75.004457 69.673706 
L 75.099818 70.521803 
L 75.195179 69.712636 
L 75.242859 69.930176 
L 75.290539 69.882595 
L 75.3859 69.241824 
L 75.48126 70.168835 
L 75.528941 69.776981 
L 75.576621 69.722633 
L 75.719662 68.905345 
L 75.815023 69.379563 
L 75.862703 69.115703 
L 75.910383 69.307031 
L 76.053424 70.198784 
L 76.244145 69.461611 
L 76.291825 69.509217 
L 76.530227 71.073286 
L 76.720948 70.507489 
L 76.768628 70.874164 
L 76.816309 70.594987 
L 76.911669 70.09438 
L 76.95935 70.255282 
L 77.150071 71.161354 
L 77.340792 70.017957 
L 77.388472 70.23175 
L 77.531513 70.623526 
L 77.579194 71.132804 
L 77.674554 70.979926 
L 77.722234 71.019778 
L 78.103677 69.700667 
L 78.246718 69.771546 
L 78.294398 70.023588 
L 78.342078 69.827737 
L 78.67584 68.8007 
L 78.723521 68.891055 
L 78.771201 68.819352 
L 78.818881 69.220489 
L 78.914242 69.148522 
L 79.200324 68.175489 
L 79.438725 68.637329 
L 79.486405 68.522398 
L 79.581766 69.404832 
L 79.677127 69.287867 
L 79.820167 68.83174 
L 79.867848 69.155789 
L 79.963208 69.087172 
L 80.24929 68.494588 
L 80.29697 68.360125 
L 80.344651 68.675034 
L 80.392331 68.470129 
L 80.487692 68.332559 
L 80.726093 67.926665 
L 81.012175 67.851116 
L 81.202896 67.498855 
L 81.250576 67.613187 
L 81.298257 67.507334 
L 81.393617 67.36325 
L 81.441298 67.43912 
L 81.727379 68.10769 
L 81.87042 67.841905 
L 82.156502 68.65718 
L 82.251863 68.537506 
L 82.299543 68.40349 
L 82.347223 68.58197 
L 82.442584 68.751791 
L 82.490264 68.724767 
L 82.680985 68.367908 
L 82.776346 68.871114 
L 82.871706 68.697226 
L 83.062428 68.218659 
L 83.157788 68.642799 
L 83.253149 68.809481 
L 83.300829 68.794694 
L 83.44387 68.487556 
L 83.539231 68.313631 
L 83.586911 68.436394 
L 83.634591 68.347709 
L 83.729952 68.11939 
L 83.825312 68.208919 
L 84.159075 67.964372 
L 84.206755 68.063914 
L 84.302115 68.184524 
L 84.349796 68.129841 
L 84.540517 68.18357 
L 84.635877 68.088592 
L 84.778918 68.243306 
L 84.826599 68.132012 
L 84.874279 68.294203 
L 84.96964 68.20014 
L 85.208041 68.033006 
L 85.255721 67.99366 
L 85.303402 68.155077 
L 85.351082 68.132886 
L 85.398762 68.071022 
L 85.446443 68.137067 
L 85.494123 68.297762 
L 85.589483 68.26806 
L 85.684844 68.483626 
L 85.780205 68.333079 
L 86.113967 67.975704 
L 86.161647 68.017497 
L 86.209327 68.321712 
L 86.257008 68.23866 
L 86.63845 68.041351 
L 86.829171 68.503349 
L 86.972212 68.400903 
L 87.067573 68.761837 
L 87.115253 68.652099 
L 87.210614 68.910791 
L 87.258294 68.834973 
L 87.449015 68.56487 
L 87.687416 69.071183 
L 87.878138 68.796628 
L 87.925818 68.859942 
L 87.973498 68.757341 
L 88.021179 68.792939 
L 88.068859 69.023366 
L 88.116539 68.934624 
L 88.25958 68.739261 
L 88.354941 68.75373 
L 88.402621 68.685244 
L 88.545662 69.019275 
L 88.593342 68.976597 
L 88.831744 68.640192 
L 88.927104 68.623906 
L 89.117825 68.840738 
L 89.213186 68.645788 
L 89.260866 68.794683 
L 89.308547 68.717197 
L 89.403907 68.869254 
L 89.546948 68.841441 
L 89.594628 68.950849 
L 89.642309 68.865273 
L 89.88071 68.667883 
L 90.119112 69.341314 
L 90.309833 69.13887 
L 90.357513 69.073777 
L 90.405193 69.145358 
L 90.452874 69.33962 
L 90.548234 69.311212 
L 90.929677 69.084557 
L 91.168078 69.12348 
L 91.263439 69.055659 
L 91.311119 69.195919 
L 91.40648 69.135912 
L 91.549521 69.026846 
L 92.455446 68.752184 
L 92.503127 68.87168 
L 92.550807 68.805631 
L 92.884569 68.636876 
L 93.02761 68.686792 
L 93.07529 68.728855 
L 93.12297 68.662368 
L 93.313692 68.627171 
L 93.361372 68.785727 
L 93.409052 68.73132 
L 93.599773 68.580426 
L 93.647454 68.791857 
L 93.695134 68.725601 
L 93.790495 68.587708 
L 93.838175 68.613776 
L 93.885855 68.697475 
L 93.933535 68.629668 
L 94.362658 68.13806 
L 94.410338 68.31146 
L 94.458019 68.255484 
L 94.7441 67.882971 
L 94.839461 67.978919 
L 95.125543 67.831208 
L 95.220903 67.753944 
L 95.268584 67.695066 
L 95.316264 67.773662 
L 95.745387 67.715086 
L 95.888428 67.655052 
L 96.031468 67.485489 
L 96.079149 67.593792 
L 96.126829 67.544807 
L 96.26987 67.447615 
L 96.365231 67.447436 
L 96.651312 67.241428 
L 96.794353 67.400896 
L 97.080435 67.31381 
L 97.223476 67.275485 
L 97.461877 67.090671 
L 97.604918 67.145703 
L 97.795639 67.046297 
L 98.081721 67.000794 
L 98.415483 66.766129 
L 98.463164 66.869661 
L 98.510844 66.810419 
L 98.749245 66.645888 
L 98.796926 66.708897 
L 98.844606 66.645908 
L 99.083008 66.46092 
L 99.226048 66.571085 
L 99.369089 66.560857 
L 99.798212 66.214816 
L 99.845892 66.273389 
L 100.131974 66.251879 
L 100.370376 66.148347 
L 100.418056 66.214832 
L 100.465736 66.180127 
L 100.561097 66.07649 
L 100.608777 66.185054 
L 100.847178 66.179843 
L 100.894859 66.127329 
L 100.942539 66.246086 
L 100.990219 66.196242 
L 101.323981 65.974947 
L 101.419342 66.080347 
L 101.467022 66.03152 
L 101.610063 65.886835 
L 101.657744 65.971188 
L 101.800784 66.032601 
L 101.991506 65.981974 
L 102.65903 65.783664 
L 102.802071 65.80588 
L 103.040472 65.802619 
L 103.135833 65.718667 
L 103.183513 65.791142 
L 103.707996 65.792818 
L 104.089439 65.597077 
L 104.23248 65.759725 
L 104.28016 65.723834 
L 104.518561 65.643374 
L 104.613922 65.794365 
L 104.661602 65.757253 
L 104.709283 65.707145 
L 104.756963 65.776843 
L 105.090725 65.768542 
L 105.376807 65.549911 
L 105.567528 65.565631 
L 105.94897 65.529795 
L 106.235052 65.367635 
L 106.330413 65.468775 
L 106.378093 65.427975 
L 106.807216 65.14827 
L 106.997937 65.059574 
L 107.951543 64.492654 
L 107.999223 64.606396 
L 108.046903 64.553716 
L 108.285305 64.480219 
L 108.428346 64.582328 
L 108.571387 64.544834 
L 108.809788 64.549627 
L 108.952829 64.52592 
L 109.238911 64.468341 
L 109.477312 64.465183 
L 109.811074 64.316581 
L 110.287877 64.12313 
L 110.76468 63.988102 
L 110.955401 63.995133 
L 111.241483 63.952772 
L 111.622926 63.931624 
L 111.765967 63.894545 
L 111.909007 63.918124 
L 112.38581 63.679513 
L 112.528851 63.697999 
L 113.148695 63.50736 
L 113.291736 63.496007 
L 113.482457 63.466622 
L 113.625498 63.497784 
L 113.95926 63.419987 
L 114.102301 63.472786 
L 114.436063 63.469267 
L 114.626784 63.436379 
L 115.103587 63.310635 
L 115.341989 63.446184 
L 116.581677 63.136581 
L 116.820078 63.253567 
L 117.20152 63.217924 
L 118.345848 63.100913 
L 118.488888 63.134952 
L 118.822651 63.100476 
L 119.204093 63.115136 
L 119.823937 63.076631 
L 119.966978 63.096578 
L 120.30074 63.141418 
L 120.586822 63.135828 
L 122.064911 63.012838 
L 122.303312 63.01096 
L 122.684755 62.981158 
L 124.687327 62.844659 
L 125.021089 62.950575 
L 125.831654 62.906815 
L 126.260777 62.946744 
L 126.83294 62.981116 
L 127.023662 62.99687 
L 129.598398 62.777201 
L 131.124167 62.665446 
L 131.410249 62.699022 
L 137.751728 62.484154 
L 138.180851 62.498535 
L 139.134457 62.531683 
L 142.85352 62.529285 
L 174.322516 62.623305 
L 174.656278 62.641061 
L 177.278695 62.739468 
L 177.707817 62.753656 
L 182.761929 62.84743 
L 183.048011 62.868685 
L 190.486137 62.967598 
L 190.772219 62.98882 
L 193.871438 63.091331 
L 194.2052 63.108994 
L 199.02091 63.206381 
L 199.354672 63.224022 
L 204.313423 63.324969 
L 204.647185 63.342583 
L 209.033773 63.449873 
L 209.892018 63.470974 
L 212.705156 63.574478 
L 213.086598 63.613102 
L 219.094315 63.72095 
L 219.523438 63.734969 
L 224.148427 63.829057 
L 224.434509 63.857057 
L 227.772129 63.958464 
L 228.248932 63.982922 
L 231.395832 64.086639 
L 232.111036 64.131987 
L 234.35201 64.241505 
L 236.402263 64.284756 
L 238.357155 64.331903 
L 238.929319 64.352776 
L 242.886784 64.459954 
L 244.078791 64.521956 
L 250.754033 64.615844 
L 251.040114 64.64704 
L 254.330055 64.745446 
L 254.616137 64.766215 
L 259.002724 64.864995 
L 259.288806 64.906475 
L 261.100657 64.926694 
L 268.06198 65.037738 
L 268.634144 65.058434 
L 274.260419 65.158045 
L 274.737222 65.182154 
L 279.457571 65.285211 
L 280.029735 65.343665 
L 284.797765 65.450024 
L 285.131527 65.508354 
L 289.041311 65.612533 
L 289.661155 65.637314 
L 291.99749 65.733165 
L 292.331252 65.750271 
L 299.101854 65.854121 
L 299.387936 65.876974 
L 304.728129 65.987423 
L 305.300293 66.047191 
L 309.257757 66.148196 
L 309.6392 66.175416 
L 314.59795 66.27675 
L 315.170114 66.286942 
L 318.889177 66.393094 
L 319.175259 66.413448 
L 323.132724 66.518539 
L 323.466486 66.535479 
L 325.564419 66.62813 
L 325.850501 66.651815 
L 329.188121 66.757314 
L 329.569564 66.7911 
L 333.908471 66.896235 
L 334.909757 66.930613 
L 339.820828 67.04026 
L 340.24995 67.08738 
L 344.016694 67.179366 
L 344.350456 67.216334 
L 348.117199 67.327283 
L 350.358173 67.373698 
L 352.932909 67.480954 
L 353.505073 67.491003 
L 359.179028 67.597121 
L 359.751192 67.607154 
L 366.426433 67.717463 
L 367.380039 67.740838 
L 375.056567 67.851521 
L 375.390329 67.871523 
L 380.062998 67.968125 
L 380.539801 68.018054 
L 382.685415 68.05742 
L 388.979214 68.167646 
L 391.267868 68.217464 
L 398.992076 68.325173 
L 399.802641 68.331803 
L 406.191801 68.436074 
L 406.763965 68.446007 
L 410.721429 68.552853 
L 411.627355 68.569383 
L 413.916009 68.624432 
L 414.917296 68.651895 
L 419.637645 68.756162 
L 420.209809 68.764919 
L 427.314173 68.86932 
L 427.981697 68.898945 
L 431.223957 68.922862 
L 431.223957 68.922862 
" clip-path="url(#pfa37eec694)" style="fill: none; stroke: #2ca02c; stroke-width: 1.8; stroke-linecap: square"/>
   </g>
   <g id="line2d_28">
    <path d="M 71.046993 249.758182 
L 71.190034 76.964064 
L 71.237714 76.518512 
L 71.333075 63.894545 
L 71.380755 66.863957 
L 71.476115 81.339726 
L 71.523796 79.798586 
L 71.571476 78.832498 
L 71.714517 70.815824 
L 71.762197 79.279438 
L 71.809878 75.484739 
L 72.095959 65.441999 
L 72.14364 68.960665 
L 72.19132 68.357564 
L 72.477402 64.213772 
L 72.525082 65.827726 
L 72.572762 65.245651 
L 72.715803 62.404302 
L 72.763483 65.719983 
L 72.858844 65.015418 
L 72.954205 62.899055 
L 73.001885 63.482993 
L 73.049565 63.246745 
L 73.240286 60.554866 
L 73.287967 61.661074 
L 73.335647 60.94502 
L 73.383327 60.632648 
L 73.431008 63.190576 
L 73.478688 62.63771 
L 73.717089 60.067634 
L 73.907811 62.225957 
L 73.955491 61.924524 
L 74.146212 60.372361 
L 74.193892 59.886024 
L 74.241573 59.964754 
L 74.432294 62.42468 
L 74.479974 62.091915 
L 74.861417 59.680705 
L 74.909097 59.437531 
L 74.956777 59.880518 
L 75.004457 59.503759 
L 75.052138 59.160558 
L 75.099818 59.637791 
L 75.147498 59.355512 
L 75.33822 58.634696 
L 75.3859 58.968278 
L 75.43358 58.68312 
L 75.48126 58.367807 
L 75.528941 59.605564 
L 75.576621 59.366568 
L 75.624301 59.099978 
L 75.671982 60.214355 
L 75.719662 59.920775 
L 76.053424 58.259059 
L 76.244145 57.454705 
L 76.291825 57.612043 
L 76.387186 57.215029 
L 76.530227 58.929537 
L 76.625588 58.703042 
L 76.720948 58.300777 
L 76.863989 59.127682 
L 77.293112 57.931878 
L 77.340792 58.174604 
L 77.388472 58.349692 
L 77.436153 58.179696 
L 77.579194 57.72152 
L 77.674554 58.502939 
L 77.722234 58.379746 
L 77.769915 58.140381 
L 77.817595 58.493353 
L 77.865275 58.372898 
L 77.912956 58.171074 
L 77.960636 58.395758 
L 78.008316 58.21773 
L 78.151357 59.239002 
L 78.294398 58.727932 
L 78.342078 58.871855 
L 78.485119 58.476811 
L 78.62816 59.540475 
L 79.152643 58.309536 
L 79.295684 58.954535 
L 80.010889 57.428497 
L 80.058569 57.766318 
L 80.106249 57.659968 
L 80.535372 56.918664 
L 80.583052 57.438794 
L 80.678413 57.277913 
L 80.773773 57.11203 
L 80.869134 57.636162 
L 80.916814 57.522832 
L 80.964495 57.410691 
L 81.107535 58.120221 
L 81.584338 57.31757 
L 81.679699 57.120591 
L 81.727379 57.397434 
L 81.77506 57.330786 
L 82.061141 56.875689 
L 82.204182 57.075339 
L 82.251863 57.005313 
L 82.442584 57.605047 
L 82.537944 57.41108 
L 82.633305 57.894168 
L 82.680985 57.81724 
L 83.39619 56.996606 
L 83.49155 57.440188 
L 83.586911 57.292254 
L 83.729952 57.230484 
L 83.777632 57.372008 
L 83.825312 57.280446 
L 83.872993 57.209604 
L 84.063714 57.698572 
L 84.206755 57.469746 
L 84.254435 57.911705 
L 84.349796 57.830665 
L 84.588197 57.69893 
L 84.635877 58.209626 
L 84.731238 58.046567 
L 84.874279 57.953597 
L 84.921959 57.980377 
L 84.96964 58.137842 
L 85.01732 58.075148 
L 85.160361 57.850664 
L 85.351082 58.367357 
L 85.398762 58.299807 
L 85.589483 57.998748 
L 85.637164 58.395013 
L 85.732524 58.288059 
L 85.827885 58.182127 
L 85.875565 58.28428 
L 85.970926 58.498948 
L 86.018606 58.40883 
L 86.209327 58.5956 
L 86.59077 58.330691 
L 86.733811 58.617744 
L 86.829171 58.473403 
L 86.876851 58.64368 
L 86.924532 58.579129 
L 87.210614 58.299144 
L 87.353654 58.685872 
L 87.449015 58.570665 
L 87.544376 58.413848 
L 87.639736 58.660018 
L 87.687416 58.614636 
L 87.735097 58.723093 
L 87.782777 58.633904 
L 88.068859 58.446772 
L 88.2119 58.692135 
L 89.403907 57.567116 
L 89.546948 57.831221 
L 89.78535 57.676689 
L 89.92839 58.06987 
L 89.976071 58.193363 
L 90.023751 58.127738 
L 90.071431 58.071036 
L 90.119112 58.240879 
L 90.166792 58.172445 
L 90.214472 58.104434 
L 90.262153 58.227814 
L 90.309833 58.358104 
L 90.357513 58.307062 
L 91.025037 57.68937 
L 91.072718 57.75604 
L 91.120398 57.693266 
L 91.168078 57.653598 
L 91.358799 58.145024 
L 91.45416 58.290825 
L 91.549521 58.167348 
L 91.835602 57.805036 
L 91.883283 57.950413 
L 91.978643 58.133428 
L 92.026324 58.09392 
L 92.312405 57.919741 
L 92.693848 57.766446 
L 92.741528 57.844971 
L 92.789208 57.785551 
L 92.884569 57.695671 
L 92.932249 57.803302 
L 92.979929 57.751776 
L 93.218331 57.520964 
L 93.266011 57.924196 
L 93.361372 57.897052 
L 93.504413 58.08711 
L 93.552093 58.024785 
L 93.790495 57.845867 
L 94.314978 57.356587 
L 94.458019 57.207098 
L 94.553379 57.39482 
L 94.60106 57.35694 
L 95.030182 57.008039 
L 95.125543 57.068422 
L 95.173223 57.018656 
L 95.363944 56.957084 
L 95.459305 57.157961 
L 95.506985 57.135994 
L 95.602346 57.133441 
L 95.936108 56.929969 
L 96.079149 57.160474 
L 96.31755 56.97269 
L 96.460591 57.156925 
L 96.555952 57.168447 
L 96.746673 57.017452 
L 96.842034 57.199194 
L 96.889714 57.160454 
L 97.080435 57.077223 
L 97.128115 57.196417 
L 97.175796 57.153705 
L 97.414197 57.056064 
L 97.461877 57.126757 
L 97.509558 57.072383 
L 97.652599 57.091153 
L 97.747959 57.107473 
L 97.891 56.991061 
L 97.93868 57.105153 
L 98.129402 57.085192 
L 98.463164 56.910198 
L 98.558524 57.000737 
L 98.606205 56.959192 
L 98.892286 56.744509 
L 99.035327 56.868736 
L 99.369089 56.721504 
L 99.41677 56.828598 
L 99.46445 56.786082 
L 100.322695 56.201566 
L 100.465736 56.275828 
L 100.751818 56.177579 
L 100.894859 56.179616 
L 101.419342 55.869689 
L 102.325268 55.366877 
L 102.468309 55.342675 
L 102.992792 55.012128 
L 103.040472 55.094011 
L 103.231193 55.297536 
L 103.660316 55.078027 
L 104.23248 55.048821 
L 104.852323 54.798402 
L 104.995364 54.89175 
L 105.519848 54.750036 
L 105.710569 54.88371 
L 105.85361 54.862336 
L 106.235052 54.724467 
L 106.330413 54.785819 
L 106.378093 54.758145 
L 106.473454 54.835803 
L 106.664175 54.980782 
L 106.950257 54.927491 
L 107.140978 55.104688 
L 107.808502 54.74464 
L 107.951543 54.730666 
L 108.189944 54.72964 
L 109.668033 54.474837 
L 110.192517 54.29804 
L 110.383238 54.407103 
L 110.76468 54.412213 
L 111.003082 54.42884 
L 111.193803 54.437214 
L 111.336844 54.518943 
L 111.670606 54.494641 
L 111.861327 54.547452 
L 112.147409 54.520647 
L 112.767253 54.589641 
L 112.957974 54.629246 
L 113.196375 54.647094 
L 113.387097 54.800906 
L 113.577818 54.830696 
L 113.720859 54.895914 
L 114.245342 54.794729 
L 114.626784 54.872021 
L 114.960546 54.829474 
L 115.151268 55.017254 
L 115.294309 55.045851 
L 115.48503 55.092915 
L 116.057193 55.014624 
L 116.438636 55.078931 
L 116.486316 55.066259 
L 116.677037 55.221642 
L 116.963119 55.355964 
L 117.20152 55.399189 
L 117.344561 55.477107 
L 117.964405 55.464577 
L 118.155126 55.658582 
L 118.77497 55.591406 
L 119.299453 55.548852 
L 119.442494 55.67163 
L 120.205379 55.679231 
L 120.34842 55.760874 
L 121.015944 55.717002 
L 121.87419 55.688195 
L 122.01723 55.717473 
L 122.160271 55.771859 
L 122.350992 55.83776 
L 122.923156 55.833387 
L 123.161558 55.936804 
L 123.59068 55.971275 
L 123.733721 56.015865 
L 124.687327 56.002461 
L 124.973409 56.11314 
L 126.356137 56.374384 
L 126.880621 56.350048 
L 127.023662 56.477403 
L 127.786546 56.398988 
L 129.026234 56.613671 
L 129.359996 56.648361 
L 129.646078 56.711578 
L 130.218242 56.708379 
L 131.744011 56.728509 
L 132.030093 56.753133 
L 132.268494 56.788191 
L 132.411535 56.844092 
L 132.649937 56.901617 
L 132.840658 56.952124 
L 133.17442 57.009289 
L 133.746584 57.0762 
L 134.509468 57.097081 
L 134.700189 57.241076 
L 135.129312 57.293628 
L 135.510755 57.409728 
L 136.32132 57.408651 
L 137.274925 57.434318 
L 137.608688 57.468839 
L 138.657654 57.491375 
L 138.896056 57.515264 
L 139.182137 57.5169 
L 139.468219 57.595485 
L 139.706621 57.637231 
L 140.278784 57.671881 
L 142.233676 57.8437 
L 142.424398 57.880228 
L 142.948881 57.916463 
L 143.187282 57.923763 
L 144.283929 57.93869 
L 144.617691 58.036149 
L 145.666658 58.022025 
L 146.00042 58.056917 
L 146.906346 58.145225 
L 147.049386 58.192479 
L 147.955312 58.256337 
L 148.384435 58.262561 
L 149.29036 58.277242 
L 149.814844 58.334303 
L 152.198858 58.428624 
L 152.43726 58.472271 
L 153.581587 58.530335 
L 153.867669 58.551816 
L 155.107357 58.630702 
L 155.67952 58.657136 
L 156.347044 58.710204 
L 156.633126 58.772776 
L 158.683379 58.803875 
L 158.8741 58.837757 
L 160.209148 58.850508 
L 160.54291 58.888939 
L 162.402442 58.91915 
L 162.688524 58.929537 
L 166.359907 59.024177 
L 166.741349 59.069161 
L 169.506806 59.100991 
L 169.935929 59.144822 
L 171.080256 59.183876 
L 171.318658 59.203142 
L 174.322516 59.307613 
L 174.560918 59.329767 
L 176.086687 59.364076 
L 176.46813 59.426139 
L 177.374055 59.485275 
L 180.950078 59.592487 
L 181.33152 59.59433 
L 183.048011 59.616726 
L 183.334093 59.627974 
L 184.859862 59.675519 
L 185.145944 59.717706 
L 187.005475 59.824443 
L 187.434598 59.854884 
L 189.198769 59.95559 
L 189.580211 59.996206 
L 194.348241 60.105362 
L 199.688434 60.349288 
L 224.243787 60.449688 
L 224.72059 60.462279 
L 233.779847 60.559063 
L 234.161289 60.574781 
L 240.073646 60.674148 
L 240.455088 60.689847 
L 247.368732 60.795361 
L 247.940895 60.802809 
L 256.71407 60.907378 
L 257.143192 60.938688 
L 264.676679 61.039932 
L 264.962761 61.064941 
L 273.354493 61.16397 
L 273.831296 61.176453 
L 282.223029 61.280445 
L 282.556791 61.297551 
L 292.09285 61.401187 
L 292.617334 61.429183 
L 301.056746 61.52855 
L 301.438188 61.542469 
L 305.681735 61.635034 
L 306.063177 61.668332 
L 311.689452 61.771235 
L 312.452337 61.81146 
L 316.362121 61.908626 
L 316.791244 61.93952 
L 319.604382 62.043496 
L 320.081185 62.055836 
L 327.28091 62.165811 
L 327.900753 62.175053 
L 334.909757 62.281575 
L 335.33888 62.315415 
L 338.58114 62.417463 
L 339.296344 62.445109 
L 346.877512 62.5562 
L 347.258954 62.571537 
L 355.984448 62.678606 
L 356.508932 62.709222 
L 369.287251 62.809616 
L 369.573333 62.831005 
L 373.626158 62.928428 
L 374.198322 63.001645 
L 382.590054 63.108938 
L 382.971497 63.124164 
L 389.312976 63.216908 
L 389.599058 63.238197 
L 394.367088 63.32832 
L 394.70085 63.359174 
L 403.903147 63.464349 
L 404.42763 63.521905 
L 411.055192 63.62587 
L 411.293593 63.657835 
L 414.726574 63.764432 
L 415.012656 63.785555 
L 420.257489 63.884644 
L 420.591251 63.902724 
L 421.735578 63.967697 
L 422.11702 63.982751 
L 426.360567 64.085803 
L 427.028091 64.103835 
L 429.745868 64.211087 
L 430.174991 64.235096 
L 436.087348 64.345127 
L 440.330894 64.502582 
L 445.718768 64.61202 
L 446.10021 64.625621 
L 450.153035 64.731869 
L 450.534478 64.746763 
L 456.780596 64.852049 
L 457.40044 64.860973 
L 461.596306 64.971722 
L 462.12079 64.991629 
L 465.36305 65.006479 
L 465.36305 65.006479 
" clip-path="url(#pfa37eec694)" style="fill: none; stroke: #d62728; stroke-width: 1.8; stroke-linecap: square"/>
   </g>
   <g id="line2d_29">
    <path d="M 71.046993 60.808687 
L 71.094673 57.975768 
L 71.190034 80.198373 
L 71.237714 76.382953 
L 71.523796 59.081783 
L 71.571476 59.676911 
L 71.619156 59.167273 
L 71.666837 59.030006 
L 71.714517 60.009574 
L 71.762197 58.197576 
L 71.809878 59.43991 
L 71.857558 60.528154 
L 72.14364 54.675623 
L 72.19132 55.097669 
L 72.382041 52.584385 
L 72.429721 53.504638 
L 72.477402 52.957367 
L 72.668123 51.051441 
L 72.715803 52.762762 
L 72.763483 52.236104 
L 73.097246 50.043801 
L 73.621729 47.224416 
L 73.86013 46.151673 
L 73.907811 46.633149 
L 73.955491 46.442668 
L 74.479974 44.901039 
L 75.242859 43.296604 
L 75.767342 42.513013 
L 77.245431 40.980294 
L 79.963208 39.449974 
L 81.345937 38.995403 
L 84.826599 38.271927 
L 86.63845 38.018225 
L 90.834316 37.621265 
L 96.079149 37.299609 
L 102.086866 37.069577 
L 114.960546 36.827034 
L 135.892197 36.919598 
L 136.225959 36.938891 
L 140.040383 37.046866 
L 140.374145 37.066136 
L 145.142175 37.162437 
L 145.332896 37.200934 
L 151.626695 37.308117 
L 151.960457 37.327333 
L 155.155037 37.426658 
L 155.536479 37.476538 
L 160.113788 37.571668 
L 160.352189 37.629116 
L 162.11636 37.732278 
L 162.354762 37.76644 
L 165.21558 37.865734 
L 165.597022 37.881011 
L 168.696241 37.949288 
L 168.886962 38.002694 
L 170.508093 38.101808 
L 170.698814 38.143715 
L 172.224583 38.238897 
L 172.510665 38.29977 
L 175.657565 38.405981 
L 175.991327 38.424976 
L 179.948791 38.515696 
L 180.139513 38.55364 
L 181.951364 38.651883 
L 182.285126 38.670698 
L 183.906256 38.776508 
L 184.240018 38.795431 
L 186.957795 38.892633 
L 187.243877 38.915307 
L 188.435884 39.016185 
L 188.626605 39.053915 
L 190.343096 39.151588 
L 190.629178 39.208101 
L 192.917832 39.302226 
L 193.156234 39.332328 
L 195.206486 39.415068 
L 195.397208 39.463816 
L 198.496427 39.547798 
L 198.734828 39.630012 
L 200.64204 39.7345 
L 202.883014 39.980197 
L 204.265743 40.050675 
L 204.456464 40.106648 
L 205.648472 40.196145 
L 205.934553 40.307913 
L 207.364962 40.404028 
L 207.555683 40.459811 
L 209.224494 40.548023 
L 209.415215 40.596295 
L 209.748977 40.614855 
L 213.134278 40.716621 
L 213.754122 40.801281 
L 215.852055 40.885855 
L 216.138137 40.933534 
L 217.282464 41.013943 
L 217.520866 41.061962 
L 219.094315 41.153646 
L 219.332717 41.179297 
L 221.239929 41.277785 
L 221.573691 41.296205 
L 223.337862 41.404774 
L 223.766984 41.467291 
L 224.67291 41.55861 
L 224.863631 41.594685 
L 227.152286 41.697432 
L 227.486048 41.71577 
L 228.630375 41.82544 
L 228.964137 41.843755 
L 230.537587 41.923126 
L 230.728308 41.977505 
L 232.6832 42.08424 
L 233.064642 42.139 
L 237.594271 42.235986 
L 237.832672 42.261486 
L 238.643237 42.367066 
L 239.644523 42.412772 
L 242.076219 42.507278 
L 242.31462 42.539972 
L 243.601988 42.629095 
L 243.93575 42.727012 
L 245.127758 42.817146 
L 245.366159 42.875076 
L 246.844248 42.961913 
L 247.08265 43.005306 
L 249.705066 43.091453 
L 249.943468 43.116735 
L 254.759178 43.222993 
L 255.474382 43.276599 
L 256.904791 43.384073 
L 257.143192 43.441668 
L 259.002724 43.548581 
L 259.336486 43.60608 
L 260.814575 43.69586 
L 261.052977 43.759817 
L 266.965334 43.867817 
L 267.251415 43.889298 
L 269.110947 43.989908 
L 269.444709 44.007781 
L 270.732077 44.111385 
L 270.970479 44.143518 
L 272.114806 44.24699 
L 272.400888 44.271952 
L 274.546501 44.36447 
L 274.784902 44.449894 
L 276.453713 44.552041 
L 276.739795 44.605339 
L 278.170203 44.699782 
L 278.551646 44.735262 
L 279.076129 44.845173 
L 279.362211 44.919565 
L 280.268137 45.005996 
L 280.458858 45.041217 
L 282.747512 45.147345 
L 283.128954 45.235592 
L 283.510397 45.330817 
L 283.844159 45.383684 
L 286.704977 45.488253 
L 287.18178 45.521423 
L 290.185638 45.623449 
L 291.282285 45.756861 
L 292.04517 45.842937 
L 292.283571 45.870332 
L 293.904702 45.974102 
L 294.286144 46.023093 
L 295.23975 46.112699 
L 295.573512 46.161619 
L 296.90856 46.256389 
L 297.099281 46.294764 
L 297.814486 46.381929 
L 298.052887 46.423742 
L 300.293861 46.519939 
L 300.484583 46.560992 
L 302.534835 46.749109 
L 303.774523 46.853814 
L 304.108285 46.89886 
L 307.398226 46.984622 
L 307.588947 47.019217 
L 308.780954 47.114044 
L 309.019356 47.172765 
L 310.497445 47.281735 
L 310.783527 47.302421 
L 311.737133 47.391647 
L 312.023214 47.439858 
L 312.97682 47.542159 
L 315.170114 47.651402 
L 315.456196 47.675447 
L 318.936858 47.783985 
L 319.938144 47.818264 
L 321.654634 47.923691 
L 322.179118 47.997633 
L 324.849214 48.097786 
L 325.373698 48.140425 
L 326.994828 48.245614 
L 327.662352 48.38194 
L 328.94972 48.487471 
L 329.331162 48.5555 
L 331.381415 48.646456 
L 331.572136 48.683818 
L 334.003831 48.78043 
L 334.242233 48.810938 
L 336.244805 48.908641 
L 336.435527 48.959405 
L 339.200984 49.061975 
L 339.534746 49.119395 
L 341.298917 49.220648 
L 341.584999 49.274609 
L 342.824686 49.384747 
L 343.206129 49.472275 
L 345.542463 49.581745 
L 345.828545 49.618711 
L 347.211274 49.70998 
L 347.497355 49.733465 
L 350.548895 49.828326 
L 350.739616 49.871868 
L 353.314352 49.961132 
L 353.695794 50.024678 
L 355.507645 50.133605 
L 355.746047 50.207052 
L 357.987021 50.308637 
L 358.416144 50.32197 
L 359.035987 50.431218 
L 359.751192 50.472654 
L 361.03856 50.577929 
L 362.135207 50.700846 
L 363.947058 50.807799 
L 364.614582 50.884022 
L 367.046277 50.97674 
L 367.284679 51.003216 
L 368.715088 51.11327 
L 369.04885 51.146074 
L 372.720233 51.249498 
L 373.101675 51.291896 
L 375.151928 51.398233 
L 375.48569 51.417994 
L 377.05914 51.5144 
L 377.345221 51.53742 
L 379.300114 51.648491 
L 379.633876 51.668191 
L 381.493407 51.77573 
L 381.92253 51.808519 
L 382.971497 51.913376 
L 383.209898 51.939573 
L 385.927675 52.043287 
L 386.261437 52.069449 
L 388.693132 52.16971 
L 389.074575 52.186038 
L 391.077147 52.290474 
L 391.983073 52.364701 
L 394.79621 52.475142 
L 395.129972 52.527189 
L 396.655742 52.618209 
L 396.941824 52.6442 
L 397.847749 52.725379 
L 399.754961 52.765032 
L 400.088723 52.78449 
L 400.851608 52.884968 
L 401.280731 52.940027 
L 401.757534 52.960301 
L 402.615779 53.067058 
L 402.997221 53.083224 
L 404.42763 53.193083 
L 404.904433 53.302825 
L 408.623496 53.408875 
L 408.909578 53.444303 
L 411.198232 53.546406 
L 411.531995 53.578562 
L 413.296166 53.67671 
L 413.582247 53.753747 
L 414.869615 53.856373 
L 415.203377 53.894831 
L 415.6325 53.907647 
L 416.776827 54.015399 
L 417.062909 54.063391 
L 418.016515 54.164659 
L 418.350277 54.183826 
L 423.165987 54.291866 
L 423.59511 54.302636 
L 424.977838 54.380341 
L 425.168559 54.421758 
L 428.124738 54.52021 
L 428.601541 54.567912 
L 431.223957 54.67278 
L 431.74844 54.704814 
L 433.846374 54.810073 
L 434.180136 54.829097 
L 435.848946 54.92839 
L 436.087348 54.963213 
L 437.899199 55.074063 
L 438.280641 55.11278 
L 439.424968 55.173866 
L 441.808983 55.223547 
L 442.714909 55.294571 
L 446.720054 55.396435 
L 447.339898 55.452308 
L 449.771593 55.547325 
L 450.009994 55.575589 
L 452.107927 55.686446 
L 452.680091 55.724074 
L 454.968745 55.811207 
L 455.254827 55.836262 
L 456.875957 55.924346 
L 457.066678 55.961871 
L 458.87853 56.068512 
L 459.116931 56.146539 
L 463.265117 56.237045 
L 463.503518 56.26507 
L 464.409444 56.323587 
L 465.029288 56.376453 
L 467.556344 56.470255 
L 467.747065 56.507509 
L 470.798604 56.611365 
L 471.370767 56.68264 
L 473.039578 56.77704 
L 473.230299 56.81845 
L 476.997042 56.900971 
L 477.187764 56.938049 
L 479.285697 57.036856 
L 479.667139 57.070798 
L 481.002187 57.134969 
L 484.292128 57.235503 
L 484.62589 57.269359 
L 486.056299 57.345765 
L 486.24702 57.394943 
L 487.86815 57.505562 
L 488.106552 57.539305 
L 492.159377 57.638159 
L 492.540819 57.653469 
L 495.163236 57.748337 
L 495.496998 57.794209 
L 497.547251 57.901162 
L 497.881013 57.919486 
L 499.978946 58.024685 
L 500.265027 58.058226 
L 503.173526 58.157161 
L 503.602648 58.187601 
L 506.272745 58.279221 
L 506.654187 58.330885 
L 509.371964 58.435432 
L 509.753407 58.450599 
L 512.471184 58.544486 
L 512.852626 58.580825 
L 514.998239 58.686633 
L 515.522723 58.738021 
L 516.71473 58.834679 
L 517.143853 58.890303 
L 522.007243 58.960616 
L 522.007243 58.960616 
" clip-path="url(#pfa37eec694)" style="fill: none; stroke: #9467bd; stroke-width: 1.8; stroke-linecap: square"/>
   </g>
   <g id="patch_3">
    <path d="M 47.81 260.44 
L 47.81 25.44 
" style="fill: none; stroke: #000000; stroke-width: 0.8; stroke-linejoin: miter; stroke-linecap: square"/>
   </g>
   <g id="patch_4">
    <path d="M 559.023842 260.44 
L 559.023842 25.44 
" style="fill: none; stroke: #000000; stroke-width: 0.8; stroke-linejoin: miter; stroke-linecap: square"/>
   </g>
   <g id="patch_5">
    <path d="M 47.81 260.44 
L 559.023842 260.44 
" style="fill: none; stroke: #000000; stroke-width: 0.8; stroke-linejoin: miter; stroke-linecap: square"/>
   </g>
   <g id="patch_6">
    <path d="M 47.81 25.44 
L 559.023842 25.44 
" style="fill: none; stroke: #000000; stroke-width: 0.8; stroke-linejoin: miter; stroke-linecap: square"/>
   </g>
   <g id="text_15">
    <!-- Timely Transfer Rate (Cumulative) -->
    <g transform="translate(200.994108 19.44) scale(0.12 -0.12)">
     <defs>
      <path id="DejaVuSans-54" d="M -19 4666 
L 3928 4666 
L 3928 4134 
L 2272 4134 
L 2272 0 
L 1638 0 
L 1638 4134 
L -19 4134 
L -19 4666 
z
" transform="scale(0.015625)"/>
      <path id="DejaVuSans-52" d="M 2841 2188 
Q 3044 2119 3236 1894 
Q 3428 1669 3622 1275 
L 4263 0 
L 3584 0 
L 2988 1197 
Q 2756 1666 2539 1819 
Q 2322 1972 1947 1972 
L 1259 1972 
L 1259 0 
L 628 0 
L 628 4666 
L 2053 4666 
Q 2853 4666 3247 4331 
Q 3641 3997 3641 3322 
Q 3641 2881 3436 2590 
Q 3231 2300 2841 2188 
z
M 1259 4147 
L 1259 2491 
L 2053 2491 
Q 2509 2491 2742 2702 
Q 2975 2913 2975 3322 
Q 2975 3731 2742 3939 
Q 2509 4147 2053 4147 
L 1259 4147 
z
" transform="scale(0.015625)"/>
      <path id="DejaVuSans-28" d="M 1984 4856 
Q 1566 4138 1362 3434 
Q 1159 2731 1159 2009 
Q 1159 1288 1364 580 
Q 1569 -128 1984 -844 
L 1484 -844 
Q 1016 -109 783 600 
Q 550 1309 550 2009 
Q 550 2706 781 3412 
Q 1013 4119 1484 4856 
L 1984 4856 
z
" transform="scale(0.015625)"/>
      <path id="DejaVuSans-43" d="M 4122 4306 
L 4122 3641 
Q 3803 3938 3442 4084 
Q 3081 4231 2675 4231 
Q 1875 4231 1450 3742 
Q 1025 3253 1025 2328 
Q 1025 1406 1450 917 
Q 1875 428 2675 428 
Q 3081 428 3442 575 
Q 3803 722 4122 1019 
L 4122 359 
Q 3791 134 3420 21 
Q 3050 -91 2638 -91 
Q 1578 -91 968 557 
Q 359 1206 359 2328 
Q 359 3453 968 4101 
Q 1578 4750 2638 4750 
Q 3056 4750 3426 4639 
Q 3797 4528 4122 4306 
z
" transform="scale(0.015625)"/>
      <path id="DejaVuSans-29" d="M 513 4856 
L 1013 4856 
Q 1481 4119 1714 3412 
Q 1947 2706 1947 2009 
Q 1947 1309 1714 600 
Q 1481 -109 1013 -844 
L 513 -844 
Q 928 -128 1133 580 
Q 1338 1288 1338 2009 
Q 1338 2731 1133 3434 
Q 928 4138 513 4856 
z
" transform="scale(0.015625)"/>
     </defs>
     <use xlink:href="#DejaVuSans-54"/>
     <use xlink:href="#DejaVuSans-69" x="57.958984"/>
     <use xlink:href="#DejaVuSans-6d" x="85.742188"/>
     <use xlink:href="#DejaVuSans-65" x="183.154297"/>
     <use xlink:href="#DejaVuSans-6c" x="244.677734"/>
     <use xlink:href="#DejaVuSans-79" x="272.460938"/>
     <use xlink:href="#DejaVuSans-20" x="331.640625"/>
     <use xlink:href="#DejaVuSans-54" x="363.427734"/>
     <use xlink:href="#DejaVuSans-72" x="409.761719"/>
     <use xlink:href="#DejaVuSans-61" x="450.875"/>
     <use xlink:href="#DejaVuSans-6e" x="512.154297"/>
     <use xlink:href="#DejaVuSans-73" x="575.533203"/>
     <use xlink:href="#DejaVuSans-66" x="627.632812"/>
     <use xlink:href="#DejaVuSans-65" x="662.837891"/>
     <use xlink:href="#DejaVuSans-72" x="724.361328"/>
     <use xlink:href="#DejaVuSans-20" x="765.474609"/>
     <use xlink:href="#DejaVuSans-52" x="797.261719"/>
     <use xlink:href="#DejaVuSans-61" x="864.494141"/>
     <use xlink:href="#DejaVuSans-74" x="925.773438"/>
     <use xlink:href="#DejaVuSans-65" x="964.982422"/>
     <use xlink:href="#DejaVuSans-20" x="1026.505859"/>
     <use xlink:href="#DejaVuSans-28" x="1058.292969"/>
     <use xlink:href="#DejaVuSans-43" x="1097.306641"/>
     <use xlink:href="#DejaVuSans-75" x="1167.130859"/>
     <use xlink:href="#DejaVuSans-6d" x="1230.509766"/>
     <use xlink:href="#DejaVuSans-75" x="1327.921875"/>
     <use xlink:href="#DejaVuSans-6c" x="1391.300781"/>
     <use xlink:href="#DejaVuSans-61" x="1419.083984"/>
     <use xlink:href="#DejaVuSans-74" x="1480.363281"/>
     <use xlink:href="#DejaVuSans-69" x="1519.572266"/>
     <use xlink:href="#DejaVuSans-76" x="1547.355469"/>
     <use xlink:href="#DejaVuSans-65" x="1606.535156"/>
     <use xlink:href="#DejaVuSans-29" x="1668.058594"/>
    </g>
   </g>
   <g id="legend_1">
    <g id="patch_7">
     <path d="M 467.650404 255.44 
L 552.023842 255.44 
Q 554.023842 255.44 554.023842 253.44 
L 554.023842 180.493125 
Q 554.023842 178.493125 552.023842 178.493125 
L 467.650404 178.493125 
Q 465.650404 178.493125 465.650404 180.493125 
L 465.650404 253.44 
Q 465.650404 255.44 467.650404 255.44 
z
" style="fill: #ffffff; opacity: 0.8; stroke: #cccccc; stroke-linejoin: miter"/>
    </g>
    <g id="line2d_30">
     <path d="M 469.650404 186.591563 
L 479.650404 186.591563 
L 489.650404 186.591563 
" style="fill: none; stroke: #1f77b4; stroke-width: 1.8; stroke-linecap: square"/>
    </g>
    <g id="text_16">
     <!-- SHEER -->
     <g transform="translate(497.650404 190.091563) scale(0.1 -0.1)">
      <defs>
       <path id="DejaVuSans-53" d="M 3425 4513 
L 3425 3897 
Q 3066 4069 2747 4153 
Q 2428 4238 2131 4238 
Q 1616 4238 1336 4038 
Q 1056 3838 1056 3469 
Q 1056 3159 1242 3001 
Q 1428 2844 1947 2747 
L 2328 2669 
Q 3034 2534 3370 2195 
Q 3706 1856 3706 1288 
Q 3706 609 3251 259 
Q 2797 -91 1919 -91 
Q 1588 -91 1214 -16 
Q 841 59 441 206 
L 441 856 
Q 825 641 1194 531 
Q 1563 422 1919 422 
Q 2459 422 2753 634 
Q 3047 847 3047 1241 
Q 3047 1584 2836 1778 
Q 2625 1972 2144 2069 
L 1759 2144 
Q 1053 2284 737 2584 
Q 422 2884 422 3419 
Q 422 4038 858 4394 
Q 1294 4750 2059 4750 
Q 2388 4750 2728 4690 
Q 3069 4631 3425 4513 
z
" transform="scale(0.015625)"/>
       <path id="DejaVuSans-48" d="M 628 4666 
L 1259 4666 
L 1259 2753 
L 3553 2753 
L 3553 4666 
L 4184 4666 
L 4184 0 
L 3553 0 
L 3553 2222 
L 1259 2222 
L 1259 0 
L 628 0 
L 628 4666 
z
" transform="scale(0.015625)"/>
       <path id="DejaVuSans-45" d="M 628 4666 
L 3578 4666 
L 3578 4134 
L 1259 4134 
L 1259 2753 
L 3481 2753 
L 3481 2222 
L 1259 2222 
L 1259 531 
L 3634 531 
L 3634 0 
L 628 0 
L 628 4666 
z
" transform="scale(0.015625)"/>
      </defs>
      <use xlink:href="#DejaVuSans-53"/>
      <use xlink:href="#DejaVuSans-48" x="63.476562"/>
      <use xlink:href="#DejaVuSans-45" x="138.671875"/>
      <use xlink:href="#DejaVuSans-45" x="201.855469"/>
      <use xlink:href="#DejaVuSans-52" x="265.039062"/>
     </g>
    </g>
    <g id="line2d_31">
     <path d="M 469.650404 201.269688 
L 479.650404 201.269688 
L 489.650404 201.269688 
" style="fill: none; stroke: #ff7f0e; stroke-width: 1.8; stroke-linecap: square"/>
    </g>
    <g id="text_17">
     <!-- ACTAR -->
     <g transform="translate(497.650404 204.769688) scale(0.1 -0.1)">
      <defs>
       <path id="DejaVuSans-41" d="M 2188 4044 
L 1331 1722 
L 3047 1722 
L 2188 4044 
z
M 1831 4666 
L 2547 4666 
L 4325 0 
L 3669 0 
L 3244 1197 
L 1141 1197 
L 716 0 
L 50 0 
L 1831 4666 
z
" transform="scale(0.015625)"/>
      </defs>
      <use xlink:href="#DejaVuSans-41"/>
      <use xlink:href="#DejaVuSans-43" x="66.658203"/>
      <use xlink:href="#DejaVuSans-54" x="136.482422"/>
      <use xlink:href="#DejaVuSans-41" x="189.816406"/>
      <use xlink:href="#DejaVuSans-52" x="258.224609"/>
     </g>
    </g>
    <g id="line2d_32">
     <path d="M 469.650404 215.947813 
L 479.650404 215.947813 
L 489.650404 215.947813 
" style="fill: none; stroke: #2ca02c; stroke-width: 1.8; stroke-linecap: square"/>
    </g>
    <g id="text_18">
     <!-- TFSM_DPC -->
     <g transform="translate(497.650404 219.447813) scale(0.1 -0.1)">
      <defs>
       <path id="DejaVuSans-46" d="M 628 4666 
L 3309 4666 
L 3309 4134 
L 1259 4134 
L 1259 2759 
L 3109 2759 
L 3109 2228 
L 1259 2228 
L 1259 0 
L 628 0 
L 628 4666 
z
" transform="scale(0.015625)"/>
       <path id="DejaVuSans-4d" d="M 628 4666 
L 1569 4666 
L 2759 1491 
L 3956 4666 
L 4897 4666 
L 4897 0 
L 4281 0 
L 4281 4097 
L 3078 897 
L 2444 897 
L 1241 4097 
L 1241 0 
L 628 0 
L 628 4666 
z
" transform="scale(0.015625)"/>
       <path id="DejaVuSans-5f" d="M 3263 -1063 
L 3263 -1509 
L -63 -1509 
L -63 -1063 
L 3263 -1063 
z
" transform="scale(0.015625)"/>
       <path id="DejaVuSans-44" d="M 1259 4147 
L 1259 519 
L 2022 519 
Q 2988 519 3436 956 
Q 3884 1394 3884 2338 
Q 3884 3275 3436 3711 
Q 2988 4147 2022 4147 
L 1259 4147 
z
M 628 4666 
L 1925 4666 
Q 3281 4666 3915 4102 
Q 4550 3538 4550 2338 
Q 4550 1131 3912 565 
Q 3275 0 1925 0 
L 628 0 
L 628 4666 
z
" transform="scale(0.015625)"/>
       <path id="DejaVuSans-50" d="M 1259 4147 
L 1259 2394 
L 2053 2394 
Q 2494 2394 2734 2622 
Q 2975 2850 2975 3272 
Q 2975 3691 2734 3919 
Q 2494 4147 2053 4147 
L 1259 4147 
z
M 628 4666 
L 2053 4666 
Q 2838 4666 3239 4311 
Q 3641 3956 3641 3272 
Q 3641 2581 3239 2228 
Q 2838 1875 2053 1875 
L 1259 1875 
L 1259 0 
L 628 0 
L 628 4666 
z
" transform="scale(0.015625)"/>
      </defs>
      <use xlink:href="#DejaVuSans-54"/>
      <use xlink:href="#DejaVuSans-46" x="61.083984"/>
      <use xlink:href="#DejaVuSans-53" x="116.853516"/>
      <use xlink:href="#DejaVuSans-4d" x="180.330078"/>
      <use xlink:href="#DejaVuSans-5f" x="266.609375"/>
      <use xlink:href="#DejaVuSans-44" x="316.609375"/>
      <use xlink:href="#DejaVuSans-50" x="393.611328"/>
      <use xlink:href="#DejaVuSans-43" x="453.914062"/>
     </g>
    </g>
    <g id="line2d_33">
     <path d="M 469.650404 230.904063 
L 479.650404 230.904063 
L 489.650404 230.904063 
" style="fill: none; stroke: #d62728; stroke-width: 1.8; stroke-linecap: square"/>
    </g>
    <g id="text_19">
     <!-- DST_WOA -->
     <g transform="translate(497.650404 234.404063) scale(0.1 -0.1)">
      <defs>
       <path id="DejaVuSans-57" d="M 213 4666 
L 850 4666 
L 1831 722 
L 2809 4666 
L 3519 4666 
L 4500 722 
L 5478 4666 
L 6119 4666 
L 4947 0 
L 4153 0 
L 3169 4050 
L 2175 0 
L 1381 0 
L 213 4666 
z
" transform="scale(0.015625)"/>
       <path id="DejaVuSans-4f" d="M 2522 4238 
Q 1834 4238 1429 3725 
Q 1025 3213 1025 2328 
Q 1025 1447 1429 934 
Q 1834 422 2522 422 
Q 3209 422 3611 934 
Q 4013 1447 4013 2328 
Q 4013 3213 3611 3725 
Q 3209 4238 2522 4238 
z
M 2522 4750 
Q 3503 4750 4090 4092 
Q 4678 3434 4678 2328 
Q 4678 1225 4090 567 
Q 3503 -91 2522 -91 
Q 1538 -91 948 565 
Q 359 1222 359 2328 
Q 359 3434 948 4092 
Q 1538 4750 2522 4750 
z
" transform="scale(0.015625)"/>
      </defs>
      <use xlink:href="#DejaVuSans-44"/>
      <use xlink:href="#DejaVuSans-53" x="77.001953"/>
      <use xlink:href="#DejaVuSans-54" x="140.478516"/>
      <use xlink:href="#DejaVuSans-5f" x="201.5625"/>
      <use xlink:href="#DejaVuSans-57" x="251.5625"/>
      <use xlink:href="#DejaVuSans-4f" x="350.439453"/>
      <use xlink:href="#DejaVuSans-41" x="427.400391"/>
     </g>
    </g>
    <g id="line2d_34">
     <path d="M 469.650404 245.860313 
L 479.650404 245.860313 
L 489.650404 245.860313 
" style="fill: none; stroke: #9467bd; stroke-width: 1.8; stroke-linecap: square"/>
    </g>
    <g id="text_20">
     <!-- TRAIL -->
     <g transform="translate(497.650404 249.360313) scale(0.1 -0.1)">
      <defs>
       <path id="DejaVuSans-49" d="M 628 4666 
L 1259 4666 
L 1259 0 
L 628 0 
L 628 4666 
z
" transform="scale(0.015625)"/>
       <path id="DejaVuSans-4c" d="M 628 4666 
L 1259 4666 
L 1259 531 
L 3531 531 
L 3531 0 
L 628 0 
L 628 4666 
z
" transform="scale(0.015625)"/>
      </defs>
      <use xlink:href="#DejaVuSans-54"/>
      <use xlink:href="#DejaVuSans-52" x="61.083984"/>
      <use xlink:href="#DejaVuSans-41" x="126.566406"/>
      <use xlink:href="#DejaVuSans-49" x="194.974609"/>
      <use xlink:href="#DejaVuSans-4c" x="224.466797"/>
     </g>
    </g>
   </g>
  </g>
 </g>
 <defs>
  <clipPath id="pfa37eec694">
   <rect x="47.81" y="25.44" width="511.213842" height="235"/>
  </clipPath>
 </defs>
</svg>
