<?xml version="1.0" encoding="utf-8" standalone="no"?>
<!DOCTYPE svg PUBLIC "-//W3C//DTD SVG 1.1//EN"
  "http://www.w3.org/Graphics/SVG/1.1/DTD/svg11.dtd">
<svg xmlns:xlink="http://www.w3.org/1999/xlink" width="576pt" height="302.4pt" viewBox="0 0 576 302.4" xmlns="http://www.w3.org/2000/svg" version="1.1">
 <metadata>
  <rdf:RDF xmlns:dc="http://purl.org/dc/elements/1.1/" xmlns:cc="http://creativecommons.org/ns#" xmlns:rdf="http://www.w3.org/1999/02/22-rdf-syntax-ns#">
   <cc:Work>
    <dc:type rdf:resource="http://purl.org/dc/dcmitype/StillImage"/>
    <dc:date>2025-09-08T12:39:50.618204</dc:date>
    <dc:format>image/svg+xml</dc:format>
    <dc:creator>
     <cc:Agent>
      <dc:title>Matplotlib v3.9.4, https://matplotlib.org/</dc:title>
     </cc:Agent>
    </dc:creator>
   </cc:Work>
  </rdf:RDF>
 </metadata>
 <defs>
  <style type="text/css">*{stroke-linejoin: round; stroke-linecap: butt}</style>
 </defs>
 <g id="figure_1">
  <g id="patch_1">
   <path d="M 0 302.4 
L 576 302.4 
L 576 0 
L 0 0 
z
" style="fill: #ffffff"/>
  </g>
  <g id="axes_1">
   <g id="patch_2">
    <path d="M 54.2 260.44 
L 565.2 260.44 
L 565.2 25.44 
L 54.2 25.44 
z
" style="fill: #ffffff"/>
   </g>
   <g id="matplotlib.axis_1">
    <g id="xtick_1">
     <g id="line2d_1">
      <path d="M 77.369508 260.44 
L 77.369508 25.44 
" clip-path="url(#p889133b888)" style="fill: none; stroke-dasharray: 2.96,1.28; stroke-dashoffset: 0; stroke: #b0b0b0; stroke-opacity: 0.3; stroke-width: 0.8"/>
     </g>
     <g id="line2d_2">
      <defs>
       <path id="mfb67aad16d" d="M 0 0 
L 0 3.5 
" style="stroke: #000000; stroke-width: 0.8"/>
      </defs>
      <g>
       <use xlink:href="#mfb67aad16d" x="77.369508" y="260.44" style="stroke: #000000; stroke-width: 0.8"/>
      </g>
     </g>
     <g id="text_1">
      <!-- 0 -->
      <g transform="translate(74.188258 275.038438) scale(0.1 -0.1)">
       <defs>
        <path id="DejaVuSans-30" d="M 2034 4250 
Q 1547 4250 1301 3770 
Q 1056 3291 1056 2328 
Q 1056 1369 1301 889 
Q 1547 409 2034 409 
Q 2525 409 2770 889 
Q 3016 1369 3016 2328 
Q 3016 3291 2770 3770 
Q 2525 4250 2034 4250 
z
M 2034 4750 
Q 2819 4750 3233 4129 
Q 3647 3509 3647 2328 
Q 3647 1150 3233 529 
Q 2819 -91 2034 -91 
Q 1250 -91 836 529 
Q 422 1150 422 2328 
Q 422 3509 836 4129 
Q 1250 4750 2034 4750 
z
" transform="scale(0.015625)"/>
       </defs>
       <use xlink:href="#DejaVuSans-30"/>
      </g>
     </g>
    </g>
    <g id="xtick_2">
     <g id="line2d_3">
      <path d="M 135.134424 260.44 
L 135.134424 25.44 
" clip-path="url(#p889133b888)" style="fill: none; stroke-dasharray: 2.96,1.28; stroke-dashoffset: 0; stroke: #b0b0b0; stroke-opacity: 0.3; stroke-width: 0.8"/>
     </g>
     <g id="line2d_4">
      <g>
       <use xlink:href="#mfb67aad16d" x="135.134424" y="260.44" style="stroke: #000000; stroke-width: 0.8"/>
      </g>
     </g>
     <g id="text_2">
      <!-- 1000 -->
      <g transform="translate(122.409424 275.038438) scale(0.1 -0.1)">
       <defs>
        <path id="DejaVuSans-31" d="M 794 531 
L 1825 531 
L 1825 4091 
L 703 3866 
L 703 4441 
L 1819 4666 
L 2450 4666 
L 2450 531 
L 3481 531 
L 3481 0 
L 794 0 
L 794 531 
z
" transform="scale(0.015625)"/>
       </defs>
       <use xlink:href="#DejaVuSans-31"/>
       <use xlink:href="#DejaVuSans-30" x="63.623047"/>
       <use xlink:href="#DejaVuSans-30" x="127.246094"/>
       <use xlink:href="#DejaVuSans-30" x="190.869141"/>
      </g>
     </g>
    </g>
    <g id="xtick_3">
     <g id="line2d_5">
      <path d="M 192.89934 260.44 
L 192.89934 25.44 
" clip-path="url(#p889133b888)" style="fill: none; stroke-dasharray: 2.96,1.28; stroke-dashoffset: 0; stroke: #b0b0b0; stroke-opacity: 0.3; stroke-width: 0.8"/>
     </g>
     <g id="line2d_6">
      <g>
       <use xlink:href="#mfb67aad16d" x="192.89934" y="260.44" style="stroke: #000000; stroke-width: 0.8"/>
      </g>
     </g>
     <g id="text_3">
      <!-- 2000 -->
      <g transform="translate(180.17434 275.038438) scale(0.1 -0.1)">
       <defs>
        <path id="DejaVuSans-32" d="M 1228 531 
L 3431 531 
L 3431 0 
L 469 0 
L 469 531 
Q 828 903 1448 1529 
Q 2069 2156 2228 2338 
Q 2531 2678 2651 2914 
Q 2772 3150 2772 3378 
Q 2772 3750 2511 3984 
Q 2250 4219 1831 4219 
Q 1534 4219 1204 4116 
Q 875 4013 500 3803 
L 500 4441 
Q 881 4594 1212 4672 
Q 1544 4750 1819 4750 
Q 2544 4750 2975 4387 
Q 3406 4025 3406 3419 
Q 3406 3131 3298 2873 
Q 3191 2616 2906 2266 
Q 2828 2175 2409 1742 
Q 1991 1309 1228 531 
z
" transform="scale(0.015625)"/>
       </defs>
       <use xlink:href="#DejaVuSans-32"/>
       <use xlink:href="#DejaVuSans-30" x="63.623047"/>
       <use xlink:href="#DejaVuSans-30" x="127.246094"/>
       <use xlink:href="#DejaVuSans-30" x="190.869141"/>
      </g>
     </g>
    </g>
    <g id="xtick_4">
     <g id="line2d_7">
      <path d="M 250.664256 260.44 
L 250.664256 25.44 
" clip-path="url(#p889133b888)" style="fill: none; stroke-dasharray: 2.96,1.28; stroke-dashoffset: 0; stroke: #b0b0b0; stroke-opacity: 0.3; stroke-width: 0.8"/>
     </g>
     <g id="line2d_8">
      <g>
       <use xlink:href="#mfb67aad16d" x="250.664256" y="260.44" style="stroke: #000000; stroke-width: 0.8"/>
      </g>
     </g>
     <g id="text_4">
      <!-- 3000 -->
      <g transform="translate(237.939256 275.038438) scale(0.1 -0.1)">
       <defs>
        <path id="DejaVuSans-33" d="M 2597 2516 
Q 3050 2419 3304 2112 
Q 3559 1806 3559 1356 
Q 3559 666 3084 287 
Q 2609 -91 1734 -91 
Q 1441 -91 1130 -33 
Q 819 25 488 141 
L 488 750 
Q 750 597 1062 519 
Q 1375 441 1716 441 
Q 2309 441 2620 675 
Q 2931 909 2931 1356 
Q 2931 1769 2642 2001 
Q 2353 2234 1838 2234 
L 1294 2234 
L 1294 2753 
L 1863 2753 
Q 2328 2753 2575 2939 
Q 2822 3125 2822 3475 
Q 2822 3834 2567 4026 
Q 2313 4219 1838 4219 
Q 1578 4219 1281 4162 
Q 984 4106 628 3988 
L 628 4550 
Q 988 4650 1302 4700 
Q 1616 4750 1894 4750 
Q 2613 4750 3031 4423 
Q 3450 4097 3450 3541 
Q 3450 3153 3228 2886 
Q 3006 2619 2597 2516 
z
" transform="scale(0.015625)"/>
       </defs>
       <use xlink:href="#DejaVuSans-33"/>
       <use xlink:href="#DejaVuSans-30" x="63.623047"/>
       <use xlink:href="#DejaVuSans-30" x="127.246094"/>
       <use xlink:href="#DejaVuSans-30" x="190.869141"/>
      </g>
     </g>
    </g>
    <g id="xtick_5">
     <g id="line2d_9">
      <path d="M 308.429172 260.44 
L 308.429172 25.44 
" clip-path="url(#p889133b888)" style="fill: none; stroke-dasharray: 2.96,1.28; stroke-dashoffset: 0; stroke: #b0b0b0; stroke-opacity: 0.3; stroke-width: 0.8"/>
     </g>
     <g id="line2d_10">
      <g>
       <use xlink:href="#mfb67aad16d" x="308.429172" y="260.44" style="stroke: #000000; stroke-width: 0.8"/>
      </g>
     </g>
     <g id="text_5">
      <!-- 4000 -->
      <g transform="translate(295.704172 275.038438) scale(0.1 -0.1)">
       <defs>
        <path id="DejaVuSans-34" d="M 2419 4116 
L 825 1625 
L 2419 1625 
L 2419 4116 
z
M 2253 4666 
L 3047 4666 
L 3047 1625 
L 3713 1625 
L 3713 1100 
L 3047 1100 
L 3047 0 
L 2419 0 
L 2419 1100 
L 313 1100 
L 313 1709 
L 2253 4666 
z
" transform="scale(0.015625)"/>
       </defs>
       <use xlink:href="#DejaVuSans-34"/>
       <use xlink:href="#DejaVuSans-30" x="63.623047"/>
       <use xlink:href="#DejaVuSans-30" x="127.246094"/>
       <use xlink:href="#DejaVuSans-30" x="190.869141"/>
      </g>
     </g>
    </g>
    <g id="xtick_6">
     <g id="line2d_11">
      <path d="M 366.194088 260.44 
L 366.194088 25.44 
" clip-path="url(#p889133b888)" style="fill: none; stroke-dasharray: 2.96,1.28; stroke-dashoffset: 0; stroke: #b0b0b0; stroke-opacity: 0.3; stroke-width: 0.8"/>
     </g>
     <g id="line2d_12">
      <g>
       <use xlink:href="#mfb67aad16d" x="366.194088" y="260.44" style="stroke: #000000; stroke-width: 0.8"/>
      </g>
     </g>
     <g id="text_6">
      <!-- 5000 -->
      <g transform="translate(353.469088 275.038438) scale(0.1 -0.1)">
       <defs>
        <path id="DejaVuSans-35" d="M 691 4666 
L 3169 4666 
L 3169 4134 
L 1269 4134 
L 1269 2991 
Q 1406 3038 1543 3061 
Q 1681 3084 1819 3084 
Q 2600 3084 3056 2656 
Q 3513 2228 3513 1497 
Q 3513 744 3044 326 
Q 2575 -91 1722 -91 
Q 1428 -91 1123 -41 
Q 819 9 494 109 
L 494 744 
Q 775 591 1075 516 
Q 1375 441 1709 441 
Q 2250 441 2565 725 
Q 2881 1009 2881 1497 
Q 2881 1984 2565 2268 
Q 2250 2553 1709 2553 
Q 1456 2553 1204 2497 
Q 953 2441 691 2322 
L 691 4666 
z
" transform="scale(0.015625)"/>
       </defs>
       <use xlink:href="#DejaVuSans-35"/>
       <use xlink:href="#DejaVuSans-30" x="63.623047"/>
       <use xlink:href="#DejaVuSans-30" x="127.246094"/>
       <use xlink:href="#DejaVuSans-30" x="190.869141"/>
      </g>
     </g>
    </g>
    <g id="xtick_7">
     <g id="line2d_13">
      <path d="M 423.959004 260.44 
L 423.959004 25.44 
" clip-path="url(#p889133b888)" style="fill: none; stroke-dasharray: 2.96,1.28; stroke-dashoffset: 0; stroke: #b0b0b0; stroke-opacity: 0.3; stroke-width: 0.8"/>
     </g>
     <g id="line2d_14">
      <g>
       <use xlink:href="#mfb67aad16d" x="423.959004" y="260.44" style="stroke: #000000; stroke-width: 0.8"/>
      </g>
     </g>
     <g id="text_7">
      <!-- 6000 -->
      <g transform="translate(411.234004 275.038438) scale(0.1 -0.1)">
       <defs>
        <path id="DejaVuSans-36" d="M 2113 2584 
Q 1688 2584 1439 2293 
Q 1191 2003 1191 1497 
Q 1191 994 1439 701 
Q 1688 409 2113 409 
Q 2538 409 2786 701 
Q 3034 994 3034 1497 
Q 3034 2003 2786 2293 
Q 2538 2584 2113 2584 
z
M 3366 4563 
L 3366 3988 
Q 3128 4100 2886 4159 
Q 2644 4219 2406 4219 
Q 1781 4219 1451 3797 
Q 1122 3375 1075 2522 
Q 1259 2794 1537 2939 
Q 1816 3084 2150 3084 
Q 2853 3084 3261 2657 
Q 3669 2231 3669 1497 
Q 3669 778 3244 343 
Q 2819 -91 2113 -91 
Q 1303 -91 875 529 
Q 447 1150 447 2328 
Q 447 3434 972 4092 
Q 1497 4750 2381 4750 
Q 2619 4750 2861 4703 
Q 3103 4656 3366 4563 
z
" transform="scale(0.015625)"/>
       </defs>
       <use xlink:href="#DejaVuSans-36"/>
       <use xlink:href="#DejaVuSans-30" x="63.623047"/>
       <use xlink:href="#DejaVuSans-30" x="127.246094"/>
       <use xlink:href="#DejaVuSans-30" x="190.869141"/>
      </g>
     </g>
    </g>
    <g id="xtick_8">
     <g id="line2d_15">
      <path d="M 481.72392 260.44 
L 481.72392 25.44 
" clip-path="url(#p889133b888)" style="fill: none; stroke-dasharray: 2.96,1.28; stroke-dashoffset: 0; stroke: #b0b0b0; stroke-opacity: 0.3; stroke-width: 0.8"/>
     </g>
     <g id="line2d_16">
      <g>
       <use xlink:href="#mfb67aad16d" x="481.72392" y="260.44" style="stroke: #000000; stroke-width: 0.8"/>
      </g>
     </g>
     <g id="text_8">
      <!-- 7000 -->
      <g transform="translate(468.99892 275.038438) scale(0.1 -0.1)">
       <defs>
        <path id="DejaVuSans-37" d="M 525 4666 
L 3525 4666 
L 3525 4397 
L 1831 0 
L 1172 0 
L 2766 4134 
L 525 4134 
L 525 4666 
z
" transform="scale(0.015625)"/>
       </defs>
       <use xlink:href="#DejaVuSans-37"/>
       <use xlink:href="#DejaVuSans-30" x="63.623047"/>
       <use xlink:href="#DejaVuSans-30" x="127.246094"/>
       <use xlink:href="#DejaVuSans-30" x="190.869141"/>
      </g>
     </g>
    </g>
    <g id="xtick_9">
     <g id="line2d_17">
      <path d="M 539.488836 260.44 
L 539.488836 25.44 
" clip-path="url(#p889133b888)" style="fill: none; stroke-dasharray: 2.96,1.28; stroke-dashoffset: 0; stroke: #b0b0b0; stroke-opacity: 0.3; stroke-width: 0.8"/>
     </g>
     <g id="line2d_18">
      <g>
       <use xlink:href="#mfb67aad16d" x="539.488836" y="260.44" style="stroke: #000000; stroke-width: 0.8"/>
      </g>
     </g>
     <g id="text_9">
      <!-- 8000 -->
      <g transform="translate(526.763836 275.038438) scale(0.1 -0.1)">
       <defs>
        <path id="DejaVuSans-38" d="M 2034 2216 
Q 1584 2216 1326 1975 
Q 1069 1734 1069 1313 
Q 1069 891 1326 650 
Q 1584 409 2034 409 
Q 2484 409 2743 651 
Q 3003 894 3003 1313 
Q 3003 1734 2745 1975 
Q 2488 2216 2034 2216 
z
M 1403 2484 
Q 997 2584 770 2862 
Q 544 3141 544 3541 
Q 544 4100 942 4425 
Q 1341 4750 2034 4750 
Q 2731 4750 3128 4425 
Q 3525 4100 3525 3541 
Q 3525 3141 3298 2862 
Q 3072 2584 2669 2484 
Q 3125 2378 3379 2068 
Q 3634 1759 3634 1313 
Q 3634 634 3220 271 
Q 2806 -91 2034 -91 
Q 1263 -91 848 271 
Q 434 634 434 1313 
Q 434 1759 690 2068 
Q 947 2378 1403 2484 
z
M 1172 3481 
Q 1172 3119 1398 2916 
Q 1625 2713 2034 2713 
Q 2441 2713 2670 2916 
Q 2900 3119 2900 3481 
Q 2900 3844 2670 4047 
Q 2441 4250 2034 4250 
Q 1625 4250 1398 4047 
Q 1172 3844 1172 3481 
z
" transform="scale(0.015625)"/>
       </defs>
       <use xlink:href="#DejaVuSans-38"/>
       <use xlink:href="#DejaVuSans-30" x="63.623047"/>
       <use xlink:href="#DejaVuSans-30" x="127.246094"/>
       <use xlink:href="#DejaVuSans-30" x="190.869141"/>
      </g>
     </g>
    </g>
    <g id="text_10">
     <!-- round -->
     <g transform="translate(295.185937 288.716563) scale(0.1 -0.1)">
      <defs>
       <path id="DejaVuSans-72" d="M 2631 2963 
Q 2534 3019 2420 3045 
Q 2306 3072 2169 3072 
Q 1681 3072 1420 2755 
Q 1159 2438 1159 1844 
L 1159 0 
L 581 0 
L 581 3500 
L 1159 3500 
L 1159 2956 
Q 1341 3275 1631 3429 
Q 1922 3584 2338 3584 
Q 2397 3584 2469 3576 
Q 2541 3569 2628 3553 
L 2631 2963 
z
" transform="scale(0.015625)"/>
       <path id="DejaVuSans-6f" d="M 1959 3097 
Q 1497 3097 1228 2736 
Q 959 2375 959 1747 
Q 959 1119 1226 758 
Q 1494 397 1959 397 
Q 2419 397 2687 759 
Q 2956 1122 2956 1747 
Q 2956 2369 2687 2733 
Q 2419 3097 1959 3097 
z
M 1959 3584 
Q 2709 3584 3137 3096 
Q 3566 2609 3566 1747 
Q 3566 888 3137 398 
Q 2709 -91 1959 -91 
Q 1206 -91 779 398 
Q 353 888 353 1747 
Q 353 2609 779 3096 
Q 1206 3584 1959 3584 
z
" transform="scale(0.015625)"/>
       <path id="DejaVuSans-75" d="M 544 1381 
L 544 3500 
L 1119 3500 
L 1119 1403 
Q 1119 906 1312 657 
Q 1506 409 1894 409 
Q 2359 409 2629 706 
Q 2900 1003 2900 1516 
L 2900 3500 
L 3475 3500 
L 3475 0 
L 2900 0 
L 2900 538 
Q 2691 219 2414 64 
Q 2138 -91 1772 -91 
Q 1169 -91 856 284 
Q 544 659 544 1381 
z
M 1991 3584 
L 1991 3584 
z
" transform="scale(0.015625)"/>
       <path id="DejaVuSans-6e" d="M 3513 2113 
L 3513 0 
L 2938 0 
L 2938 2094 
Q 2938 2591 2744 2837 
Q 2550 3084 2163 3084 
Q 1697 3084 1428 2787 
Q 1159 2491 1159 1978 
L 1159 0 
L 581 0 
L 581 3500 
L 1159 3500 
L 1159 2956 
Q 1366 3272 1645 3428 
Q 1925 3584 2291 3584 
Q 2894 3584 3203 3211 
Q 3513 2838 3513 2113 
z
" transform="scale(0.015625)"/>
       <path id="DejaVuSans-64" d="M 2906 2969 
L 2906 4863 
L 3481 4863 
L 3481 0 
L 2906 0 
L 2906 525 
Q 2725 213 2448 61 
Q 2172 -91 1784 -91 
Q 1150 -91 751 415 
Q 353 922 353 1747 
Q 353 2572 751 3078 
Q 1150 3584 1784 3584 
Q 2172 3584 2448 3432 
Q 2725 3281 2906 2969 
z
M 947 1747 
Q 947 1113 1208 752 
Q 1469 391 1925 391 
Q 2381 391 2643 752 
Q 2906 1113 2906 1747 
Q 2906 2381 2643 2742 
Q 2381 3103 1925 3103 
Q 1469 3103 1208 2742 
Q 947 2381 947 1747 
z
" transform="scale(0.015625)"/>
      </defs>
      <use xlink:href="#DejaVuSans-72"/>
      <use xlink:href="#DejaVuSans-6f" x="38.863281"/>
      <use xlink:href="#DejaVuSans-75" x="100.044922"/>
      <use xlink:href="#DejaVuSans-6e" x="163.423828"/>
      <use xlink:href="#DejaVuSans-64" x="226.802734"/>
     </g>
    </g>
   </g>
   <g id="matplotlib.axis_2">
    <g id="ytick_1">
     <g id="line2d_19">
      <path d="M 54.2 235.515758 
L 565.2 235.515758 
" clip-path="url(#p889133b888)" style="fill: none; stroke-dasharray: 2.96,1.28; stroke-dashoffset: 0; stroke: #b0b0b0; stroke-opacity: 0.3; stroke-width: 0.8"/>
     </g>
     <g id="line2d_20">
      <defs>
       <path id="m1883a8518d" d="M 0 0 
L -3.5 0 
" style="stroke: #000000; stroke-width: 0.8"/>
      </defs>
      <g>
       <use xlink:href="#m1883a8518d" x="54.2" y="235.515758" style="stroke: #000000; stroke-width: 0.8"/>
      </g>
     </g>
     <g id="text_11">
      <!-- 0.70 -->
      <g transform="translate(24.934375 239.314976) scale(0.1 -0.1)">
       <defs>
        <path id="DejaVuSans-2e" d="M 684 794 
L 1344 794 
L 1344 0 
L 684 0 
L 684 794 
z
" transform="scale(0.015625)"/>
       </defs>
       <use xlink:href="#DejaVuSans-30"/>
       <use xlink:href="#DejaVuSans-2e" x="63.623047"/>
       <use xlink:href="#DejaVuSans-37" x="95.410156"/>
       <use xlink:href="#DejaVuSans-30" x="159.033203"/>
      </g>
     </g>
    </g>
    <g id="ytick_2">
     <g id="line2d_21">
      <path d="M 54.2 202.283434 
L 565.2 202.283434 
" clip-path="url(#p889133b888)" style="fill: none; stroke-dasharray: 2.96,1.28; stroke-dashoffset: 0; stroke: #b0b0b0; stroke-opacity: 0.3; stroke-width: 0.8"/>
     </g>
     <g id="line2d_22">
      <g>
       <use xlink:href="#m1883a8518d" x="54.2" y="202.283434" style="stroke: #000000; stroke-width: 0.8"/>
      </g>
     </g>
     <g id="text_12">
      <!-- 0.75 -->
      <g transform="translate(24.934375 206.082653) scale(0.1 -0.1)">
       <use xlink:href="#DejaVuSans-30"/>
       <use xlink:href="#DejaVuSans-2e" x="63.623047"/>
       <use xlink:href="#DejaVuSans-37" x="95.410156"/>
       <use xlink:href="#DejaVuSans-35" x="159.033203"/>
      </g>
     </g>
    </g>
    <g id="ytick_3">
     <g id="line2d_23">
      <path d="M 54.2 169.051111 
L 565.2 169.051111 
" clip-path="url(#p889133b888)" style="fill: none; stroke-dasharray: 2.96,1.28; stroke-dashoffset: 0; stroke: #b0b0b0; stroke-opacity: 0.3; stroke-width: 0.8"/>
     </g>
     <g id="line2d_24">
      <g>
       <use xlink:href="#m1883a8518d" x="54.2" y="169.051111" style="stroke: #000000; stroke-width: 0.8"/>
      </g>
     </g>
     <g id="text_13">
      <!-- 0.80 -->
      <g transform="translate(24.934375 172.85033) scale(0.1 -0.1)">
       <use xlink:href="#DejaVuSans-30"/>
       <use xlink:href="#DejaVuSans-2e" x="63.623047"/>
       <use xlink:href="#DejaVuSans-38" x="95.410156"/>
       <use xlink:href="#DejaVuSans-30" x="159.033203"/>
      </g>
     </g>
    </g>
    <g id="ytick_4">
     <g id="line2d_25">
      <path d="M 54.2 135.818788 
L 565.2 135.818788 
" clip-path="url(#p889133b888)" style="fill: none; stroke-dasharray: 2.96,1.28; stroke-dashoffset: 0; stroke: #b0b0b0; stroke-opacity: 0.3; stroke-width: 0.8"/>
     </g>
     <g id="line2d_26">
      <g>
       <use xlink:href="#m1883a8518d" x="54.2" y="135.818788" style="stroke: #000000; stroke-width: 0.8"/>
      </g>
     </g>
     <g id="text_14">
      <!-- 0.85 -->
      <g transform="translate(24.934375 139.618007) scale(0.1 -0.1)">
       <use xlink:href="#DejaVuSans-30"/>
       <use xlink:href="#DejaVuSans-2e" x="63.623047"/>
       <use xlink:href="#DejaVuSans-38" x="95.410156"/>
       <use xlink:href="#DejaVuSans-35" x="159.033203"/>
      </g>
     </g>
    </g>
    <g id="ytick_5">
     <g id="line2d_27">
      <path d="M 54.2 102.586465 
L 565.2 102.586465 
" clip-path="url(#p889133b888)" style="fill: none; stroke-dasharray: 2.96,1.28; stroke-dashoffset: 0; stroke: #b0b0b0; stroke-opacity: 0.3; stroke-width: 0.8"/>
     </g>
     <g id="line2d_28">
      <g>
       <use xlink:href="#m1883a8518d" x="54.2" y="102.586465" style="stroke: #000000; stroke-width: 0.8"/>
      </g>
     </g>
     <g id="text_15">
      <!-- 0.90 -->
      <g transform="translate(24.934375 106.385683) scale(0.1 -0.1)">
       <defs>
        <path id="DejaVuSans-39" d="M 703 97 
L 703 672 
Q 941 559 1184 500 
Q 1428 441 1663 441 
Q 2288 441 2617 861 
Q 2947 1281 2994 2138 
Q 2813 1869 2534 1725 
Q 2256 1581 1919 1581 
Q 1219 1581 811 2004 
Q 403 2428 403 3163 
Q 403 3881 828 4315 
Q 1253 4750 1959 4750 
Q 2769 4750 3195 4129 
Q 3622 3509 3622 2328 
Q 3622 1225 3098 567 
Q 2575 -91 1691 -91 
Q 1453 -91 1209 -44 
Q 966 3 703 97 
z
M 1959 2075 
Q 2384 2075 2632 2365 
Q 2881 2656 2881 3163 
Q 2881 3666 2632 3958 
Q 2384 4250 1959 4250 
Q 1534 4250 1286 3958 
Q 1038 3666 1038 3163 
Q 1038 2656 1286 2365 
Q 1534 2075 1959 2075 
z
" transform="scale(0.015625)"/>
       </defs>
       <use xlink:href="#DejaVuSans-30"/>
       <use xlink:href="#DejaVuSans-2e" x="63.623047"/>
       <use xlink:href="#DejaVuSans-39" x="95.410156"/>
       <use xlink:href="#DejaVuSans-30" x="159.033203"/>
      </g>
     </g>
    </g>
    <g id="ytick_6">
     <g id="line2d_29">
      <path d="M 54.2 69.354141 
L 565.2 69.354141 
" clip-path="url(#p889133b888)" style="fill: none; stroke-dasharray: 2.96,1.28; stroke-dashoffset: 0; stroke: #b0b0b0; stroke-opacity: 0.3; stroke-width: 0.8"/>
     </g>
     <g id="line2d_30">
      <g>
       <use xlink:href="#m1883a8518d" x="54.2" y="69.354141" style="stroke: #000000; stroke-width: 0.8"/>
      </g>
     </g>
     <g id="text_16">
      <!-- 0.95 -->
      <g transform="translate(24.934375 73.15336) scale(0.1 -0.1)">
       <use xlink:href="#DejaVuSans-30"/>
       <use xlink:href="#DejaVuSans-2e" x="63.623047"/>
       <use xlink:href="#DejaVuSans-39" x="95.410156"/>
       <use xlink:href="#DejaVuSans-35" x="159.033203"/>
      </g>
     </g>
    </g>
    <g id="ytick_7">
     <g id="line2d_31">
      <path d="M 54.2 36.121818 
L 565.2 36.121818 
" clip-path="url(#p889133b888)" style="fill: none; stroke-dasharray: 2.96,1.28; stroke-dashoffset: 0; stroke: #b0b0b0; stroke-opacity: 0.3; stroke-width: 0.8"/>
     </g>
     <g id="line2d_32">
      <g>
       <use xlink:href="#m1883a8518d" x="54.2" y="36.121818" style="stroke: #000000; stroke-width: 0.8"/>
      </g>
     </g>
     <g id="text_17">
      <!-- 1.00 -->
      <g transform="translate(24.934375 39.921037) scale(0.1 -0.1)">
       <use xlink:href="#DejaVuSans-31"/>
       <use xlink:href="#DejaVuSans-2e" x="63.623047"/>
       <use xlink:href="#DejaVuSans-30" x="95.410156"/>
       <use xlink:href="#DejaVuSans-30" x="159.033203"/>
      </g>
     </g>
    </g>
    <g id="text_18">
     <!-- cumulative timely transfer rate -->
     <g transform="translate(18.854688 221.048594) rotate(-90) scale(0.1 -0.1)">
      <defs>
       <path id="DejaVuSans-63" d="M 3122 3366 
L 3122 2828 
Q 2878 2963 2633 3030 
Q 2388 3097 2138 3097 
Q 1578 3097 1268 2742 
Q 959 2388 959 1747 
Q 959 1106 1268 751 
Q 1578 397 2138 397 
Q 2388 397 2633 464 
Q 2878 531 3122 666 
L 3122 134 
Q 2881 22 2623 -34 
Q 2366 -91 2075 -91 
Q 1284 -91 818 406 
Q 353 903 353 1747 
Q 353 2603 823 3093 
Q 1294 3584 2113 3584 
Q 2378 3584 2631 3529 
Q 2884 3475 3122 3366 
z
" transform="scale(0.015625)"/>
       <path id="DejaVuSans-6d" d="M 3328 2828 
Q 3544 3216 3844 3400 
Q 4144 3584 4550 3584 
Q 5097 3584 5394 3201 
Q 5691 2819 5691 2113 
L 5691 0 
L 5113 0 
L 5113 2094 
Q 5113 2597 4934 2840 
Q 4756 3084 4391 3084 
Q 3944 3084 3684 2787 
Q 3425 2491 3425 1978 
L 3425 0 
L 2847 0 
L 2847 2094 
Q 2847 2600 2669 2842 
Q 2491 3084 2119 3084 
Q 1678 3084 1418 2786 
Q 1159 2488 1159 1978 
L 1159 0 
L 581 0 
L 581 3500 
L 1159 3500 
L 1159 2956 
Q 1356 3278 1631 3431 
Q 1906 3584 2284 3584 
Q 2666 3584 2933 3390 
Q 3200 3197 3328 2828 
z
" transform="scale(0.015625)"/>
       <path id="DejaVuSans-6c" d="M 603 4863 
L 1178 4863 
L 1178 0 
L 603 0 
L 603 4863 
z
" transform="scale(0.015625)"/>
       <path id="DejaVuSans-61" d="M 2194 1759 
Q 1497 1759 1228 1600 
Q 959 1441 959 1056 
Q 959 750 1161 570 
Q 1363 391 1709 391 
Q 2188 391 2477 730 
Q 2766 1069 2766 1631 
L 2766 1759 
L 2194 1759 
z
M 3341 1997 
L 3341 0 
L 2766 0 
L 2766 531 
Q 2569 213 2275 61 
Q 1981 -91 1556 -91 
Q 1019 -91 701 211 
Q 384 513 384 1019 
Q 384 1609 779 1909 
Q 1175 2209 1959 2209 
L 2766 2209 
L 2766 2266 
Q 2766 2663 2505 2880 
Q 2244 3097 1772 3097 
Q 1472 3097 1187 3025 
Q 903 2953 641 2809 
L 641 3341 
Q 956 3463 1253 3523 
Q 1550 3584 1831 3584 
Q 2591 3584 2966 3190 
Q 3341 2797 3341 1997 
z
" transform="scale(0.015625)"/>
       <path id="DejaVuSans-74" d="M 1172 4494 
L 1172 3500 
L 2356 3500 
L 2356 3053 
L 1172 3053 
L 1172 1153 
Q 1172 725 1289 603 
Q 1406 481 1766 481 
L 2356 481 
L 2356 0 
L 1766 0 
Q 1100 0 847 248 
Q 594 497 594 1153 
L 594 3053 
L 172 3053 
L 172 3500 
L 594 3500 
L 594 4494 
L 1172 4494 
z
" transform="scale(0.015625)"/>
       <path id="DejaVuSans-69" d="M 603 3500 
L 1178 3500 
L 1178 0 
L 603 0 
L 603 3500 
z
M 603 4863 
L 1178 4863 
L 1178 4134 
L 603 4134 
L 603 4863 
z
" transform="scale(0.015625)"/>
       <path id="DejaVuSans-76" d="M 191 3500 
L 800 3500 
L 1894 563 
L 2988 3500 
L 3597 3500 
L 2284 0 
L 1503 0 
L 191 3500 
z
" transform="scale(0.015625)"/>
       <path id="DejaVuSans-65" d="M 3597 1894 
L 3597 1613 
L 953 1613 
Q 991 1019 1311 708 
Q 1631 397 2203 397 
Q 2534 397 2845 478 
Q 3156 559 3463 722 
L 3463 178 
Q 3153 47 2828 -22 
Q 2503 -91 2169 -91 
Q 1331 -91 842 396 
Q 353 884 353 1716 
Q 353 2575 817 3079 
Q 1281 3584 2069 3584 
Q 2775 3584 3186 3129 
Q 3597 2675 3597 1894 
z
M 3022 2063 
Q 3016 2534 2758 2815 
Q 2500 3097 2075 3097 
Q 1594 3097 1305 2825 
Q 1016 2553 972 2059 
L 3022 2063 
z
" transform="scale(0.015625)"/>
       <path id="DejaVuSans-20" transform="scale(0.015625)"/>
       <path id="DejaVuSans-79" d="M 2059 -325 
Q 1816 -950 1584 -1140 
Q 1353 -1331 966 -1331 
L 506 -1331 
L 506 -850 
L 844 -850 
Q 1081 -850 1212 -737 
Q 1344 -625 1503 -206 
L 1606 56 
L 191 3500 
L 800 3500 
L 1894 763 
L 2988 3500 
L 3597 3500 
L 2059 -325 
z
" transform="scale(0.015625)"/>
       <path id="DejaVuSans-73" d="M 2834 3397 
L 2834 2853 
Q 2591 2978 2328 3040 
Q 2066 3103 1784 3103 
Q 1356 3103 1142 2972 
Q 928 2841 928 2578 
Q 928 2378 1081 2264 
Q 1234 2150 1697 2047 
L 1894 2003 
Q 2506 1872 2764 1633 
Q 3022 1394 3022 966 
Q 3022 478 2636 193 
Q 2250 -91 1575 -91 
Q 1294 -91 989 -36 
Q 684 19 347 128 
L 347 722 
Q 666 556 975 473 
Q 1284 391 1588 391 
Q 1994 391 2212 530 
Q 2431 669 2431 922 
Q 2431 1156 2273 1281 
Q 2116 1406 1581 1522 
L 1381 1569 
Q 847 1681 609 1914 
Q 372 2147 372 2553 
Q 372 3047 722 3315 
Q 1072 3584 1716 3584 
Q 2034 3584 2315 3537 
Q 2597 3491 2834 3397 
z
" transform="scale(0.015625)"/>
       <path id="DejaVuSans-66" d="M 2375 4863 
L 2375 4384 
L 1825 4384 
Q 1516 4384 1395 4259 
Q 1275 4134 1275 3809 
L 1275 3500 
L 2222 3500 
L 2222 3053 
L 1275 3053 
L 1275 0 
L 697 0 
L 697 3053 
L 147 3053 
L 147 3500 
L 697 3500 
L 697 3744 
Q 697 4328 969 4595 
Q 1241 4863 1831 4863 
L 2375 4863 
z
" transform="scale(0.015625)"/>
      </defs>
      <use xlink:href="#DejaVuSans-63"/>
      <use xlink:href="#DejaVuSans-75" x="54.980469"/>
      <use xlink:href="#DejaVuSans-6d" x="118.359375"/>
      <use xlink:href="#DejaVuSans-75" x="215.771484"/>
      <use xlink:href="#DejaVuSans-6c" x="279.150391"/>
      <use xlink:href="#DejaVuSans-61" x="306.933594"/>
      <use xlink:href="#DejaVuSans-74" x="368.212891"/>
      <use xlink:href="#DejaVuSans-69" x="407.421875"/>
      <use xlink:href="#DejaVuSans-76" x="435.205078"/>
      <use xlink:href="#DejaVuSans-65" x="494.384766"/>
      <use xlink:href="#DejaVuSans-20" x="555.908203"/>
      <use xlink:href="#DejaVuSans-74" x="587.695312"/>
      <use xlink:href="#DejaVuSans-69" x="626.904297"/>
      <use xlink:href="#DejaVuSans-6d" x="654.6875"/>
      <use xlink:href="#DejaVuSans-65" x="752.099609"/>
      <use xlink:href="#DejaVuSans-6c" x="813.623047"/>
      <use xlink:href="#DejaVuSans-79" x="841.40625"/>
      <use xlink:href="#DejaVuSans-20" x="900.585938"/>
      <use xlink:href="#DejaVuSans-74" x="932.373047"/>
      <use xlink:href="#DejaVuSans-72" x="971.582031"/>
      <use xlink:href="#DejaVuSans-61" x="1012.695312"/>
      <use xlink:href="#DejaVuSans-6e" x="1073.974609"/>
      <use xlink:href="#DejaVuSans-73" x="1137.353516"/>
      <use xlink:href="#DejaVuSans-66" x="1189.453125"/>
      <use xlink:href="#DejaVuSans-65" x="1224.658203"/>
      <use xlink:href="#DejaVuSans-72" x="1286.181641"/>
      <use xlink:href="#DejaVuSans-20" x="1327.294922"/>
      <use xlink:href="#DejaVuSans-72" x="1359.082031"/>
      <use xlink:href="#DejaVuSans-61" x="1400.195312"/>
      <use xlink:href="#DejaVuSans-74" x="1461.474609"/>
      <use xlink:href="#DejaVuSans-65" x="1500.683594"/>
     </g>
    </g>
   </g>
   <g id="line2d_33">
    <path d="M 77.427273 249.758182 
L 77.831627 137.723826 
L 78.004922 122.680428 
L 78.120452 128.14979 
L 78.467041 95.790827 
L 78.871396 77.806962 
L 79.333515 67.236607 
L 79.853399 60.413466 
L 80.488813 55.036658 
L 81.066462 51.729954 
L 81.124227 51.499243 
L 81.181992 53.32542 
L 81.239757 53.037091 
L 81.355287 52.58738 
L 81.413052 54.298832 
L 81.470817 54.064152 
L 81.528582 53.825198 
L 81.586347 55.068411 
L 81.644112 54.823182 
L 82.163996 53.02534 
L 82.279526 58.167023 
L 82.337291 57.983042 
L 82.395056 57.802107 
L 82.510585 61.648781 
L 82.56835 61.397106 
L 82.741645 60.637466 
L 82.972705 63.214952 
L 83.608119 58.973599 
L 83.665884 58.611655 
L 83.723649 61.558324 
L 83.781413 61.290759 
L 83.839178 60.916919 
L 83.896943 63.721161 
L 83.954708 63.313927 
L 84.301298 61.929224 
L 84.590122 68.622868 
L 84.647887 68.445051 
L 84.821182 73.318528 
L 84.936712 72.874679 
L 84.994477 72.556564 
L 85.052242 75.485846 
L 85.110007 75.152441 
L 85.167771 74.846318 
L 85.225536 76.570566 
L 85.283301 76.127898 
L 87.074014 67.259429 
L 87.824958 64.843528 
L 88.056017 65.973502 
L 88.344842 64.981954 
L 88.922491 62.59004 
L 89.788965 59.25543 
L 90.482144 57.119155 
L 90.886498 56.140775 
L 91.290853 65.804578 
L 91.464147 67.864193 
L 91.521912 67.717915 
L 91.579677 67.538846 
L 91.752972 69.36593 
L 91.868502 68.927589 
L 92.619446 66.4144 
L 92.79274 65.866365 
L 92.850505 66.4378 
L 92.90827 66.26672 
L 93.774744 63.922181 
L 93.832509 65.008425 
L 93.890274 64.832522 
L 94.467923 63.397376 
L 95.449927 61.34831 
L 95.507691 61.980138 
L 95.565456 61.871891 
L 96.54746 59.779649 
L 96.66299 60.47035 
L 96.720755 60.347386 
L 97.760523 58.065198 
L 98.511467 56.748349 
L 98.684762 56.496945 
L 98.742527 57.140239 
L 98.800292 57.058121 
L 98.858057 56.979179 
L 98.915821 57.757917 
L 98.973586 57.675754 
L 99.609 56.757771 
L 99.666765 57.09015 
L 99.72453 57.026482 
L 100.302179 56.181791 
L 100.706534 58.536058 
L 100.764299 58.482025 
L 100.822064 58.409194 
L 101.053123 59.687862 
L 101.399713 59.146839 
L 101.630773 61.274066 
L 101.688537 61.202817 
L 101.746302 61.135755 
L 101.804067 61.311234 
L 101.861832 61.222917 
L 101.919597 61.145208 
L 101.977362 61.70294 
L 102.035127 61.621787 
L 102.959366 60.285104 
L 103.017131 60.670365 
L 103.074895 60.595896 
L 103.421485 60.131985 
L 103.47925 60.425941 
L 103.537015 60.362863 
L 103.999134 59.822206 
L 104.114664 59.806652 
L 104.865608 58.953618 
L 104.923373 59.386706 
L 104.981138 59.327488 
L 105.963141 58.35414 
L 106.367496 57.974009 
L 106.54079 58.65176 
L 107.407264 57.773602 
L 107.465029 58.115932 
L 107.522794 58.051778 
L 107.984913 57.56997 
L 108.158208 58.49794 
L 108.215973 58.43568 
L 108.389268 58.261409 
L 108.447033 58.600809 
L 108.504798 58.540735 
L 108.620327 58.425551 
L 108.793622 59.028397 
L 109.082447 58.755459 
L 109.140212 59.043079 
L 109.197977 58.989218 
L 109.891156 58.329522 
L 109.94892 58.683212 
L 110.006685 58.622049 
L 110.06445 58.577154 
L 110.122215 58.784555 
L 110.17998 58.766208 
L 110.237745 58.720469 
L 110.29551 59.04374 
L 110.353275 59.020672 
L 110.41104 58.974673 
L 110.468805 59.343041 
L 110.52657 59.288103 
L 110.815394 59.058809 
L 110.873159 59.356768 
L 110.930924 59.321639 
L 113.414815 57.464783 
L 113.47258 57.597636 
L 113.530345 57.569139 
L 113.645875 57.514302 
L 113.81917 58.240201 
L 113.876935 58.201842 
L 113.9347 58.479713 
L 113.992465 58.449058 
L 114.396819 58.160024 
L 114.454584 58.339771 
L 114.512349 58.290974 
L 115.494352 57.572354 
L 115.552117 57.728089 
L 115.609882 57.678122 
L 115.667647 57.629597 
L 115.725412 57.823874 
L 115.783177 57.770994 
L 117.2273 56.714951 
L 117.516124 56.535483 
L 117.689419 57.079218 
L 118.902482 56.442348 
L 118.960247 56.626564 
L 119.018012 56.583583 
L 120.231075 55.879037 
L 120.28884 55.853535 
L 120.346605 56.13876 
L 120.40437 56.111549 
L 121.386374 55.534759 
L 121.444139 55.895234 
L 121.501904 55.874778 
L 122.483907 55.324843 
L 122.541672 55.525229 
L 122.599437 55.764676 
L 122.657202 55.732056 
L 123.8125 55.154062 
L 123.870265 55.458267 
L 123.92803 55.423808 
L 124.04356 55.356522 
L 124.101325 55.533715 
L 124.15909 55.501469 
L 124.332385 55.405788 
L 124.390149 55.576012 
L 124.447914 55.543119 
L 125.718743 54.998592 
L 125.776507 55.166209 
L 125.834272 55.139919 
L 126.065332 55.062341 
L 126.180862 55.122354 
L 126.758511 54.893228 
L 127.047336 55.552769 
L 127.33616 55.416061 
L 127.393925 55.655684 
L 127.45169 55.633688 
L 127.56722 55.576575 
L 127.624985 55.786466 
L 127.68275 55.75267 
L 127.740515 55.724466 
L 127.856044 55.828567 
L 127.913809 55.799199 
L 128.029339 55.924059 
L 129.588992 55.392828 
L 129.646757 55.620958 
L 129.704522 55.590095 
L 129.935581 55.486328 
L 130.051111 55.658404 
L 131.264174 55.169538 
L 131.321939 55.436456 
L 131.379704 55.410154 
L 132.072883 55.13237 
L 132.130648 55.277767 
L 132.188413 55.248681 
L 132.361708 55.169832 
L 132.419473 55.330839 
L 132.477238 55.300849 
L 132.592768 55.247651 
L 132.708297 55.337222 
L 133.517006 55.042931 
L 133.632536 55.138367 
L 134.26795 54.891746 
L 134.38348 54.965717 
L 134.49901 55.002388 
L 134.556775 55.206848 
L 134.61454 55.186828 
L 135.423248 55.104962 
L 135.538778 55.15023 
L 136.694077 54.728844 
L 136.751841 54.899869 
L 136.809606 54.879129 
L 138.600319 54.40998 
L 138.715849 54.575114 
L 139.004673 54.466536 
L 139.062438 54.724272 
L 139.120203 54.70665 
L 139.351263 54.630378 
L 139.466793 54.882589 
L 139.524557 54.86612 
L 141.257505 54.336997 
L 141.31527 54.531396 
L 141.373035 54.510687 
L 141.719624 54.403966 
L 141.835154 54.592019 
L 142.008449 54.532302 
L 142.239508 54.721609 
L 142.297273 54.699912 
L 142.355038 54.857819 
L 142.412803 54.836571 
L 142.759393 54.724703 
L 142.817158 54.941486 
L 142.874923 54.921709 
L 142.990452 54.881446 
L 143.105982 55.070288 
L 143.972456 54.823824 
L 144.087986 54.92792 
L 145.474344 54.619647 
L 145.589874 54.741611 
L 146.398582 54.526038 
L 146.514112 54.723664 
L 146.629642 54.685755 
L 146.745172 54.820525 
L 147.553881 54.657084 
L 148.016 54.632409 
L 148.13153 54.722963 
L 149.402358 54.444937 
L 149.633418 54.671822 
L 151.77072 54.309676 
L 419.857695 54.392395 
L 420.088754 54.426142 
L 436.262931 54.449296 
L 436.262931 54.449296 
" clip-path="url(#p889133b888)" style="fill: none; stroke: #1f77b4; stroke-width: 1.8; stroke-linecap: square"/>
   </g>
   <g id="line2d_34">
    <path d="M 77.427273 36.121818 
L 77.485038 53.385363 
L 77.542803 47.199259 
L 77.600567 44.642927 
L 77.658332 60.353721 
L 77.716097 56.175806 
L 78.004922 47.081831 
L 78.178217 44.745591 
L 78.235982 51.499243 
L 78.293746 50.570654 
L 78.351511 49.696292 
L 78.409276 52.17152 
L 78.467041 51.432103 
L 78.813631 47.604531 
L 79.27575 44.966429 
L 79.564575 43.717778 
L 79.62234 45.304434 
L 79.680104 45.046099 
L 79.795634 44.671635 
L 79.853399 50.393976 
L 79.911164 50.033023 
L 80.142224 48.842325 
L 80.199989 49.947018 
L 80.257754 49.665302 
L 80.431048 48.872829 
L 80.488813 50.203311 
L 80.546578 49.984664 
L 80.719873 49.251358 
L 80.950933 50.727933 
L 81.355287 49.170841 
L 81.413052 50.998382 
L 81.470817 50.76577 
L 81.528582 50.537799 
L 81.701877 52.264823 
L 81.875171 51.658452 
L 81.932936 52.811923 
L 81.990701 52.584295 
L 82.048466 52.38543 
L 82.221761 53.487171 
L 82.279526 53.259454 
L 82.337291 54.516986 
L 82.395056 54.284169 
L 82.45282 54.057172 
L 82.68388 56.38543 
L 82.857175 55.762671 
L 82.972705 59.031819 
L 83.03047 58.778299 
L 83.088234 59.404545 
L 83.145999 59.192329 
L 83.319294 58.512962 
L 83.377059 59.637134 
L 83.434824 59.433042 
L 83.839178 57.980314 
L 83.896943 58.700823 
L 83.954708 58.485525 
L 84.243533 57.517065 
L 84.301298 59.138381 
L 84.359063 58.95083 
L 84.532357 58.399349 
L 84.590122 58.729743 
L 84.647887 58.535232 
L 84.878947 57.885256 
L 84.936712 58.852892 
L 84.994477 58.668174 
L 85.110007 58.319984 
L 85.225536 60.542125 
L 85.283301 60.344597 
L 85.398831 60.008109 
L 85.456596 60.736162 
L 85.514361 60.572908 
L 85.572126 60.712394 
L 85.745421 61.581951 
L 85.803186 61.416837 
L 85.918715 62.517538 
L 85.97648 62.343243 
L 86.265305 61.505193 
L 86.496365 63.306901 
L 86.554129 63.115442 
L 86.669659 62.74872 
L 86.785189 63.551833 
L 86.900719 63.209448 
L 87.074014 62.69591 
L 87.131779 63.399357 
L 87.189544 63.222591 
L 87.420603 62.620609 
L 87.593898 63.445605 
L 87.767193 63.00208 
L 87.824958 63.976353 
L 87.882723 63.815421 
L 87.940487 63.929602 
L 88.056017 63.624737 
L 88.229312 64.884552 
L 88.287077 64.734011 
L 88.518137 64.097087 
L 88.575902 64.224547 
L 88.691431 65.008569 
L 88.749196 64.847534 
L 89.7312 62.944392 
L 89.788965 64.118205 
L 89.84673 63.98353 
L 90.366614 62.877274 
L 90.424379 63.219811 
L 90.482144 63.092874 
L 91.117558 61.890012 
L 91.175323 62.301207 
L 91.233088 62.178318 
L 91.348617 61.967669 
L 91.752972 64.229169 
L 91.810737 64.108316 
L 91.926267 63.868341 
L 91.984032 64.242474 
L 92.041796 64.123591 
L 92.099561 64.162445 
L 92.157326 64.055678 
L 92.272856 64.487776 
L 92.330621 64.370321 
L 92.677211 63.721413 
L 92.79274 64.060768 
L 93.0238 63.641722 
L 93.13933 64.505511 
L 93.25486 64.281777 
L 93.428154 63.957641 
L 93.485919 64.701822 
L 93.543684 64.610009 
L 93.948039 64.090109 
L 94.179098 63.702845 
L 94.294628 64.568743 
L 94.352393 64.466257 
L 94.410158 64.666109 
L 94.467923 64.591252 
L 94.641218 64.306159 
L 94.698983 64.724023 
L 94.756748 64.624539 
L 95.334397 64.021795 
L 95.392162 64.168854 
L 95.449927 64.072772 
L 95.565456 63.906475 
L 95.623221 64.160172 
L 95.680986 64.073998 
L 95.796516 63.900006 
L 95.854281 64.405737 
L 95.912046 64.327457 
L 96.258635 63.802884 
L 96.374165 64.458202 
L 96.43193 64.365008 
L 96.54746 64.189826 
L 96.77852 64.643962 
L 97.876053 63.279962 
L 98.049348 63.61763 
L 98.280407 63.304378 
L 98.338172 63.799404 
L 98.395937 63.730834 
L 99.609 62.412706 
L 99.666765 62.531188 
L 99.72453 62.458551 
L 100.07112 62.047299 
L 100.18665 62.400331 
L 100.648769 61.886949 
L 100.706534 62.082185 
L 100.764299 62.017926 
L 100.822064 61.948474 
L 100.995358 62.289319 
L 101.284183 61.966311 
L 101.399713 62.279817 
L 101.457478 62.209971 
L 101.630773 62.011036 
L 101.688537 62.254886 
L 101.746302 62.203572 
L 102.150657 61.780958 
L 102.208422 62.061572 
L 102.266187 61.996087 
L 102.381716 61.883015 
L 102.439481 62.062382 
L 102.497246 62.00266 
L 102.670541 62.012749 
L 102.728306 61.948594 
L 102.786071 62.132565 
L 102.843836 62.068418 
L 103.47925 61.450169 
L 103.537015 61.644678 
L 103.59478 61.59948 
L 103.652545 61.541998 
L 103.71031 61.732975 
L 103.768074 61.671313 
L 103.883604 61.548876 
L 103.941369 61.709868 
L 103.999134 61.659783 
L 104.519018 61.191924 
L 104.576783 61.517984 
L 104.634548 61.464741 
L 104.981138 61.152506 
L 105.038903 61.325915 
L 105.096667 61.280423 
L 105.154432 61.222173 
L 105.212197 61.437784 
L 105.269962 61.379439 
L 105.558787 61.186619 
L 105.616552 61.466797 
L 105.674317 61.4163 
L 106.367496 60.783752 
L 106.425261 60.941287 
L 106.483025 60.894487 
L 106.598555 60.796597 
L 106.77185 61.049283 
L 107.407264 60.547501 
L 107.522794 60.920888 
L 107.580559 60.868293 
L 107.696089 60.76724 
L 107.753854 60.934373 
L 107.811619 60.889128 
L 108.100443 60.652856 
L 108.158208 60.823127 
L 108.215973 60.772421 
L 109.602331 59.683879 
L 109.775626 59.567064 
L 109.833391 59.810862 
L 109.891156 59.768411 
L 110.873159 59.067392 
L 110.930924 59.159068 
L 110.988689 59.116223 
L 111.104219 59.032458 
L 111.277514 59.221673 
L 112.259517 58.551608 
L 112.375047 58.566806 
L 112.548342 58.449586 
L 112.606107 58.610259 
L 112.663871 58.570496 
L 113.125991 58.390459 
L 113.761405 58.012458 
L 113.81917 58.246098 
L 113.876935 58.213434 
L 114.165759 58.032536 
L 114.223524 58.227265 
L 114.281289 58.198387 
L 114.339054 58.161129 
L 114.396819 58.371742 
L 114.454584 58.335156 
L 115.205528 57.970618 
L 115.321058 58.02697 
L 115.494352 57.926865 
L 115.667647 58.264003 
L 116.187531 57.968359 
L 116.245296 58.223443 
L 116.303061 58.196509 
L 116.534121 58.061231 
L 116.707416 58.319757 
L 117.2273 58.026496 
L 117.285065 58.149805 
L 117.34283 58.120158 
L 117.978244 57.770144 
L 118.093774 57.838138 
L 118.209303 57.777168 
L 118.267068 57.894085 
L 118.324833 57.862107 
L 118.902482 57.567874 
L 118.960247 57.682445 
L 119.018012 57.651299 
L 119.133542 57.587457 
L 119.249072 57.653695 
L 119.306837 57.621722 
L 119.364602 57.791786 
L 119.422367 57.761523 
L 119.480132 57.731344 
L 119.595661 57.799429 
L 120.5199 57.436534 
L 120.577665 57.625566 
L 120.63543 57.605867 
L 121.501904 57.176379 
L 121.559669 57.320354 
L 121.617433 57.291204 
L 122.657202 56.813789 
L 122.714967 56.941294 
L 122.772732 56.913063 
L 122.830497 56.887817 
L 122.946027 56.969748 
L 123.061556 56.922268 
L 123.177086 57.012703 
L 123.465911 57.002101 
L 123.69697 57.338155 
L 123.92803 57.360084 
L 124.447914 57.141947 
L 124.563444 57.265302 
L 124.621209 57.241183 
L 124.736739 57.331186 
L 125.487683 57.143816 
L 125.545448 57.123348 
L 125.776507 57.371443 
L 126.238627 57.216782 
L 126.354157 57.36627 
L 127.047336 57.290248 
L 127.1051 57.516553 
L 127.162865 57.501438 
L 127.45169 57.419449 
L 127.56722 57.546962 
L 129.242402 57.146588 
L 129.357932 57.310682 
L 129.588992 57.274408 
L 129.704522 57.488982 
L 130.282171 57.403053 
L 130.455466 57.50221 
L 132.130648 57.379931 
L 133.401476 57.325118 
L 133.517006 57.474495 
L 134.094655 57.398126 
L 134.210185 57.553546 
L 134.903364 57.563193 
L 146.571877 57.438242 
L 167.540542 57.444494 
L 296.818424 57.547845 
L 297.569368 57.556528 
L 367.580446 57.616722 
L 367.580446 57.616722 
" clip-path="url(#p889133b888)" style="fill: none; stroke: #ff7f0e; stroke-width: 1.8; stroke-linecap: square"/>
   </g>
   <g id="line2d_35">
    <path d="M 77.427273 47.199259 
L 77.542803 85.897104 
L 77.600567 75.218669 
L 77.773862 58.190158 
L 78.004922 88.379034 
L 78.120452 80.945184 
L 78.178217 81.866717 
L 78.235982 86.767504 
L 78.293746 83.764618 
L 78.698101 70.087978 
L 78.755866 77.017031 
L 78.813631 75.556487 
L 78.986925 71.228785 
L 79.04469 73.302536 
L 79.102455 71.903167 
L 79.27575 68.677107 
L 79.333515 71.618076 
L 79.39128 70.588989 
L 79.449045 69.684483 
L 79.50681 76.256239 
L 79.564575 75.130975 
L 79.911164 69.707108 
L 79.968929 69.860217 
L 80.199989 67.044596 
L 80.257754 68.196419 
L 80.315519 67.559057 
L 80.488813 65.979674 
L 80.546578 67.936321 
L 80.604343 67.391302 
L 80.893168 65.1071 
L 80.950933 66.159752 
L 81.008698 65.618406 
L 81.181992 64.304202 
L 81.239757 65.031694 
L 81.297522 64.681929 
L 81.355287 64.960067 
L 81.413052 64.742309 
L 81.586347 63.43783 
L 81.701877 64.942882 
L 81.759641 64.597785 
L 82.106231 62.578283 
L 82.163996 63.696237 
L 82.221761 63.321648 
L 82.337291 62.589068 
L 82.510585 66.078013 
L 82.626115 65.347261 
L 82.79941 64.466446 
L 82.857175 65.161695 
L 82.91494 64.874426 
L 82.972705 64.651179 
L 83.088234 64.944551 
L 83.145999 64.612075 
L 83.203764 65.42243 
L 83.261529 65.160671 
L 83.377059 64.588477 
L 83.434824 64.890098 
L 83.492589 64.657783 
L 83.608119 64.170796 
L 83.665884 65.049798 
L 83.723649 64.812837 
L 83.781413 65.026927 
L 83.839178 66.132641 
L 83.896943 65.814505 
L 84.128003 64.727879 
L 84.185768 65.574276 
L 84.243533 65.376466 
L 84.301298 65.150171 
L 84.359063 65.564216 
L 84.416828 65.299526 
L 84.936712 63.165111 
L 84.994477 63.678589 
L 85.052242 63.464196 
L 85.283301 62.732495 
L 85.341066 62.929248 
L 85.398831 62.802967 
L 85.514361 62.372842 
L 85.572126 63.358705 
L 85.629891 63.279985 
L 85.687656 63.113206 
L 85.803186 64.675269 
L 85.86095 64.467698 
L 86.034245 63.904874 
L 86.149775 64.32913 
L 86.20754 64.114087 
L 86.265305 63.920253 
L 86.32307 64.145409 
L 86.380835 63.956612 
L 86.669659 63.175829 
L 86.727424 63.861654 
L 86.785189 63.672832 
L 86.842954 63.503177 
L 86.958484 64.069186 
L 87.016249 63.907379 
L 87.074014 64.272876 
L 87.131779 64.078681 
L 87.247308 63.741768 
L 87.305073 64.181496 
L 87.362838 64.031617 
L 87.593898 63.37323 
L 87.651663 63.782239 
L 87.709428 63.624066 
L 88.056017 62.777257 
L 88.229312 63.444328 
L 88.344842 63.115313 
L 88.460372 64.057233 
L 88.518137 63.892834 
L 88.980256 62.795964 
L 89.038021 63.012595 
L 89.095786 62.935241 
L 89.50014 62.19523 
L 89.557905 63.05057 
L 89.61567 62.911277 
L 89.673435 62.793025 
L 89.788965 63.194455 
L 89.84673 63.060423 
L 90.077789 62.59729 
L 90.135554 63.580866 
L 90.193319 63.458912 
L 90.424379 62.963068 
L 90.539909 63.436628 
L 90.597674 63.346096 
L 90.770968 62.99487 
L 91.002028 64.421801 
L 91.464147 63.469049 
L 91.579677 63.695077 
L 91.637442 63.591621 
L 92.330621 62.360274 
L 92.446151 62.897107 
L 92.503916 62.794772 
L 93.601449 61.187478 
L 93.659214 61.29961 
L 93.716979 61.211701 
L 93.948039 60.879708 
L 94.121333 61.269716 
L 94.179098 61.185531 
L 94.525688 60.824982 
L 94.641218 61.109724 
L 95.969811 59.487834 
L 96.027576 60.133825 
L 96.085341 60.057432 
L 97.182874 58.814498 
L 97.356169 59.34989 
L 97.529463 59.159777 
L 97.587228 59.865968 
L 97.644993 59.790679 
L 97.818288 59.57237 
L 97.876053 59.897312 
L 97.933818 59.817401 
L 97.991583 59.758762 
L 98.164878 60.403183 
L 98.222642 60.330361 
L 98.338172 60.199242 
L 98.453702 60.631726 
L 98.569232 60.494768 
L 98.626997 60.553568 
L 98.742527 60.571469 
L 99.262411 60.15121 
L 99.320176 60.377351 
L 99.377941 60.302077 
L 99.72453 60.021693 
L 100.07112 59.724149 
L 100.128885 59.849757 
L 100.18665 59.793305 
L 100.359944 59.619661 
L 100.417709 59.699085 
L 100.648769 60.672288 
L 100.706534 60.604851 
L 100.764299 60.958816 
L 100.822064 60.890095 
L 101.053123 60.632557 
L 101.110888 60.751969 
L 101.168653 60.68743 
L 101.399713 60.465014 
L 101.457478 60.665397 
L 101.515243 60.611171 
L 101.977362 60.12331 
L 102.150657 60.253584 
L 102.381716 60.034355 
L 102.497246 60.533417 
L 102.555011 60.472203 
L 102.843836 60.180741 
L 102.901601 60.391297 
L 102.959366 60.329879 
L 103.13266 60.173474 
L 103.190425 60.374058 
L 103.24819 60.321032 
L 103.305955 60.262894 
L 103.421485 60.718213 
L 103.47925 60.683432 
L 103.825839 60.372516 
L 103.941369 60.440908 
L 104.230194 60.182154 
L 104.287959 60.462641 
L 104.345724 60.399663 
L 104.519018 60.221403 
L 104.750078 60.975668 
L 105.212197 60.559364 
L 105.269962 60.837413 
L 105.327727 60.790315 
L 105.616552 60.553235 
L 105.847611 60.808577 
L 106.136436 60.579533 
L 106.194201 60.807064 
L 106.251966 60.751645 
L 106.309731 60.705537 
L 106.483025 61.046529 
L 106.54079 60.997432 
L 106.598555 61.07569 
L 106.65632 61.019757 
L 107.060675 60.764878 
L 107.11844 60.958993 
L 107.176204 60.91728 
L 108.447033 59.880483 
L 108.504798 60.340414 
L 108.562562 60.286971 
L 108.620327 60.243248 
L 108.678092 60.380005 
L 108.735857 60.334361 
L 108.909152 60.202836 
L 108.966917 60.326514 
L 109.024682 60.284522 
L 109.313506 60.118061 
L 109.371271 60.505641 
L 109.429036 60.462612 
L 109.544566 60.372066 
L 109.660096 60.697719 
L 109.717861 60.652865 
L 109.94892 60.482429 
L 110.006685 60.568278 
L 110.17998 60.953047 
L 110.584335 60.641768 
L 110.642099 60.804519 
L 110.699864 60.757742 
L 110.815394 60.747414 
L 111.219749 60.433047 
L 111.277514 60.624692 
L 111.335278 60.585659 
L 111.508573 60.4471 
L 111.681868 60.940071 
L 111.739633 60.901 
L 111.797398 61.010438 
L 111.855163 60.969597 
L 111.912928 60.924179 
L 111.970693 61.043501 
L 112.028457 61.008699 
L 112.259517 60.847179 
L 112.317282 60.946978 
L 112.375047 60.902764 
L 112.837166 60.704759 
L 112.894931 60.803161 
L 112.952696 60.758783 
L 113.35705 60.49138 
L 113.414815 60.940694 
L 113.47258 60.898383 
L 114.454584 60.316185 
L 114.570114 60.319578 
L 114.916703 60.120476 
L 114.974468 60.246152 
L 115.032233 60.207205 
L 115.494352 59.911366 
L 115.552117 60.025645 
L 115.609882 59.985606 
L 115.898707 59.939651 
L 116.129766 59.849128 
L 116.534121 59.708659 
L 116.649651 59.752827 
L 116.822945 59.641527 
L 116.99624 59.761605 
L 117.862714 59.271803 
L 118.151539 59.105434 
L 118.267068 59.480343 
L 118.382598 59.420715 
L 118.613658 59.28847 
L 118.671423 59.459739 
L 118.729188 59.431355 
L 119.595661 58.96409 
L 119.711191 59.012073 
L 119.942251 58.946446 
L 120.115546 58.990628 
L 120.231075 58.924549 
L 120.28884 59.112975 
L 120.346605 59.089556 
L 120.924254 58.817802 
L 121.039784 58.853062 
L 121.848493 58.474011 
L 121.906258 58.590135 
L 121.964023 58.561313 
L 122.079553 58.589748 
L 122.252848 58.554603 
L 123.061556 58.298869 
L 123.177086 58.618473 
L 123.234851 58.595632 
L 123.8125 58.440033 
L 123.92803 58.522958 
L 124.447914 58.390992 
L 124.505679 58.543485 
L 124.563444 58.519291 
L 125.718743 58.198349 
L 125.834272 58.267119 
L 126.180862 58.203552 
L 126.296392 58.250086 
L 126.700746 58.185335 
L 126.816276 58.25033 
L 126.989571 58.21021 
L 127.047336 58.406884 
L 127.1051 58.381252 
L 127.45169 58.372861 
L 127.56722 58.445242 
L 128.087104 58.365231 
L 128.260399 58.421388 
L 128.953578 58.250057 
L 129.069108 58.43192 
L 129.357932 58.351125 
L 129.473462 58.445971 
L 129.820052 58.43949 
L 129.993346 58.497575 
L 130.108876 58.590018 
L 130.97535 58.376823 
L 131.09088 58.457851 
L 132.823827 58.056861 
L 133.979126 57.839376 
L 134.210185 58.008893 
L 136.347487 57.708922 
L 136.520782 57.757684 
L 138.138199 57.607213 
L 138.311494 57.676342 
L 139.582322 57.565576 
L 139.928912 57.609675 
L 140.102207 57.658517 
L 140.564326 57.81465 
L 140.737621 57.885309 
L 145.820933 57.594846 
L 155.121085 57.348651 
L 182.732715 57.164035 
L 335.751977 57.218511 
L 335.751977 57.218511 
" clip-path="url(#p889133b888)" style="fill: none; stroke: #2ca02c; stroke-width: 1.8; stroke-linecap: square"/>
   </g>
   <g id="line2d_36">
    <path d="M 77.427273 36.121818 
L 77.716097 36.121818 
L 77.773862 52.030909 
L 77.831627 50.098029 
L 78.004922 46.329699 
L 78.062687 69.096527 
L 78.120452 67.170996 
L 78.409276 57.159095 
L 78.698101 52.882013 
L 78.871396 63.539667 
L 78.929161 62.744398 
L 78.986925 67.352724 
L 79.04469 66.371753 
L 79.102455 65.179638 
L 79.16022 69.769793 
L 79.217985 68.664992 
L 79.27575 67.66562 
L 79.333515 72.019254 
L 79.39128 71.010471 
L 79.449045 69.848112 
L 79.50681 73.491499 
L 79.564575 72.398818 
L 79.968929 66.480874 
L 80.546578 60.935286 
L 81.124227 57.287699 
L 81.817406 53.812028 
L 81.875171 55.352944 
L 81.932936 55.107307 
L 82.395056 53.361699 
L 82.56835 52.70764 
L 82.626115 53.966464 
L 82.68388 53.814036 
L 83.145999 52.25343 
L 84.474592 49.196191 
L 84.532357 50.049218 
L 84.590122 49.922696 
L 85.283301 48.639356 
L 85.341066 49.321573 
L 85.398831 49.214506 
L 85.629891 48.814143 
L 85.687656 49.763177 
L 85.745421 49.669376 
L 86.496365 48.591451 
L 86.727424 48.226186 
L 86.785189 48.928527 
L 86.842954 48.841293 
L 87.420603 48.051889 
L 87.478368 48.725564 
L 87.536133 48.645977 
L 88.287077 47.804086 
L 88.344842 48.443846 
L 88.402607 48.371948 
L 89.095786 47.654179 
L 90.366614 46.542922 
L 90.424379 47.11503 
L 90.482144 47.061007 
L 90.539909 47.012585 
L 90.597674 47.624623 
L 90.655438 47.560989 
L 91.695207 46.69649 
L 91.752972 47.312102 
L 91.810737 47.264806 
L 92.099561 47.045502 
L 92.157326 47.596216 
L 92.215091 47.56081 
L 94.005804 46.409575 
L 95.334397 45.636262 
L 95.392162 45.795999 
L 95.449927 45.762562 
L 99.666765 43.930781 
L 102.266187 43.111774 
L 102.843836 42.960899 
L 102.901601 43.450224 
L 102.959366 43.430298 
L 104.807843 42.953355 
L 107.522794 42.347431 
L 107.580559 42.897242 
L 107.638324 42.888275 
L 108.966917 42.602591 
L 111.508573 42.122599 
L 111.624103 42.244743 
L 114.396819 41.783014 
L 114.454584 42.124055 
L 114.512349 42.11393 
L 121.790728 41.161703 
L 124.678974 40.894705 
L 124.794504 41.105753 
L 125.083328 41.080564 
L 125.198858 41.243747 
L 125.603213 41.2102 
L 125.718743 41.370541 
L 126.123097 41.33546 
L 126.296392 41.459829 
L 126.527451 41.438083 
L 126.642981 41.666432 
L 127.740515 41.574985 
L 127.856044 41.762186 
L 129.993346 41.591827 
L 130.166641 41.677353 
L 131.841824 41.689815 
L 131.957353 41.868652 
L 133.112652 41.900213 
L 133.228182 42.168342 
L 133.401476 42.158595 
L 133.574771 42.318349 
L 133.748066 42.465928 
L 134.38348 42.434748 
L 134.730069 42.952545 
L 136.809606 42.920492 
L 137.329491 42.895801 
L 137.44502 43.06468 
L 138.369259 43.012982 
L 138.484789 43.191993 
L 138.715849 43.176188 
L 138.889143 43.279012 
L 139.004673 43.272573 
L 139.120203 43.441905 
L 140.564326 43.356266 
L 140.737621 43.490404 
L 141.661859 43.433258 
L 141.835154 43.544908 
L 142.297273 43.517961 
L 142.470568 43.653566 
L 144.665635 43.621103 
L 144.83893 43.993164 
L 145.127754 43.976277 
L 145.301049 44.119885 
L 145.474344 44.215124 
L 147.322821 44.117195 
L 147.553881 44.324012 
L 147.958235 44.302584 
L 148.13153 44.572194 
L 151.828485 44.485228 
L 152.001779 44.771599 
L 153.388137 44.69129 
L 153.561432 44.76148 
L 153.965786 44.73611 
L 154.081316 44.897102 
L 154.139081 44.893847 
L 154.312376 45.019436 
L 154.543436 45.006868 
L 154.658965 45.199339 
L 155.29438 45.164098 
L 155.467674 45.309506 
L 156.218618 45.265185 
L 156.334148 45.43511 
L 156.969562 45.484431 
L 157.200622 45.744346 
L 158.644745 45.747432 
L 158.760274 45.956828 
L 159.511218 45.996182 
L 159.626748 46.289405 
L 160.204397 46.331392 
L 160.493222 46.559714 
L 160.608752 46.551946 
L 160.782047 46.818883 
L 161.821815 46.852083 
L 163.208173 46.882236 
L 163.381468 47.015755 
L 163.843587 46.987226 
L 164.016882 47.0997 
L 165.114415 47.107624 
L 165.28771 47.253137 
L 165.634299 47.230232 
L 165.807594 47.346346 
L 166.154184 47.325597 
L 166.327478 47.449955 
L 166.500773 47.560104 
L 166.962893 47.618238 
L 167.136187 47.733037 
L 167.193952 47.730142 
L 167.367247 47.837249 
L 167.829366 47.809066 
L 168.002661 47.933266 
L 169.273489 47.853583 
L 169.504549 48.125802 
L 171.006437 48.11956 
L 171.179731 48.209618 
L 171.468556 48.254543 
L 171.584086 48.490253 
L 171.815145 48.480842 
L 171.98844 48.594426 
L 172.970444 48.550199 
L 173.143739 48.662887 
L 175.165511 48.671367 
L 175.338805 48.921529 
L 175.685395 48.902522 
L 175.85869 49.014613 
L 177.071753 49.071859 
L 177.245048 49.189847 
L 177.476107 49.178558 
L 177.649402 49.30654 
L 177.880462 49.296932 
L 178.053756 49.435093 
L 178.573641 49.517457 
L 178.746935 49.614678 
L 179.555644 49.574212 
L 179.728939 49.663802 
L 180.075528 49.645034 
L 180.248823 49.743389 
L 180.479883 49.730156 
L 180.653178 49.837661 
L 180.999767 49.82154 
L 181.173062 49.932831 
L 183.252599 49.973264 
L 183.425894 50.072361 
L 183.656953 50.063622 
L 183.830248 50.192814 
L 185.85202 50.183626 
L 186.025315 50.271209 
L 186.19861 50.263641 
L 186.371904 50.369043 
L 192.55275 50.270859 
L 192.726045 50.365724 
L 196.480765 50.221737 
L 196.711824 50.342595 
L 199.542305 50.327663 
L 199.7156 50.368011 
L 200.524309 50.421051 
L 200.697603 50.461259 
L 203.0082 50.38793 
L 203.181495 50.483816 
L 204.856677 50.474406 
L 205.029972 50.542228 
L 207.513864 50.562346 
L 207.744923 50.600509 
L 210.690934 50.641606 
L 210.979759 50.714638 
L 212.192822 50.736269 
L 212.481646 50.838668 
L 213.059296 50.88174 
L 213.23259 50.930927 
L 214.445654 50.970341 
L 214.618948 51.020583 
L 215.369892 51.10724 
L 216.178601 51.143392 
L 216.351896 51.210944 
L 224.612279 51.212876 
L 224.785573 51.271443 
L 227.2117 51.309228 
L 227.384995 51.369053 
L 229.522297 51.446202 
L 229.695591 51.50486 
L 230.677595 51.543978 
L 230.85089 51.612003 
L 232.526072 51.665336 
L 232.699367 51.715189 
L 233.392546 51.809422 
L 233.565841 51.859199 
L 236.685146 51.904864 
L 236.916206 51.94506 
L 241.941754 51.936101 
L 242.115048 51.995305 
L 248.815779 52.03633 
L 249.046838 52.077374 
L 256.614042 52.045694 
L 256.845102 52.086909 
L 260.888646 52.107445 
L 261.119706 52.137396 
L 272.09504 52.129854 
L 276.311879 52.19569 
L 276.716233 52.211573 
L 279.315654 52.306613 
L 280.297658 52.339387 
L 285.034381 52.445808 
L 286.305209 52.520908 
L 290.695343 52.627868 
L 291.619581 52.652249 
L 294.565592 52.75914 
L 295.547596 52.79248 
L 344.416715 52.899518 
L 345.283188 52.91618 
L 360.013242 52.999043 
L 360.013242 52.999043 
" clip-path="url(#p889133b888)" style="fill: none; stroke: #d62728; stroke-width: 1.8; stroke-linecap: square"/>
   </g>
   <g id="line2d_37">
    <path d="M 77.427273 36.121818 
L 77.542803 69.813574 
L 77.600567 61.245911 
L 77.658332 58.143237 
L 77.716097 64.539007 
L 77.773862 60.145184 
L 77.831627 56.748777 
L 77.889392 60.776401 
L 77.947157 57.943316 
L 78.293746 49.481546 
L 78.640336 45.719601 
L 78.871396 44.202626 
L 79.04469 50.212203 
L 79.449045 47.493636 
L 79.737869 46.098945 
L 79.795634 46.299217 
L 79.968929 45.638965 
L 80.026694 46.942969 
L 80.084459 46.72491 
L 80.546578 45.150619 
L 81.644112 42.808166 
L 82.221761 41.999995 
L 83.088234 41.079919 
L 84.647887 40.02707 
L 86.20754 39.334304 
L 88.287077 38.736911 
L 90.655438 38.262326 
L 93.543684 37.877453 
L 100.244415 37.365984 
L 116.822945 36.844508 
L 132.477238 36.649161 
L 139.466793 36.708356 
L 139.755617 36.735402 
L 143.856926 36.843564 
L 144.145751 36.870599 
L 149.344593 36.969685 
L 149.748948 36.987701 
L 155.121085 37.095672 
L 155.352144 37.140634 
L 161.475226 37.230539 
L 161.706285 37.275531 
L 171.584086 37.383417 
L 171.98844 37.401405 
L 179.844469 37.509295 
L 180.133293 37.536266 
L 185.274371 37.643944 
L 185.563195 37.70684 
L 197.000649 37.81452 
L 197.405003 37.832481 
L 210.921994 37.922077 
L 211.210818 37.949006 
L 217.622724 38.04773 
L 218.027078 38.074649 
L 227.038405 38.182221 
L 227.32723 38.209129 
L 233.854665 38.316707 
L 234.14349 38.343603 
L 241.248575 38.451134 
L 241.479634 38.504902 
L 247.429421 38.603453 
L 247.833775 38.621368 
L 264.81666 38.728451 
L 265.567604 38.737404 
L 273.596927 38.826592 
L 273.827987 38.862387 
L 281.452956 38.969405 
L 282.2039 38.978349 
L 289.828869 39.076521 
L 290.233223 39.094402 
L 296.587364 39.20113 
L 296.876189 39.227936 
L 310.566474 39.316716 
L 310.855298 39.343422 
L 319.982155 39.450434 
L 320.27098 39.477214 
L 327.895949 39.575203 
L 328.300303 39.593049 
L 334.01903 39.690992 
L 334.250089 39.726668 
L 343.145886 39.833525 
L 343.550241 39.851355 
L 348.286964 39.940338 
L 348.518024 39.975984 
L 365.385379 40.073354 
L 365.905263 40.117886 
L 372.952583 40.224519 
L 373.472467 40.269029 
L 377.631541 40.366758 
L 377.920366 40.393452 
L 385.02545 40.481888 
L 385.25651 40.517462 
L 397.444907 40.61491 
L 397.675967 40.650468 
L 414.543323 40.756556 
L 415.294266 40.765441 
L 428.811257 40.853639 
L 429.042316 40.889162 
L 438.226938 40.995183 
L 439.151177 41.030687 
L 455.267588 41.136433 
L 455.671943 41.154175 
L 460.81302 41.242802 
L 461.15961 41.296007 
L 470.055407 41.393316 
L 470.286467 41.428769 
L 475.889663 41.508453 
L 476.120723 41.543894 
L 485.882994 41.64015 
L 486.287348 41.65786 
L 498.937865 41.763493 
L 499.688809 41.772344 
L 510.317553 41.869456 
L 510.721908 41.887151 
L 524.989842 41.992907 
L 525.278667 42.019437 
L 539.084481 42.116294 
L 539.373306 42.142813 
L 541.972727 42.142813 
L 541.972727 42.142813 
" clip-path="url(#p889133b888)" style="fill: none; stroke: #9467bd; stroke-width: 1.8; stroke-linecap: square"/>
   </g>
   <g id="patch_3">
    <path d="M 54.2 260.44 
L 54.2 25.44 
" style="fill: none; stroke: #000000; stroke-width: 0.8; stroke-linejoin: miter; stroke-linecap: square"/>
   </g>
   <g id="patch_4">
    <path d="M 565.2 260.44 
L 565.2 25.44 
" style="fill: none; stroke: #000000; stroke-width: 0.8; stroke-linejoin: miter; stroke-linecap: square"/>
   </g>
   <g id="patch_5">
    <path d="M 54.2 260.44 
L 565.2 260.44 
" style="fill: none; stroke: #000000; stroke-width: 0.8; stroke-linejoin: miter; stroke-linecap: square"/>
   </g>
   <g id="patch_6">
    <path d="M 54.2 25.44 
L 565.2 25.44 
" style="fill: none; stroke: #000000; stroke-width: 0.8; stroke-linejoin: miter; stroke-linecap: square"/>
   </g>
   <g id="text_19">
    <!-- Timely Transfer Rate (Cumulative) -->
    <g transform="translate(207.277187 19.44) scale(0.12 -0.12)">
     <defs>
      <path id="DejaVuSans-54" d="M -19 4666 
L 3928 4666 
L 3928 4134 
L 2272 4134 
L 2272 0 
L 1638 0 
L 1638 4134 
L -19 4134 
L -19 4666 
z
" transform="scale(0.015625)"/>
      <path id="DejaVuSans-52" d="M 2841 2188 
Q 3044 2119 3236 1894 
Q 3428 1669 3622 1275 
L 4263 0 
L 3584 0 
L 2988 1197 
Q 2756 1666 2539 1819 
Q 2322 1972 1947 1972 
L 1259 1972 
L 1259 0 
L 628 0 
L 628 4666 
L 2053 4666 
Q 2853 4666 3247 4331 
Q 3641 3997 3641 3322 
Q 3641 2881 3436 2590 
Q 3231 2300 2841 2188 
z
M 1259 4147 
L 1259 2491 
L 2053 2491 
Q 2509 2491 2742 2702 
Q 2975 2913 2975 3322 
Q 2975 3731 2742 3939 
Q 2509 4147 2053 4147 
L 1259 4147 
z
" transform="scale(0.015625)"/>
      <path id="DejaVuSans-28" d="M 1984 4856 
Q 1566 4138 1362 3434 
Q 1159 2731 1159 2009 
Q 1159 1288 1364 580 
Q 1569 -128 1984 -844 
L 1484 -844 
Q 1016 -109 783 600 
Q 550 1309 550 2009 
Q 550 2706 781 3412 
Q 1013 4119 1484 4856 
L 1984 4856 
z
" transform="scale(0.015625)"/>
      <path id="DejaVuSans-43" d="M 4122 4306 
L 4122 3641 
Q 3803 3938 3442 4084 
Q 3081 4231 2675 4231 
Q 1875 4231 1450 3742 
Q 1025 3253 1025 2328 
Q 1025 1406 1450 917 
Q 1875 428 2675 428 
Q 3081 428 3442 575 
Q 3803 722 4122 1019 
L 4122 359 
Q 3791 134 3420 21 
Q 3050 -91 2638 -91 
Q 1578 -91 968 557 
Q 359 1206 359 2328 
Q 359 3453 968 4101 
Q 1578 4750 2638 4750 
Q 3056 4750 3426 4639 
Q 3797 4528 4122 4306 
z
" transform="scale(0.015625)"/>
      <path id="DejaVuSans-29" d="M 513 4856 
L 1013 4856 
Q 1481 4119 1714 3412 
Q 1947 2706 1947 2009 
Q 1947 1309 1714 600 
Q 1481 -109 1013 -844 
L 513 -844 
Q 928 -128 1133 580 
Q 1338 1288 1338 2009 
Q 1338 2731 1133 3434 
Q 928 4138 513 4856 
z
" transform="scale(0.015625)"/>
     </defs>
     <use xlink:href="#DejaVuSans-54"/>
     <use xlink:href="#DejaVuSans-69" x="57.958984"/>
     <use xlink:href="#DejaVuSans-6d" x="85.742188"/>
     <use xlink:href="#DejaVuSans-65" x="183.154297"/>
     <use xlink:href="#DejaVuSans-6c" x="244.677734"/>
     <use xlink:href="#DejaVuSans-79" x="272.460938"/>
     <use xlink:href="#DejaVuSans-20" x="331.640625"/>
     <use xlink:href="#DejaVuSans-54" x="363.427734"/>
     <use xlink:href="#DejaVuSans-72" x="409.761719"/>
     <use xlink:href="#DejaVuSans-61" x="450.875"/>
     <use xlink:href="#DejaVuSans-6e" x="512.154297"/>
     <use xlink:href="#DejaVuSans-73" x="575.533203"/>
     <use xlink:href="#DejaVuSans-66" x="627.632812"/>
     <use xlink:href="#DejaVuSans-65" x="662.837891"/>
     <use xlink:href="#DejaVuSans-72" x="724.361328"/>
     <use xlink:href="#DejaVuSans-20" x="765.474609"/>
     <use xlink:href="#DejaVuSans-52" x="797.261719"/>
     <use xlink:href="#DejaVuSans-61" x="864.494141"/>
     <use xlink:href="#DejaVuSans-74" x="925.773438"/>
     <use xlink:href="#DejaVuSans-65" x="964.982422"/>
     <use xlink:href="#DejaVuSans-20" x="1026.505859"/>
     <use xlink:href="#DejaVuSans-28" x="1058.292969"/>
     <use xlink:href="#DejaVuSans-43" x="1097.306641"/>
     <use xlink:href="#DejaVuSans-75" x="1167.130859"/>
     <use xlink:href="#DejaVuSans-6d" x="1230.509766"/>
     <use xlink:href="#DejaVuSans-75" x="1327.921875"/>
     <use xlink:href="#DejaVuSans-6c" x="1391.300781"/>
     <use xlink:href="#DejaVuSans-61" x="1419.083984"/>
     <use xlink:href="#DejaVuSans-74" x="1480.363281"/>
     <use xlink:href="#DejaVuSans-69" x="1519.572266"/>
     <use xlink:href="#DejaVuSans-76" x="1547.355469"/>
     <use xlink:href="#DejaVuSans-65" x="1606.535156"/>
     <use xlink:href="#DejaVuSans-29" x="1668.058594"/>
    </g>
   </g>
   <g id="legend_1">
    <g id="patch_7">
     <path d="M 473.826562 255.44 
L 558.2 255.44 
Q 560.2 255.44 560.2 253.44 
L 560.2 180.493125 
Q 560.2 178.493125 558.2 178.493125 
L 473.826562 178.493125 
Q 471.826562 178.493125 471.826562 180.493125 
L 471.826562 253.44 
Q 471.826562 255.44 473.826562 255.44 
z
" style="fill: #ffffff; opacity: 0.8; stroke: #cccccc; stroke-linejoin: miter"/>
    </g>
    <g id="line2d_38">
     <path d="M 475.826562 186.591563 
L 485.826562 186.591563 
L 495.826562 186.591563 
" style="fill: none; stroke: #1f77b4; stroke-width: 1.8; stroke-linecap: square"/>
    </g>
    <g id="text_20">
     <!-- SHEER -->
     <g transform="translate(503.826562 190.091563) scale(0.1 -0.1)">
      <defs>
       <path id="DejaVuSans-53" d="M 3425 4513 
L 3425 3897 
Q 3066 4069 2747 4153 
Q 2428 4238 2131 4238 
Q 1616 4238 1336 4038 
Q 1056 3838 1056 3469 
Q 1056 3159 1242 3001 
Q 1428 2844 1947 2747 
L 2328 2669 
Q 3034 2534 3370 2195 
Q 3706 1856 3706 1288 
Q 3706 609 3251 259 
Q 2797 -91 1919 -91 
Q 1588 -91 1214 -16 
Q 841 59 441 206 
L 441 856 
Q 825 641 1194 531 
Q 1563 422 1919 422 
Q 2459 422 2753 634 
Q 3047 847 3047 1241 
Q 3047 1584 2836 1778 
Q 2625 1972 2144 2069 
L 1759 2144 
Q 1053 2284 737 2584 
Q 422 2884 422 3419 
Q 422 4038 858 4394 
Q 1294 4750 2059 4750 
Q 2388 4750 2728 4690 
Q 3069 4631 3425 4513 
z
" transform="scale(0.015625)"/>
       <path id="DejaVuSans-48" d="M 628 4666 
L 1259 4666 
L 1259 2753 
L 3553 2753 
L 3553 4666 
L 4184 4666 
L 4184 0 
L 3553 0 
L 3553 2222 
L 1259 2222 
L 1259 0 
L 628 0 
L 628 4666 
z
" transform="scale(0.015625)"/>
       <path id="DejaVuSans-45" d="M 628 4666 
L 3578 4666 
L 3578 4134 
L 1259 4134 
L 1259 2753 
L 3481 2753 
L 3481 2222 
L 1259 2222 
L 1259 531 
L 3634 531 
L 3634 0 
L 628 0 
L 628 4666 
z
" transform="scale(0.015625)"/>
      </defs>
      <use xlink:href="#DejaVuSans-53"/>
      <use xlink:href="#DejaVuSans-48" x="63.476562"/>
      <use xlink:href="#DejaVuSans-45" x="138.671875"/>
      <use xlink:href="#DejaVuSans-45" x="201.855469"/>
      <use xlink:href="#DejaVuSans-52" x="265.039062"/>
     </g>
    </g>
    <g id="line2d_39">
     <path d="M 475.826562 201.269688 
L 485.826562 201.269688 
L 495.826562 201.269688 
" style="fill: none; stroke: #ff7f0e; stroke-width: 1.8; stroke-linecap: square"/>
    </g>
    <g id="text_21">
     <!-- ACTAR -->
     <g transform="translate(503.826562 204.769688) scale(0.1 -0.1)">
      <defs>
       <path id="DejaVuSans-41" d="M 2188 4044 
L 1331 1722 
L 3047 1722 
L 2188 4044 
z
M 1831 4666 
L 2547 4666 
L 4325 0 
L 3669 0 
L 3244 1197 
L 1141 1197 
L 716 0 
L 50 0 
L 1831 4666 
z
" transform="scale(0.015625)"/>
      </defs>
      <use xlink:href="#DejaVuSans-41"/>
      <use xlink:href="#DejaVuSans-43" x="66.658203"/>
      <use xlink:href="#DejaVuSans-54" x="136.482422"/>
      <use xlink:href="#DejaVuSans-41" x="189.816406"/>
      <use xlink:href="#DejaVuSans-52" x="258.224609"/>
     </g>
    </g>
    <g id="line2d_40">
     <path d="M 475.826562 215.947813 
L 485.826562 215.947813 
L 495.826562 215.947813 
" style="fill: none; stroke: #2ca02c; stroke-width: 1.8; stroke-linecap: square"/>
    </g>
    <g id="text_22">
     <!-- TFSM_DPC -->
     <g transform="translate(503.826562 219.447813) scale(0.1 -0.1)">
      <defs>
       <path id="DejaVuSans-46" d="M 628 4666 
L 3309 4666 
L 3309 4134 
L 1259 4134 
L 1259 2759 
L 3109 2759 
L 3109 2228 
L 1259 2228 
L 1259 0 
L 628 0 
L 628 4666 
z
" transform="scale(0.015625)"/>
       <path id="DejaVuSans-4d" d="M 628 4666 
L 1569 4666 
L 2759 1491 
L 3956 4666 
L 4897 4666 
L 4897 0 
L 4281 0 
L 4281 4097 
L 3078 897 
L 2444 897 
L 1241 4097 
L 1241 0 
L 628 0 
L 628 4666 
z
" transform="scale(0.015625)"/>
       <path id="DejaVuSans-5f" d="M 3263 -1063 
L 3263 -1509 
L -63 -1509 
L -63 -1063 
L 3263 -1063 
z
" transform="scale(0.015625)"/>
       <path id="DejaVuSans-44" d="M 1259 4147 
L 1259 519 
L 2022 519 
Q 2988 519 3436 956 
Q 3884 1394 3884 2338 
Q 3884 3275 3436 3711 
Q 2988 4147 2022 4147 
L 1259 4147 
z
M 628 4666 
L 1925 4666 
Q 3281 4666 3915 4102 
Q 4550 3538 4550 2338 
Q 4550 1131 3912 565 
Q 3275 0 1925 0 
L 628 0 
L 628 4666 
z
" transform="scale(0.015625)"/>
       <path id="DejaVuSans-50" d="M 1259 4147 
L 1259 2394 
L 2053 2394 
Q 2494 2394 2734 2622 
Q 2975 2850 2975 3272 
Q 2975 3691 2734 3919 
Q 2494 4147 2053 4147 
L 1259 4147 
z
M 628 4666 
L 2053 4666 
Q 2838 4666 3239 4311 
Q 3641 3956 3641 3272 
Q 3641 2581 3239 2228 
Q 2838 1875 2053 1875 
L 1259 1875 
L 1259 0 
L 628 0 
L 628 4666 
z
" transform="scale(0.015625)"/>
      </defs>
      <use xlink:href="#DejaVuSans-54"/>
      <use xlink:href="#DejaVuSans-46" x="61.083984"/>
      <use xlink:href="#DejaVuSans-53" x="116.853516"/>
      <use xlink:href="#DejaVuSans-4d" x="180.330078"/>
      <use xlink:href="#DejaVuSans-5f" x="266.609375"/>
      <use xlink:href="#DejaVuSans-44" x="316.609375"/>
      <use xlink:href="#DejaVuSans-50" x="393.611328"/>
      <use xlink:href="#DejaVuSans-43" x="453.914062"/>
     </g>
    </g>
    <g id="line2d_41">
     <path d="M 475.826562 230.904063 
L 485.826562 230.904063 
L 495.826562 230.904063 
" style="fill: none; stroke: #d62728; stroke-width: 1.8; stroke-linecap: square"/>
    </g>
    <g id="text_23">
     <!-- DST_WOA -->
     <g transform="translate(503.826562 234.404063) scale(0.1 -0.1)">
      <defs>
       <path id="DejaVuSans-57" d="M 213 4666 
L 850 4666 
L 1831 722 
L 2809 4666 
L 3519 4666 
L 4500 722 
L 5478 4666 
L 6119 4666 
L 4947 0 
L 4153 0 
L 3169 4050 
L 2175 0 
L 1381 0 
L 213 4666 
z
" transform="scale(0.015625)"/>
       <path id="DejaVuSans-4f" d="M 2522 4238 
Q 1834 4238 1429 3725 
Q 1025 3213 1025 2328 
Q 1025 1447 1429 934 
Q 1834 422 2522 422 
Q 3209 422 3611 934 
Q 4013 1447 4013 2328 
Q 4013 3213 3611 3725 
Q 3209 4238 2522 4238 
z
M 2522 4750 
Q 3503 4750 4090 4092 
Q 4678 3434 4678 2328 
Q 4678 1225 4090 567 
Q 3503 -91 2522 -91 
Q 1538 -91 948 565 
Q 359 1222 359 2328 
Q 359 3434 948 4092 
Q 1538 4750 2522 4750 
z
" transform="scale(0.015625)"/>
      </defs>
      <use xlink:href="#DejaVuSans-44"/>
      <use xlink:href="#DejaVuSans-53" x="77.001953"/>
      <use xlink:href="#DejaVuSans-54" x="140.478516"/>
      <use xlink:href="#DejaVuSans-5f" x="201.5625"/>
      <use xlink:href="#DejaVuSans-57" x="251.5625"/>
      <use xlink:href="#DejaVuSans-4f" x="350.439453"/>
      <use xlink:href="#DejaVuSans-41" x="427.400391"/>
     </g>
    </g>
    <g id="line2d_42">
     <path d="M 475.826562 245.860313 
L 485.826562 245.860313 
L 495.826562 245.860313 
" style="fill: none; stroke: #9467bd; stroke-width: 1.8; stroke-linecap: square"/>
    </g>
    <g id="text_24">
     <!-- TRAIL -->
     <g transform="translate(503.826562 249.360313) scale(0.1 -0.1)">
      <defs>
       <path id="DejaVuSans-49" d="M 628 4666 
L 1259 4666 
L 1259 0 
L 628 0 
L 628 4666 
z
" transform="scale(0.015625)"/>
       <path id="DejaVuSans-4c" d="M 628 4666 
L 1259 4666 
L 1259 531 
L 3531 531 
L 3531 0 
L 628 0 
L 628 4666 
z
" transform="scale(0.015625)"/>
      </defs>
      <use xlink:href="#DejaVuSans-54"/>
      <use xlink:href="#DejaVuSans-52" x="61.083984"/>
      <use xlink:href="#DejaVuSans-41" x="126.566406"/>
      <use xlink:href="#DejaVuSans-49" x="194.974609"/>
      <use xlink:href="#DejaVuSans-4c" x="224.466797"/>
     </g>
    </g>
   </g>
  </g>
 </g>
 <defs>
  <clipPath id="p889133b888">
   <rect x="54.2" y="25.44" width="511" height="235"/>
  </clipPath>
 </defs>
</svg>
